<?xml version="1.0" encoding="UTF-8"?>
<svg id="_レイヤー_2" data-name="レイヤー 2" xmlns="http://www.w3.org/2000/svg" viewBox="0 0 661 48">
  <defs>
    <style>
      .cls-1, .cls-2 {
        stroke-width: 0px;
      }

      .cls-2 {
        opacity: 0;
      }
    </style>
  </defs>
  <g id="_レイヤー_1-2" data-name="レイヤー 1">
    <g>
      <path class="cls-1" d="m14.4189453,5.1098633c.2470703-.3227539.4560547-.6645508.6083984-.6645508.2275391,0,1.7285156,1.2724609,1.7285156,1.5576172-.0380859.2089844-.2089844.3037109-.4746094.3037109h-7.2763672c.6455078,3.5908203,2.5839844,7.4277344,7.9980469,10.0117188l-.0380859.2089844c-.6269531.0761719-1.0644531.3227539-1.2539062,1.0449219-5.0722656-2.9067383-6.5351562-7.4472656-7.0664062-11.246582-.4941406,4.4262695-2.1855469,8.3588867-8.4355469,11.2270508l-.2089844-.3417969c5.3388672-2.9633789,6.8964844-6.6679688,7.3710938-10.9042969h-3.9707031c-.9873047.019043-1.8994141.1142578-2.8496094.2661133L.0380859,5.6035156c.8359375.0952148,1.671875.1333008,2.5263672.1523438h4.8632812c.0576172-.5703125.0761719-1.1396484.0957031-1.7099609.0566406-1.2539062-.0195312-2.90625-.1904297-3.9511719,2.2041016.2089844,2.2041016.3989258,1.8808594.6269531l-.3037109.2275391c-.0380859,1.6337891-.0566406,3.2490234-.2089844,4.8066406h5.2617188l.4560547-.6459961Z"/>
      <path class="cls-1" d="m32.0898438,11.8730469c.2089844-.2851562.3789062-.5703125.53125-.5703125.2285156,0,1.5390625,1.1020508,1.5390625,1.3867188-.0380859.2089844-.2089844.3041992-.4941406.3041992h-5.6611328v3.5146484h5.1289062l.4179688-.5888672c.2285156-.3041992.4179688-.6079102.5703125-.6079102.2275391,0,1.5957031,1.1586914,1.5957031,1.4433594-.0566406.2089844-.2275391.3041992-.4746094.3041992h-12.9560547c-.9882812.019043-1.9003906.1137695-2.8496094.2661133l-.4941406-.96875c.8359375.0947266,1.671875.1328125,2.5263672.1518555h5.3007812v-3.5146484h-2.7363281c-.9873047.019043-1.8994141.1137695-2.8496094.2661133l-.4931641-.96875c.8359375.0947266,1.671875.1328125,2.5263672.1518555h3.5527344c0-.8740234-.0380859-1.918457-.1523438-2.640625,2.0322266.5888672,2.0322266.7788086,1.7099609,1.0068359l-.3232422.2089844v1.4248047h3.6855469l.3994141-.5698242Zm-4.9775391-7.2763672c.2089844-.265625.3603516-.5507812.5126953-.5507812.2285156,0,1.4248047,1.0830078,1.4248047,1.3681641-.0566406.2089844-.2089844.3037109-.4746094.3037109h-2.375v1.4819336c.0380859,1.4819336.0566406,1.9755859.1142578,2.8686523-.1142578.1708984-.5136719.4560547-1.0830078.4560547-.1708984,0-.3037109-.1904297-.3037109-.3803711.0761719-.9306641.0947266-1.4057617.1328125-2.8115234v-1.6147461h-2.3554688c-.2285156,1.7861328-1.0068359,3.7045898-3.5341797,5.0722656l-.2089844-.2470703c1.8242188-1.4433594,2.4316406-3.1533203,2.640625-4.8251953h-.7978516c-.4941406.019043-.9111328.1142578-1.3671875.2661133l-.4755859-.987793c.6083984.0947266,1.2158203.1328125,1.8242188.1518555h.8740234c.0185547-.3227539.0185547-.6459961.0185547-.949707V1.9560547h-.6455078c-.3798828.0195312-.7412109.1142578-1.1015625.2666016l-.4941406-.9692383c.8359375.0952148,1.671875.1333008,2.5263672.1518555h4.5400391l.3417969-.5126953c.1904297-.2470703.3427734-.5126953.4941406-.5126953.2285156,0,1.4248047.9873047,1.4248047,1.2724609-.0566406.2089844-.2275391.3037109-.4746094.3037109h-2.0898438v3.1918945h.5322266l.3798828-.5512695Zm-2.0517578.5512695V1.9560547h-2.2607422v2.2226562c0,.3041992-.0185547.6464844-.0380859.9692383h2.2988281Zm4.4072266-4.1225586c2.0136719.5703125,2.0136719.7597656,1.6904297.96875l-.3222656.2089844v1.6337891c.0371094,2.0136719.0566406,2.6787109.1328125,3.9135742-.1328125.2470703-.6083984.4936523-1.0644531.4936523-.2089844,0-.3222656-.1894531-.3222656-.3798828.0566406-.6455078.0761719-.9873047.1132812-1.9755859v-1.1967773c0-1.1777344-.0751953-2.6782227-.2275391-3.6665039Zm4.1796875,3.0205078c0-1.2539062-.0761719-2.8496094-.2470703-3.8945312,2.0517578.5888672,2.0517578.7792969,1.7285156.9882812l-.3232422.1899414v7.6557617c0,1.0258789-.1894531,1.5957031-1.7099609,1.7666016-.0371094-.3608398-.1132812-.6650391-.3222656-.8740234s-.5888672-.3417969-1.2734375-.4555664v-.3041992s1.5009766.1328125,1.8046875.1328125c.2666016,0,.3427734-.0947266.3427734-.3417969v-4.8632812Z"/>
      <path class="cls-1" d="m53.6914062,9.7832031c-.6455078,6.1171875-8.0732422,6.1738281-8.4912109,6.2314453-.6083984.0566406-.9501953.0566406-.96875-.0761719-.0380859-.1142578.4941406-.1708984.7412109-.2089844,2.1083984-.3417969,6.9902344-1.7861328,7.3701172-6.2119141.3994141-4.4267578-2.7539062-6.2124023-5.4140625-6.3642578-.2470703-.019043-.4931641-.019043-.7402344,0,.3037109.6269531,1.1201172,2.621582-.2666016,5.8886719-1.5390625,3.6289062-3.7617188,5.3388672-4.5400391,5.2436523-.7978516-.0952148-2.1464844-1.5961914-2.2988281-3.9516602-.3232422-4.7680664,3.6289062-7.2758789,6.3642578-7.7128906,3.0585938-.4936523,8.8710938,1.0068359,8.2441406,7.1621094Zm-7.8261719-6.6113281c-2.3369141.2666016-4.6357422,1.8051758-5.5283203,4.5214844-1.0263672,3.1347656.5703125,4.8251953.9501953,5.015625.3603516.1894531.8359375-.1904297.8359375-.1904297,2.203125-1.6142578,3.4384766-4.7299805,3.6855469-5.6040039.2460938-.8930664.3798828-2.6782227.0566406-3.7426758Z"/>
      <path class="cls-1" d="m62.2050781,8.0351562c.5136719.3803711.7412109,1.0644531.4941406,1.4443359-.3037109.4746094-.8925781.2275391-1.1210938-.0380859-.6835938-.7216797-1.0449219-.9306641-1.4619141-1.1591797-.6464844-.3798828-1.3496094-.5317383-1.3876953-.6269531-.0566406-.1137695.0957031-.1894531.3232422-.2089844.7792969-.1137695,2.2421875-.1137695,3.1533203.5888672Zm10.3916016-2.7163086c.0947266-.1137695.2851562-.284668.3994141-.2089844.0947266.0571289.0185547.284668-.0957031.4370117-2.9443359,4.4072266-7.8076172,7.9785156-10.4287109,9.3652344-.703125.3803711-1.0449219,1.3300781-1.6533203.6083984-.4365234-.5322266-1.0253906-2.1464844-1.0253906-2.3369141.0185547-.1708984-.0566406-.5317383.1708984-.5507812.1328125-.019043.1708984.2089844.4746094.5126953.2666016.2851562.9306641.703125,2.0898438.1708984,3.2109375-1.4624023,7.3896484-4.5209961,10.0683594-7.9975586Zm-11.8544922-1.8237305c-.0371094-.1328125.0761719-.1899414.3232422-.2089844.9306641-.0566406,2.4511719.2280273,3.2294922.8168945.5703125.4370117.6650391,1.1020508.3613281,1.5200195-.2851562.3798828-.9121094.1518555-1.1396484-.1142578-.6845703-.8168945-1.0644531-1.0830078-1.7099609-1.4814453-.5507812-.3232422-1.0068359-.3994141-1.0644531-.5322266Z"/>
      <path class="cls-1" d="m90.5136719,14.5136719c-.2089844.5507812-.6269531.2089844-2.0888672-.1523438-.9121094-.2275391-5.8896484-.0947266-7.6943359.6083984-.96875.3603516-1.2919922.2089844-1.7480469-.0576172-.3798828-.2275391-.6269531-.5126953-.7978516-.7402344-.0751953-.1333008-.1132812-.3232422-.0380859-.3803711.0761719-.0756836.2470703-.0375977.5898438.1137695.1894531.0761719.5126953.1904297,1.1015625.1333008,1.4248047-.1708984,3.6279297-.3608398,5.2617188-.4750977.1523438-.7788086.5136719-3.0771484.3798828-3.7993164-.0947266-.4179688-.1132812-.4179688-.3984375-.3798828s-2.2988281.4750977-3.1347656.7407227c-.4365234.1328125-1.1777344-.3417969-1.4814453-.6455078-.1904297-.1708984-.2666016-.3041992-.1904297-.3994141.0761719-.1137695.3798828,0,.5507812.0195312.4560547.0756836,1.1025391.0566406,1.4443359.0185547.2275391-.0185547,2.6025391-.3608398,2.9628906-.5317383.3613281-.1708984.3808594-.284668.7226562-.284668.3222656.0185547.5507812.1513672.8544922.3417969.2851562.1894531.6455078.3798828.6269531.6835938-.0380859.3232422-.4746094.4179688-.5888672.7978516-.0947266.3417969-.7216797,2.6025391-.8740234,3.3818359.3798828-.0380859.6845703-.0571289.9121094-.0571289.6835938-.0380859.8925781-.0756836,1.234375-.2470703.3046875-.1328125.8554688-.0571289,1.5576172.2661133.6845703.3037109.9697266.6455078.8359375,1.0449219Z"/>
      <path class="cls-1" d="m95.9501953,7.9785156c.0947266-.019043.3232422.2470703.5693359.3417969.3994141.1523438,1.1025391.3041992,2.0332031.2851562s3.7041016.0380859,5.1289062.019043c4.0087891-.0571289,4.6542969-.0761719,5.6044922-.0761719.96875,0,1.8623047.0761719,1.7666016.8930664-.0380859.3417969-1.1962891.3798828-1.5390625.3608398-.6835938-.0380859-3.2675781.019043-5.9082031,0-1.234375,0-4.7490234.019043-5.5273438.1708984-.6650391.1137695-1.1210938.1518555-1.5390625-.1328125-.4375-.2851562-1.0634766-.9121094-.7792969-1.6147461.0576172-.1328125.0957031-.2470703.1904297-.2470703Z"/>
      <path class="cls-1" d="m127.9628906,13.1269531c.5888672.7407227.7597656,1.4814453.2851562,1.9375-.4560547.4370117-.8740234,0-1.3105469-.7788086-.703125-1.2158203-1.3681641-2.0708008-2.1279297-2.7924805-.703125-.6650391-1.7480469-1.2539062-2.3173828-1.5200195-2.1279297,2.2988281-4.8632812,4.6166992-7.5800781,5.7749023-.1523438.0761719-.2470703.0195312-.265625-.0566406-.0576172-.1328125.1328125-.1708984.2089844-.2089844,3.7421875-2.0517578,8.7763672-7.940918,9.5742188-10.4482422.0947266-.3232422-.1142578-.2851562-.3037109-.3041992-1.1025391-.0952148-4.2363281,1.0068359-4.4833984,1.0639648-.2470703.0761719-.5126953.2851562-.8359375.2089844-.9306641-.2280273-1.3105469-1.0068359-1.3867188-1.2729492-.0380859-.2280273-.0195312-.4750977.0566406-.5131836.1904297-.0947266.265625.2089844.6835938.3613281.3232422.1328125.6650391.2089844,1.4824219.0761719.3613281-.0576172,4.0273438-.6464844,4.4257812-.7412109.2666016-.0566406.3232422-.0761719.5136719-.1899414.1894531-.0952148.4365234-.2280273.5507812-.2280273.1132812,0,.2851562.0947266.4941406.2280273.2089844.1518555.7783203.4936523.9873047.96875.0761719.1713867.1142578.4560547-.1142578.5888672-.1328125.0571289-.7021484.5131836-.8359375.722168-.6835938,1.0634766-1.7285156,2.4125977-2.9824219,3.7802734,1.0449219.3037109,3.7050781,1.3867188,5.28125,3.34375Zm1.5205078-9.59375c.0185547.3608398-.0761719.5507812-.3046875.6455078-.2275391.0952148-.6650391,0-.9111328-.4365234-.2666016-.4941406-.8554688-1.2919922-1.4824219-1.690918-.1894531-.1137695-.4560547-.2089844-.4179688-.3417969.0380859-.1713867.3613281-.1137695.6845703-.0380859.3037109.0571289,2.3359375.684082,2.4316406,1.8618164Zm1.5195312-1.0258789c-.2089844.1137695-.6464844.0756836-.9501953-.3422852-.4179688-.6074219-.8740234-1.0825195-1.6337891-1.4248047-.1894531-.0947266-.4746094-.1708984-.4560547-.3227539.0380859-.1518555.4179688-.1328125.6845703-.0952148.5507812.0576172,2.3935547.3613281,2.6025391,1.5200195.0566406.3608398-.0195312.5698242-.2470703.6650391Z"/>
      <path class="cls-1" d="m134.8242188,11.8730469c-.0576172-.0952148.1132812-.2280273.3603516-.4179688,3.6103516-2.640625,5.6992188-5.0341797,7.6181641-8.605957.1708984-.3227539.1708984-.7978516-.0947266-1.0639648-.1708984-.1518555-.3037109-.1894531-.2851562-.284668.0380859-.1333008.2275391-.1518555.5126953-.1518555.3046875.0185547.7412109.1137695,1.0830078.284668.3798828.1899414.9882812.7983398.8173828,1.1206055-.0957031.2089844-.3232422.1333008-.5507812.5131836-.7226562,1.1206055-1.5390625,2.1850586-2.3945312,3.1918945.1523438.0566406.2851562.1137695.4375.1894531.0947266.0380859.1894531.0761719.265625.1333008.1904297.1328125.265625.284668.265625.6079102,0,.3037109-.1132812.4179688-.2275391,1.2724609-.0380859.3422852-.0185547,5.4716797.0761719,6.1367188.1142578.6645508.0761719,1.3105469-.0947266,1.5957031-.1904297.284668-.5517578.1708984-.7597656.1137695-.1904297-.0761719-.5517578-.4370117-.5136719-1.1967773.0957031-2.5078125.0761719-4.9204102.0566406-6.8007812,0-.4560547-.0371094-.9501953-.2275391-1.2734375-1.7099609,1.7861328-3.6660156,3.324707-5.8505859,4.5405273-.2851562.1713867-.4560547.1713867-.4941406.0952148Z"/>
      <path class="cls-1" d="m154.6025391,3.4189453c.6845703-.0947266,2.640625-.0380859,3.7050781.7978516.7597656.5888672.8740234,1.3491211.5693359,1.7861328-.3222656.4365234-1.0634766.2851562-1.5576172-.5131836-.5507812-.8930664-1.9560547-1.5766602-2.640625-1.7666016-.2089844-.0571289-.3417969-.1333008-.3417969-.2089844.0185547-.0571289.1328125-.0756836.265625-.0952148Zm13.3935547.8930664c.0761719.0952148-.0761719.3227539-.1708984.4370117-2.8115234,3.9326172-7.5039062,7.9599609-9.1572266,9.1186523-.5888672.3989258-.6455078.3608398-1.1015625.8549805-.3798828.4179688-.7597656.5126953-1.2158203.4179688-.9306641-.2285156-1.5009766-1.0263672-1.6337891-1.7099609-.1708984-.7788086,0-1.1015625.1142578-1.1586914.1328125-.0571289.2089844.3798828.4746094.6079102.1904297.1899414.4365234.4941406,1.0830078.3798828,2.1845703-.3417969,8.2451172-5.5473633,11.2460938-8.7768555.1328125-.1518555.265625-.246582.3613281-.1708984Z"/>
      <path class="cls-1" d="m172.0068359,16.2421875c-.0380859-.0947266.0947266-.1708984.2470703-.2470703,4.0849609-1.8994141,7.5996094-4.578125,10.6953125-10.4482422.1142578-.2280273.1523438-.3989258.0957031-.4560547-.1142578-.1137695-.2470703-.0947266-.4755859-.0185547-1.3486328.3798828-2.3740234.7026367-3.4570312.4174805-1.6337891,1.9946289-4.2744141,4.1987305-5.5478516,4.7875977-.1513672.0756836-.3222656.1137695-.3417969.0566406,0-.0566406.0761719-.1708984.2666016-.3037109,1.2529297-.9501953,4.1220703-4.0087891,4.9199219-5.8701172.1523438-.3417969.2275391-.6079102.1708984-.9121094-.0566406-.265625-.5322266-.5888672-.6835938-.6455078-.1523438-.0761719-.2285156-.2089844-.1708984-.2661133.1513672-.1713867.6650391-.2661133,1.0068359-.2280273.7216797.0761719,1.2910156.5698242,1.5195312.949707.2275391.3608398.1142578.5317383-.0380859.8549805-.1708984.3037109-.3798828.6269531-.6269531.96875,1.0263672,0,2.5839844-.2851562,3.0400391-.5507812.6455078-.3989258.7021484-.6459961,1.3486328-.2851562.7978516.4560547,1.3867188.96875,1.2724609,1.3681641-.1523438.5126953-.96875.7597656-1.2539062,1.2539062-2.8876953,4.8251953-7.21875,8.3583984-11.6074219,9.5932617-.2460938.0571289-.3603516.0380859-.3798828-.019043Z"/>
      <path class="cls-1" d="m194.2363281,12.8984375c-.0380859-.6645508.2089844-.3984375.1328125-1.6337891-.0566406-.8354492-.1132812-4.3500977-.5507812-4.9580078-.3037109-.4179688-.4746094-.5698242-.7783203-.6835938-.1142578-.0380859-.3417969-.0952148-.3417969-.1708984.0185547-.1523438.1708984-.1904297.3984375-.2470703.1708984-.0571289.4179688-.0761719.8544922,0,.4375.0756836.703125.1894531,1.2167969.7978516,1.1201172-.1328125,4.8632812-.5703125,5.2617188-.722168.4560547-.1518555.8740234-.6079102,1.3486328-.6079102.3232422.019043,1.6337891,1.0449219,1.6533203,1.4438477.0371094.3798828-.7792969.8168945-.8740234,1.3491211-.0947266.4936523-.5507812,3.0961914-.9306641,4.2929688.6074219.019043,1.1962891.2089844,1.3105469.5888672.1132812.3613281.1708984.703125-1.0449219.5322266-.6650391-.0952148-1.5390625-.0952148-1.9755859-.1142578-.3417969-.0185547-2.9638672.1523438-4.3310547.2851562-.0195312.5698242-.0761719,1.1777344-.3427734,1.2348633-.5507812.0952148-.96875-.7026367-1.0068359-1.387207Zm1.0449219-6.1738281v.9306641c.0380859.8554688.2285156,4.0087891.265625,4.5595703,0,.0380859,0,.0761719.0195312.1142578,1.3681641-.1523438,3.7998047-.3994141,5.1103516-.5131836.1708984-.7788086.6835938-3.362793.4941406-5.4711914-.0195312-.2470703-.0195312-.3798828-.4375-.3798828-.3603516.019043-3.9697266.4179688-5.4521484.7597656Z"/>
      <path class="cls-1" d="m209.9501953,7.9785156c.0947266-.019043.3232422.2470703.5693359.3417969.3994141.1523438,1.1025391.3041992,2.0332031.2851562s3.7050781.0380859,5.1289062.019043c4.0087891-.0571289,4.6542969-.0761719,5.6044922-.0761719.96875,0,1.8623047.0761719,1.7666016.8930664-.0380859.3417969-1.1972656.3798828-1.5390625.3608398-.6835938-.0380859-3.2675781.019043-5.9082031,0-1.234375,0-4.7490234.019043-5.5273438.1708984-.6650391.1137695-1.1210938.1518555-1.5390625-.1328125-.4375-.2851562-1.0644531-.9121094-.7792969-1.6147461.0576172-.1328125.0957031-.2470703.1904297-.2470703Z"/>
      <path class="cls-1" d="m229.0068359,16.2421875c-.0380859-.0947266.0947266-.1708984.2470703-.2470703,4.0839844-1.8994141,7.5996094-4.578125,10.6953125-10.4482422.1142578-.2280273.1523438-.3989258.0957031-.4560547-.1142578-.1137695-.2470703-.0947266-.4755859-.0185547-1.3486328.3798828-2.3740234.7026367-3.4570312.4174805-1.6337891,1.9946289-4.2744141,4.1987305-5.5478516,4.7875977-.1513672.0756836-.3222656.1137695-.3417969.0566406,0-.0566406.0761719-.1708984.2666016-.3037109,1.2529297-.9501953,4.1220703-4.0087891,4.9199219-5.8701172.1513672-.3417969.2275391-.6079102.1708984-.9121094-.0566406-.265625-.53125-.5888672-.6835938-.6455078-.1523438-.0761719-.2285156-.2089844-.1708984-.2661133.1513672-.1713867.6650391-.2661133,1.0068359-.2280273.7216797.0761719,1.2910156.5698242,1.5195312.949707.2285156.3608398.1142578.5317383-.0380859.8549805-.1708984.3037109-.3798828.6269531-.6269531.96875,1.0263672,0,2.5839844-.2851562,3.0400391-.5507812.6455078-.3989258.7021484-.6459961,1.3486328-.2851562.7978516.4560547,1.3867188.96875,1.2724609,1.3681641-.1523438.5126953-.96875.7597656-1.2539062,1.2539062-2.8876953,4.8251953-7.21875,8.3583984-11.6074219,9.5932617-.2460938.0571289-.3603516.0380859-.3798828-.019043Z"/>
      <path class="cls-1" d="m258.5693359,3.6850586c-1.0634766-.1518555-2.1464844.2470703-2.3369141.3608398-.3603516.1904297-1.3867188,1.3300781-1.8798828,2.8115234-1.2353516,3.6474609-.8359375,6.0605469-.1337891,7.0859375.6464844.9311523,2.1279297.6269531,2.9638672.6083984.96875-.0380859,1.8046875.0947266,1.7861328.7026367-.0195312.5512695-1.0263672.6650391-1.40625.684082-1.6337891.1137695-3.0390625.1328125-4.0273438-1.1020508-.8740234-1.0825195-1.0068359-2.2226562-1.0253906-3.5522461-.0576172-4.5024414,2.90625-7.1430664,2.8496094-7.2568359-.0380859-.0952148-.2666016.0375977-.4755859.0756836-.7978516.2089844-3.5712891,1.4248047-4.3691406,1.7290039-.3417969.1328125-1.1201172.6645508-1.5576172.7216797-.8554688.1142578-1.8808594-1.1967773-1.9570312-1.3105469-.0947266-.1142578-.1132812-.2661133-.0371094-.3613281.1132812-.1137695.2080078-.0566406.3789062.019043.171875.0761719.6845703.4560547,1.3496094.3041992.6640625-.1523438,5.28125-1.8618164,8.3398438-2.3369141.5878906-.0761719.8730469-.3798828,1.6904297-.5507812.5888672-.1142578,1.6523438.3608398,1.8427734.7216797.2089844.3798828.2470703.684082-.1523438.8549805-.1328125.0756836-1.234375-.1328125-1.8427734-.2089844Zm2.0517578-2.621582c.265625.0761719,2.0136719.6079102,2.0332031,1.7856445,0,.3803711-.1142578.5512695-.3417969.6269531-.2285156.0761719-.6650391-.0375977-.8740234-.4936523-.2285156-.4941406-.6464844-1.2539062-1.1025391-1.5390625-.1894531-.1137695-.4365234-.2470703-.3984375-.3798828.0566406-.1518555.4179688-.0566406.6835938,0Zm1.9951172-.987793c.265625.0380859,2.0888672.4750977,2.1279297,1.690918.0185547.3227539-.1523438.4179688-.2851562.4746094-.2285156.0952148-.6083984.019043-.8740234-.4179688-.2666016-.4560547-.7412109-1.1396484-1.2158203-1.3676758-.1904297-.0952148-.4746094-.2089844-.4375-.3417969.0380859-.1518555.4179688-.0952148.6845703-.0380859Z"/>
      <path class="cls-1" d="m267.671875,14.8364258c-.4941406-.6079102-1.0830078-1.1777344-1.3300781-1.3486328-.2089844-.1518555-.3417969-.2280273-.3222656-.3227539.0380859-.1333008.2275391-.0761719.4746094,0,.2285156.0566406,3.2480469,1.0634766,3.9511719,2.7734375.2089844.4746094.0380859,1.234375-.6455078,1.3867188-.2851562.0566406-.6269531-.1142578-.9501953-.6459961-.0761719-.1518555-.7597656-1.3295898-1.1777344-1.8427734Z"/>
      <path class="cls-1" d="m293.3779297,4.6542969l-.3603516.0947266c-.8935547,1.3300781-2.0136719,2.6787109-3.0400391,3.7041016,2.1464844,1.7099609,1.5195312,3.4580078.3798828,2.8115234-.5888672-1.4052734-2.3173828-3.2099609-3.6474609-4.2363281l.1708984-.1708984c1.1591797.3798828,2.0517578.8359375,2.6972656,1.3110352.6845703-1.1586914,1.4628906-2.7163086,2.109375-4.1987305h-3.4384766c-.9882812.0195312-1.8994141.1142578-2.8496094.2666016l-.4941406-.9692383c.8359375.0952148,1.671875.1333008,2.5263672.1518555h5.28125c0-1.1206055-.0566406-2.5073242-.2089844-3.4189453,2.0898438.5888672,2.0898438.7783203,1.7675781.9873047l-.3232422.2089844v2.2226562h5.1289062l.4365234-.6074219c.2285156-.3041992.4179688-.6269531.5703125-.6269531.2285156,0,1.6523438,1.1962891,1.6523438,1.4814453-.0371094.2089844-.2089844.3037109-.4550781.3037109h-8.6064453c1.0644531.3994141,1.0644531.5893555.703125.6845703Zm5.3193359,10.0112305c-.7792969-1.1401367-1.7851562-2.2416992-2.640625-3.0395508l.2285156-.1708984c6.1542969,3.0395508,5.3378906,6.9716797,3.7226562,5.8129883-.1708984-.684082-.53125-1.4248047-1.0253906-2.1655273-2.8496094.4179688-6.6679688.9121094-12.0058594,1.5009766-.1337891.2089844-.3046875.3417969-.4941406.3798828l-.7988281-1.7670898c.9316406,0,2.2988281-.0571289,3.9707031-.1137695,1.5390625-1.8237305,3.2294922-4.1035156,4.6738281-6.25.703125-1.0449219,1.3867188-2.2607422,1.7480469-3.2294922,2.0507812.9116211,2.0507812,1.1015625,1.6328125,1.2158203l-.3984375.1137695c-1.6337891,2.3935547-4.4453125,5.6992188-7.0292969,8.1308594,2.3935547-.0952148,5.3193359-.2470703,8.4160156-.4179688Z"/>
      <path class="cls-1" d="m310.1552734.96875c.1523438-.2089844.2470703-.4179688.3994141-.4179688.2275391,0,1.2910156.9116211,1.2910156,1.1962891-.1132812.1333008-.3603516.2851562-.6640625.3613281v1.6147461c.0371094,1.5957031.0566406,2.1274414.1132812,3.0961914-.1328125.2470703-.703125.5322266-1.0820312.5322266h-.171875v-.8359375h-3.7988281v5.9648438c.0380859,2.2802734.0761719,3.0400391.1523438,4.4648438-.1523438.265625-.5517578.5888672-1.0839844.5888672-.2275391,0-.4365234-.1904297-.4365234-.3798828.1142578-1.6337891.1708984-2.4697266.2089844-4.9394531v-7.6748047c0-1.2919922-.0761719-2.8496094-.2470703-3.8945312l1.5009766.7216797h3.5527344l.265625-.3984375Zm-.1142578.949707h-3.7988281v1.7094727h3.7988281v-1.7094727Zm-3.7988281,4.0463867h3.7988281v-1.7861328h-3.7988281v1.7861328Zm9.3271484,5.7373047c.1708984-.2285156.3037109-.4560547.4560547-.4560547.2285156,0,1.2734375.8740234,1.2734375,1.1586914-.0576172.2089844-.2285156.3041992-.4941406.3041992h-3.8183594c.5126953,1.1206055,1.6142578,2.203125,3.875,2.90625l-.0195312.2280273-.1699219.0380859c.3603516.019043,1.2539062.0952148,1.4814453.0952148.2851562,0,.3798828-.0952148.3798828-.3613281V6.515625h-3.9707031v.3798828c0,.1142578-.4941406.3994141-.9873047.3994141-.1523438,0-.2666016-.1904297-.2666016-.3803711.0576172-.5888672.0761719-.8930664.1142578-1.7856445v-1.0830078c0-1.0830078-.0566406-2.4501953-.2089844-3.3432617l1.4443359.6645508h3.6855469l.265625-.3984375c.1513672-.1904297.2460938-.3994141.3984375-.3994141.2285156,0,1.4824219.9311523,1.4824219,1.2158203-.1142578.1523438-.4375.3232422-.7988281.3798828v13.6025391c0,1.0068359-.1894531,1.6142578-1.6708984,1.7851562-.0380859-.3984375-.1337891-.7402344-.3232422-.9306641-.1894531-.2089844-.5507812-.3608398-1.1972656-.4365234v-.2661133c-.2841797.0952148-.4550781.284668-.5507812.7216797-2.1269531-.8735352-2.9824219-2.5268555-3.3623047-3.9321289h-.1328125c-.4560547,1.7475586-1.6337891,3.0585938-4.8447266,4.0458984l-.2460938-.3227539c2.6210938-.987793,3.609375-2.2036133,3.9892578-3.7231445h-1.2353516c-.7597656.0185547-1.4814453.1137695-2.203125.265625l-.4755859-.96875c.8359375.0947266,1.671875.1328125,2.5263672.1523438h1.5009766c.0947266-.5703125.1142578-1.1782227.1337891-1.8427734h-1.1972656c-.7597656.0185547-1.4433594.1137695-2.1660156.265625l-.4941406-.96875c.6464844.0947266,1.2919922.1328125,1.9384766.1518555h.9306641c-.1142578-.019043-.2285156-.0756836-.3232422-.1708984-.0947266-.7026367-.6455078-1.5957031-1.1591797-2.1274414l.2089844-.1142578c2.2802734.7788086,2.1660156,2.2416992,1.5205078,2.4125977h2.1464844c.3994141-.7788086.8173828-1.8237305.96875-2.5644531,1.7099609.5507812,1.7099609.7407227,1.3486328.8735352l-.3603516.1142578c-.3427734.4941406-.8554688,1.0830078-1.40625,1.5766602h1.3486328l.3046875-.4179688c.1708984-.2089844.2851562-.4179688.4365234-.4179688.2275391,0,1.2158203.7983398,1.2158203,1.0830078-.0380859.2089844-.1894531.3041992-.4560547.3041992h-3.6474609c-.0380859.6645508-.0947266,1.2724609-.1708984,1.8427734h2.6591797l.3232422-.4560547Zm2.9638672-9.7836914h-3.9707031v1.7094727h3.9707031v-1.7094727Zm-3.9707031,4.0463867h3.9707031v-1.7861328h-3.9707031v1.7861328Z"/>
      <path class="cls-1" d="m333.6767578,9.6313477c-.1142578,1.1777344-.703125,4.1982422-1.8808594,5.3759766-.4365234.4370117-1.1396484.9692383-1.4814453.7788086-.3798828-.2089844-.4560547-.4746094-.6650391-.9306641-.1708984-.3798828-.3417969-.6269531-.9121094-1.4438477-.0947266-.1518555-.2470703-.3227539-.1904297-.3798828.0957031-.0756836.3613281.1333008.7792969.4370117.4560547.3037109.8740234.6650391,1.1591797.6455078.4560547,0,1.0830078-.284668,1.7470703-2.4882812.6464844-2.2036133.8740234-4.3505859-.1132812-4.9960938-.5507812-.3613281-1.8242188.0756836-2.6972656.4746094-.4375,1.9375-1.2734375,4.5976562-2.8496094,7.1811523-.4570312.7407227-1.0449219,1.1586914-1.4628906.7216797-.2851562-.3037109-.1142578-.8930664.6074219-1.8618164,1.6337891-2.203125,2.3173828-4.1982422,2.6601562-5.565918-.8554688.3798828-1.9003906.7788086-2.2421875.8549805-.265625.0761719-1.1582031.0566406-1.8427734-1.0639648-.1513672-.2470703-.2851562-.5888672-.0761719-.6459961.1337891-.0566406.2851562.0571289.5322266.1899414.5322266.2851562.8740234.2470703,1.1015625.2280273.5322266-.019043,1.7480469-.2470703,2.7548828-.6459961.0380859-.1518555.0566406-.284668.0761719-.3989258.2275391-1.0253906.3232422-2.3935547-.2089844-3.0966797-.1523438-.1894531-.6083984-.5693359-.5322266-.7783203.1142578-.3803711,1.5957031-.0576172,1.8808594.2089844.5322266.5507812.1894531,1.3671875.0761719,2.0136719-.0380859.284668-.1142578.8735352-.2851562,1.6904297.96875-.3037109,2.3554688-.5698242,3.1152344-.019043.9882812.722168,1.0644531,2.0708008.9501953,3.5146484Zm5.3574219.6459961c-.1523438.0185547-.2470703-.0761719-.6464844-.3232422-.3603516-.2851562-1.7285156-.4365234-1.8046875-.4365234-.0751953,0-.2470703-.0195312-.265625-.0761719,0-.0761719.1904297-.0952148.1904297-.0952148,0,0,1.1582031-.0952148,1.3867188-.1518555.2460938-.0571289.53125-.1708984.7402344-.3232422.2089844-.1708984.1523438-1.0253906-.5703125-1.8046875-.6640625-.7216797-1.8994141-1.234375-2.1269531-1.2915039-.0566406-.019043-.1904297-.0380859-.1708984-.1137695.0185547-.0576172.1894531-.0380859.2275391-.0380859,2.6787109.0566406,4.1230469,1.6523438,4.1796875,2.8876953.0761719,1.3867188-.96875,1.7470703-1.1396484,1.7666016Z"/>
      <path class="cls-1" d="m355.5449219,12.8227539c-.1894531,1.8237305-2.0322266,3.2485352-7.5224609,3.9321289-.1708984.0195312-.3037109.0195312-.3037109-.1328125-.0195312-.1518555.2275391-.1708984.4179688-.1899414.2275391-.0375977,5.3378906-.6459961,6.0791016-3.7045898.1132812-.5317383.3222656-2.5644531-1.2353516-3.0009766-1.5761719-.4179688-2.6025391.7978516-3.8564453,2.6591797-.2470703.3798828-.7978516.684082-1.0449219.684082-.2275391-.019043-1.6337891-.1333008-1.7285156-1.5200195-.0761719-1.1015625.1142578-3.4384766.3037109-5.3193359.0576172-.6835938-.2275391-1.0253906-.0761719-1.5004883.1142578-.3798828.4941406-.684082.6845703-.8359375.6269531-.5507812,2.2226562-1.1206055,2.3740234-1.2348633.171875-.1328125.3232422-.265625.0957031-.5317383-.3046875-.3803711-.5322266-.5512695-.8740234-.722168-.1328125-.0756836-.2851562-.1518555-.2666016-.2089844.0195312-.0947266.4755859-.1137695.5898438-.0947266.3222656,0,1.8232422-.0761719,2.3740234,1.5766602.2470703.722168-.3417969,1.1206055-.4560547,1.1401367-.1132812.0185547-.2851562-.0195312-.4746094-.1333008-.1708984-.1328125-.8925781-.9116211-2.8496094.3422852-.2851562.1708984-.3984375.4179688-.4560547.7597656-.0761719.4179688.3798828.5698242.3232422,1.3867188-.0380859.3608398-.3994141,2.7734375-.3994141,3.7993164,0,.4560547.0761719.7602539.2089844,1.0449219.1337891.2661133.2089844.3417969.3613281.3417969.1513672.019043.3994141-.0571289.703125-.3037109.3037109-.2470703,3.0205078-2.355957,4.7294922-1.8237305,1.7099609.5126953,2.4892578,1.9375,2.2988281,3.590332Z"/>
      <path class="cls-1" d="m375.7802734,9.4980469c.2089844-.265625.3603516-.5317383.5126953-.5317383.2285156,0,1.5009766,1.0068359,1.5009766,1.2915039-.0576172.2089844-.2089844.2851562-.4755859.2851562h-5.0332031c1.4052734,1.1210938,3.7421875,1.9951172,5.6796875,2.3935547l-.0195312.2089844c-.4550781.0952148-.7597656.4560547-.9111328,1.0263672-1.0263672-.3803711-2.0712891-.8740234-3.0019531-1.5009766v1.4814453c.0380859,1.4628906.0576172,1.9570312.1142578,2.8310547-.1328125.2275391-.7412109.5126953-1.1015625.5126953h-.1904297v-.9501953h-6.8769531v.5893555c0,.1137695-.3798828.4370117-.9501953.4370117-.1894531,0-.3417969-.1904297-.3417969-.3798828.0761719-.9882812.1142578-1.4819336.1523438-2.9638672v-1.6904297c-1.0830078.7978516-2.2988281,1.5004883-3.6855469,1.9941406l-.1708984-.284668c1.8994141-.949707,3.5332031-2.2797852,4.7304688-3.7045898h-1.5205078c-.9873047.019043-1.8994141.1142578-2.8496094.2661133l-.4931641-.949707c.8349609.0947266,1.6708984.1328125,2.5263672.1518555h2.7734375c.3417969-.4560547.6464844-.9116211.9121094-1.3676758h-1.6914062v.3417969c0,.1142578-.5126953.3798828-1.0058594.3798828-.1904297,0-.2851562-.1899414-.2851562-.3798828.0566406-.5126953.0566406-.7788086.0947266-1.5766602v-.987793c0-1.0068359-.0576172-2.2226562-.1904297-3.0400391l1.5009766.703125h7.6748047l.265625-.3608398c.1523438-.1708984.2666016-.3608398.4179688-.3608398.2285156,0,1.3300781.8164062,1.3300781,1.1015625-.0947266.1328125-.3798828.2661133-.6640625.3232422v1.3867188c.0371094,1.3676758.0566406,1.8237305.1132812,2.640625-.1132812.2089844-.7216797.5126953-1.1210938.5126953h-.1894531v-.6835938h-4.1601562c-.0761719.1894531-.3046875.284668-.7792969.284668-.2470703.3608398-.53125.722168-.8359375,1.0830078h7.8837891l.3613281-.5131836Zm-.1142578-8.0927734c.2089844-.265625.3798828-.5507812.5322266-.5507812.2275391,0,1.4628906,1.0639648,1.4628906,1.3486328-.0195312.2089844-.2089844.3041992-.4755859.3041992h-4.7304688v.949707c0,.0952148-.3984375.3041992-.9873047.3232422-.1904297,0-.2666016-.1904297-.2666016-.3798828.0390625-.1523438.0390625-.2285156.0761719-.4560547v-.4370117h-3.8369141v.3417969c.0380859.3422852.0185547.4560547.0566406.5893555-.0566406.2275391-.5693359.3984375-1.0449219.3984375-.1708984,0-.2470703-.1894531-.2470703-.3798828.0380859-.1518555.0380859-.2470703.0761719-.4941406v-.4555664h-1.9941406c-.9882812.019043-1.9003906.1137695-2.8496094.2661133l-.4560547-.96875c.8359375.0947266,1.671875.1328125,2.5263672.1513672h2.7734375c0-.6264648-.0380859-1.3671875-.1132812-1.8994141,1.9179688.5698242,1.9179688.7597656,1.5957031.96875l-.3232422.2089844v.7216797h3.8369141c0-.6264648-.0371094-1.3671875-.1132812-1.8994141,1.9570312.5698242,1.9570312.7597656,1.6142578.96875l-.3232422.2089844v.7216797h2.8125l.3984375-.5507812Zm-2.3554688,3.2294922h-7.9414062v1.4443359h7.9414062v-1.4443359Zm-7.9414062,2.0136719v1.4248047h7.9414062v-1.4248047h-7.9414062Zm.8359375,5.3007812h6.5546875l.1132812-.1333008c-.4550781-.3989258-.8544922-.8168945-1.1777344-1.2729492h-4.6347656c-.3798828.4179688-.7978516.8359375-1.2539062,1.2158203l.3984375.1904297Zm6.6494141,2.0136719v-1.4628906h-6.8769531v1.4628906h6.8769531Zm-6.8769531,2.0322266h6.8769531v-1.4628906h-6.8769531v1.4628906Z"/>
      <path class="cls-1" d="m393.5449219,12.8227539c-.1894531,1.8237305-2.0322266,3.2485352-7.5224609,3.9321289-.1708984.0195312-.3037109.0195312-.3037109-.1328125-.0195312-.1518555.2275391-.1708984.4179688-.1899414.2275391-.0375977,5.3378906-.6459961,6.0791016-3.7045898.1132812-.5317383.3222656-2.5644531-1.2353516-3.0009766-1.5761719-.4179688-2.6025391.7978516-3.8564453,2.6591797-.2470703.3798828-.7978516.684082-1.0449219.684082-.2275391-.019043-1.6337891-.1333008-1.7285156-1.5200195-.0761719-1.1015625.1142578-3.4384766.3037109-5.3193359.0576172-.6835938-.2275391-1.0253906-.0761719-1.5004883.1142578-.3798828.4941406-.684082.6845703-.8359375.6269531-.5507812,2.2226562-1.1206055,2.3740234-1.2348633.171875-.1328125.3232422-.265625.0957031-.5317383-.3046875-.3803711-.5322266-.5512695-.8740234-.722168-.1328125-.0756836-.2851562-.1518555-.2666016-.2089844.0195312-.0947266.4755859-.1137695.5898438-.0947266.3222656,0,1.8232422-.0761719,2.3740234,1.5766602.2470703.722168-.3417969,1.1206055-.4560547,1.1401367-.1132812.0185547-.2851562-.0195312-.4746094-.1333008-.1708984-.1328125-.8925781-.9116211-2.8496094.3422852-.2851562.1708984-.3984375.4179688-.4560547.7597656-.0761719.4179688.3798828.5698242.3232422,1.3867188-.0380859.3608398-.3994141,2.7734375-.3994141,3.7993164,0,.4560547.0761719.7602539.2089844,1.0449219.1337891.2661133.2089844.3417969.3613281.3417969.1513672.019043.3994141-.0571289.703125-.3037109.3037109-.2470703,3.0205078-2.355957,4.7294922-1.8237305,1.7099609.5126953,2.4892578,1.9375,2.2988281,3.590332Z"/>
      <path class="cls-1" d="m413.609375,12.3476562c-1.9765625,2.2226562-4.9199219,4.0654297-7.7128906,3.4956055-1.8242188-.3798828-2.8876953-1.5200195-2.9453125-4.2172852-.1132812-4.1796875.4941406-6.1738281.3613281-8.0361328-.1132812-1.2915039-.4365234-1.4624023-.7792969-1.6523438-.1513672-.0952148-.2275391-.3417969.1337891-.3994141.3603516-.0566406.7412109.0195312,1.0830078.1904297.7402344.3417969.9306641,1.5195312.8544922,2.1845703-.0380859.3417969-.1142578.8740234-.1523438,1.3676758-.2841797,2.659668-.53125,4.5024414-.3984375,6.5922852.1328125,2.2036133,1.0253906,2.640625,2.4697266,2.90625.9492188.1904297,3.0205078.3041992,6.8769531-2.6787109.1523438-.1137695.3603516-.265625.4365234-.1894531.0761719.0947266-.0761719.265625-.2275391.4365234Z"/>
      <path class="cls-1" d="m420.5078125,2.4882812c-.0380859-.0566406-.1523438-.1899414-.1132812-.265625.0947266-.1523438.2460938-.0576172.3417969,0,.2275391.1513672,1.4052734.7783203,1.4052734,2.4692383,0,.684082-.8544922,2.3178711-1.1210938,3.4575195-.3232422,1.3105469-.2275391,1.9189453-.0566406,2.5263672.0380859.1523438.0185547.2285156.1708984.2470703.1523438.0195312.2089844-.0947266.3037109-.3227539s.7792969-1.8427734.8554688-2.0708008c.0751953-.2275391.1513672-.2089844.2089844-.1899414.0380859.019043.0566406.0952148,0,.2851562-.0576172.2084961-.6845703,2.4506836-.6650391,3.5522461.0380859,1.1210938.3798828,2.659668.4365234,2.9638672.0576172.3037109-.1894531.5698242-.4365234.5888672-.3798828.0380859-.8740234-.4560547-1.0644531-.96875-.2089844-.5131836-.7021484-1.8999023-.7597656-4.5405273-.0371094-2.5078125.7792969-4.2744141.9882812-6.1552734.0947266-.684082-.4375-1.5195312-.4941406-1.5766602Zm4.9199219,10.2773438c.4179688.3041992.8740234.6083984,1.6152344.7978516.7216797.1904297,2.4882812.1523438,4.1796875-.1518555.8164062-.1518555,1.2724609.3041992,1.2910156.684082,0,.3989258-.4550781.5698242-.7783203.6650391-.3232422.0947266-3.9707031.5317383-5.3759766-.3232422-.7597656-.4746094-1.1591797-1.2919922-1.2158203-1.4438477-.0761719-.1328125-.1337891-.3227539-.0761719-.3798828.0947266-.0756836.2470703.0756836.3603516.1518555Zm.5322266-9.0043945c.1328125.0571289.703125.2661133,1.5205078.2280273.8164062-.0380859,2.6210938-.3613281,3.0195312-.4941406.3994141-.1328125,1.0263672.1899414,1.1210938.5322266.0957031.3417969-.3417969.5888672-.7597656.7216797s-2.4121094.4746094-3.5712891.1899414c-.8935547-.2089844-1.5771484-.684082-1.8046875-1.1401367-.0576172-.1137695-.0761719-.2089844-.0380859-.265625.0566406-.0947266.3798828.1708984.5126953.2280273Z"/>
      <path class="cls-1" d="m452.5585938,8.0927734c.0195312,3.8369141-3.1533203,5.28125-5.3574219,5.2617188-.96875,1.671875-2.3740234,2.6977539-3.9511719,3.4003906-.0947266.0576172-.3222656.1523438-.3798828.0195312-.0380859-.1333008.0947266-.2089844.3232422-.3422852.1523438-.0952148,1.8242188-.8549805,3.0019531-3.2104492-1.9951172-.4746094-3.5722656-2.2607422-3.4960938-5.8320312.0195312-.684082.0761719-1.2919922.1708984-1.8237305-.8359375,1.0258789-1.5761719,2.4692383-2.1279297,4.4262695-.0751953.2851562-.1328125.7978516.0195312,1.2919922.1328125.4746094.2089844.6835938.2470703.987793.0380859.4370117-.3037109.7026367-.6083984.6645508-.4365234-.0380859-1.0634766-.8735352-1.3105469-1.2915039-.6455078-1.1401367-.7978516-2.8120117-.6835938-4.1035156.0947266-1.0068359.5703125-2.0893555.5703125-3.0961914,0-.4941406-.0576172-.684082-.3232422-1.0449219-.0947266-.1333008-.4375-.3232422-.3427734-.4941406.1142578-.1708984.3994141-.1899414.5898438-.1708984.1708984.0185547,1.1015625.265625,1.2539062,1.1015625.2089844,1.0263672-.3232422,1.7290039-.5136719,2.1845703-.2460938.5131836-.7597656,2.4316406-.1708984,3.6098633.0576172.1137695.1523438.3041992.2851562.3227539.1513672.019043.1904297-.1518555.2851562-.4179688.5507812-1.6147461,1.5195312-3.7236328,3.1152344-5.1669922.5703125-1.7099609,1.5195312-2.5268555,2.3554688-2.5268555.5126953,0,1.1396484.2470703,1.6904297.8930664.4941406,0,.9882812.0380859,1.5205078.1328125,1.3486328.2661133,3.8369141,1.4248047,3.8369141,5.2246094Zm-5.9267578,4.1220703c.3798828-1.0830078.6650391-2.3935547.7216797-4.0273438.0380859-1.1015625,0-3.628418-.6835938-4.9580078-1.0449219.1513672-2.1464844.6269531-3.1728516,1.6337891-.1708984.8354492-.2089844,1.7470703-.1708984,2.4882812.1142578,1.652832.7226562,4.4453125,3.3056641,4.8632812Zm-2.8310547-8.3583984c.7412109-.5131836,1.5957031-.8935547,2.5839844-1.0449219-.2470703-.3041992-.5507812-.4560547-.9306641-.4375-.7792969.0761719-1.3105469.684082-1.6533203,1.4824219Zm7.65625,4.3876953c.1904297-1.6713867-.6269531-4.4453125-3.0019531-4.9580078-.2841797-.0566406-.6074219-.0947266-.9306641-.0947266.5888672.949707,1.0068359,2.5263672.9306641,5.0151367-.0371094,1.6147461-.3037109,2.925293-.7216797,4.0273438.9882812-.0952148,3.3818359-.7602539,3.7236328-3.9897461Z"/>
      <path class="cls-1" d="m461.546875.8164062c.0576172-.265625.8173828-.1518555,1.2353516.0380859.4941406.2470703.7412109.4750977.9121094,1.1396484.1513672.6650391-.0761719,1.3110352-.2470703,1.8999023-.1523438.5888672-.4179688,1.1967773-.4179688,2.355957-.0195312,1.3105469.3037109,1.7851562.8164062,1.956543.5322266.1708984,1.9765625-.4941406,2.4892578-.5893555.5126953-.1132812.96875.2285156.9501953.6269531-.0195312.3994141-.1904297.722168-.7988281.8359375-.9873047.1523438-5.28125.7412109-4.7304688,4.046875.2851562,1.671875,2.3564453,1.9755859,4.4082031,1.5385742.7402344-.1518555,2.1650391-.3798828,2.2597656.5698242.0576172.7978516-1.4238281.8359375-2.2226562.9501953-.796875.0947266-5.1669922.3984375-5.4326172-2.8496094-.1904297-2.4130859,1.9570312-3.9326172,3.0400391-4.3696289,0,0-.7226562-.0952148-1.1210938-.8930664-.8359375-1.7094727-.3046875-4.3881836-.2851562-5.1479492.0380859-.9116211-.0380859-1.3110352-.4375-1.7094727-.265625-.2470703-.4550781-.2666016-.4179688-.3994141Z"/>
      <path class="cls-1" d="m482.3330078,1.8613281c.1904297,1.2539062-.5507812,3.2109375-.8740234,4.1035156-.0371094.1328125-.0761719.2470703-.1132812.3798828.53125-.9306641,1.4433594-1.8618164,2.5830078-1.8046875,1.4248047.0761719,3.3818359,1.8427734,2.5839844,6.4399414s-4.8066406,5.6420898-5.3193359,5.7944336c-.1142578.0185547-.2089844,0-.2470703-.0952148-.0185547-.0756836,0-.1333008.0947266-.1708984,2.8125-1.1782227,3.9140625-3.4008789,4.3125-5.9462891.4375-2.7734375-.5693359-5.3569336-1.7851562-5.3569336-1.2353516-.0195312-1.9765625,1.2539062-2.2226562,2.4501953-.3232422,1.690918.0371094,2.0136719.2851562,2.5649414.1513672.3417969.53125.949707.2841797,1.253418-.1708984.1904297-.4365234.2285156-.7216797.0761719-.6269531-.3037109-.9501953-1.0634766-1.0830078-1.8808594-.3603516-2.0893555,1.3115234-5.7368164,1.4628906-7.0664062.0576172-.5703125.0761719-.8740234-.2275391-1.1972656-.1904297-.2275391-.5136719-.3798828-.4375-.4936523.0957031-.1137695.4941406-.0761719.8554688.1328125.3417969.2089844.5126953.4936523.5693359.8168945Z"/>
      <path class="cls-1" d="m508.6279297,7.6552734c-.5693359.7792969-1.5576172,1.2919922-2.4316406,1.6533203-.7216797.3227539-2.0517578.7978516-3.3056641,1.3486328-.1132812,1.0449219-.0371094,2.4501953-.0566406,2.7543945-.0380859.3989258-.3984375.7026367-.703125.684082-.3037109-.019043-.5507812-.3041992-.5703125-.684082,0-.2089844.1142578-1.2158203.1904297-2.1845703-.3603516.1708984-.7021484.3798828-.9873047.5698242-.9501953.6650391-1.4443359,1.690918-1.3496094,2.3935547.0957031.7597656,1.0830078,1.0830078,1.7099609,1.1591797,1.5009766.1328125,2.0332031.0380859,3.2109375-.2470703,1.0253906-.2470703,1.4433594-.1523438,1.5957031.265625.2089844.5888672-1.0263672.96875-1.6152344,1.0449219-.7216797.1142578-1.7470703.1708984-2.9824219.0380859-2.1650391-.2470703-2.5458984-1.2539062-2.6210938-2.1083984-.0576172-.5703125.1513672-1.8046875,1.5957031-2.8691406.3798828-.265625.8925781-.5507812,1.4814453-.8354492.0195312-.4370117.0195312-.8168945-.0195312-1.0830078-.1328125-1.0258789-.4365234-1.4248047-1.1015625-1.4819336-.8164062-.0756836-1.8994141,1.1777344-2.5078125,2.0136719-.1513672.2089844-.2841797.3994141-.4365234.5888672-.1904297.2470703-.6083984.8740234-.8173828,1.0263672-.2089844.1518555-.6455078-.0761719-.7783203-.3613281-.1328125-.3037109-.0566406-.8544922.1523438-1.1015625.2841797-.3232422,1.4619141-1.1972656,2.1650391-2.3935547.5322266-.9121094,1.1591797-2.2226562,1.5585938-3.5336914-.6464844.1708984-1.3496094.2661133-1.9951172.1708984s-1.2539062-.5698242-1.5771484-.8354492c-.0566406-.0576172-.0947266-.1333008-.0566406-.1713867.0566406-.0952148.2470703-.019043.3417969.019043.1142578.0380859.7792969.2661133,1.5576172.2280273.4375-.0380859,1.2158203-.1333008,2.0136719-.4179688.0380859-.2280273.0761719-.4370117.1142578-.6645508.0566406-.4755859,0-1.0644531-.5703125-1.5200195-.0947266-.0761719-.1132812-.0761719-.0761719-.2470703.0390625-.1708984.1904297-.1708984.2851562-.1708984.1142578,0,1.0644531.1328125,1.2353516.3608398.0947266.1708984.1142578.4560547.0761719.7788086.2080078.2089844.6650391.2851562,1.1015625.2280273.1708984-.0761719.8173828-.1899414.8925781.1328125.1142578.3798828-.4179688.8740234-1.0068359,1.1972656-.265625.1328125-.8544922.4365234-1.5761719.6835938-.3417969,1.1015625-.7792969,2.3935547-1.3300781,3.628418.6074219-.3227539,1.2724609-.3227539,1.8242188-.1708984,1.0820312.284668,1.3867188,1.8427734,1.3867188,1.8427734.2841797-.6645508.6269531-1.4819336,1.7089844-2.6025391.7597656-.7978516,2.1279297-1.652832,3.2675781-1.5009766,1.234375.1713867,1.7099609,1.4248047,1.0068359,2.3745117Zm-7.5419922-4.7109375c.2089844-.0952148.3994141-.2280273.5888672-.3613281-.0185547-.0756836-.0566406-.1513672-.1894531-.2275391-.0761719-.0571289-.1523438-.0761719-.2275391-.0952148-.0390625.2089844-.0957031.4370117-.171875.684082Zm6.6113281,3.0395508c-.6269531-.4941406-2.0136719.1137695-3.0019531,1.1020508-.7978516.7978516-1.2148438,1.4433594-1.671875,2.90625,0,.019043-.0185547.0380859-.0185547.0380859.8925781-.4179688,1.8623047-.8740234,2.7353516-1.4057617,1.6152344-.949707,2.4316406-2.2416992,1.9570312-2.640625Z"/>
      <path class="cls-1" d="m518.0341797,14.7226562c0,1.3867188-1.1015625,2.4882812-2.4697266,2.4882812-1.3671875,0-2.4882812-1.1015625-2.4882812-2.4882812,0-1.3681641,1.1210938-2.4697266,2.4882812-2.4697266,1.3681641,0,2.4697266,1.1015625,2.4697266,2.4697266Zm-.4560547,0c0-1.1020508-.9111328-1.9951172-2.0136719-1.9951172-1.1015625,0-2.0136719.8930664-2.0136719,1.9951172,0,1.1206055.9121094,2.0136719,2.0136719,2.0136719,1.1025391,0,2.0136719-.8930664,2.0136719-2.0136719Z"/>
      <path class="cls-1" d="m4.7119141,46.7172852c-.1523438.0571289-.3427734.1328125-.3798828.0571289-.0380859-.0952148.1513672-.2285156.3222656-.3041992,3.1162109-1.652832,4.9589844-4.4453125,5.5097656-7.5795898.3603516-1.9379883.3603516-3.7426758.2470703-5.4521484-.0195312-.4179688-.0957031-.8173828-.3994141-1.0830078-.3037109-.2661133-.703125-.3041992-.6650391-.5888672.0380859-.3041992.8554688-.3417969,1.2158203-.2661133.6083984.1518555,1.2353516.6459961,1.3300781,1.0068359.0761719.3798828-.0947266.949707-.1142578,1.4819336-.0380859.5317383,0,1.1586914-.0380859,1.918457-.3037109,5.6611328-1.9179688,8.6625977-7.0283203,10.8095703Zm.7978516-8.1308594c.1708984-1.7670898-.0761719-4.3696289-.2666016-4.7114258-.1132812-.1899414-.2275391-.265625-.3603516-.3608398-.1523438-.0952148-.3232422-.1137695-.3232422-.2661133,0-.2275391.9121094-.4746094,1.2919922-.3608398s.8925781.4750977.7597656,1.671875c-.0761719.7216797.0566406,2.5644531.0761719,3.3623047.0380859.7983398.1132812,1.4819336.0566406,1.8051758-.0761719.3417969-.3417969.7026367-.6455078.6835938s-.703125-.5888672-.5888672-1.8237305Z"/>
      <path class="cls-1" d="m20.9755859,46.4702148c-.0947266.019043-.1894531.019043-.1894531-.0380859-.0380859-.0756836.0761719-.1328125.1513672-.1518555,4.484375-1.9755859,7.7509766-4.6352539,10.0117188-9.3657227.0957031-.2089844.1142578-.3608398.0761719-.4179688-.0566406-.0756836-.2275391-.0952148-.4941406-.0571289-.6269531.1142578-4.4833984.7978516-5.5849609,1.0830078-.9121094.2280273-.6269531.4560547-1.1591797.5507812-.6269531.0952148-1.4619141-.4560547-1.8798828-.949707-.1904297-.2089844-.2470703-.7026367-.1337891-.8735352.0957031-.1333008.3808594.0756836.5322266.1328125.2666016.1137695,1.2353516.3227539,2.4130859.2089844.6640625-.0761719,5.1484375-.7597656,5.6992188-.8740234.53125-.1142578.6455078-.4370117.96875-.5126953.3222656-.0761719,1.0253906.4746094,1.3671875.7788086.6269531.5698242.4375.7788086.3798828.8930664-.1708984.284668-.8349609.6645508-1.1962891,1.2724609-2.1845703,3.6855469-4.9199219,6.5917969-10.9619141,8.3208008Zm10.3349609-13.8491211c.0947266.5131836-.1904297.4179688-2.1660156.3994141-.9492188-.0195312-3.2480469.3037109-3.8945312.5507812-.6455078.2275391-1.0634766.3037109-1.5761719-.1328125-.3046875-.2666016-.4941406-.4941406-.5703125-.6845703-.0566406-.1328125-.0761719-.2084961,0-.284668.0761719-.0571289.3232422.0571289.6269531.1518555.3232422.0952148.8740234.1708984,1.7861328.0195312.8925781-.1333008,2.3554688-.4179688,2.8115234-.5322266.4365234-.1142578.4746094-.3798828,1.0830078-.4560547.6074219-.0761719,1.8232422.5126953,1.8994141.96875Z"/>
      <path class="cls-1" d="m41.609375,38.2822266c-.1513672-.1137695-.2275391-.2089844-.1894531-.3037109.0566406-.1142578.3222656-.0571289.5507812-.019043.2089844.0756836,1.9755859.7978516,2.0136719,2.0517578,0,.3989258-.1328125.96875-.7216797.8930664-.2851562-.0380859-.4755859-.3232422-.5703125-.7602539-.0947266-.3798828-.2089844-1.1206055-1.0830078-1.8618164Zm9.3085938.3798828c-.2841797.4179688-.265625.4375-.6074219,1.0263672-.3417969.5507812-2.8691406,5.4326172-8.2451172,6.8769531-.2841797.0566406-.4365234.0566406-.4560547-.0571289-.0185547-.0952148.0957031-.1713867.3417969-.2661133,3.4765625-1.4057617,6.7441406-5.0532227,7.4853516-8.0356445.1904297-.7407227.1328125-1.2158203-.2089844-1.4819336-.1328125-.0947266-.3232422-.2089844-.3232422-.3037109.0380859-.1904297.2470703-.1904297.3232422-.1904297.265625-.0185547.4941406.0195312.8173828.0952148.3984375.1137695,1.0634766.6269531,1.2539062,1.3676758.1132812.5322266-.1523438.5888672-.3808594.96875Zm-6.5537109-2.4692383c.0576172-.0952148.2089844-.0952148.5507812,0,.2285156.0756836,1.8623047.7597656,1.9951172,2.0327148.0761719.5317383-.265625.96875-.703125.96875-.3037109,0-.5126953-.3037109-.6269531-.8168945-.1142578-.5888672-.1894531-1.1020508-1.0449219-1.8999023-.0380859-.0185547-.2089844-.1518555-.1708984-.284668Z"/>
      <path class="cls-1" d="m58.0068359,46.2421875c-.0380859-.0947266.0947266-.1708984.2470703-.2470703,4.0849609-1.8994141,7.5996094-4.578125,10.6953125-10.4482422.1142578-.2280273.1523438-.3989258.0957031-.4560547-.1142578-.1137695-.2470703-.0947266-.4755859-.0185547-1.3486328.3798828-2.3740234.7026367-3.4570312.4174805-1.6337891,1.9946289-4.2744141,4.1987305-5.5478516,4.7875977-.1513672.0756836-.3222656.1137695-.3417969.0566406,0-.0566406.0761719-.1708984.2666016-.3037109,1.2529297-.9501953,4.1220703-4.0087891,4.9199219-5.8701172.1523438-.3417969.2275391-.6079102.1708984-.9121094-.0566406-.265625-.5322266-.5888672-.6835938-.6455078-.1523438-.0761719-.2285156-.2089844-.1708984-.2661133.1513672-.1713867.6650391-.2661133,1.0068359-.2280273.7216797.0761719,1.2910156.5698242,1.5195312.949707.2275391.3608398.1142578.5317383-.0380859.8549805-.1708984.3037109-.3798828.6269531-.6269531.96875,1.0263672,0,2.5839844-.2851562,3.0400391-.5507812.6455078-.3989258.7021484-.6459961,1.3486328-.2851562.7978516.4560547,1.3867188.96875,1.2724609,1.3681641-.1523438.5126953-.96875.7597656-1.2539062,1.2539062-2.8876953,4.8251953-7.21875,8.3583984-11.6074219,9.5932617-.2460938.0571289-.3603516.0380859-.3798828-.019043Z"/>
      <path class="cls-1" d="m90.2480469,45.0644531c-.4560547.4370117-.8740234,0-1.3105469-.7788086-.703125-1.2158203-1.3681641-2.0708008-2.1279297-2.7924805-.703125-.6650391-1.7480469-1.2539062-2.3173828-1.5200195-2.1279297,2.2988281-4.8632812,4.6166992-7.5800781,5.7749023-.1328125.0761719-.2470703.0195312-.265625-.0566406-.0576172-.1328125.1328125-.1708984.2089844-.2089844,3.7421875-2.0517578,8.7763672-7.940918,9.5742188-10.4482422.0947266-.3232422-.1142578-.2851562-.3037109-.3041992-1.1025391-.0952148-4.2363281,1.0068359-4.4833984,1.0639648-.2285156.0761719-.5126953.2851562-.8173828.2089844-.9492188-.2280273-1.3291016-1.0068359-1.3867188-1.2729492-.0566406-.2280273-.0380859-.4750977.0380859-.5131836.1904297-.0947266.265625.2089844.6835938.3613281.3232422.1328125.6650391.2089844,1.4824219.0761719.3798828-.0576172,4.0273438-.6464844,4.4257812-.7412109.2851562-.0566406.3232422-.0761719.5136719-.1899414.1894531-.0952148.4365234-.2280273.5507812-.2280273.1132812,0,.2851562.0947266.4941406.2280273.2089844.1518555.7978516.4936523.9873047.96875.0761719.1713867.1142578.4560547-.1142578.5888672-.1328125.0571289-.7021484.5131836-.8359375.722168-.6835938,1.0634766-1.7285156,2.4125977-2.9824219,3.7802734,1.0449219.3037109,3.7050781,1.3867188,5.28125,3.34375.5888672.7407227.7597656,1.4814453.2851562,1.9375Z"/>
      <path class="cls-1" d="m111.3759766,43.2407227c-.4941406.6079102-1.5009766.1333008-1.8994141-.1333008-3.2675781-1.9755859-6.2695312-4.4829102-7.7324219-6.0214844-.1328125-.1333008-.4179688-.3613281-.7597656-.0380859-.4746094.4365234-3.0966797,2.925293-3.5146484,3.609375-.265625.4365234-.3798828.5126953-.6455078.6074219-.2470703.0761719-1.5771484-.4555664-1.8046875-1.6904297-.0576172-.3417969.0947266-.6269531.1513672-.6650391.1337891-.0566406.1904297.1328125.4375.3041992.3037109.2089844,1.0068359.1328125,1.5380859-.2470703.6650391-.4555664,2.8876953-2.1845703,3.4199219-2.6782227.4746094-.3994141.9882812-.4375,1.5576172.0566406,1.7861328,1.5009766,4.8828125,4.0654297,8.5488281,5.6420898.9501953.4179688.8740234,1.0258789.703125,1.2539062Zm-5.1103516-8.1118164c.0380859-.1708984.3798828-.1142578.6835938-.0380859.3046875.0571289,2.3369141.684082,2.4316406,1.8618164.0195312.3798828-.0761719.5698242-.3037109.6459961-.2275391.0947266-.6650391.0185547-.9121094-.4370117-.265625-.4936523-.8544922-1.2915039-1.4814453-1.690918-.1904297-.1137695-.4560547-.2089844-.4179688-.3417969Zm2.3173828-1.5390625c.3037109.0195312,2.2988281.3232422,2.5458984,1.40625.0761719.3417969.0195312.5317383-.1894531.6650391-.1904297.1137695-.6269531.0947266-.9121094-.2851562-.3232422-.4179688-.9882812-1.1020508-1.6337891-1.3681641-.1904297-.0947266-.4755859-.1513672-.4560547-.284668.0185547-.1518555.3417969-.1518555.6455078-.1333008Z"/>
      <path class="cls-1" d="m116.6025391,33.4189453c.6845703-.0947266,2.640625-.0380859,3.7050781.7978516.7597656.5888672.8740234,1.3491211.5693359,1.7861328-.3222656.4365234-1.0634766.2851562-1.5576172-.5131836-.5507812-.8930664-1.9560547-1.5766602-2.640625-1.7666016-.2089844-.0571289-.3417969-.1333008-.3417969-.2089844.0185547-.0571289.1328125-.0756836.265625-.0952148Zm13.3935547.8930664c.0761719.0952148-.0761719.3227539-.1708984.4370117-2.8115234,3.9326172-7.5039062,7.9599609-9.1572266,9.1186523-.5888672.3989258-.6455078.3608398-1.1015625.8549805-.3798828.4179688-.7597656.5126953-1.2158203.4179688-.9306641-.2285156-1.5009766-1.0263672-1.6337891-1.7099609-.1708984-.7788086,0-1.1015625.1142578-1.1586914.1328125-.0571289.2089844.3798828.4746094.6079102.1904297.1899414.4365234.4941406,1.0830078.3798828,2.1845703-.3417969,8.2451172-5.5473633,11.2460938-8.7768555.1328125-.1518555.265625-.246582.3613281-.1708984Z"/>
      <path class="cls-1" d="m133.4375,37.6367188c-.0576172-.1328125-.1328125-.2661133-.0957031-.3417969.0576172-.0761719.1904297,0,.2666016.0375977.1513672.0761719,1.0634766.3608398,1.7851562.3989258.6083984.019043.8740234-.0380859,1.7099609-.1708984.4375-.0566406,2.2421875-.2470703,3.9511719-.4370117.0195312-.3798828.0195312-.7597656,0-1.1586914,0-.8168945-.5507812-1.2158203-.7597656-1.3300781-.1132812-.0566406-.2089844-.1137695-.2851562-.1518555-1.6142578.3989258-3.6279297.8168945-5.1474609.8740234-.1142578,0-.2089844-.0380859-.2285156-.1137695-.0185547-.0952148.1328125-.1142578.2285156-.1333008,3.5517578-.6269531,5.5087891-1.4438477,7.0283203-2.5644531.2089844-.1518555.5507812-.4941406.0957031-.703125-.1328125-.0571289-.2470703-.0375977-.2666016-.1328125-.0185547-.2280273.8740234-.1518555,1.40625-.0380859s1.4433594.6269531,1.7099609,1.1586914c.1708984.3798828.1328125.3994141-.8173828.4941406-.7978516.0947266-.6074219.0566406-1.5390625.4179688-.2841797.1142578-.8349609.2851562-1.5380859.4941406.3984375.1137695.8730469.3798828,1.3486328.8164062.3984375.3613281.4560547.703125.1894531,1.4438477-.0751953.1899414-.0947266.3422852-.1132812.5131836,1.0449219-.1142578,1.8798828-.1904297,2.0888672-.1904297.6269531-.0375977,1.4443359-.1513672,1.7480469-.284668.3046875-.1333008.4560547-.2661133.7792969-.2280273.3222656.0380859,1.7666016.8549805,1.7480469,1.3300781-.0195312.4936523-.3232422.4365234-.703125.3798828-.3046875-.0571289-2.8496094-.5126953-5.71875-.2851562-.6074219,5.300293-3.7988281,7.6938477-7.3515625,8.9477539-.2851562.0952148-.3417969.0380859-.3613281-.0380859,0-.0756836.1142578-.1328125.1904297-.1899414,4.578125-2.3745117,5.9267578-5.3193359,6.2119141-8.5488281-3.0966797.4560547-3.5527344.5703125-3.875.6459961-.4179688.1137695-1.140625.4560547-1.7294922.4936523-.3037109.0195312-1.5380859-.5693359-1.9560547-1.4052734Z"/>
      <path class="cls-1" d="m157.5478516,30.8164062c.0566406-.265625.8164062-.1518555,1.234375.0380859.4941406.2470703.7412109.4750977.9121094,1.1396484.1513672.6650391-.0761719,1.3110352-.2470703,1.8999023-.1523438.5888672-.4179688,1.1967773-.4179688,2.355957-.0195312,1.3105469.3037109,1.7851562.8164062,1.956543.5322266.1708984,1.9765625-.4941406,2.4892578-.5893555.5126953-.1132812.96875.2285156.9501953.6269531-.0195312.3994141-.1904297.722168-.7988281.8359375-.9873047.1523438-5.28125.7412109-4.7294922,4.046875.2841797,1.671875,2.3554688,1.9755859,4.4072266,1.5385742.7402344-.1518555,2.1650391-.3798828,2.2607422.5698242.0566406.7978516-1.4248047.8359375-2.2226562.9501953-.7978516.0947266-5.1679688.3984375-5.4335938-2.8496094-.1904297-2.4130859,1.9570312-3.9326172,3.0400391-4.3696289,0,0-.7226562-.0952148-1.1210938-.8930664-.8359375-1.7094727-.3046875-4.3881836-.2851562-5.1479492.0380859-.9116211-.0380859-1.3110352-.4375-1.7094727-.265625-.2470703-.4550781-.2666016-.4169922-.3994141Z"/>
      <path class="cls-1" d="m171.4560547,42.5756836c-.0566406-.1708984-.1142578-.284668-.0185547-.3608398.0761719-.0566406.3222656.0947266.5888672.1899414.2841797.0952148.8164062.1708984,1.4052734.0952148.3417969-.0571289,2.9257812-.3417969,5.3388672-.5888672.0380859-1.1020508.1328125-3.9135742.0380859-4.3505859-.1337891-.5322266-.5322266-.8359375-.703125-.96875-.1142578-.0952148-.1523438-.1523438-.1708984-.2470703-.5703125.0947266-1.0263672.1708984-1.2539062.2280273-.8359375.1708984-.9121094.246582-1.2353516.3041992-.6455078.0947266-1.2539062-.4755859-1.4628906-.7978516-.0947266-.1713867-.2460938-.3422852-.1513672-.4560547.0566406-.0952148.1513672-.0571289.3603516-.0195312.2089844.0576172.7412109.2285156,1.8242188.1142578,1.0830078-.0947266,4.5400391-.4941406,5.3955078-.7978516.5693359-.2089844.6455078-.3037109,1.3486328-.3417969.6835938-.0380859,1.5957031.3417969,1.7285156.7788086.0761719.284668-.3037109.3798828-.5507812.3608398-1.4248047-.0380859-3.4765625.2280273-5.0722656.4750977.4365234.1137695,1.3486328.4936523,1.5009766.987793.0947266.2280273-.2285156.4941406-.3046875.8925781-.0380859.2285156-.1328125,2.6977539-.1708984,3.7236328,1.2734375-.1142578,2.3945312-.1899414,2.9453125-.2089844.6269531,0,.7597656,0,1.3867188-.0947266.5507812-.0761719,1.0449219-.3798828,1.3671875-.3232422.4941406.1142578,1.7480469.6269531,1.8427734,1.2158203.0761719.5888672-.4365234.684082-1.2158203.5322266-3.6660156-.703125-7.6933594-.3422852-11.3984375.4560547-.5126953.1137695-1.2910156.8164062-2.6972656-.0380859-.2851562-.1708984-.5703125-.5322266-.6650391-.7602539Z"/>
      <path class="cls-1" d="m192.5273438,38.0166016c-.7607422-.0380859-1.4628906-.7978516-1.671875-1.2348633-.0576172-.1518555-.1142578-.3041992-.0380859-.3989258.0761719-.1142578.1894531.0380859.4560547.1328125.6455078.2089844,1.2910156.1328125,2.2226562.0761719.9492188-.0761719,7.6748047-.7792969,8.6621094-1.0830078.3798828-.1142578.2470703-.3037109.6269531-.2851562.3798828.0195312,2.5644531,1.5957031,2.4316406,2.1088867-.0947266.3422852-.5126953.3608398-.7402344.3608398-.4375,0-.6269531,0-1.2167969.4941406-1.1015625.8740234-2.640625,2.1464844-3.7041016,2.6972656.5126953.4179688.9121094.9121094,1.0263672,1.4824219.1132812.5126953-.2470703,1.1015625-.7226562,1.1015625-.3417969,0-.7216797-.1328125-1.0820312-.9501953-.3613281-.7978516-1.1777344-2.1655273-2.7167969-2.887207-.1328125-.0761719-.2851562-.1518555-.2851562-.2280273.0195312-.0571289.1142578-.0947266.3417969-.0571289.6464844.0761719,2.0703125.5512695,3.1542969,1.3295898.7207031-.6074219,2.3925781-2.0893555,2.8867188-3.6279297.0576172-.1523438.3417969-.7412109-.3222656-.6464844-.6650391.0952148-5.2626953.5893555-7.2578125,1.0263672-1.4814453.3227539-1.7285156.5888672-2.0507812.5888672Z"/>
      <path class="cls-1" d="m211.2041016,34.4829102c.0380859-.1899414.3037109-.1899414.5126953-.1899414.2089844-.019043,1.3486328.1708984,1.7285156.6079102.0576172.0571289.1142578.1713867.171875.3041992.6259766-.0380859,1.6904297-.1708984,2.8105469-.3041992.0380859-.4555664.0380859-1.253418-.0185547-1.8046875-.0761719-.722168-.265625-.7978516-.5126953-1.0068359-.265625-.1899414-.4375-.1518555-.4375-.3608398.0195312-.2089844.6464844-.3417969,1.0830078-.3232422.4560547.0195312.8359375.1142578,1.1025391.3232422.265625.2275391.3603516.5126953.2460938.949707-.0761719.3422852-.265625.8359375-.265625,1.3676758,0,.3041992,0,.5322266.0195312.684082,1.4619141-.1899414,2.7734375-.3989258,3.0390625-.4560547.3984375-.0952148.6455078-.4936523.8740234-.4936523.2275391,0,1.4433594.7597656,1.5957031.949707.1708984.1899414.3037109.2661133.265625.5131836-.0380859.265625-.4560547.2275391-.6269531.5126953-.1894531.265625-.2275391.3608398-.4179688.8925781-1.5957031,4.5595703-3.4951172,7.7509766-9.8408203,10.0688477-.1328125.0571289-.3789062.1137695-.3984375.0375977-.0195312-.0756836.1142578-.1513672.3417969-.246582,6.2314453-3.1342773,7.9599609-7.7319336,8.6054688-10.7905273.1142578-.5126953.0195312-.7788086-.4550781-.7216797-.7226562.0761719-5.6044922.7788086-6.8203125.96875.1523438.8168945.2275391,1.8808594.2851562,2.3554688.0947266.7597656.1513672,1.1591797.1513672,1.5009766.0195312.3417969-.265625.7216797-.53125.7978516-.2666016.0761719-.9306641-.4750977-.8740234-1.2348633.1328125-1.3491211-.1142578-3.6474609-.4746094-4.0463867-.3613281-.3989258-.703125-.6269531-.8740234-.6650391s-.3037109-.0947266-.2851562-.1899414Z"/>
      <path class="cls-1" d="m241.3173828,38.6816406c-.1142578.265625-.5126953.2275391-1.2539062.1708984-.703125-.0761719-1.5576172-.0761719-2.3935547-.0195312v.2666016c.0566406,2.6782227.4941406,4.9580078.3984375,6.2304688-.0566406.4941406-.1708984.8740234-.3417969,1.1020508-.2460938.3422852-.5126953.4179688-.7216797.1518555-.2089844-.2470703-.1513672-.9116211-.6835938-1.4628906-.3613281-.3222656-.6650391-.5693359-.8554688-.7026367-.2841797-.1899414-.1708984-.3417969.1708984-.2089844.3613281.1333008.9316406.2470703,1.1210938.1899414.2089844-.0761719.3417969-.3608398.2851562-.7978516-.0380859-.3037109-.1523438-2.1083984-.2089844-3.628418-1.4814453,2.1088867-3.9892578,4.331543-6.3261719,5.4331055-.1523438.0761719-.3417969.0761719-.3613281-.0185547-.0371094-.0952148.0576172-.2089844.1904297-.2851562,1.9189453-1.1396484,4.6923828-3.8183594,5.7753906-6.1362305-.8935547.1137695-1.7480469.284668-2.4316406.4750977-.6083984.1518555-1.1396484.0947266-1.5957031-.1904297-.2285156-.1708984-.3994141-.3984375-.4941406-.5507812-.1328125-.1708984-.1904297-.284668-.1328125-.3608398.0751953-.1137695.3232422.019043.4746094.0571289.1142578.019043.6269531.1518555,1.1962891.1328125.3613281,0,2.109375-.1518555,3.6484375-.3037109v-.2661133c.0371094-.8359375-.0957031-1.5957031-.4179688-1.9755859-.1142578-.1713867-.3232422-.3041992-.4755859-.3608398-.2089844-.0952148-.3037109-.1708984-.2841797-.2851562.0566406-.1899414.4550781-.2851562.9306641-.2470703.3037109.0380859.6074219.1328125.8544922.2470703.265625.1708984.4179688.4560547.3798828.8359375-.0380859.3037109-.0751953.3798828-.1328125.7216797-.0380859.2470703-.0185547.684082.0185547,1.2539062.6464844-.0761719,1.1777344-.1328125,1.3867188-.1708984.7226562-.1142578.875-.2661133,1.3681641-.1523438.703125.1713867,1.0449219.4755859.9121094.8554688Z"/>
      <path class="cls-1" d="m247.9501953,37.9785156c.0947266-.019043.3232422.2470703.5693359.3417969.3994141.1523438,1.1025391.3041992,2.0332031.2851562s3.7050781.0380859,5.1289062.019043c4.0087891-.0571289,4.6542969-.0761719,5.6044922-.0761719.96875,0,1.8623047.0761719,1.7666016.8930664-.0380859.3417969-1.1972656.3798828-1.5390625.3608398-.6835938-.0380859-3.2675781.019043-5.9082031,0-1.234375,0-4.7490234.019043-5.5273438.1708984-.6650391.1137695-1.1210938.1518555-1.5390625-.1328125-.4375-.2851562-1.0644531-.9121094-.7792969-1.6147461.0576172-.1328125.0957031-.2470703.1904297-.2470703Z"/>
      <path class="cls-1" d="m271.7558594,37.9975586c-.7783203,2.3935547-3.7421875,6.1362305-5.8691406,7.4658203-.2089844.1333008-.2666016.0952148-.3232422.019043-.0380859-.0761719.0566406-.1708984.1904297-.3037109,2.4121094-2.2226562,4.2167969-5.5854492,4.7871094-8.0551758.1328125-.5698242.2089844-1.0444336-.4375-1.4248047-.2470703-.1518555-.4365234-.3227539-.3417969-.4555664.0761719-.1333008.7978516-.1142578,1.5009766.265625.3798828.2089844.9501953.7216797,1.0253906,1.2158203.0380859.3037109-.2841797.5126953-.5322266,1.2729492Zm11.1142578-1.0258789c-1.4628906,1.7099609-5.2626953,5.0151367-7.5800781,6.1933594-.3994141.2089844-.6845703-.0380859-.8740234-.2285156-.1894531-.1894531-.6835938-.6645508-.4179688-1.1015625.2470703-.4370117.0566406-1.7861328.1328125-3.2675781.0761719-1.8237305.2285156-2.90625-.0761719-3.2485352-.53125-.5888672-1.0058594-.4555664-.8925781-.7407227.0566406-.1523438.4746094-.2470703.8925781-.2089844.5898438.0566406,1.5390625.4746094,1.7294922,1.1396484.1132812.4179688-.1904297.4179688-.2851562.8740234-.1523438.8544922-.3232422,4.5019531-.3232422,4.7304688,0,.246582.1904297.3227539.4941406.2089844,2.640625-1.0263672,5.2246094-3.0966797,6.9912109-4.6357422.3037109-.265625.3603516-.2851562.4560547-.2089844.0947266.0761719-.0195312.2089844-.2470703.4941406Z"/>
      <path class="cls-1" d="m299.6279297,37.6552734c-.5693359.7792969-1.5576172,1.2919922-2.4316406,1.6533203-.7216797.3227539-2.0517578.7978516-3.3056641,1.3486328-.1132812,1.0449219-.0371094,2.4501953-.0566406,2.7543945-.0380859.3989258-.3984375.7026367-.703125.684082-.3037109-.019043-.5507812-.3041992-.5703125-.684082,0-.2089844.1142578-1.2158203.1904297-2.1845703-.3603516.1708984-.7021484.3798828-.9873047.5698242-.9501953.6650391-1.4443359,1.690918-1.3496094,2.3935547.0957031.7597656,1.0830078,1.0830078,1.7099609,1.1591797,1.5009766.1328125,2.0332031.0380859,3.2109375-.2470703,1.0253906-.2470703,1.4433594-.1523438,1.5957031.265625.2089844.5888672-1.0263672.96875-1.6152344,1.0449219-.7216797.1142578-1.7470703.1708984-2.9824219.0380859-2.1650391-.2470703-2.5458984-1.2539062-2.6210938-2.1083984-.0576172-.5703125.1513672-1.8046875,1.5957031-2.8691406.3798828-.265625.8925781-.5507812,1.4814453-.8354492.0195312-.4370117.0195312-.8168945-.0195312-1.0830078-.1328125-1.0258789-.4365234-1.4248047-1.1015625-1.4819336-.8164062-.0756836-1.8994141,1.1777344-2.5078125,2.0136719-.1513672.2089844-.2841797.3994141-.4365234.5888672-.1904297.2470703-.6083984.8740234-.8173828,1.0263672-.2089844.1518555-.6455078-.0761719-.7783203-.3613281-.1328125-.3037109-.0566406-.8544922.1523438-1.1015625.2841797-.3232422,1.4619141-1.1972656,2.1650391-2.3935547.5322266-.9121094,1.1591797-2.2226562,1.5585938-3.5336914-.6464844.1708984-1.3496094.2661133-1.9951172.1708984s-1.2539062-.5698242-1.5771484-.8354492c-.0566406-.0576172-.0947266-.1333008-.0566406-.1713867.0566406-.0952148.2470703-.019043.3417969.019043.1142578.0380859.7792969.2661133,1.5576172.2280273.4375-.0380859,1.2158203-.1333008,2.0136719-.4179688.0380859-.2280273.0761719-.4370117.1142578-.6645508.0566406-.4755859,0-1.0644531-.5703125-1.5200195-.0947266-.0761719-.1132812-.0761719-.0761719-.2470703.0390625-.1708984.1904297-.1708984.2851562-.1708984.1142578,0,1.0644531.1328125,1.2353516.3608398.0947266.1708984.1142578.4560547.0761719.7788086.2080078.2089844.6650391.2851562,1.1015625.2280273.1708984-.0761719.8173828-.1899414.8925781.1328125.1142578.3798828-.4179688.8740234-1.0068359,1.1972656-.265625.1328125-.8544922.4365234-1.5761719.6835938-.3417969,1.1015625-.7792969,2.3935547-1.3300781,3.628418.6074219-.3227539,1.2724609-.3227539,1.8242188-.1708984,1.0820312.284668,1.3867188,1.8427734,1.3867188,1.8427734.2841797-.6645508.6269531-1.4819336,1.7089844-2.6025391.7597656-.7978516,2.1279297-1.652832,3.2675781-1.5009766,1.234375.1713867,1.7099609,1.4248047,1.0068359,2.3745117Zm-7.5419922-4.7109375c.2089844-.0952148.3994141-.2280273.5888672-.3613281-.0185547-.0756836-.0566406-.1513672-.1894531-.2275391-.0761719-.0571289-.1523438-.0761719-.2275391-.0952148-.0390625.2089844-.0957031.4370117-.171875.684082Zm6.6113281,3.0395508c-.6269531-.4941406-2.0136719.1137695-3.0019531,1.1020508-.7978516.7978516-1.2148438,1.4433594-1.671875,2.90625,0,.019043-.0185547.0380859-.0185547.0380859.8925781-.4179688,1.8623047-.8740234,2.7353516-1.4057617,1.6152344-.949707,2.4316406-2.2416992,1.9570312-2.640625Z"/>
      <path class="cls-1" d="m318.3046875,34.6347656c.1523438-.2275391.2666016-.4560547.4179688-.4560547.2285156,0,1.4628906,1.0644531,1.4628906,1.3491211-.1328125.1333008-.4365234.284668-.7978516.3422852v9.840332c0,1.0068359-.2089844,1.6147461-1.9755859,1.8046875-.0566406-.3798828-.1708984-.684082-.4365234-.8740234-.3037109-.2089844-.7978516-.3608398-1.6904297-.4750977v-.3037109s2.0322266.1523438,2.4501953.1523438c.3603516,0,.4746094-.1142578.4746094-.4179688v-9.9355469h-5.3378906v7.0283203h2.3369141v-1.5195312c0-1.2919922-.0761719-2.8496094-.2470703-3.8945312,1.9375.5703125,1.9375.7597656,1.6142578.96875l-.3037109.1904297v1.7285156c.0380859,2.0898438.0566406,2.7929688.1328125,4.0844727-.1328125.2280273-.5888672.4936523-.9873047.4936523-.2089844,0-.2851562-.1894531-.2851562-.3798828.0380859-.1894531.0380859-.3037109.0761719-.6074219v-.4941406h-5.8320312v.4560547c.0371094.4560547.0371094.6074219.0751953.8164062-.0751953.2285156-.5507812.4941406-.9306641.4941406-.2089844,0-.3222656-.1899414-.3222656-.3798828.0566406-.7216797.0751953-1.0830078.1132812-2.1845703v-1.2919922c0-1.2919922-.0761719-2.8496094-.2470703-3.8945312,1.9189453.5888672,1.9189453.7792969,1.6152344.96875l-.3037109.1904297v4.2548828h2.3173828v-7.0283203h-5.1865234v6.8388672c.0380859,2.2792969.0761719,3.0390625.1523438,4.4638672-.1523438.2666016-.6083984.5703125-1.1210938.5703125-.2089844,0-.4179688-.1904297-.4179688-.3798828.1142578-1.6337891.1708984-2.4697266.2089844-4.9394531v-3.9707031c0-1.2915039-.0761719-2.8496094-.2470703-3.894043l1.5576172.7407227h5.0537109v-2.6972656h-4.4267578c-.9873047.0185547-1.8994141.1137695-2.8496094.265625l-.4746094-.987793c.8359375.0952148,1.671875.1333008,2.5263672.1518555h11.6074219l.4179688-.5888672c.2275391-.3037109.4179688-.6079102.5693359-.6079102.2285156,0,1.6914062,1.1782227,1.6914062,1.4628906-.0566406.2089844-.2285156.3041992-.4746094.3041992h-7.4091797v2.6972656h5.1669922l.265625-.4560547Z"/>
      <path class="cls-1" d="m335.7285156,37.3706055c.1894531-.2280273.3222656-.4560547.4746094-.4560547.2285156,0,1.3105469,1.0449219,1.3105469,1.3295898-.1328125.1523438-.3603516.2470703-.7597656.3041992-.1894531,3.9897461-.6835938,7.3520508-1.5761719,8.206543-.5136719.5131836-1.2734375.7792969-2.1855469.7602539,0-.3798828-.0751953-.7407227-.3984375-.9116211-.3222656-.2285156-1.3486328-.4560547-2.203125-.6083984v-.3227539c.9873047.0952148,2.7353516.2661133,3.1914062.2661133.3798828,0,.5507812-.0380859.7783203-.2470703.6083984-.5322266,1.0068359-3.6665039,1.1972656-7.3139648h-5.5664062c-.7597656,4.0273438-2.4882812,7.0668945-6.6298828,9.1948242l-.1708984-.2470703c4.4638672-3.1533203,5.6416016-7.3896484,5.8505859-13.0131836h-2.7734375c-.9873047.019043-1.8994141.1137695-2.8496094.2661133l-.4941406-.9501953c.8359375.0952148,1.671875.1333008,2.5273438.1523438h5.2998047c0-1.2348633-.0761719-2.7548828-.2275391-3.7617188,2.1083984.5888672,2.1083984.7792969,1.7851562.9882812l-.3222656.2089844v2.5644531h5.1855469l.4179688-.5888672c.2285156-.3041992.3994141-.6083984.5507812-.6083984.2285156,0,1.6347656,1.1591797,1.6347656,1.4443359-.0576172.2089844-.2089844.284668-.4755859.284668h-8.8144531c-.0947266,1.2348633-.2089844,2.3935547-.3798828,3.4956055h5.28125l.3417969-.4370117Z"/>
      <path class="cls-1" d="m346.4648438,33.9511719c.1894531-.2661133.3222656-.5322266.4746094-.5322266.2285156,0,1.2734375,1.0449219,1.2734375,1.3300781-.0390625.2089844-.2089844.3037109-.4570312.3037109h-2.0322266v3.5146484c.7978516-.265625,1.6142578-.5507812,2.4316406-.8549805l.0761719.2661133c-.6845703.3989258-1.5195312.8740234-2.5078125,1.4057617v6.3637695c0,1.0068359-.1708984,1.6152344-1.7285156,1.7861328-.0576172-.3798828-.1523438-.703125-.3417969-.8930664-.2470703-.2089844-.6650391-.3608398-1.3681641-.4370117v-.3227539s1.5771484.1333008,1.9189453.1333008c.3037109,0,.3984375-.0952148.3984375-.3803711v-5.6420898c-.5693359.3037109-1.1777344.6269531-1.8232422.9501953-.0566406.2275391-.2089844.4174805-.3613281.4936523l-.6835938-1.5766602c.5888672-.1523438,1.5957031-.4750977,2.8681641-.9121094v-3.8945312h-.8349609c-.4941406.0195312-.9501953.1142578-1.40625.2661133l-.4746094-.987793c.6074219.0947266,1.2148438.1328125,1.8613281.1518555h.8544922v-.5317383c0-1.2919922-.0751953-2.8496094-.2470703-3.8945312,2.0527344.5888672,2.0527344.7788086,1.7099609.987793l-.3417969.2089844v3.2294922h.4179688l.3232422-.5317383Zm10.3154297,4.9960938c.2089844-.2851562.3603516-.5698242.5126953-.5698242.2285156,0,1.5195312,1.1020508,1.5195312,1.3867188-.0566406.2089844-.2089844.3041992-.4746094.3041992h-4.3125c1.1015625,2.1655273,3.0585938,3.9511719,4.9960938,4.8061523l-.0185547.1899414c-.5126953.0947266-.9121094.4560547-1.0830078,1.1015625-1.8427734-1.2539062-3.3818359-3.3242188-4.2929688-6.0029297v2.3935547c.0371094,2.2797852.0761719,3.0400391.1513672,4.4648438-.1513672.246582-.6650391.5126953-1.1201172.5126953-.2089844,0-.3808594-.1904297-.3808594-.3798828.0957031-1.2539062.1328125-1.8999023.171875-3.7998047v-2.0898438c-1.2167969,2.0712891-3.0400391,3.7807617-5.3955078,4.996582l-.1904297-.284668c2.1855469-1.5200195,3.8378906-3.5908203,4.8066406-5.9082031h-1.2734375c-.796875.0185547-1.5566406.1137695-2.3173828.265625l-.4931641-.987793c.8359375.0952148,1.671875.1333008,2.5263672.1518555h2.3369141c0-.7597656-.0390625-1.7094727-.1523438-2.3745117,1.9189453.5512695,1.9189453.7407227,1.6152344.949707l-.2851562.2089844v1.2158203h2.7919922l.3613281-.5507812Zm.7978516-7.3139648l-.4560547-.0756836c-2.2412109.5126953-5.7373047,1.0253906-8.8144531,1.1206055l-.0761719-.3417969c1.6523438-.2280273,3.5332031-.6079102,5.2050781-1.0258789,1.2158203-.3037109,2.3554688-.7412109,3.2675781-1.2919922l.6650391.9306641c.6650391.5512695.6650391.7412109.2089844.684082Zm-8.8720703,1.9946289c3.2294922,1.8999023,2.0136719,4.3886719.9306641,3.324707-.0371094-1.0449219-.6455078-2.3745117-1.1582031-3.2294922l.2275391-.0952148Zm3.1533203-.6835938c3.2490234,1.8046875,2.0136719,4.2929688.8935547,3.2294922-.0576172-1.0068359-.6083984-2.2988281-1.1210938-3.1347656l.2275391-.0947266Zm6.4404297.7407227l-.3417969.1333008c-.7978516,1.5957031-1.8623047,3.1914062-2.8876953,4.1982422l-.2851562-.1708984c.2285156-.3798828.4560547-.8173828.6835938-1.3110352.5136719-1.1401367,1.0449219-2.8686523,1.1787109-3.9321289l1.1015625.5126953c.9121094.2470703.9121094.4370117.5507812.5698242Z"/>
      <path class="cls-1" d="m364.3242188,41.0561523c-.3037109,2.3554688-1.1201172,4.6918945-3.0771484,6.4589844l-.265625-.1899414c2.1083984-2.8115234,2.3740234-6.3828125,2.3740234-10.0117188v-3.2104492c0-1.0825195-.0566406-2.4125977-.2089844-3.3051758l1.6152344.7026367h9.8212891l.2666016-.4179688c.1513672-.2089844.265625-.4179688.4179688-.4179688.2275391,0,1.5576172.987793,1.5576172,1.2729492-.1337891.1708984-.4560547.3417969-.8554688.4365234v13.2792969c0,1.0258789-.1894531,1.652832-1.9560547,1.8427734-.0576172-.3989258-.171875-.7412109-.4179688-.9121094-.2851562-.2089844-.7792969-.3798828-1.6337891-.4936523v-.3041992s1.9560547.1708984,2.3554688.1708984c.3417969,0,.4365234-.1328125.4365234-.4365234v-4.4643555h-4.6728516v1.9755859c.0380859,1.9755859.0566406,2.621582.1328125,3.8374023-.1328125.1899414-.5322266.4941406-1.1396484.4941406-.1904297,0-.3613281-.1904297-.3613281-.3798828.0957031-1.2729492.1328125-1.8999023.1708984-3.8183594v-2.1088867h-4.5595703Zm.2285156-3.7612305c0,1.0253906-.0195312,2.1083984-.1523438,3.2099609h4.4833984v-3.9892578h-4.3310547v.7792969Zm4.3310547-5.2246094h-4.3310547v3.8754883h4.3310547v-3.8754883Zm5.8701172,0h-4.6728516v3.8754883h4.6728516v-3.8754883Zm-4.6728516,8.4345703h4.6728516v-3.9892578h-4.6728516v3.9892578Z"/>
      <path class="cls-1" d="m394.609375,42.3476562c-1.9765625,2.2226562-4.9199219,4.0654297-7.7128906,3.4956055-1.8242188-.3798828-2.8876953-1.5200195-2.9453125-4.2172852-.1132812-4.1796875.4941406-6.1738281.3613281-8.0361328-.1132812-1.2915039-.4365234-1.4624023-.7792969-1.6523438-.1513672-.0952148-.2275391-.3417969.1337891-.3994141.3603516-.0566406.7412109.0195312,1.0830078.1904297.7402344.3417969.9306641,1.5195312.8544922,2.1845703-.0380859.3417969-.1142578.8740234-.1523438,1.3676758-.2841797,2.659668-.53125,4.5024414-.3984375,6.5922852.1328125,2.2036133,1.0253906,2.640625,2.4697266,2.90625.9492188.1904297,3.0205078.3041992,6.8769531-2.6787109.1523438-.1137695.3603516-.265625.4365234-.1894531.0761719.0947266-.0761719.265625-.2275391.4365234Z"/>
      <path class="cls-1" d="m407.0546875,33.9511719c.0761719.1518555.0761719.4365234-.3603516.7597656-.6650391.4941406-1.5205078,1.0068359-2.4316406,1.3867188-.703125,3.2675781-1.6904297,7.8076172-1.8994141,8.4726562-.3232422,1.0263672-.5517578,1.2353516-1.0830078,1.0639648-.5322266-.1899414-.6464844-.7597656-.3427734-1.3295898.0576172-.1328125.6083984-1.40625.9316406-2.3178711.53125-1.4248047,1.1015625-3.2866211,1.5195312-5.565918-.6464844.2089844-1.2919922.3227539-1.8613281.3037109-.4179688-.019043-1.1210938-.3989258-1.6152344-.9121094-.1523438-.1513672-.1142578-.265625-.1142578-.265625.0761719-.1142578.2285156,0,.3798828.0380859.1523438.0566406,1.1591797.4179688,2.640625-.0952148.1904297-.0571289.3613281-.1328125.5507812-.2089844.0761719-.0375977.1523438-.0571289.2285156-.0952148.0761719-.5507812.1523438-1.1396484.2089844-1.7285156.0195312-.1518555.0947266-.96875-.0947266-1.3676758-.1708984-.3798828-.7412109-.6459961-.7978516-.722168-.0576172-.0756836-.0761719-.1137695-.0380859-.2089844.0380859-.1513672.9111328,0,1.3105469.2285156.3994141.2089844.96875.4555664.8173828,1.2915039l.0185547.019043c.0185547.019043.3037109.4370117.7597656.6650391.2089844.1137695.4560547.2089844.703125.265625.1894531.0571289.4560547.1142578.5693359.3232422Zm-1.5576172,0c0-.2280273-.2470703-.4560547-.4365234-.684082l-.1523438-.1518555c-.0761719.3232422-.1894531.8740234-.3417969,1.5576172.1894531-.0947266.3613281-.1899414.5507812-.2851562.1523438-.0947266.3798828-.2089844.3798828-.4365234Zm8.2255859,10.8095703c.3046875.9873047-1.2910156,1.0449219-2.6210938,1.0253906-1.6152344-.0380859-3.1152344-.6269531-3.6660156-1.7094727-.5517578-1.0830078-.1523438-2.1469727-.0957031-2.3364258.0957031-.2851562.265625-.4941406.3798828-.4755859.1142578.0380859.0195312.2470703,0,.6269531-.0185547.1713867-.0566406,1.1210938.703125,1.7861328.4941406.4560547,1.6337891.8925781,3.1728516.703125,1.5761719-.1713867,1.9570312-.1142578,2.1269531.3798828Zm.4755859-8.3212891c-.1708984.3994141-1.2919922.4375-1.8808594.6269531-.3994141.1333008-.8935547.4179688-1.1210938.5507812-.1142578.0761719-.2841797.0952148-.3037109.0380859-.0195312-.0380859-.0380859-.0947266.0380859-.1894531.1142578-.1523438.96875-.703125,1.3867188-1.1777344.1328125-.1523438.2275391-.2666016.2275391-.3994141,0-.1137695-.1894531-.2851562-.265625-.3608398-.6650391-.5131836-1.6523438-.5131836-2.0898438-.4370117-.2089844.019043-.3613281-.0566406-.3984375-.1328125-.0380859-.0947266.0566406-.2280273.1708984-.2661133,1.3671875-.5698242,2.7919922-.1518555,3.4570312.3041992s.8544922,1.2539062.7792969,1.4433594Z"/>
      <path class="cls-1" d="m420.9824219,42.784668c.4179688,2.1850586-.6269531,3.362793-1.4238281,3.7807617-.5322266.265625-1.1591797.265625-1.3496094-.1523438-.1328125-.3984375.1328125-.7407227.5136719-.9306641.8925781-.3232422,1.8994141-1.3105469,1.9560547-2.6977539h.3037109Zm3.4003906-6.496582c.1523438-.2089844.2666016-.4179688.4179688-.4179688.2285156,0,1.2919922.9116211,1.2919922,1.1962891-.1142578.1333008-.3798828.2851562-.6835938.3422852v1.1777344c.0380859,1.1777344.0380859,1.5576172.0947266,2.2416992-.1132812.2089844-.703125.4941406-1.0634766.4941406h-.1708984v-.8554688h-3.4580078v.3422852c.0380859.3422852.0195312.4555664.0576172.5698242-.0576172.2089844-.5507812.4750977-1.0263672.4750977-.1513672,0-.2470703-.1899414-.2470703-.3803711.0576172-.5126953.0576172-.7597656.0957031-1.5380859v-.9692383c0-.96875-.0576172-2.1655273-.1904297-2.9633789l1.4052734.6835938h1.0449219v-2.1274414h-1.0820312c-.6835938.019043-1.2919922.1137695-1.9375.2661133l-.4941406-.96875c.7978516.0947266,1.5957031.1328125,2.3935547.1513672h1.1201172v-1.918457c-1.0253906.0952148-2.1083984.1708984-3.1152344.1899414l-.0761719-.3417969c.9316406-.1328125,1.9570312-.3232422,2.9257812-.5703125,1.2158203-.3037109,2.4882812-.7783203,3.4003906-1.3486328,1.2919922,1.4438477,1.2919922,1.6337891.8359375,1.5771484l-.4365234-.0761719c-.6845703.1518555-1.5009766.3037109-2.4130859.4365234v2.0517578h1.4248047l.3427734-.5126953c.1894531-.2470703.3417969-.5126953.4931641-.5126953.2275391,0,1.4443359.9873047,1.4443359,1.2724609-.0576172.2089844-.2089844.3041992-.4755859.3041992h-3.2294922v2.1274414h1.0449219l.265625-.3984375Zm-.1132812.9492188h-3.4580078v2.6787109h3.4580078v-2.6787109Zm-1.6523438,5.1484375c1.8046875.5703125,1.8046875.7597656,1.5380859.9501953l-.2470703.1708984v2.2412109c0,.2666016.0566406.3232422.8740234.3232422h2.3554688c1.0634766,0,1.8808594-.019043,2.1845703-.0380859.2470703-.0185547.3232422-.0566406.4179688-.2275391.1328125-.3041992.3232422-1.0449219.5136719-1.9570312h.2275391l.0566406,2.0136719c.4179688.1328125.5322266.2851562.5322266.5126953,0,.5703125-.6074219.7602539-3.9892578.7602539h-2.4501953c-1.6152344,0-1.9003906-.2470703-1.9003906-1.1782227v-1.7285156c0-.5698242-.0380859-1.3105469-.1132812-1.8427734Zm2.46875-.7788086c4.0849609.949707,3.4960938,3.609375,2.2041016,2.9067383-.3613281-.9121094-1.5205078-2.0898438-2.3935547-2.7358398l.1894531-.1708984Zm7.3710938-9.612793c.1708984-.2089844.2851562-.4365234.4375-.4365234.2275391,0,1.3291016.96875,1.3291016,1.2539062-.1142578.1328125-.3984375.284668-.7412109.3417969v3.4570312c.0390625,2.2802734.0761719,3.0400391.1523438,4.4648438-.1708984.2275391-.7216797.5126953-1.1210938.5126953-.1699219,0-.2460938-.1899414-.2460938-.3798828.0371094-.0947266.0371094-.1328125.0761719-.2851562v-.3417969h-3.9521484v.7412109c0,.1513672-.4560547.4365234-.9501953.4365234-.2089844,0-.3789062-.1899414-.3789062-.3798828.0947266-1.2348633.1328125-1.8613281.1699219-3.7236328v-2.0517578c0-1.2915039-.0751953-2.8496094-.2460938-3.894043l1.4814453.7026367h.8544922c.1523438-.7597656.3232422-1.7285156.3417969-2.4121094,2.0898438.4365234,2.0898438.6264648,1.7675781.7978516l-.3232422.1708984c-.3232422.4179688-.7792969.9873047-1.1591797,1.4433594h2.2041016l.3037109-.4179688Zm-.1132812.9501953h-3.9521484v1.9755859h3.9521484v-1.9755859Zm-3.9521484,4.5214844h3.9521484v-1.9760742h-3.9521484v1.9760742Zm0,2.5644531h3.9521484v-2.0136719h-3.9521484v2.0136719Zm2.2988281,2.5454102c5.0722656,1.3491211,4.3886719,4.8632812,2.90625,3.9135742-.3798828-1.3486328-1.8613281-2.8686523-3.0771484-3.7236328l.1708984-.1899414Z"/>
      <path class="cls-1" d="m438.7861328,33.894043c.0947266-.2089844,1.0449219.0952148,1.5195312.5131836.3798828.3608398.5126953.6650391.4941406,1.0634766-.0185547.7792969-.7978516,2.7929688-.5703125,4.5214844.2470703,1.7856445,1.2919922,2.6025391,1.5771484,2.8115234.3037109.2089844.4941406.2851562.5888672.2851562.0947266-.019043.2089844.0185547.3037109-.3798828.265625-1.2158203.5703125-2.0332031.6650391-2.2607422.0761719-.2089844.2089844-.3613281.2851562-.3417969.0761719.0185547.0380859.246582,0,.4365234-.2666016,1.2348633-.1708984,2.2607422-.1328125,2.659668s.3232422.8930664.3417969,1.1020508.0380859.4941406-.2275391.6455078c-.2480469.1708984-1.2167969.0380859-2.5273438-1.1396484-.4746094-.4365234-1.6337891-1.7666016-1.8427734-3.7421875-.1894531-1.9755859.2089844-3.4765625.2285156-3.9707031.0380859-.4746094.1328125-.8168945.0185547-1.1396484-.1132812-.3232422-.3417969-.6079102-.6455078-.8740234-.0576172-.0380859-.1142578-.0947266-.0761719-.1899414Zm8.6054688,2.2988281c0-.0761719.0380859-.1137695.1708984-.1518555.1142578-.0380859,1.8242188-.6464844,3.34375.7783203.7597656.722168,1.1396484,1.671875,1.1582031,2.1469727.0390625.4936523-.1699219,1.1586914-.9111328.987793-.3613281-.0947266-.4179688-.3798828-.4755859-.5507812-.0751953-.1708984-.6835938-2.3554688-1.7089844-2.8686523-.5888672-.284668-1.3105469-.2280273-1.4248047-.2280273-.0761719,0-.1523438-.0566406-.1523438-.1137695Z"/>
      <path class="cls-1" d="m471.6914062,39.7832031c-.6455078,6.1171875-8.0732422,6.1738281-8.4912109,6.2314453-.6083984.0566406-.9501953.0566406-.96875-.0761719-.0380859-.1142578.4941406-.1708984.7412109-.2089844,2.1083984-.3417969,6.9902344-1.7861328,7.3710938-6.2119141.3984375-4.4267578-2.7548828-6.2124023-5.4150391-6.3642578-.2470703-.019043-.4931641-.019043-.7412109,0,.3046875.6269531,1.1210938,2.621582-.265625,5.8886719-1.5390625,3.6289062-3.7617188,5.3388672-4.5400391,5.2436523-.7978516-.0952148-2.1464844-1.5961914-2.2988281-3.9516602-.3232422-4.7680664,3.6289062-7.2758789,6.3642578-7.7128906,3.0585938-.4936523,8.8710938,1.0068359,8.2441406,7.1621094Zm-7.8261719-6.6113281c-2.3369141.2666016-4.6357422,1.8051758-5.5283203,4.5214844-1.0263672,3.1347656.5693359,4.8251953.9501953,5.015625.3603516.1894531.8359375-.1904297.8359375-.1904297,2.203125-1.6142578,3.4375-4.7299805,3.6855469-5.6040039.2460938-.8930664.3789062-2.6782227.0566406-3.7426758Z"/>
      <path class="cls-1" d="m489.1533203,34.4257812c.1708984.684082-.5507812,1.0639648-1.0634766,2.0708008-2.7548828,5.3950195-6.3076172,7.6176758-11.0380859,9.7836914-.2470703.1142578-.4365234.0947266-.4560547,0-.0371094-.1142578.1142578-.1899414.3613281-.3232422,4.1035156-1.9375,8.8710938-6.4589844,10.2392578-11.1699219.1328125-.4370117-.1513672-.3798828-.2470703-.3798828-.2460938,0-5.1669922.8925781-7.3320312,1.6142578-.8554688.3041992-1.4443359.1142578-1.7861328-.1328125-.4755859-.3417969-.8935547-1.234375-.7412109-1.4248047.0761719-.0947266.3417969-.0380859.6269531.0571289.7216797.2280273,1.1396484.1708984,1.5957031.1333008.7978516-.0761719,5.6796875-.6464844,6.4589844-.8930664.5322266-.1713867,1.2539062-.6650391,1.5957031-.6079102.3417969.0566406,1.6914062.9116211,1.7861328,1.2724609Zm3.3623047-2.3554688c0,1.0068359-.8164062,1.8237305-1.8046875,1.8237305-1.0068359,0-1.8242188-.8168945-1.8242188-1.8237305,0-.987793.8173828-1.8046875,1.8242188-1.8046875.9882812,0,1.8046875.8168945,1.8046875,1.8046875Zm-.4941406,0c0-.7216797-.5888672-1.3105469-1.3105469-1.3105469-.7412109,0-1.3300781.5888672-1.3300781,1.3105469,0,.7412109.5888672,1.3300781,1.3300781,1.3300781.7216797,0,1.3105469-.5888672,1.3105469-1.3300781Z"/>
      <path class="cls-1" d="m495.9765625,46.4702148c-.0957031.019043-.1904297.019043-.1904297-.0380859-.0380859-.0756836.0761719-.1328125.1513672-.1518555,4.484375-1.9755859,7.7519531-4.6352539,10.0117188-9.3657227.0957031-.2089844.1142578-.3608398.0761719-.4179688-.0566406-.0756836-.2275391-.0952148-.4941406-.0571289-.6269531.1142578-4.4824219.7978516-5.5849609,1.0830078-.9121094.2280273-.6269531.4560547-1.1591797.5507812-.6269531.0952148-1.4628906-.4560547-1.8808594-.949707-.1894531-.2089844-.2460938-.7026367-.1328125-.8735352.0957031-.1333008.3808594.0756836.5322266.1328125.2666016.1137695,1.2353516.3227539,2.4130859.2089844.6640625-.0761719,5.1484375-.7597656,5.6992188-.8740234.53125-.1142578.6455078-.4370117.96875-.5126953.3222656-.0761719,1.0253906.4746094,1.3671875.7788086.6269531.5698242.4375.7788086.3808594.8930664-.171875.284668-.8359375.6645508-1.1972656,1.2724609-2.1845703,3.6855469-4.9199219,6.5917969-10.9609375,8.3208008Zm10.3339844-13.8491211c.0947266.5131836-.1894531.4179688-2.1660156.3994141-.9492188-.0195312-3.2480469.3037109-3.8945312.5507812-.6455078.2275391-1.0634766.3037109-1.5761719-.1328125-.3046875-.2666016-.4941406-.4941406-.5703125-.6845703-.0566406-.1328125-.0761719-.2084961,0-.284668.0761719-.0571289.3232422.0571289.6269531.1518555.3232422.0952148.8740234.1708984,1.7861328.0195312.8925781-.1333008,2.3554688-.4179688,2.8115234-.5322266.4365234-.1142578.4746094-.3798828,1.0820312-.4560547.6083984-.0761719,1.8242188.5126953,1.9003906.96875Z"/>
      <path class="cls-1" d="m515.6025391,33.4189453c.6845703-.0947266,2.640625-.0380859,3.7050781.7978516.7597656.5888672.8740234,1.3491211.5693359,1.7861328-.3222656.4365234-1.0634766.2851562-1.5576172-.5131836-.5507812-.8930664-1.9560547-1.5766602-2.640625-1.7666016-.2089844-.0571289-.3417969-.1333008-.3417969-.2089844.0185547-.0571289.1328125-.0756836.265625-.0952148Zm13.3935547.8930664c.0761719.0952148-.0761719.3227539-.1708984.4370117-2.8115234,3.9326172-7.5039062,7.9599609-9.1572266,9.1186523-.5888672.3989258-.6455078.3608398-1.1015625.8549805-.3798828.4179688-.7597656.5126953-1.2158203.4179688-.9306641-.2285156-1.5009766-1.0263672-1.6337891-1.7099609-.1708984-.7788086,0-1.1015625.1142578-1.1586914.1328125-.0571289.2089844.3798828.4746094.6079102.1904297.1899414.4365234.4941406,1.0830078.3798828,2.1845703-.3417969,8.2441406-5.5473633,11.2460938-8.7768555.1328125-.1518555.265625-.246582.3613281-.1708984Z"/>
      <path class="cls-1" d="m537.0341797,44.7226562c0,1.3867188-1.1015625,2.4882812-2.4697266,2.4882812-1.3671875,0-2.4882812-1.1015625-2.4882812-2.4882812,0-1.3681641,1.1210938-2.4697266,2.4882812-2.4697266,1.3681641,0,2.4697266,1.1015625,2.4697266,2.4697266Zm-.4560547,0c0-1.1020508-.9111328-1.9951172-2.0136719-1.9951172-1.1015625,0-2.0136719.8930664-2.0136719,1.9951172,0,1.1206055.9121094,2.0136719,2.0136719,2.0136719,1.1025391,0,2.0136719-.8930664,2.0136719-2.0136719Z"/>
    </g>
    <rect class="cls-2" x="0" y="0" width="661" height="48"/>
  </g>
</svg>