<?xml version="1.0" encoding="UTF-8"?>
<svg id="_レイヤー_2" data-name="レイヤー 2" xmlns="http://www.w3.org/2000/svg" viewBox="0 0 450 45.5">
  <defs>
    <style>
      .cls-1, .cls-2 {
        stroke-width: 0px;
      }

      .cls-2 {
        opacity: 0;
      }
    </style>
  </defs>
  <g id="_レイヤー_1-2" data-name="レイヤー 1">
    <rect class="cls-2" width="450" height="45.5"/>
    <g>
      <g>
        <path class="cls-1" d="m99.6010742,35.3393555c.1796875-.2397461.3149414-.4799805.4350586-.4799805.1796875,0,1.3046875.9296875,1.3046875,1.1552734-.0302734.1650391-.1796875.2397461-.3896484.2397461h-4.9199219v6.8847656h4.0195312l.3452148-.4799805c.1801758-.2402344.3295898-.4951172.449707-.4951172.1801758,0,1.3203125.9453125,1.3203125,1.1699219-.0449219.1650391-.1650391.2402344-.375.2402344h-10.3198242c-.7797852.0146484-1.5.0898438-2.25.2099609l-.3901367-.7651367c.6601562.074707,1.3203125.1049805,1.9951172.1201172h4.2148438v-6.8847656h-2.699707c-.7797852.0151367-1.5.0898438-2.25.2099609l-.4047852-.7797852c.659668.074707,1.3198242.1044922,1.9946289.1201172h3.3598633v-2.2050781c0-1.0200195-.0600586-2.25-.1948242-3.0751953,1.6796875.4804688,1.6796875.6298828,1.4248047.8100586l-.2397461.1650391v4.3051758h3.2397461l.3300781-.465332Z"/>
        <path class="cls-1" d="m107.4311523,34.6796875c.1499023-.2099609.2548828-.4355469.375-.4355469.1801758,0,1.0649414.8554688,1.0649414,1.0800781-.0449219.1650391-.1796875.2402344-.3598633.2402344h-1.8452148v4.7548828c.6904297-.3154297,1.425293-.6601562,2.175293-1.0048828l.0898438.2099609c-1.0200195.6748047-2.4301758,1.6948242-4.2597656,2.8349609-.0449219.1796875-.1352539.3295898-.2700195.4047852l-.5703125-1.2749023c.4052734-.1352539,1.0952148-.4052734,1.9199219-.7651367v-5.159668h-.5849609c-.3295898.0146484-.6445312.0898438-.9599609.2099609l-.375-.7802734c.4355469.0751953.8701172.1054688,1.3203125.1201172h.5996094v-1.2148438c0-1.0200195-.0595703-2.25-.1948242-3.0751953,1.6352539.465332,1.6352539.6152344,1.3652344.7802734l-.2553711.1499023v3.3598633h.4951172l.2700195-.4345703Zm8.0844727-1.2451172c.1201172-.1650391.2099609-.3452148.3300781-.3452148.1801758,0,1.0200195.7651367,1.0200195.9897461-.0898438.1201172-.2700195.1953125-.5551758.2402344-.0449219,3.9448242-.2099609,5.4150391-.6748047,5.9248047-.2998047.3447266-.75.4799805-1.199707.4799805,0-.284668-.0151367-.5400391-.1650391-.6899414-.1352539-.1201172-.4350586-.2250977-.75-.2851562v-.2695312c.3300781.0297852.8398438.074707,1.0800781.074707.1948242,0,.284668-.0297852.375-.1352539.2700195-.3144531.3896484-1.7695312.4350586-5.234375l-2.2050781.8701172v2.6542969c.0297852,1.800293.0600586,2.4003906.1201172,3.5253906-.1201172.2099609-.5102539.449707-.8554688.449707-.1645508,0-.3144531-.1499023-.3144531-.300293.074707-1.2895508.1196289-1.9345703.1499023-3.8847656v-2.0996094l-1.9350586.7646484v6.1049805c0,.449707.1499023.6147461,1.0649414.6147461h2.1450195c1.0048828,0,1.7246094-.0146484,2.0400391-.0449219.2246094-.0297852.3149414-.0898438.4047852-.2246094.1201172-.2705078.3300781-1.1699219.5400391-2.2802734h.1948242l.0302734,2.3398438c.3896484.1352539.4794922.2548828.4794922.465332,0,.5395508-.6147461.6748047-3.7197266.6748047h-2.1894531c-1.4404297,0-1.9052734-.284668-1.9052734-1.3500977v-5.9545898l-1.7851562.7050781-.2695312-.3598633,2.0546875-.8100586v-2.159668c0-.7353516-.0449219-1.6201172-.1347656-2.2202148,1.5595703.4799805,1.5595703.6298828,1.3046875.8100586l-.2548828.1650391v3.0449219l1.9350586-.75v-2.1748047c0-.7202148-.0454102-1.6201172-.1352539-2.2353516,1.5302734.4804688,1.5302734.6298828,1.2749023.8100586l-.2397461.1650391v3.074707l1.949707-.7646484.1352539-.0449219.2246094-.3300781Z"/>
        <path class="cls-1" d="m130.2758789,34.0341797c.1352539-.1796875.2250977-.3598633.3452148-.3598633.1796875,0,1.0498047.7651367,1.0498047.9897461-.1049805.1352539-.2700195.2255859-.5849609.2705078v5.324707c.0297852,1.7998047.0600586,2.3999023.1201172,3.5249023-.1201172.1499023-.4804688.4047852-.9301758.4047852-.1499023,0-.2099609-.1499023-.2099609-.300293.0297852-.1347656.0297852-.2099609.0600586-.4199219v-.375h-9.1796875v.300293c.0302734.284668.0151367.3901367.0449219.4946289-.0449219.1650391-.3447266.390625-.8251953.390625-.1494141,0-.3144531-.1503906-.3144531-.300293.0898438-1.2900391.1347656-1.949707.1650391-3.8999023v-3.1650391c0-1.0195312-.0605469-2.25-.1953125-3.074707l1.2900391.5551758h3.2397461c.1201172-.6000977.300293-1.5.3901367-2.2050781h-3.1948242c-.7802734.0151367-1.5.0898438-2.25.2099609l-.3901367-.7797852c.6601562.074707,1.3203125.1049805,1.9951172.1196289h9.1943359l.3300781-.4648438c.1801758-.2246094.3300781-.4648438.4501953-.4648438.1796875,0,1.3046875.9150391,1.3046875,1.1396484-.0449219.1650391-.1796875.2402344-.375.2402344h-5.8046875c-.3598633.7353516-.824707,1.5898438-1.199707,2.2050781h5.2495117l.2250977-.3603516Zm-9.3295898.8105469v7.8144531h2.3251953v-7.8144531h-2.3251953Zm5.909668,2.2646484v-2.2646484h-2.6850586v2.2646484h2.6850586Zm0,2.7597656v-2.3398438h-2.6850586v2.3398438h2.6850586Zm-2.6850586.4199219v2.3701172h2.6850586v-2.3701172h-2.6850586Zm5.9550781-5.4443359h-2.3701172v7.8144531h2.3701172v-7.8144531Z"/>
        <path class="cls-1" d="m145.3657227,33.0893555c.1499023-.1645508.2553711-.3452148.375-.3452148.1801758,0,1.0200195.6601562,1.0200195.8852539-.0297852.1650391-.1796875.2250977-.375.2250977h-2.8945312v1.1699219h2.0996094l.2700195-.4052734c.1499023-.2099609.2548828-.4199219.375-.4199219.1801758,0,1.0952148.7949219,1.0952148,1.0205078-.0302734.1645508-.1650391.2397461-.3603516.2397461h-7.8447266c-.074707.074707-.1948242.1049805-.3149414.1049805h-1.7250977v1.5449219c2.7451172,1.1699219,2.0400391,2.9101562,1.1855469,2.2797852-.1650391-.6147461-.7202148-1.4248047-1.1855469-1.9799805v2.9848633c.0302734,1.800293.0605469,2.3999023.1201172,3.5249023-.1201172.1650391-.4345703.3901367-.8696289.3901367-.1499023,0-.3149414-.1499023-.3149414-.300293.0898438-1.2900391.1347656-1.949707.1650391-3.8994141v-2.1450195c-.5849609,1.3500977-1.3652344,2.5649414-2.340332,3.6000977l-.2250977-.2104492c1.125-1.6049805,1.9052734-3.6899414,2.340332-5.7895508h-.6152344c-.3901367.0146484-.7197266.0898438-1.0795898.2099609l-.375-.7651367c.5097656.0751953,1.0195312.1049805,1.5595703.1201172h.7353516v-2.6098633c-.7202148.1948242-1.4853516.3896484-2.1904297.5097656l-.0898438-.2397461c.4648438-.1650391.9750977-.3598633,1.4702148-.6000977.8999023-.4199219,1.9047852-1.0351562,2.4594727-1.6499023,1.2753906,1.0800781,1.2753906,1.2299805.9150391,1.2148438l-.3598633-.0151367c-.3598633.1650391-.824707.3300781-1.3051758.4951172v2.8950195h.3901367l.6000977-.824707s.5249023.4648438.9448242.8544922l-.0449219-.1347656h3.6000977v-1.1699219h-.9453125c-.5698242.0146484-1.125.0898438-1.6796875.2099609l-.3901367-.75c.6601562.0751953,1.3198242.1049805,1.9951172.1201172h1.0200195v-1.0351562h-1.050293c-.659668.0151367-1.3046875.0898438-1.949707.2099609l-.3901367-.7797852c.6601562.074707,1.3198242.1049805,1.9951172.1196289h1.3950195c0-.4199219-.0151367-.9443359-.0751953-1.3349609,1.5.465332,1.5.6152344,1.2451172.7802734l-.2548828.1650391v.3896484h1.949707l.2700195-.4047852c.1499023-.1948242.2548828-.4047852.375-.4047852.1796875,0,1.0800781.7949219,1.0800781,1.0195312-.0449219.1650391-.1650391.2402344-.3603516.2402344h-3.3144531v1.0351562h1.6196289l.2548828-.3452148Zm-2.699707,9.6899414h-.2548828c-1.2148438.6748047-2.7749023,1.2148438-4.2148438,1.5146484l-.1801758-.2700195c.3901367-.1499023.7949219-.3149414,1.2001953-.5097656.8999023-.4204102,1.949707-1.1704102,2.5048828-1.800293l.6298828.6000977c.5698242.3149414.5698242.465332.3149414.465332Zm2.6699219-6.75c.1347656-.1650391.2250977-.3300781.3447266-.3300781.1801758,0,1.0351562.7353516,1.0351562.9599609-.0898438.1054688-.2998047.2250977-.5698242.2700195v1.574707c.0297852,1.5751953.0449219,2.1005859.1049805,3.0751953-.1201172.1650391-.5551758.4052734-.8549805.4052734h-.1499023v-.465332h-4.2900391v.3452148c0,.1044922-.375.3149414-.75.3149414-.1499023,0-.2548828-.1499023-.2548828-.300293.0600586-.6298828.0751953-.9448242.1049805-1.8896484v-1.0947266c0-1.0205078-.0600586-2.25-.1948242-3.0751953l1.1699219.5249023h4.0795898l.2250977-.3149414Zm-.0898438.7651367h-4.2900391v1.1245117h4.2900391v-1.1245117Zm0,2.6694336v-1.109375h-4.2900391v1.109375h4.2900391Zm-4.2900391,1.6352539h4.2900391v-1.1850586h-4.2900391v1.1850586Zm2.7900391.9301758c4.949707,1.0048828,3.3295898,2.8945312,2.4897461,2.0698242-.4799805-.5551758-1.3950195-1.2451172-2.5947266-1.8300781l.1049805-.2397461Z"/>
        <path class="cls-1" d="m154.0507812,33.3291016c.5551758,0,.9902344.4355469.9902344.9902344,0,.5551758-.4350586.9902344-.9902344.9902344-.5546875,0-.9897461-.4350586-.9897461-.9902344,0-.5546875.4350586-.9902344.9897461-.9902344Zm0,7.3051758c.5551758,0,.9902344.449707.9902344,1.0048828s-.4350586.9897461-.9902344.9897461c-.5546875,0-.9897461-.4345703-.9897461-.9897461s.4350586-1.0048828.9897461-1.0048828Z"/>
        <path class="cls-1" d="m166.0209961,42.6738281v.4804688h-5.9243164v-.4804688l2.3696289-.284668c.0151367-.8999023.0297852-1.784668.0297852-2.6699219v-6.1499023l-2.25.2548828v-.5400391l3.2402344-.8398438.2246094.1801758-.0595703,2.324707v4.7700195c0,.8852539.0146484,1.7700195.0297852,2.6699219l2.3398438.284668Z"/>
        <path class="cls-1" d="m174.3457031,42.0292969v1.125h-6.6142578v-.9003906c.9296875-.9599609,1.8598633-1.9648438,2.5795898-2.7294922,1.6499023-1.7851562,2.3100586-3.0151367,2.3100586-4.2753906,0-1.3496094-.7802734-2.2646484-2.0698242-2.2646484-.2851562,0-.6303711.0302734-.9902344.1347656l-.375,1.1552734c-.1796875.6450195-.4047852.9296875-.7949219.9296875-.3295898,0-.5551758-.1796875-.7197266-.4648438.2548828-1.574707,1.6499023-2.3701172,3.2094727-2.3701172,2.0253906,0,2.9702148,1.125,2.9702148,2.7753906,0,1.3798828-.7202148,2.4599609-3.1201172,4.859375-.4199219.4501953-1.1850586,1.215332-2.0097656,2.0253906h5.6245117Z"/>
        <path class="cls-1" d="m182.4008789,37.8891602c0,4.0048828-1.6201172,5.4750977-3.3149414,5.4750977-1.7099609,0-3.3447266-1.4702148-3.3447266-5.4750977,0-4.0200195,1.6347656-5.5200195,3.3447266-5.5200195,1.6948242,0,3.3149414,1.5,3.3149414,5.5200195Zm-3.3149414,4.875c1.0498047,0,2.0698242-1.0800781,2.0698242-4.875,0-3.8398438-1.0200195-4.9047852-2.0698242-4.9047852-1.0800781,0-2.0849609,1.0498047-2.0849609,4.9047852,0,3.8100586,1.0048828,4.875,2.0849609,4.875Z"/>
        <path class="cls-1" d="m184.5610352,42.359375c0-.5551758.4199219-1.0205078.9897461-1.0205078.5703125,0,.9902344.465332.9902344,1.0205078,0,.5400391-.4199219.9897461-.9902344.9897461-.5698242,0-.9897461-.449707-.9897461-.9897461Z"/>
        <path class="cls-1" d="m195.3754883,37.8891602c0,4.0048828-1.6196289,5.4750977-3.3149414,5.4750977-1.7099609,0-3.3447266-1.4702148-3.3447266-5.4750977,0-4.0200195,1.6347656-5.5200195,3.3447266-5.5200195,1.6953125,0,3.3149414,1.5,3.3149414,5.5200195Zm-3.3149414,4.875c1.0498047,0,2.0703125-1.0800781,2.0703125-4.875,0-3.8398438-1.0205078-4.9047852-2.0703125-4.9047852-1.0800781,0-2.0849609,1.0498047-2.0849609,4.9047852,0,3.8100586,1.0048828,4.875,2.0849609,4.875Z"/>
        <path class="cls-1" d="m203.4155273,40.6342773c0,1.6196289-1.3950195,2.7299805-3.2851562,2.7299805-1.9799805,0-3.2998047-.9301758-3.2998047-2.6103516,0-1.2446289.8251953-2.0546875,2.3999023-2.8349609-1.4399414-.7646484-2.0400391-1.7392578-2.0400391-2.8642578,0-1.6650391,1.3203125-2.6855469,2.9702148-2.6855469,1.6796875,0,2.7446289,1.0351562,2.7446289,2.5205078,0,.824707-.4799805,1.784668-1.9946289,2.6396484,1.7397461.8251953,2.5048828,1.6948242,2.5048828,3.1049805Zm-1.1401367.1049805c0-.9902344-.6152344-1.6796875-2.5498047-2.5800781-1.1850586.7050781-1.7700195,1.3500977-1.7700195,2.4750977,0,1.2749023.8701172,2.1450195,2.2050781,2.1450195,1.2895508,0,2.1147461-.8701172,2.1147461-2.0400391Zm-1.8598633-3.4350586c1.0649414-.7348633,1.4848633-1.409668,1.4848633-2.3847656,0-1.0649414-.6298828-1.9350586-1.7700195-1.9350586-.9897461,0-1.8598633.6748047-1.8598633,1.7700195,0,.9150391.4501953,1.7548828,2.1450195,2.5498047Z"/>
        <path class="cls-1" d="m217.875,39.6289062c0,.8251953.0146484,2.0253906.0297852,2.8798828l1.1850586.1201172v.5253906h-3.6298828v-.5253906l1.1552734-.1201172c.0146484-.8544922.0297852-2.0546875.0297852-2.8798828v-1.6943359c0-1.5449219-.6000977-2.0703125-1.4248047-2.0703125-.6450195,0-1.3500977.3447266-1.9799805,1.1103516.0297852.2246094.0449219.4794922.0449219.75v1.9042969c0,.840332.0151367,2.0102539.0302734,2.8798828l1.1547852.1201172v.5253906h-3.5698242v-.5253906l1.1396484-.1201172c.0151367-.8544922.0302734-2.0395508.0302734-2.8798828v-1.784668c0-1.4399414-.5703125-1.9799805-1.4550781-1.9799805-.6450195,0-1.3500977.3901367-1.9199219,1.1552734v2.609375c0,.8105469.0151367,2.0102539.0302734,2.8798828l1.1699219.1201172v.5253906h-3.6000977v-.5253906l1.1401367-.1201172c.0146484-.8696289.0297852-2.0693359.0297852-2.8798828v-.8544922c0-1.0498047-.0151367-1.9350586-.0600586-2.7148438l-1.199707-.0302734v-.4799805l2.2197266-.4799805.2099609.1201172.0449219,1.2451172c.7202148-1.0205078,1.5751953-1.4550781,2.4301758-1.4550781,1.0195312,0,1.7246094.4501953,2.0249023,1.4697266.8100586-1.0649414,1.6049805-1.4697266,2.4897461-1.4697266,1.4848633,0,2.25.8251953,2.25,2.8647461v1.784668Zm2.7148438-5.7143555v.6000977h-2.6850586v-.4501953l.9448242-.9599609c.5400391-.5849609.8554688-.9296875.8554688-1.4697266,0-.4501953-.2553711-.7202148-.675293-.7202148-.0898438,0-.1801758,0-.2700195.0151367l-.1049805.4047852c-.0898438.3598633-.2548828.4199219-.4199219.4199219-.1347656,0-.2397461-.0600586-.284668-.1948242.074707-.6450195.5996094-.9599609,1.2895508-.9599609.7802734,0,1.1850586.4501953,1.1850586,1.0200195,0,.5849609-.4199219,1.034668-1.1699219,1.6499023l-.7802734.6450195h2.1152344Z"/>
        <path class="cls-1" d="m221.7753906,44.4140625l-.4199219-.4199219,13.4995117-13.4995117.4199219.4199219-13.4995117,13.4995117Z"/>
        <path class="cls-1" d="m239.5205078,31.484375c.1347656-.1650391.2246094-.3300781.3447266-.3300781.1801758,0,1.0200195.840332,1.0200195,1.0654297-.1201172.1201172-.375.1948242-.675293.2246094-.4047852.9003906-1.0795898,2.3701172-1.7397461,3.7050781h1.2602539l.2397461-.2851562c.1352539-.1499023.2397461-.2998047.3598633-.2998047.1801758,0,.9902344.7050781.9902344.9296875-.1049805.1352539-.2548828.1801758-.5400391.2099609-.1801758,1.5302734-.4951172,3.0151367-1.125,4.3652344,1.3652344,1.6650391,3.375,1.9794922,6.4345703,1.9794922.9150391,0,2.9248047,0,3.9301758-.0297852v.2099609c-.3901367.074707-.6000977.375-.6303711.7651367h-3.3745117c-3.1948242,0-5.2348633-.4501953-6.6000977-2.4453125-.5996094,1.0654297-1.4394531,2.0253906-2.6699219,2.7753906l-.1347656-.2250977c1.125-.8999023,1.8447266-2.0400391,2.3549805-3.3149414-.3300781-.6298828-.6147461-1.3798828-.8701172-2.2646484-.2397461.4648438-.5698242,1.0795898-.7797852,1.4394531.0751953.1201172.0600586.2548828-.0151367.3452148l-.7045898-.7050781c.3745117-.375,1.0195312-1.034668,1.3945312-1.4848633l.1503906-.6601562.5097656.1650391-.3901367.5849609c.2402344.8251953.5400391,1.5151367.8852539,2.1000977.375-1.1699219.5698242-2.4301758.6894531-3.7202148h-1.574707c-.1499023.2705078-.2700195.5400391-.4047852.7954102-.2250977.0600586-.4951172.0449219-.8549805-.1049805.7797852-1.5898438,1.6948242-3.6298828,2.2495117-5.0097656h-.8095703c-.5102539.0146484-.9599609.0898438-1.4399414.2099609l-.3901367-.7802734c.6000977.0751953,1.2001953.1054688,1.7998047.1201172h.8701172l.2402344-.3300781Zm7.9492188.3603516c.1352539-.1650391.2250977-.3452148.3452148-.3452148.1801758,0,1.0649414.7797852,1.0649414,1.0048828-.0898438.1049805-.3300781.2250977-.6000977.2851562v1.3647461h.2250977l.2548828-.4199219c.1352539-.2099609.2402344-.4199219.3603516-.4199219.1796875,0,1.0195312.8100586,1.0195312,1.0351562-.0449219.1650391-.1650391.2397461-.3598633.2397461h-1.5v.7202148c.0302734.7197266.0302734.9599609.0751953,1.3647461-.090332.1801758-.5400391.4047852-.8549805.4047852h-.1049805v-.4794922h-2.1450195v1.5449219h2.1152344l.2695312-.4052734c.1503906-.1953125.2548828-.4052734.375-.4052734.1801758,0,1.1103516.7949219,1.1103516,1.0205078-.0302734.1650391-.1953125.2397461-.375.2397461h-3.4951172v1.574707h2.5649414l.300293-.4345703c.1645508-.2250977.2998047-.4501953.4199219-.4501953.1796875,0,1.199707.8549805,1.199707,1.0800781-.0449219.1650391-.1650391.2402344-.375.2402344h-4.1098633v.5693359c.0302734.5703125.0302734.765625.0600586,1.0654297-.0600586.2099609-.4350586.4047852-.7949219.4047852-.1948242,0-.2700195-.1499023-.2700195-.300293.0449219-.3447266.0449219-.5244141.0751953-1.0498047v-.6894531h-1.2001953c-.7797852.0146484-1.5.0898438-2.25.2099609l-.375-.765625c.6601562.0751953,1.3203125.1054688,1.9951172.1201172h1.8300781v-1.574707h-1.0048828c-.6303711.0151367-1.2451172.090332-1.8603516.2099609l-.3896484-.7797852c.659668.0751953,1.3198242.1044922,1.9946289.1201172h1.2602539v-1.5449219h-.9453125c-.5996094.0146484-1.1396484.0898438-1.7099609.2099609l-.4047852-.7651367c.659668.074707,1.3198242.1049805,1.9946289.1196289h1.0654297v-1.574707h-1.425293c-.7797852.0151367-1.4995117.090332-2.2495117.2099609l-.3901367-.7651367c.659668.0751953,1.3198242.1054688,1.9946289.1201172h2.0703125v-1.5449219h-.9453125c-.5698242.0151367-1.125.0898438-1.6796875.2099609l-.3901367-.75c.6601562.0751953,1.3198242.1054688,1.9951172.1201172h1.0200195c0-.5546875-.0302734-1.2148438-.1054688-1.6796875,1.5449219.4648438,1.5449219.6147461,1.2900391.7949219l-.2548828.1796875v.7050781h1.9951172l.2246094-.3447266Zm-2.2197266.7646484v1.5449219h2.1450195v-1.5449219h-2.1450195Zm2.1450195,3.5546875v-1.574707h-2.1450195v1.574707h2.1450195Z"/>
        <path class="cls-1" d="m256.1401367,32.984375s.7050781.6298828,1.1401367,1.0800781v.0146484c.0898438-.1943359.1796875-.4047852.2700195-.6147461.375-.9145508.659668-2.1899414.7045898-3.0297852,1.6503906.4951172,1.6503906.6450195,1.3652344.7646484l-.2851562.1201172c-.2397461.8251953-.5546875,1.5751953-.9150391,2.2651367h4.9648438l.2246094-.3300781c.1357422-.1650391.2255859-.3295898.3457031-.3295898.1796875,0,1.0644531.734375,1.0644531.9599609-.1044922.1347656-.2851562.2099609-.5996094.2548828-.1953125,4.9794922-.7197266,8.5195312-1.5151367,9.4194336-.4350586.5102539-1.0498047.7348633-1.7548828.7202148,0-.300293-.074707-.5849609-.284668-.7202148-.2250977-.1801758-.9301758-.3598633-1.5449219-.449707l.0146484-.2851562c.7050781.0898438,1.875.2099609,2.2050781.2099609s.4648438-.0600586.6748047-.2402344c.6450195-.5996094,1.0947266-4.1396484,1.3203125-8.7895508h-.9453125c-.6298828,3.9145508-2.1748047,7.2749023-5.3847656,9.5395508l-.1499023-.1948242c2.6547852-2.3999023,4.0498047-5.7299805,4.4995117-9.3447266h-1.0795898c-.7050781,2.7299805-2.1899414,5.1298828-4.3950195,6.7646484l-.1499023-.1948242c1.7998047-1.7099609,3.0297852-4.125,3.5400391-6.5698242h-1.2900391c-.6000977,1.0800781-1.3500977,1.949707-2.2050781,2.6098633l-.1948242-.1650391c.5400391-.6147461,1.0200195-1.3945312,1.4550781-2.2797852-.0751953.090332-.1801758.1352539-.3300781.1352539h-1.7851562v3.3896484c.6601562-.2402344,1.3500977-.4799805,2.0551758-.7353516l.074707.2255859c-.5849609.3144531-1.2900391.7045898-2.1298828,1.1547852v2.0097656c.0302734,1.800293.0600586,2.3999023.1201172,3.5249023-.1201172.2099609-.5097656.4350586-.8549805.4350586-.1948242,0-.3300781-.1499023-.3300781-.300293.0751953-1.109375.1049805-1.6650391.1352539-3.3447266v-1.8300781c-.4951172.2548828-1.0498047.5400391-1.6347656.840332-.0454102.1801758-.1650391.3149414-.300293.3745117l-.5551758-1.2597656c.5102539-.1201172,1.4101562-.4047852,2.4902344-.7797852v-3.7045898h-1.1401367c-.3149414.9443359-.6899414,1.8144531-1.1547852,2.4897461l-.2250977-.1352539c.2250977-.5849609.4199219-1.2900391.5849609-2.0400391.2250977-.9599609.3598633-2.3847656.2851562-3.2246094,1.5600586.2851562,1.5600586.4350586,1.3046875.5849609l-.2548828.1347656c-.1201172.5849609-.2397461,1.1699219-.4199219,1.7402344h1.0200195v-.2998047c0-1.0205078-.0600586-2.25-.1953125-3.0751953,1.6201172.4799805,1.6201172.6298828,1.3652344.8100586l-.2402344.1650391v2.3999023h.375l.6450195-.8701172Z"/>
        <path class="cls-1" d="m278.0400391,34.0341797c.1347656-.1796875.2246094-.3598633.3447266-.3598633.1796875,0,1.0498047.7651367,1.0498047.9897461-.1044922.1352539-.2695312.2255859-.5849609.2705078v5.324707c.0302734,1.7998047.0605469,2.3999023.1201172,3.5249023-.1201172.1499023-.4794922.4047852-.9296875.4047852-.1503906,0-.2099609-.1499023-.2099609-.300293.0302734-.1347656.0302734-.2099609.0595703-.4199219v-.375h-9.1796875v.300293c.0302734.284668.015625.3901367.0458984.4946289-.0458984.1650391-.3457031.390625-.8251953.390625-.1503906,0-.3154297-.1503906-.3154297-.300293.0898438-1.2900391.1347656-1.949707.1650391-3.8999023v-3.1650391c0-1.0195312-.0595703-2.25-.1953125-3.074707l1.2900391.5551758h3.2402344c.1201172-.6000977.2998047-1.5.3896484-2.2050781h-3.1943359c-.7802734.0151367-1.5.0898438-2.25.2099609l-.390625-.7797852c.6601562.074707,1.3203125.1049805,1.9951172.1196289h9.1953125l.3291016-.4648438c.1806641-.2246094.3300781-.4648438.4501953-.4648438.1806641,0,1.3056641.9150391,1.3056641,1.1396484-.0449219.1650391-.1806641.2402344-.375.2402344h-5.8046875c-.3603516.7353516-.8251953,1.5898438-1.2001953,2.2050781h5.2490234l.2255859-.3603516Zm-9.3300781.8105469v7.8144531h2.3251953v-7.8144531h-2.3251953Zm5.9101562,2.2646484v-2.2646484h-2.6845703v2.2646484h2.6845703Zm0,2.7597656v-2.3398438h-2.6845703v2.3398438h2.6845703Zm-2.6845703.4199219v2.3701172h2.6845703v-2.3701172h-2.6845703Zm5.9541016-5.4443359h-2.3701172v7.8144531h2.3701172v-7.8144531Z"/>
        <path class="cls-1" d="m293.1298828,33.0893555c.1503906-.1645508.2548828-.3452148.375-.3452148.1796875,0,1.0205078.6601562,1.0205078.8852539-.0302734.1650391-.1806641.2250977-.375.2250977h-2.8955078v1.1699219h2.1005859l.2695312-.4052734c.1503906-.2099609.2548828-.4199219.375-.4199219.1796875,0,1.0947266.7949219,1.0947266,1.0205078-.0302734.1645508-.1650391.2397461-.3603516.2397461h-7.84375c-.0751953.074707-.1953125.1049805-.3154297.1049805h-1.7246094v1.5449219c2.7451172,1.1699219,2.0400391,2.9101562,1.1845703,2.2797852-.1650391-.6147461-.7197266-1.4248047-1.1845703-1.9799805v2.9848633c.0292969,1.800293.0595703,2.3999023.1201172,3.5249023-.1201172.1650391-.4355469.3901367-.8701172.3901367-.1503906,0-.3154297-.1499023-.3154297-.300293.0898438-1.2900391.1347656-1.949707.1650391-3.8994141v-2.1450195c-.5849609,1.3500977-1.3652344,2.5649414-2.3398438,3.6000977l-.2246094-.2104492c1.125-1.6049805,1.9042969-3.6899414,2.3398438-5.7895508h-.6152344c-.3896484.0146484-.7197266.0898438-1.0800781.2099609l-.375-.7651367c.5097656.0751953,1.0205078.1049805,1.5595703.1201172h.7353516v-2.6098633c-.7197266.1948242-1.4853516.3896484-2.1894531.5097656l-.0908203-.2397461c.4658203-.1650391.9755859-.3598633,1.4707031-.6000977.8994141-.4199219,1.9042969-1.0351562,2.4599609-1.6499023,1.2744141,1.0800781,1.2744141,1.2299805.9150391,1.2148438l-.3603516-.0151367c-.3603516.1650391-.8251953.3300781-1.3046875.4951172v2.8950195h.3896484l.5996094-.824707s.5253906.4648438.9453125.8544922l-.0449219-.1347656h3.5996094v-1.1699219h-.9453125c-.5693359.0146484-1.1240234.0898438-1.6796875.2099609l-.3896484-.75c.6601562.0751953,1.3203125.1049805,1.9951172.1201172h1.0195312v-1.0351562h-1.0498047c-.6601562.0151367-1.3046875.0898438-1.9501953.2099609l-.3896484-.7797852c.6601562.074707,1.3203125.1049805,1.9951172.1196289h1.3945312c0-.4199219-.0146484-.9443359-.0751953-1.3349609,1.5.465332,1.5.6152344,1.2451172.7802734l-.2548828.1650391v.3896484h1.9501953l.2695312-.4047852c.1503906-.1948242.2548828-.4047852.375-.4047852.1806641,0,1.0800781.7949219,1.0800781,1.0195312-.0449219.1650391-.1650391.2402344-.359375.2402344h-3.3154297v1.0351562h1.6201172l.2548828-.3452148Zm-2.7001953,9.6899414h-.2548828c-1.2148438.6748047-2.7744141,1.2148438-4.2148438,1.5146484l-.1796875-.2700195c.3896484-.1499023.7949219-.3149414,1.2001953-.5097656.8994141-.4204102,1.9492188-1.1704102,2.5048828-1.800293l.6298828.6000977c.5703125.3149414.5703125.465332.3144531.465332Zm2.6699219-6.75c.1347656-.1650391.2255859-.3300781.3457031-.3300781.1796875,0,1.0341797.7353516,1.0341797.9599609-.0898438.1054688-.2998047.2250977-.5693359.2700195v1.574707c.0292969,1.5751953.0449219,2.1005859.1044922,3.0751953-.1201172.1650391-.5546875.4052734-.8544922.4052734h-.1503906v-.465332h-4.2900391v.3452148c0,.1044922-.375.3149414-.75.3149414-.1494141,0-.2548828-.1499023-.2548828-.300293.0605469-.6298828.0751953-.9448242.1054688-1.8896484v-1.0947266c0-1.0205078-.0605469-2.25-.1953125-3.0751953l1.1699219.5249023h4.0800781l.2246094-.3149414Zm-.0898438.7651367h-4.2900391v1.1245117h4.2900391v-1.1245117Zm0,2.6694336v-1.109375h-4.2900391v1.109375h4.2900391Zm-4.2900391,1.6352539h4.2900391v-1.1850586h-4.2900391v1.1850586Zm2.7900391.9301758c4.9501953,1.0048828,3.3300781,2.8945312,2.4902344,2.0698242-.4804688-.5551758-1.3945312-1.2451172-2.5947266-1.8300781l.1044922-.2397461Z"/>
        <path class="cls-1" d="m302.1152344,33.3291016c.5546875,0,.9902344.4355469.9902344.9902344,0,.5551758-.4355469.9902344-.9902344.9902344s-.9902344-.4350586-.9902344-.9902344c0-.5546875.4355469-.9902344.9902344-.9902344Zm0,7.3051758c.5546875,0,.9902344.449707.9902344,1.0048828s-.4355469.9897461-.9902344.9897461-.9902344-.4345703-.9902344-.9897461.4355469-1.0048828.9902344-1.0048828Z"/>
        <path class="cls-1" d="m308.4902344,42.9741211c2.9404297-.9897461,4.3349609-2.625,4.6796875-4.949707-.5849609.5996094-1.3496094.8999023-2.25.8999023-1.7695312,0-3.1640625-1.2299805-3.1494141-3.2250977,0-1.9794922,1.3945312-3.3300781,3.375-3.3300781,2.0400391,0,3.3291016,1.6352539,3.3291016,4.2602539,0,3.0898438-1.7539062,5.7895508-5.8642578,6.824707l-.1201172-.4799805Zm4.7402344-5.6245117c.0146484-.1650391.0146484-.3300781.0146484-.5102539,0-2.625-.8994141-3.8549805-2.1601562-3.8549805-1.1396484,0-2.1142578.8847656-2.1142578,2.5947266,0,1.7402344,1.0048828,2.5654297,2.3242188,2.5654297.765625,0,1.3808594-.2553711,1.9355469-.7949219Z"/>
        <path class="cls-1" d="m322.7099609,42.0292969v1.125h-6.6142578v-.9003906c.9296875-.9599609,1.859375-1.9648438,2.5791016-2.7294922,1.6503906-1.7851562,2.3105469-3.0151367,2.3105469-4.2753906,0-1.3496094-.7802734-2.2646484-2.0703125-2.2646484-.2851562,0-.6298828.0302734-.9902344.1347656l-.375,1.1552734c-.1796875.6450195-.4042969.9296875-.7949219.9296875-.3291016,0-.5546875-.1796875-.7197266-.4648438.2548828-1.574707,1.6503906-2.3701172,3.2099609-2.3701172,2.0244141,0,2.9697266,1.125,2.9697266,2.7753906,0,1.3798828-.7197266,2.4599609-3.1201172,4.859375-.4199219.4501953-1.1845703,1.215332-2.0097656,2.0253906h5.625Z"/>
        <path class="cls-1" d="m326.3398437,42.359375c0-.5551758.4199219-1.0205078.9902344-1.0205078s.9902344.465332.9902344,1.0205078c0,.5400391-.4199219.9897461-.9902344.9897461s-.9902344-.449707-.9902344-.9897461Z"/>
        <path class="cls-1" d="m335.9248047,32.5947266v.6894531l-3.8994141,9.8701172h-1.0957031l-.1494141-.1503906,4.2900391-9.2841797h-5.7001953v-1.125h6.5546875Z"/>
        <path class="cls-1" d="m344.5048828,39.8544922h-1.7705078v3.2998047h-1.125v-3.2998047h-4.5146484v-.6904297l4.8603516-6.7045898h.7792969v6.5546875h1.7705078v.840332Zm-2.8955078-.840332v-5.1450195l-3.7041016,5.1450195h3.7041016Z"/>
        <path class="cls-1" d="m358.4541016,39.6289062c0,.8251953.0146484,2.0253906.0302734,2.8798828l1.1845703.1201172v.5253906h-3.6298828v-.5253906l1.1552734-.1201172c.0146484-.8544922.0302734-2.0546875.0302734-2.8798828v-1.6943359c0-1.5449219-.6005859-2.0703125-1.4248047-2.0703125-.6455078,0-1.3505859.3447266-1.9804688,1.1103516.0302734.2246094.0449219.4794922.0449219.75v1.9042969c0,.840332.015625,2.0102539.0302734,2.8798828l1.1552734.1201172v.5253906h-3.5703125v-.5253906l1.1396484-.1201172c.015625-.8544922.0302734-2.0395508.0302734-2.8798828v-1.784668c0-1.4399414-.5693359-1.9799805-1.4550781-1.9799805-.6445312,0-1.3496094.3901367-1.9199219,1.1552734v2.609375c0,.8105469.015625,2.0102539.0302734,2.8798828l1.1699219.1201172v.5253906h-3.5996094v-.5253906l1.1396484-.1201172c.0146484-.8696289.0302734-2.0693359.0302734-2.8798828v-.8544922c0-1.0498047-.015625-1.9350586-.0605469-2.7148438l-1.1992188-.0302734v-.4799805l2.2197266-.4799805.2099609.1201172.0449219,1.2451172c.7197266-1.0205078,1.5751953-1.4550781,2.4296875-1.4550781,1.0195312,0,1.7246094.4501953,2.0253906,1.4697266.8095703-1.0649414,1.6044922-1.4697266,2.4892578-1.4697266,1.4853516,0,2.25.8251953,2.25,2.8647461v1.784668Zm2.7148438-5.7143555v.6000977h-2.6845703v-.4501953l.9453125-.9599609c.5390625-.5849609.8544922-.9296875.8544922-1.4697266,0-.4501953-.2548828-.7202148-.6748047-.7202148-.0898438,0-.1796875,0-.2705078.0151367l-.1044922.4047852c-.0898438.3598633-.2548828.4199219-.4199219.4199219-.1347656,0-.2402344-.0600586-.2851562-.1948242.0751953-.6450195.5996094-.9599609,1.2900391-.9599609.7802734,0,1.1845703.4501953,1.1845703,1.0200195,0,.5849609-.4199219,1.034668-1.1699219,1.6499023l-.7792969.6450195h2.1142578Z"/>
      </g>
      <g>
        <path class="cls-1" d="m133.4008789,4.0722656l-.3955078-.2158203c.503418-1.2216797,1.1020508-2.0820312,1.796875-2.5810547.6943359-.4985352,1.5048828-.7480469,2.4306641-.7480469.8623047,0,1.5527344.1914062,2.0722656.574707.7744141.574707,1.1616211,1.2211914,1.1616211,1.9399414,0,.5830078-.1977539,1.1699219-.5927734,1.7607422s-1.0883789,1.253418-2.0776367,1.987793l.2871094-.012207c.6230469,0,1.2236328.1582031,1.8027344.4736328.578125.3154297,1.0356445.8061523,1.3710938,1.4726562.3349609.6669922.5029297,1.3833008.5029297,2.1494141,0,1.5410156-.5649414,2.8608398-1.6948242,3.9584961-1.1293945,1.0976562-2.5688477,1.6464844-4.3168945,1.6464844-1.3256836,0-2.3037109-.1914062-2.9345703-.574707-.3432617-.1992188-.5146484-.4511719-.5146484-.7543945,0-.1674805.0693359-.3193359.2094727-.4550781.1391602-.1357422.3129883-.2036133.5209961-.2036133.2636719,0,.5825195.1435547.9580078.4311523.8862305.6782227,1.65625,1.0180664,2.3115234,1.0180664.9897461,0,1.8681641-.4169922,2.6347656-1.2519531.7661133-.8339844,1.1494141-1.8857422,1.1494141-3.1552734,0-1.0537109-.2578125-1.9179688-.7724609-2.5927734s-1.1679688-1.012207-1.9580078-1.012207c-.5908203,0-1.2055664.2797852-1.8442383.8383789l-.2875977-.4790039c.3994141-.3432617.7587891-.6347656,1.078125-.8745117.9736328-.7099609,1.7001953-1.4086914,2.1796875-2.0957031.3427734-.4951172.5146484-.9296875.5146484-1.3051758,0-.6303711-.2236328-1.1635742-.6708984-1.5991211-.4472656-.4345703-1.0336914-.6523438-1.7602539-.6523438-1.1977539,0-2.2514648.7705078-3.1616211,2.3115234Z"/>
        <path class="cls-1" d="m148.8681641,16.2158203c.0078125-.1201172.0395508-.2275391.0957031-.3232422.6225586-.1679688,1.2294922-.2797852,1.8203125-.3359375.3911133-.0317383.6425781-.1201172.7543945-.2636719.0800781-.1035156.1279297-.4873047.1435547-1.1503906l.0839844-3.1640625-.0117188-2.1455078.0117188-2.8046875v-.7431641c.0078125-1.6865234,0-2.7368164-.0239258-3.1523438-.0083008-.0800781-.0400391-.1918945-.0961914-.3359375-.2089844-.0957031-.3833008-.1591797-.5234375-.1914062-.140625-.0322266-.7685547-.1479492-1.8833008-.3476562-.0083008-.0878906-.012207-.1513672-.012207-.1914062,0-.0483398.0039062-.1123047.012207-.1918945.1518555,0,.3999023.0092773.7436523.0273438l1.8232422.0683594,1.0556641.0239258.3120117-.0117188c.0400391,0,.1557617.0078125.3481445.0234375.4716797,0,.7431641-.0039062.8154297-.0117188l.9599609-.0717773c.6474609,0,1.1035156.012207,1.3671875.0356445-.0083008.144043-.0361328.2998047-.0839844.4672852-.0878906.0161133-.5029297.0380859-1.2456055.065918-.7426758.0283203-1.1694336.0742188-1.28125.1376953-.184082.1040039-.2753906.4233398-.2753906.9580078,0,.1279297-.0083008.3876953-.0239258.7783203v.71875l.0117188,2.2158203v.7539062l.0244141,3.9643555-.0361328,3.3774414.0117188.7421875c0,.2397461.0400391.3876953.1201172.4433594.1992188.0078125.7861328.015625,1.7602539.0239258h.8144531l2.0717773-.0717773c.5429688-.0161133.9296875-.0703125,1.1616211-.1621094.2314453-.0917969.6186523-.3608398,1.1616211-.8081055.3271484-.2875977.5830078-.5825195.7666016-.8862305.0400391-.0634766.1074219-.159668.203125-.2871094.1518555-.2080078.3554688-.6230469.6113281-1.2460938h.3950195c-.0478516.2875977-.1000977.5595703-.1557617.8144531-.2314453,1.1259766-.3911133,2.0644531-.4790039,2.8144531-.0161133.1601562-.0317383.3076172-.0478516.4433594l-4.4790039-.1318359c-3.8486328,0-6.1318359.0361328-6.8505859.1074219-.2236328.0161133-.4589844.0244141-.7060547.0244141h-1.2456055Z"/>
        <path class="cls-1" d="m166.0146484,15.9160156c.2954102-.1274414.6386719-.2109375,1.0297852-.2509766.5668945-.0644531.9902344-.2001953,1.2695312-.4077148.2158203-.4394531.3232422-1.5581055.3232422-3.355957v-1.894043l.0244141-1.1381836-.0244141-.8393555.0244141-1.5463867-.0361328-3.8950195c0-.4394531-.0639648-.7270508-.1914062-.862793-.184082-.2001953-.6708984-.3837891-1.4609375-.5517578-.328125-.0717773-.5273438-.1376953-.5991211-.1972656-.0717773-.0605469-.1157227-.1738281-.1318359-.3417969.1835938-.0400391.3115234-.0595703.3833008-.0595703h.8505859l.4428711-.012207c.2954102,0,.6225586.0317383.9819336.0961914.734375.0478516,1.4892578.0712891,2.2636719.0712891.2231445,0,.5429688-.0117188.9580078-.0356445,1.1015625-.0639648,1.8920898-.0957031,2.3710938-.0957031.9658203,0,1.8779297.0957031,2.7363281.2875977.8583984.1914062,1.7426758.546875,2.652832,1.0654297.5668945.3276367,1.1479492.8447266,1.7426758,1.5507812.5947266.7070312,1.0458984,1.4775391,1.3535156,2.3115234.3066406.8344727.4609375,1.7744141.4609375,2.8203125,0,.9345703-.1699219,1.8603516-.5092773,2.7783203-.3393555.918457-.8125,1.7148438-1.4189453,2.3896484-.6069336.6748047-1.2216797,1.1816406-1.8442383,1.5205078-.6230469.3398438-1.5732422.6328125-2.8505859.8803711-.5268555.0961914-1.4726562.144043-2.8378906.144043-.9023438,0-1.6367188-.0283203-2.2041016-.0839844-.2236328-.0322266-.4628906-.0478516-.7182617-.0478516-.0400391,0-.0839844.0039062-.1318359.0117188l-4.8862305.0957031-.0239258-.0957031c-.0161133-.0400391-.0239258-.0839844-.0239258-.1318359l.0239258-.1796875Zm6.0961914-.4785156c.6064453.2075195,1.2211914.3110352,1.84375.3110352.8066406,0,1.5966797-.1254883,2.3710938-.3774414.7744141-.2509766,1.4589844-.6064453,2.0541992-1.0654297.5947266-.4589844,1.0834961-.9780273,1.4672852-1.5571289.3828125-.5786133.6542969-1.0996094.8144531-1.5629883.2231445-.6782227.3349609-1.5605469.3349609-2.6464844,0-1.0380859-.2197266-2.0917969-.6586914-3.1616211-.3032227-.7426758-.8364258-1.453125-1.5986328-2.1318359-.7626953-.6782227-1.6625977-1.175293-2.7006836-1.4907227s-2.159668-.4731445-3.3652344-.4731445c-.8305664,0-1.4453125.0917969-1.8442383.2753906-.0478516.0478516-.0961914.1040039-.144043.1674805-.0478516.199707-.0712891.3833008-.0712891.5507812,0,.1040039.0039062.2275391.0117188.371582.0239258.9262695.0361328,1.668457.0361328,2.2275391l-.012207,2.7182617c0,3.9921875.0737305,6.2138672.2211914,6.6650391.1479492.4511719.5615234.84375,1.2402344,1.1796875Z"/>
        <path class="cls-1" d="m188.2749023,15.9882812c.0400391-.0800781.1000977-.1240234.1796875-.1318359.8066406-.0722656,1.4414062-.2158203,1.9042969-.4311523.159668-.144043.2392578-.3833008.2392578-.7182617l-.0117188-1.1738281v-2.2275391l.0244141-.9702148-.0722656-3.3295898.0239258-2.2392578c0-1.2617188-.0239258-2.1035156-.0717773-2.5268555-.0161133-.159668-.0678711-.3237305-.1557617-.4907227-.1435547-.0878906-.2631836-.1396484-.3588867-.15625-.34375-.0556641-.7871094-.0996094-1.3295898-.1318359-.1118164-.0791016-.1674805-.175293-.1674805-.2871094,0-.0400391.015625-.0996094.046875-.1796875.4404297-.0239258,1.2192383-.0361328,2.3364258-.0361328.519043,0,.9282227-.0039062,1.2270508-.0117188.4272461-.0239258.9443359-.0595703,1.5507812-.1074219.2636719.0234375.5751953.0356445.9345703.0356445.0878906.0478516.1318359.1040039.1318359.1674805,0,.0478516-.0083008.1000977-.0244141.1557617-.0957031.0478516-.2753906.0878906-.5390625.1196289-.6943359.0722656-1.1655273.2236328-1.4130859.4550781-.1674805.1601562-.2509766.4633789-.2509766.9101562l.0117188.2275391v7.6049805l.0839844,3.0776367c.0078125.9746094.0317383,1.5112305.0717773,1.6108398.0395508.1000977.1035156.1777344.1914062.2338867.2797852.1674805.706543.2792969,1.2817383.3349609.1435547.0161133.2832031.0439453.4189453.0839844.0478516.1035156.0717773.1914062.0717773.2636719,0,.0791016-.0478516.1552734-.1435547.2275391l-.3833008.0117188c-.159668,0-.5429688-.0283203-1.1494141-.0839844-.6074219-.0556641-1.0585938-.0839844-1.3535156-.0839844-.2475586,0-.5908203.0283203-1.0302734.0839844-.4389648.0556641-1.0375977.0839844-1.7958984.0839844-.1123047,0-.2636719-.0039062-.4550781-.0117188l-.0244141-.359375Zm4.6230469-7.5273438c.0957031-.0874023.2553711-.1992188.4790039-.3349609.4467773-.2709961,1.2172852-.8134766,2.3110352-1.6269531l3.2817383-2.6806641c.9018555-.75,1.5366211-1.340332,1.9038086-1.7709961.0722656-.0957031.1279297-.1953125.1679688-.2993164-.1435547-.1035156-.3076172-.1787109-.4912109-.2265625-.1835938-.0483398-.4746094-.0839844-.8740234-.1083984-.3994141-.0234375-.6367188-.0615234-.7128906-.1132812-.0756836-.0517578-.1132812-.1181641-.1132812-.1977539,0-.0878906.027832-.1557617.0839844-.2036133.1035156-.0717773.2509766-.1079102.4428711-.1079102.3032227,0,.5668945.0219727.7905273.065918.2231445.0439453.7304688.065918,1.5205078.065918.1918945,0,.331543-.0039062.4194336-.012207l1.8681641-.0957031c.1918945-.015625.3393555-.0239258.4428711-.0239258.0961914,0,.2397461.0083008.4316406.0234375,0,.1870117-.0166016.3388672-.0478516.4555664-.8623047.1044922-1.4970703.2363281-1.9042969.3964844-.2314453.0957031-.703125.3603516-1.4130859.7919922-.5351562.328125-1.0224609.6806641-1.4609375,1.0566406l-3.0893555,2.5996094-1.8676758,1.5087891c.0317383.0556641.0795898.1123047.1435547.1679688.0478516.0400391.1679688.1513672.359375.3349609.8378906.7822266,1.9697266,1.7421875,3.3945312,2.8798828,1.4248047,1.1367188,2.5400391,2.0888672,3.3466797,2.8549805,1.1816406,1.1240234,2.2949219,1.7451172,3.3413086,1.8637695.2553711.0322266.4389648.1040039.5507812.2158203l.012207.1318359-.0244141.1669922c-.2714844.0166016-.4550781.0244141-.5507812.0244141-.3671875,0-.921875-.0258789-1.6645508-.0771484-.4389648-.0283203-.8022461-.0429688-1.0898438-.0429688-1.1499023,0-2.4633789.0478516-3.9399414.144043-.0239258-.1088867-.0361328-.190918-.0361328-.2456055l.012207-.0932617c.1035156-.0932617.3110352-.1806641.6225586-.2617188.4311523-.1132812.8862305-.1782227,1.3652344-.1943359.1035156,0,.2158203-.0083008.3354492-.0239258-.0795898-.1298828-.2114258-.2792969-.3950195-.449707-.0322266-.0317383-.1396484-.1376953-.3232422-.3168945-.184082-.1796875-.5073242-.4726562-.9702148-.8798828l-1.425293-1.1367188-2.1914062-1.8427734c-.7265625-.6220703-1.7407227-1.4160156-3.0419922-2.3818359Z"/>
        <path class="cls-1" d="m227.4785156,14.5151367c.0478516.1040039.0717773.1796875.0717773.2275391,0,.1196289-.0957031.331543-.2871094.6347656-.2480469.3989258-.5234375.690918-.8266602.8740234-.1918945.1196289-.4550781.1796875-.7905273.1796875-.574707,0-1.0058594-.175293-1.2929688-.5268555-.1757812-.2075195-.2998047-.5791016-.371582-1.1137695l-1.3413086.934082c-.4711914.2714844-.8305664.4433594-1.078125.5146484-.3994141.1040039-.8779297.15625-1.4365234.15625-.4072266,0-.7290039-.1220703-.9643555-.3652344-.2358398-.2436523-.3530273-.5571289-.3530273-.9404297,0-.5507812.3378906-1.2094727,1.0136719-1.9760742.6767578-.7661133,1.5947266-1.3930664,2.7548828-1.8803711.8164062-.3427734,1.3164062-.5625,1.5004883-.6582031.0161133-.2636719.0239258-.5507812.0239258-.8623047,0-1.0136719-.1420898-1.7006836-.4262695-2.0600586-.284668-.359375-.690918-.5385742-1.2192383-.5385742-.5527344,0-1.0693359.215332-1.5498047.6464844-.296875.2714844-.5205078.7822266-.6728516,1.5327148-.0478516.2075195-.1396484.4311523-.2753906.6704102-.34375.2236328-.6191406.3359375-.8261719.3359375-.1757812,0-.3354492-.0517578-.4794922-.15625-.0795898-.0556641-.1191406-.1191406-.1191406-.1914062,0-.2075195.2211914-.6767578.6640625-1.4072266.4433594-.7304688,1.0019531-1.2773438,1.6767578-1.640625s1.2636719-.5449219,1.7666016-.5449219c.6865234,0,1.1972656.0620117,1.5332031.1855469.3349609.1240234.6303711.3417969.8857422.652832.2558594.3110352.4111328.6508789.4672852,1.0180664.0317383.1757812.0478516.8022461.0478516,1.8798828l-.0356445,1.9042969.0117188,1.3896484c0,.1835938-.0039062.3388672-.0117188.4667969-.0083008.2314453-.012207.4033203-.012207.5146484,0,.2636719.0756836.4755859.2275391.6347656.1518555.1601562.3310547.2397461.5385742.2397461.3037109,0,.5634766-.1518555.7788086-.4550781l.1435547-.1918945c.0400391-.0234375.1274414-.0517578.2636719-.0834961Zm-3.5092773-.347168c.0556641-1.0141602.0839844-1.7285156.0839844-2.1435547,0-.2158203-.0117188-.5073242-.0361328-.8745117-.5366211.1918945-1.1054688.4829102-1.7060547.8745117-.6005859.390625-1.0776367.8417969-1.4301758,1.3530273-.2563477.3671875-.3842773.7143555-.3842773,1.0415039,0,.3115234.105957.5712891.3183594.7788086.2119141.2075195.4785156.3110352.7988281.3110352.2485352,0,.5488281-.0874023.9013672-.2631836.4648438-.2314453.9492188-.5908203,1.4541016-1.0776367Z"/>
        <path class="cls-1" d="m231.1044922,15.7485352c.199707-.0556641.4311523-.1035156.6948242-.1430664.5029297-.0717773.8037109-.1552734.9042969-.2509766.0996094-.0952148.1494141-.3139648.1494141-.65625l.0239258-.4296875c.0078125-.1591797.012207-.3623047.012207-.6088867l-.0244141-3.6645508c0-.4931641-.0634766-.8115234-.1914062-.9545898-.2158203-.2226562-.6152344-.3779297-1.1972656-.465332v-.4375c.5820312-.1601562,1.0292969-.3681641,1.3408203-.6245117.4550781-.3598633.8383789-.8486328,1.1499023-1.465332l.4072266.012207c.0239258.3764648.0356445.6450195.0356445.8051758v.7929688l.012207.2163086c.0957031-.0639648.2075195-.144043.3354492-.2407227.4785156-.3603516.9697266-.6547852,1.4726562-.8828125.5029297-.2285156.9501953-.3867188,1.3417969-.4750977.2470703-.0639648.5263672-.0961914.8378906-.0961914.6547852,0,1.2177734.1757812,1.6884766.527832.4711914.3520508.7763672.7651367.9165039,1.2407227.1396484.4755859.2094727,1.4213867.2094727,2.8359375v1.8105469c0,.0478516-.0058594.2080078-.0175781.4799805-.012207.2719727-.0185547.5834961-.0185547.9350586,0,.5595703.0244141.9155273.0722656,1.0673828.0400391.1040039.1435547.2080078.3115234.3115234.7661133.1044922,1.2128906.2285156,1.3408203.3720703v.0957031c0,.0800781-.0234375.1796875-.0717773.2993164h-.2275391l-1.5805664-.0239258-1.5571289.0361328c-.574707.015625-1.105957.0117188-1.5927734-.012207l-.0717773-.2514648c0-.0478516.027832-.1118164.0839844-.1914062.215332-.0957031.5185547-.1601562.9101562-.1923828.2314453-.015625.390625-.0400391.4790039-.0717773.0874023-.0317383.1958008-.0957031.3232422-.1918945.0957031-.1918945.144043-.3515625.144043-.4794922,0-.0561523-.0083008-.1679688-.0244141-.3359375-.0239258-.3676758-.0400391-1.2832031-.0478516-2.746582v-.6235352l.0239258-.9594727c0-1.0317383-.2075195-1.7426758-.6225586-2.1347656s-.9702148-.5874023-1.6650391-.5874023c-.534668,0-1.0576172.1176758-1.5683594.3530273-.5112305.2358398-1.0058594.5888672-1.4853516,1.0600586-.015625.3828125-.0239258.7104492-.0239258.9819336l.0361328,2.6464844c0,1.3813477.0200195,2.2275391.0600586,2.5390625.015625.1274414.043457.215332.0834961.2631836.0639648.0644531.1918945.1162109.3833008.15625s.4130859.0957031.6645508.1669922c.2514648.0722656.4174805.1162109.4970703.1318359.159668.0400391.2670898.1201172.3237305.2397461l-.012207.2397461h-1.2573242l-2.5869141-.0361328c-.5986328.0078125-.9785156.0117188-1.1376953.0117188h-.2998047l-.0234375-.1552734c0-.0556641.0117188-.1357422.0356445-.2397461Z"/>
        <path class="cls-1" d="m254.8500977,7.4492188l.0117188-.347168-.0117188-1.4013672.0117188-2.6464844c0-.7348633-.0800781-1.2016602-.2392578-1.4013672-.1601562-.199707-.6269531-.402832-1.4013672-.6108398-.0556641-.015625-.1435547-.0400391-.2636719-.0717773v-.1313477c0-.0800781.0078125-.1679688.0244141-.2636719,1.0854492-.1118164,2.0195312-.2998047,2.8017578-.5629883l.6113281-.012207c.03125.5429688.0478516,1.1499023.0478516,1.8203125l-.0478516,4.6113281.0834961,5.1972656-.0356445,2.7666016c0,.5668945.0395508.8857422.1196289.9580078.159668.159668.5107422.2431641,1.0537109.2514648.1118164,0,.2636719.0083008.4550781.0239258v.2158203c0,.0556641-.0039062.1152344-.012207.1791992-.2470703.0561523-.5029297.1079102-.7661133.1557617l-1.7368164.3354492c-.2553711.0478516-.4589844.0717773-.6103516.0717773v-1.1494141c-.1357422.0400391-.3476562.1191406-.6347656.2392578-1.2456055.5268555-2.3916016.7900391-3.4375.7900391-.6303711,0-1.2734375-.2050781-1.9277344-.6162109-.6547852-.4111328-1.1577148-.984375-1.5087891-1.71875-.3515625-.734375-.5273438-1.4853516-.5273438-2.2514648,0-.6865234.1157227-1.3432617.3476562-1.9702148.2314453-.6264648.534668-1.1474609.9101562-1.5625.2392578-.2714844.5786133-.5410156,1.0175781-.8085938.4394531-.2675781.8027344-.4370117,1.0898438-.5087891.7109375-.1835938,1.1855469-.2753906,1.425293-.2753906,1.0776367,0,1.9643555.159668,2.6586914.4785156.2158203.1044922.3789062.1757812.4912109.2158203Zm.0117188,7.4013672c.0322266-.5351562.0478516-1.6367188.0478516-3.3056641,0-1.4130859-.0654297-2.3051758-.1967773-2.6767578-.1313477-.3710938-.4594727-.722168-.984375-1.0537109-.5249023-.3310547-1.1137695-.4970703-1.7651367-.4970703-.9150391,0-1.6904297.3554688-2.3271484,1.065918-.6357422.7104492-.9541016,1.7602539-.9541016,3.1499023,0,1.2216797.34375,2.1953125,1.0322266,2.921875.6875.7265625,1.5449219,1.0898438,2.5708008,1.0898438.5883789,0,1.1254883-.0795898,1.6108398-.2392578.4848633-.1601562.8066406-.3115234.9658203-.4550781Z"/>
        <path class="cls-1" d="m279.909668,1.3652344c.0644531.5273438.0957031.8310547.0957031.9101562l-.0478516,1.0664062c-.015625.4550781-.0361328.7460938-.0595703.8740234-.0722656.0322266-.1318359.0478516-.1796875.0478516l-.1074219-.0239258c-.2558594-1.1176758-.6894531-1.9321289-1.2998047-2.4428711-.6103516-.5112305-1.3554688-.7666016-2.2333984-.7666016-.9101562,0-1.6572266.2553711-2.2402344.7666016-.5820312.5107422-.8730469,1.1054688-.8730469,1.7841797,0,.519043.203125.9941406.6103516,1.4248047.4072266.4316406,1.4492188,1.0766602,3.1259766,1.9355469,1.2773438.6601562,2.1914062,1.2001953,2.7421875,1.6196289s.9658203.9052734,1.2451172,1.456543c.2792969.5517578.4189453,1.1669922.4189453,1.8461914,0,.8549805-.2207031,1.6586914-.6640625,2.409668s-1.0400391,1.3164062-1.7910156,1.6962891c-.75.3793945-1.7441406.5693359-2.9814453.5693359-1.078125,0-2.1123047-.171875-3.1015625-.5151367-.5830078-.2075195-.9384766-.375-1.0664062-.5029297-.1279297-.1274414-.1914062-.2631836-.1914062-.4072266,0-.0874023.0078125-.199707.0244141-.3354492.1113281-.9414062.1708984-1.7163086.1796875-2.3232422.015625-.375.0429688-.5947266.0830078-.6582031.0322266-.0561523.0917969-.0839844.1796875-.0839844.0722656,0,.1298828.0258789.1738281.0776367.0439453.0522461.0732422.1499023.0898438.293457.0878906.9819336.5429688,1.8603516,1.3652344,2.6347656.8144531.7744141,1.7363281,1.1616211,2.7666016,1.1616211.6308594,0,1.2109375-.1318359,1.7421875-.3950195.53125-.2636719.9462891-.6445312,1.2460938-1.144043.2988281-.4985352.4492188-.9838867.4492188-1.4550781,0-.6464844-.2285156-1.2373047-.6835938-1.7719727-.4550781-.5351562-1.3691406-1.1601562-2.7421875-1.8745117s-2.2675781-1.2358398-2.6826172-1.5629883c-.6708984-.534668-1.1728516-1.1015625-1.5087891-1.7001953-.2480469-.4633789-.3710938-1.0019531-.3710938-1.6171875,0-1.109375.4394531-2.0498047,1.3173828-2.8203125s2.0556641-1.1552734,3.5322266-1.1552734c.8144531,0,1.5175781.0917969,2.1083984.2753906.4306641.1435547.8740234.3789062,1.3291016.7060547Z"/>
        <path class="cls-1" d="m299.2719727,1.4853516c.0957031.6147461.1435547,1.2451172.1435547,1.8920898,0,.1274414-.0039062.2993164-.0117188.5151367-.1123047.0234375-.1962891.0356445-.2519531.0356445-.0478516,0-.1152344-.0078125-.203125-.0239258-.3359375-.934082-.8828125-1.6523438-1.640625-2.1552734-.7587891-.503418-1.6972656-.7548828-2.8144531-.7548828-.5908203,0-1.0898438.0683594-1.4970703.2036133-.71875.2475586-1.3496094.5888672-1.8925781,1.0239258-.5429688.4355469-1.0019531.9541016-1.3769531,1.5566406-.3759766.6035156-.6728516,1.3339844-.8925781,2.1918945-.2197266.8583984-.3291016,1.7348633-.3291016,2.628418,0,1.7089844.2597656,3.1201172.7783203,4.2338867s1.2294922,1.9082031,2.1318359,2.3833008c.9023438.4746094,1.8125.7124023,2.7304688.7124023l.5625-.012207c.6386719-.0795898,1.0742188-.1552734,1.3056641-.2275391.5830078-.1674805,1.0634766-.3652344,1.4433594-.5927734.3789062-.2275391.75-.5488281,1.1142578-.9638672.3623047-.4150391.671875-.8984375.9277344-1.4492188l.1435547-.0478516c.0400391,0,.0996094.0239258.1796875.0722656-.0078125.1914062-.0166016.3154297-.0244141.3710938-.3349609,1.3491211-.578125,2.2714844-.7304688,2.7666016-.1269531.0317383-.2871094.0795898-.4785156.1435547-.9345703.3193359-2.1835938.4785156-3.7480469.4785156-1.2617188,0-2.2060547-.0854492-2.8330078-.2568359-.6269531-.171875-1.3095703-.4394531-2.0478516-.8027344s-1.3867188-.8442383-1.9462891-1.4433594c-.5585938-.5986328-1.0097656-1.3544922-1.3525391-2.269043-.34375-.9145508-.515625-1.9101562-.515625-2.987793,0-1.0224609.1357422-1.9140625.4072266-2.6767578s.6904297-1.5351562,1.2578125-2.3173828c.5664062-.7822266,1.2353516-1.4331055,2.0058594-1.9521484s1.6269531-.8862305,2.5693359-1.1015625c.6621094-.144043,1.5996094-.2158203,2.8134766-.2158203.8867188,0,1.7207031.1181641,2.5029297.3535156.7832031.2353516,1.3056641.4648438,1.5693359.6884766Z"/>
        <path class="cls-1" d="m303.7358398,16.2158203c.0078125-.1201172.0400391-.2275391.0957031-.3232422.6230469-.1679688,1.2304688-.2797852,1.8203125-.3359375.3916016-.0317383.6425781-.1201172.7548828-.2636719.0800781-.1035156.1279297-.4873047.1435547-1.1503906l.0839844-3.1640625-.0117188-2.1455078.0117188-2.8046875v-.7431641c.0078125-1.6865234,0-2.7368164-.0234375-3.1523438-.0087891-.0800781-.0410156-.1918945-.0966797-.3359375-.2089844-.0957031-.3837891-.1591797-.5234375-.1914062-.140625-.0322266-.7685547-.1479492-1.8837891-.3476562-.0078125-.0878906-.0117188-.1513672-.0117188-.1914062,0-.0483398.0039062-.1123047.0117188-.1918945.1523438,0,.4003906.0092773.7441406.0273438l1.8232422.0683594,1.0556641.0239258.3125-.0117188c.0390625,0,.1552734.0078125.3476562.0234375.4716797,0,.7431641-.0039062.8154297-.0117188l.9599609-.0717773c.6474609,0,1.1035156.012207,1.3671875.0356445-.0078125.144043-.0361328.2998047-.0839844.4672852-.0878906.0161133-.5029297.0380859-1.2460938.065918-.7421875.0283203-1.1689453.0742188-1.28125.1376953-.1835938.1040039-.2753906.4233398-.2753906.9580078,0,.1279297-.0078125.3876953-.0234375.7783203v.71875l.0117188,2.2158203v.7539062l.0244141,3.9643555-.0361328,3.3774414.0117188.7421875c0,.2397461.0400391.3876953.1201172.4433594.1992188.0078125.7861328.015625,1.7607422.0239258h.8144531l2.0712891-.0717773c.5429688-.0161133.9296875-.0703125,1.1611328-.1621094.2324219-.0917969.6191406-.3608398,1.1621094-.8081055.3271484-.2875977.5830078-.5825195.7666016-.8862305.0400391-.0634766.1074219-.159668.203125-.2871094.1513672-.2080078.3554688-.6230469.6113281-1.2460938h.3955078c-.0488281.2875977-.1005859.5595703-.15625.8144531-.2314453,1.1259766-.390625,2.0644531-.4785156,2.8144531-.0166016.1601562-.0322266.3076172-.0488281.4433594l-4.4785156-.1318359c-3.8486328,0-6.1318359.0361328-6.8505859.1074219-.2236328.0161133-.4589844.0244141-.7060547.0244141h-1.2460938Z"/>
      </g>
    </g>
  </g>
</svg>