<?xml version="1.0" encoding="UTF-8"?>
<svg id="_レイヤー_2" data-name="レイヤー 2" xmlns="http://www.w3.org/2000/svg" viewBox="0 0 450 45.5">
  <defs>
    <style>
      .cls-1, .cls-2 {
        stroke-width: 0px;
      }

      .cls-2 {
        opacity: 0;
      }
    </style>
  </defs>
  <g id="_レイヤー_1-2" data-name="レイヤー 1">
    <g>
      <g>
        <path class="cls-1" d="m98.7006836,35.3393555c.1806641-.2397461.3154297-.4799805.4355469-.4799805.1796875,0,1.3046875.9296875,1.3046875,1.1552734-.0302734.1650391-.1796875.2397461-.3896484.2397461h-4.9199219v6.8847656h4.0195312l.3447266-.4799805c.1806641-.2402344.3300781-.4951172.4501953-.4951172.1796875,0,1.3203125.9453125,1.3203125,1.1699219-.0449219.1650391-.1650391.2402344-.375.2402344h-10.3203125c-.7792969.0146484-1.4990234.0898438-2.2490234.2099609l-.390625-.7651367c.6601562.074707,1.3203125.1049805,1.9951172.1201172h4.2148438v-6.8847656h-2.7001953c-.7792969.0151367-1.4990234.0898438-2.2490234.2099609l-.4052734-.7797852c.6601562.074707,1.3193359.1044922,1.9951172.1201172h3.359375v-2.2050781c0-1.0200195-.0595703-2.25-.1953125-3.0751953,1.6806641.4804688,1.6806641.6298828,1.4257812.8100586l-.2402344.1650391v4.3051758h3.2402344l.3291016-.465332Z"/>
        <path class="cls-1" d="m106.5317383,34.6796875c.1494141-.2099609.2548828-.4355469.375-.4355469.1796875,0,1.0644531.8554688,1.0644531,1.0800781-.0449219.1650391-.1796875.2402344-.359375.2402344h-1.8457031v4.7548828c.6904297-.3154297,1.4248047-.6601562,2.1748047-1.0048828l.0908203.2099609c-1.0205078.6748047-2.4306641,1.6948242-4.2597656,2.8349609-.0458984.1796875-.1357422.3295898-.2705078.4047852l-.5703125-1.2749023c.4052734-.1352539,1.0947266-.4052734,1.9199219-.7651367v-5.159668h-.5849609c-.3300781.0146484-.6445312.0898438-.9599609.2099609l-.375-.7802734c.4355469.0751953.8701172.1054688,1.3203125.1201172h.5996094v-1.2148438c0-1.0200195-.0595703-2.25-.1943359-3.0751953,1.6347656.465332,1.6347656.6152344,1.3642578.7802734l-.2548828.1499023v3.3598633h.4951172l.2705078-.4345703Zm8.0839844-1.2451172c.1201172-.1650391.2099609-.3452148.3300781-.3452148.1796875,0,1.0205078.7651367,1.0205078.9897461-.0908203.1201172-.2705078.1953125-.5556641.2402344-.0449219,3.9448242-.2099609,5.4150391-.6748047,5.9248047-.2998047.3447266-.75.4799805-1.2001953.4799805,0-.284668-.0146484-.5400391-.1640625-.6899414-.1357422-.1201172-.4355469-.2250977-.75-.2851562v-.2695312c.3291016.0297852.8398438.074707,1.0791016.074707.1953125,0,.2851562-.0297852.375-.1352539.2705078-.3144531.390625-1.7695312.4355469-5.234375l-2.2050781.8701172v2.6542969c.0302734,1.800293.0595703,2.4003906.1201172,3.5253906-.1201172.2099609-.5097656.449707-.8554688.449707-.1650391,0-.3144531-.1499023-.3144531-.300293.0742188-1.2895508.1201172-1.9345703.1494141-3.8847656v-2.0996094l-1.9345703.7646484v6.1049805c0,.449707.1503906.6147461,1.0644531.6147461h2.1455078c1.0048828,0,1.7246094-.0146484,2.0400391-.0449219.2246094-.0297852.3144531-.0898438.4042969-.2246094.1201172-.2705078.3300781-1.1699219.5400391-2.2802734h.1953125l.0302734,2.3398438c.3896484.1352539.4794922.2548828.4794922.465332,0,.5395508-.6142578.6748047-3.7197266.6748047h-2.1894531c-1.4404297,0-1.9052734-.284668-1.9052734-1.3500977v-5.9545898l-1.7851562.7050781-.2695312-.3598633,2.0546875-.8100586v-2.159668c0-.7353516-.0449219-1.6201172-.1347656-2.2202148,1.5595703.4799805,1.5595703.6298828,1.3046875.8100586l-.2548828.1650391v3.0449219l1.9345703-.75v-2.1748047c0-.7202148-.0449219-1.6201172-.1347656-2.2353516,1.5302734.4804688,1.5302734.6298828,1.2753906.8100586l-.2402344.1650391v3.074707l1.9501953-.7646484.1347656-.0449219.2246094-.3300781Z"/>
        <path class="cls-1" d="m129.3754883,34.0341797c.1357422-.1796875.2255859-.3598633.3457031-.3598633.1796875,0,1.0498047.7651367,1.0498047.9897461-.1054688.1352539-.2705078.2255859-.5849609.2705078v5.324707c.0302734,1.7998047.0595703,2.3999023.1201172,3.5249023-.1201172.1499023-.4804688.4047852-.9306641.4047852-.1494141,0-.2089844-.1499023-.2089844-.300293.0292969-.1347656.0292969-.2099609.0595703-.4199219v-.375h-9.1796875v.300293c.0302734.284668.0146484.3901367.0449219.4946289-.0449219.1650391-.3447266.390625-.8251953.390625-.1494141,0-.3144531-.1503906-.3144531-.300293.0898438-1.2900391.1347656-1.949707.1650391-3.8999023v-3.1650391c0-1.0195312-.0605469-2.25-.1953125-3.074707l1.2900391.5551758h3.2402344c.1191406-.6000977.2998047-1.5.3896484-2.2050781h-3.1953125c-.7792969.0151367-1.5.0898438-2.2490234.2099609l-.390625-.7797852c.6601562.074707,1.3203125.1049805,1.9951172.1196289h9.1943359l.3300781-.4648438c.1796875-.2246094.3300781-.4648438.4501953-.4648438.1796875,0,1.3046875.9150391,1.3046875,1.1396484-.0449219.1650391-.1796875.2402344-.375.2402344h-5.8046875c-.3603516.7353516-.8251953,1.5898438-1.2001953,2.2050781h5.25l.2246094-.3603516Zm-9.3291016.8105469v7.8144531h2.3251953v-7.8144531h-2.3251953Zm5.9101562,2.2646484v-2.2646484h-2.6855469v2.2646484h2.6855469Zm0,2.7597656v-2.3398438h-2.6855469v2.3398438h2.6855469Zm-2.6855469.4199219v2.3701172h2.6855469v-2.3701172h-2.6855469Zm5.9550781-5.4443359h-2.3701172v7.8144531h2.3701172v-7.8144531Z"/>
        <path class="cls-1" d="m144.4663086,33.0893555c.1494141-.1645508.2548828-.3452148.375-.3452148.1796875,0,1.0195312.6601562,1.0195312.8852539-.0302734.1650391-.1796875.2250977-.375.2250977h-2.8945312v1.1699219h2.0996094l.2705078-.4052734c.1494141-.2099609.2548828-.4199219.375-.4199219.1796875,0,1.0947266.7949219,1.0947266,1.0205078-.0302734.1645508-.1650391.2397461-.3603516.2397461h-7.8447266c-.0751953.074707-.1943359.1049805-.3144531.1049805h-1.7255859v1.5449219c2.7451172,1.1699219,2.0400391,2.9101562,1.1855469,2.2797852-.1650391-.6147461-.7207031-1.4248047-1.1855469-1.9799805v2.9848633c.0302734,1.800293.0605469,2.3999023.1201172,3.5249023-.1201172.1650391-.4345703.3901367-.8701172.3901367-.1494141,0-.3144531-.1499023-.3144531-.300293.0898438-1.2900391.1347656-1.949707.1650391-3.8994141v-2.1450195c-.5849609,1.3500977-1.3652344,2.5649414-2.3398438,3.6000977l-.2255859-.2104492c1.125-1.6049805,1.9052734-3.6899414,2.3398438-5.7895508h-.6142578c-.390625.0146484-.7207031.0898438-1.0800781.2099609l-.375-.7651367c.5097656.0751953,1.0195312.1049805,1.5595703.1201172h.7353516v-2.6098633c-.7197266.1948242-1.4853516.3896484-2.1904297.5097656l-.0898438-.2397461c.4648438-.1650391.9746094-.3598633,1.4697266-.6000977.9003906-.4199219,1.9052734-1.0351562,2.4599609-1.6499023,1.2753906,1.0800781,1.2753906,1.2299805.9150391,1.2148438l-.3603516-.0151367c-.359375.1650391-.8242188.3300781-1.3046875.4951172v2.8950195h.390625l.5996094-.824707s.5253906.4648438.9453125.8544922l-.0449219-.1347656h3.5996094v-1.1699219h-.9453125c-.5703125.0146484-1.125.0898438-1.6796875.2099609l-.3896484-.75c.6591797.0751953,1.3193359.1049805,1.9941406.1201172h1.0205078v-1.0351562h-1.0498047c-.6601562.0151367-1.3056641.0898438-1.9501953.2099609l-.3896484-.7797852c.6591797.074707,1.3193359.1049805,1.9941406.1196289h1.3955078c0-.4199219-.015625-.9443359-.0751953-1.3349609,1.5.465332,1.5.6152344,1.2451172.7802734l-.2548828.1650391v.3896484h1.9501953l.2695312-.4047852c.1503906-.1948242.2548828-.4047852.375-.4047852.1796875,0,1.0800781.7949219,1.0800781,1.0195312-.0449219.1650391-.1650391.2402344-.3603516.2402344h-3.3144531v1.0351562h1.6201172l.2548828-.3452148Zm-2.7001953,9.6899414h-.2548828c-1.2148438.6748047-2.7753906,1.2148438-4.2148438,1.5146484l-.1796875-.2700195c.3896484-.1499023.7949219-.3149414,1.1992188-.5097656.9003906-.4204102,1.9501953-1.1704102,2.5048828-1.800293l.6308594.6000977c.5693359.3149414.5693359.465332.3144531.465332Zm2.6699219-6.75c.1347656-.1650391.2246094-.3300781.3447266-.3300781.1806641,0,1.0351562.7353516,1.0351562.9599609-.0898438.1054688-.2998047.2250977-.5703125.2700195v1.574707c.0302734,1.5751953.0458984,2.1005859.1054688,3.0751953-.1201172.1650391-.5546875.4052734-.8554688.4052734h-.1494141v-.465332h-4.2900391v.3452148c0,.1044922-.375.3149414-.75.3149414-.1494141,0-.2548828-.1499023-.2548828-.300293.0595703-.6298828.0751953-.9448242.1054688-1.8896484v-1.0947266c0-1.0205078-.0605469-2.25-.1953125-3.0751953l1.1699219.5249023h4.0800781l.2246094-.3149414Zm-.0898438.7651367h-4.2900391v1.1245117h4.2900391v-1.1245117Zm0,2.6694336v-1.109375h-4.2900391v1.109375h4.2900391Zm-4.2900391,1.6352539h4.2900391v-1.1850586h-4.2900391v1.1850586Zm2.7900391.9301758c4.9492188,1.0048828,3.3300781,2.8945312,2.4902344,2.0698242-.4804688-.5551758-1.3955078-1.2451172-2.5957031-1.8300781l.1054688-.2397461Z"/>
        <path class="cls-1" d="m153.1508789,33.3291016c.5556641,0,.9902344.4355469.9902344.9902344,0,.5551758-.4345703.9902344-.9902344.9902344-.5546875,0-.9892578-.4350586-.9892578-.9902344,0-.5546875.4345703-.9902344.9892578-.9902344Zm0,7.3051758c.5556641,0,.9902344.449707.9902344,1.0048828s-.4345703.9897461-.9902344.9897461c-.5546875,0-.9892578-.4345703-.9892578-.9897461s.4345703-1.0048828.9892578-1.0048828Z"/>
        <path class="cls-1" d="m165.121582,42.6738281v.4804688h-5.9248047v-.4804688l2.3701172-.284668c.0146484-.8999023.0292969-1.784668.0292969-2.6699219v-6.1499023l-2.25.2548828v-.5400391l3.2402344-.8398438.2246094.1801758-.0595703,2.324707v4.7700195c0,.8852539.0146484,1.7700195.0302734,2.6699219l2.3398438.284668Z"/>
        <path class="cls-1" d="m173.4458008,42.0292969v1.125h-6.6142578v-.9003906c.9296875-.9599609,1.859375-1.9648438,2.5800781-2.7294922,1.6494141-1.7851562,2.3095703-3.0151367,2.3095703-4.2753906,0-1.3496094-.7802734-2.2646484-2.0703125-2.2646484-.2851562,0-.6298828.0302734-.9892578.1347656l-.375,1.1552734c-.1806641.6450195-.4052734.9296875-.7949219.9296875-.3300781,0-.5556641-.1796875-.7207031-.4648438.2548828-1.574707,1.6503906-2.3701172,3.2099609-2.3701172,2.0253906,0,2.9697266,1.125,2.9697266,2.7753906,0,1.3798828-.7197266,2.4599609-3.1191406,4.859375-.4199219.4501953-1.1855469,1.215332-2.0107422,2.0253906h5.625Z"/>
        <path class="cls-1" d="m181.5004883,37.8891602c0,4.0048828-1.6191406,5.4750977-3.3144531,5.4750977-1.7099609,0-3.3447266-1.4702148-3.3447266-5.4750977,0-4.0200195,1.6347656-5.5200195,3.3447266-5.5200195,1.6953125,0,3.3144531,1.5,3.3144531,5.5200195Zm-3.3144531,4.875c1.0498047,0,2.0703125-1.0800781,2.0703125-4.875,0-3.8398438-1.0205078-4.9047852-2.0703125-4.9047852-1.0800781,0-2.0849609,1.0498047-2.0849609,4.9047852,0,3.8100586,1.0048828,4.875,2.0849609,4.875Z"/>
        <path class="cls-1" d="m183.6606445,42.359375c0-.5551758.4199219-1.0205078.9902344-1.0205078s.9902344.465332.9902344,1.0205078c0,.5400391-.4199219.9897461-.9902344.9897461s-.9902344-.449707-.9902344-.9897461Z"/>
        <path class="cls-1" d="m194.4750977,37.8891602c0,4.0048828-1.6191406,5.4750977-3.3144531,5.4750977-1.7099609,0-3.3447266-1.4702148-3.3447266-5.4750977,0-4.0200195,1.6347656-5.5200195,3.3447266-5.5200195,1.6953125,0,3.3144531,1.5,3.3144531,5.5200195Zm-3.3144531,4.875c1.0498047,0,2.0703125-1.0800781,2.0703125-4.875,0-3.8398438-1.0205078-4.9047852-2.0703125-4.9047852-1.0800781,0-2.0849609,1.0498047-2.0849609,4.9047852,0,3.8100586,1.0048828,4.875,2.0849609,4.875Z"/>
        <path class="cls-1" d="m202.5151367,40.6342773c0,1.6196289-1.3945312,2.7299805-3.2841797,2.7299805-1.9804688,0-3.2998047-.9301758-3.2998047-2.6103516,0-1.2446289.8242188-2.0546875,2.3994141-2.8349609-1.4394531-.7646484-2.0400391-1.7392578-2.0400391-2.8642578,0-1.6650391,1.3203125-2.6855469,2.9697266-2.6855469,1.6806641,0,2.7451172,1.0351562,2.7451172,2.5205078,0,.824707-.4794922,1.784668-1.9951172,2.6396484,1.7402344.8251953,2.5048828,1.6948242,2.5048828,3.1049805Zm-1.1396484.1049805c0-.9902344-.6152344-1.6796875-2.5498047-2.5800781-1.1845703.7050781-1.7705078,1.3500977-1.7705078,2.4750977,0,1.2749023.8701172,2.1450195,2.2050781,2.1450195,1.2900391,0,2.1152344-.8701172,2.1152344-2.0400391Zm-1.859375-3.4350586c1.0644531-.7348633,1.484375-1.409668,1.484375-2.3847656,0-1.0649414-.6298828-1.9350586-1.7695312-1.9350586-.9902344,0-1.8603516.6748047-1.8603516,1.7700195,0,.9150391.4501953,1.7548828,2.1455078,2.5498047Z"/>
        <path class="cls-1" d="m216.9750977,39.6289062c0,.8251953.0146484,2.0253906.0302734,2.8798828l1.1845703.1201172v.5253906h-3.6298828v-.5253906l1.1552734-.1201172c.0146484-.8544922.0292969-2.0546875.0292969-2.8798828v-1.6943359c0-1.5449219-.5996094-2.0703125-1.4248047-2.0703125-.6445312,0-1.3496094.3447266-1.9794922,1.1103516.0302734.2246094.0449219.4794922.0449219.75v1.9042969c0,.840332.0146484,2.0102539.0302734,2.8798828l1.1542969.1201172v.5253906h-3.5693359v-.5253906l1.1396484-.1201172c.0146484-.8544922.0302734-2.0395508.0302734-2.8798828v-1.784668c0-1.4399414-.5703125-1.9799805-1.4550781-1.9799805-.6445312,0-1.3496094.3901367-1.9199219,1.1552734v2.609375c0,.8105469.0146484,2.0102539.0302734,2.8798828l1.1699219.1201172v.5253906h-3.6005859v-.5253906l1.140625-.1201172c.0146484-.8696289.0292969-2.0693359.0292969-2.8798828v-.8544922c0-1.0498047-.0146484-1.9350586-.0595703-2.7148438l-1.2001953-.0302734v-.4799805l2.2207031-.4799805.2089844.1201172.0458984,1.2451172c.7197266-1.0205078,1.5742188-1.4550781,2.4296875-1.4550781,1.0195312,0,1.7246094.4501953,2.0244141,1.4697266.8105469-1.0649414,1.6054688-1.4697266,2.4902344-1.4697266,1.4853516,0,2.25.8251953,2.25,2.8647461v1.784668Zm2.7148438-5.7143555v.6000977h-2.6845703v-.4501953l.9443359-.9599609c.5400391-.5849609.8554688-.9296875.8554688-1.4697266,0-.4501953-.2548828-.7202148-.6748047-.7202148-.0908203,0-.1806641,0-.2705078.0151367l-.1044922.4047852c-.0908203.3598633-.2548828.4199219-.4208984.4199219-.1347656,0-.2392578-.0600586-.2841797-.1948242.0751953-.6450195.5996094-.9599609,1.2900391-.9599609.7792969,0,1.1845703.4501953,1.1845703,1.0200195,0,.5849609-.4199219,1.034668-1.1699219,1.6499023l-.7802734.6450195h2.1152344Z"/>
        <path class="cls-1" d="m220.8754883,44.4140625l-.4199219-.4199219,13.4990234-13.4995117.4208984.4199219-13.5,13.4995117Z"/>
        <path class="cls-1" d="m238.6206055,31.484375c.1347656-.1650391.2246094-.3300781.3447266-.3300781.1796875,0,1.0195312.840332,1.0195312,1.0654297-.1191406.1201172-.375.1948242-.6748047.2246094-.4042969.9003906-1.0800781,2.3701172-1.7392578,3.7050781h1.2597656l.2402344-.2851562c.1347656-.1499023.2392578-.2998047.359375-.2998047.1796875,0,.9902344.7050781.9902344.9296875-.1054688.1352539-.2548828.1801758-.5400391.2099609-.1796875,1.5302734-.4951172,3.0151367-1.125,4.3652344,1.3652344,1.6650391,3.375,1.9794922,6.4345703,1.9794922.9150391,0,2.9248047,0,3.9296875-.0297852v.2099609c-.3896484.074707-.5996094.375-.6298828.7651367h-3.375c-3.1943359,0-5.234375-.4501953-6.5996094-2.4453125-.5996094,1.0654297-1.4394531,2.0253906-2.6699219,2.7753906l-.1347656-.2250977c1.125-.8999023,1.8447266-2.0400391,2.3544922-3.3149414-.3300781-.6298828-.6142578-1.3798828-.8691406-2.2646484-.2402344.4648438-.5703125,1.0795898-.7802734,1.4394531.0751953.1201172.0595703.2548828-.0146484.3452148l-.7050781-.7050781c.375-.375,1.0195312-1.034668,1.3945312-1.4848633l.1503906-.6601562.5097656.1650391-.3896484.5849609c.2392578.8251953.5400391,1.5151367.8847656,2.1000977.375-1.1699219.5693359-2.4301758.6894531-3.7202148h-1.5742188c-.1503906.2705078-.2705078.5400391-.4052734.7954102-.2246094.0600586-.4951172.0449219-.8554688-.1049805.7802734-1.5898438,1.6953125-3.6298828,2.25-5.0097656h-.8095703c-.5097656.0146484-.9599609.0898438-1.4404297.2099609l-.3896484-.7802734c.5996094.0751953,1.2001953.1054688,1.7998047.1201172h.8701172l.2402344-.3300781Zm7.9492188.3603516c.1357422-.1650391.2255859-.3452148.3447266-.3452148.1806641,0,1.0654297.7797852,1.0654297,1.0048828-.0898438.1049805-.3300781.2250977-.5996094.2851562v1.3647461h.2246094l.2548828-.4199219c.1347656-.2099609.2402344-.4199219.3603516-.4199219.1796875,0,1.0195312.8100586,1.0195312,1.0351562-.0449219.1650391-.1650391.2397461-.359375.2397461h-1.5v.7202148c.0292969.7197266.0292969.9599609.0751953,1.3647461-.0908203.1801758-.5410156.4047852-.8554688.4047852h-.1054688v-.4794922h-2.1445312v1.5449219h2.1152344l.2695312-.4052734c.1503906-.1953125.2548828-.4052734.375-.4052734.1796875,0,1.1103516.7949219,1.1103516,1.0205078-.0302734.1650391-.1953125.2397461-.375.2397461h-3.4951172v1.574707h2.5644531l.3007812-.4345703c.1650391-.2250977.2998047-.4501953.4199219-.4501953.1796875,0,1.1992188.8549805,1.1992188,1.0800781-.0449219.1650391-.1640625.2402344-.375.2402344h-4.109375v.5693359c.0302734.5703125.0302734.765625.0605469,1.0654297-.0605469.2099609-.4355469.4047852-.7949219.4047852-.1953125,0-.2705078-.1499023-.2705078-.300293.0449219-.3447266.0449219-.5244141.0751953-1.0498047v-.6894531h-1.2001953c-.7802734.0146484-1.5.0898438-2.25.2099609l-.375-.765625c.6601562.0751953,1.3203125.1054688,1.9951172.1201172h1.8300781v-1.574707h-1.0048828c-.6298828.0151367-1.2451172.090332-1.8603516.2099609l-.3896484-.7797852c.6601562.0751953,1.3193359.1044922,1.9951172.1201172h1.2597656v-1.5449219h-.9453125c-.5996094.0146484-1.1396484.0898438-1.7099609.2099609l-.4052734-.7651367c.6601562.074707,1.3203125.1049805,1.9951172.1196289h1.0654297v-1.574707h-1.4248047c-.7802734.0151367-1.5.090332-2.25.2099609l-.390625-.7651367c.6601562.0751953,1.3203125.1054688,1.9951172.1201172h2.0703125v-1.5449219h-.9453125c-.5703125.0151367-1.125.0898438-1.6796875.2099609l-.390625-.75c.6601562.0751953,1.3203125.1054688,1.9951172.1201172h1.0205078c0-.5546875-.0302734-1.2148438-.1054688-1.6796875,1.5449219.4648438,1.5449219.6147461,1.2900391.7949219l-.2548828.1796875v.7050781h1.9951172l.2246094-.3447266Zm-2.2197266.7646484v1.5449219h2.1445312v-1.5449219h-2.1445312Zm2.1445312,3.5546875v-1.574707h-2.1445312v1.574707h2.1445312Z"/>
        <path class="cls-1" d="m255.2407227,32.984375s.7050781.6298828,1.1396484,1.0800781v.0146484c.0898438-.1943359.1796875-.4047852.2695312-.6147461.375-.9145508.6601562-2.1899414.7050781-3.0297852,1.6503906.4951172,1.6503906.6450195,1.3652344.7646484l-.2851562.1201172c-.2402344.8251953-.5546875,1.5751953-.9150391,2.2651367h4.9648438l.2246094-.3300781c.1357422-.1650391.2255859-.3295898.3457031-.3295898.1796875,0,1.0644531.734375,1.0644531.9599609-.1044922.1347656-.2851562.2099609-.5996094.2548828-.1953125,4.9794922-.7197266,8.5195312-1.5146484,9.4194336-.4355469.5102539-1.0498047.7348633-1.7548828.7202148,0-.300293-.0751953-.5849609-.2851562-.7202148-.2255859-.1801758-.9296875-.3598633-1.5449219-.449707l.0146484-.2851562c.7050781.0898438,1.875.2099609,2.2050781.2099609s.4648438-.0600586.6748047-.2402344c.6455078-.5996094,1.0947266-4.1396484,1.3203125-8.7895508h-.9453125c-.6298828,3.9145508-2.1748047,7.2749023-5.3847656,9.5395508l-.1503906-.1948242c2.6552734-2.3999023,4.0507812-5.7299805,4.5-9.3447266h-1.0800781c-.7050781,2.7299805-2.1894531,5.1298828-4.3945312,6.7646484l-.1503906-.1948242c1.8007812-1.7099609,3.0302734-4.125,3.5400391-6.5698242h-1.2900391c-.5996094,1.0800781-1.3496094,1.949707-2.2041016,2.6098633l-.1953125-.1650391c.5400391-.6147461,1.0195312-1.3945312,1.4550781-2.2797852-.0751953.090332-.1806641.1352539-.3300781.1352539h-1.7851562v3.3896484c.6601562-.2402344,1.3505859-.4799805,2.0546875-.7353516l.0751953.2255859c-.5849609.3144531-1.2900391.7045898-2.1298828,1.1547852v2.0097656c.0302734,1.800293.0605469,2.3999023.1201172,3.5249023-.1201172.2099609-.5097656.4350586-.8554688.4350586-.1943359,0-.3291016-.1499023-.3291016-.300293.0742188-1.109375.1044922-1.6650391.1347656-3.3447266v-1.8300781c-.4951172.2548828-1.0498047.5400391-1.6347656.840332-.0449219.1801758-.1650391.3149414-.2998047.3745117l-.5556641-1.2597656c.5097656-.1201172,1.4101562-.4047852,2.4902344-.7797852v-3.7045898h-1.1396484c-.3154297.9443359-.6904297,1.8144531-1.1552734,2.4897461l-.2255859-.1352539c.2255859-.5849609.4199219-1.2900391.5859375-2.0400391.2246094-.9599609.359375-2.3847656.2841797-3.2246094,1.5605469.2851562,1.5605469.4350586,1.3056641.5849609l-.2558594.1347656c-.1191406.5849609-.2392578,1.1699219-.4199219,1.7402344h1.0205078v-.2998047c0-1.0205078-.0605469-2.25-.1953125-3.0751953,1.6201172.4799805,1.6201172.6298828,1.3652344.8100586l-.2402344.1650391v2.3999023h.375l.6455078-.8701172Z"/>
        <path class="cls-1" d="m277.1401367,34.0341797c.1347656-.1796875.2246094-.3598633.3447266-.3598633.1796875,0,1.0498047.7651367,1.0498047.9897461-.1044922.1352539-.2695312.2255859-.5849609.2705078v5.324707c.0302734,1.7998047.0605469,2.3999023.1201172,3.5249023-.1201172.1499023-.4794922.4047852-.9296875.4047852-.1503906,0-.2099609-.1499023-.2099609-.300293.0302734-.1347656.0302734-.2099609.0595703-.4199219v-.375h-9.1796875v.300293c.0302734.284668.015625.3901367.0458984.4946289-.0458984.1650391-.3457031.390625-.8251953.390625-.1503906,0-.3154297-.1503906-.3154297-.300293.0898438-1.2900391.1347656-1.949707.1650391-3.8999023v-3.1650391c0-1.0195312-.0595703-2.25-.1953125-3.074707l1.2900391.5551758h3.2402344c.1201172-.6000977.2998047-1.5.3896484-2.2050781h-3.1943359c-.7802734.0151367-1.5.0898438-2.25.2099609l-.390625-.7797852c.6601562.074707,1.3203125.1049805,1.9951172.1196289h9.1953125l.3291016-.4648438c.1806641-.2246094.3300781-.4648438.4501953-.4648438.1806641,0,1.3056641.9150391,1.3056641,1.1396484-.0449219.1650391-.1806641.2402344-.375.2402344h-5.8046875c-.3603516.7353516-.8251953,1.5898438-1.2001953,2.2050781h5.2490234l.2255859-.3603516Zm-9.3300781.8105469v7.8144531h2.3251953v-7.8144531h-2.3251953Zm5.9101562,2.2646484v-2.2646484h-2.6845703v2.2646484h2.6845703Zm0,2.7597656v-2.3398438h-2.6845703v2.3398438h2.6845703Zm-2.6845703.4199219v2.3701172h2.6845703v-2.3701172h-2.6845703Zm5.9541016-5.4443359h-2.3701172v7.8144531h2.3701172v-7.8144531Z"/>
        <path class="cls-1" d="m292.2299805,33.0893555c.1503906-.1645508.2548828-.3452148.375-.3452148.1796875,0,1.0205078.6601562,1.0205078.8852539-.0302734.1650391-.1806641.2250977-.375.2250977h-2.8955078v1.1699219h2.1005859l.2695312-.4052734c.1503906-.2099609.2548828-.4199219.375-.4199219.1796875,0,1.0947266.7949219,1.0947266,1.0205078-.0302734.1645508-.1650391.2397461-.3603516.2397461h-7.84375c-.0751953.074707-.1953125.1049805-.3154297.1049805h-1.7246094v1.5449219c2.7451172,1.1699219,2.0400391,2.9101562,1.1845703,2.2797852-.1650391-.6147461-.7197266-1.4248047-1.1845703-1.9799805v2.9848633c.0292969,1.800293.0595703,2.3999023.1201172,3.5249023-.1201172.1650391-.4355469.3901367-.8701172.3901367-.1503906,0-.3154297-.1499023-.3154297-.300293.0898438-1.2900391.1347656-1.949707.1650391-3.8994141v-2.1450195c-.5849609,1.3500977-1.3652344,2.5649414-2.3398438,3.6000977l-.2246094-.2104492c1.125-1.6049805,1.9042969-3.6899414,2.3398438-5.7895508h-.6152344c-.3896484.0146484-.7197266.0898438-1.0800781.2099609l-.375-.7651367c.5097656.0751953,1.0205078.1049805,1.5595703.1201172h.7353516v-2.6098633c-.7197266.1948242-1.4853516.3896484-2.1894531.5097656l-.0908203-.2397461c.4658203-.1650391.9755859-.3598633,1.4707031-.6000977.8994141-.4199219,1.9042969-1.0351562,2.4599609-1.6499023,1.2744141,1.0800781,1.2744141,1.2299805.9150391,1.2148438l-.3603516-.0151367c-.3603516.1650391-.8251953.3300781-1.3046875.4951172v2.8950195h.3896484l.5996094-.824707s.5253906.4648438.9453125.8544922l-.0449219-.1347656h3.5996094v-1.1699219h-.9453125c-.5693359.0146484-1.1240234.0898438-1.6796875.2099609l-.3896484-.75c.6601562.0751953,1.3203125.1049805,1.9951172.1201172h1.0195312v-1.0351562h-1.0498047c-.6601562.0151367-1.3046875.0898438-1.9501953.2099609l-.3896484-.7797852c.6601562.074707,1.3203125.1049805,1.9951172.1196289h1.3945312c0-.4199219-.0146484-.9443359-.0751953-1.3349609,1.5.465332,1.5.6152344,1.2451172.7802734l-.2548828.1650391v.3896484h1.9501953l.2695312-.4047852c.1503906-.1948242.2548828-.4047852.375-.4047852.1806641,0,1.0800781.7949219,1.0800781,1.0195312-.0449219.1650391-.1650391.2402344-.359375.2402344h-3.3154297v1.0351562h1.6201172l.2548828-.3452148Zm-2.7001953,9.6899414h-.2548828c-1.2148438.6748047-2.7744141,1.2148438-4.2148438,1.5146484l-.1796875-.2700195c.3896484-.1499023.7949219-.3149414,1.2001953-.5097656.8994141-.4204102,1.9492188-1.1704102,2.5048828-1.800293l.6298828.6000977c.5703125.3149414.5703125.465332.3144531.465332Zm2.6699219-6.75c.1347656-.1650391.2255859-.3300781.3457031-.3300781.1796875,0,1.0341797.7353516,1.0341797.9599609-.0898438.1054688-.2998047.2250977-.5693359.2700195v1.574707c.0292969,1.5751953.0449219,2.1005859.1044922,3.0751953-.1201172.1650391-.5546875.4052734-.8544922.4052734h-.1503906v-.465332h-4.2900391v.3452148c0,.1044922-.375.3149414-.75.3149414-.1494141,0-.2548828-.1499023-.2548828-.300293.0605469-.6298828.0751953-.9448242.1054688-1.8896484v-1.0947266c0-1.0205078-.0605469-2.25-.1953125-3.0751953l1.1699219.5249023h4.0800781l.2246094-.3149414Zm-.0898438.7651367h-4.2900391v1.1245117h4.2900391v-1.1245117Zm0,2.6694336v-1.109375h-4.2900391v1.109375h4.2900391Zm-4.2900391,1.6352539h4.2900391v-1.1850586h-4.2900391v1.1850586Zm2.7900391.9301758c4.9501953,1.0048828,3.3300781,2.8945312,2.4902344,2.0698242-.4804688-.5551758-1.3945312-1.2451172-2.5947266-1.8300781l.1044922-.2397461Z"/>
        <path class="cls-1" d="m301.215332,33.3291016c.5546875,0,.9902344.4355469.9902344.9902344,0,.5551758-.4355469.9902344-.9902344.9902344s-.9902344-.4350586-.9902344-.9902344c0-.5546875.4355469-.9902344.9902344-.9902344Zm0,7.3051758c.5546875,0,.9902344.449707.9902344,1.0048828s-.4355469.9897461-.9902344.9897461-.9902344-.4345703-.9902344-.9897461.4355469-1.0048828.9902344-1.0048828Z"/>
        <path class="cls-1" d="m307.590332,42.9741211c2.9404297-.9897461,4.3349609-2.625,4.6796875-4.949707-.5849609.5996094-1.3496094.8999023-2.25.8999023-1.7695312,0-3.1640625-1.2299805-3.1494141-3.2250977,0-1.9794922,1.3945312-3.3300781,3.375-3.3300781,2.0400391,0,3.3291016,1.6352539,3.3291016,4.2602539,0,3.0898438-1.7539062,5.7895508-5.8642578,6.824707l-.1201172-.4799805Zm4.7402344-5.6245117c.0146484-.1650391.0146484-.3300781.0146484-.5102539,0-2.625-.8994141-3.8549805-2.1601562-3.8549805-1.1396484,0-2.1142578.8847656-2.1142578,2.5947266,0,1.7402344,1.0048828,2.5654297,2.3242188,2.5654297.765625,0,1.3808594-.2553711,1.9355469-.7949219Z"/>
        <path class="cls-1" d="m316.9047852,34.0341797c-.1494141.6152344-.3291016.8852539-.8095703.8852539-.3154297,0-.5693359-.1352539-.7050781-.5249023.3300781-1.3798828,1.5751953-2.0253906,3-2.0253906,1.8447266,0,3.0146484,1.050293,3.0146484,2.5654297,0,1.2294922-.8095703,2.2050781-2.234375,2.6547852,1.7246094.2998047,2.5800781,1.3051758,2.5800781,2.699707,0,1.7851562-1.4550781,3.0751953-3.5703125,3.0751953-1.5449219,0-2.7294922-.6601562-3.0595703-2.1904297.1494141-.2998047.3896484-.4648438.7050781-.4648438.4492188,0,.6142578.2998047.8095703.9599609l.2851562.9301758c.375.1196289.734375.1650391,1.0800781.1650391,1.6650391,0,2.5351562-.9301758,2.5351562-2.4301758,0-1.5146484-.8701172-2.4150391-2.640625-2.4150391h-.7646484v-.6445312h.6445312c1.5,0,2.4599609-.8398438,2.4599609-2.3100586,0-1.2446289-.75-1.9799805-2.0693359-1.9799805-.2998047,0-.6152344.0302734-.9755859.1201172l-.2851562.9296875Z"/>
        <path class="cls-1" d="m323.9399414,42.359375c0-.5551758.4199219-1.0205078.9902344-1.0205078s.9902344.465332.9902344,1.0205078c0,.5400391-.4199219.9897461-.9902344.9897461s-.9902344-.449707-.9902344-.9897461Z"/>
        <path class="cls-1" d="m334.5444336,42.6738281v.4804688h-5.9248047v-.4804688l2.3701172-.284668c.015625-.8999023.0302734-1.784668.0302734-2.6699219v-6.1499023l-2.25.2548828v-.5400391l3.2402344-.8398438.2246094.1801758-.0595703,2.324707v4.7700195c0,.8852539.0146484,1.7700195.0292969,2.6699219l2.3398438.284668Z"/>
        <path class="cls-1" d="m342.449707,32.7744141c-3.1650391.7197266-4.7548828,2.4599609-5.0244141,5.0546875.7041016-.7348633,1.5742188-1.125,2.4892578-1.125,1.7548828,0,2.9550781,1.2304688,2.9550781,3.1953125,0,2.1894531-1.3798828,3.4648438-3.2695312,3.4648438-2.1298828,0-3.4355469-1.6953125-3.4355469-4.5302734,0-3.2099609,2.2207031-5.984375,6.2099609-6.4648438l.0751953.4052734Zm-5.0703125,5.8798828c0,2.6845703.8408203,4.1098633,2.25,4.1098633,1.2001953,0,2.0253906-.9301758,2.0253906-2.715332,0-1.7548828-.8105469-2.5498047-2.0253906-2.5498047-.7646484,0-1.5595703.2255859-2.25.9003906v.2548828Z"/>
        <path class="cls-1" d="m359.3540039,39.6289062c0,.8251953.015625,2.0253906.0302734,2.8798828l1.1845703.1201172v.5253906h-3.6289062v-.5253906l1.1542969-.1201172c.015625-.8544922.0302734-2.0546875.0302734-2.8798828v-1.6943359c0-1.5449219-.6005859-2.0703125-1.4248047-2.0703125-.6455078,0-1.3505859.3447266-1.9804688,1.1103516.0302734.2246094.0449219.4794922.0449219.75v1.9042969c0,.840332.015625,2.0102539.0302734,2.8798828l1.1552734.1201172v.5253906h-3.5703125v-.5253906l1.140625-.1201172c.0146484-.8544922.0292969-2.0395508.0292969-2.8798828v-1.784668c0-1.4399414-.5693359-1.9799805-1.4550781-1.9799805-.6445312,0-1.3496094.3901367-1.9199219,1.1552734v2.609375c0,.8105469.015625,2.0102539.0302734,2.8798828l1.1699219.1201172v.5253906h-3.5996094v-.5253906l1.1396484-.1201172c.015625-.8696289.0302734-2.0693359.0302734-2.8798828v-.8544922c0-1.0498047-.0146484-1.9350586-.0595703-2.7148438l-1.2001953-.0302734v-.4799805l2.2197266-.4799805.2099609.1201172.0449219,1.2451172c.7197266-1.0205078,1.5751953-1.4550781,2.4296875-1.4550781,1.0205078,0,1.7255859.4501953,2.0253906,1.4697266.8095703-1.0649414,1.6044922-1.4697266,2.4892578-1.4697266,1.4853516,0,2.25.8251953,2.25,2.8647461v1.784668Zm2.7148438-5.7143555v.6000977h-2.6845703v-.4501953l.9453125-.9599609c.5400391-.5849609.8544922-.9296875.8544922-1.4697266,0-.4501953-.2548828-.7202148-.6748047-.7202148-.0898438,0-.1796875,0-.2705078.0151367l-.1044922.4047852c-.0898438.3598633-.2548828.4199219-.4199219.4199219-.1347656,0-.2402344-.0600586-.2851562-.1948242.0751953-.6450195.6005859-.9599609,1.2900391-.9599609.7802734,0,1.1845703.4501953,1.1845703,1.0200195,0,.5849609-.4199219,1.034668-1.1699219,1.6499023l-.7792969.6450195h2.1142578Z"/>
      </g>
      <g>
        <path class="cls-1" d="m128.4311523,4.0722656l-.3955078-.2158203c.5039062-1.2216797,1.1015625-2.0820312,1.796875-2.5810547.6943359-.4985352,1.5048828-.7480469,2.4306641-.7480469.8623047,0,1.5527344.1914062,2.0722656.574707.7744141.574707,1.1611328,1.2211914,1.1611328,1.9399414,0,.5830078-.1972656,1.1699219-.5917969,1.7607422-.3955078.5908203-1.0888672,1.253418-2.078125,1.987793l.2871094-.012207c.6230469,0,1.2236328.1582031,1.8027344.4736328.578125.3154297,1.0351562.8061523,1.3710938,1.4726562.3349609.6669922.5029297,1.3833008.5029297,2.1494141,0,1.5410156-.5654297,2.8608398-1.6943359,3.9584961-1.1298828,1.0976562-2.5693359,1.6464844-4.3173828,1.6464844-1.3251953,0-2.3037109-.1914062-2.9345703-.574707-.34375-.1992188-.5146484-.4511719-.5146484-.7543945,0-.1674805.0693359-.3193359.2099609-.4550781.1386719-.1357422.3125-.2036133.5205078-.2036133.2636719,0,.5830078.1435547.9580078.4311523.8867188.6782227,1.65625,1.0180664,2.3115234,1.0180664.9892578,0,1.8681641-.4169922,2.6347656-1.2519531.7666016-.8339844,1.1494141-1.8857422,1.1494141-3.1552734,0-1.0537109-.2578125-1.9179688-.7724609-2.5927734s-1.1679688-1.012207-1.9580078-1.012207c-.5908203,0-1.2050781.2797852-1.84375.8383789l-.2880859-.4790039c.3994141-.3432617.7587891-.6347656,1.078125-.8745117.9736328-.7099609,1.7001953-1.4086914,2.1796875-2.0957031.3427734-.4951172.5146484-.9296875.5146484-1.3051758,0-.6303711-.2236328-1.1635742-.6708984-1.5991211-.4472656-.4345703-1.0341797-.6523438-1.7607422-.6523438-1.1972656,0-2.2509766.7705078-3.1611328,2.3115234Z"/>
        <path class="cls-1" d="m143.8989258,16.2158203c.0078125-.1201172.0390625-.2275391.0957031-.3232422.6220703-.1679688,1.2285156-.2797852,1.8203125-.3359375.390625-.0317383.6425781-.1201172.7539062-.2636719.0800781-.1035156.1279297-.4873047.1435547-1.1503906l.0839844-3.1640625-.0117188-2.1455078.0117188-2.8046875v-.7431641c.0078125-1.6865234,0-2.7368164-.0244141-3.1523438-.0078125-.0800781-.0390625-.1918945-.0957031-.3359375-.2089844-.0957031-.3828125-.1591797-.5234375-.1914062s-.7685547-.1479492-1.8828125-.3476562c-.0087891-.0878906-.0126953-.1513672-.0126953-.1914062,0-.0483398.0039062-.1123047.0126953-.1918945.1513672,0,.3994141.0092773.7431641.0273438l1.8232422.0683594,1.0556641.0239258.3115234-.0117188c.0410156,0,.15625.0078125.3486328.0234375.4716797,0,.7431641-.0039062.8154297-.0117188l.9599609-.0717773c.6474609,0,1.1035156.012207,1.3671875.0356445-.0087891.144043-.0361328.2998047-.0839844.4672852-.0878906.0161133-.5029297.0380859-1.2451172.065918-.7431641.0283203-1.1699219.0742188-1.28125.1376953-.1845703.1040039-.2753906.4233398-.2753906.9580078,0,.1279297-.0087891.3876953-.0244141.7783203v.71875l.0117188,2.2158203v.7539062l.0244141,3.9643555-.0361328,3.3774414.0117188.7421875c0,.2397461.0400391.3876953.1201172.4433594.1992188.0078125.7861328.015625,1.7597656.0239258h.8144531l2.0722656-.0717773c.5429688-.0161133.9296875-.0703125,1.1621094-.1621094.2304688-.0917969.6181641-.3608398,1.1611328-.8081055.3271484-.2875977.5830078-.5825195.7666016-.8862305.0400391-.0634766.1074219-.159668.203125-.2871094.1523438-.2080078.3554688-.6230469.6113281-1.2460938h.3945312c-.046875.2875977-.0996094.5595703-.1552734.8144531-.2314453,1.1259766-.3916016,2.0644531-.4794922,2.8144531-.015625.1601562-.03125.3076172-.046875.4433594l-4.4794922-.1318359c-3.8486328,0-6.1318359.0361328-6.8505859.1074219-.2236328.0161133-.4589844.0244141-.7060547.0244141h-1.2451172Z"/>
        <path class="cls-1" d="m161.0454102,15.9160156c.2949219-.1274414.6386719-.2109375,1.0292969-.2509766.5664062-.0644531.9902344-.2001953,1.2695312-.4077148.2158203-.4394531.3232422-1.5581055.3232422-3.355957v-1.894043l.0244141-1.1381836-.0244141-.8393555.0244141-1.5463867-.0361328-3.8950195c0-.4394531-.0634766-.7270508-.1914062-.862793-.1845703-.2001953-.6708984-.3837891-1.4609375-.5517578-.328125-.0717773-.5273438-.1376953-.5986328-.1972656-.0722656-.0605469-.1162109-.1738281-.1328125-.3417969.1835938-.0400391.3125-.0595703.3837891-.0595703h.8505859l.4433594-.012207c.2949219,0,.6220703.0317383.9814453.0961914.734375.0478516,1.4892578.0712891,2.2636719.0712891.2236328,0,.5429688-.0117188.9580078-.0356445,1.1015625-.0639648,1.8925781-.0957031,2.3710938-.0957031.9658203,0,1.8779297.0957031,2.7363281.2875977.8583984.1914062,1.7421875.546875,2.6523438,1.0654297.5673828.3276367,1.1484375.8447266,1.7431641,1.5507812.5947266.7070312,1.0458984,1.4775391,1.3535156,2.3115234.3066406.8344727.4609375,1.7744141.4609375,2.8203125,0,.9345703-.1699219,1.8603516-.5087891,2.7783203-.3398438.918457-.8125,1.7148438-1.4199219,2.3896484-.6064453.6748047-1.2207031,1.1816406-1.84375,1.5205078-.6230469.3398438-1.5732422.6328125-2.8505859.8803711-.5263672.0961914-1.4726562.144043-2.8378906.144043-.9023438,0-1.6367188-.0283203-2.2041016-.0839844-.2236328-.0322266-.4628906-.0478516-.71875-.0478516-.0390625,0-.0839844.0039062-.1308594.0117188l-4.8867188.0957031-.0234375-.0957031c-.0166016-.0400391-.0244141-.0839844-.0244141-.1318359l.0244141-.1796875Zm6.0957031-.4785156c.6064453.2075195,1.2207031.3110352,1.84375.3110352.8066406,0,1.5966797-.1254883,2.3710938-.3774414.7744141-.2509766,1.4589844-.6064453,2.0546875-1.0654297.59375-.4589844,1.0830078-.9780273,1.4667969-1.5571289.3828125-.5786133.6542969-1.0996094.8144531-1.5629883.2226562-.6782227.3349609-1.5605469.3349609-2.6464844,0-1.0380859-.2197266-2.0917969-.6591797-3.1616211-.3027344-.7426758-.8359375-1.453125-1.5976562-2.1318359-.7636719-.6782227-1.6630859-1.175293-2.7011719-1.4907227s-2.1601562-.4731445-3.3652344-.4731445c-.8300781,0-1.4453125.0917969-1.84375.2753906-.0488281.0478516-.0966797.1040039-.1445312.1674805-.0478516.199707-.0712891.3833008-.0712891.5507812,0,.1040039.0039062.2275391.0117188.371582.0244141.9262695.0361328,1.668457.0361328,2.2275391l-.0117188,2.7182617c0,3.9921875.0732422,6.2138672.2207031,6.6650391.1484375.4511719.5615234.84375,1.2402344,1.1796875Z"/>
        <path class="cls-1" d="m183.3051758,15.9882812c.0400391-.0800781.0996094-.1240234.1796875-.1318359.8066406-.0722656,1.4414062-.2158203,1.9042969-.4311523.1601562-.144043.2392578-.3833008.2392578-.7182617l-.0117188-1.1738281v-2.2275391l.0244141-.9702148-.0722656-3.3295898.0234375-2.2392578c0-1.2617188-.0234375-2.1035156-.0712891-2.5268555-.0166016-.159668-.0673828-.3237305-.1552734-.4907227-.1445312-.0878906-.2636719-.1396484-.359375-.15625-.34375-.0556641-.7871094-.0996094-1.3300781-.1318359-.1113281-.0791016-.1669922-.175293-.1669922-.2871094,0-.0400391.015625-.0996094.046875-.1796875.4404297-.0239258,1.2197266-.0361328,2.3369141-.0361328.5185547,0,.9277344-.0039062,1.2265625-.0117188.4277344-.0239258.9443359-.0595703,1.5507812-.1074219.2636719.0234375.5751953.0356445.9345703.0356445.0878906.0478516.1318359.1040039.1318359.1674805,0,.0478516-.0078125.1000977-.0244141.1557617-.0957031.0478516-.2753906.0878906-.5390625.1196289-.6943359.0722656-1.1650391.2236328-1.4130859.4550781-.1679688.1601562-.2509766.4633789-.2509766.9101562l.0117188.2275391v7.6049805l.0839844,3.0776367c.0078125.9746094.0322266,1.5112305.0712891,1.6108398.0400391.1000977.1035156.1777344.1914062.2338867.2802734.1674805.7070312.2792969,1.2822266.3349609.1435547.0161133.2832031.0439453.4189453.0839844.0478516.1035156.0722656.1914062.0722656.2636719,0,.0791016-.0488281.1552734-.1445312.2275391l-.3828125.0117188c-.1601562,0-.5429688-.0283203-1.1494141-.0839844-.6074219-.0556641-1.0585938-.0839844-1.3535156-.0839844-.2470703,0-.5908203.0283203-1.0302734.0839844s-1.0371094.0839844-1.7958984.0839844c-.1123047,0-.2636719-.0039062-.4550781-.0117188l-.0244141-.359375Zm4.6230469-7.5273438c.0957031-.0874023.2558594-.1992188.4785156-.3349609.4472656-.2709961,1.2177734-.8134766,2.3115234-1.6269531l3.2822266-2.6806641c.9013672-.75,1.5361328-1.340332,1.9033203-1.7709961.0722656-.0957031.1279297-.1953125.1679688-.2993164-.1435547-.1035156-.3076172-.1787109-.4912109-.2265625-.1835938-.0483398-.4746094-.0839844-.8740234-.1083984-.3994141-.0234375-.6367188-.0615234-.7128906-.1132812-.0751953-.0517578-.1132812-.1181641-.1132812-.1977539,0-.0878906.0283203-.1557617.0839844-.2036133.1035156-.0717773.2509766-.1079102.4423828-.1079102.3037109,0,.5673828.0219727.7910156.065918.2226562.0439453.7304688.065918,1.5205078.065918.1923828,0,.3310547-.0039062.4189453-.012207l1.8691406-.0957031c.1914062-.015625.3388672-.0239258.4423828-.0239258.0966797,0,.2392578.0083008.4316406.0234375,0,.1870117-.0166016.3388672-.0478516.4555664-.8623047.1044922-1.4970703.2363281-1.9042969.3964844-.2314453.0957031-.703125.3603516-1.4130859.7919922-.5351562.328125-1.0224609.6806641-1.4609375,1.0566406l-3.0888672,2.5996094-1.8681641,1.5087891c.0322266.0556641.0791016.1123047.1435547.1679688.0478516.0400391.1679688.1513672.359375.3349609.8378906.7822266,1.9697266,1.7421875,3.3945312,2.8798828,1.4248047,1.1367188,2.5400391,2.0888672,3.3466797,2.8549805,1.1816406,1.1240234,2.2949219,1.7451172,3.3408203,1.8637695.2558594.0322266.4394531.1040039.5507812.2158203l.0126953.1318359-.0244141.1669922c-.2714844.0166016-.4550781.0244141-.5507812.0244141-.3671875,0-.921875-.0258789-1.6640625-.0771484-.4394531-.0283203-.8027344-.0429688-1.0898438-.0429688-1.1503906,0-2.4638672.0478516-3.9404297.144043-.0244141-.1088867-.0361328-.190918-.0361328-.2456055l.0117188-.0932617c.1035156-.0932617.3115234-.1806641.6230469-.2617188.4316406-.1132812.8867188-.1782227,1.3652344-.1943359.1035156,0,.2158203-.0083008.3359375-.0239258-.0800781-.1298828-.2119141-.2792969-.3955078-.449707-.0322266-.0317383-.1396484-.1376953-.3232422-.3168945-.1835938-.1796875-.5078125-.4726562-.9707031-.8798828l-1.4248047-1.1367188-2.1914062-1.8427734c-.7265625-.6220703-1.7412109-1.4160156-3.0419922-2.3818359Z"/>
        <path class="cls-1" d="m222.5083008,14.5151367c.0488281.1040039.0722656.1796875.0722656.2275391,0,.1196289-.0957031.331543-.2871094.6347656-.2480469.3989258-.5234375.690918-.8261719.8740234-.1923828.1196289-.4550781.1796875-.7910156.1796875-.5742188,0-1.0058594-.175293-1.2929688-.5268555-.1757812-.2075195-.2998047-.5791016-.3710938-1.1137695l-1.3417969.934082c-.4707031.2714844-.8300781.4433594-1.078125.5146484-.3994141.1040039-.8779297.15625-1.4365234.15625-.4072266,0-.7294922-.1220703-.9638672-.3652344-.2363281-.2436523-.3535156-.5571289-.3535156-.9404297,0-.5507812.3378906-1.2094727,1.0136719-1.9760742.6767578-.7661133,1.5947266-1.3930664,2.7548828-1.8803711.8164062-.3427734,1.3164062-.5625,1.5009766-.6582031.015625-.2636719.0234375-.5507812.0234375-.8623047,0-1.0136719-.1425781-1.7006836-.4257812-2.0600586-.2851562-.359375-.6914062-.5385742-1.2197266-.5385742-.5527344,0-1.0693359.215332-1.5498047.6464844-.296875.2714844-.5205078.7822266-.6728516,1.5327148-.0478516.2075195-.1396484.4311523-.2753906.6704102-.34375.2236328-.6191406.3359375-.8261719.3359375-.1757812,0-.3349609-.0517578-.4794922-.15625-.0800781-.0556641-.1191406-.1191406-.1191406-.1914062,0-.2075195.2207031-.6767578.6640625-1.4072266s1.0019531-1.2773438,1.6767578-1.640625,1.2636719-.5449219,1.7666016-.5449219c.6865234,0,1.1972656.0620117,1.5332031.1855469.3349609.1240234.6308594.3417969.8857422.652832.2558594.3110352.4111328.6508789.4677734,1.0180664.03125.1757812.046875.8022461.046875,1.8798828l-.0351562,1.9042969.0117188,1.3896484c0,.1835938-.0039062.3388672-.0117188.4667969-.0078125.2314453-.0117188.4033203-.0117188.5146484,0,.2636719.0751953.4755859.2265625.6347656.1523438.1601562.3320312.2397461.5390625.2397461.3037109,0,.5634766-.1518555.7792969-.4550781l.1425781-.1918945c.0410156-.0234375.1279297-.0517578.2636719-.0834961Zm-3.5087891-.347168c.0556641-1.0141602.0839844-1.7285156.0839844-2.1435547,0-.2158203-.0117188-.5073242-.0361328-.8745117-.5371094.1918945-1.1054688.4829102-1.7060547.8745117-.6005859.390625-1.0771484.8417969-1.4306641,1.3530273-.2558594.3671875-.3837891.7143555-.3837891,1.0415039,0,.3115234.1064453.5712891.3183594.7788086s.4785156.3110352.7988281.3110352c.2490234,0,.5488281-.0874023.9013672-.2631836.4648438-.2314453.9492188-.5908203,1.4541016-1.0776367Z"/>
        <path class="cls-1" d="m226.1352539,15.7485352c.1992188-.0556641.4306641-.1035156.6943359-.1430664.5029297-.0717773.8037109-.1552734.9042969-.2509766.0996094-.0952148.1494141-.3139648.1494141-.65625l.0234375-.4296875c.0078125-.1591797.0126953-.3623047.0126953-.6088867l-.0244141-3.6645508c0-.4931641-.0634766-.8115234-.1914062-.9545898-.2158203-.2226562-.6152344-.3779297-1.1972656-.465332v-.4375c.5820312-.1601562,1.0292969-.3681641,1.3408203-.6245117.4550781-.3598633.8388672-.8486328,1.1494141-1.465332l.4082031.012207c.0234375.3764648.0351562.6450195.0351562.8051758v.7929688l.0117188.2163086c.0957031-.0639648.2080078-.144043.3359375-.2407227.4785156-.3603516.9697266-.6547852,1.4726562-.8828125.5029297-.2285156.9501953-.3867188,1.3417969-.4750977.2470703-.0639648.5263672-.0961914.8378906-.0961914.6542969,0,1.2177734.1757812,1.6884766.527832.4716797.3520508.7763672.7651367.9169922,1.2407227.1386719.4755859.2089844,1.4213867.2089844,2.8359375v1.8105469c0,.0478516-.0058594.2080078-.0175781.4799805s-.0185547.5834961-.0185547.9350586c0,.5595703.0244141.9155273.0722656,1.0673828.0400391.1040039.1435547.2080078.3115234.3115234.765625.1044922,1.2128906.2285156,1.3408203.3720703v.0957031c0,.0800781-.0234375.1796875-.0712891.2993164h-.2285156l-1.5800781-.0239258-1.5566406.0361328c-.5751953.015625-1.1064453.0117188-1.59375-.012207l-.0712891-.2514648c0-.0478516.0283203-.1118164.0839844-.1914062.2158203-.0957031.5185547-.1601562.9101562-.1923828.2314453-.015625.390625-.0400391.4794922-.0717773.0869141-.0317383.1953125-.0957031.3222656-.1918945.0957031-.1918945.1445312-.3515625.1445312-.4794922,0-.0561523-.0078125-.1679688-.0244141-.3359375-.0244141-.3676758-.0400391-1.2832031-.0478516-2.746582v-.6235352l.0234375-.9594727c0-1.0317383-.2070312-1.7426758-.6220703-2.1347656s-.9697266-.5874023-1.6650391-.5874023c-.5351562,0-1.0576172.1176758-1.5683594.3530273-.5117188.2358398-1.0058594.5888672-1.4853516,1.0600586-.015625.3828125-.0244141.7104492-.0244141.9819336l.0371094,2.6464844c0,1.3813477.0195312,2.2275391.0595703,2.5390625.015625.1274414.0439453.215332.0830078.2631836.0644531.0644531.1923828.1162109.3837891.15625s.4130859.0957031.6650391.1669922c.2509766.0722656.4169922.1162109.4960938.1318359.1601562.0400391.2675781.1201172.3242188.2397461l-.0117188.2397461h-1.2578125l-2.5869141-.0361328c-.5986328.0078125-.9785156.0117188-1.1376953.0117188h-.2998047l-.0234375-.1552734c0-.0556641.0117188-.1357422.0361328-.2397461Z"/>
        <path class="cls-1" d="m249.8803711,7.4492188l.0117188-.347168-.0117188-1.4013672.0117188-2.6464844c0-.7348633-.0800781-1.2016602-.2392578-1.4013672-.1601562-.199707-.6269531-.402832-1.4013672-.6108398-.0556641-.015625-.1435547-.0400391-.2636719-.0717773v-.1313477c0-.0800781.0078125-.1679688.0244141-.2636719,1.0859375-.1118164,2.0195312-.2998047,2.8017578-.5629883l.6113281-.012207c.03125.5429688.0478516,1.1499023.0478516,1.8203125l-.0478516,4.6113281.0830078,5.1972656-.0351562,2.7666016c0,.5668945.0390625.8857422.1191406.9580078.1601562.159668.5117188.2431641,1.0546875.2514648.1113281,0,.2636719.0083008.4550781.0239258v.2158203c0,.0556641-.0039062.1152344-.0126953.1791992-.2470703.0561523-.5029297.1079102-.7666016.1557617l-1.7363281.3354492c-.2558594.0478516-.4589844.0717773-.6103516.0717773v-1.1494141c-.1357422.0400391-.3476562.1191406-.6347656.2392578-1.2451172.5268555-2.3916016.7900391-3.4375.7900391-.6298828,0-1.2734375-.2050781-1.9277344-.6162109-.6552734-.4111328-1.1572266-.984375-1.5087891-1.71875s-.5273438-1.4853516-.5273438-2.2514648c0-.6865234.1152344-1.3432617.3476562-1.9702148.2314453-.6264648.5351562-1.1474609.9101562-1.5625.2392578-.2714844.578125-.5410156,1.0175781-.8085938s.8027344-.4370117,1.0898438-.5087891c.7109375-.1835938,1.1855469-.2753906,1.4257812-.2753906,1.0771484,0,1.9638672.159668,2.6582031.4785156.2158203.1044922.3789062.1757812.4912109.2158203Zm.0117188,7.4013672c.0322266-.5351562.0478516-1.6367188.0478516-3.3056641,0-1.4130859-.0654297-2.3051758-.1972656-2.6767578-.1308594-.3710938-.4589844-.722168-.984375-1.0537109-.5244141-.3310547-1.1132812-.4970703-1.7646484-.4970703-.9150391,0-1.6904297.3554688-2.3271484,1.065918-.6357422.7104492-.9541016,1.7602539-.9541016,3.1499023,0,1.2216797.34375,2.1953125,1.0322266,2.921875.6875.7265625,1.5449219,1.0898438,2.5703125,1.0898438.5888672,0,1.1259766-.0795898,1.6113281-.2392578.484375-.1601562.8066406-.3115234.9658203-.4550781Z"/>
        <path class="cls-1" d="m265.706543,15.9160156c.2958984-.1274414.6386719-.2109375,1.0302734-.2509766.5664062-.0644531.9892578-.2001953,1.2695312-.4077148.2148438-.4394531.3232422-1.5581055.3232422-3.355957v-1.894043l.0234375-1.1381836-.0234375-.8393555.0234375-1.5463867-.0361328-3.8950195c0-.4394531-.0634766-.7270508-.1914062-.862793-.1835938-.2001953-.6699219-.3837891-1.4609375-.5517578-.3271484-.0717773-.5273438-.1376953-.5986328-.1972656-.0712891-.0605469-.1162109-.1738281-.1318359-.3417969.1835938-.0400391.3115234-.0595703.3828125-.0595703h.8505859l.4433594-.012207c.2949219,0,.6230469.0317383.9814453.0961914.7353516.0478516,1.4892578.0712891,2.2636719.0712891.2236328,0,.5429688-.0117188.9589844-.0356445,1.1015625-.0639648,1.8916016-.0957031,2.3710938-.0957031.9658203,0,1.8779297.0957031,2.7363281.2875977.8574219.1914062,1.7421875.546875,2.6523438,1.0654297.5664062.3276367,1.1474609.8447266,1.7421875,1.5507812.5947266.7070312,1.0458984,1.4775391,1.3535156,2.3115234.3076172.8344727.4609375,1.7744141.4609375,2.8203125,0,.9345703-.1699219,1.8603516-.5087891,2.7783203-.3388672.918457-.8125,1.7148438-1.4189453,2.3896484-.6074219.6748047-1.2216797,1.1816406-1.8447266,1.5205078-.6220703.3398438-1.5732422.6328125-2.8496094.8803711-.5273438.0961914-1.4736328.144043-2.8388672.144043-.9023438,0-1.6367188-.0283203-2.203125-.0839844-.2236328-.0322266-.4628906-.0478516-.71875-.0478516-.0400391,0-.0839844.0039062-.1318359.0117188l-4.8857422.0957031-.0244141-.0957031c-.0166016-.0400391-.0244141-.0839844-.0244141-.1318359l.0244141-.1796875Zm6.0957031-.4785156c.6064453.2075195,1.2216797.3110352,1.8447266.3110352.8056641,0,1.5966797-.1254883,2.3710938-.3774414.7744141-.2509766,1.4589844-.6064453,2.0537109-1.0654297s1.0839844-.9780273,1.4667969-1.5571289c.3837891-.5786133.6552734-1.0996094.8144531-1.5629883.2236328-.6782227.3349609-1.5605469.3349609-2.6464844,0-1.0380859-.21875-2.0917969-.6582031-3.1616211-.3037109-.7426758-.8359375-1.453125-1.5986328-2.1318359-.7626953-.6782227-1.6630859-1.175293-2.7001953-1.4907227-1.0380859-.3154297-2.1601562-.4731445-3.3652344-.4731445-.8310547,0-1.4453125.0917969-1.8447266.2753906-.0478516.0478516-.0957031.1040039-.1435547.1674805-.0478516.199707-.0722656.3833008-.0722656.5507812,0,.1040039.0039062.2275391.0117188.371582.0244141.9262695.0361328,1.668457.0361328,2.2275391l-.0117188,2.7182617c0,3.9921875.0732422,6.2138672.2216797,6.6650391.1474609.4511719.5605469.84375,1.2392578,1.1796875Z"/>
        <path class="cls-1" d="m287.871582,15.9609375c.0791016-.0698242.1464844-.112793.203125-.128418.1357422-.0400391.3671875-.0717773.6943359-.0961914.7744141-.0478516,1.2529297-.1196289,1.4375-.2158203.1113281-.1601562.1669922-.3837891.1669922-.671875l-.0117188-.8398438.0117188-3.046875-.0234375-1.4394531.0117188-3.0107422-.0595703-3.4189453c-.0078125-.8154297-.0595703-1.2753906-.1552734-1.3798828-.1445312-.1513672-.5712891-.2397461-1.2822266-.2636719-.3037109-.0078125-.5703125-.0317383-.8017578-.0717773-.1044922-.0556641-.15625-.1274414-.15625-.215332,0-.0639648.0195312-.1396484.0605469-.2275391.0712891-.0400391.1347656-.0600586.1914062-.0600586.1113281,0,.2470703.0043945.4072266.012207.4707031.0478516.9580078.0712891,1.4609375.0712891l.8857422-.0234375,2.1083984.0478516c1.0537109,0,1.8759766-.012207,2.4667969-.0361328s.9892578-.0361328,1.1972656-.0361328c.1835938,0,.6386719.0166016,1.3652344.0478516l1.7011719-.0117188.203125.0361328.9941406-.0361328.1201172.0595703c.0390625.0644531.0673828.1318359.0839844.2041016,0,.1118164-.0185547.2832031-.0546875.5146484-.0351562.2314453-.0537109.3754883-.0537109.4311523,0,.8305664.0283203,1.5327148.0839844,2.1079102-.0078125.0478516-.03125.0800781-.0703125.0957031-.0869141,0-.1650391-.0117188-.2353516-.0361328-.0878906-.1513672-.2050781-.4189453-.3535156-.8017578-.1474609-.3837891-.3691406-.8266602-.6650391-1.3295898-.2001953-.3354492-.3554688-.534668-.4677734-.5991211-.1113281-.0634766-.3427734-.0957031-.6943359-.0957031-.0722656,0-.4355469-.0078125-1.0908203-.0239258-.1757812-.0078125-.3476562-.012207-.515625-.012207l-3.4150391.0722656h-.2998047c-.4394531,0-.703125.0556641-.7910156.1674805-.1357422.1918945-.203125.7543945-.203125,1.6889648,0,.0957031.0195312,1.0537109.0595703,2.8740234v1.6645508c.0869141.0239258.1835938.0356445.2871094.0356445h.2041016c.1347656,0,.3349609.0043945.5986328.0126953.4150391.015625.6943359.0234375.8378906.0234375.0957031,0,.1796875-.0039062.2519531-.0117188.8623047-.0322266,1.9716797-.0478516,3.3291016-.0478516.4228516-.0722656.6699219-.1557617.7421875-.2519531.1201172-.1435547.2099609-.5185547.2695312-1.1254883.0605469-.6069336.1933594-.949707.4013672-1.0297852.1035156,0,.1992188.0200195.2871094.0595703.0166016.0644531.0244141.1240234.0244141.1796875,0,.0561523-.0078125.1479492-.0244141.2753906-.0400391.2958984-.0595703,1.2216797-.0595703,2.7783203,0,.4155273.0214844.8789062.0664062,1.3896484.0429688.5107422.0654297.7861328.0654297.8261719,0,.0722656-.0126953.1679688-.0361328.2871094-.0644531.0322266-.1152344.0483398-.1552734.0483398h-.0839844c-.1279297-.2231445-.2519531-.5708008-.3710938-1.0419922-.2080078-.8061523-.4257812-1.3110352-.6533203-1.5151367-.2275391-.203125-.5966797-.3051758-1.1074219-.3051758-.1123047,0-.3154297.0058594-.6113281.0180664-.2949219.0117188-.734375.0175781-1.3164062.0175781h-.7792969c-1.109375,0-1.8359375.0244141-2.1796875.0722656l-.0117188.3955078.0117188,2.2075195-.0117188,1.3920898.0117188,1.3554688c.0078125.8154297.0605469,1.2871094.15625,1.4150391.1357422.1762695.4306641.2641602.8857422.2641602l.7314453-.012207c.0634766,0,.3125.0058594.7480469.0180664s.9716797.0180664,1.6103516.0180664c1.5410156,0,2.5673828-.0664062,3.078125-.1982422s.9326172-.3662109,1.2636719-.703125c.3310547-.3359375.7480469-1.0615234,1.2509766-2.1748047.1523438-.328125.3037109-.4926758.4550781-.4926758.0722656,0,.1523438.0317383.2402344.0957031-.2324219.7905273-.3632812,1.3095703-.3955078,1.5571289-.0878906.5585938-.1396484,1.1298828-.1552734,1.7124023,0,.2631836-.0644531.4829102-.1923828.6586914h-.2626953l-3.3652344.0361328-1.5097656-.012207-3.5927734.0478516h-1.4609375c-.1835938,0-.3554688.0039062-.5146484.012207-1.4375.0634766-2.4951172.0957031-3.1738281.0957031-.1201172,0-.2011719-.0195312-.2460938-.0585938-.0429688-.0390625-.0654297-.0976562-.0654297-.175293l.0126953-.1166992Z"/>
        <path class="cls-1" d="m306.6342773,1.4970703l-.0117188-.574707c1.2373047,0,2.1435547-.0317383,2.71875-.0957031.2236328-.0239258.3789062-.0361328.4667969-.0361328.0722656,0,.1796875.0043945.3232422.012207.3359375.2792969.6464844.5986328.9345703.9580078.0634766.0717773.1357422.1513672.2158203.2392578l2.5263672,2.7905273.359375.4311523c.5107422.5986328.9755859,1.1098633,1.3955078,1.5332031.4189453.4228516,1.2353516,1.3051758,2.4492188,2.6464844l2.8613281,3.1738281c.2792969.3110352.6386719.6982422,1.078125,1.1611328l.0117188-.1914062c-.046875-1.109375-.0712891-1.6962891-.0712891-1.7602539l.0478516-.71875-.0234375-1.1254883v-.5151367c0-.3276367-.0283203-1.3374023-.0839844-3.0297852-.0087891-.2314453-.0410156-.6689453-.0957031-1.3115234-.0566406-.6425781-.0839844-1.2075195-.0839844-1.6943359,0-.878418-.0527344-1.3896484-.15625-1.5332031-.0712891-.1035156-.4111328-.2114258-1.0175781-.3232422-.1435547-.0078125-.3671875-.0322266-.6708984-.0722656-.359375-.015625-.5712891-.0356445-.6347656-.0595703s-.1279297-.0917969-.1914062-.2036133c.015625-.1274414.0517578-.2475586.1074219-.3588867.2158203-.0644531.4267578-.0961914.6347656-.0961914.2236328,0,.5009766.027832.8330078.0839844.3310547.0561523.6279297.0834961.8916016.0834961.3671875,0,.9384766-.0234375,1.7128906-.0712891.4384766-.0322266.7421875-.0483398.9101562-.0483398h.203125l-.0234375.371582c-.1279297.0556641-.3037109.0898438-.5273438.1015625s-.4306641.0458984-.6220703.1015625c-.2880859.0878906-.4599609.1640625-.515625.2275391-.1914062.2080078-.2871094.4194336-.2871094.6347656l.1318359,3.784668.0957031,1.7363281-.0126953.503418.0722656,2.4067383c.0478516,1.6450195.0722656,3.0737305.0722656,4.2875977,0,.2636719-.0166016.8339844-.0478516,1.7124023l-.5585938.0483398c-.2792969-.3198242-1.2421875-1.3256836-2.8876953-3.0185547-.3828125-.390625-.6425781-.6660156-.7783203-.8261719l-1.0302734-1.1855469c-.3994141-.4389648-.6591797-.71875-.7792969-.8383789-.1191406-.1196289-.2070312-.2075195-.2626953-.2631836-.8710938-.9902344-2.0009766-2.2275391-3.390625-3.7128906-.3759766-.3989258-.9267578-1.0214844-1.6533203-1.8681641-.4550781-.534668-.7431641-.8623047-.8632812-.9819336-.1191406-.1196289-.2832031-.2553711-.4902344-.4072266l-.0361328.4072266c0,1.5571289.0400391,3.7045898.1191406,6.4428711l.0839844,3.9638672c.0078125.3359375.0283203.6591797.0595703.9707031l.4199219.0957031c.7578125.0712891,1.5048828.1796875,2.2392578.3232422.0556641.0478516.1035156.0839844.1435547.1074219l-.0117188.4550781c-.1279297.0400391-.2314453.0600586-.3115234.0600586-.0878906,0-.1962891-.0083008-.3232422-.0239258-.7910156-.0639648-1.7529297-.0957031-2.8867188-.0957031-.7978516,0-1.5009766.0195312-2.1074219.0595703l-.1679688.012207c-.0712891,0-.1757812-.0083008-.3105469-.0239258l-.0126953-.359375.3115234-.1435547.5625-.0839844c.5039062-.0717773.8710938-.1513672,1.1025391-.2392578.1513672-.0556641.2753906-.1396484.3710938-.2519531.0878906-.5507812.1318359-1.3569336.1318359-2.4189453,0-.4951172-.0117188-1.4013672-.0361328-2.71875v-1.628418l-.0244141-3.4008789c-.015625-1.5170898-.0673828-2.4111328-.1552734-2.6826172-.0478516-.144043-.1474609-.2714844-.2998047-.3837891-.3027344-.215332-.7001953-.3510742-1.1914062-.4072266-.4902344-.0556641-.8085938-.1035156-.9521484-.1435547Z"/>
      </g>
    </g>
    <rect class="cls-2" width="450" height="45.5"/>
  </g>
</svg>