<?xml version="1.0" encoding="UTF-8"?>
<svg id="_レイヤー_2" data-name="レイヤー 2" xmlns="http://www.w3.org/2000/svg" viewBox="0 0 661 48">
  <defs>
    <style>
      .cls-1, .cls-2 {
        stroke-width: 0px;
      }

      .cls-2 {
        opacity: 0;
      }
    </style>
  </defs>
  <g id="_レイヤー_1-2" data-name="レイヤー 1">
    <rect class="cls-2" x="0" y="0" width="661" height="48"/>
    <g>
      <path class="cls-1" d="m.2089844,12.5761719l-.2089844-.2089844c1.6713867-1.4628906,3.1533203-3.6660156,3.9702148-5.7749023-.1328125-.6459961-.3417969-1.2919922-.5888672-1.918457-.9121094.8925781-1.956543,1.7094727-3.0585938,2.3554688l-.1899414-.2280273c.987793-.8359375,1.9760742-1.8999023,2.8115234-3.0014648-.5126953-.9501953-1.253418-1.8808594-2.2416992-2.7548828l.3041992-.265625c1.0258789.7026367,1.8237305,1.4814453,2.4316406,2.3364258.6459961-.9116211,1.2915039-2.1655273,1.5195312-3.0776367,1.8618164.9501953,1.8618164,1.1396484,1.5200195,1.1972656l-.3417969.0375977c-.5322266.8549805-1.2539062,1.8046875-2.1088867,2.7163086,1.1020508,1.9379883,1.4057617,4.1416016,1.4248047,6.5351562.0571289,2.4316406-.1899414,5.0537109-1.0830078,6.3076172-.3608398.53125-.96875.7402344-1.8803711.7402344,0-.4365234-.1142578-.7216797-.3422852-.8735352-.246582-.1708984-.7597656-.3798828-1.4248047-.4936523v-.3232422s1.4628906.1328125,2.2226562.1328125c.3232422,0,.4560547-.0566406.6079102-.265625.5507812-.7792969.7597656-3.1157227.7597656-5.2246094,0-.6074219,0-1.1962891-.0375977-1.7851562-.9121094,1.3671875-2.4316406,2.8491211-4.0654297,3.8369141ZM15.140625,3.5336914c.1708984-.2089844.2851562-.4370117.4370117-.4370117.2280273,0,1.4057617.987793,1.4057617,1.2729492-.1137695.1518555-.3989258.3041992-.7978516.3798828v1.918457c.0380859,1.9189453.0571289,2.5649414.1328125,3.7426758-.1518555.1899414-.7216797.4750977-1.1015625.4750977-.1713867,0-.2280273-.1904297-.2280273-.3798828.0380859-.0761719.019043-.1333008.0566406-.2661133v-.3227539h-3.1342773v5.0527344c1.0449219-.1137695,2.1274414-.246582,3.2485352-.3984375-.4560547-1.0068359-1.0449219-1.9570312-1.5957031-2.6977539l.2470703-.1518555c4.6352539,3.1533203,3.5141602,6.7441406,2.1274414,5.4707031-.0571289-.7026367-.284668-1.5004883-.6269531-2.2607422-2.1088867.5322266-4.8823242,1.2158203-8.5678711,1.9951172-.0947266.2280273-.3037109.3798828-.4555664.4179688l-.5512695-1.7099609c.9882812-.0566406,2.8310547-.2470703,5.0341797-.5126953v-5.2050781h-2.925293v.3798828c.0380859.3608398.019043.4936523.0571289.6269531-.0571289.2275391-.5322266.5126953-1.0068359.5126953-.2089844,0-.3417969-.1899414-.3417969-.3798828.0756836-.8168945.0947266-1.2348633.1328125-2.4697266v-1.4248047c0-1.2919922-.0761719-2.8496094-.2470703-3.8945312l1.5009766.703125h2.8300781c0-1.2729492-.0756836-2.8115234-.246582-3.8374023,1.956543.5698242,1.956543.7597656,1.6713867.96875l-.284668.1899414v2.6787109h2.9448242l.284668-.4370117Zm-7.2949219,5.8129883h2.925293v-4.8251953h-2.925293v4.8251953Zm7.199707-4.8251953h-3.1342773v4.8251953h3.1342773v-4.8251953Z"/>
      <path class="cls-1" d="m33.3618164,16.0717773l.4370117-.6079102c.2280273-.3037109.4179688-.6079102.5698242-.6079102.2280273,0,1.671875,1.1782227,1.671875,1.4628906-.0571289.2089844-.2280273.3041992-.4941406.3041992h-13.0703125c-.9873047.0185547-1.8994141.1137695-2.8491211.265625l-.4941406-.96875c.8359375.0947266,1.671875.1328125,2.5268555.1518555h6.8198242c.6650391-1.956543,1.3295898-4.3696289,1.8618164-6.6298828.265625-1.2158203.5126953-2.6977539.5126953-3.7426758,2.2607422.5888672,2.2607422.7792969,1.9189453.9501953l-.3417969.1518555c-.7602539,2.6025391-2.0898438,6.3637695-3.5336914,9.2705078h4.4643555Zm-.2470703-12.5571289c.2280273-.3037109.3989258-.6079102.5507812-.6079102.2280273,0,1.671875,1.1586914,1.671875,1.4438477-.0566406.2089844-.2470703.3037109-.5126953.3037109h-11.5693359c-.987793.0195312-1.8999023.1142578-2.8496094.2661133l-.4750977-.949707c.8359375.0947266,1.671875.1328125,2.5268555.1518555h4.5400391v-.0952148c0-1.2915039-.0756836-2.8496094-.2470703-3.894043,2.1279297.5888672,2.1279297.7788086,1.8046875.987793l-.3227539.2089844v2.7924805h4.4643555l.4179688-.6079102Zm-10.0874023,2.5458984c3.9516602,5.4326172,2.9448242,9.9355469,1.5004883,8.3583984.0761719-2.5644531-.9116211-5.9462891-1.7856445-8.2636719l.2851562-.0947266Z"/>
      <path class="cls-1" d="m52.855957,12.3671875c-1.9760742,2.2226562-4.9204102,4.0654297-7.7128906,3.4956055-1.8242188-.3798828-2.8876953-1.5200195-2.9448242-4.2172852-.1137695-4.1796875.4936523-6.1738281.3608398-8.0361328-.1137695-1.2915039-.4365234-1.4624023-.7788086-1.6523438-.1518555-.0952148-.2280273-.3417969.1333008-.3994141.3608398-.0566406.7407227.0195312,1.0825195.1904297.7407227.3417969.9311523,1.5195312.8549805,2.1845703-.0380859.3417969-.1142578.8740234-.1518555,1.3676758-.2851562,2.659668-.5322266,4.5024414-.3989258,6.5922852.1328125,2.2036133,1.0253906,2.640625,2.4697266,2.90625.949707.1904297,3.0205078.3041992,6.8769531-2.6787109.1518555-.1137695.3608398-.265625.4365234-.1894531.0761719.0947266-.0756836.265625-.2275391.4365234Z"/>
      <path class="cls-1" d="m65.3017578,3.9707031c.0756836.1518555.0756836.4365234-.3608398.7597656-.6650391.4941406-1.5200195,1.0068359-2.4316406,1.3867188-.703125,3.2675781-1.690918,7.8076172-1.8999023,8.4726562-.3227539,1.0263672-.5507812,1.2353516-1.0830078,1.0639648-.5317383-.1899414-.6459961-.7597656-.3417969-1.3295898.0571289-.1328125.6079102-1.40625.9311523-2.3178711.5317383-1.4248047,1.1015625-3.2866211,1.5195312-5.565918-.6459961.2089844-1.2919922.3227539-1.8618164.3037109-.4179688-.019043-1.1206055-.3989258-1.6147461-.9121094-.1518555-.1513672-.1142578-.265625-.1142578-.265625.0761719-.1142578.2285156,0,.3803711.0380859.1518555.0566406,1.1586914.4179688,2.640625-.0952148.1899414-.0571289.3608398-.1328125.5507812-.2089844.0756836-.0375977.1518555-.0571289.2280273-.0952148.0761719-.5507812.1518555-1.1396484.2089844-1.7285156.019043-.1518555.0947266-.96875-.0952148-1.3676758-.1708984-.3798828-.7407227-.6459961-.7978516-.722168-.0571289-.0756836-.0756836-.1137695-.0375977-.2089844.0375977-.1513672.9116211,0,1.3105469.2285156.3989258.2089844.96875.4555664.8168945,1.2915039l.019043.019043c.019043.019043.3037109.4370117.7597656.6650391.2089844.1137695.4560547.2089844.703125.265625.1899414.0571289.4560547.1142578.5698242.3232422Zm-1.5581055,0c0-.2280273-.246582-.4560547-.4365234-.684082l-.1523438-.1518555c-.0756836.3232422-.1899414.8740234-.3417969,1.5576172.1899414-.0947266.3608398-.1899414.5507812-.2851562.1523438-.0947266.3798828-.2089844.3798828-.4365234Zm8.2260742,10.8095703c.3041992.9873047-1.2919922,1.0449219-2.621582,1.0253906-1.6147461-.0380859-3.1157227-.6269531-3.6665039-1.7094727-.5507812-1.0830078-.1518555-2.1469727-.0952148-2.3364258.0952148-.2851562.2661133-.4941406.3798828-.4755859.1142578.0380859.0195312.2470703,0,.6269531-.0185547.1713867-.0566406,1.1210938.703125,1.7861328.4941406.4560547,1.6337891.8925781,3.1728516.703125,1.5761719-.1713867,1.956543-.1142578,2.1274414.3798828Zm.4750977-8.3212891c-.1708984.3994141-1.2919922.4375-1.8808594.6269531-.3989258.1333008-.8930664.4179688-1.1210938.5507812-.1137695.0761719-.284668.0952148-.3037109.0380859-.019043-.0380859-.0380859-.0947266.0380859-.1894531.1137695-.1523438.96875-.703125,1.3867188-1.1777344.1328125-.1523438.2280273-.2666016.2280273-.3994141,0-.1137695-.1899414-.2851562-.2661133-.3608398-.6650391-.5131836-1.652832-.5131836-2.0898438-.4370117-.2089844.019043-.3608398-.0566406-.3989258-.1328125-.0375977-.0947266.0571289-.2280273.1713867-.2661133,1.3676758-.5698242,2.7924805-.1518555,3.4570312.3041992.6650391.4560547.8549805,1.2539062.7792969,1.4433594Z"/>
      <path class="cls-1" d="m75.9619141,13.6210938c-.1708984.0761719-.3227539.1328125-.3798828.019043-.0761719-.0952148.1137695-.2280273.2661133-.3417969,2.3364258-1.5200195,5.3378906-4.4077148,5.6040039-6.0791016.0380859-.2851562-.2661133-.4941406-.4560547-.5893555-.2280273-.0947266-.4555664-.1328125-.4555664-.265625,0-.1518555.1328125-.1708984.4555664-.2089844.3041992-.0380859,1.1967773-.1708984,1.8427734.2851562.5888672.4365234.8359375.987793.4936523,1.4433594-1.5195312,1.9951172-4.4638672,4.3505859-7.3706055,5.7373047Zm14.6850586-2.1279297c-.6650391-1.4248047-1.9570312-3.3808594-4.3886719-4.9960938-.0947266-.0566406-.1899414-.1328125-.1708984-.2275391.019043-.1142578.1328125-.0952148.3232422-.0380859,1.5957031.5317383,4.7490234,2.4697266,5.6796875,4.2363281.3422852.6269531-.0756836,1.6523438-.4936523,1.7666016-.4370117.1142578-.6269531-.0566406-.949707-.7412109Zm2.0517578-7.3515625c0,.987793-.7983398,1.8046875-1.8051758,1.8046875s-1.8046875-.8168945-1.8046875-1.8046875c0-1.0068359.7978516-1.8237305,1.8046875-1.8237305s1.8051758.8168945,1.8051758,1.8237305Zm-.4941406,0c0-.7412109-.5888672-1.3300781-1.3110352-1.3300781-.7216797,0-1.3105469.5888672-1.3105469,1.3300781,0,.7216797.5888672,1.3105469,1.3105469,1.3105469.722168,0,1.3110352-.5888672,1.3110352-1.3105469Z"/>
      <path class="cls-1" d="m97.4506836,4.5024414c.0380859-.1899414.3037109-.1899414.5126953-.1899414.2089844-.019043,1.3486328.1708984,1.7285156.6079102.0571289.0571289.1142578.1713867.1713867.3041992.6269531-.0380859,1.690918-.1708984,2.8115234-.3041992.0380859-.4555664.0380859-1.253418-.019043-1.8046875-.0761719-.722168-.2661133-.7978516-.5126953-1.0068359-.2661133-.1899414-.4370117-.1518555-.4370117-.3608398.019043-.2089844.6459961-.3417969,1.0825195-.3232422.4560547.0195312.8359375.1142578,1.1020508.3232422.2661133.2275391.3608398.5126953.2470703.949707-.0761719.3422852-.2661133.8359375-.2661133,1.3676758,0,.3041992,0,.5322266.019043.684082,1.4628906-.1899414,2.7734375-.3989258,3.0395508-.4560547.3989258-.0952148.6459961-.4936523.8740234-.4936523.2275391,0,1.4433594.7597656,1.5957031.949707.1708984.1899414.3037109.2661133.265625.5131836-.0380859.265625-.4555664.2275391-.6269531.5126953-.1894531.265625-.2275391.3608398-.4179688.8925781-1.5957031,4.5595703-3.4951172,7.7509766-9.840332,10.0688477-.1328125.0571289-.3798828.1137695-.3989258.0375977-.019043-.0756836.1142578-.1513672.3417969-.246582,6.2314453-3.1342773,7.9599609-7.7319336,8.605957-10.7905273.1137695-.5126953.019043-.7788086-.4560547-.7216797-.7216797.0761719-5.6040039.7788086-6.8198242.96875.1518555.8168945.2280273,1.8808594.2851562,2.3554688.0947266.7597656.1518555,1.1591797.1518555,1.5009766.019043.3417969-.2661133.7216797-.5322266.7978516s-.9306641-.4750977-.8735352-1.2348633c.1328125-1.3491211-.1142578-3.6474609-.4750977-4.0463867s-.7026367-.6269531-.8740234-.6650391c-.1708984-.0380859-.3037109-.0947266-.284668-.1899414Z"/>
      <path class="cls-1" d="m114.3417969,16.6230469c-.1899414.0756836-.4936523.1513672-.5131836,0-.0375977-.1333008.1142578-.1713867.3803711-.3041992,3.4575195-1.690918,6.269043-4.1791992,8.3393555-6.6870117-.284668-.3037109-.5126953-.5322266-.6645508-.6650391-.3608398-.3608398-1.3867188-1.0830078-1.4628906-1.1396484-.0952148-.0761719-.1518555-.1523438-.1137695-.2280273.0185547-.0571289.1708984-.019043.284668.019043.8740234.265625,1.7856445.7216797,2.5834961,1.2158203,1.0068359-1.3105469,1.8046875-2.6025391,2.394043-3.7802734.1137695-.2285156.2089844-.4375.1137695-.5512695-.0947266-.1328125-.1708984-.1518555-.3798828-.1137695-.987793.2470703-2.2036133.3608398-3.0395508.3037109-.3041992-.0380859-.5317383-.1137695-.7026367-.2470703-1.3300781,1.8808594-3.7426758,4.5405273-5.1484375,5.3574219-.0952148.0571289-.2089844.0761719-.2851562-.0380859-.0566406-.1137695.1328125-.2851562.2280273-.3798828,1.6147461-1.3105469,4.2744141-5.1865234,4.5024414-6.7441406.0761719-.5507812-.0571289-.8740234-.3798828-.96875-.3232422-.0947266-.4750977.019043-.4941406-.0947266-.0566406-.2280273.6079102-.4179688.8740234-.3994141.5317383.0195312,1.2348633.5512695,1.6337891.9311523.3798828.3989258.019043.6645508-.1142578.949707-.0947266.2470703-.246582.5322266-.4746094.8740234.0566406.019043.0947266.019043.1328125.0380859.5888672.0185547,2.6025391-.1142578,3.2675781-.3613281.6650391-.2275391.6650391-.3603516,1.0639648-.3227539.3989258.0380859,1.1777344.7407227,1.3486328.949707.1899414.2285156.3041992.3422852.1137695.6083984-.2089844.265625-.6074219.0756836-.9306641.6455078-.8549805,1.5200195-1.7666016,2.8496094-2.7353516,4.0273438.4936523.3798828.8925781.7412109,1.1396484,1.0449219.6459961.8168945.5888672,1.7861328.0761719,1.9951172-.3994141.1708984-.7597656-.1904297-1.0068359-.5888672-.3613281-.5703125-.722168-1.0449219-1.0449219-1.4628906-2.6787109,2.9443359-5.7373047,4.84375-8.9858398,6.1171875Zm16.128418-12.6337891c0,.3613281-.0947266.5512695-.3227539.6269531-.2470703.0952148-.684082-.0185547-.9116211-.4746094-.2470703-.4941406-.7978516-1.3105469-1.40625-1.7285156-.1894531-.1142578-.4555664-.2285156-.4179688-.3613281.0571289-.1708984.3803711-.0947266.684082-.0185547.3041992.0756836,2.3178711.7783203,2.3745117,1.9560547Zm.3422852-1.5380859c-.4179688-.5893555-.8549805-1.0263672-1.5581055-1.3681641-.1894531-.0761719-.4555664-.1708984-.4365234-.3037109.0380859-.1523438.3989258-.1142578.6455078-.0952148.5131836.0571289,2.2797852.3422852,2.4697266,1.4438477.0571289.3608398-.0185547.5507812-.2275391.6455078-.1904297.1142578-.6269531.0761719-.8930664-.3222656Z"/>
      <path class="cls-1" d="m134.1967773,7.9980469c.0947266-.019043.3227539.2470703.5698242.3417969.3989258.1523438,1.1020508.3041992,2.0327148.2851562s3.7045898.0380859,5.1293945.019043c4.0083008-.0571289,4.6542969-.0761719,5.6040039-.0761719.96875,0,1.8618164.0761719,1.7666016.8930664-.0380859.3417969-1.1967773.3798828-1.5385742.3608398-.684082-.0380859-3.2675781.019043-5.9082031,0-1.2348633,0-4.7495117.019043-5.527832.1708984-.6650391.1137695-1.1210938.1518555-1.5390625-.1328125-.4370117-.2851562-1.0639648-.9121094-.7788086-1.6147461.0571289-.1328125.0947266-.2470703.1899414-.2470703Z"/>
      <path class="cls-1" d="m158.0029297,8.0170898c-.7788086,2.3935547-3.7426758,6.1362305-5.8701172,7.4658203-.2089844.1333008-.2661133.0952148-.3227539.019043-.0380859-.0761719.0566406-.1708984.1899414-.3037109,2.4125977-2.2226562,4.2172852-5.5854492,4.7871094-8.0551758.1333008-.5698242.2089844-1.0444336-.4370117-1.4248047-.2470703-.1518555-.4365234-.3227539-.3417969-.4555664.0761719-.1333008.7978516-.1142578,1.5009766.265625.3798828.2089844.949707.7216797,1.0253906,1.2158203.0380859.3037109-.284668.5126953-.5317383,1.2729492Zm11.1132812-1.0258789c-1.4624023,1.7099609-5.262207,5.0151367-7.5795898,6.1933594-.3989258.2089844-.684082-.0380859-.8740234-.2285156-.1899414-.1894531-.6835938-.6645508-.4179688-1.1015625.2470703-.4370117.0571289-1.7861328.1328125-3.2675781.0761719-1.8237305.2280273-2.90625-.0756836-3.2485352-.5317383-.5888672-1.0068359-.4555664-.8930664-.7407227.0571289-.1523438.4750977-.2470703.8930664-.2089844.5888672.0566406,1.5385742.4746094,1.7285156,1.1396484.1142578.4179688-.1899414.4179688-.284668.8740234-.1523438.8544922-.3232422,4.5019531-.3232422,4.7304688,0,.246582.1899414.3227539.4941406.2089844,2.640625-1.0263672,5.2241211-3.0966797,6.9907227-4.6357422.3041992-.265625.3608398-.2851562.4560547-.2089844s-.019043.2089844-.2470703.4941406Z"/>
      <path class="cls-1" d="m172.1967773,7.9980469c.0947266-.019043.3227539.2470703.5698242.3417969.3989258.1523438,1.1020508.3041992,2.0327148.2851562s3.7045898.0380859,5.1293945.019043c4.0083008-.0571289,4.6542969-.0761719,5.6040039-.0761719.96875,0,1.8618164.0761719,1.7666016.8930664-.0380859.3417969-1.1967773.3798828-1.5385742.3608398-.684082-.0380859-3.2675781.019043-5.9082031,0-1.2348633,0-4.7495117.019043-5.527832.1708984-.6650391.1137695-1.1210938.1518555-1.5390625-.1328125-.4370117-.2851562-1.0639648-.9121094-.7788086-1.6147461.0571289-.1328125.0947266-.2470703.1899414-.2470703Z"/>
      <path class="cls-1" d="m197.21875,5.1865234c.1333008-.5888672-.1137695-1.1591797-.3227539-1.3867188-.2089844-.2280273-.3798828-.2470703-.3417969-.3417969.0375977-.1904297.4936523-.1142578.7597656-.0576172.4179688.0952148,1.5385742.6269531,2.0136719,1.2734375.4941406.6645508-.5126953.8354492-1.0830078,1.7094727-.4560547.722168-2.4506836,4.2553711-3.6474609,6.0791016,1.7861328-.0952148,4.8823242-.5888672,7.8076172-1.1782227l.0952148.0576172c-.3989258-.6464844-1.0258789-1.3867188-1.918457-1.9760742-.1333008-.0756836-.3422852-.1899414-.3041992-.3417969s.3041992-.0952148.4750977-.0571289c.265625.0761719,4.0463867,1.2348633,4.1035156,3.6665039.0380859.9116211-.5131836,1.0639648-.8554688,1.1020508-.3603516.0380859-.7402344-.5507812-.8735352-1.0639648-.0571289-.1899414-.1708984-.5317383-.3989258-.9311523-1.5576172.4179688-7.3896484,1.9951172-8.0546875,2.1088867-.7597656.1137695-.684082.5131836-1.1591797.5317383-.4746094.0380859-1.5576172-.5507812-1.6523438-2.3935547-.019043-.1899414-.019043-.3989258.0756836-.4179688.0952148-.0380859.2661133.3041992.3798828.4560547.1713867.1899414.2470703.3989258,1.387207.4560547,1.4433594-2.1279297,3.3432617-6.3828125,3.5141602-7.2949219Z"/>
      <path class="cls-1" d="m219.5620117,9.6508789c-.1137695,1.1777344-.7026367,4.1982422-1.8803711,5.3759766-.4370117.4370117-1.1401367.9692383-1.4819336.7788086-.3798828-.2089844-.4560547-.4746094-.6650391-.9306641-.1708984-.3798828-.3417969-.6269531-.9116211-1.4438477-.0952148-.1518555-.2470703-.3227539-.1899414-.3798828.0947266-.0756836.3608398.1333008.7788086.4370117.4560547.3037109.8740234.6650391,1.1586914.6455078.4560547,0,1.0830078-.284668,1.7480469-2.4882812.6455078-2.2036133.8740234-4.3505859-.1142578-4.9960938-.5507812-.3613281-1.8232422.0756836-2.6972656.4746094-.4370117,1.9375-1.2729492,4.5976562-2.8496094,7.1811523-.4560547.7407227-1.0449219,1.1586914-1.4628906.7216797-.2851562-.3037109-.1142578-.8930664.6079102-1.8618164,1.6337891-2.203125,2.3178711-4.1982422,2.659668-5.565918-.8549805.3798828-1.8999023.7788086-2.2416992.8549805-.2661133.0761719-1.1586914.0566406-1.8427734-1.0639648-.1518555-.2470703-.284668-.5888672-.0756836-.6459961.1328125-.0566406.284668.0571289.53125.1899414.5322266.2851562.8740234.2470703,1.1025391.2280273.53125-.019043,1.7470703-.2470703,2.7539062-.6459961.0380859-.1518555.0576172-.284668.0761719-.3989258.2280273-1.0253906.3232422-2.3935547-.2089844-3.0966797-.1518555-.1894531-.6074219-.5693359-.5317383-.7783203.1137695-.3803711,1.5957031-.0576172,1.8803711.2089844.5322266.5507812.1904297,1.3671875.0761719,2.0136719-.0380859.284668-.1137695.8735352-.2851562,1.6904297.9692383-.3037109,2.355957-.5698242,3.1162109-.019043.9873047.722168,1.0634766,2.0708008.9492188,3.5146484Zm6.4970703-1.1206055c.0761719,1.3867188-.96875,1.7470703-1.1396484,1.7666016-.1513672.0185547-.2470703-.0761719-.6455078-.3232422-.3613281-.2851562-1.7290039-.4365234-1.8046875-.4365234-.0761719,0-.2470703-.0195312-.2666016-.0761719,0-.0761719.1904297-.0952148.1904297-.0952148,0,0,1.1586914-.0952148,1.3867188-.1518555.2470703-.0571289.53125-.1708984.7402344-.3232422.2089844-.1708984.1523438-1.0253906-.5693359-1.8046875-.6650391-.7216797-1.8994141-1.234375-2.1279297-1.2915039-.0566406-.019043-.1894531-.0380859-.1708984-.1137695.019043-.0576172.1904297-.0380859.2280273-.0380859,2.6791992.0566406,4.1225586,1.6523438,4.1791992,2.8876953Zm-3.7421875-5.4716797c0-.1708984.3989258-.1708984.6650391-.1899414.265625,0,2.1083984.0571289,2.4316406,1.1782227.1142578.3603516.0566406.5507812-.1523438.7026367-.2089844.1333008-.6650391.1333008-.9873047-.2470703-.3613281-.4179688-.6083984-.8168945-1.4824219-1.1967773-.1894531-.0761719-.4746094-.1142578-.4746094-.2470703Zm4.4833984-.0566406c-.2089844.1328125-.5888672.1328125-.9306641-.2089844-.3798828-.3994141-.7978516-.8549805-1.5195312-1.0830078-.1904297-.0571289-.4941406-.0947266-.4941406-.2280273.0185547-.1518555.3984375-.1899414.6640625-.2089844.1904297,0,2.1474609.019043,2.4707031,1.1967773.0751953.3037109-.0576172.4370117-.1904297.5322266Z"/>
      <path class="cls-1" d="m233.3383789,4.0844727c.2089844-.284668.3603516-.5698242.5126953-.5698242.2275391,0,1.4443359,1.1210938,1.4443359,1.4057617-.0576172.2089844-.2285156.3041992-.4755859.3041992h-2.4130859v3.7993164c.8554688-.3041992,1.7861328-.6269531,2.6982422-.949707l.0947266.265625c-.7402344.4179688-1.671875.9501953-2.7929688,1.5390625v2.6210938c.0390625,2.2802734.0761719,3.0400391.1523438,4.4648438-.1523438.2851562-.6269531.5888672-1.0634766.5888672-.2089844,0-.3994141-.1904297-.3994141-.3798828.0957031-1.4438477.1523438-2.1660156.1904297-4.331543v-2.3745117c-.6455078.3227539-1.3115234.6650391-2.0517578,1.0253906-.0761719.2470703-.2089844.4179688-.3798828.4941406l-.7412109-1.5766602c.6269531-.1708984,1.7861328-.5317383,3.1728516-1.0068359v-4.1791992h-1.5009766c-.3232422,1.0830078-.7412109,2.0517578-1.2539062,2.8300781l-.3037109-.1708984c.2470703-.7026367.4560547-1.5004883.6269531-2.3745117.265625-1.2348633.3798828-3.0395508.265625-4.1030273,1.9755859.3798828,1.9755859.5693359,1.6533203.7407227l-.3046875.1708984c-.1328125.7978516-.3222656,1.5766602-.5126953,2.3364258h1.3300781v-.7216797c0-1.2919922-.0761719-2.8496094-.2470703-3.8945312,2.0136719.6079102,2.0136719.7978516,1.6904297,1.0258789l-.3232422.2089844v3.3813477h.5517578l.3798828-.5698242Zm9.8398438,1.7290039c.2089844-.2851562.3808594-.5888672.5322266-.5888672.2275391,0,1.5009766,1.1586914,1.5009766,1.4433594-.0566406.2089844-.2285156.3041992-.4746094.3041992h-7.6367188c-.9882812.019043-1.9003906.1137695-2.8496094.2661133l-.4941406-.9882812c.8359375.0952148,1.671875.1333008,2.5263672.1523438h2.3369141v-2.8876953h-1.2158203c-.7607422.019043-1.4824219.1142578-2.2041016.2661133l-.4941406-.987793c.8359375.0947266,1.671875.1328125,2.5273438.1518555h1.3867188c0-.9116211-.0576172-2.0517578-.171875-2.8305664,1.9951172.5888672,1.9951172.7788086,1.6533203.987793l-.3232422.2089844v1.6337891h2.1464844l.3808594-.5698242c.2089844-.2851562.3798828-.5703125.53125-.5703125.2285156,0,1.4824219,1.1210938,1.4824219,1.40625-.0576172.2089844-.2285156.3037109-.4941406.3037109h-4.046875v2.8876953h3.0214844l.3789062-.5888672Zm-.3222656,3.7993164l.3603516-.5698242c.2089844-.2851562.3613281-.5703125.5126953-.5703125.2285156,0,1.40625,1.1020508,1.40625,1.387207-.0566406.2084961-.2275391.3037109-.4746094.3037109h-2.4316406v5.5664062c0,1.0258789-.2089844,1.6333008-1.9755859,1.8237305-.0576172-.3989258-.1523438-.7216797-.4375-.8930664-.2841797-.2280273-.7978516-.3608398-1.671875-.4936523v-.3041992s2.0712891.1518555,2.4511719.1518555.4560547-.1137695.4560547-.3798828v-5.4711914h-3.8945312c-.9882812.019043-1.9003906.1137695-2.8496094.2661133l-.4941406-.96875c.8359375.0947266,1.671875.1328125,2.5263672.1518555h4.7119141c0-.8359375-.0380859-1.8237305-.1523438-2.5268555,1.9755859.5888672,1.9755859.7792969,1.6523438.96875l-.3222656.1904297v1.3676758h.6269531Zm-7.2568359,1.2729492c4.1982422,1.4057617,3.2480469,4.3125,1.8798828,3.3623047-.2275391-1.0634766-1.2539062-2.4125977-2.0507812-3.2104492l.1708984-.1518555Z"/>
      <path class="cls-1" d="m247.2280273,10.6767578l-.2275391-.2280273c.7402344-.8740234,1.4433594-1.9760742,2.0703125-3.0966797.5888672-1.1020508,1.1210938-2.4692383,1.3300781-3.5141602l1.5576172.8735352c0-1.0639648-.0576172-2.3745117-.2089844-3.2485352,1.8613281.5703125,1.8613281.7597656,1.5380859.96875l-.3037109.1904297v2.9633789h1.3300781v-1.5009766c0-1.2915039-.0761719-2.8491211-.2470703-3.894043,1.8242188.5693359,1.8242188.7597656,1.5390625.949707l-.2851562.1899414v4.2553711h1.4433594v-.2661133c0-1.2919922-.0761719-2.8496094-.2460938-3.8945312,1.8994141.5703125,1.8994141.7597656,1.5761719.96875l-.3037109.1904297v1.0253906c.0380859,1.387207.0566406,1.8623047.1142578,2.6787109-.1142578.2280273-.5703125.4750977-.9501953.4750977h-.1904297v-.6459961h-3.7802734v.703125c0,.1328125-.4365234.3608398-.8164062.3608398-.2089844,0-.3037109-.1899414-.3037109-.3798828.0566406-.3227539.0566406-.4750977.0947266-.9692383v-.6835938c-.0947266,0-.1904297,0-.3232422-.0380859-.4375.7792969-1.0449219,1.7099609-1.7285156,2.621582.96875.6650391.96875.8549805.703125.987793l-.2666016.1328125v3.7807617c.0380859,2.2797852.0761719,3.0395508.1523438,4.4643555-.1708984.1899414-.6464844.4746094-1.0830078.4746094-.2285156,0-.4375-.1894531-.4375-.3798828.1142578-1.6337891.171875-2.4692383.2089844-4.9389648v-3.609375c-.6074219.7407227-1.2539062,1.4243164-1.9560547,2.0327148Zm4.3310547-9.4228516l-.3222656.0380859c-.8359375,1.1777344-2.2617188,2.7734375-3.7617188,3.8374023l-.2089844-.2280273c.3798828-.4179688.7597656-.9306641,1.1210938-1.4433594.7216797-1.0263672,1.4052734-2.4511719,1.6904297-3.4580078l1.0068359.6650391c.8164062.3613281.8164062.5507812.4746094.5888672Zm10.8857422,2.4887695c.1894531-.2470703.3232422-.5131836.4746094-.5131836.2275391,0,1.3867188.9882812,1.3867188,1.2729492-.0380859.2089844-.2275391.3041992-.4560547.3041992h-.9121094c-.2275391,3.1152344-.6835938,5.6611328-1.8232422,7.7695312.7597656,1.4628906,1.7666016,2.6977539,3.1162109,3.5908203l-.0576172.1708984c-.3994141.1708984-.6835938.6079102-.8173828,1.2724609-1.2539062-1.1206055-2.1650391-2.5073242-2.8300781-4.0654297-1.1210938,1.6152344-2.7353516,2.9448242-5.0917969,4.0273438l-.1513672-.265625c2.3173828-1.3867188,3.8369141-2.9824219,4.8056641-4.9013672-.53125-1.5766602-.8349609-3.3056641-1.0634766-5.0908203-.3232422.6455078-.6455078,1.234375-1.0068359,1.7666016l-.2851562-.1333008.1523438-.3608398h-2.6601562v2.4887695h.875l.3037109-.4750977c.1708984-.2470703.3037109-.4941406.4560547-.4941406.2275391,0,1.2910156.9501953,1.2910156,1.2353516-.0566406.2089844-.2275391.3037109-.4550781.3037109h-2.4707031v2.621582c.9501953-.2089844,1.9951172-.4370117,3.0214844-.6645508l.0761719.284668c-1.4824219.5507812-3.4580078,1.3295898-6.0986328,2.1845703-.0566406.2470703-.2275391.3989258-.3994141.4560547l-.53125-1.4438477c.5888672-.0947266,1.5957031-.3037109,2.8115234-.5698242v-2.8686523h-.703125c-.4179688.019043-.8173828.1142578-1.2158203.265625l-.4746094-.9873047c.53125.0947266,1.0634766.1328125,1.6337891.1518555h.7597656v-2.4887695h-.8173828c-.4941406.019043-.9121094.1142578-1.3671875.265625l-.4941406-.9873047c.8359375.0947266,1.671875.1328125,2.5263672.1518555h2.1845703l.7412109-.987793s.6835938.5507812,1.1962891,1.0634766c.4179688-1.1396484.7792969-2.4697266,1.0644531-3.875.2470703-1.2353516.4365234-2.9824219.3417969-4.046875,2.0517578.3994141,2.0517578.5888672,1.7285156.7792969l-.3222656.1708984c-.1904297,1.0634766-.4375,2.1279297-.7412109,3.1347656h1.9560547l.3427734-.5131836Zm-2.4697266,1.0639648c-.1904297.6455078-.4179688,1.2724609-.6650391,1.8613281.265625,1.690918.6650391,3.2871094,1.2539062,4.7114258.7412109-1.8803711,1.0634766-4.0463867,1.1962891-6.5727539h-1.7851562Z"/>
      <path class="cls-1" d="m271.3188477,3.6289062l.2851562-.3798828c.1708984-.1904297.2851562-.3994141.4375-.3994141.2275391,0,1.4052734.9121094,1.4052734,1.1972656-.1328125.1513672-.4365234.284668-.8173828.3603516v6.6494141c.0390625,2.2792969.0761719,3.0395508.1523438,4.4643555-.1708984.2089844-.703125.5317383-1.1015625.5317383-.1708984,0-.2470703-.1899414-.2470703-.3798828.0380859-.1708984.0380859-.265625.0761719-.5322266v-.4555664h-3.2861328v.4750977c.0371094.4746094.0371094.6269531.0751953.8359375-.0751953.246582-.4931641.5507812-1.0253906.5507812-.1708984,0-.3798828-.1904297-.3798828-.3798828.1132812-1.6337891.1708984-2.4697266.2089844-4.9394531v-4.4072266c0-1.2919922-.0761719-2.8496094-.2470703-3.8945312l1.4433594.703125h.6845703c.2841797-1.1210938.4931641-2.6025391.5126953-3.5717773,2.1083984.4936523,2.1083984.684082,1.7666016.8549805l-.3417969.1518555c-.3613281.7602539-.96875,1.8046875-1.40625,2.5649414h1.8046875Zm.1904297.5693359h-3.2861328v4.5410156h3.2861328v-4.5410156Zm-3.2861328,9.9169922h3.2861328v-4.8447266h-3.2861328v4.8447266Zm12.7460938-10.5244141l.3232422-.4370117c.1904297-.2089844.3232422-.4370117.4755859-.4370117.2275391,0,1.3486328,1.0068359,1.3486328,1.2919922-.1337891.1708984-.3613281.2470703-.7607422.3037109-.2460938,6.7250977-.8925781,11.0751953-1.8994141,12.215332-.5693359.6645508-1.3105469.9116211-2.2226562.9116211,0-.3798828-.0751953-.7026367-.3417969-.9116211-.2851562-.2280273-1.1015625-.4560547-1.8613281-.5888672l.0380859-.3227539c.8359375.0947266,2.203125.2275391,2.6210938.2275391.3984375,0,.5888672-.0566406.8164062-.3037109.8359375-.7597656,1.3681641-5.1293945,1.6533203-11.3984375h-5.3574219c-.7597656,1.5766602-1.671875,2.9443359-2.6787109,3.9707031l-.2460938-.1713867c.6455078-1.0258789,1.2910156-2.3554688,1.8232422-3.8183594.4365234-1.1777344.8359375-3.0205078.8740234-4.0844727,2.0898438.6269531,2.0898438.8168945,1.7480469.96875l-.3232422.1333008c-.2851562.8549805-.5888672,1.6713867-.9306641,2.4506836h4.9003906Zm-5.6796875,3.5332031c4.5976562,2.0327148,3.5527344,5.1103516,2.2226562,4.046875-.265625-1.2919922-1.4628906-2.9257812-2.4316406-3.8945312l.2089844-.1523438Z"/>
      <path class="cls-1" d="m290.2807617,14.7421875c0,1.3867188-1.1015625,2.4882812-2.4697266,2.4882812-1.3671875,0-2.4882812-1.1015625-2.4882812-2.4882812,0-1.3681641,1.1210938-2.4697266,2.4882812-2.4697266,1.3681641,0,2.4697266,1.1015625,2.4697266,2.4697266Zm-.4560547,0c0-1.1020508-.9111328-1.9951172-2.0136719-1.9951172-1.1015625,0-2.0136719.8930664-2.0136719,1.9951172,0,1.1206055.9121094,2.0136719,2.0136719,2.0136719,1.1025391,0,2.0136719-.8930664,2.0136719-2.0136719Z"/>
      <path class="cls-1" d="m15.1025391,32.0517578c.1899414-.2275391.3232422-.4746094.4750977-.4746094.2280273,0,1.3295898,1.234375,1.3295898,1.5195312-.1328125.1328125-.3227539.1708984-.7026367.1899414-.5131836.5893555-1.4628906,1.3491211-2.1845703,1.8051758.2089844.1708984.3984375.3603516.5888672.53125-.0380859.2089844-.2280273.2851562-.4750977.2851562h-4.331543c.3798828,1.5009766.9121094,2.8686523,1.6337891,4.0844727.2089844-.1708984.3994141-.3417969.6079102-.5131836.9311523-.8354492,1.9570312-2.0322266,2.4506836-2.9824219,1.7099609,1.1777344,1.7099609,1.3681641,1.3681641,1.3867188l-.3232422.0195312c-.8925781.7783203-2.4316406,1.7475586-3.8945312,2.4501953,1.3300781,2.1464844,3.1914062,3.7617188,5.3764648,4.7871094l-.0571289.1523438c-.5317383.0380859-.987793.3989258-1.2539062,1.0068359-3.2861328-2.0708008-5.4140625-5.4902344-6.269043-10.3916016h-.3417969c-.6079102.5507812-1.2919922,1.0449219-2.0517578,1.5009766,3.609375,2.90625,3.7045898,7.9785156,2.3178711,9.5175781-.3613281.4560547-.9882812.6835938-2.0136719.6650391-.0195312-.3994141-.1713867-.6459961-.3798828-.8173828-.2470703-.1513672-.8930664-.3603516-1.5581055-.4555664l-.019043-.3227539c.7412109.0756836,2.0708008.1513672,2.5078125.1513672.2280273,0,.3989258-.0375977.5126953-.1894531.4750977-.6083984.703125-2.0136719.4560547-3.609375-2.1464844,1.7851562-5.3955078,3.3813477-8.5297852,4.1982422l-.1328125-.3232422c3.1342773-1.0830078,6.4780273-3.1533203,8.3208008-5.4331055-.1142578-.3608398-.2661133-.7407227-.4370117-1.1020508-1.8237305,1.3491211-4.597168,2.7358398-7.0859375,3.4765625l-.1518555-.3037109c2.3554688-.9501953,5.0722656-2.659668,6.6108398-4.3125-.2280273-.3227539-.4560547-.6455078-.7407227-.9306641-1.6152344.949707-3.5146484,1.7099609-5.4716797,2.2792969l-.1518555-.3227539c2.3178711-.9116211,4.6166992-2.2602539,6.2124023-3.6665039h-1.4248047c-.9121094.019043-1.7861328.1142578-2.659668.2661133l-.4750977-.949707c.8359375.0947266,1.671875.1328125,2.5268555.1518555h6.9907227l.7978516-1.0830078s.3417969.2661133.722168.5893555c.284668-.4941406.6459961-1.2353516.9306641-1.8242188H2.887207c-.0375977,1.2348633-.5507812,2.0708008-1.0444336,2.4697266-.4560547.3417969-1.1210938.4179688-1.3491211-.019043-.1708984-.3989258.0571289-.8168945.4370117-1.0639648.7407227-.4365234,1.4819336-1.7094727,1.4248047-3.0771484h.3227539c.1142578.4179688.1713867.7978516.2089844,1.1586914h5.1293945c0-.7788086-.0375977-1.7670898-.1518555-2.4316406,2.0327148.5888672,2.0327148.7788086,1.7099609.987793l-.3232422.2089844v1.2348633h5.5092773l.3417969-.4750977Z"/>
      <path class="cls-1" d="m25.1362305,33.3056641c.2089844-.2851562.3798828-.5888672.5317383-.5888672.2280273,0,1.5004883,1.1396484,1.5004883,1.4248047-.0375977.1899414-.2275391.2851562-.4746094.2851562h-3.8945312c-.019043.96875-.0380859,1.9375-.0947266,2.90625h1.8427734l.284668-.3798828c.1518555-.1899414.2661133-.3989258.4179688-.3989258.2280273,0,1.3110352.8740234,1.3110352,1.1586914-.1333008.1708984-.3613281.2470703-.7412109.3041992-.1328125,5.2431641-.5126953,7.7128906-1.2539062,8.5297852-.4560547.4746094-1.0825195.6650391-1.7285156.6650391,0-.3613281-.0571289-.6650391-.2851562-.8554688-.1708984-.1894531-.7216797-.3417969-1.2724609-.4365234l.0185547-.3417969c.5888672.0566406,1.5009766.1518555,1.8618164.1518555.3041992,0,.4370117-.0571289.6079102-.2089844.4941406-.4941406.8168945-2.9829102.9311523-7.637207h-2.0327148c-.2280273,3.5717773-.8740234,6.9912109-3.324707,9.6508789l-.3041992-.3041992c2.4511719-3.6279297,2.4511719-8.3779297,2.4697266-12.8037109h-.7026367c-.4179688.0185547-.8168945.1137695-1.2158203.265625l-.4750977-.96875c.7412109.0947266,1.4819336.1328125,2.2416992.1523438h1.0449219c0-1.1972656-.0756836-2.6787109-.2280273-3.6474609,2.0136719.5693359,2.0136719.7597656,1.7099609.96875l-.2851562.1894531v2.4892578h1.1591797l.3798828-.5703125Zm9.0805664,6.7441406c.2089844-.2661133.3798828-.5507812.5317383-.5507812.2280273,0,1.4628906,1.0634766,1.4628906,1.3486328-.0571289.2089844-.2280273.3037109-.4750977.3037109h-3.9321289c.4179688,2.1088867,1.5576172,4.0273438,4.578125,5.1865234l-.019043.2275391c-.5888672.1142578-.9306641.3232422-1.0639648,1.0068359-2.6787109-1.3671875-3.5141602-4.0078125-3.8564453-6.4208984h-.0185547c-.4560547,2.8115234-1.7670898,4.8828125-5.9272461,6.4208984l-.2089844-.3417969c3.4384766-1.5385742,4.5400391-3.5332031,4.9008789-6.0791016h-1.2724609c-.7978516.0195312-1.5576172.1142578-2.3178711.2661133l-.4936523-.96875c.8359375.0952148,1.671875.1328125,2.5263672.1518555h1.6337891c.1142578-.949707.1328125-1.956543.1523438-3.0585938h-1.5390625c-.6079102,1.0068359-1.3300781,1.8427734-2.1279297,2.4697266l-.246582-.2089844c.3417969-.4370117.684082-.96875.987793-1.5576172.5698242-1.1210938,1.0634766-2.9067383,1.1206055-3.9707031,1.9760742.6269531,1.9760742.8173828,1.6337891.96875l-.3417969.1333008c-.2089844.5698242-.4560547,1.1206055-.722168,1.6337891h4.2558594l.3608398-.5512695c.2089844-.284668.3608398-.5693359.5126953-.5693359.2280273,0,1.4819336,1.0825195,1.4819336,1.3671875-.0571289.1904297-.2280273.2851562-.4941406.2851562h-3.628418c-.019043,1.1020508-.0571289,2.1088867-.1518555,3.0585938h2.3173828l.3803711-.5507812Zm-.2089844-7.3139648c.2089844-.284668.3798828-.5698242.5317383-.5698242.2280273,0,1.5195312,1.1015625,1.5195312,1.3867188-.0566406.2089844-.2275391.3037109-.4746094.3037109h-7.1621094c-.6835938,1.1210938-1.4814453,2.0517578-2.3554688,2.7358398l-.2470703-.2280273c.4941406-.6269531.987793-1.4057617,1.4438477-2.3173828.5698242-1.1210938,1.1020508-2.9257812,1.1586914-3.9897461,2.0136719.6459961,2.0136719.8359375,1.671875.9692383l-.3417969.1137695c-.2851562.7597656-.6079102,1.5004883-.9882812,2.1655273h4.8632812l.3803711-.5698242Z"/>
      <path class="cls-1" d="m49.815918,33.7045898c-1.0634766-.1518555-2.1464844.2470703-2.3364258.3608398-.3608398.1904297-1.3867188,1.3300781-1.8808594,2.8115234-1.2348633,3.6474609-.8354492,6.0605469-.1328125,7.0859375.6459961.9311523,2.1274414.6269531,2.9633789.6083984.96875-.0380859,1.8046875.0947266,1.7861328.7026367-.0195312.5512695-1.0263672.6650391-1.40625.684082-1.6337891.1137695-3.0390625.1328125-4.0273438-1.1020508-.8740234-1.0825195-1.0068359-2.2226562-1.0253906-3.5522461-.0571289-4.5024414,2.90625-7.1430664,2.8491211-7.2568359-.0375977-.0952148-.2661133.0375977-.4746094.0756836-.7983398.2089844-3.5717773,1.4248047-4.3696289,1.7290039-.3417969.1328125-1.1206055.6645508-1.5576172.7216797-.8549805.1142578-1.8808594-1.1967773-1.9570312-1.3105469-.0947266-.1142578-.1137695-.2661133-.0375977-.3613281.1137695-.1137695.2089844-.0566406.3798828.019043.1708984.0761719.684082.4560547,1.3486328.3041992.6650391-.1523438,5.28125-1.8618164,8.3398438-2.3369141.5888672-.0761719.8740234-.3798828,1.690918-.5507812.5888672-.1142578,1.6523438.3608398,1.8427734.7216797.2089844.3798828.2470703.684082-.1523438.8549805-.1328125.0756836-1.234375-.1328125-1.8427734-.2089844Zm2.0517578-2.621582c.2661133.0761719,2.0136719.6079102,2.0327148,1.7856445,0,.3803711-.1137695.5512695-.3417969.6269531-.2280273.0761719-.6650391-.0375977-.8740234-.4936523-.2280273-.4941406-.6459961-1.2539062-1.1015625-1.5390625-.1899414-.1137695-.4370117-.2470703-.3989258-.3798828.0566406-.1518555.4179688-.0566406.6835938,0Zm1.9951172-.987793c.265625.0380859,2.0893555.4750977,2.1274414,1.690918.019043.3227539-.1518555.4179688-.284668.4746094-.2285156.0952148-.6083984.019043-.8740234-.4179688-.2661133-.4560547-.7412109-1.1396484-1.2158203-1.3676758-.1899414-.0952148-.4750977-.2089844-.4370117-.3417969.0380859-.1518555.4179688-.0952148.684082-.0380859Z"/>
      <path class="cls-1" d="m57.4179688,39.8789062l-.2470703-.1904297c.987793-1.4624023,1.9946289-3.4384766,2.8115234-5.6040039.4560547-1.1777344.949707-3.0205078,1.0258789-4.0649414,2.1083984.6645508,2.1083984.8544922,1.7480469.9873047l-.3422852.1333008c-.4936523,1.4248047-1.0825195,2.7924805-1.7290039,4.0463867.703125.5698242.703125.7597656.4375.8925781l-.2661133.1333008v6.3637695c.0375977,2.2797852.0756836,3.0400391.1518555,4.4648438-.1708984.2089844-.6459961.5126953-1.1015625.5126953-.2285156,0-.4375-.1904297-.4375-.3798828.1142578-1.6337891.1713867-2.4697266.2089844-4.9394531v-5.300293c-.7026367,1.1206055-1.4624023,2.1274414-2.2602539,2.9448242Zm14.3427734-4.9584961c.1708984-.2089844.284668-.4370117.4370117-.4370117.2280273,0,1.4057617,1.0068359,1.4057617,1.2919922-.1333008.1328125-.4370117.2851562-.7978516.3608398v1.4438477c.0375977,1.4248047.0571289,1.8994141.1137695,2.7548828-.1328125.1894531-.7026367.4746094-1.1015625.4746094-.1708984,0-.2280273-.1899414-.2280273-.3798828.0375977-.0761719.019043-.1328125.0571289-.2661133v-.3417969h-3.1918945c-.0947266,1.6713867-.4936523,3.0961914-1.3295898,4.2744141,1.7666016,1.253418,4.1982422,1.8999023,7.1425781,2.0136719v.2089844c-.5126953.1518555-.9306641.5888672-1.0444336,1.2348633-2.9638672-.3798828-5.1293945-1.2348633-6.6870117-2.7353516-1.1210938,1.1777344-2.7929688,2.0893555-5.2246094,2.7353516l-.1328125-.3232422c2.2607422-.7788086,3.7802734-1.7856445,4.7304688-3.0966797-.5322266-.6835938-.987793-1.5004883-1.3867188-2.4316406-.3422852.5131836-.7978516,1.1782227-1.0639648,1.5581055.0756836.1899414.019043.3422852-.0761719.4179688l-.8168945-1.1967773c.5131836-.3037109,1.40625-.8930664,1.8999023-1.3105469l.2280273-.722168.6269531.3041992-.5322266.5888672c.3798828.8164062.9121094,1.5195312,1.5581055,2.1274414.5698242-1.0258789.8735352-2.2416992.9306641-3.6474609h-3.1538086v.7026367c0,.0952148-.5126953.3798828-.9873047.3798828-.1523438,0-.2661133-.1894531-.2661133-.3798828.0571289-.5507812.0756836-.8359375.1137695-1.671875v-1.0253906c0-1.0449219-.0566406-2.2988281-.1899414-3.1533203l1.4248047.6835938h3.0776367v-2.0708008h-1.8046875c-.987793.019043-1.8999023.1137695-2.8496094.2661133l-.4941406-.987793c.8359375.0952148,1.671875.1328125,2.5268555.1518555h2.621582c0-.8549805-.0380859-1.8994141-.1518555-2.621582,1.9755859.5888672,1.9755859.7788086,1.652832,1.0068359l-.3041992.2089844v1.4057617h3.1157227l.3798828-.5698242c.2089844-.2851562.3798828-.5698242.5317383-.5698242.2280273,0,1.5581055,1.1206055,1.5581055,1.4052734-.0571289.2089844-.2285156.3041992-.4750977.3041992h-5.1103516v2.0708008h2.9633789l.3041992-.4370117Zm-7.637207,4.331543h3.1728516v-3.34375h-3.1728516v3.34375Zm7.5234375-3.34375h-3.1538086v3.34375h3.1538086v-3.34375Z"/>
      <path class="cls-1" d="m78.0327148,33.9135742c.0947266-.2089844,1.0449219.0952148,1.5195312.5131836.3798828.3608398.5131836.6650391.4941406,1.0634766-.019043.7792969-.7978516,2.7929688-.5703125,4.5214844.2470703,1.7856445,1.2919922,2.6025391,1.5771484,2.8115234.3037109.2089844.4941406.2851562.5888672.2851562.0947266-.019043.2089844.0185547.3037109-.3798828.2661133-1.2158203.5703125-2.0332031.6650391-2.2607422.0761719-.2089844.2089844-.3613281.2851562-.3417969.0761719.0185547.0380859.246582,0,.4365234-.2661133,1.2348633-.1708984,2.2607422-.1328125,2.659668.0375977.3989258.3227539.8930664.3417969,1.1020508.0185547.2089844.0380859.4941406-.2280273.6455078-.2470703.1708984-1.2158203.0380859-2.5268555-1.1396484-.4746094-.4365234-1.6337891-1.7666016-1.8427734-3.7421875-.1899414-1.9755859.2089844-3.4765625.2280273-3.9707031.0380859-.4746094.1333008-.8168945.019043-1.1396484-.1137695-.3232422-.3417969-.6079102-.6455078-.8740234-.0571289-.0380859-.1142578-.0947266-.0761719-.1899414Zm8.6054688,2.2988281c0-.0761719.0380859-.1137695.1708984-.1518555.1142578-.0380859,1.8242188-.6464844,3.34375.7783203.7597656.722168,1.1396484,1.671875,1.1586914,2.1469727.0380859.4936523-.1708984,1.1586914-.9116211.987793-.3613281-.0947266-.4179688-.3798828-.4750977-.5507812-.0756836-.1708984-.684082-2.3554688-1.7094727-2.8686523-.5888672-.284668-1.3110352-.2280273-1.4248047-.2280273-.0761719,0-.1523438-.0566406-.1523438-.1137695Z"/>
      <path class="cls-1" d="m101.1928711,32.6787109l-.3417969.0761719c-1.0449219,2.0517578-2.9824219,4.6923828-5.4521484,6.3447266l-.1899414-.2275391c1.1396484-1.0449219,2.1655273-2.4316406,2.9824219-3.8378906.6459961-1.0825195,1.1777344-2.4501953,1.3867188-3.4951172l1.0830078.5698242c.8930664.3041992.8930664.4936523.5317383.5698242Zm-.8544922,5.7563477c-.7602539.019043-1.4819336.1137695-2.2041016.2661133l-.5126953-.9882812c.8359375.0952148,1.671875.1328125,2.5263672.1523438h7.0859375l.3041992-.3798828c.1708984-.1904297.3041992-.3994141.4560547-.3994141.2280273,0,1.3295898.9311523,1.3295898,1.2158203-.1328125.1333008-.3608398.2470703-.7216797.2851562-.1708984,4.3505859-.6269531,7.4091797-1.4628906,8.2451172-.4941406.4936523-1.2158203.7216797-2.0517578.7216797.019043-.3613281-.0761719-.7216797-.3608398-.8930664-.3227539-.2280273-1.1782227-.4370117-1.9189453-.5507812l.019043-.3422852c.8549805.0952148,2.3554688.2285156,2.7734375.2285156.3422852,0,.5131836-.0380859.684082-.2285156.5698242-.5317383.949707-3.4189453,1.1206055-7.3325195h-4.559082c-.3227539,3.0205078-1.2729492,6.5161133-6.5922852,9.137207l-.2089844-.3222656c4.6166992-2.7739258,5.3193359-6.1171875,5.4902344-8.8149414h-1.1962891Zm11.9677734-.8549805l-.0380859.1899414c-.5317383.1137695-.96875.5317383-1.1206055,1.0068359-2.4316406-1.7094727-4.3881836-4.331543-5.3193359-7.199707h-1.3486328c-.8740234.0185547-1.671875.1137695-2.5073242.265625l-.5131836-.96875c.8359375.0947266,1.671875.1328125,2.5268555.1523438h1.4052734l.5703125-.8930664,1.5957031,1.1396484c-.1523438.2280273-.6079102.3608398-1.1967773.3989258.949707,2.1845703,3.2485352,4.5976562,5.9458008,5.9082031Z"/>
      <path class="cls-1" d="m120.8769531,37.9599609c-1.0830078,1.9570312-1.9189453,4.8632812-1.9760742,5.3955078-.0756836.7978516.3613281,1.6523438.4750977,1.9941406.1518555.5322266-.1328125.703125-.3798828.7978516-.2470703.0952148-.4936523-.0947266-.6459961-.265625-1.3486328-1.4814453-1.6904297-4.5024414-1.5957031-6.1738281.0761719-1.690918.6650391-3.609375.7978516-4.8828125.1708984-1.8046875-.6079102-2.640625-.7216797-2.7543945-.0952148-.1328125-.1899414-.2089844-.1328125-.284668.0566406-.0761719.2275391-.0571289.4365234.0380859.2851562.1513672,1.8808594,1.3105469,1.671875,2.9443359-.2470703,2.1279297-1.1015625,2.5458984-1.1967773,5.0532227-.019043.5698242.0571289,1.1206055.1137695,1.5004883.0380859.2661133.1708984.5888672.3041992.6269531.1328125.0195312.2661133-.1708984.3417969-.3417969.0761719-.1899414,1.956543-3.4575195,2.1850586-3.7802734.2275391-.3417969.3608398-.5507812.4746094-.4750977.1142578.0761719.0380859.3041992-.1518555.6079102Zm7.902832-2.7924805c-.1142578.0952148-1.1210938.5698242-2.1660156.949707.0952148,1.5771484.2661133,4.4267578.1142578,5.1484375-.1899414.9306641-.4370117,3.7236328-4.0654297,5.6611328-.2089844.1142578-.3608398.0566406-.3989258-.019043-.019043-.0756836.1518555-.1899414.2089844-.2280273,2.1088867-1.1396484,2.8305664-3.7993164,3.0776367-5.3574219.1328125-.8164062.0947266-2.9443359.019043-4.8818359-.4370117.1137695-.8359375.1894531-1.0830078.1518555-1.0449219-.1137695-1.9755859-.6650391-2.1845703-.8740234-.0380859-.0375977-.1137695-.0756836-.0761719-.1708984.019043-.0756836.1137695-.0952148.2470703-.0380859.1137695.0380859.949707.2661133,1.5576172.2280273.2661133,0,.8549805-.1142578,1.5009766-.2851562-.0761719-1.3105469-.1518555-2.3554688-.1708984-2.6210938-.1142578-.684082-.7978516-1.1972656-.9121094-1.2158203-.1137695-.0195312-.2661133-.0576172-.2280273-.1904297.0571289-.1894531.3613281-.2089844.5703125-.1894531.4365234.0185547,1.253418.1137695,1.6904297.4746094.4560547.3798828.3798828.6269531.2661133.96875-.0380859.1142578-.0571289.3037109-.0952148.5322266.3041992.2089844.9311523.6455078,1.2348633.7216797.4179688.1142578,1.2919922.0566406,1.3300781.5126953.0571289.4375-.2661133.5703125-.4370117.722168Zm-1.1777344-.8549805c-.1523438-.0761719-.684082-.3989258-1.0068359-.6079102-.0380859.4750977-.0571289,1.0258789-.0380859,1.4248047.4370117-.1518555.8168945-.3227539,1.0449219-.4750977.0947266-.0566406.2089844-.2470703,0-.3417969Z"/>
      <path class="cls-1" d="m144.3979492,46.3945312c-2.6972656,1.3300781-5.3188477.0380859-5.565918-2.2792969-.0756836-.7792969-.0756836-1.690918-.019043-2.6787109-.8359375-.2851562-1.5195312-.7216797-1.5195312-1.4438477.0185547-.987793,1.1396484-2.1274414,1.9946289-2.8686523.0756836-.6269531.1708984-1.2158203.2661133-1.7475586-.8173828-.3608398-1.6533203-.8549805-2.0517578-1.1967773-.1142578-.0952148-.2089844-.1708984-.1708984-.3037109.0566406-.1142578.265625-.0195312.3798828.0185547.5126953.2280273,1.253418.3417969,1.9946289.4941406.1328125-.7978516.2280273-1.3486328.2280273-1.5390625.0380859-.7788086.0756836-.96875-.1142578-1.5385742-.1137695-.3227539-.6835938-.8549805-.6079102-1.0449219.0761719-.246582.8359375.0952148.9116211.1333008.3041992.1708984,1.2158203.8164062,1.0449219,1.7851562-.1708984.8930664-.5317383,1.5771484-.7597656,2.3369141.4179688.0947266.8168945.1899414,1.1591797.3232422.5126953.2089844.7216797.6835938.7216797.9873047,0,.3041992-.2470703.5322266-.4941406.5512695-.6269531.0571289-1.3105469.3417969-1.918457.722168-.1708984.96875-.3422852,2.1464844-.4370117,3.4189453.7216797.0952148,1.5195312.0761719,1.8046875.0952148.5888672.019043.8930664.2470703.9306641.6079102.0571289.3417969-.265625.5888672-.8164062.5888672-.3613281.019043-1.1591797-.0380859-1.9570312-.2280273-.019043.6079102,0,1.2158203.0571289,1.8051758.2470703,2.9628906,3.4003906,2.5644531,4.293457,1.9560547.949707-.6264648,1.8427734-2.4121094.7407227-4.4072266-1.0825195-1.9755859-2.3554688-2.8496094-2.640625-3.0390625-.0756836-.0576172-.2089844-.1523438-.1708984-.2666016.0380859-.0947266.2470703.0195312.3608398.0576172.2851562.1328125,2.7167969,1.5004883,3.7426758,3.1914062.8168945,1.3486328,1.2158203,4.2363281-1.387207,5.5087891Zm-5.5087891-5.9838867c.0756836-.9311523.1899414-1.8999023.3227539-2.8115234-.7407227.6459961-1.2729492,1.4438477-1.2158203,2.1088867.0380859.3603516.3989258.5693359.8930664.7026367Zm1.1015625-3.8564453c.1142578-.0952148.1899414-.1518555.2089844-.1708984.2089844-.1518555.4179688-.2280273.4560547-.4370117.0571289-.1899414-.1328125-.2089844-.4560547-.3232422h-.019043c-.0571289.2666016-.1328125.5703125-.1899414.9311523Z"/>
      <path class="cls-1" d="m153.918457,44.855957c-.4936523-.6079102-1.0825195-1.1777344-1.3295898-1.3486328-.2089844-.1518555-.3422852-.2280273-.3227539-.3227539.0375977-.1333008.2275391-.0761719.4746094,0,.2280273.0566406,3.2485352,1.0634766,3.9511719,2.7734375.2089844.4746094.0380859,1.234375-.6455078,1.3867188-.2851562.0566406-.6269531-.1142578-.9501953-.6459961-.0756836-.1518555-.7597656-1.3295898-1.1777344-1.8427734Z"/>
      <path class="cls-1" d="m185.6845703,38.1308594c.2280273-.3037109.4179688-.6074219.5698242-.6074219.2285156,0,1.652832,1.1777344,1.652832,1.4624023-.0375977.2089844-.2280273.3041992-.4746094.3041992h-6.934082c1.6904297,2.640625,4.7871094,4.8818359,7.6176758,5.8886719l-.0375977.1708984c-.4750977.0761719-.9121094.4560547-1.0830078,1.0644531-2.7358398-1.3300781-5.300293-3.7807617-6.7822266-6.8769531v2.9628906c.0380859,2.2802734.0761719,3.0400391.1523438,4.4648438-.1523438.2851562-.6650391.6074219-1.1401367.6074219-.246582,0-.4370117-.1894531-.4370117-.3798828.0952148-1.4814453.1523438-2.2226562.1904297-4.4453125v-2.4121094c-1.7861328,2.6025391-4.4648438,4.8251953-7.6181641,6.3256836l-.1899414-.3041992c2.9067383-1.7666016,5.4711914-4.4257812,6.9526367-7.0664062h-3.5522461c-.987793.0185547-1.8999023.1137695-2.8496094.265625l-.4936523-.96875c.8359375.0947266,1.671875.1328125,2.5263672.1523438h5.2246094v-4.996582h-3.5146484c-.9882812.019043-1.8999023.1137695-2.8496094.2661133l-.5131836-.96875c.8359375.0947266,1.671875.1328125,2.5268555.1513672h4.3505859c0-1.0253906-.0571289-2.2792969-.1904297-3.1342773,2.0517578.6079102,2.0517578.7978516,1.7290039,1.0258789l-.3041992.2089844v1.8994141h4.3125l.4179688-.5693359c.2280273-.2851562.3989258-.5888672.5507812-.5888672.2280273,0,1.6147461,1.1206055,1.6147461,1.4052734-.0375977.2089844-.2280273.3041992-.4750977.3041992h-6.4208984v4.996582h5.0341797l.4370117-.6083984Zm-11.1704102-4.0083008c3.7807617,2.0517578,2.6025391,4.9389648,1.3681641,3.8183594-.0761719-1.2158203-.8740234-2.7358398-1.5576172-3.7045898l.1894531-.1137695Zm10.4868164,1.0258789l-.3232422.0947266c-.8354492,1.1777344-1.8994141,2.355957-2.8305664,3.1157227l-.2470703-.1899414c.0952148-.1518555.1904297-.3037109.2851562-.4746094.6269531-1.0830078,1.2729492-2.6787109,1.5009766-3.7426758l1.0634766.6079102c.8930664.3037109.8930664.4941406.5512695.5888672Z"/>
      <path class="cls-1" d="m203.9628906,42.0444336c-.0761719.0952148-.3422852.2470703-.6269531.3041992v1.5761719c.0380859,1.5771484.0571289,2.0898438.1137695,3.0400391-.1328125.2089844-.7407227.5126953-1.1206055.5126953-.1899414,0-.2661133-.1899414-.2661133-.3798828.0380859-.1328125.0380859-.2089844.0761719-.4179688v-.3989258h-6.8583984v.8740234c0,.0952148-.3798828.3798828-.96875.3798828-.1708984,0-.3227539-.1899414-.3227539-.3798828.0761719-1.1206055.1137695-1.690918.1518555-3.3813477v-1.8999023c-1.1777344.4370117-2.4316406.8168945-3.7612305,1.1206055l-.1333008-.3227539c2.9448242-.8930664,5.6992188-2.2607422,7.8461914-3.9516602-.8740234-.7216797-1.6147461-1.5195312-2.2416992-2.4121094-1.2158203,1.2158203-2.7353516,2.3554688-4.4072266,3.1342773l-.2089844-.2470703c1.2539062-.7978516,2.4316406-1.8427734,3.4003906-2.9448242.8359375-.9306641,1.5390625-2.1274414,1.8427734-3.1342773,2.0703125.5512695,2.0703125.7407227,1.6904297.8549805l-.3608398.0947266c-.246582.3232422-.4936523.6459961-.7788086.9882812h4.1601562l.3994141-.3798828c.2089844-.1904297.3798828-.3803711.5317383-.3803711.2280273,0,1.2348633.987793,1.2348633,1.2729492-.1708984.1708984-.3798828.2280273-.8549805.2280273-.7788086,1.0825195-1.7290039,2.0708008-2.8305664,2.9633789,2.2036133,1.1972656,4.9013672,2.0136719,7.5229492,2.4506836l-.0380859.2280273c-.4936523.0566406-.8735352.4370117-1.0258789,1.0068359-.8925781-.2089844-1.7666016-.4746094-2.621582-.7788086l.4560547.3798828Zm1.1206055-10.1064453c.1904297-.2280273.3232422-.4750977.4750977-.4750977.2280273,0,1.3295898,1.2348633,1.3295898,1.5195312-.1328125.1333008-.3227539.1713867-.7216797.1904297-.4941406.703125-1.4814453,1.671875-2.2416992,2.2412109l-.1899414-.1513672c.3037109-.6083984.7216797-1.5771484,1.0258789-2.3178711h-11.8354492c-.0185547,1.2915039-.5317383,2.1845703-1.0253906,2.5834961-.4375.3613281-1.1210938.4370117-1.3491211.0380859-.1708984-.3989258.0571289-.7978516.3989258-1.0639648.7412109-.4555664,1.4819336-1.7290039,1.4819336-3.0776367h.3037109c.0952148.3417969.1518555.684082.1713867.9882812h5.0722656c0-.7792969-.0380859-1.7099609-.1333008-2.355957,2.0136719.5888672,2.0136719.7788086,1.690918.987793l-.3232422.2089844v1.1591797h5.5283203l.3417969-.4750977Zm-9.5556641,9.7075195h6.4589844l.3613281-.4370117c-1.2348633-.5131836-2.3935547-1.1401367-3.4384766-1.8803711-1.1210938.8164062-2.375,1.5195312-3.7802734,2.1274414l.3984375.1899414Zm-.2470703,4.0654297h6.8583984v-3.5332031h-6.8583984v3.5332031Zm1.2539062-10.0878906c-.1137695.1333008-.246582.2470703-.3798828.3803711.684082.8168945,1.5576172,1.5385742,2.5649414,2.1845703.9116211-.7978516,1.690918-1.652832,2.3178711-2.5649414h-4.5029297Z"/>
      <path class="cls-1" d="m224.9379883,39.8027344c-.6455078,6.1171875-8.0732422,6.1738281-8.4912109,6.2314453-.6079102.0566406-.9501953.0566406-.96875-.0761719-.0380859-.1142578.4941406-.1708984.7407227-.2089844,2.1088867-.3417969,6.9907227-1.7861328,7.3710938-6.2119141.3989258-4.4267578-2.7543945-6.2124023-5.4145508-6.3642578-.2470703-.019043-.4936523-.019043-.7407227,0,.3041992.6269531,1.1206055,2.621582-.2661133,5.8886719-1.5385742,3.6289062-3.7612305,5.3388672-4.5400391,5.2436523-.7978516-.0952148-2.1464844-1.5961914-2.2988281-3.9516602-.3227539-4.7680664,3.6289062-7.2758789,6.3642578-7.7128906,3.0585938-.4936523,8.8710938,1.0068359,8.2441406,7.1621094Zm-7.8261719-6.6113281c-2.3369141.2666016-4.6357422,1.8051758-5.5283203,4.5214844-1.0258789,3.1347656.5698242,4.8251953.9501953,5.015625.3603516.1894531.8354492-.1904297.8354492-.1904297,2.2036133-1.6142578,3.4384766-4.7299805,3.6855469-5.6040039.2470703-.8930664.3798828-2.6782227.0571289-3.7426758Z"/>
      <path class="cls-1" d="m230.184082,31.8618164v10.7143555c.0390625,2.2797852.0761719,3.0400391.1523438,4.4648438-.1523438.1894531-.5126953.5126953-1.0830078.5126953-.1708984,0-.3798828-.1904297-.3798828-.3798828.1142578-1.6337891.1708984-2.4697266.2089844-4.9394531v-7.7319336c0-1.2915039-.0761719-2.8496094-.2470703-3.894043l1.5771484.6835938h1.8242188l.3222656-.3417969c.1708984-.1708984.3046875-.3613281.4560547-.3613281.2275391,0,1.2724609,1.0639648,1.2724609,1.3491211-.1513672.1518555-.3984375.2089844-.8164062.2089844-.5507812,1.1777344-1.5576172,3.4575195-2.2041016,4.597168,1.5966797,1.5576172,2.1279297,3.1347656,2.1279297,4.578125.0195312,1.8242188-.5507812,2.5839844-2.1083984,2.6787109,0-.3608398-.0761719-.6835938-.2089844-.8359375-.1337891-.1328125-.4755859-.2089844-.8359375-.265625v-.3041992h1.1591797c.1894531,0,.3222656-.019043.4550781-.1137695.2851562-.1708984.4560547-.6079102.4560547-1.3681641,0-1.3671875-.3603516-2.8300781-1.5009766-4.3120117.4179688-1.1967773,1.0644531-3.4194336,1.4824219-4.9394531h-2.109375Zm7.9794922-.246582c.1894531-.1904297.3232422-.3994141.4746094-.3994141.2275391,0,1.0830078.9501953,1.0830078,1.2353516-.1142578.1708984-.3037109.2089844-.7216797.246582-.8935547,2.7358398-2.6025391,5.4145508-5.6044922,7.1049805l-.1894531-.3037109c2.3359375-1.6533203,3.9511719-4.2744141,4.6542969-6.9150391h-2.0136719c-.1337891.2275391-.2666016.4560547-.3808594.7026367,2.1855469.4941406,1.5585938,2.0327148.7226562,1.4819336-.171875-.3989258-.5322266-.8359375-.9501953-1.1591797-.2275391.3994141-.5126953.7978516-.7978516,1.1591797,2.0898438.7788086,1.4248047,2.2792969.6074219,1.7099609-.1132812-.4750977-.4550781-1.0068359-.8544922-1.40625-.4560547.5507812-.9306641,1.0263672-1.4248047,1.4248047l-.265625-.2089844c.6269531-.6455078,1.2158203-1.5004883,1.7089844-2.4501953.5898438-1.1020508,1.1210938-2.7739258,1.1972656-3.8183594,1.8808594.4555664,1.8808594.6455078,1.5390625.7402344l-.3417969.0761719c-.1523438.3798828-.2851562.7792969-.4941406,1.1777344h1.7099609l.3417969-.3984375Zm-1.0263672,11.3789062l-.2851562.019043c-.8164062,1.1967773-2.4121094,2.5834961-3.9697266,3.4194336l-.1904297-.2851562c.3417969-.284668.703125-.6074219,1.0263672-.9492188.8740234-.9121094,1.7099609-2.2802734,1.9941406-3.3056641l.9501953.5888672c.7792969.2851562.7792969.4746094.4746094.5126953Zm5.1865234-3.0390625c.2089844-.2666016.3613281-.5322266.5126953-.5322266.2285156,0,1.40625,1.0068359,1.40625,1.2919922-.0566406.2089844-.2285156.3037109-.4941406.3037109h-4.046875v4.8632812c0,.9306641-.2089844,1.5195312-1.7851562,1.671875-.0195312-.3232422-.1328125-.6079102-.3232422-.7792969-.2470703-.1513672-.6650391-.3037109-1.4248047-.3798828v-.284668s1.6337891.0952148,1.9951172.0952148c.3232422,0,.3984375-.0952148.3984375-.3232422v-4.8632812h-1.3486328c-.8359375.019043-1.6337891.1142578-2.4316406.265625l-.4746094-.9492188c.8359375.0947266,1.671875.1328125,2.5263672.1513672h5.1298828l.3603516-.53125Zm-1.9375-2.640625c.1708984-.2285156.3037109-.4755859.4560547-.4755859.2275391,0,1.2724609.9121094,1.2724609,1.1972656-.0380859.2089844-.2089844.3037109-.4365234.3037109h-2.2988281c-.9882812.019043-1.9003906.1142578-2.8496094.2661133l-.4941406-.9692383c.8359375.0952148,1.671875.1333008,2.5263672.1523438h1.5009766l.3232422-.4746094Zm2.8300781-4.7875977h-.7978516c-.4941406.019043-.9121094.1137695-1.3671875.2661133l-.5136719-.96875c.5898438.0947266,1.1777344.1328125,1.7861328.1513672h.8544922l.6845703-.7402344c1.2539062,1.1962891,1.2539062,1.3867188.9111328,1.4248047l-.3417969.0375977c-.5126953.9692383-1.4248047,2.1655273-2.2792969,3.0395508.8740234,1.0830078,1.9375,1.9570312,3.1152344,2.5839844l-.0371094.1894531c-.4570312.0380859-.8173828.3417969-1.0263672.8549805-2.4892578-1.7475586-4.0849609-4.6733398-4.7490234-8.5107422l.3417969-.1708984c.3798828,1.7856445,1.1015625,3.3813477,2.0898438,4.7114258.4746094-.8549805,1.0068359-1.9755859,1.3291016-2.8686523Zm-2.1279297,9.612793c4.5976562,2.0322266,3.8574219,4.84375,2.5654297,3.9892578-.4179688-1.2158203-1.7666016-2.8496094-2.7548828-3.8374023l.1894531-.1518555Z"/>
      <path class="cls-1" d="m262.9379883,39.8027344c-.6455078,6.1171875-8.0732422,6.1738281-8.4912109,6.2314453-.6083984.0566406-.9501953.0566406-.96875-.0761719-.0380859-.1142578.4941406-.1708984.7412109-.2089844,2.1083984-.3417969,6.9902344-1.7861328,7.3710938-6.2119141.3984375-4.4267578-2.7548828-6.2124023-5.4150391-6.3642578-.2470703-.019043-.4931641-.019043-.7412109,0,.3046875.6269531,1.1210938,2.621582-.265625,5.8886719-1.5390625,3.6289062-3.7617188,5.3388672-4.5400391,5.2436523-.7978516-.0952148-2.1464844-1.5961914-2.2988281-3.9516602-.3232422-4.7680664,3.6289062-7.2758789,6.3642578-7.7128906,3.0585938-.4936523,8.8710938,1.0068359,8.2441406,7.1621094Zm-7.8261719-6.6113281c-2.3369141.2666016-4.6357422,1.8051758-5.5283203,4.5214844-1.0263672,3.1347656.5693359,4.8251953.9501953,5.015625.3603516.1894531.8359375-.1904297.8359375-.1904297,2.203125-1.6142578,3.4375-4.7299805,3.6855469-5.6040039.2460938-.8930664.3789062-2.6782227.0566406-3.7426758Z"/>
      <path class="cls-1" d="m266.4174805,39.8789062l-.2470703-.1904297c.9882812-1.4624023,1.9951172-3.4384766,2.8125-5.6040039.4550781-1.1777344.9492188-3.0205078,1.0253906-4.0649414,2.1083984.6645508,2.1083984.8544922,1.7480469.9873047l-.3417969.1333008c-.4941406,1.4248047-1.0830078,2.7924805-1.7294922,4.0463867.703125.5698242.703125.7597656.4375.8925781l-.2666016.1333008v6.3637695c.0380859,2.2797852.0761719,3.0400391.1523438,4.4648438-.1708984.2089844-.6464844.5126953-1.1015625.5126953-.2285156,0-.4375-.1904297-.4375-.3798828.1142578-1.6337891.171875-2.4697266.2089844-4.9394531v-5.300293c-.703125,1.1206055-1.4628906,2.1274414-2.2607422,2.9448242Zm14.3427734-4.9584961c.171875-.2089844.2851562-.4370117.4375-.4370117.2275391,0,1.40625,1.0068359,1.40625,1.2919922-.1337891.1328125-.4375.2851562-.7988281.3608398v1.4438477c.0380859,1.4248047.0576172,1.8994141.1142578,2.7548828-.1328125.1894531-.703125.4746094-1.1015625.4746094-.1708984,0-.2275391-.1899414-.2275391-.3798828.0371094-.0761719.0185547-.1328125.0566406-.2661133v-.3417969h-3.1914062c-.0957031,1.6713867-.4941406,3.0961914-1.3300781,4.2744141,1.7666016,1.253418,4.1982422,1.8999023,7.1425781,2.0136719v.2089844c-.5126953.1518555-.9306641.5888672-1.0449219,1.2348633-2.9628906-.3798828-5.1289062-1.2348633-6.6865234-2.7353516-1.1210938,1.1777344-2.7929688,2.0893555-5.2246094,2.7353516l-.1328125-.3232422c2.2607422-.7788086,3.7802734-1.7856445,4.7304688-3.0966797-.5322266-.6835938-.9882812-1.5004883-1.3867188-2.4316406-.3417969.5131836-.7978516,1.1782227-1.0634766,1.5581055.0751953.1899414.0185547.3422852-.0761719.4179688l-.8173828-1.1967773c.5126953-.3037109,1.40625-.8930664,1.8994141-1.3105469l.2285156-.722168.6269531.3041992-.5322266.5888672c.3798828.8164062.9121094,1.5195312,1.5576172,2.1274414.5703125-1.0258789.8740234-2.2416992.9316406-3.6474609h-3.1542969v.7026367c0,.0952148-.5126953.3798828-.9873047.3798828-.1523438,0-.2666016-.1894531-.2666016-.3798828.0576172-.5507812.0761719-.8359375.1142578-1.671875v-1.0253906c0-1.0449219-.0566406-2.2988281-.1904297-3.1533203l1.4257812.6835938h3.0771484v-2.0708008h-1.8046875c-.9873047.019043-1.8994141.1137695-2.8496094.2661133l-.4941406-.987793c.8359375.0952148,1.671875.1328125,2.5263672.1518555h2.6220703c0-.8549805-.0380859-1.8994141-.1523438-2.621582,1.9755859.5888672,1.9755859.7788086,1.6533203,1.0068359l-.3046875.2089844v1.4057617h3.1162109l.3798828-.5698242c.2089844-.2851562.3798828-.5698242.53125-.5698242.2285156,0,1.5585938,1.1206055,1.5585938,1.4052734-.0566406.2089844-.2285156.3041992-.4746094.3041992h-5.1113281v2.0708008h2.9638672l.3037109-.4370117Zm-7.6367188,4.331543h3.1728516v-3.34375h-3.1728516v3.34375Zm7.5234375-3.34375h-3.1542969v3.34375h3.1542969v-3.34375Z"/>
      <path class="cls-1" d="m287.0327148,33.9135742c.0947266-.2089844,1.0449219.0952148,1.5195312.5131836.3798828.3608398.5126953.6650391.4941406,1.0634766-.0185547.7792969-.7978516,2.7929688-.5703125,4.5214844.2470703,1.7856445,1.2919922,2.6025391,1.5771484,2.8115234.3037109.2089844.4941406.2851562.5888672.2851562.0947266-.019043.2089844.0185547.3037109-.3798828.265625-1.2158203.5703125-2.0332031.6650391-2.2607422.0761719-.2089844.2089844-.3613281.2851562-.3417969.0761719.0185547.0380859.246582,0,.4365234-.2666016,1.2348633-.1708984,2.2607422-.1328125,2.659668s.3232422.8930664.3417969,1.1020508.0380859.4941406-.2275391.6455078c-.2480469.1708984-1.2167969.0380859-2.5273438-1.1396484-.4746094-.4365234-1.6337891-1.7666016-1.8427734-3.7421875-.1894531-1.9755859.2089844-3.4765625.2285156-3.9707031.0380859-.4746094.1328125-.8168945.0185547-1.1396484-.1132812-.3232422-.3417969-.6079102-.6455078-.8740234-.0576172-.0380859-.1142578-.0947266-.0761719-.1899414Zm8.6054688,2.2988281c0-.0761719.0380859-.1137695.1708984-.1518555.1142578-.0380859,1.8242188-.6464844,3.34375.7783203.7597656.722168,1.1396484,1.671875,1.1582031,2.1469727.0390625.4936523-.1699219,1.1586914-.9111328.987793-.3613281-.0947266-.4179688-.3798828-.4755859-.5507812-.0751953-.1708984-.6835938-2.3554688-1.7089844-2.8686523-.5888672-.284668-1.3105469-.2280273-1.4248047-.2280273-.0761719,0-.1523438-.0566406-.1523438-.1137695Z"/>
      <path class="cls-1" d="m310.1928711,32.6787109l-.3417969.0761719c-1.0449219,2.0517578-2.9824219,4.6923828-5.4521484,6.3447266l-.1894531-.2275391c1.1386719-1.0449219,2.1650391-2.4316406,2.9824219-3.8378906.6455078-1.0825195,1.1777344-2.4501953,1.3867188-3.4951172l1.0820312.5698242c.8935547.3041992.8935547.4936523.5322266.5698242Zm-.8544922,5.7563477c-.7597656.019043-1.4824219.1137695-2.2041016.2661133l-.5126953-.9882812c.8359375.0952148,1.671875.1328125,2.5263672.1523438h7.0859375l.3037109-.3798828c.171875-.1904297.3046875-.3994141.4560547-.3994141.2285156,0,1.3300781.9311523,1.3300781,1.2158203-.1328125.1333008-.3603516.2470703-.7216797.2851562-.1708984,4.3505859-.6269531,7.4091797-1.4628906,8.2451172-.4941406.4936523-1.2158203.7216797-2.0517578.7216797.0185547-.3613281-.0761719-.7216797-.3603516-.8930664-.3232422-.2280273-1.1787109-.4370117-1.9199219-.5507812l.0195312-.3422852c.8554688.0952148,2.3554688.2285156,2.7734375.2285156.3417969,0,.5136719-.0380859.6835938-.2285156.5703125-.5317383.9501953-3.4189453,1.1210938-7.3325195h-4.5585938c-.3232422,3.0205078-1.2734375,6.5161133-6.5927734,9.137207l-.2089844-.3222656c4.6162109-2.7739258,5.3193359-6.1171875,5.4902344-8.8149414h-1.1962891Zm11.9677734-.8549805l-.0380859.1899414c-.53125.1137695-.96875.5317383-1.1210938,1.0068359-2.4316406-1.7094727-4.3876953-4.331543-5.3183594-7.199707h-1.3496094c-.8730469.0185547-1.671875.1137695-2.5068359.265625l-.5126953-.96875c.8359375.0947266,1.6708984.1328125,2.5263672.1523438h1.4052734l.5703125-.8930664,1.5957031,1.1396484c-.1523438.2280273-.6074219.3608398-1.1972656.3989258.9501953,2.1845703,3.2490234,4.5976562,5.9462891,5.9082031Z"/>
      <path class="cls-1" d="m329.8774414,37.9599609c-1.0839844,1.9570312-1.9189453,4.8632812-1.9765625,5.3955078-.0761719.7978516.3613281,1.6523438.4746094,1.9941406.1523438.5322266-.1328125.703125-.3789062.7978516-.2470703.0952148-.4941406-.0947266-.6464844-.265625-1.3486328-1.4814453-1.6904297-4.5024414-1.5957031-6.1738281.0761719-1.690918.6650391-3.609375.7978516-4.8828125.1708984-1.8046875-.6083984-2.640625-.7216797-2.7543945-.0947266-.1328125-.1894531-.2089844-.1328125-.284668.0566406-.0761719.2275391-.0571289.4365234.0380859.2851562.1513672,1.8808594,1.3105469,1.671875,2.9443359-.2470703,2.1279297-1.1015625,2.5458984-1.1962891,5.0532227-.0195312.5698242.0566406,1.1206055.1132812,1.5004883.0380859.2661133.1708984.5888672.3046875.6269531.1328125.0195312.265625-.1708984.3417969-.3417969.0761719-.1899414,1.9560547-3.4575195,2.1845703-3.7802734.2275391-.3417969.3603516-.5507812.4746094-.4750977.1142578.0761719.0380859.3041992-.1513672.6079102Zm7.9023438-2.7924805c-.1142578.0952148-1.1210938.5698242-2.1660156.949707.0957031,1.5771484.265625,4.4267578.1142578,5.1484375-.1904297.9306641-.4365234,3.7236328-4.0654297,5.6611328-.2089844.1142578-.3613281.0566406-.3984375-.019043-.0195312-.0756836.1513672-.1899414.2089844-.2280273,2.1083984-1.1396484,2.8300781-3.7993164,3.0771484-5.3574219.1328125-.8164062.0947266-2.9443359.0185547-4.8818359-.4365234.1137695-.8359375.1894531-1.0820312.1518555-1.0449219-.1137695-1.9765625-.6650391-2.1855469-.8740234-.0371094-.0375977-.1132812-.0756836-.0761719-.1708984.0195312-.0756836.1142578-.0952148.2480469-.0380859.1132812.0380859.9492188.2661133,1.5576172.2280273.265625,0,.8544922-.1142578,1.5009766-.2851562-.0761719-1.3105469-.1523438-2.3554688-.171875-2.6210938-.1132812-.684082-.7978516-1.1972656-.9121094-1.2158203-.1132812-.0195312-.265625-.0576172-.2275391-.1904297.0576172-.1894531.3613281-.2089844.5703125-.1894531.4365234.0185547,1.2539062.1137695,1.6904297.4746094.4560547.3798828.3798828.6269531.265625.96875-.0371094.1142578-.0566406.3037109-.0947266.5322266.3037109.2089844.9306641.6455078,1.2353516.7216797.4179688.1142578,1.2910156.0566406,1.3291016.5126953.0576172.4375-.265625.5703125-.4365234.722168Zm-1.1777344-.8549805c-.1523438-.0761719-.6835938-.3989258-1.0068359-.6079102-.0380859.4750977-.0576172,1.0258789-.0380859,1.4248047.4365234-.1518555.8164062-.3227539,1.0449219-.4750977.0947266-.0566406.2089844-.2470703,0-.3417969Z"/>
      <path class="cls-1" d="m353.3979492,46.3945312c-2.6972656,1.3300781-5.3193359.0380859-5.5654297-2.2792969-.0761719-.7792969-.0761719-1.690918-.0195312-2.6787109-.8359375-.2851562-1.5195312-.7216797-1.5195312-1.4438477.0185547-.987793,1.1396484-2.1274414,1.9941406-2.8686523.0761719-.6269531.171875-1.2158203.2666016-1.7475586-.8173828-.3608398-1.6533203-.8549805-2.0517578-1.1967773-.1142578-.0952148-.2089844-.1708984-.1708984-.3037109.0566406-.1142578.265625-.0195312.3798828.0185547.5126953.2280273,1.2539062.3417969,1.9941406.4941406.1328125-.7978516.2285156-1.3486328.2285156-1.5390625.0380859-.7788086.0761719-.96875-.1142578-1.5385742-.1142578-.3227539-.6835938-.8549805-.6083984-1.0449219.0761719-.246582.8359375.0952148.9121094.1333008.3046875.1708984,1.2158203.8164062,1.0449219,1.7851562-.1708984.8930664-.53125,1.5771484-.7597656,2.3369141.4179688.0947266.8164062.1899414,1.1591797.3232422.5126953.2089844.7216797.6835938.7216797.9873047,0,.3041992-.2470703.5322266-.4941406.5512695-.6269531.0571289-1.3105469.3417969-1.9179688.722168-.171875.96875-.3427734,2.1464844-.4375,3.4189453.7216797.0952148,1.5195312.0761719,1.8046875.0952148.5888672.019043.8925781.2470703.9306641.6079102.0576172.3417969-.265625.5888672-.8164062.5888672-.3613281.019043-1.1591797-.0380859-1.9570312-.2280273-.0185547.6079102,0,1.2158203.0576172,1.8051758.2460938,2.9628906,3.4003906,2.5644531,4.2929688,1.9560547.9492188-.6264648,1.8427734-2.4121094.7402344-4.4072266-1.0820312-1.9755859-2.3554688-2.8496094-2.640625-3.0390625-.0751953-.0576172-.2089844-.1523438-.1699219-.2666016.0371094-.0947266.2460938.0195312.3603516.0576172.2851562.1328125,2.7167969,1.5004883,3.7421875,3.1914062.8173828,1.3486328,1.2158203,4.2363281-1.3867188,5.5087891Zm-5.5087891-5.9838867c.0761719-.9311523.1894531-1.8999023.3222656-2.8115234-.7402344.6459961-1.2724609,1.4438477-1.2148438,2.1088867.0371094.3603516.3984375.5693359.8925781.7026367Zm1.1015625-3.8564453c.1142578-.0952148.1904297-.1518555.2089844-.1708984.2089844-.1518555.4179688-.2280273.4560547-.4370117.0566406-.1899414-.1328125-.2089844-.4560547-.3232422h-.0185547c-.0576172.2666016-.1337891.5703125-.1904297.9311523Z"/>
      <path class="cls-1" d="m366.2807617,44.7421875c0,1.3867188-1.1015625,2.4882812-2.4697266,2.4882812-1.3671875,0-2.4882812-1.1015625-2.4882812-2.4882812,0-1.3681641,1.1210938-2.4697266,2.4882812-2.4697266,1.3681641,0,2.4697266,1.1015625,2.4697266,2.4697266Zm-.4560547,0c0-1.1020508-.9111328-1.9951172-2.0136719-1.9951172-1.1015625,0-2.0136719.8930664-2.0136719,1.9951172,0,1.1206055.9121094,2.0136719,2.0136719,2.0136719,1.1025391,0,2.0136719-.8930664,2.0136719-2.0136719Z"/>
      <path class="cls-1" d="m380.246582,39.8789062l-.2460938-.1904297c1.0058594-1.4433594,2.0507812-3.4384766,2.9248047-5.6230469.4560547-1.1586914.9882812-3.0014648,1.0634766-4.0458984,2.1279297.6835938,2.1279297.8735352,1.7480469,1.0068359l-.3613281.1137695c-.5117188,1.4624023-1.1201172,2.8686523-1.8232422,4.1601562.7216797.5698242.7216797.7602539.4365234.8740234l-.265625.1137695v6.2880859c.0380859,2.2797852.0761719,3.0400391.1523438,4.4648438-.1708984.2089844-.6464844.5126953-1.1210938.5126953-.2275391,0-.4365234-.1904297-.4365234-.3798828.1142578-1.6337891.1708984-2.4697266.2089844-4.9394531v-5.2241211c-.703125,1.1020508-1.4628906,2.0708008-2.2802734,2.8686523Zm8.4726562-7.0478516c-.9873047.0185547-1.8994141.1137695-2.8496094.265625l-.4941406-.96875c.8359375.0947266,1.671875.1328125,2.5273438.1518555h6.8388672l.3994141-.5888672c.2089844-.284668.3789062-.5888672.53125-.5888672.2285156,0,1.5585938,1.1586914,1.5585938,1.4438477-.0576172.1899414-.2089844.2851562-.4570312.2851562h-1.4433594v12.8798828c0,.987793-.2470703,1.6904297-2.0898438,1.8613281-.0566406-.3603516-.1894531-.6835938-.4746094-.8544922-.3417969-.2089844-.8740234-.3613281-1.8613281-.4750977v-.284668s2.2597656.1518555,2.7158203.1518555c.3994141,0,.5126953-.1333008.5126953-.4560547v-12.8227539h-5.4140625Zm1.8242188,2.5644531c.1708984-.2280273.2851562-.4560547.4365234-.4560547.2285156,0,1.4443359,1.0258789,1.4443359,1.3105469-.1142578.1523438-.4375.3422852-.8173828.4179688v2.0712891c.0380859,2.0703125.0576172,2.7539062.1337891,4.0273438-.171875.1708984-.7412109.3984375-1.1025391.3984375-.1708984,0-.2470703-.1894531-.2470703-.3798828.0380859-.1518555.0380859-.2470703.0761719-.4936523v-.4560547h-3.1347656v.4370117c.0380859.4365234.0380859.5698242.0761719.7597656-.0761719.2089844-.5507812.4941406-1.0068359.4941406-.1904297,0-.3232422-.1904297-.3232422-.3798828.0761719-.8549805.0957031-1.2919922.1328125-2.5839844v-1.5009766c0-1.2915039-.0751953-2.8491211-.2460938-3.894043l1.4628906.6645508h2.8300781l.2851562-.4365234Zm-3.2109375,5.8886719h3.1347656v-4.9008789h-3.1347656v4.9008789Z"/>
      <path class="cls-1" d="m409.9233398,39.6508789c-.1142578,1.1777344-.703125,4.1982422-1.8808594,5.3759766-.4365234.4370117-1.1396484.9692383-1.4814453.7788086-.3798828-.2089844-.4560547-.4746094-.6650391-.9306641-.1708984-.3798828-.3417969-.6269531-.9121094-1.4438477-.0947266-.1518555-.2470703-.3227539-.1904297-.3798828.0957031-.0756836.3613281.1333008.7792969.4370117.4560547.3037109.8740234.6650391,1.1591797.6455078.4560547,0,1.0830078-.284668,1.7470703-2.4882812.6464844-2.2036133.8740234-4.3505859-.1132812-4.9960938-.5507812-.3613281-1.8242188.0756836-2.6972656.4746094-.4375,1.9375-1.2734375,4.5976562-2.8496094,7.1811523-.4570312.7407227-1.0449219,1.1586914-1.4628906.7216797-.2851562-.3037109-.1142578-.8930664.6074219-1.8618164,1.6337891-2.203125,2.3173828-4.1982422,2.6601562-5.565918-.8554688.3798828-1.9003906.7788086-2.2421875.8549805-.265625.0761719-1.1582031.0566406-1.8427734-1.0639648-.1513672-.2470703-.2851562-.5888672-.0761719-.6459961.1337891-.0566406.2851562.0571289.5322266.1899414.5322266.2851562.8740234.2470703,1.1015625.2280273.5322266-.019043,1.7480469-.2470703,2.7548828-.6459961.0380859-.1518555.0566406-.284668.0761719-.3989258.2275391-1.0253906.3232422-2.3935547-.2089844-3.0966797-.1523438-.1894531-.6083984-.5693359-.5322266-.7783203.1142578-.3803711,1.5957031-.0576172,1.8808594.2089844.5322266.5507812.1894531,1.3671875.0761719,2.0136719-.0380859.284668-.1142578.8735352-.2851562,1.6904297.96875-.3037109,2.3554688-.5698242,3.1152344-.019043.9882812.722168,1.0644531,2.0708008.9501953,3.5146484Zm5.3574219.6459961c-.1523438.0185547-.2470703-.0761719-.6464844-.3232422-.3603516-.2851562-1.7285156-.4365234-1.8046875-.4365234-.0751953,0-.2470703-.0195312-.265625-.0761719,0-.0761719.1904297-.0952148.1904297-.0952148,0,0,1.1582031-.0952148,1.3867188-.1518555.2460938-.0571289.53125-.1708984.7402344-.3232422.2089844-.1708984.1523438-1.0253906-.5703125-1.8046875-.6640625-.7216797-1.8994141-1.234375-2.1269531-1.2915039-.0566406-.019043-.1904297-.0380859-.1708984-.1137695.0185547-.0576172.1894531-.0380859.2275391-.0380859,2.6787109.0566406,4.1230469,1.6523438,4.1796875,2.8876953.0761719,1.3867188-.96875,1.7470703-1.1396484,1.7666016Z"/>
      <path class="cls-1" d="m423.793457,30.8359375c.0576172-.265625.8173828-.1518555,1.2353516.0380859.4941406.2470703.7412109.4750977.9121094,1.1396484.1513672.6650391-.0761719,1.3110352-.2470703,1.8999023-.1523438.5888672-.4179688,1.1967773-.4179688,2.355957-.0195312,1.3105469.3037109,1.7851562.8164062,1.956543.5322266.1708984,1.9765625-.4941406,2.4892578-.5893555.5126953-.1132812.96875.2285156.9501953.6269531-.0195312.3994141-.1904297.722168-.7988281.8359375-.9873047.1523438-5.28125.7412109-4.7304688,4.046875.2851562,1.671875,2.3564453,1.9755859,4.4082031,1.5385742.7402344-.1518555,2.1650391-.3798828,2.2597656.5698242.0576172.7978516-1.4238281.8359375-2.2226562.9501953-.796875.0947266-5.1669922.3984375-5.4326172-2.8496094-.1904297-2.4130859,1.9570312-3.9326172,3.0400391-4.3696289,0,0-.7226562-.0952148-1.1210938-.8930664-.8359375-1.7094727-.3046875-4.3881836-.2851562-5.1479492.0380859-.9116211-.0380859-1.3110352-.4375-1.7094727-.265625-.2470703-.4550781-.2666016-.4179688-.3994141Z"/>
      <path class="cls-1" d="m437.3793945,39.8789062l-.2460938-.1904297c1.0058594-1.4624023,2.0136719-3.4384766,2.8496094-5.6230469.4550781-1.1586914.9492188-3.0014648,1.0253906-4.0458984,2.1083984.6835938,2.1083984.8735352,1.7480469,1.0068359l-.3417969.1137695c-.4941406,1.4248047-1.1025391,2.7924805-1.7480469,4.0463867.7402344.5698242.7402344.7597656.4560547.8925781l-.2666016.1333008v6.3637695c.0380859,2.2797852.0761719,3.0400391.1523438,4.4648438-.1708984.2089844-.6464844.5126953-1.1015625.5126953-.2285156,0-.4375-.1904297-.4375-.3798828.1142578-1.6337891.171875-2.4697266.2089844-4.9394531v-5.3378906c-.703125,1.1396484-1.5,2.1650391-2.2988281,2.9824219Zm14.5332031-5.8701172c.1708984-.2089844.2851562-.4370117.4375-.4370117.2275391,0,1.4052734,1.0068359,1.4052734,1.2915039-.1328125.1523438-.3994141.3041992-.7783203.3798828v1.9951172c.0371094,1.9946289.0566406,2.6591797.1328125,3.8945312-.1523438.2275391-.7412109.5126953-1.140625.5126953-.1699219,0-.2460938-.1899414-.2460938-.3798828.0371094-.0947266.0371094-.1523438.0761719-.3037109v-.3422852h-3.4199219c-.1328125,1.4628906-.4941406,2.7358398-1.2919922,3.7993164,1.9189453,1.0258789,4.3886719,1.5771484,7.1806641,1.671875v.2280273c-.5126953.1328125-.9492188.5888672-1.0634766,1.2158203-2.8115234-.3422852-5.0537109-1.1020508-6.7822266-2.394043-1.0634766,1.0068359-2.6972656,1.8242188-5.1103516,2.4130859l-.1708984-.2851562c2.2226562-.7788086,3.6660156-1.6523438,4.5976562-2.7353516-.7792969-.722168-1.40625-1.5957031-1.9189453-2.6220703l.2666016-.1708984c.53125.8549805,1.2529297,1.5581055,2.1269531,2.1660156.5703125-.9306641.8740234-2.0136719,1.0068359-3.2866211h-3.1728516v.7026367c0,.1333008-.4931641.4179688-.96875.4179688-.1894531,0-.3222656-.1894531-.3222656-.3798828.0761719-.7788086.0947266-1.1586914.1328125-2.3364258v-1.3676758c0-1.2919922-.0761719-2.8496094-.2470703-3.8945312l1.5009766.6835938h3.1152344v-2.1274414h-1.5957031c-.9882812.019043-1.8994141.1137695-2.8496094.2661133l-.4941406-.96875c.8359375.0947266,1.671875.1328125,2.5273438.1513672h6.78125l.3994141-.5693359c.2089844-.2851562.3798828-.5888672.5322266-.5888672.2275391,0,1.5380859,1.1206055,1.5380859,1.4052734-.0185547.2089844-.1894531.3041992-.4560547.3041992h-5.1855469v2.1274414h3.1533203l.3037109-.4365234Zm-4.6542969,1.0068359h-3.2109375v2.2226562h3.2109375v-2.2226562Zm-3.2109375,5.0527344h3.1914062c.0195312-.3222656.0195312-.6645508.0195312-1.0253906v-1.2539062h-3.2109375v2.2792969Zm4.4082031-1.0634766c0,.3608398,0,.7216797-.0195312,1.0634766h3.3632812v-2.2792969h-3.34375v1.2158203Zm3.34375-3.9892578h-3.34375v2.2226562h3.34375v-2.2226562Z"/>
      <path class="cls-1" d="m456.2661133,44.4379883l-.2285156-.2661133c1.9951172-1.9941406,3.5908203-4.84375,4.5410156-7.5795898h-1.3115234c-.7978516.019043-1.5761719.1137695-2.3554688.2661133l-.4746094-.96875c.8359375.0947266,1.671875.1328125,2.5263672.1513672h2.0517578v-3.4570312c-1.4052734.284668-2.9257812.5126953-4.3505859.6455078l-.0761719-.3417969c1.5205078-.3037109,3.1914062-.7788086,4.6738281-1.3300781,1.1777344-.4365234,2.2792969-.9873047,3.1152344-1.6333008,1.5390625,1.5385742,1.5390625,1.7285156,1.0644531,1.690918l-.4755859-.0576172c-.7597656.2666016-1.7285156.5322266-2.7734375.7792969v3.7041016h1.8427734l.3798828-.5693359c.2089844-.2851562.3798828-.5703125.5322266-.5703125.2275391,0,1.4814453,1.1020508,1.4814453,1.3867188-.0566406.2089844-.2089844.3041992-.4746094.3041992h-3.7617188v1.3867188c4.5595703,2.0327148,3.7041016,4.9013672,2.4316406,3.9516602-.3037109-1.1591797-1.4628906-2.6025391-2.4316406-3.5717773v4.2172852c.0380859,2.2797852.0761719,3.0400391.1523438,4.4648438-.1523438.2089844-.5703125.5126953-1.1210938.5126953-.2089844,0-.4179688-.1904297-.4179688-.3798828.1142578-1.6337891.1708984-2.4697266.2089844-4.9394531v-3.4765625c-1.1591797,2.2041016-2.7734375,4.1416016-4.7490234,5.6801758Zm10.7519531-8.8525391c0-1.2539062-.0761719-2.8496094-.2470703-3.8945312,2.0517578.5888672,2.0517578.7788086,1.7099609.987793l-.3222656.2089844v5.8515625c.0371094,2.2792969.0751953,3.0390625.1513672,4.4638672-.1513672.2661133-.6455078.5322266-1.0830078.5322266-.2089844,0-.3613281-.1904297-.3613281-.3798828.0761719-1.1972656.1142578-1.7861328.1523438-3.5908203v-4.1791992Zm3.9326172-1.2729492c0-1.2539062-.0761719-2.8496094-.2470703-3.8945312,2.0898438.6083984,2.0898438.7978516,1.7480469,1.0068359l-.3232422.1904297v14.0576172c0,1.0449219-.2275391,1.671875-1.9560547,1.8618164-.0761719-.3989258-.1904297-.722168-.3994141-.9116211-.3232422-.2285156-.7978516-.3803711-1.671875-.5131836v-.284668s1.9951172.1708984,2.375.1708984c.3603516,0,.4746094-.1333008.4746094-.4375v-11.2460938Z"/>
      <path class="cls-1" d="m481.3452148,34.3886719c-.9121094,2.5078125-2.8496094,7.2758789-3.1162109,8.0546875-.1708984.4746094-.8544922.7216797-1.0449219.3608398-.0751953-.1137695-.2089844-.4174805-.1699219-.9306641.0185547-.2280273.1328125-.3989258.5126953-1.0258789,0,0,2.0136719-3.4956055,2.8486328-6.1171875-.0371094.019043-.0751953.019043-.1132812.0380859-1.9755859.3417969-2.4316406-.987793-2.640625-1.2348633-.0761719-.1333008-.0947266-.284668-.0761719-.3227539.0380859-.0380859.1523438-.0571289.3613281.1328125.3417969.3417969,1.0634766.4179688,1.6904297.3798828.2470703-.019043.6650391-.1518555,1.1015625-.2851562,0-.0566406,0-.1137695.0195312-.1518555.0947266-.96875.1142578-1.1967773-.1337891-1.5385742-.2460938-.3417969-.8349609-.3417969-.6640625-.6459961.0761719-.1333008.4550781-.1899414.9121094-.019043.3984375.1523438,1.3486328.3613281.96875,1.9375.1894531-.0756836.3037109-.1137695.3037109-.1137695.0185547,0,.3037109-.1518555.3417969-.2661133.0185547-.0185547.0947266-.1137695-.1328125-.284668-.0185547-.019043-.3232422-.1899414-.3232422-.2470703,0-.2280273.6083984-.1708984.7792969-.1708984.3037109,0,.4365234,0,.6835938-.019043.265625-.019043.4746094.0947266.5888672.3232422.0947266.2089844.0185547.7402344-.3037109.9306641-1.0644531.5888672-1.8242188.96875-2.3935547,1.2158203Zm8.1875,2.5644531c-.4560547.0380859-.7597656-.2470703-1.0263672-.4179688-.265625-.1899414-.9492188-.4179688-1.4433594-.2470703-.2470703.0952148-1.1015625.5131836-1.40625,1.6152344-.1699219.5888672.0195312,2.0517578.0195312,2.0517578.0566406.9306641.2285156,1.7285156.3417969,2.90625,1.4248047.3608398,2.6601562,1.0068359,2.9453125,1.3105469.5126953.5322266.4931641.9121094.2460938,1.1401367-.3037109.284668-.6640625.0756836-1.3105469-.3422852-.6269531-.4179688-1.2158203-.7026367-1.7851562-.9116211,0,.1708984.0185547.3422852.0185547.5131836.0185547,1.0634766-.8359375,2.1083984-2.5458984,2.1655273-1.9179688.0571289-2.7353516-1.2158203-2.8115234-1.8237305-.0761719-.684082.2666016-1.652832,1.6904297-2.1279297.7792969-.265625,1.6914062-.265625,2.5839844-.1328125-.1328125-1.2348633-.1894531-3.0776367-.1708984-3.5332031.0185547-.8740234.1708984-1.4248047.5693359-2.0712891.5517578-.9116211,1.9003906-1.3295898,2.375-1.5004883.9316406-.3422852-.4550781-1.3676758-.5693359-1.5385742s.5693359-.0761719.96875.0756836c.6074219.2661133,1.2919922.684082,1.7666016,1.4438477.4179688.6650391.0185547,1.3867188-.4560547,1.4248047Zm-4.5019531,6.8007812c-1.4248047-.3037109-2.4892578-.0566406-2.8115234.0571289-.5322266.1899414-.6845703.5131836-.7226562.703125-.0947266.684082.5703125,1.1967773,1.4824219,1.2348633,1.5957031.0761719,1.8427734-.5888672,1.9941406-1.2919922.0195312-.1142578.0380859-.3798828.0576172-.703125Z"/>
      <path class="cls-1" d="m501.465332,42.1015625c.1904297-.2280273.3232422-.4750977.4755859-.4750977.2275391,0,1.3105469.9311523,1.3105469,1.2158203-.0566406.2089844-.2275391.3041992-.4560547.3041992h-3.4003906v1.8232422c1.1972656-.1894531,2.5263672-.3984375,3.8564453-.6074219l.0761719.3037109c-1.8994141.5698242-4.4453125,1.3486328-7.9599609,2.2607422-.0947266.2280273-.265625.3798828-.4560547.4365234l-.6455078-1.6904297c.8359375-.0761719,2.2792969-.265625,4.0458984-.5322266v-1.9941406h-1.2158203c-.7597656.0185547-1.5.1137695-2.2412109.265625l-.4755859-.987793c.8359375.0952148,1.671875.1333008,2.5273438.1518555h1.4052734v-1.8046875h-2.2412109v.4560547c0,.0947266-.3417969.3608398-.8740234.3608398-.1523438,0-.2666016-.1899414-.2666016-.3798828.0576172-.5888672.0761719-.8930664.1142578-1.7856445v-1.1015625c0-1.0830078-.0566406-2.4511719-.2089844-3.34375l1.4628906.6650391h2.0136719v-1.5009766h-1.3291016c-.8359375.019043-1.5957031.1142578-2.3945312.265625l-.4746094-.96875c.8359375.0952148,1.671875.1333008,2.5273438.1523438h1.6708984v-1.5771484c-1.2724609.1523438-2.6025391.2470703-3.8564453.2661133l-.0566406-.3417969c1.3300781-.1899414,2.8300781-.4750977,4.1982422-.8168945,1.2158203-.3037109,2.4316406-.7216797,3.34375-1.2539062,1.3291016,1.5009766,1.3291016,1.6904297.8544922,1.6337891l-.4560547-.0761719c-.8349609.1708984-1.8427734.3232422-2.9443359.4750977v1.690918h2.1845703l.3613281-.5131836c.1894531-.246582.3417969-.5126953.4931641-.5126953.2285156,0,1.3876953.987793,1.3876953,1.2729492-.0380859.2089844-.2285156.3037109-.4755859.3037109h-3.9511719v1.5009766h2.2607422l.2275391-.3422852c.1328125-.1708984.2089844-.3417969.3613281-.3417969.2285156,0,1.1777344.7026367,1.1777344.987793-.0947266.1523438-.265625.2661133-.6269531.3232422v1.5385742c.0380859,1.5385742.0566406,2.0517578.1142578,2.9824219-.1142578.1899414-.5507812.4560547-1.0263672.4560547h-.1894531v-.4750977h-2.2988281v1.8046875h1.7285156l.3417969-.4746094Zm-3.1533203-5.9082031h-2.2412109v1.7475586h2.2412109v-1.7475586Zm-2.2412109,4.0273438h2.2412109v-1.7285156h-2.2412109v1.7285156Zm5.6230469-4.0273438h-2.2988281v1.7475586h2.2988281v-1.7475586Zm-2.2988281,4.0273438h2.2988281v-1.7285156h-2.2988281v1.7285156Zm9.6884766-5.4521484l.3037109-.3989258c.171875-.2089844.2851562-.4179688.4375-.4179688.2275391,0,1.3300781.9311523,1.3300781,1.2158203-.1142578.1518555-.3232422.2661133-.7226562.3227539-.1132812,6.8012695-.3798828,10.1445312-1.1396484,11.0947266-.4746094.5888672-1.1591797.8359375-1.8613281.8359375,0-.3994141-.0576172-.722168-.2851562-.9311523-.2275391-.1899414-.8359375-.3608398-1.4443359-.4750977v-.3417969c.6845703.0761719,1.6914062.1708984,2.0527344.1708984.3222656,0,.4550781-.0566406.6269531-.2470703.5878906-.6074219.796875-4.0458984.8925781-10.2773438h-2.5273438c-.0947266,5.5473633-.6835938,9.574707-4.9765625,12.3291016l-.265625-.3417969c3.4951172-2.7734375,4.0458984-6.6298828,4.1025391-11.9873047h-.7216797c-.4179688.019043-.7978516.1142578-1.1777344.2661133l-.4941406-.9692383c.5322266.0952148,1.0644531.1333008,1.6337891.1523438h.7597656v-.5507812c.0195312-1.2539062-.0751953-2.8876953-.2470703-3.9326172,2.0898438.6079102,2.0898438.7978516,1.7480469,1.0068359l-.3232422.2089844-.0185547,3.2675781h2.3173828Z"/>
      <path class="cls-1" d="m514.7856445,33.7426758c.4746094-1.1586914.9121094-2.6977539,1.0449219-3.7612305,2.0136719.7783203,2.0136719.96875,1.671875,1.0825195l-.3417969.1137695c-.6083984,1.0068359-1.3300781,2.1088867-2.0136719,2.9257812,1.3105469,1.1210938.6074219,2.4506836-.2666016,1.8046875-.2089844-.8544922-.9873047-1.8994141-1.6708984-2.5078125l.1894531-.1513672c.5703125.1708984,1.0068359.3603516,1.3486328.5888672.0185547-.0380859.0185547-.0571289.0380859-.0952148Zm.8554688,7.8647461l-.3046875.1523438c-.4179688,1.5576172-1.0253906,3.1914062-1.7851562,4.2548828l-.3046875-.1518555c.1142578-.3227539.2285156-.684082.3417969-1.0639648.3417969-1.2158203.5507812-2.925293.5136719-3.9892578l1.0449219.3232422c.8164062.1137695.8164062.3037109.4941406.4746094Zm2.8486328-3.3242188c-.265625-.6269531-.5888672-1.2353516-.8740234-1.690918l.2285156-.1137695c3.171875,1.8803711,2.0703125,4.2363281,1.0253906,3.2675781-.0371094-.3232422-.1132812-.6845703-.2275391-1.0449219-.3994141.0756836-.8173828.1708984-1.2919922.265625v3.6474609c.0380859,2.2797852.0761719,3.0395508.1523438,4.4643555-.1523438.1899414-.5507812.4750977-1.1015625.4750977-.171875,0-.3808594-.1904297-.3808594-.3798828.1142578-1.6337891.171875-2.4697266.2089844-4.9394531v-3.0585938c-.5878906.1142578-1.234375.2280273-1.9375.3417969-.1328125.2470703-.2851562.3613281-.4746094.3994141l-.5126953-1.4443359c.3984375,0,.9873047-.0185547,1.7099609-.0375977.4550781-.8168945.96875-1.7475586,1.4619141-2.6977539.5888672-1.1015625,1.1972656-2.5458984,1.4628906-3.5712891,1.8808594.9116211,1.8808594,1.1015625,1.5205078,1.1967773l-.3613281.0756836c-.8740234,1.3867188-2.2607422,3.3818359-3.5908203,4.9775391.8935547-.0380859,1.9189453-.0761719,2.9824219-.1328125Zm-.3037109,2.4697266c2.8115234,2.1464844,1.6337891,4.4453125.6464844,3.4189453,0-1.0449219-.4755859-2.4316406-.8935547-3.3242188l.2470703-.0947266Zm3.2109375.3227539c-.4941406.019043-.9501953.1137695-1.40625.2661133l-.5126953-.9692383c.6083984.0952148,1.2158203.1333008,1.8232422.1518555h.8359375l.3046875-.3417969c.1708984-.1708984.2851562-.3608398.4365234-.3608398.2275391,0,1.1962891.8359375,1.1962891,1.1206055-.1513672.1708984-.3222656.2089844-.7216797.2285156-.6259766,2.1464844-1.9375,4.1787109-4.2548828,5.4326172l-.1708984-.284668c1.7099609-1.2729492,2.7919922-3.2294922,3.2675781-5.2431641h-.7978516Zm6.4208984-9.1376953c.1513672-.2089844.2470703-.4370117.3984375-.4370117.2285156,0,1.2158203.8925781,1.2158203,1.1777344-.1132812.1328125-.2851562.2280273-.6835938.3037109v1.9003906c.0380859,1.8803711.0566406,2.5073242.1328125,3.6660156-.1328125.1904297-.5507812.4560547-1.0820312.4560547h-.1904297v-.7216797h-2.1845703c.2851562,1.4433594.7402344,2.6210938,1.3105469,3.5712891.703125-.8740234,1.4628906-2.0708008,1.7851562-2.9443359,1.5771484,1.1777344,1.5771484,1.3671875,1.2353516,1.4052734l-.3232422.0195312c-.5693359.4936523-1.5761719,1.253418-2.5263672,1.8232422.96875,1.4819336,2.2041016,2.3935547,3.4951172,3.0585938l-.0371094.2280273c-.4560547.0952148-.7792969.4941406-.96875,1.0830078-2.0898438-1.6147461-3.4960938-3.6665039-4.1611328-7.7885742v6.9716797c0,.96875-.1894531,1.6523438-1.7285156,1.8427734-.0185547-.3613281-.1142578-.703125-.3232422-.8930664-.265625-.2089844-.703125-.3798828-1.4433594-.4750977v-.284668s1.671875.1333008,2.0136719.1333008c.3037109,0,.3798828-.0952148.3798828-.3613281v-7.3896484h-2.2041016v.5126953c0,.1142578-.3798828.3608398-.96875.3608398-.1523438,0-.265625-.1899414-.265625-.3798828.0566406-.684082.0761719-1.0449219.1132812-2.0893555v-1.2353516c0-1.234375-.0751953-2.7919922-.2460938-3.7993164l1.5761719.703125h1.2919922c.1708984-.722168.3037109-1.671875.3417969-2.3178711,2.0136719.4179688,2.0136719.6079102,1.671875.7792969l-.3232422.1513672c-.2841797.3994141-.7021484.9311523-1.0449219,1.387207h3.4765625l.2666016-.4179688Zm-.2089844.949707h-5.6806641v2.1464844h5.6806641v-2.1464844Zm-5.6806641,4.8442383h5.6806641v-2.1464844h-5.6806641v2.1464844Z"/>
      <path class="cls-1" d="m537.2807617,44.7421875c0,1.3867188-1.1015625,2.4882812-2.4697266,2.4882812-1.3671875,0-2.4882812-1.1015625-2.4882812-2.4882812,0-1.3681641,1.1210938-2.4697266,2.4882812-2.4697266,1.3681641,0,2.4697266,1.1015625,2.4697266,2.4697266Zm-.4560547,0c0-1.1020508-.9111328-1.9951172-2.0136719-1.9951172-1.1015625,0-2.0136719.8930664-2.0136719,1.9951172,0,1.1206055.9121094,2.0136719,2.0136719,2.0136719,1.1025391,0,2.0136719-.8930664,2.0136719-2.0136719Z"/>
    </g>
  </g>
</svg>