<?xml version="1.0" encoding="UTF-8"?>
<svg id="_レイヤー_2" data-name="レイヤー 2" xmlns="http://www.w3.org/2000/svg" viewBox="0 0 661 48">
  <defs>
    <style>
      .cls-1, .cls-2 {
        stroke-width: 0px;
      }

      .cls-2 {
        fill: none;
      }
    </style>
  </defs>
  <g id="_レイヤー_1-2" data-name="レイヤー 1">
    <g>
      <path class="cls-1" d="m14.9316406,9.6503906c.2089844-.265625.3603516-.5317383.5126953-.5317383.2285156,0,1.5009766,1.0068359,1.5009766,1.2915039-.0576172.2089844-.2089844.2851562-.4755859.2851562h-5.0332031c1.4052734,1.1210938,3.7421875,1.9951172,5.6796875,2.3935547l-.0195312.2089844c-.4550781.0952148-.7597656.4560547-.9111328,1.0263672-1.0263672-.3803711-2.0712891-.8740234-3.0019531-1.5009766v1.4814453c.0380859,1.4628906.0576172,1.9570312.1142578,2.8310547-.1328125.2275391-.7412109.5126953-1.1015625.5126953h-.1904297v-.9501953h-6.8769531v.5893555c0,.1137695-.3798828.4370117-.9501953.4370117-.1894531,0-.3417969-.1904297-.3417969-.3798828.0761719-.9882812.1142578-1.4819336.1523438-2.9638672v-1.6904297c-1.0830078.7978516-2.2988281,1.5004883-3.6855469,1.9941406l-.1708984-.284668c1.8994141-.949707,3.5332031-2.2797852,4.7304688-3.7045898h-1.5205078c-.9873047.019043-1.8994141.1142578-2.8496094.2661133l-.4931641-.949707c.8359375.0947266,1.6708984.1328125,2.5263672.1518555h2.7734375c.3417969-.4560547.6464844-.9116211.9121094-1.3676758h-1.6914062v.3417969c0,.1142578-.5126953.3798828-1.0058594.3798828-.1904297,0-.2851562-.1899414-.2851562-.3798828.0566406-.5126953.0566406-.7788086.0947266-1.5766602v-.987793c0-1.0068359-.0566406-2.2226562-.1904297-3.0400391l1.5009766.703125h7.6748047l.2666016-.3608398c.1513672-.1708984.265625-.3608398.4179688-.3608398.2275391,0,1.3291016.8164062,1.3291016,1.1015625-.0947266.1328125-.3798828.2661133-.6640625.3232422v1.3867188c.0371094,1.3676758.0566406,1.8237305.1132812,2.640625-.1132812.2089844-.7216797.5126953-1.1210938.5126953h-.1894531v-.6835938h-4.1601562c-.0761719.1894531-.3046875.284668-.7792969.284668-.2470703.3608398-.5322266.722168-.8359375,1.0830078h7.8837891l.3613281-.5131836Zm-.1142578-8.0927734c.2089844-.265625.3798828-.5507812.5322266-.5507812.2275391,0,1.4628906,1.0639648,1.4628906,1.3486328-.0195312.2089844-.2089844.3041992-.4755859.3041992h-4.7304688v.949707c0,.0952148-.3984375.3041992-.9873047.3232422-.1904297,0-.265625-.1904297-.265625-.3798828.0380859-.1523438.0380859-.2285156.0751953-.4560547v-.4370117h-3.8369141v.3417969c.0380859.3422852.0185547.4560547.0566406.5893555-.0566406.2275391-.5693359.3984375-1.0449219.3984375-.1708984,0-.2470703-.1894531-.2470703-.3798828.0380859-.1518555.0380859-.2470703.0761719-.4941406v-.4555664h-1.9941406c-.9882812.019043-1.9003906.1137695-2.8496094.2661133l-.4560547-.96875c.8359375.0947266,1.671875.1328125,2.5263672.1513672h2.7734375c0-.6264648-.0380859-1.3671875-.1132812-1.8994141,1.9179688.5698242,1.9179688.7597656,1.5957031.96875l-.3232422.2089844v.7216797h3.8369141c0-.6264648-.0371094-1.3671875-.1132812-1.8994141,1.9560547.5698242,1.9560547.7597656,1.6142578.96875l-.3232422.2089844v.7216797h2.8125l.3984375-.5507812Zm-2.3554688,3.2294922h-7.9414062v1.4443359h7.9414062v-1.4443359Zm-7.9414062,2.0136719v1.4248047h7.9414062v-1.4248047h-7.9414062Zm.8359375,5.3007812h6.5546875l.1132812-.1333008c-.4550781-.3989258-.8544922-.8168945-1.1777344-1.2729492h-4.6347656c-.3798828.4179688-.7978516.8359375-1.2539062,1.2158203l.3984375.1904297Zm6.6494141,2.0136719v-1.4628906h-6.8769531v1.4628906h6.8769531Zm-6.8769531,2.0322266h6.8769531v-1.4628906h-6.8769531v1.4628906Z"/>
      <path class="cls-1" d="m32.6962891,12.9750977c-.1894531,1.8237305-2.0322266,3.2485352-7.5224609,3.9321289-.1708984.0195312-.3037109.0195312-.3037109-.1328125-.0195312-.1518555.2275391-.1708984.4179688-.1899414.2275391-.0375977,5.3378906-.6459961,6.0791016-3.7045898.1132812-.5317383.3222656-2.5644531-1.2353516-3.0009766-1.5761719-.4179688-2.6025391.7978516-3.8564453,2.6591797-.2470703.3798828-.7978516.684082-1.0449219.684082-.2275391-.019043-1.6337891-.1333008-1.7285156-1.5200195-.0761719-1.1015625.1142578-3.4384766.3037109-5.3193359.0576172-.6835938-.2275391-1.0253906-.0761719-1.5004883.1142578-.3798828.4941406-.684082.6845703-.8359375.6269531-.5507812,2.2226562-1.1206055,2.3740234-1.2348633.171875-.1328125.3232422-.265625.0957031-.5317383-.3046875-.3803711-.5322266-.5512695-.8740234-.722168-.1328125-.0756836-.2851562-.1518555-.2666016-.2089844.0195312-.0947266.4755859-.1137695.5898438-.0947266.3222656,0,1.8232422-.0761719,2.3740234,1.5766602.2470703.722168-.3417969,1.1206055-.4560547,1.1401367-.1132812.0185547-.2851562-.0195312-.4746094-.1333008-.1708984-.1328125-.8925781-.9116211-2.8496094.3422852-.2851562.1708984-.3984375.4179688-.4560547.7597656-.0761719.4179688.3798828.5698242.3232422,1.3867188-.0380859.3608398-.3994141,2.7734375-.3994141,3.7993164,0,.4560547.0761719.7602539.2089844,1.0449219.1337891.2661133.2089844.3417969.3613281.3417969.1513672.019043.3994141-.0571289.703125-.3037109.3037109-.2470703,3.0205078-2.355957,4.7294922-1.8237305,1.7099609.5126953,2.4892578,1.9375,2.2988281,3.590332Z"/>
      <path class="cls-1" d="m52.7607422,12.5c-1.9755859,2.2226562-4.9208984,4.0654297-7.7128906,3.4956055-1.8242188-.3798828-2.8876953-1.5200195-2.9453125-4.2172852-.1132812-4.1796875.4941406-6.1738281.3613281-8.0361328-.1142578-1.2915039-.4365234-1.4624023-.7792969-1.6523438-.1513672-.0952148-.2275391-.3417969.1337891-.3994141.3603516-.0566406.7402344.0195312,1.0830078.1904297.7402344.3417969.9306641,1.5195312.8544922,2.1845703-.0380859.3417969-.1142578.8740234-.1523438,1.3676758-.2841797,2.659668-.53125,4.5024414-.3984375,6.5922852.1328125,2.2036133,1.0253906,2.640625,2.4697266,2.90625.9492188.1904297,3.0205078.3041992,6.8769531-2.6787109.1513672-.1137695.3603516-.265625.4365234-.1894531.0761719.0947266-.0761719.265625-.2275391.4365234Z"/>
      <path class="cls-1" d="m59.6591797,2.640625c-.0380859-.0566406-.1523438-.1899414-.1142578-.265625.0957031-.1523438.2470703-.0576172.3427734,0,.2275391.1513672,1.4052734.7783203,1.4052734,2.4692383,0,.684082-.8544922,2.3178711-1.1210938,3.4575195-.3222656,1.3105469-.2275391,1.9189453-.0566406,2.5263672.0380859.1523438.0185547.2285156.1708984.2470703.1523438.0195312.2089844-.0947266.3037109-.3227539s.7792969-1.8427734.8554688-2.0708008c.0751953-.2275391.1513672-.2089844.2089844-.1899414.0380859.019043.0566406.0952148,0,.2851562-.0576172.2084961-.6845703,2.4506836-.6650391,3.5522461.0380859,1.1210938.3798828,2.659668.4365234,2.9638672.0576172.3037109-.1894531.5698242-.4365234.5888672-.3798828.0380859-.8740234-.4560547-1.0644531-.96875-.2089844-.5131836-.7021484-1.8999023-.7597656-4.5405273-.0380859-2.5078125.7792969-4.2744141.9882812-6.1552734.0947266-.684082-.4375-1.5195312-.4941406-1.5766602Zm4.9199219,10.2773438c.4179688.3041992.8740234.6083984,1.6152344.7978516.7216797.1904297,2.4882812.1523438,4.1796875-.1518555.8164062-.1518555,1.2724609.3041992,1.2910156.684082,0,.3989258-.4550781.5698242-.7783203.6650391-.3232422.0947266-3.9707031.5317383-5.3759766-.3232422-.7597656-.4746094-1.1591797-1.2919922-1.2158203-1.4438477-.0761719-.1328125-.1337891-.3227539-.0761719-.3798828.0947266-.0756836.2470703.0756836.3603516.1518555Zm.5322266-9.0043945c.1328125.0571289.703125.2661133,1.5195312.2280273.8173828-.0380859,2.6220703-.3613281,3.0205078-.4941406.3994141-.1328125,1.0263672.1899414,1.1210938.5322266.0957031.3417969-.3417969.5888672-.7597656.7216797s-2.4121094.4746094-3.5712891.1899414c-.8935547-.2089844-1.5771484-.684082-1.8046875-1.1401367-.0576172-.1137695-.0761719-.2089844-.0380859-.265625.0566406-.0947266.3798828.1708984.5126953.2280273Z"/>
      <path class="cls-1" d="m80.8818359,9.6318359c.1708984-.2661133.3037109-.5512695.4560547-.5512695.2275391,0,1.2539062,1.0639648,1.2539062,1.3491211-.0380859.2089844-.2089844.284668-.4365234.284668h-2.0332031v3.8945312c.8359375-.2661133,1.7099609-.5512695,2.6025391-.8359375l.0947266.284668c-1.3867188.703125-3.3242188,1.6914062-5.8505859,2.8496094-.0380859.2285156-.2089844.3994141-.3994141.4755859l-.6074219-1.5771484c.2470703-.0566406.6074219-.1518555,1.0449219-.265625v-3.2490234c0-1.1015625-.0576172-2.4316406-.2089844-3.3242188,1.7285156.5317383,1.7285156.7216797,1.4433594.9121094l-.2851562.1708984v5.2236328l1.1025391-.3417969V6.8579102h-.9882812v.4941406c0,.1137695-.3417969.3798828-.8925781.3798828-.1523438,0-.2666016-.1899414-.2666016-.3798828.0576172-.6079102.0761719-.9311523.1142578-1.8618164v-1.1210938c0-1.1396484-.0566406-2.5073242-.2089844-3.4384766l1.4814453.684082h2.4697266l.2666016-.3417969c.1513672-.1713867.2470703-.3422852.3984375-.3422852.2285156,0,1.3105469.7792969,1.3105469,1.0639648-.1328125.1518555-.3984375.3041992-.7216797.3803711v1.6142578c.0380859,1.6152344.0576172,2.1469727.1142578,3.1157227-.1328125.2280273-.6835938.4560547-1.0449219.4560547h-.1708984v-.703125h-.7978516v3.3056641h.4365234l.3232422-.5317383Zm-2.8115234-3.324707h2.8496094V2.1660156h-2.8496094v4.1411133Zm12.3486328,6.8388672c.1894531-.2661133.3417969-.5317383.4931641-.5317383.2285156,0,1.3876953.987793,1.3876953,1.2724609-.0576172.2089844-.2285156.3041992-.4755859.3041992h-3.4189453v1.918457h2.203125l.3798828-.5507812c.2089844-.265625.3613281-.5507812.5126953-.5507812.2285156,0,1.4824219,1.0639648,1.4824219,1.3486328-.0576172.2089844-.2089844.3041992-.4560547.3041992h-7.9404297v.5888672c0,.0952148-.3427734.3989258-.8935547.3989258-.1708984,0-.3417969-.1899414-.3417969-.3798828.0947266-1.4057617.1328125-2.1279297.1708984-4.2553711v-2.3364258c-.5322266.6269531-1.0830078,1.1582031-1.6904297,1.5761719l-.2470703-.2275391c.4179688-.4560547.8359375-1.0258789,1.234375-1.671875.6650391-1.0639648,1.2919922-2.8115234,1.4248047-3.8754883,1.9003906.7407227,1.9003906.9311523,1.5390625,1.0449219l-.3417969.0952148c-.2089844.4555664-.4179688.8925781-.6650391,1.2915039l.0195312.019043h2.46875c.2666016-.703125.4755859-1.6337891.5136719-2.3173828,1.8613281.4746094,1.8613281.6645508,1.5195312.8164062l-.3417969.1333008c-.3046875.4174805-.703125.9116211-1.1210938,1.3676758h2.5839844l.3603516-.5322266c.1904297-.265625.3417969-.5507812.4941406-.5507812.2275391,0,1.4248047,1.0263672,1.4248047,1.3110352-.0566406.2089844-.2089844.3041992-.4746094.3041992h-3.8183594v1.8046875h1.6328125l.3427734-.4941406c.1894531-.2470703.3417969-.5126953.4931641-.5126953.2285156,0,1.3867188.9873047,1.3867188,1.2724609-.0371094.2089844-.2089844.3037109-.4746094.3037109h-3.3808594v1.8242188h1.6708984l.3427734-.5131836Zm-4.4267578-12.1391602c.1523438-.1899414.2470703-.3989258.3994141-.3989258.2275391,0,1.2724609.8740234,1.2724609,1.1586914-.1142578.1328125-.3798828.2851562-.703125.3417969v1.5581055c.0380859,1.5385742.0576172,2.0517578.1142578,2.9824219-.1328125.1899414-.6835938.4179688-1.0068359.4179688h-.1708984v-.7407227h-1.0068359c-.6083984.019043-1.1972656.1142578-1.7861328.265625l-.5126953-.949707c.7412109.0952148,1.4814453.1333008,2.2412109.1518555h1.0644531v-1.7475586h-.8740234c-.5322266.019043-1.0449219.1137695-1.5576172.2661133l-.5136719-.96875c.6650391.0947266,1.3300781.1328125,2.0136719.1518555h.9316406v-1.5385742h-.96875c-.5703125.0185547-1.1210938.1137695-1.671875.265625l-.4941406-.987793c.6650391.0952148,1.3300781.1333008,2.0136719.1518555h.9501953l.265625-.3798828Zm1.3105469,8.4541016h-2.7158203v1.8046875h2.7158203v-1.8046875Zm0,4.1982422v-1.8242188h-2.7158203v1.8242188h2.7158203Zm-2.7158203.5317383v1.918457h2.7158203v-1.918457h-2.7158203Zm6.5341797-13.203125c.1523438-.1899414.2666016-.3989258.4179688-.3989258.2285156,0,1.2734375.8930664,1.2734375,1.1777344-.0761719.1328125-.3613281.2851562-.703125.3613281v1.5385742c.0380859,1.5385742.0566406,2.0517578.1142578,2.9633789-.1328125.2089844-.6845703.4370117-1.0263672.4370117h-.1708984v-.7407227h-1.0449219c-.6455078.019043-1.2158203.1142578-1.8232422.265625l-.5136719-.949707c.7607422.0952148,1.5205078.1333008,2.2802734.1518555h1.1015625v-1.7475586h-.9306641c-.5703125.019043-1.1210938.1137695-1.671875.2661133l-.5126953-.96875c.703125.0947266,1.4052734.1328125,2.1269531.1518555h.9882812v-1.5385742h-.9501953c-.6074219.0185547-1.1396484.1137695-1.7089844.265625l-.5136719-.987793c.6845703.0952148,1.3681641.1333008,2.0517578.1518555h.9501953l.265625-.3989258Z"/>
      <path class="cls-1" d="m102.3701172,12.234375c.1904297-.2280273.3232422-.4750977.4755859-.4750977.2275391,0,1.3105469.9311523,1.3105469,1.2158203-.0566406.2089844-.2275391.3041992-.4560547.3041992h-3.4003906v1.8232422c1.1972656-.1894531,2.5263672-.3984375,3.8564453-.6074219l.0761719.3037109c-1.8994141.5698242-4.4453125,1.3486328-7.9599609,2.2607422-.0947266.2280273-.265625.3798828-.4560547.4365234l-.6455078-1.6904297c.8359375-.0761719,2.2792969-.265625,4.0458984-.5322266v-1.9941406h-1.2158203c-.7597656.0185547-1.5.1137695-2.2412109.265625l-.4755859-.987793c.8359375.0952148,1.671875.1333008,2.5273438.1518555h1.4052734v-1.8046875h-2.2412109v.4560547c0,.0947266-.3417969.3608398-.8740234.3608398-.1523438,0-.265625-.1899414-.265625-.3798828.0566406-.5888672.0751953-.8930664.1132812-1.7856445v-1.1015625c0-1.0830078-.0566406-2.4511719-.2089844-3.34375l1.4628906.6650391h2.0136719v-1.5009766h-1.3291016c-.8359375.019043-1.5957031.1142578-2.3945312.265625l-.4746094-.96875c.8359375.0952148,1.671875.1333008,2.5263672.1523438h1.671875v-1.5771484c-1.2724609.1523438-2.6025391.2470703-3.8564453.2661133l-.0566406-.3417969c1.3300781-.1899414,2.8300781-.4750977,4.1982422-.8168945,1.2158203-.3037109,2.4316406-.7216797,3.34375-1.2539062,1.3291016,1.5009766,1.3291016,1.6904297.8544922,1.6337891l-.4560547-.0761719c-.8359375.1708984-1.8427734.3232422-2.9443359.4750977v1.690918h2.1845703l.3613281-.5131836c.1894531-.246582.3417969-.5126953.4941406-.5126953.2275391,0,1.3867188.987793,1.3867188,1.2729492-.0380859.2089844-.2285156.3037109-.4755859.3037109h-3.9511719v1.5009766h2.2607422l.2275391-.3422852c.1337891-.1708984.2089844-.3417969.3613281-.3417969.2285156,0,1.1777344.7026367,1.1777344.987793-.0947266.1523438-.265625.2661133-.6269531.3232422v1.5385742c.0380859,1.5385742.0566406,2.0517578.1142578,2.9824219-.1142578.1899414-.5507812.4560547-1.0263672.4560547h-.1894531v-.4750977h-2.2988281v1.8046875h1.7285156l.3417969-.4746094Zm-3.1533203-5.9082031h-2.2412109v1.7475586h2.2412109v-1.7475586Zm-2.2412109,4.0273438h2.2412109v-1.7285156h-2.2412109v1.7285156Zm5.6230469-4.0273438h-2.2988281v1.7475586h2.2988281v-1.7475586Zm-2.2988281,4.0273438h2.2988281v-1.7285156h-2.2988281v1.7285156Zm9.6884766-5.4521484l.3037109-.3989258c.171875-.2089844.2851562-.4179688.4375-.4179688.2275391,0,1.3300781.9311523,1.3300781,1.2158203-.1142578.1518555-.3232422.2661133-.7226562.3227539-.1132812,6.8012695-.3798828,10.1445312-1.1396484,11.0947266-.4746094.5888672-1.1591797.8359375-1.8613281.8359375,0-.3994141-.0576172-.722168-.2851562-.9311523-.2275391-.1899414-.8359375-.3608398-1.4443359-.4750977v-.3417969c.6845703.0761719,1.6914062.1708984,2.0527344.1708984.3222656,0,.4550781-.0566406.6259766-.2470703.5888672-.6074219.7978516-4.0458984.8935547-10.2773438h-2.5273438c-.0947266,5.5473633-.6835938,9.574707-4.9765625,12.3291016l-.2666016-.3417969c3.4960938-2.7734375,4.046875-6.6298828,4.1035156-11.9873047h-.7216797c-.4179688.019043-.7978516.1142578-1.1777344.2661133l-.4941406-.9692383c.5322266.0952148,1.0644531.1333008,1.6337891.1523438h.7597656v-.5507812c.0195312-1.2539062-.0751953-2.8876953-.2470703-3.9326172,2.0898438.6079102,2.0898438.7978516,1.7480469,1.0068359l-.3232422.2089844-.0185547,3.2675781h2.3173828Z"/>
      <path class="cls-1" d="m128.7792969,7.8076172c-.5693359.7792969-1.5576172,1.2919922-2.4316406,1.6533203-.7216797.3227539-2.0517578.7978516-3.3056641,1.3486328-.1132812,1.0449219-.0371094,2.4501953-.0566406,2.7543945-.0380859.3989258-.3984375.7026367-.703125.684082-.3037109-.019043-.5507812-.3041992-.5693359-.684082,0-.2089844.1132812-1.2158203.1894531-2.1845703-.3603516.1708984-.703125.3798828-.9873047.5698242-.9501953.6650391-1.4443359,1.690918-1.3496094,2.3935547.0957031.7597656,1.0830078,1.0830078,1.7099609,1.1591797,1.5009766.1328125,2.0332031.0380859,3.2109375-.2470703,1.0253906-.2470703,1.4433594-.1523438,1.5957031.265625.2089844.5888672-1.0263672.96875-1.6152344,1.0449219-.7216797.1142578-1.7470703.1708984-2.9824219.0380859-2.1650391-.2470703-2.5458984-1.2539062-2.6210938-2.1083984-.0576172-.5703125.1513672-1.8046875,1.5957031-2.8691406.3798828-.265625.8925781-.5507812,1.4814453-.8354492.0195312-.4370117.0195312-.8168945-.0185547-1.0830078-.1337891-1.0258789-.4375-1.4248047-1.1025391-1.4819336-.8164062-.0756836-1.8994141,1.1777344-2.5078125,2.0136719-.1513672.2089844-.2841797.3994141-.4365234.5888672-.1904297.2470703-.6074219.8740234-.8164062,1.0263672-.2089844.1518555-.6464844-.0761719-.7792969-.3613281-.1328125-.3037109-.0566406-.8544922.1523438-1.1015625.2841797-.3232422,1.4619141-1.1972656,2.1650391-2.3935547.5322266-.9121094,1.1591797-2.2226562,1.5585938-3.5336914-.6464844.1708984-1.3496094.2661133-1.9951172.1708984s-1.2539062-.5698242-1.5771484-.8354492c-.0566406-.0576172-.0947266-.1333008-.0566406-.1713867.0566406-.0952148.2470703-.019043.3417969.019043.1142578.0380859.7792969.2661133,1.5576172.2280273.4375-.0380859,1.2158203-.1333008,2.0136719-.4179688.0380859-.2280273.0761719-.4370117.1142578-.6645508.0566406-.4755859,0-1.0644531-.5703125-1.5200195-.0947266-.0761719-.1132812-.0761719-.0751953-.2470703s.1894531-.1708984.2841797-.1708984c.1142578,0,1.0644531.1328125,1.2353516.3608398.0947266.1708984.1142578.4560547.0761719.7788086.2089844.2089844.6650391.2851562,1.1015625.2280273.1708984-.0761719.8164062-.1899414.8925781.1328125.1142578.3798828-.4179688.8740234-1.0068359,1.1972656-.265625.1328125-.8544922.4365234-1.5761719.6835938-.3417969,1.1015625-.7792969,2.3935547-1.3300781,3.628418.6074219-.3227539,1.2724609-.3227539,1.8232422-.1708984,1.0830078.284668,1.3876953,1.8427734,1.3876953,1.8427734.2841797-.6645508.6259766-1.4819336,1.7089844-2.6025391.7597656-.7978516,2.1279297-1.652832,3.2675781-1.5009766,1.2353516.1713867,1.7099609,1.4248047,1.0068359,2.3745117Zm-7.5419922-4.7109375c.2089844-.0952148.3994141-.2280273.5888672-.3613281-.0185547-.0756836-.0566406-.1513672-.1894531-.2275391-.0761719-.0571289-.1523438-.0761719-.2285156-.0952148-.0380859.2089844-.0947266.4370117-.1708984.684082Zm6.6113281,3.0395508c-.6269531-.4941406-2.0136719.1137695-3.0019531,1.1020508-.7978516.7978516-1.2158203,1.4433594-1.671875,2.90625,0,.019043-.0185547.0380859-.0185547.0380859.8925781-.4179688,1.8623047-.8740234,2.7353516-1.4057617,1.6152344-.949707,2.4316406-2.2416992,1.9570312-2.640625Z"/>
      <path class="cls-1" d="m146.0126953,9.6884766c.2285156-.3037109.4179688-.6079102.5703125-.6079102.2275391,0,1.6337891,1.1586914,1.6337891,1.4438477-.0380859.1899414-.2089844.2851562-.4755859.2851562h-5.6035156v5.5283203h5.1289062l.4365234-.6083984c.2285156-.3037109.4179688-.6074219.5703125-.6074219.2275391,0,1.6904297,1.1962891,1.6904297,1.4814453-.0566406.2089844-.2275391.3037109-.4746094.3037109h-13.0888672c-.9882812.0195312-1.8994141.1142578-2.8496094.2666016l-.4941406-.9882812c.8359375.0947266,1.671875.1328125,2.5263672.1523438h5.28125v-5.5283203h-2.4316406c-.9873047.0185547-1.8994141.1137695-2.8496094.265625l-.4746094-.949707c.8359375.0952148,1.671875.1333008,2.5263672.1518555h3.2294922v-4.8251953h-4.1035156c-.96875,1.7861328-2.1650391,3.2866211-3.4189453,4.4072266l-.2285156-.1894531c.9501953-1.2353516,1.9189453-2.9072266,2.7167969-4.7875977.4941406-1.1586914,1.0263672-3.0205078,1.1025391-4.0654297,2.1269531.684082,2.1269531.8735352,1.7666016,1.0258789l-.3427734.1328125c-.3603516,1.0258789-.7978516,2.0136719-1.2724609,2.9257812h3.7802734v-.7792969c0-1.2915039-.0761719-2.8491211-.2470703-3.894043,2.1474609.6079102,2.1474609.7978516,1.8242188,1.0258789l-.3037109.2089844v3.4384766h4.1220703l.4179688-.5888672c.2275391-.2851562.4179688-.5888672.5693359-.5888672.2285156,0,1.6347656,1.1396484,1.6347656,1.4248047-.0576172.2089844-.2470703.3037109-.4941406.3037109h-6.25v4.8251953h3.4384766l.4365234-.5888672Z"/>
      <path class="cls-1" d="m167.3496094,9.0996094c-.1708984,0-.3798828-.1328125-.6269531-.2275391-.2285156-.1142578-1.0634766-.2666016-1.5009766-.1904297-.1523438.019043-.2089844-.0380859-.2089844-.0761719,0-.0947266.0761719-.1137695.2089844-.1513672.1328125-.0195312,1.0068359-.3613281,1.1396484-.5131836s.2666016-.1518555.1142578-.8359375-.6835938-1.9755859-1.3105469-1.8237305c-.6083984.1518555-1.1777344,1.3867188-1.2353516,3.0205078-.0380859,1.6147461.2666016,3.9892578.3994141,4.3691406.1513672.3798828.3798828,1.0644531.3798828,1.6152344,0,.8164062-.3232422,2.1845703-4.7304688,2.4501953-1.3105469.0952148-4.2939453-.0947266-4.3886719-1.8994141-.0380859-.5507812.1337891-1.4248047.3037109-2.0708008-.7597656-.4936523-1.9560547-2.0136719-1.6142578-4.0844727.1904297-1.2158203,1.4814453-2.0517578,2.4501953-1.8046875.0195312-.5317383.0380859-1.1777344.0380859-1.8237305-.8544922.2089844-1.7089844.3422852-2.203125.1713867-.6083984-.2285156-1.0830078-1.1972656-1.1591797-1.3681641s-.0185547-.2280273,0-.2470703c.0761719-.0380859.1523438.0380859.2470703.1523438.0761719.0947266.6083984.6074219,1.4248047.5317383.2470703-.019043.9121094-.0952148,1.6904297-.3041992,0-.6074219-.0185547-1.0830078-.0380859-1.2724609-.0371094-.4750977-.0947266-.8359375-.7216797-1.3486328-.2470703-.1904297-.3984375-.2285156-.3417969-.3422852.1328125-.3422852,1.2353516-.1518555,1.5390625.019043.3798828.2089844.6650391.5322266.7216797,1.0068359.0195312.1708984-.0185547.4179688-.0947266.7412109.265625.0947266.5888672.1894531.8925781.2275391.6835938.0761719.9306641.0761719,1.0068359.3989258.0761719.3041992-.0761719.6269531-.4746094.8168945-.1708984.0761719-.8925781.3613281-1.7480469.6079102-.0761719.7978516-.1523438,1.7094727-.2089844,2.355957.2470703.2275391.5126953.5888672.4560547,1.0449219-.1142578.7978516-.2470703.6645508-.4365234,1.5576172-.3046875,1.3295898-.0957031,2.640625-.3427734,2.9443359-.1708984.2089844-.2275391.2661133-.5126953.2089844-.1523438.7978516-.1894531,1.652832.1708984,2.0327148.6083984.5888672,2.4316406.6079102,3.2109375.5512695.6835938-.0576172,3.6660156-.1333008,3.7236328-2.1469727.0566406-2.1655273-.1328125-4.1411133-.0576172-5.0913086.0576172-.949707.4179688-3.4951172,1.9951172-3.5146484,1.5957031-.0185547,2.2988281,2.2041016,2.4121094,3.324707.0957031.7602539-.4365234.987793-.5693359.987793Zm-10.8476562.0761719c.0566406-.6459961.3232422-1.9189453-.6083984-1.7099609-.796875.1708984-1.0058594,1.0258789-1.0634766,1.6147461-.0566406.7602539.3037109,2.0327148.9501953,2.2036133.4941406.1142578.6650391-1.4248047.7216797-2.1083984Zm1.1396484-5.4711914c.0957031-.0380859.2089844-.0952148.3232422-.1333008.1513672-.0756836.3232422-.1708984-.0380859-.3798828-.0566406-.0185547-.1142578-.0566406-.1894531-.0947266v.0566406c-.0380859.1142578-.0761719.3041992-.0957031.5512695Z"/>
      <path class="cls-1" d="m172.8232422,14.9887695c-.4941406-.6079102-1.0830078-1.1777344-1.3300781-1.3486328-.2089844-.1518555-.3417969-.2280273-.3222656-.3227539.0380859-.1333008.2275391-.0761719.4746094,0,.2285156.0566406,3.2480469,1.0634766,3.9511719,2.7734375.2089844.4746094.0380859,1.234375-.6455078,1.3867188-.2851562.0566406-.6269531-.1142578-.9501953-.6459961-.0761719-.1518555-.7597656-1.3295898-1.1777344-1.8427734Z"/>
      <path class="cls-1" d="m204.3994141,15.2167969c-.4560547.4370117-.8740234,0-1.3105469-.7788086-.703125-1.2158203-1.3681641-2.0708008-2.1279297-2.7924805-.703125-.6650391-1.7470703-1.2539062-2.3173828-1.5200195-2.1279297,2.2988281-4.8632812,4.6166992-7.5800781,5.7749023-.1328125.0761719-.2470703.0195312-.265625-.0566406-.0576172-.1328125.1328125-.1708984.2089844-.2089844,3.7421875-2.0517578,8.7763672-7.940918,9.5742188-10.4482422.0947266-.3232422-.1142578-.2851562-.3037109-.3041992-1.1025391-.0952148-4.2363281,1.0068359-4.4833984,1.0639648-.2285156.0761719-.5136719.2851562-.8173828.2089844-.9492188-.2280273-1.3291016-1.0068359-1.3867188-1.2729492-.0566406-.2280273-.0380859-.4750977.0380859-.5131836.1904297-.0947266.265625.2089844.6835938.3613281.3232422.1328125.6650391.2089844,1.4824219.0761719.3798828-.0576172,4.0273438-.6464844,4.4257812-.7412109.2851562-.0566406.3232422-.0761719.5136719-.1899414.1894531-.0952148.4365234-.2280273.5507812-.2280273.1132812,0,.2851562.0947266.4941406.2280273.2089844.1518555.796875.4936523.9873047.96875.0761719.1713867.1142578.4560547-.1142578.5888672-.1328125.0571289-.7021484.5131836-.8359375.722168-.6835938,1.0634766-1.7285156,2.4125977-2.9824219,3.7802734,1.0449219.3037109,3.7050781,1.3867188,5.28125,3.34375.5898438.7407227.7597656,1.4814453.2851562,1.9375Z"/>
      <path class="cls-1" d="m210.5009766,11.1894531c-.171875-.1708984-.2480469-.2851562-.2089844-.3989258.0566406-.1518555.3789062-.0380859.5693359-.0380859.9501953.0952148,1.4052734.0952148,2.3935547-.0756836.3613281-.0761719,2.0517578-.4941406,3.7421875-.9692383-.265625-1.1396484-.5693359-2.3364258-.8359375-3.3623047-1.0820312.3227539-2.0136719.6459961-2.5263672.8549805-.6835938.3037109-1.3867188-.1708984-1.9560547-.7792969-.1142578-.1328125-.2666016-.3037109-.2285156-.3984375.0380859-.0952148.2089844-.0195312.3417969,0,.1142578.0375977.5136719.1328125.9121094.1137695.3798828,0,.8359375-.019043,1.5390625-.1713867.3222656-.0566406.9873047-.2089844,1.7285156-.3984375-.2470703-.9121094-.4375-1.6152344-.5507812-1.8808594-.3232422-.7978516-.2851562-.96875-.8925781-1.1777344-.2285156-.0952148-.4941406-.0761719-.5507812-.0761719-.171875,0-.3046875,0-.3232422-.1142578-.0761719-.246582.5888672-.6269531,1.1015625-.7216797s1.2158203.019043,1.5009766.2280273c.265625.2089844.3417969.4370117.3222656.6459961-.0371094.1899414-.1328125.5317383-.0371094,1.1015625.0751953.4750977.1894531,1.0639648.3417969,1.7480469.7783203-.2280273,1.5390625-.4750977,1.9375-.684082.5507812-.284668.6455078-.4555664,1.0830078-.6079102.4365234-.1328125,1.6337891.1142578,1.8232422.4941406.1904297.3989258-.4365234.6079102-.5888672.6269531-1.1201172.1708984-2.640625.5317383-4.0654297.9306641.265625,1.0449219.5888672,2.2036133.9501953,3.3623047,1.2724609-.3608398,2.4130859-.6835938,2.8310547-.8359375.7783203-.3037109.8164062-.6455078,1.3291016-.7978516.5322266-.1513672,2.3935547.2661133,2.5078125.8930664.0566406.3422852-.6083984.4750977-1.0449219.5131836-1.2919922.0756836-3.3818359.4746094-5.3955078.9873047.5136719,1.6914062,1.0644531,3.3251953,1.4824219,4.5029297.2275391.5888672.6835938,1.7475586-.0576172,1.9375-.5888672.1708984-1.1201172-.3613281-1.2529297-.8925781-.171875-.7412109-.5322266-2.355957-.875-3.7426758-.0947266-.4750977-.2275391-.987793-.3603516-1.5385742-1.7480469.4936523-3.2861328,1.0444336-3.9707031,1.5195312-1.234375.8359375-2.5458984-.6079102-2.7158203-.7978516Z"/>
      <path class="cls-1" d="m231.7607422,8.4345703c-.1513672-.1137695-.2275391-.2089844-.1894531-.3037109.0566406-.1142578.3222656-.0571289.5507812-.019043.2089844.0756836,1.9755859.7978516,2.0136719,2.0517578,0,.3989258-.1328125.96875-.7216797.8930664-.2851562-.0380859-.4755859-.3232422-.5703125-.7602539-.0947266-.3798828-.2089844-1.1206055-1.0830078-1.8618164Zm9.3085938.3798828c-.2851562.4179688-.265625.4375-.6074219,1.0263672-.3417969.5507812-2.8691406,5.4326172-8.2451172,6.8769531-.2841797.0566406-.4365234.0566406-.4560547-.0571289-.0185547-.0952148.0957031-.1713867.3417969-.2661133,3.4765625-1.4057617,6.7441406-5.0532227,7.4853516-8.0356445.1904297-.7407227.1328125-1.2158203-.2089844-1.4819336-.1328125-.0947266-.3232422-.2089844-.3232422-.3037109.0380859-.1904297.2470703-.1904297.3232422-.1904297.2666016-.0185547.4941406.0195312.8173828.0952148.3984375.1137695,1.0634766.6269531,1.2539062,1.3676758.1132812.5322266-.1523438.5888672-.3808594.96875Zm-6.5537109-2.4692383c.0576172-.0952148.2089844-.0952148.5507812,0,.2285156.0756836,1.8623047.7597656,1.9951172,2.0327148.0761719.5317383-.265625.96875-.703125.96875-.3037109,0-.5126953-.3037109-.6269531-.8168945-.1142578-.5888672-.1894531-1.1020508-1.0449219-1.8999023-.0380859-.0185547-.2089844-.1518555-.1708984-.284668Z"/>
      <path class="cls-1" d="m261.3046875,4.578125c.1708984.684082-.5507812,1.0639648-1.0634766,2.0708008-2.7548828,5.3950195-6.3076172,7.6176758-11.0380859,9.7836914-.2470703.1142578-.4365234.0947266-.4560547,0-.0371094-.1142578.1142578-.1899414.3613281-.3232422,4.1035156-1.9375,8.8710938-6.4589844,10.2392578-11.1699219.1328125-.4370117-.1513672-.3798828-.2470703-.3798828-.2460938,0-5.1669922.8925781-7.3320312,1.6142578-.8554688.3041992-1.4443359.1142578-1.7861328-.1328125-.4755859-.3417969-.8935547-1.234375-.7412109-1.4248047.0761719-.0947266.3417969-.0380859.6269531.0571289.7216797.2280273,1.1396484.1708984,1.5957031.1333008.7978516-.0761719,5.6796875-.6464844,6.4589844-.8930664.5322266-.1713867,1.2539062-.6650391,1.5957031-.6079102.3417969.0566406,1.6914062.9116211,1.7861328,1.2724609Zm3.3623047-2.3554688c0,1.0068359-.8164062,1.8237305-1.8046875,1.8237305-1.0068359,0-1.8242188-.8168945-1.8242188-1.8237305,0-.987793.8173828-1.8046875,1.8242188-1.8046875.9882812,0,1.8046875.8168945,1.8046875,1.8046875Zm-.4941406,0c0-.7216797-.5888672-1.3105469-1.3105469-1.3105469-.7412109,0-1.3300781.5888672-1.3300781,1.3105469,0,.7412109.5888672,1.3300781,1.3300781,1.3300781.7216797,0,1.3105469-.5888672,1.3105469-1.3300781Z"/>
      <path class="cls-1" d="m276.6962891,2.375c4.0273438,0,6.6865234,2.4501953,6.6865234,6.9335938,0,4.3886719-2.90625,6.9150391-7.0292969,6.9150391h-5.5654297v-.6835938l1.9755859-.2089844c.0566406-1.8046875.0566406-3.6855469.0566406-5.8325195v-.684082c0-1.8803711,0-3.7421875-.0566406-5.565918l-1.9755859-.2089844v-.6645508h5.9082031Zm-.5136719,13.0698242c3.5146484,0,5.3769531-2.2988281,5.3769531-6.1362305,0-4.0083008-1.8623047-6.1552734-5.1679688-6.1552734h-1.9375c-.0566406,1.8242188-.0566406,3.7236328-.0566406,5.6611328v.684082c0,2.1469727,0,4.0654297.0566406,5.9462891h1.7285156Z"/>
      <path class="cls-1" d="m296.1318359,12.6328125l-.1328125,3.5908203h-10.5439453v-.6835938l1.9755859-.2089844c.0576172-1.8046875.0576172-3.6474609.0576172-5.5097656v-1.0444336c0-1.8427734,0-3.7045898-.0576172-5.5283203l-1.9755859-.2089844v-.6645508h10.1640625l.1328125,3.5712891h-.9306641l-.5136719-2.7358398h-5.1855469c-.0566406,1.7856445-.0566406,3.6474609-.0566406,5.5854492h3.3242188l.2851562-2.0517578h.7783203v4.8061523h-.7783203l-.2666016-1.9946289h-3.3427734c0,2.1083984,0,3.9707031.0566406,5.8129883h5.5664062l.4931641-2.7358398h.9501953Z"/>
      <path class="cls-1" d="m311.2548828,3.0395508l-1.765625.2470703-.0195312,13.0888672h-.6269531l-8.453125-11.7211914.0185547,10.6386719,2.2041016.2470703v.6835938h-4.8828125v-.6835938l1.7851562-.2285156.0195312-11.8540039-.1708984-.2470703-1.5576172-.1899414v-.6455078h2.9628906l7.8652344,10.9990234-.0195312-10.0683594-2.2226562-.2661133v-.6645508h4.8632812v.6645508Z"/>
      <path class="cls-1" d="m332.5537109,7.8076172c-.5693359.7792969-1.5576172,1.2919922-2.4316406,1.6533203-.7216797.3227539-2.0507812.7978516-3.3046875,1.3486328-.1142578,1.0449219-.0380859,2.4501953-.0576172,2.7543945-.0380859.3989258-.3984375.7026367-.7021484.684082-.3046875-.019043-.5517578-.3041992-.5703125-.684082,0-.2089844.1132812-1.2158203.1894531-2.1845703-.3603516.1708984-.7021484.3798828-.9873047.5698242-.9501953.6650391-1.4443359,1.690918-1.3486328,2.3935547.0947266.7597656,1.0820312,1.0830078,1.7089844,1.1591797,1.5009766.1328125,2.0332031.0380859,3.2109375-.2470703,1.0253906-.2470703,1.4433594-.1523438,1.5957031.265625.2089844.5888672-1.0253906.96875-1.6152344,1.0449219-.7216797.1142578-1.7470703.1708984-2.9824219.0380859-2.1650391-.2470703-2.5449219-1.2539062-2.6210938-2.1083984-.0566406-.5703125.1523438-1.8046875,1.5957031-2.8691406.3798828-.265625.8925781-.5507812,1.4814453-.8354492.0195312-.4370117.0195312-.8168945-.0185547-1.0830078-.1328125-1.0258789-.4375-1.4248047-1.1015625-1.4819336-.8173828-.0756836-1.9003906,1.1777344-2.5078125,2.0136719-.1523438.2089844-.2851562.3994141-.4375.5888672-.1894531.2470703-.6074219.8740234-.8164062,1.0263672-.2089844.1518555-.6464844-.0761719-.7792969-.3613281-.1328125-.3037109-.0566406-.8544922.1523438-1.1015625.2851562-.3232422,1.4628906-1.1972656,2.1660156-2.3935547.53125-.9121094,1.1582031-2.2226562,1.5576172-3.5336914-.6464844.1708984-1.3486328.2661133-1.9951172.1708984-.6455078-.0952148-1.2539062-.5698242-1.5761719-.8354492-.0576172-.0576172-.0957031-.1333008-.0576172-.1713867.0576172-.0952148.2470703-.019043.3417969.019043.1142578.0380859.7792969.2661133,1.5576172.2280273.4375-.0380859,1.2167969-.1333008,2.0136719-.4179688.0390625-.2280273.0761719-.4370117.1142578-.6645508.0576172-.4755859,0-1.0644531-.5693359-1.5200195-.0957031-.0761719-.1142578-.0761719-.0761719-.2470703s.1894531-.1708984.2851562-.1708984c.1132812,0,1.0634766.1328125,1.234375.3608398.0947266.1708984.1142578.4560547.0761719.7788086.2089844.2089844.6650391.2851562,1.1015625.2280273.1708984-.0761719.8173828-.1899414.8925781.1328125.1142578.3798828-.4179688.8740234-1.0058594,1.1972656-.2666016.1328125-.8554688.4365234-1.5771484.6835938-.3417969,1.1015625-.7792969,2.3935547-1.3300781,3.628418.6083984-.3227539,1.2724609-.3227539,1.8232422-.1708984,1.0839844.284668,1.3876953,1.8427734,1.3876953,1.8427734.2841797-.6645508.6269531-1.4819336,1.7099609-2.6025391.7597656-.7978516,2.1269531-1.652832,3.2675781-1.5009766,1.234375.1713867,1.7089844,1.4248047,1.0058594,2.3745117Zm-7.5410156-4.7109375c.2089844-.0952148.3984375-.2280273.5878906-.3613281-.0185547-.0756836-.0566406-.1513672-.1894531-.2275391-.0761719-.0571289-.1523438-.0761719-.2285156-.0952148-.0371094.2089844-.0947266.4370117-.1699219.684082Zm6.6103516,3.0395508c-.6269531-.4941406-2.0136719.1137695-3.0009766,1.1020508-.7988281.7978516-1.2158203,1.4433594-1.671875,2.90625,0,.019043-.0195312.0380859-.0195312.0380859.8925781-.4179688,1.8623047-.8740234,2.7363281-1.4057617,1.6142578-.949707,2.4316406-2.2416992,1.9560547-2.640625Z"/>
      <path class="cls-1" d="m341.390625,4.1035156c.1904297-.2661133.3232422-.5322266.4746094-.5322266.2285156,0,1.2734375,1.0449219,1.2734375,1.3300781-.0380859.2089844-.2089844.3037109-.4560547.3037109h-2.0332031v3.5146484c.7988281-.265625,1.6152344-.5507812,2.4316406-.8549805l.0761719.2661133c-.6835938.3989258-1.5195312.8740234-2.5078125,1.4057617v6.3637695c0,1.0068359-.1708984,1.6152344-1.7285156,1.7861328-.0566406-.3798828-.1523438-.703125-.3417969-.8930664-.2470703-.2089844-.6650391-.3608398-1.3681641-.4370117v-.3227539s1.5771484.1333008,1.9189453.1333008c.3037109,0,.3984375-.0952148.3984375-.3803711v-5.6420898c-.5693359.3037109-1.1777344.6269531-1.8232422.9501953-.0566406.2275391-.2089844.4174805-.3603516.4936523l-.6845703-1.5766602c.5888672-.1523438,1.5957031-.4750977,2.8681641-.9121094v-3.8945312h-.8349609c-.4941406.0195312-.9501953.1142578-1.40625.2661133l-.4746094-.987793c.6074219.0947266,1.2158203.1328125,1.8613281.1518555h.8544922v-.5317383c0-1.2919922-.0751953-2.8496094-.2460938-3.8945312,2.0517578.5888672,2.0517578.7788086,1.7089844.987793l-.3417969.2089844v3.2294922h.4179688l.3232422-.5317383Zm10.3154297,4.9960938c.2089844-.2851562.3613281-.5698242.5126953-.5698242.2285156,0,1.5205078,1.1020508,1.5205078,1.3867188-.0576172.2089844-.2089844.3041992-.4755859.3041992h-4.3125c1.1025391,2.1655273,3.0585938,3.9511719,4.9970703,4.8061523l-.0195312.1899414c-.5126953.0947266-.9121094.4560547-1.0830078,1.1015625-1.8427734-1.2539062-3.3818359-3.3242188-4.2929688-6.0029297v2.3935547c.0380859,2.2797852.0761719,3.0400391.1513672,4.4648438-.1513672.246582-.6640625.5126953-1.1201172.5126953-.2089844,0-.3798828-.1904297-.3798828-.3798828.0947266-1.2539062.1328125-1.8999023.1708984-3.7998047v-2.0898438c-1.2158203,2.0712891-3.0400391,3.7807617-5.3955078,4.996582l-.1894531-.284668c2.1845703-1.5200195,3.8369141-3.5908203,4.8056641-5.9082031h-1.2724609c-.7978516.0185547-1.5576172.1137695-2.3183594.265625l-.4931641-.987793c.8359375.0952148,1.6708984.1333008,2.5263672.1518555h2.3369141c0-.7597656-.0380859-1.7094727-.1523438-2.3745117,1.9189453.5512695,1.9189453.7407227,1.6152344.949707l-.2851562.2089844v1.2158203h2.7919922l.3613281-.5507812Zm.7978516-7.3139648l-.4560547-.0756836c-2.2412109.5126953-5.7363281,1.0253906-8.8144531,1.1206055l-.0761719-.3417969c1.6523438-.2280273,3.5332031-.6079102,5.2050781-1.0258789,1.2158203-.3037109,2.3554688-.7412109,3.2675781-1.2919922l.6650391.9306641c.6650391.5512695.6650391.7412109.2089844.684082Zm-8.8720703,1.9946289c3.2304688,1.8999023,2.0136719,4.3886719.9316406,3.324707-.0380859-1.0449219-.6464844-2.3745117-1.1591797-3.2294922l.2275391-.0952148Zm3.1542969-.6835938c3.2480469,1.8046875,2.0136719,4.2929688.8925781,3.2294922-.0566406-1.0068359-.6074219-2.2988281-1.1210938-3.1347656l.2285156-.0947266Zm6.4394531.7407227l-.3417969.1333008c-.7978516,1.5957031-1.8613281,3.1914062-2.8876953,4.1982422l-.2841797-.1708984c.2275391-.3798828.4550781-.8173828.6835938-1.3110352.5126953-1.1401367,1.0449219-2.8686523,1.1777344-3.9321289l1.1015625.5126953c.9121094.2470703.9121094.4370117.5507812.5698242Z"/>
      <path class="cls-1" d="m359.2509766,11.2084961c-.3046875,2.3554688-1.1210938,4.6918945-3.078125,6.4589844l-.265625-.1899414c2.109375-2.8115234,2.375-6.3828125,2.375-10.0117188v-3.2104492c0-1.0825195-.0576172-2.4125977-.2089844-3.3051758l1.6142578.7026367h9.8212891l.2666016-.4179688c.1513672-.2089844.265625-.4179688.4179688-.4179688.2275391,0,1.5576172.987793,1.5576172,1.2729492-.1328125.1708984-.4560547.3417969-.8554688.4365234v13.2792969c0,1.0258789-.1894531,1.652832-1.9560547,1.8427734-.0576172-.3989258-.1708984-.7412109-.4179688-.9121094-.2851562-.2089844-.7783203-.3798828-1.6337891-.4936523v-.3041992s1.9570312.1708984,2.3554688.1708984c.3417969,0,.4375-.1328125.4375-.4365234v-4.4643555h-4.6738281v1.9755859c.0380859,1.9755859.0566406,2.621582.1328125,3.8374023-.1328125.1899414-.53125.4941406-1.1396484.4941406-.1904297,0-.3603516-.1904297-.3603516-.3798828.0947266-1.2729492.1328125-1.8999023.1699219-3.8183594v-2.1088867h-4.5585938Zm.2275391-3.7612305c0,1.0253906-.0185547,2.1083984-.1513672,3.2099609h4.4824219v-3.9892578h-4.3310547v.7792969Zm4.3310547-5.2246094h-4.3310547v3.8754883h4.3310547v-3.8754883Zm5.8710938,0h-4.6738281v3.8754883h4.6738281v-3.8754883Zm-4.6738281,8.4345703h4.6738281v-3.9892578h-4.6738281v3.9892578Z"/>
      <path class="cls-1" d="m379.9599609,14.875c0,1.3867188-1.1015625,2.4882812-2.46875,2.4882812-1.3681641,0-2.4892578-1.1015625-2.4892578-2.4882812,0-1.3681641,1.1210938-2.4697266,2.4892578-2.4697266,1.3671875,0,2.46875,1.1015625,2.46875,2.4697266Zm-.4550781,0c0-1.1020508-.9121094-1.9951172-2.0136719-1.9951172s-2.0136719.8930664-2.0136719,1.9951172c0,1.1206055.9121094,2.0136719,2.0136719,2.0136719s2.0136719-.8930664,2.0136719-2.0136719Z"/>
      <path class="cls-1" d="m4.3310547,46.2617188c.0380859.3989258.0185547.5317383.0566406.6835938-.0566406.2851562-.4941406.6083984-1.0634766.6083984-.1904297,0-.3994141-.1904297-.3994141-.3798828.1142578-1.6337891.171875-2.4697266.2089844-4.9394531v-6.9150391c0-1.2919922-.0751953-2.8496094-.2460938-3.8945312l1.5576172.7597656h8.2060547l.3046875-.4179688c.1708984-.2089844.3037109-.4179688.4550781-.4179688.2285156,0,1.4443359.96875,1.4443359,1.2539062-.1328125.1523438-.4179688.2851562-.7792969.3613281v9.4414062c.0380859,2.2792969.0761719,3.0395508.1523438,4.4643555-.1708984.2280273-.7597656.5888672-1.2158203.5888672-.1708984,0-.2470703-.1899414-.2470703-.3798828.0380859-.2280273.0380859-.3422852.0761719-.684082v-.5317383H4.3310547v.3989258Zm8.5107422-13.5263672H4.3310547v5.8896484h8.5107422v-5.8896484Zm-8.5107422,12.5761719h8.5107422v-6.1357422H4.3310547v6.1357422Z"/>
      <path class="cls-1" d="m33.7226562,33.8183594l.3417969-.4179688c.1904297-.2089844.3417969-.4179688.4941406-.4179688.2275391,0,1.3671875,1.1210938,1.3671875,1.40625-.1328125.1513672-.3417969.1708984-.7021484.1894531-.4755859.6083984-1.3496094,1.4248047-1.9951172,1.8999023l-.265625-.1518555c.265625-.5126953.5693359-1.3105469.7783203-1.9570312h-11.9111328c0,1.2919922-.5126953,2.1660156-1.0253906,2.5458984-.4375.3608398-1.1025391.3989258-1.3115234-.0380859-.1894531-.3989258.0576172-.7978516.4375-1.0258789.7216797-.4555664,1.4248047-1.652832,1.3867188-2.9448242h.3232422c.0751953.3232422.1328125.6269531.1708984.9121094h5.1103516c0-1.1777344-.0761719-2.621582-.2285156-3.590332,2.0712891.5888672,2.0712891.7788086,1.7480469.987793l-.3037109.2089844v2.3935547h1.5c.6464844-1.0830078,1.2919922-2.5078125,1.5585938-3.5146484,2.0136719.8740234,2.0136719,1.0644531,1.6523438,1.1591797l-.3613281.0761719c-.5888672.6835938-1.4628906,1.5761719-2.3359375,2.2792969h3.5712891Zm-2.6982422,1.8237305c.1523438-.2089844.2666016-.4174805.4179688-.4174805.2285156,0,1.3496094.9306641,1.3496094,1.2158203-.1142578.1328125-.3994141.284668-.703125.3417969v1.0449219c.0380859,1.0253906.0380859,1.3671875.0947266,1.956543-.1142578.2089844-.7412109.4936523-1.1015625.4936523h-.1708984v-.7407227h-2.8115234v1.9755859h4.0273438l.265625-.3608398c.1523438-.1899414.2470703-.3798828.3994141-.3798828.2275391,0,1.4814453.8925781,1.4814453,1.1777344-.1142578.1328125-.4179688.2851562-.7978516.3613281v2.8115234c0,.949707-.2089844,1.5761719-1.9189453,1.7475586-.0380859-.3803711-.1328125-.7026367-.3603516-.8930664-.2666016-.1899414-.7226562-.3798828-1.5585938-.4746094v-.2851562s1.8046875.1328125,2.2421875.1328125c.3417969,0,.4365234-.1137695.4365234-.3608398v-2.9067383h-4.2167969v1.7099609c.0380859,1.6904297.0566406,2.2607422.1132812,3.2866211-.1132812.1899414-.4931641.5888672-1.1201172.5888672-.1904297,0-.3417969-.1899414-.3417969-.3798828.0751953-1.1020508.1132812-1.671875.1513672-3.34375v-1.8618164h-4.0839844v1.4819336c.0380859,1.4628906.0566406,1.956543.1142578,2.8305664-.1142578.2089844-.6269531.4941406-1.0830078.4941406-.1904297,0-.3046875-.1904297-.3046875-.3798828.0576172-.5322266.0761719-.7978516.1142578-1.6152344v-1.0068359c0-1.0068359-.0566406-2.2412109-.1894531-3.0771484l1.4628906.7026367h3.9697266v-1.9755859h-2.6787109v.5512695c0,.1132812-.5126953.3984375-.9873047.3984375-.1708984,0-.2666016-.1899414-.2666016-.3798828.0576172-.4179688.0576172-.6455078.0957031-1.2919922v-.8544922c0-.8359375-.0380859-1.8808594-.1523438-2.6025391l1.40625.6835938h6.4208984l.2841797-.3989258Zm-8.5292969-5.0913086c3.6474609,1.1020508,2.6210938,3.8378906,1.40625,2.9067383-.0957031-.949707-.8554688-2.1274414-1.5957031-2.7543945l.1894531-.1523438Zm1.7285156,6.0410156v2.4130859h6.6875v-2.4130859h-6.6875Z"/>
      <path class="cls-1" d="m48.4667969,39.7836914c-.1132812,1.1777344-.7021484,4.1982422-1.8798828,5.3759766-.4375.4370117-1.140625.9692383-1.4824219.7788086-.3798828-.2089844-.4560547-.4746094-.6650391-.9306641-.1708984-.3798828-.3417969-.6269531-.9111328-1.4438477-.0957031-.1518555-.2470703-.3227539-.1904297-.3798828.0947266-.0756836.3613281.1333008.7783203.4370117.4570312.3037109.8740234.6650391,1.1591797.6455078.4560547,0,1.0830078-.284668,1.7480469-2.4882812.6455078-2.2036133.8740234-4.3505859-.1142578-4.9960938-.5507812-.3613281-1.8232422.0756836-2.6972656.4746094-.4375,1.9375-1.2734375,4.5976562-2.8496094,7.1811523-.4560547.7407227-1.0449219,1.1586914-1.4628906.7216797-.2851562-.3037109-.1142578-.8930664.6074219-1.8618164,1.6347656-2.203125,2.3183594-4.1982422,2.6601562-5.565918-.8554688.3798828-1.8994141.7788086-2.2421875.8549805-.265625.0761719-1.1582031.0566406-1.8417969-1.0639648-.1523438-.2470703-.2851562-.5888672-.0761719-.6459961.1328125-.0566406.2851562.0571289.53125.1899414.5322266.2851562.8740234.2470703,1.1025391.2280273.53125-.019043,1.7470703-.2470703,2.7539062-.6459961.0380859-.1518555.0576172-.284668.0761719-.3989258.2285156-1.0253906.3232422-2.3935547-.2089844-3.0966797-.1513672-.1894531-.6074219-.5693359-.5322266-.7783203.1142578-.3803711,1.5957031-.0576172,1.8808594.2089844.5322266.5507812.1904297,1.3671875.0761719,2.0136719-.0380859.284668-.1132812.8735352-.2851562,1.6904297.96875-.3037109,2.3554688-.5698242,3.1162109-.019043.9873047.722168,1.0634766,2.0708008.9492188,3.5146484Zm6.4970703-1.1206055c.0761719,1.3867188-.96875,1.7470703-1.1396484,1.7666016-.1513672.0185547-.2470703-.0761719-.6455078-.3232422-.3613281-.2851562-1.7285156-.4365234-1.8046875-.4365234s-.2470703-.0195312-.2666016-.0761719c0-.0761719.1904297-.0952148.1904297-.0952148,0,0,1.1582031-.0952148,1.3867188-.1518555.2470703-.0571289.5322266-.1708984.7412109-.3232422.2089844-.1708984.1513672-1.0253906-.5703125-1.8046875-.6650391-.7216797-1.8994141-1.234375-2.1279297-1.2915039-.0566406-.019043-.1894531-.0380859-.1708984-.1137695.0195312-.0576172.1904297-.0380859.2285156-.0380859,2.6787109.0566406,4.1220703,1.6523438,4.1787109,2.8876953Zm-3.7421875-5.4716797c0-.1708984.3984375-.1708984.6650391-.1899414.265625,0,2.1083984.0571289,2.4316406,1.1782227.1142578.3603516.0566406.5507812-.1523438.7026367-.2089844.1333008-.6650391.1333008-.9873047-.2470703-.3613281-.4179688-.6083984-.8168945-1.4824219-1.1967773-.1894531-.0761719-.4746094-.1142578-.4746094-.2470703Zm4.4833984-.0566406c-.2089844.1328125-.5888672.1328125-.9306641-.2089844-.3798828-.3994141-.7978516-.8549805-1.5195312-1.0830078-.1904297-.0571289-.4941406-.0947266-.4941406-.2280273.0185547-.1518555.3984375-.1899414.6650391-.2089844.1894531,0,2.1464844.019043,2.4697266,1.1967773.0751953.3037109-.0576172.4370117-.1904297.5322266Z"/>
      <path class="cls-1" d="m71.0009766,42.8232422c-.1523438,2.621582-2.6982422,4.1791992-7.0292969,4.4453125-.0947266,0-.3613281.0380859-.3613281-.0947266-.0185547-.1333008.2089844-.1713867.3046875-.1713867,2.4882812-.3041992,5.6796875-1.3295898,5.8125-4.5405273.0957031-2.1845703-1.234375-2.7919922-2.5263672-2.5830078-1.8046875.3222656-3.0205078,2.2412109-3.2294922,2.6591797-.2089844.4370117-.3613281.6269531-.5888672.6459961-.2089844.0380859-.4560547-.1137695-.5888672-.284668-.4560547-.5888672-.4746094-1.1020508-.5126953-1.690918-.0761719-1.0258789.3417969-3.5146484.7021484-5.6801758-.3798828-.019043-.7597656-.0571289-1.1015625-.1142578-.9121094-.1894531-1.671875-.987793-1.9375-1.5004883-.0566406-.1137695-.1523438-.2851562-.0195312-.3608398.1523438-.0761719.2851562.0185547.4375.1708984.0947266.0947266.96875.7407227,1.8232422.7788086.2470703.019043.5888672.019043.9697266-.019043.1328125-.8925781.2460938-1.6904297.2841797-2.1845703.0380859-.5507812-.3037109-.8359375-.4365234-.96875-.1523438-.1333008-.3417969-.1904297-.3232422-.3041992.0195312-.1333008.1523438-.1899414.3798828-.2470703.3798828-.0756836,1.2539062-.0952148,1.6337891.3041992.2285156.2275391.1708984.6074219.1142578.8164062-.0761719.1713867-.1328125.3613281-.2089844.5512695.3798828.2470703,1.1582031.7407227,1.7285156.7978516.7792969.0571289,1.1015625.1137695,1.1396484.4936523.0576172.3798828-.53125,1.0263672-1.3867188,1.3300781-.5126953.1708984-1.3867188.3608398-2.2988281.4179688-.2470703,1.4057617-.6455078,3.8183594-.4560547,5.0151367.0576172.3227539.0576172.4370117.2285156.4750977.1523438.0380859.3037109-.0571289.5322266-.2661133.2275391-.2089844,1.7666016-1.2158203,3.1914062-1.4248047,1.4628906-.2089844,3.9326172.4370117,3.7236328,3.5336914Zm-7.0107422-8.3969727c.6845703-.0952148,1.3681641-.246582,1.6533203-.4555664.0947266-.0761719.2089844-.1523438.0380859-.3422852-.1337891-.1518555-.7978516-.6459961-1.2158203-.8168945-.1904297.5507812-.3798828,1.1020508-.4755859,1.6147461Z"/>
      <path class="cls-1" d="m88.4052734,46.1855469c-.2089844.3037109-.5517578.2661133-1.0644531-.0761719-.6269531-.4555664-1.1962891-.7978516-1.7285156-1.0634766,0,.0566406-.0195312.1137695-.0195312.1899414-.1894531,1.7475586-2.3173828,1.6147461-2.90625,1.6337891-.5703125.019043-2.7734375-.3989258-2.7734375-1.6147461,0-1.2348633,1.5390625-1.6337891,2.5839844-1.690918.7216797-.0571289,1.4052734.019043,2.0507812.1518555-.1513672-.987793-.5693359-2.8115234-.5507812-4.7490234.0195312-1.4057617.3232422-2.6025391.2285156-3.2866211-.1142578-.6269531-.4375-.684082-.8925781-.8359375-.1142578-.0375977-.3427734-.0571289-.2470703-.2661133.0751953-.1518555.6074219-.1518555.7978516-.1518555.5693359.019043,1.1777344.0761719,1.4628906.7788086.2460938.6459961-.2470703,1.1591797-.3994141,1.8427734-.0380859.1708984-.0947266.5507812-.1513672.96875.5878906.0380859,1.6142578-.0756836,1.9941406-.2470703.4941406-.1894531,1.1015625-.0566406,1.234375.3232422.171875.4179688-.1708984.5703125-.4365234.6459961-.2470703.0756836-1.5771484.4555664-2.8310547-.1899414,0,.1899414-.0185547.3798828,0,.5698242.0195312.8549805.0957031,1.6147461.3427734,2.7543945.1708984.722168.3798828,1.40625.4746094,2.0708008,1.1396484.3608398,2.0136719.8740234,2.3369141,1.0830078.5126953.3417969.7216797.8549805.4941406,1.1586914Zm-3.8378906-1.5576172c-.9121094-.3232422-1.6152344-.3989258-2.0517578-.3613281-.5322266.0195312-1.9755859.1713867-1.9375.8930664.0380859.722168,1.5957031.8930664,2.0703125.8930664,1.9189453-.0761719,1.9189453-.8549805,1.9189453-1.4248047Z"/>
      <path class="cls-1" d="m101.3251953,45.84375c0-.1523438.2089844-.1899414.2666016-.1899414,2.9257812-.1713867,5.6416016-1.5200195,6.2685547-3.7236328.5703125-1.956543-.3984375-3.2104492-1.6328125-3.6665039-2.0898438-.7407227-5.1113281,1.5390625-5.5097656,1.8046875-.3417969.2470703-.9882812.8359375-1.6523438.96875-.5888672.0952148-1.40625-.5693359-1.6337891-.7978516-.2089844-.1708984-.2851562-.3603516-.2089844-.4746094.1132812-.1708984.3222656-.1142578.4746094-.0571289.1708984.0380859.5322266.1713867.9501953.0952148.9873047-.1904297,5.0527344-2.9824219,7.7128906-2.0708008,2.6777344.949707,2.8867188,2.8686523,2.6777344,4.1982422-.1132812.6650391-.7021484,3.7993164-7.4462891,4.0654297-.0576172,0-.2470703,0-.2666016-.1518555Z"/>
      <path class="cls-1" d="m119.6992188,30.96875c.0566406-.265625.8164062-.1518555,1.234375.0380859.4941406.2470703.7412109.4750977.9121094,1.1396484.1513672.6650391-.0761719,1.3110352-.2470703,1.8999023-.1523438.5888672-.4179688,1.1967773-.4179688,2.355957-.0195312,1.3105469.3037109,1.7851562.8164062,1.956543.5322266.1708984,1.9765625-.4941406,2.4892578-.5893555.5126953-.1132812.96875.2285156.9501953.6269531-.0195312.3994141-.1904297.722168-.7988281.8359375-.9873047.1523438-5.28125.7412109-4.7294922,4.046875.2841797,1.671875,2.3554688,1.9755859,4.4072266,1.5385742.7402344-.1518555,2.1650391-.3798828,2.2607422.5698242.0566406.7978516-1.4248047.8359375-2.2226562.9501953-.7978516.0947266-5.1679688.3984375-5.4335938-2.8496094-.1904297-2.4130859,1.9570312-3.9326172,3.0400391-4.3696289,0,0-.7226562-.0952148-1.1210938-.8930664-.8359375-1.7094727-.3046875-4.3881836-.2851562-5.1479492.0380859-.9116211-.0380859-1.3110352-.4375-1.7094727-.265625-.2470703-.4550781-.2666016-.4169922-.3994141Z"/>
      <path class="cls-1" d="m140.7314453,46.5654297c-.0185547-.0947266.0761719-.1518555.2470703-.1899414,2.375-.5888672,3.9707031-2.0893555,4.6542969-2.9067383,1.0634766-1.2915039,2.2792969-4.1411133.0380859-5.8125-1.8427734-1.387207-5.1669922-.2285156-7.0478516,1.9560547-.1142578,3.2675781.1513672,4.4453125.3037109,5.2246094.1894531,1.0830078-.1142578,1.4628906-.4179688,1.5009766-.3613281.0185547-.703125-.3041992-.7792969-.8359375-.1328125-.8930664-.4550781-2.1279297-.8544922-3.34375-.4179688.7216797-.7216797,1.3300781-.8740234,1.5576172-.3798828.6083984-.703125.7412109-.9121094.6650391s-.3984375-.2851562-.3417969-.7407227c.0761719-.5131836,1.0068359-1.6147461,1.7861328-2.5268555-.2470703-.6835938-.4941406-1.3295898-.7792969-1.9946289-.0947266-.2089844-.2470703-.4555664-.3798828-.6459961-.0947266-.1518555-.4746094-.5126953-.3417969-.7407227.0947266-.1708984.3994141-.1899414.5888672-.1899414.4755859.0380859,1.0263672-.0761719,1.4248047-.2661133.3994141-.2089844.8173828-.5507812,1.1777344-.8549805.0576172-.8544922.1328125-1.2539062.2089844-1.8046875.1142578-.7407227.1523438-1.0449219.1523438-1.5009766,0-.4555664-.1142578-1.0825195-.5507812-1.5195312-.1523438-.1518555-.3417969-.3037109-.2851562-.3798828.0947266-.1328125.5322266,0,.9501953.2089844.5507812.265625,1.0634766.703125,1.0820312,1.2539062.0195312.5698242-.3037109,1.0068359-.53125,1.7666016-.1142578.3613281-.1708984.7792969-.2470703,1.2729492l.0761719-.0761719c.3417969-.246582.5693359-.1328125.9306641.1333008.3603516.2470703.1328125.96875-.2470703,1.4814453-.1328125.1708984-.6074219.9121094-.6464844.96875-.0371094.0761719-.0371094.1333008.0576172.0761719,3.9326172-3.0205078,6.8007812-1.6337891,7.6181641-.949707,1.7089844,1.4438477,2.1083984,4.1411133.1328125,6.3637695-1.7480469,1.9570312-4.9013672,2.7734375-5.9082031,2.9257812-.0761719,0-.2470703.019043-.2851562-.0761719Zm-4.0078125-5.6992188c.1132812-.1518555.2275391-.265625.3222656-.3984375.3994141-.5131836.7216797-1.1210938.9882812-1.690918.0380859-.4750977.0761719-.9692383.1132812-1.4628906-.7216797.5888672-.7216797.8930664-1.3867188,1.1206055-.2275391.0952148-.7597656.1333008-1.0068359.0195312.2089844.5507812.5888672,1.5004883.9697266,2.4121094Zm1.2148438-.3608398c-.3037109.4179688-.5888672.8549805-.8359375,1.2539062.2470703.5512695.4560547,1.0258789.5898438,1.2729492.1328125.2275391.1513672.0185547.1328125-.2280273,0-.0952148.0380859-1.0449219.1132812-2.2988281Z"/>
      <path class="cls-1" d="m160.9091797,45.4257812c-1.3105469-3.3242188-2.0136719-3.7998047-2.5449219-4.5024414-.5703125-.7978516-.8935547-1.2158203-.9501953-1.8046875-.0576172-.5888672.2851562-1.1777344.7783203-1.9755859,1.3115234-2.1088867,2.6601562-3.9135742,2.7929688-4.2368164.3232422-.7402344.1894531-1.1396484,0-1.3105469-.1708984-.1518555-.6455078-.3798828-.4941406-.5698242.1523438-.1518555,1.0830078.0952148,1.7285156.5512695.6083984.4365234.4375,1.0825195.2666016,1.3867188-.3232422.6455078-1.0068359,1.2158203-2.0517578,2.4882812-.8925781,1.0639648-1.7861328,2.2607422-2.2226562,2.8876953-.3232422.4746094-.265625.8740234.0566406,1.2158203.7978516.8740234,3.9892578,4.0463867,4.2744141,6.4780273.0947266.7597656-.1142578,1.0449219-.4941406,1.0825195-.6074219.0576172-.8740234-1.0068359-1.1396484-1.6904297Z"/>
      <path class="cls-1" d="m178.7314453,46.5654297c-.0185547-.0947266.0761719-.1518555.2470703-.1899414,2.375-.5888672,3.9707031-2.0893555,4.6542969-2.9067383,1.0634766-1.2915039,2.2792969-4.1411133.0380859-5.8125-1.8427734-1.387207-5.1669922-.2285156-7.0478516,1.9560547-.1142578,3.2675781.1513672,4.4453125.3037109,5.2246094.1894531,1.0830078-.1142578,1.4628906-.4179688,1.5009766-.3613281.0185547-.703125-.3041992-.7792969-.8359375-.1328125-.8930664-.4550781-2.1279297-.8544922-3.34375-.4179688.7216797-.7216797,1.3300781-.8740234,1.5576172-.3798828.6083984-.703125.7412109-.9121094.6650391s-.3984375-.2851562-.3417969-.7407227c.0761719-.5131836,1.0068359-1.6147461,1.7861328-2.5268555-.2470703-.6835938-.4941406-1.3295898-.7792969-1.9946289-.0947266-.2089844-.2470703-.4555664-.3798828-.6459961-.0947266-.1518555-.4746094-.5126953-.3417969-.7407227.0947266-.1708984.3994141-.1899414.5888672-.1899414.4755859.0380859,1.0263672-.0761719,1.4248047-.2661133.3994141-.2089844.8173828-.5507812,1.1777344-.8549805.0576172-.8544922.1328125-1.2539062.2089844-1.8046875.1142578-.7407227.1523438-1.0449219.1523438-1.5009766,0-.4555664-.1142578-1.0825195-.5507812-1.5195312-.1523438-.1518555-.3417969-.3037109-.2851562-.3798828.0947266-.1328125.5322266,0,.9501953.2089844.5507812.265625,1.0634766.703125,1.0820312,1.2539062.0195312.5698242-.3037109,1.0068359-.53125,1.7666016-.1142578.3613281-.1708984.7792969-.2470703,1.2729492l.0761719-.0761719c.3417969-.246582.5693359-.1328125.9306641.1333008.3603516.2470703.1328125.96875-.2470703,1.4814453-.1328125.1708984-.6074219.9121094-.6464844.96875-.0371094.0761719-.0371094.1333008.0576172.0761719,3.9326172-3.0205078,6.8007812-1.6337891,7.6181641-.949707,1.7089844,1.4438477,2.1083984,4.1411133.1328125,6.3637695-1.7480469,1.9570312-4.9013672,2.7734375-5.9082031,2.9257812-.0761719,0-.2470703.019043-.2851562-.0761719Zm-4.0078125-5.6992188c.1132812-.1518555.2275391-.265625.3222656-.3984375.3994141-.5131836.7216797-1.1210938.9882812-1.690918.0380859-.4750977.0761719-.9692383.1132812-1.4628906-.7216797.5888672-.7216797.8930664-1.3867188,1.1206055-.2275391.0952148-.7597656.1333008-1.0068359.0195312.2089844.5507812.5888672,1.5004883.9697266,2.4121094Zm1.2148438-.3608398c-.3037109.4179688-.5888672.8549805-.8359375,1.2539062.2470703.5512695.4560547,1.0258789.5898438,1.2729492.1328125.2275391.1513672.0185547.1328125-.2280273,0-.0952148.0380859-1.0449219.1132812-2.2988281Z"/>
      <path class="cls-1" d="m198.9091797,45.4257812c-1.3105469-3.3242188-2.0136719-3.7998047-2.5449219-4.5024414-.5703125-.7978516-.8935547-1.2158203-.9501953-1.8046875-.0576172-.5888672.2841797-1.1777344.7783203-1.9755859,1.3115234-2.1088867,2.6601562-3.9135742,2.7929688-4.2368164.3232422-.7402344.1894531-1.1396484,0-1.3105469-.1708984-.1518555-.6464844-.3798828-.4941406-.5698242.1523438-.1518555,1.0830078.0952148,1.7285156.5512695.6083984.4365234.4375,1.0825195.2666016,1.3867188-.3232422.6455078-1.0068359,1.2158203-2.0517578,2.4882812-.8925781,1.0639648-1.7861328,2.2607422-2.2226562,2.8876953-.3232422.4746094-.265625.8740234.0566406,1.2158203.7978516.8740234,3.9892578,4.0463867,4.2744141,6.4780273.0947266.7597656-.1142578,1.0449219-.4941406,1.0825195-.6074219.0576172-.8740234-1.0068359-1.1396484-1.6904297Z"/>
      <path class="cls-1" d="m224.9003906,35.0532227c-.0576172.5512695-.8173828.4179688-1.1015625.3798828-.2470703-.0375977-2.8876953-.4370117-5.2431641-.2084961-.0380859,1.1582031-.0761719,2.4882812-.0576172,3.4384766.3994141.7597656.5703125,1.9375.5507812,3.4189453-.0566406,3.7617188-3.5517578,4.9204102-3.9697266,5.0537109-.1328125.0566406-.2470703.0756836-.2851562,0-.0380859-.0952148,0-.1904297.1708984-.2661133,2.9443359-1.3110352,3.1152344-4.3696289,3.1152344-4.3696289-.1328125.2470703-.7216797.722168-1.1591797.703125-.8730469,0-1.3105469-.96875-1.4814453-1.3300781-.1708984-.3608398-.4931641-.7783203-.6269531-1.8046875-.0947266-.6269531.1337891-2.0703125,1.6337891-2.3745117.4941406-.1137695.9121094-.0571289,1.2539062.1137695.0566406-.4179688.0957031-1.1586914.0761719-2.4882812-2.2792969.3227539-2.9257812.6650391-4.2929688,1.2539062-.3808594.1708984-1.5009766.7788086-2.5644531.1137695-.4570312-.2661133-.8359375-.684082-.9501953-.8168945-.1523438-.1518555-.2089844-.3232422-.1337891-.3989258.171875-.1708984.4755859.0756836.9697266.1333008.5126953.0375977,1.234375.0566406,1.9941406-.1142578.5322266-.1142578,3.0205078-.5888672,4.9580078-.8925781,0-.4560547-.0371094-.9692383-.0566406-1.5390625-.0380859-.6835938-.3613281-1.2539062-.6074219-1.4628906-.1904297-.1518555-.4375-.2089844-.4179688-.3608398.0185547-.1333008.0947266-.1899414.2460938-.2470703.171875-.0571289.6269531-.1137695,1.1210938.1137695.5507812.2470703.7226562.4375.7988281.7602539.0566406.284668-.0195312.4555664-.0761719.6645508.5878906.3613281,1.9560547,1.1591797,2.8867188,1.40625,1.1972656.3417969,1.9384766.265625,2.3369141.3608398.4560547.0756836.9882812.2089844.9121094.7597656Zm-7.2949219,5.0722656c-.0185547-1.3110352-.4365234-1.918457-.9306641-1.8999023-.2285156.0195312-1.5957031.4941406-1.2919922,1.7290039.2851562,1.2348633.9121094,1.8046875,1.5195312,1.8046875.3798828,0,.7412109-.3227539.703125-1.6337891Zm2.6025391-6.1928711c-.1523438-.0952148-1.0068359-.722168-1.5009766-1.0830078-.0380859.3037109-.0751953.9121094-.1142578,1.6337891.5703125-.0761719,1.0449219-.1328125,1.3115234-.1328125.2089844,0,.5888672-.0380859.6074219-.1142578.0195312-.0566406-.1328125-.1899414-.3037109-.3037109Z"/>
      <path class="cls-1" d="m236.4726562,43.3359375c.5693359.1708984,1.3291016.9306641,1.5009766,1.7285156v.0576172l.0751953-.0195312c2.7167969-.96875,3.2109375-5.2998047-.0751953-5.9838867-.3808594-.0952148-.703125-.1137695-.9882812-.1137695-1.1777344-.0195312-2.640625.4560547-4.3310547,3.3056641-.2089844.3417969-.4755859.8354492-.703125,1.0253906-.1142578.0952148-.2666016.0952148-.3417969.0952148-.2285156,0-.4375-.1137695-.4941406-.2089844-.3037109-.4370117-.0947266-.8930664.1904297-1.3676758.0751953-.1333008.96875-1.1972656,1.3291016-1.6533203.1142578-.1513672.1904297-.246582.2285156-.265625,1.2529297-1.5766602,3.0009766-4.293457,3.9326172-5.7939453l.0371094-.0761719c.2089844-.3232422.5322266-.8359375.171875-1.1396484-.0195312,0-.0390625-.0195312-.0390625-.0195312-.0566406-.0566406-.1328125-.0947266-.2089844-.1132812-.2275391-.0576172-.4179688.1894531-.53125.3603516-.1523438.2285156-1.0068359,1.40625-1.9375,1.8046875-.171875.0761719-.3417969.0952148-.5136719.0952148-.3417969,0-.96875-.1708984-1.2148438-1.2348633-.0761719-.3608398-.0390625-.4746094-.0390625-.4941406.1523438-.0756836.2666016.0952148.3427734.2089844.0566406.0952148.2841797.2285156.53125.2285156.0761719,0,.1708984-.0195312.2470703-.0380859.3613281-.1142578,1.0644531-.4941406,1.9570312-1.2158203.4746094-.3798828,1.0449219-.5131836,1.7099609-.3994141.4179688.0761719,1.1962891.3422852,1.3867188.8554688.1513672.3984375.0566406.7407227-.3037109,1.1206055-.2285156.246582-3.8378906,4.5786133-4.1796875,5.2050781l-.0957031.1899414.1904297-.1328125c.3232422-.1899414,1.4248047-.9501953,3.0019531-.9121094.3417969,0,.7021484.0380859,1.0439453.1333008.4179688.0756836.8173828.2089844,1.1787109.3798828,2.6025391,1.2729492,2.4882812,5.0341797.0947266,6.4780273-1.3681641.8359375-3.3242188,1.2919922-4.7871094.4560547-1.5009766-.8549805-.7412109-2.6977539.8730469-2.659668.2285156,0,.4941406.0375977.7607422.1137695Zm.4179688,2.0898438c.0185547-.019043.0380859-.0380859.0185547-.0761719-.1894531-.7216797-.4941406-1.1777344-1.1396484-1.2919922-.0947266-.0185547-.1708984-.0185547-.265625-.0185547-.5517578.0185547-.6650391.4560547-.6650391.703125,0,.0756836.0380859.1513672.0947266.2275391.2851562.3037109,1.0830078.5322266,1.5957031.5322266.3037109.0185547.3417969-.0380859.3613281-.0761719Z"/>
      <path class="cls-1" d="m260.3164062,45.9580078c-.2275391.3037109-.5888672.3603516-1.2724609-.1333008-.8164062-.5698242-1.5771484-1.0258789-2.2607422-1.3676758-.0185547.1137695-.0185547.2089844-.0380859.3227539-.2275391,2.1655273-2.8681641,1.9946289-3.609375,2.0136719s-3.4765625-.4936523-3.4765625-1.9946289c0-1.5195312,1.9189453-2.0136719,3.2294922-2.0898438.9306641-.0761719,1.8232422.019043,2.640625.1904297-.1708984-1.2158203-.7216797-3.5527344-.703125-6.0605469.0195312-1.7666016.4179688-3.2861328.2851562-4.1411133-.1513672-.8549805-.5888672-.9311523-1.1396484-1.1206055-.1708984-.0576172-.3984375-.0761719-.3037109-.2666016.0751953-.1708984.7412109-.1708984.96875-.1708984.7216797.0380859,1.4814453.1142578,1.8046875.96875.3232422.7978516-.3037109,1.40625-.5126953,2.3178711-.0380859.2089844-.1142578.703125-.171875,1.2729492.703125.0380859,2.0527344-.1142578,2.5839844-.3232422.5888672-.246582,1.3300781-.0756836,1.5009766.3994141.1708984.4746094-.2089844.6269531-.5322266.7216797-.3222656.0947266-2.0322266.6079102-3.609375-.2851562,0,.2661133-.0185547.5507812-.0185547.8173828.0380859,1.0825195.1328125,2.0703125.4365234,3.4951172.2089844.96875.4746094,1.7861328.6083984,2.6787109,1.4814453.4560547,2.5644531,1.1015625,2.9824219,1.3486328.7021484.4560547.8544922,1.1020508.6074219,1.40625Zm-4.7490234-1.9951172c-1.1777344-.4179688-2.1083984-.4941406-2.6601562-.4560547-.6640625.0380859-2.5449219.2089844-2.5068359,1.1777344.0380859.9692383,2.0703125,1.1782227,2.6787109,1.1591797,2.5263672-.0571289,2.46875-1.1396484,2.4882812-1.8808594Z"/>
      <path class="cls-1" d="m270.1982422,36.4589844c-.1708984-.3227539-.0761719-.703125.0380859-.7407227.0947266-.0380859.2841797.1518555.3798828.2280273.0947266.0761719.4365234.2851562.8730469.2470703.4375-.0380859,1.3115234-.2661133,1.7480469-.3798828.4375-.1142578,1.7285156-.4375,2.4892578-.3422852.7597656.1137695,3.5517578.1899414,2.7734375,5.0722656-.3417969,2.1088867-2.2041016,4.9584961-6.8203125,6.7250977-.2275391.0947266-.3232422.0947266-.3798828.019043-.0380859-.0761719.0380859-.1899414.2470703-.2851562.1904297-.0756836,4.6923828-2.2416992,5.4716797-6.1928711.3037109-1.5771484.3603516-4.2558594-1.2539062-4.5976562-.9882812-.2089844-1.6914062.1523438-3.0019531,1.0639648-.4560547.3041992-.6650391.4936523-1.3300781.3608398-.4941406-.0756836-.96875-.6650391-1.234375-1.1777344Zm1.0068359-5.2050781c-.0947266-.1142578-.1523438-.2280273-.0947266-.2661133.0751953-.0756836.1894531-.019043.265625.0380859.0947266.0571289.8164062.3989258,1.3105469.4179688.4746094,0,1.2158203-.0756836,1.5009766-.0952148.3037109-.0380859.7597656-.0185547,1.0830078.0380859.3037109.0571289,1.3486328.2851562,1.2539062.8549805-.0380859.1708984-.2851562.3989258-.6269531.3989258-.3232422,0-1.4443359.2470703-1.7861328.3798828-.6455078.2661133-1.6904297.9121094-1.7861328.9882812-.0566406.0566406-.1699219.0566406-.1894531,0-.0380859-.0380859,0-.0952148.0566406-.1713867.0761719-.0571289,1.1210938-.96875,1.2734375-1.1020508.1132812-.0947266.2089844-.2275391.1708984-.284668-.0380859-.0756836-.1523438-.0952148-.2666016-.1137695-.0947266-.0195312-1.2910156-.1333008-2.1650391-1.0830078Z"/>
      <path class="cls-1" d="m291.25,34.5214844c-.9121094,2.5078125-2.8496094,7.2758789-3.1162109,8.0546875-.1708984.4746094-.8544922.7216797-1.0449219.3608398-.0751953-.1137695-.2089844-.4174805-.1699219-.9306641.0185547-.2280273.1328125-.3989258.5126953-1.0258789,0,0,2.0136719-3.4956055,2.8486328-6.1171875-.0371094.019043-.0751953.019043-.1132812.0380859-1.9755859.3417969-2.4316406-.987793-2.640625-1.2348633-.0761719-.1333008-.0947266-.284668-.0761719-.3227539.0380859-.0380859.1523438-.0571289.3613281.1328125.3417969.3417969,1.0634766.4179688,1.6904297.3798828.2470703-.019043.6650391-.1518555,1.1015625-.2851562,0-.0566406,0-.1137695.0195312-.1518555.0947266-.96875.1142578-1.1967773-.1337891-1.5385742-.2460938-.3417969-.8349609-.3417969-.6640625-.6459961.0761719-.1333008.4550781-.1899414.9121094-.019043.3984375.1523438,1.3486328.3613281.96875,1.9375.1894531-.0756836.3037109-.1137695.3037109-.1137695.0185547,0,.3037109-.1518555.3417969-.2661133.0185547-.0185547.0947266-.1137695-.1328125-.284668-.0185547-.019043-.3232422-.1899414-.3232422-.2470703,0-.2280273.6083984-.1708984.7792969-.1708984.3037109,0,.4365234,0,.6835938-.019043.265625-.019043.4746094.0947266.5888672.3232422.0947266.2089844.0185547.7402344-.3037109.9306641-1.0644531.5888672-1.8242188.96875-2.3935547,1.2158203Zm8.1875,2.5644531c-.4560547.0380859-.7597656-.2470703-1.0263672-.4179688-.265625-.1899414-.9492188-.4179688-1.4433594-.2470703-.2470703.0952148-1.1015625.5131836-1.40625,1.6152344-.1699219.5888672.0195312,2.0517578.0195312,2.0517578.0566406.9306641.2285156,1.7285156.3417969,2.90625,1.4248047.3608398,2.6601562,1.0068359,2.9453125,1.3105469.5126953.5322266.4931641.9121094.2460938,1.1401367-.3037109.284668-.6640625.0756836-1.3105469-.3422852-.6269531-.4179688-1.2158203-.7026367-1.7851562-.9116211,0,.1708984.0185547.3422852.0185547.5131836.0185547,1.0634766-.8359375,2.1083984-2.5458984,2.1655273-1.9179688.0571289-2.7353516-1.2158203-2.8115234-1.8237305-.0761719-.684082.2666016-1.652832,1.6904297-2.1279297.7792969-.265625,1.6914062-.265625,2.5839844-.1328125-.1328125-1.2348633-.1894531-3.0776367-.1708984-3.5332031.0185547-.8740234.1708984-1.4248047.5693359-2.0712891.5517578-.9116211,1.9003906-1.3295898,2.375-1.5004883.9316406-.3422852-.4550781-1.3676758-.5693359-1.5385742s.5693359-.0761719.96875.0756836c.6074219.2661133,1.2919922.684082,1.7666016,1.4438477.4179688.6650391.0185547,1.3867188-.4560547,1.4248047Zm-4.5019531,6.8007812c-1.4248047-.3037109-2.4892578-.0566406-2.8115234.0571289-.5322266.1899414-.6845703.5131836-.7226562.703125-.0947266.684082.5703125,1.1967773,1.4824219,1.2348633,1.5957031.0761719,1.8427734-.5888672,1.9941406-1.2919922.0195312-.1142578.0380859-.3798828.0576172-.703125Z"/>
      <path class="cls-1" d="m312.7763672,35.984375c.1708984-.2089844.2851562-.4179688.4375-.4179688.2275391,0,1.2529297.9306641,1.2529297,1.2158203-.1328125.1518555-.3603516.2470703-.7216797.3037109-.0947266,4.6542969-.2851562,6.7822266-.9492188,7.4848633-.3232422.3227539-.7226562.4560547-1.1787109.4936523,0-.246582-.0947266-.5693359-.2470703-.7402344-.1894531-.1333008-.6269531-.3041992-1.0634766-.3803711l.0185547-.3037109c.4179688.0375977,1.140625.0952148,1.3867188.0952148.1523438,0,.2089844-.0380859.3232422-.1523438.3427734-.4370117.5126953-2.4316406.6269531-6.6298828h-1.8427734c-.2275391,3.0771484-.8730469,5.6420898-2.7734375,7.8457031,1.1972656,1.0449219,2.6787109,1.2158203,5.4902344,1.2158203,2.2226562,0,5.2626953,0,7.5234375-.0761719v.2661133c-.5136719.0952148-.8173828.4560547-.9121094,1.0258789h-6.6113281c-3.4199219,0-4.9580078-.4560547-6.25-2.5834961-.6269531.8168945-1.5576172,1.9375-2.1464844,2.5454102.0380859.2089844-.0566406.3417969-.1708984.4370117l-.8544922-1.4819336c.53125-.3037109,1.4052734-.8544922,2.2412109-1.4248047v-5.7558594h-.703125c-.4179688.0185547-.8173828.1137695-1.2158203.265625l-.4560547-.96875c.4755859.0952148.9501953.1328125,1.4443359.1523438h.6835938l.3232422-.4750977c.1708984-.2470703.3037109-.4936523.4560547-.4936523.2275391,0,1.4628906,1.0444336,1.4628906,1.3295898-.1142578.1518555-.3808594.3037109-.875.3608398v5.1103516c.171875.1899414.3232422.3608398.4941406.4941406l-.1513672-.1713867c1.8798828-3.0961914,2.0517578-6.5541992,1.9755859-10.7143555h-.5507812c-.3046875.019043-.5703125.1142578-.8359375.265625l-.4746094-.9873047c.5507812.0947266,1.1015625.1328125,1.6708984.1518555h.7792969c0-1.0258789-.0576172-2.2607422-.1904297-3.0966797,1.9375.5698242,1.9375.7602539,1.6337891.9692383l-.2841797.1894531v1.9379883h.9111328l.3232422-.4560547c.1708984-.2280273.3037109-.4750977.4560547-.4750977.2275391,0,1.234375.9121094,1.234375,1.1972656-.0566406.2089844-.2275391.3037109-.4746094.3037109h-3.0585938c-.0185547.8740234-.0380859,1.7099609-.0761719,2.5263672h1.6337891l.2851562-.3984375Zm-8.1503906-5.1484375c4.1611328,1.652832,3.1542969,4.6162109,1.84375,3.609375-.2089844-1.1586914-1.1777344-2.6025391-2.0332031-3.4575195l.1894531-.1518555Zm14.7988281,3.5712891c1.2539062,1.2539062,1.2539062,1.4438477.8935547,1.4819336l-.3613281.0380859c-.5507812.4370117-1.3486328,1.0639648-2.1083984,1.4819336l.5322266.0566406c-.0380859.2470703-.2089844.3989258-.5888672.4560547v1.5195312h.96875l.3603516-.5317383c.1904297-.2661133.3427734-.5317383.4941406-.5317383.2275391,0,1.3681641,1.0449219,1.3681641,1.3295898-.0380859.2089844-.1904297.3041992-.4560547.3041992h-2.7353516v3.4765625c0,.96875-.171875,1.5385742-1.6152344,1.6904297-.0380859-.3417969-.0947266-.6650391-.2851562-.8544922-.2089844-.1904297-.5507812-.3232422-1.1396484-.4179688v-.2851562s1.3115234.1142578,1.5771484.1142578c.2460938,0,.3222656-.0952148.3222656-.3422852v-3.3813477h-.9306641c-.5693359.0185547-1.0634766.1137695-1.5957031.265625l-.4931641-.987793c.6835938.0952148,1.3671875.1333008,2.0507812.1518555h.96875c0-.7407227-.0371094-1.6523438-.1328125-2.2792969l.8925781.1899414c.4179688-.4370117.8554688-1.0258789,1.1972656-1.5385742h-1.2539062c-.7978516.0185547-1.5195312.1137695-2.2792969.265625l-.4941406-.987793c.8359375.0952148,1.671875.1333008,2.5263672.1518555h1.6337891c.2285156-.2470703.4746094-.5507812.6835938-.8359375Zm-.5126953-2.1274414c.2089844-.2661133.3613281-.5512695.5126953-.5512695.2285156,0,1.4443359,1.0449219,1.4443359,1.3300781-.0380859.2089844-.2089844.3037109-.4746094.3037109h-4.6542969c-.4941406.8549805-1.0644531,1.5771484-1.671875,2.1469727l-.3037109-.2089844c.2275391-.3422852.4550781-.7602539.6455078-1.1967773.5126953-1.1396484.8925781-2.9257812.8740234-3.9707031,2.0703125.5507812,2.0703125.7412109,1.7480469.8930664l-.3232422.1518555c-.2089844.5888672-.4179688,1.1396484-.703125,1.652832h2.5458984l.3603516-.5507812Z"/>
      <path class="cls-1" d="m327.2744141,33.4956055c.8925781.0571289,1.4052734-.0571289,2.5830078-.684082.4755859-.2470703.8935547.3989258.9882812.7216797.1142578.3041992-.2089844.6650391-.9501953.8359375-.8164062.1904297-1.7285156,1.6152344-2.5644531,3.3818359-.9882812,2.0703125-2.1660156,6.0410156.7978516,7.3896484,2.7548828,1.2348633,5.4326172-.7978516,5.984375-2.5834961.8925781-2.8496094.5693359-7.3901367.4560547-8.0356445-.0957031-.5703125-.5898438-1.9951172-.6464844-2.2416992-.0380859-.2470703-.0380859-.987793.6083984-.8930664.6835938.0761719.6269531.6650391.7216797,1.5195312.4941406,4.046875,2.7539062,5.5283203,3.9130859,6.5166016.3613281.3227539.5517578,1.1396484,0,1.3676758-.5693359.2661133-.9873047-.3227539-1.2158203-.5131836-.6455078-.5507812-1.1582031-1.4248047-1.5761719-2.1655273-.5136719-.9311523-.9316406-1.8803711-1.2919922-2.8686523.4365234,3.0966797.5507812,5.6044922-.2470703,8.0546875-1.6337891,5.0722656-9.7070312,4.7114258-9.5371094-1.1396484.1142578-4.0083008,3.6484375-7.921875,3.2490234-7.7890625-.5507812.1708984-1.2353516.1904297-1.8046875-.1708984-.3417969-.2275391-.6083984-.7026367-.5507812-.8359375.0566406-.1518555.4746094.0952148,1.0830078.1333008Zm9.3652344-1.652832c.2851562.0380859,2.0703125.3798828,2.2226562,1.5390625.0380859.3798828-.0380859.5693359-.265625.6645508-.2285156.1137695-.6650391.0380859-.9316406-.3989258-.2841797-.4560547-.7783203-1.1586914-1.2724609-1.4057617-.1904297-.0756836-.4560547-.1899414-.4365234-.3227539.0371094-.1708984.4179688-.1142578.6835938-.0761719Zm1.2539062-1.5957031c.2851562,0,2.1464844.0761719,2.4316406,1.2539062.0761719.3227539-.0761719.4560547-.1894531.5317383-.2089844.1333008-.6083984.1333008-.9316406-.2470703-.3613281-.3798828-.9492188-.96875-1.4814453-1.1020508-.2089844-.0566406-.4941406-.1137695-.4941406-.246582.0185547-.1708984.4179688-.1899414.6650391-.1899414Z"/>
      <path class="cls-1" d="m344.7734375,36.5732422c.7412109,3.3432617-.2666016,5.5087891-1.0634766,6.4018555-.5322266.5888672-1.2539062.8359375-1.5771484.4560547-.2470703-.3422852-.0761719-.8168945.2470703-1.1782227,1.0820312-.8735352,2.0898438-3.1342773,2.0517578-5.6796875h.3417969Zm2.3173828,1.8427734c0-1.2539062-.0761719-2.8496094-.2470703-3.8945312,2.0712891.5888672,2.0712891.7788086,1.7480469.987793l-.3037109.2089844v9.5551758c0,.4375.1513672.5893555,1.1210938.5893555h2.3740234c1.1015625,0,1.9189453,0,2.2607422-.0380859.265625-.0380859.3613281-.1333008.4365234-.3422852.1708984-.3798828.4179688-1.7470703.703125-3.3051758h.2275391l.0390625,3.4575195c.4365234.1518555.5693359.3037109.5693359.5698242,0,.6650391-.6835938.8740234-4.2548828.8740234h-2.5078125c-1.6914062,0-2.1660156-.3227539-2.1660156-1.5385742v-7.1240234Zm.3232422-7.6748047c6.6865234,1.3295898,5.9082031,4.7299805,4.4638672,3.9321289-.6074219-1.0068359-2.2226562-2.5649414-4.578125-3.628418l.0566406-.1523438.0576172-.1513672Zm10.3154297,12.1005859c-.0566406-1.7285156-.703125-4.5209961-2.6972656-6.2880859l.1894531-.2084961c5.4140625,3.0961914,3.8378906,8.1118164,2.5078125,6.496582Z"/>
      <path class="cls-1" d="m363.6591797,32.640625c-.0380859-.0566406-.1523438-.1899414-.1132812-.265625.0947266-.1523438.2460938-.0576172.3417969,0,.2275391.1513672,1.4052734.7783203,1.4052734,2.4692383,0,.684082-.8544922,2.3178711-1.1210938,3.4575195-.3232422,1.3105469-.2275391,1.9189453-.0566406,2.5263672.0380859.1523438.0185547.2285156.1708984.2470703.1523438.0195312.2089844-.0947266.3037109-.3227539s.7792969-1.8427734.8554688-2.0708008c.0751953-.2275391.1513672-.2089844.2089844-.1899414.0380859.019043.0566406.0952148,0,.2851562-.0576172.2084961-.6845703,2.4506836-.6650391,3.5522461.0380859,1.1210938.3798828,2.659668.4365234,2.9638672.0576172.3037109-.1894531.5698242-.4365234.5888672-.3798828.0380859-.8740234-.4560547-1.0644531-.96875-.2089844-.5131836-.7021484-1.8999023-.7597656-4.5405273-.0371094-2.5078125.7792969-4.2744141.9882812-6.1552734.0947266-.684082-.4375-1.5195312-.4941406-1.5766602Zm4.9199219,10.2773438c.4179688.3041992.8740234.6083984,1.6152344.7978516.7216797.1904297,2.4882812.1523438,4.1796875-.1518555.8164062-.1518555,1.2724609.3041992,1.2910156.684082,0,.3989258-.4550781.5698242-.7783203.6650391-.3232422.0947266-3.9707031.5317383-5.3759766-.3232422-.7597656-.4746094-1.1591797-1.2919922-1.2158203-1.4438477-.0761719-.1328125-.1337891-.3227539-.0761719-.3798828.0947266-.0756836.2470703.0756836.3603516.1518555Zm.5322266-9.0043945c.1328125.0571289.703125.2661133,1.5205078.2280273.8164062-.0380859,2.6210938-.3613281,3.0195312-.4941406.3994141-.1328125,1.0263672.1899414,1.1210938.5322266.0957031.3417969-.3417969.5888672-.7597656.7216797s-2.4121094.4746094-3.5712891.1899414c-.8935547-.2089844-1.5771484-.684082-1.8046875-1.1401367-.0576172-.1137695-.0761719-.2089844-.0380859-.265625.0566406-.0947266.3798828.1708984.5126953.2280273Z"/>
      <path class="cls-1" d="m382.9443359,32.8305664c-.0195312,1.1782227-.5126953,1.9760742-1.0253906,2.3364258-.4375.3232422-1.1210938.3613281-1.3300781-.0756836-.1328125-.4179688.0947266-.7978516.4746094-1.0258789.7412109-.4179688,1.4248047-1.5195312,1.3300781-2.8115234h.3417969c.1132812.3608398.1523438.703125.1894531,1.0258789h4.9775391c0-.684082-.0380859-1.4819336-.1142578-2.0708008,1.9384766.5698242,1.9384766.7597656,1.6347656.96875l-.2851562.2089844v.8930664h5.4707031l.3232422-.4179688c.1708984-.2089844.3037109-.4179688.4560547-.4179688.2275391,0,1.3671875,1.1206055,1.3671875,1.4057617-.1513672.1518555-.3417969.1708984-.6835938.2089844-.4560547.6269531-1.1972656,1.5009766-1.8046875,2.0136719l-.2285156-.1328125c.2089844-.5322266.4570312-1.4248047.6464844-2.1088867h-11.7402344Zm.6455078,14.4189453c0,.1333008-.4931641.4179688-.9873047.4179688-.1904297,0-.3046875-.1899414-.3046875-.3798828.0576172-.6650391.0761719-1.0073242.1142578-2.0327148v-1.2158203c0-1.2158203-.0751953-2.7167969-.2275391-3.7045898l1.5390625.7026367h9.6308594l.2851562-.3798828c.1523438-.1894531.265625-.3798828.4179688-.3798828.2285156,0,1.4248047.8740234,1.4248047,1.1591797-.1328125.1518555-.3994141.3227539-.7783203.3984375v1.8051758c.0371094,1.8046875.0566406,2.3935547.1328125,3.4956055-.1328125.2089844-.7412109.4746094-1.1210938.4746094-.1708984,0-.2470703-.1899414-.2470703-.3798828.0380859-.0947266.0380859-.1328125.0761719-.2851562v-.3417969h-9.9550781v.6459961Zm3.0966797-12.3481445c-.9882812.019043-1.8994141.1142578-2.8496094.265625l-.4941406-.949707c.8359375.0952148,1.671875.1333008,2.5273438.1518555h5.7939453l.3417969-.4746094c.1904297-.2470703.3417969-.4941406.4941406-.4941406.2275391,0,1.3867188.9121094,1.3867188,1.1972656-.0380859.2089844-.2089844.3037109-.4560547.3037109h-6.7441406Zm1.234375,6.6870117h-4.3310547v1.9379883h4.3310547v-1.9379883Zm-4.3310547,2.4692383v1.9760742h4.3310547v-1.9760742h-4.3310547Zm8.5488281-8.1303711c.1523438-.2089844.2666016-.4179688.4179688-.4179688.2275391,0,1.3300781.9311523,1.3300781,1.2158203-.0947266.1328125-.3613281.284668-.6650391.3417969v.9116211c.0380859.9121094.0380859,1.2158203.0947266,1.7099609-.1142578.2089844-.7412109.4750977-1.1015625.4750977h-.1904297v-.7788086h-6.8769531v.5317383c0,.1137695-.5126953.3798828-.9873047.3798828-.1708984,0-.2666016-.1899414-.2666016-.3798828.0576172-.3798828.0576172-.5698242.0957031-1.1396484v-.7602539c0-.7783203-.0380859-1.7094727-.1328125-2.3554688l1.3867188.6650391h6.6298828l.265625-.3989258Zm-6.9912109,2.9067383h6.8769531v-1.9570312h-6.8769531v1.9570312Zm8.3974609,2.7543945h-4.4267578v1.9379883h4.4267578v-1.9379883Zm-4.4267578,4.4453125h4.4267578v-1.9760742h-4.4267578v1.9760742Z"/>
      <path class="cls-1" d="m415.7744141,40.8662109c-1.3496094,4.3696289-3.7421875,5.4140625-5.1484375,5.1865234-1.40625-.2089844-1.6904297-1.2348633-1.8046875-1.8808594-.0947266-.6650391.1328125-2.5834961.2089844-3.4384766.0566406-.5126953.1328125-1.5766602-.4560547-2.1845703-.8173828-.8168945-2.8496094-.0380859-4.3310547,1.5009766-1.6533203,1.7094727-1.8046875,3.7612305-2.0517578,4.7109375-.0761719.3037109-.0947266,1.3681641-.4179688,1.4628906-.7216797.1708984-1.4443359-.703125-.9882812-2.2607422.2470703-.7978516.6464844-1.5957031.7792969-1.9189453.8740234-2.0893555,5.2236328-8.206543,5.4902344-8.6816406.265625-.4936523.2841797-.9306641.0380859-1.3867188-.0957031-.1518555-.4941406-.2851562-.4375-.4746094.0380859-.1328125.4375-.1708984.8554688.0380859.8164062.3984375,1.3300781,1.2724609.9873047,2.1083984-.3417969.7978516-.8544922,1.1210938-1.3105469,1.5771484-.9121094.9306641-2.4316406,2.5449219-3.0585938,4.0839844,0,0,2.7734375-2.5263672,4.8632812-1.3486328,1.1396484.6269531,1.3486328,1.3676758,1.2539062,2.9443359-.0761719,1.1396484-.7978516,3.5712891.4560547,3.9707031,1.1962891.3798828,3.0390625-.3232422,4.7490234-4.1225586.1328125-.2661133.2470703-.5698242.3613281-.5317383s.0185547.4560547-.0380859.6455078Z"/>
      <path class="cls-1" d="m425.3896484,33.9892578c.0947266.1523438.1328125.4370117-.265625.7978516-.6650391.6083984-1.3115234,1.0830078-2.0136719,1.40625-.6650391,3.1914062-1.671875,7.6933594-1.8623047,8.3964844-.3037109,1.0258789-.5507812,1.5009766-1.0830078,1.3300781-.53125-.1708984-.7402344-.722168-.4746094-1.2919922.0761719-.1523438.8164062-1.7285156,1.1972656-3.0776367.4931641-1.7290039.9111328-3.2866211,1.2539062-5.0151367-.3613281.0761719-.7226562.1328125-1.1025391.1518555-.4365234.0380859-1.1591797-.2661133-1.7099609-.722168-.1708984-.1328125-.1513672-.246582-.1513672-.246582.0751953-.1333008.2275391-.0380859.3798828,0,.1708984.019043,1.1962891.284668,2.640625-.3803711.0566406-.0375977.1132812-.0566406.1708984-.0947266.0761719-.4746094.1513672-.96875.2275391-1.5009766.0195312-.1513672.0761719-.96875-.1132812-1.3486328-.1904297-.3989258-.7597656-.6650391-.8173828-.7216797-.0566406-.0761719-.0761719-.1142578-.0566406-.2089844.0566406-.1523438.9306641-.019043,1.3291016.1899414.4179688.2280273.96875.4555664.8173828,1.3676758v.0571289c.1904297.246582.4560547.5888672.7597656.684082.1708984.0380859.2666016.0185547.4179688.0185547.1708984.0195312.3613281.0761719.4560547.2089844Zm-1.7099609-.5317383c-.0566406.284668-.1328125.684082-.2275391,1.1586914.1708984-.1328125.3417969-.265625.4941406-.4365234.1132812-.0952148-.0761719-.4560547-.2666016-.722168Zm8.9853516,11.550293c.0576172.4746094-.3984375.7597656-.8359375.8549805-.6074219.1518555-1.2148438.2280273-1.7851562.2280273-.9306641,0-2.7167969-.1328125-3.5712891-1.1020508-.4375-.4936523-.5126953-1.253418-.3994141-1.7856445.0957031-.4560547.3417969-.9501953.5322266-.9501953h.0185547c.0957031.0195312.0957031.1523438.0761719.3798828-.0185547.1523438-.0185547.3041992,0,.4560547.0761719.5703125.265625,1.2539062,1.0644531,1.4628906.5878906.1523438,1.1396484.2280273,1.7089844.2280273.4755859,0,1.4824219-.1137695,1.9951172-.2089844.7412109-.1518555,1.1591797,0,1.1962891.4370117Zm-4.8056641-10.1064453c0-.0380859.0185547-.0761719.1142578-.0761719.0566406,0,.1513672.019043.3037109.0571289.3232422.0571289.8359375.1333008.9873047.1518555.1904297,0,.3994141-.0185547.6464844-.0566406.265625-.0380859.5693359-.0952148.9121094-.0952148.2275391,0,.4550781.019043.6835938.0571289.3613281.0761719.6835938.3227539.8164062.6650391.1142578.246582.0761719.4936523-.0566406.7026367-.1328125.1899414-.4179688.2089844-.6650391.2280273-.0566406.0185547-.1142578.0185547-.1708984.0185547-.0761719.0195312-.1523438.0195312-.2089844.0380859-.1142578,0-.2089844.0195312-.3984375.0571289-.1904297.0571289-.3994141.1333008-.6083984.2089844-.1142578.0380859-.2089844.0761719-.3037109.1137695-.0380859.0195312-.0761719.0380859-.1328125.0576172-.1142578.0566406-.2470703.1137695-.3417969.1137695h-.0576172c-.0380859-.019043-.0566406-.0571289-.0566406-.0761719-.0195312-.0571289,0-.1137695.0185547-.1708984.1142578-.2089844.3232422-.3608398.5136719-.4936523l.1132812-.1142578c.0566406-.0380859.0957031-.0761719.1142578-.1142578.0185547-.0566406,0-.0947266-.0185547-.1328125-.0576172-.1137695-.2285156-.1518555-.3613281-.1708984l-.0195312-.019043q-.1708984-.019043-.4365234-.0952148l-.1328125-.0375977c-.6269531-.2089844-1.2919922-.5888672-1.2539062-.8168945Zm6.2685547-1.2919922c.2851562.3798828.2851562.8549805-.0761719,1.1777344,0,0-.4550781.2285156-.8164062-.2275391-.3613281-.4375-.7978516-1.1020508-1.7666016-1.690918-.1523438-.0952148-.3037109-.1518555-.2851562-.2661133.0185547-.1137695.2851562-.0761719.4365234-.0761719.1523438.0195312,1.7675781.1904297,2.5078125,1.0830078Zm1.5771484-.6079102s-.4179688.2661133-.7783203-.1137695c-.3808594-.3613281-.8554688-.9306641-1.8056641-1.3300781-.1513672-.0756836-.2841797-.1137695-.2841797-.2275391,0-.1142578.2460938-.0952148.3789062-.1142578.1337891,0,1.5771484-.019043,2.3369141.703125.3037109.3037109.4941406.7788086.1523438,1.0825195Z"/>
      <path class="cls-1" d="m451.3046875,34.578125c.1708984.684082-.5507812,1.0639648-1.0634766,2.0708008-2.7548828,5.3950195-6.3076172,7.6176758-11.0380859,9.7836914-.2470703.1142578-.4365234.0947266-.4560547,0-.0371094-.1142578.1142578-.1899414.3613281-.3232422,4.1035156-1.9375,8.8710938-6.4589844,10.2392578-11.1699219.1328125-.4370117-.1513672-.3798828-.2470703-.3798828-.2460938,0-5.1669922.8925781-7.3320312,1.6142578-.8554688.3041992-1.4443359.1142578-1.7861328-.1328125-.4755859-.3417969-.8935547-1.234375-.7412109-1.4248047.0761719-.0947266.3417969-.0380859.6269531.0571289.7216797.2280273,1.1396484.1708984,1.5957031.1333008.7978516-.0761719,5.6796875-.6464844,6.4589844-.8930664.5322266-.1713867,1.2539062-.6650391,1.5957031-.6079102.3417969.0566406,1.6914062.9116211,1.7861328,1.2724609Zm3.3623047-2.3554688c0,1.0068359-.8164062,1.8237305-1.8046875,1.8237305-1.0068359,0-1.8242188-.8168945-1.8242188-1.8237305,0-.987793.8173828-1.8046875,1.8242188-1.8046875.9882812,0,1.8046875.8168945,1.8046875,1.8046875Zm-.4941406,0c0-.7216797-.5888672-1.3105469-1.3105469-1.3105469-.7412109,0-1.3300781.5888672-1.3300781,1.3105469,0,.7412109.5888672,1.3300781,1.3300781,1.3300781.7216797,0,1.3105469-.5888672,1.3105469-1.3300781Z"/>
      <path class="cls-1" d="m458.1279297,46.6225586c-.0957031.019043-.1904297.019043-.1904297-.0380859-.0380859-.0756836.0761719-.1328125.1513672-.1518555,4.484375-1.9755859,7.7519531-4.6352539,10.0117188-9.3657227.0957031-.2089844.1142578-.3608398.0761719-.4179688-.0566406-.0756836-.2275391-.0952148-.4941406-.0571289-.6269531.1142578-4.4824219.7978516-5.5849609,1.0830078-.9121094.2280273-.6269531.4560547-1.1591797.5507812-.6269531.0952148-1.4628906-.4560547-1.8808594-.949707-.1894531-.2089844-.2460938-.7026367-.1328125-.8735352.0957031-.1333008.3808594.0756836.5322266.1328125.2666016.1137695,1.2353516.3227539,2.4130859.2089844.6640625-.0761719,5.1484375-.7597656,5.6992188-.8740234.53125-.1142578.6455078-.4370117.96875-.5126953.3222656-.0761719,1.0253906.4746094,1.3671875.7788086.6269531.5698242.4375.7788086.3808594.8930664-.171875.284668-.8359375.6645508-1.1972656,1.2724609-2.1845703,3.6855469-4.9199219,6.5917969-10.9609375,8.3208008Zm10.3339844-13.8491211c.0947266.5131836-.1894531.4179688-2.1660156.3994141-.9492188-.0195312-3.2480469.3037109-3.8945312.5507812-.6455078.2275391-1.0634766.3037109-1.5761719-.1328125-.3046875-.2666016-.4941406-.4941406-.5703125-.6845703-.0566406-.1328125-.0761719-.2084961,0-.284668.0761719-.0571289.3232422.0571289.6269531.1518555.3232422.0952148.8740234.1708984,1.7861328.0195312.8925781-.1333008,2.3554688-.4179688,2.8115234-.5322266.4365234-.1142578.4746094-.3798828,1.0820312-.4560547.6083984-.0761719,1.8242188.5126953,1.9003906.96875Z"/>
      <path class="cls-1" d="m477.7539062,33.5712891c.6845703-.0947266,2.640625-.0380859,3.7050781.7978516.7597656.5888672.8740234,1.3491211.5693359,1.7861328-.3222656.4365234-1.0634766.2851562-1.5576172-.5131836-.5507812-.8930664-1.9560547-1.5766602-2.640625-1.7666016-.2089844-.0571289-.3417969-.1333008-.3417969-.2089844.0185547-.0571289.1328125-.0756836.265625-.0952148Zm13.3935547.8930664c.0761719.0952148-.0761719.3227539-.1708984.4370117-2.8115234,3.9326172-7.5039062,7.9599609-9.1572266,9.1186523-.5888672.3989258-.6455078.3608398-1.1015625.8549805-.3798828.4179688-.7597656.5126953-1.2158203.4179688-.9306641-.2285156-1.5009766-1.0263672-1.6337891-1.7099609-.1708984-.7788086,0-1.1015625.1142578-1.1586914.1328125-.0571289.2089844.3798828.4746094.6079102.1904297.1899414.4365234.4941406,1.0830078.3798828,2.1845703-.3417969,8.2441406-5.5473633,11.2460938-8.7768555.1328125-.1518555.265625-.246582.3613281-.1708984Z"/>
      <path class="cls-1" d="m499.1855469,44.875c0,1.3867188-1.1015625,2.4882812-2.4697266,2.4882812-1.3671875,0-2.4882812-1.1015625-2.4882812-2.4882812,0-1.3681641,1.1210938-2.4697266,2.4882812-2.4697266,1.3681641,0,2.4697266,1.1015625,2.4697266,2.4697266Zm-.4560547,0c0-1.1020508-.9111328-1.9951172-2.0136719-1.9951172-1.1015625,0-2.0136719.8930664-2.0136719,1.9951172,0,1.1206055.9121094,2.0136719,2.0136719,2.0136719,1.1025391,0,2.0136719-.8930664,2.0136719-2.0136719Z"/>
    </g>
    <rect class="cls-2" width="661" height="48"/>
  </g>
</svg>