<?xml version="1.0" encoding="UTF-8"?>
<svg id="_レイヤー_2" data-name="レイヤー 2" xmlns="http://www.w3.org/2000/svg" viewBox="0 0 92 48">
  <defs>
    <style>
      .cls-1 {
        stroke-width: 0px;
      }
    </style>
  </defs>
  <g id="_レイヤー_1-2" data-name="レイヤー 1">
    <g>
      <path class="cls-1" d="m.0722656,32.4316406c.1435547-.0244141.2353516-.0361328.2753906-.0361328.2705078,0,.7177734.0166016,1.3408203.0478516.3271484.0078125.5507812.0117188.6708984.0117188.1757812,0,.546875-.015625,1.1132812-.0478516l2.0361328-.1191406c.5351562-.0478516,1.1572266-.0722656,1.8681641-.0722656,1.2539062,0,2.2519531.1777344,2.9941406.5322266.7421875.3554688,1.3154297.9111328,1.71875,1.6689453.4033203.7568359.6044922,1.5107422.6044922,2.2597656,0,1.2519531-.4394531,2.3330078-1.3173828,3.2412109-.8779297.9091797-2.0595703,1.3642578-3.5449219,1.3642578-.4150391,0-.7626953-.0419922-1.0419922-.1259766s-.5986328-.2460938-.9580078-.4853516c-.1513672-.1035156-.2431641-.2109375-.2753906-.3232422.0322266-.0556641.0761719-.0957031.1318359-.1201172.1123047,0,.2275391.0244141.3476562.0722656.2714844.0957031.6142578.1435547,1.0292969.1435547.6308594,0,1.2275391-.1552734,1.7910156-.4658203.5625-.3115234.9882812-.7539062,1.2753906-1.3271484.2871094-.5742188.4306641-1.1796875.4306641-1.8173828,0-.6220703-.1513672-1.2255859-.4541016-1.8115234s-.7011719-1.0546875-1.1953125-1.4052734c-.2783203-.1992188-.7070312-.3671875-1.2841797-.5019531-.578125-.1357422-1.0263672-.2041016-1.3447266-.2041016-.9882812,0-1.5742188.0722656-1.7568359.2158203l-.0126953.1679688.0361328,1.3515625-.0117188.2392578c-.0166016.2158203-.0244141.546875-.0244141.9931641,0,1.6279297.0244141,2.640625.0722656,3.0400391v.6699219l.1552734,5.4677734c0,.0800781-.0097656.2275391-.0292969.4433594-.0205078.2158203-.0302734.4033203-.0302734.5625,0,.3828125.0322266.6738281.0957031.8730469.1914062.0556641.75.1875,1.6767578.3955078.4306641.1035156.6669922.1630859.7070312.1796875.0634766.0234375.1191406.0751953.1669922.1552734-.0322266.1201172-.0732422.1972656-.1259766.2333984-.0517578.0361328-.1533203.0537109-.3046875.0537109-.0957031,0-.3193359-.0195312-.6708984-.0595703-.6865234-.0722656-1.2255859-.1074219-1.6171875-.1074219l-2.1074219.0830078-1.2578125-.0351562c-.0791016,0-.3105469.0078125-.6943359.0234375l-.0117188-.3115234,1.5566406-.2988281c.2558594-.0712891.4111328-.1435547.4667969-.2158203.0800781-.1113281.1201172-.3310547.1201172-.6582031,0-.0712891.0039062-.2265625.0117188-.4658203.0078125-.1679688.0126953-.3994141.0126953-.6943359,0-.9414062-.0400391-2.9472656-.1201172-6.0195312-.0322266-1.4355469-.0478516-2.8955078-.0478516-4.3789062v-.2041016c0-.5742188-.0878906-.9365234-.2636719-1.0888672-.2958984-.2626953-1.0341797-.4785156-2.2158203-.6455078-.0400391-.0878906-.0595703-.1601562-.0595703-.2158203,0-.0634766.0244141-.1396484.0722656-.2275391Z"/>
      <path class="cls-1" d="m16.9072266,32.875v-.2636719c.2226563-.0722656.4707031-.1474609.7421875-.2275391.4013672-.1279297.9951172-.3232422,1.78125-.5869141h.5664062v.6591797c0,6.5595703-.0205078,10.4707031-.0605469,11.7333984-.0234375.7431641-.0351562,1.1386719-.0351562,1.1865234,0,.8945312.0351562,1.3945312.1074219,1.4980469.0957031.1445312.3886719.2441406.8798828.2998047s.7802734.1123047.8681641.1679688c.0644531.0322266.0957031.0878906.0957031.1679688,0,.0878906-.0175781.1494141-.0537109.1855469-.0361328.0351562-.1015625.0537109-.1972656.0537109-.0556641,0-.4755859-.0136719-1.2578125-.0410156l-1.5683594-.0546875-2.0117188.0957031c-.1279297.0078125-.2236328-.0166016-.2880859-.0742188-.0478516-.0400391-.0712891-.0976562-.0712891-.171875,0-.0820312.0253906-.140625.0771484-.1777344s.3398438-.0996094.8623047-.1875c.5234375-.0878906.8222656-.1611328.8984375-.2216797.0761719-.0595703.1259766-.1933594.1494141-.4003906.0322266-.2880859.0478516-1.0976562.0478516-2.4316406l-.0117188-2.7539062.0361328-2.8505859-.0117188-2.8505859.0351562-1.4013672c0-.2792969-.0439453-.4804688-.1308594-.6044922-.0878906-.1240234-.2753906-.2451172-.5634766-.3652344-.4306641-.1757812-.7265625-.3037109-.8857422-.3828125Z"/>
      <path class="cls-1" d="m34.5810547,46.0839844c.0478516.1044922.0722656.1796875.0722656.2275391,0,.1201172-.0957031.3320312-.2880859.6347656-.2470703.3994141-.5224609.6904297-.8261719.8740234-.1914062.1201172-.4550781.1796875-.7900391.1796875-.5751953,0-1.0058594-.1757812-1.2939453-.5263672-.1757812-.2080078-.2988281-.5791016-.3710938-1.1142578l-1.3408203.9345703c-.4716797.2714844-.8310547.4433594-1.078125.5146484-.3994141.1035156-.8779297.15625-1.4375.15625-.4072266,0-.7285156-.1220703-.9638672-.3662109-.2353516-.2431641-.3535156-.5566406-.3535156-.9394531,0-.5507812.3378906-1.2099609,1.0146484-1.9765625.6757812-.765625,1.5947266-1.3925781,2.7548828-1.8798828.8164062-.3427734,1.3164062-.5625,1.5-.6582031.0166016-.2636719.0244141-.5517578.0244141-.8623047,0-1.0146484-.1425781-1.7011719-.4267578-2.0605469s-.6904297-.5390625-1.21875-.5390625c-.5527344,0-1.0693359.2158203-1.5498047.6474609-.296875.2714844-.5205078.7822266-.6728516,1.5322266-.0478516.2080078-.1396484.4316406-.2753906.6708984-.34375.2236328-.6191406.3349609-.8261719.3349609-.1757812,0-.3359375-.0517578-.4794922-.1552734-.0800781-.0556641-.1201172-.1201172-.1201172-.1914062,0-.2080078.2216797-.6767578.6650391-1.4072266s1.0019531-1.2773438,1.6767578-1.640625,1.2636719-.5449219,1.7666016-.5449219c.6865234,0,1.1972656.0615234,1.5322266.1855469.3359375.1240234.6308594.3408203.8867188.6523438.2548828.3115234.4111328.6513672.4667969,1.0185547.0322266.1757812.0478516.8017578.0478516,1.8798828l-.0361328,1.9042969.0126953,1.3886719c0,.1845703-.0039062.3398438-.0126953.4677734-.0078125.2314453-.0117188.4033203-.0117188.5146484,0,.2636719.0761719.4755859.2275391.6347656.1513672.1601562.3310547.2392578.5390625.2392578.3037109,0,.5625-.1513672.7783203-.4550781l.1435547-.1914062c.0400391-.0244141.1279297-.0517578.2636719-.0839844Zm-3.5087891-.3466797c.0556641-1.0146484.0839844-1.7285156.0839844-2.1445312,0-.2148438-.0117188-.5068359-.0361328-.8740234-.5371094.1914062-1.1054688.4833984-1.7060547.8740234-.6015625.3916016-1.078125.8427734-1.4306641,1.3535156-.2558594.3671875-.3837891.7148438-.3837891,1.0419922,0,.3115234.1054688.5712891.3183594.7783203.2119141.2080078.4785156.3115234.7988281.3115234.2480469,0,.5488281-.0878906.9013672-.2636719.4648438-.2314453.9492188-.5908203,1.4541016-1.0771484Z"/>
      <path class="cls-1" d="m38.2070313,47.3173828c.1992188-.0556641.4306641-.1035156.6943359-.1425781.5029297-.0722656.8046875-.1552734.9042969-.2509766s.1494141-.3144531.1494141-.65625l.0244141-.4296875c.0078125-.1591797.0117188-.3623047.0117188-.609375l-.0234375-3.6640625c0-.4931641-.0644531-.8115234-.1914062-.9550781-.2158203-.2226562-.6152344-.3779297-1.1982422-.4648438v-.4375c.5830078-.1601562,1.0302734-.3681641,1.3417969-.625.4550781-.3603516.8378906-.8486328,1.1494141-1.4648438l.4072266.0117188c.0234375.3769531.0361328.6455078.0361328.8056641v.7929688l.0117188.2158203c.0957031-.0634766.2070312-.1445312.3349609-.2402344.4794922-.3603516.9707031-.6552734,1.4736328-.8837891.5029297-.2275391.9501953-.3857422,1.3408203-.4746094.2480469-.0634766.5273438-.0957031.8388672-.0957031.6542969,0,1.2167969.1757812,1.6884766.5273438.4707031.3515625.7763672.765625.9160156,1.2412109s.2099609,1.4208984.2099609,2.8359375v1.8105469c0,.0478516-.0068359.2080078-.0185547.4794922-.0117188.2724609-.0175781.5839844-.0175781.9355469,0,.5595703.0234375.9150391.0712891,1.0673828.0400391.1035156.1445312.2070312.3115234.3115234.7666016.1044922,1.2138672.2275391,1.3417969.3720703v.0957031c0,.0791016-.0244141.1796875-.0722656.2988281h-.2275391l-1.5810547-.0234375-1.5566406.0361328c-.5751953.015625-1.1054688.0117188-1.5927734-.0126953l-.0712891-.2509766c0-.0478516.0273438-.1123047.0830078-.1914062.2158203-.0966797.5195312-.1601562.9101562-.1923828.2314453-.015625.3916016-.0400391.4794922-.0722656.0878906-.03125.1953125-.0957031.3232422-.1914062.0957031-.1923828.1435547-.3515625.1435547-.4794922,0-.0566406-.0078125-.1679688-.0234375-.3359375-.0244141-.3681641-.0400391-1.2832031-.0478516-2.7470703v-.6230469l.0234375-.9599609c0-1.03125-.2080078-1.7421875-.6230469-2.1347656-.4150391-.3916016-.9697266-.5878906-1.6640625-.5878906-.5351562,0-1.0585938.1181641-1.5693359.3535156s-1.0058594.5888672-1.484375,1.0605469c-.0166016.3828125-.0244141.7099609-.0244141.9814453l.0361328,2.6464844c0,1.3818359.0195312,2.2275391.0595703,2.5390625.0166016.1279297.0439453.2158203.0839844.2636719.0634766.0644531.1914062.1162109.3837891.1552734.1914062.0400391.4130859.0966797.6640625.1679688.2519531.0722656.4169922.1162109.4970703.1318359.1591797.0400391.2675781.1201172.3232422.2392578l-.0117188.2402344h-1.2578125l-2.5869141-.0361328c-.5986328.0078125-.9775391.0117188-1.1376953.0117188h-.2988281l-.0244141-.1552734c0-.0566406.0117188-.1357422.0361328-.2402344Z"/>
    </g>
    <path class="cls-1" d="m84.0672887,43.3297411l-1.2227625,4.6702589h-26.46445l.2081745-1.00092c10.0638717-9.5129452,16.8022079-16.0494152,20.2139572-19.6073071,4.1761072-4.3979498,6.9191747-7.9695098,8.2292023-10.7115258.8400578-1.7053489,1.259561-3.6703903,1.259561-5.8940728,0-2.4465764-.5866737-4.2928111-1.760021-5.5408069-1.1743987-1.2479958-2.8229728-1.8725194-4.9478249-1.8725194-2.3729794,0-4.3990012.6371402-6.0791168,1.9093179-1.681167,1.2732291-3.3118675,3.6020502-4.8931528,6.9864634h-2.0007885c1.3836247-4.150874,3.3223814-7.2335392,5.8194244-9.2479958,2.4949402-2.0134052,5.2495729-3.0206335,8.2649494-3.0206335,3.5337101,0,6.3009594.9641214,8.3027993,2.8913129s3.0027599,4.4357997,3.0027599,7.5247733c0,1.7547641-.2723091,3.3234328-.8158759,4.7070574-.6918123,1.8041793-1.9030096,3.6882639-3.6325404,5.6522539-1.7295308,1.9650414-5.5103167,5.5292417-11.3423577,10.6936523l-13.2684978,11.8606913h21.1265607Z"/>
  </g>
</svg>