<?xml version="1.0" encoding="UTF-8"?>
<svg id="_レイヤー_2" data-name="レイヤー 2" xmlns="http://www.w3.org/2000/svg" viewBox="0 0 661 48">
  <defs>
    <style>
      .cls-1, .cls-2 {
        stroke-width: 0px;
      }

      .cls-2 {
        opacity: 0;
      }
    </style>
  </defs>
  <g id="_レイヤー_1-2" data-name="レイヤー 1">
    <rect class="cls-2" x="0" y="0" width="661" height="48"/>
    <g>
      <path class="cls-1" d="m4.6923828,15.8813477c-.1328125.0571289-.3608398.1518555-.3989258.0756836-.019043-.0756836.1142578-.1513672.3227539-.284668,4.7304688-3.0014648,6.9150391-8.206543,7.7128906-11.6074219.1142578-.5126953,0-.6079102-.4746094-.5507812-.6459961.0756836-4.5595703.8930664-6.4780273,1.0258789.0756836.4941406.1328125,1.1396484.2280273,1.9946289.0761719.684082.1708984.8740234.265625,1.7290039.019043.3417969-.2089844.7407227-.4746094.8359375-.2661133.0947266-.8740234-.4750977-.9501953-1.1020508-.0375977-.4370117.0380859-.3803711.0195312-.7602539-.0952148-1.253418-.5322266-2.9443359-.7602539-3.2861328-.2470703-.3613281-.5317383-.5507812-.9116211-.5888672-.1904297-.019043-.3041992-.0761719-.3041992-.1708984.0380859-.1904297.2851562-.2089844.4941406-.2285156.2089844-.0185547,1.6333008-.0375977,2.1083984.6650391.019043.0195312.0380859.0571289.0571289.0761719,2.3369141-.1142578,6.0410156-.6459961,6.5351562-.7597656.3798828-.0952148.8544922-.4941406,1.0830078-.4941406.2275391,0,1.0444336.4750977,1.3295898.7792969.1708984.1894531.3608398.3984375.3037109.6269531-.0571289.265625-.3989258.5507812-.5317383.7597656-.0761719.1137695-.1899414.265625-.3037109.6269531-.8549805,3.1342773-3.7617188,8.1875-8.8720703,10.6381836Z"/>
      <path class="cls-1" d="m21.7739258,3.4189453c.6835938-.0947266,2.640625-.0380859,3.7045898.7978516.7597656.5888672.8735352,1.3491211.5693359,1.7861328-.3227539.4365234-1.0634766.2851562-1.5576172-.5131836-.5507812-.8930664-1.956543-1.5766602-2.640625-1.7666016-.2089844-.0571289-.3417969-.1333008-.3417969-.2089844.019043-.0571289.1328125-.0756836.2661133-.0952148Zm13.3930664.8930664c.0756836.0952148-.0761719.3227539-.1708984.4370117-2.8120117,3.9326172-7.5039062,7.9599609-9.1567383,9.1186523-.5893555.3989258-.6459961.3608398-1.1020508.8549805-.3798828.4179688-.7597656.5126953-1.2158203.4179688-.9306641-.2285156-1.5009766-1.0263672-1.6337891-1.7099609-.1708984-.7788086,0-1.1015625.1142578-1.1586914.1328125-.0571289.2089844.3798828.4746094.6079102.1899414.1899414.4370117.4941406,1.0830078.3798828,2.1845703-.3417969,8.2446289-5.5473633,11.2460938-8.7768555.1333008-.1518555.2661133-.246582.3613281-.1708984Z"/>
      <path class="cls-1" d="m38.2661133,16.6035156c-.1899414.0756836-.4936523.1513672-.5131836,0-.0375977-.1333008.1142578-.1713867.3803711-.3041992,3.4575195-1.690918,6.269043-4.1791992,8.3393555-6.6870117-.284668-.3037109-.5126953-.5322266-.6645508-.6650391-.3608398-.3608398-1.3867188-1.0830078-1.4628906-1.1396484-.0952148-.0761719-.1518555-.1523438-.1137695-.2280273.0185547-.0571289.1708984-.019043.284668.019043.8740234.265625,1.7856445.7216797,2.5834961,1.2158203,1.0068359-1.3105469,1.8046875-2.6025391,2.394043-3.7802734.1137695-.2285156.2089844-.4375.1137695-.5512695-.0947266-.1328125-.1708984-.1518555-.3798828-.1137695-.987793.2470703-2.2036133.3608398-3.0395508.3037109-.3041992-.0380859-.5317383-.1137695-.7026367-.2470703-1.3300781,1.8808594-3.7426758,4.5405273-5.1484375,5.3574219-.0952148.0571289-.2089844.0761719-.2851562-.0380859-.0566406-.1137695.1328125-.2851562.2280273-.3798828,1.6147461-1.3105469,4.2744141-5.1865234,4.5024414-6.7441406.0761719-.5507812-.0571289-.8740234-.3798828-.96875-.3232422-.0947266-.4750977.019043-.4941406-.0947266-.0566406-.2280273.6079102-.4179688.8740234-.3994141.5317383.0195312,1.2348633.5512695,1.6337891.9311523.3798828.3989258.019043.6645508-.1142578.949707-.0947266.2470703-.246582.5322266-.4746094.8740234.0566406.019043.0947266.019043.1328125.0380859.5888672.0185547,2.6025391-.1142578,3.2675781-.3613281.6650391-.2275391.6650391-.3603516,1.0639648-.3227539.3989258.0380859,1.1777344.7407227,1.3486328.949707.1899414.2285156.3041992.3422852.1137695.6083984-.2089844.265625-.6074219.0756836-.9306641.6455078-.8549805,1.5200195-1.7666016,2.8496094-2.7353516,4.0273438.4936523.3798828.8925781.7412109,1.1396484,1.0449219.6459961.8168945.5888672,1.7861328.0761719,1.9951172-.3994141.1708984-.7597656-.1904297-1.0068359-.5888672-.3613281-.5703125-.722168-1.0449219-1.0449219-1.4628906-2.6787109,2.9443359-5.7373047,4.84375-8.9858398,6.1171875ZM54.3945312,3.9697266c0,.3613281-.0947266.5512695-.3227539.6269531-.2470703.0952148-.684082-.0185547-.9116211-.4746094-.2470703-.4941406-.7978516-1.3105469-1.40625-1.7285156-.1894531-.1142578-.4555664-.2285156-.4179688-.3613281.0571289-.1708984.3803711-.0947266.684082-.0185547.3041992.0756836,2.3178711.7783203,2.3745117,1.9560547Zm.3422852-1.5380859c-.4179688-.5893555-.8549805-1.0263672-1.5581055-1.3681641-.1894531-.0761719-.4555664-.1708984-.4365234-.3037109.0380859-.1523438.3989258-.1142578.6455078-.0952148.5131836.0571289,2.2797852.3422852,2.4697266,1.4438477.0571289.3608398-.0185547.5507812-.2275391.6455078-.1904297.1142578-.6269531.0761719-.8930664-.3222656Z"/>
      <path class="cls-1" d="m69.7666016,4.6542969c.1328125-.4375-.1523438-.3803711-.2470703-.3803711-.2470703,0-5.1484375.8930664-7.3330078,1.6147461-.8549805.3041992-1.4438477.1142578-1.7861328-.1328125-.4555664-.3417969-.8925781-1.2348633-.7407227-1.4248047.0952148-.0947266.3422852-.0380859.6269531.0566406.722168.2285156,1.1586914.1713867,1.6147461.1333008.7792969-.0756836,5.6611328-.6459961,6.4404297-.8930664.5317383-.1708984,1.253418-.6650391,1.5957031-.6074219.3417969.0566406,1.6904297.9116211,1.7856445,1.2724609.1708984.684082-.5512695,1.0639648-1.0639648,2.0708008-2.7548828,5.3950195-6.3071289,7.6176758-11.0371094,9.7836914-.2470703.1137695-.4375.0947266-.4560547,0-.0380859-.1142578.1137695-.1904297.3798828-.3232422,4.0844727-1.9375,8.8525391-6.4589844,10.2207031-11.1699219Z"/>
      <path class="cls-1" d="m81.9272461,7.9975586c-.7788086,2.3935547-3.7426758,6.1362305-5.8701172,7.4658203-.2089844.1333008-.2661133.0952148-.3227539.019043-.0380859-.0761719.0566406-.1708984.1899414-.3037109,2.4125977-2.2226562,4.2172852-5.5854492,4.7871094-8.0551758.1333008-.5698242.2089844-1.0444336-.4370117-1.4248047-.2470703-.1518555-.4365234-.3227539-.3417969-.4555664.0761719-.1333008.7978516-.1142578,1.5009766.265625.3798828.2089844.949707.7216797,1.0253906,1.2158203.0380859.3037109-.284668.5126953-.5317383,1.2729492Zm11.1132812-1.0258789c-1.4624023,1.7099609-5.262207,5.0151367-7.5795898,6.1933594-.3989258.2089844-.684082-.0380859-.8740234-.2285156-.1899414-.1894531-.6835938-.6645508-.4179688-1.1015625.2470703-.4370117.0571289-1.7861328.1328125-3.2675781.0761719-1.8237305.2280273-2.90625-.0756836-3.2485352-.5317383-.5888672-1.0068359-.4555664-.8930664-.7407227.0571289-.1523438.4750977-.2470703.8930664-.2089844.5888672.0566406,1.5385742.4746094,1.7285156,1.1396484.1142578.4179688-.1899414.4179688-.284668.8740234-.1523438.8544922-.3232422,4.5019531-.3232422,4.7304688,0,.246582.1899414.3227539.4941406.2089844,2.640625-1.0263672,5.2241211-3.0966797,6.9907227-4.6357422.3041992-.265625.3608398-.2851562.4560547-.2089844s-.019043.2089844-.2470703.4941406Z"/>
      <path class="cls-1" d="m101.2695312,4.3691406c-.9121094,2.5078125-2.8496094,7.2758789-3.1157227,8.0546875-.1708984.4746094-.8549805.7216797-1.0449219.3608398-.0756836-.1137695-.2089844-.4174805-.1708984-.9306641.019043-.2280273.1328125-.3989258.5126953-1.0258789,0,0,2.0141602-3.4956055,2.8496094-6.1171875-.0375977.019043-.0756836.019043-.1137695.0380859-1.9755859.3417969-2.4316406-.987793-2.640625-1.2348633-.0761719-.1333008-.0952148-.284668-.0761719-.3227539.0380859-.0380859.1523438-.0571289.3613281.1328125.3417969.3417969,1.0634766.4179688,1.6904297.3798828.2470703-.019043.6650391-.1518555,1.1020508-.2851562,0-.0566406,0-.1137695.019043-.1518555.0947266-.96875.1137695-1.1967773-.1333008-1.5385742-.246582-.3417969-.8359375-.3417969-.6645508-.6459961.0756836-.1333008.4555664-.1899414.9116211-.019043.3989258.1523438,1.3486328.3613281.96875,1.9375.1899414-.0756836.3041992-.1137695.3041992-.1137695.0185547,0,.3037109-.1518555.3417969-.2661133.019043-.0185547.0947266-.1137695-.1328125-.284668-.019043-.019043-.3232422-.1899414-.3232422-.2470703,0-.2280273.6079102-.1708984.7792969-.1708984.3037109,0,.4365234,0,.6835938-.019043.2661133-.019043.4750977.0947266.5888672.3232422.0952148.2089844.019043.7402344-.3037109.9306641-1.0639648.5888672-1.8237305.96875-2.3935547,1.2158203Zm8.1875,2.5644531c-.4560547.0380859-.7597656-.2470703-1.0258789-.4179688-.2661133-.1899414-.949707-.4179688-1.4438477-.2470703-.2470703.0952148-1.1015625.5131836-1.4057617,1.6152344-.1708984.5888672.019043,2.0517578.019043,2.0517578.0571289.9306641.2280273,1.7285156.3417969,2.90625,1.4248047.3608398,2.659668,1.0068359,2.9448242,1.3105469.5126953.5322266.4936523.9121094.2470703,1.1401367-.3041992.284668-.6650391.0756836-1.3110352-.3422852-.6269531-.4179688-1.2158203-.7026367-1.7856445-.9116211,0,.1708984.019043.3422852.019043.5131836.019043,1.0634766-.8359375,2.1083984-2.5458984,2.1655273-1.918457.0571289-2.7353516-1.2158203-2.8115234-1.8237305-.0756836-.684082.2661133-1.652832,1.690918-2.1279297.7788086-.265625,1.690918-.265625,2.5834961-.1328125-.1328125-1.2348633-.1899414-3.0776367-.1708984-3.5332031.019043-.8740234.1708984-1.4248047.5698242-2.0712891.5512695-.9116211,1.8999023-1.3295898,2.3745117-1.5004883.9311523-.3422852-.4555664-1.3676758-.5698242-1.5385742-.1137695-.1708984.5698242-.0761719.9692383.0756836.6074219.2661133,1.2915039.684082,1.7666016,1.4438477.4179688.6650391.019043,1.3867188-.4560547,1.4248047Zm-4.5024414,6.8007812c-1.4248047-.3037109-2.4887695-.0566406-2.8115234.0571289-.5317383.1899414-.684082.5131836-.7216797.703125-.0952148.684082.5698242,1.1967773,1.4819336,1.2348633,1.5957031.0761719,1.8422852-.5888672,1.9941406-1.2919922.0195312-.1142578.0380859-.3798828.0571289-.703125Z"/>
      <path class="cls-1" d="m121.1430664,2.1464844c.1708984-.2089844.2851562-.4370117.4370117-.4370117.2280273,0,1.3300781.96875,1.3300781,1.253418-.1142578.1523438-.4179688.3041992-.7792969.3803711v1.8999023c.0380859,1.8803711.0571289,2.5073242.1328125,3.6660156-.1513672.2089844-.6835938.4941406-1.0634766.4941406h-.1708984v-.4750977h-1.0830078v6.4213867c0,.4560547.1518555.6074219,1.5195312.6074219h3.7617188c1.7099609,0,3.0205078-.0185547,3.5527344-.0756836.3798828-.0380859.4746094-.1137695.5698242-.3041992.1899414-.3608398.3989258-1.1962891.6459961-2.4316406h.2275391l.0571289,2.5458984c.4936523.1142578.6459961.2470703.6459961.5126953,0,.6459961-.7597656.7978516-5.7182617.7978516h-3.7426758c-2.1083984,0-2.6210938-.2470703-2.6210938-1.4628906v-6.6108398h-1.1591797c-.1137695,3.324707-.3608398,6.3833008-3.4003906,8.644043l-.2280273-.2470703c2.2036133-2.5263672,2.355957-5.5092773,2.4316406-8.3969727h-.3041992v.3608398c0,.1142578-.4365234.3994141-.8925781.3994141-.1899414,0-.3037109-.1904297-.3037109-.3798828.0566406-.722168.0756836-1.1020508.1137695-2.2041016v-1.3105469c0-1.2919922-.0761719-2.8496094-.2470703-3.8945312l1.4248047.6650391h1.2919922c.1518555-.7978516.284668-1.8427734.284668-2.5644531,1.9951172.3984375,1.9951172.5888672,1.652832.7597656l-.3417969.1708984c-.2661133.4746094-.6650391,1.1206055-.987793,1.6337891h2.6787109l.284668-.4179688Zm-3.0961914.96875h-1.8623047v2.3173828h1.8623047v-2.3173828Zm-1.8623047,2.8686523v2.3745117h1.8623047v-2.3745117h-1.8623047Zm4.8447266-2.8686523h-1.9189453v2.3173828h1.9189453v-2.3173828Zm-1.9189453,5.2431641h1.9189453v-2.3745117h-1.9189453v2.3745117Zm9.8408203-2.2792969c.1899414-.2666016.3417969-.5322266.4936523-.5322266.2280273,0,1.4438477,1.0449219,1.4438477,1.3300781-.0571289.2089844-.2089844.3037109-.4560547.3037109h-2.8681641c.6645508,1.5957031,1.7666016,3.1347656,3.5332031,4.1791992l-.0571289.2089844c-.2661133.1137695-.4936523.5317383-.6079102,1.1586914-1.8427734-1.6142578-2.6591797-3.5522461-3.2294922-5.546875h-.0947266v2.5263672c.0380859,2.2797852.0756836,3.0400391.1518555,4.4648438-.1518555.265625-.6459961.5507812-1.0639648.5507812-.2089844,0-.3608398-.1904297-.3608398-.3798828.0756836-1.1591797.1137695-1.7290039.1518555-3.4765625v-1.9379883c-.5888672,1.2348633-1.3676758,2.3364258-2.3554688,3.2866211,1.6337891,1.3867188.7597656,2.8496094-.0571289,2.0898438-.0380859-.2851562-.1137695-.5888672-.2280273-.9121094-.5698242.2661133-1.3486328.5703125-2.2792969.9306641-.0761719.2285156-.1904297.3422852-.3613281.3994141l-.6650391-1.2919922c.2470703-.019043.5893555-.0761719,1.0068359-.1328125.2285156-1.1396484.3041992-2.6220703.2089844-3.609375,1.9189453.3417969,1.9189453.5317383,1.5961914.7026367l-.3232422.1518555c-.2280273.7978516-.6079102,1.8046875-1.0068359,2.6977539.5131836-.0756836,1.0639648-.1708984,1.652832-.2661133-.2089844-.4746094-.4746094-.9306641-.7407227-1.2724609l.246582-.1142578c.2285156.1328125.4560547.2470703.6269531.3798828.9882812-1.3486328,1.671875-3.0395508,2.0898438-4.7871094h-.8740234c-.5317383.019043-1.0253906.1142578-1.5195312.265625l-.4750977-.9873047c.7788086.0947266,1.5581055.1328125,2.355957.1513672h1.1015625v-2.6591797h-.987793c-.6079102.0185547-1.1396484.1137695-1.7094727.265625l-.4941406-.96875c.7216797.0952148,1.4438477.1328125,2.1655273.1523438h1.0258789c0-1.0263672-.0566406-2.3178711-.1899414-3.1728516,1.9760742.5888672,1.9760742.7792969,1.6337891,1.0068359l-.3227539.2089844v1.9570312h1.1586914l.3608398-.5131836c.2089844-.2661133.3613281-.5317383.5131836-.5317383.2280273,0,1.4057617,1.0068359,1.4057617,1.2919922-.0571289.2089844-.2280273.3037109-.4750977.3037109h-2.9633789v2.6591797h1.4814453l.3613281-.53125Z"/>
      <path class="cls-1" d="m137.4267578,5.546875c-.9882812.019043-1.8999023.1142578-2.8496094.265625l-.5131836-.96875c.8359375.0952148,1.671875.1333008,2.5268555.1523438h3.609375c.019043-.3232422.0380859-.6650391.0380859-.9882812.0380859-1.2539062-.0380859-2.887207-.2089844-3.9321289,2.2226562.2280273,2.2226562.4179688,1.8994141.6459961l-.3227539.2089844c-.019043,1.3867188-.0380859,2.7543945-.1137695,4.0654297h5.2241211l.3227539-.4179688c.1708984-.2089844.3037109-.4179688.4560547-.4179688.2280273,0,1.3867188.987793,1.3867188,1.2724609-.1518555.1333008-.3798828.2470703-.7597656.3041992-.1708984,5.5473633-.6079102,9.7646484-1.4819336,10.809082-.5317383.5893555-1.3110352.8740234-2.2607422.8740234,0-.3984375-.0947266-.7597656-.3798828-.96875-.3417969-.2280273-1.2915039-.4746094-2.1655273-.6269531l.019043-.3417969c.987793.1142578,2.6025391.265625,3.0776367.265625.3984375,0,.5317383-.0566406.7407227-.265625.7026367-.6459961,1.0639648-4.7685547,1.1967773-9.9355469h-5.4140625c-.3613281,4.8061523-1.7099609,9.0048828-7.921875,12.0058594l-.2280273-.3417969c5.28125-3.0771484,6.5541992-7.0478516,6.8579102-11.6640625h-2.7353516Z"/>
      <path class="cls-1" d="m162.4868164,9.6313477c-.1142578,1.1777344-.703125,4.1982422-1.8808594,5.3759766-.4370117.4370117-1.1401367.9692383-1.4819336.7788086-.3798828-.2089844-.4560547-.4746094-.6650391-.9306641-.1708984-.3798828-.3417969-.6269531-.9116211-1.4438477-.0952148-.1518555-.2470703-.3227539-.1899414-.3798828.0947266-.0756836.3608398.1333008.7788086.4370117.4560547.3037109.8740234.6650391,1.1586914.6455078.4560547,0,1.0830078-.284668,1.7480469-2.4882812.6455078-2.2036133.8740234-4.3505859-.1142578-4.9960938-.5507812-.3613281-1.8237305.0756836-2.6972656.4746094-.4370117,1.9375-1.2729492,4.5976562-2.8496094,7.1811523-.4560547.7407227-1.0449219,1.1586914-1.4628906.7216797-.2851562-.3037109-.1142578-.8930664.6079102-1.8618164,1.6337891-2.203125,2.3178711-4.1982422,2.659668-5.565918-.8549805.3798828-1.8999023.7788086-2.2416992.8549805-.2661133.0761719-1.1586914.0566406-1.8427734-1.0639648-.1518555-.2470703-.284668-.5888672-.0761719-.6459961.1333008-.0566406.2851562.0571289.5322266.1899414.5317383.2851562.8735352.2470703,1.1015625.2280273.5322266-.019043,1.7480469-.2470703,2.7548828-.6459961.0375977-.1518555.0571289-.284668.0756836-.3989258.2280273-1.0253906.3232422-2.3935547-.2089844-3.0966797-.1518555-.1894531-.6079102-.5693359-.5317383-.7783203.1137695-.3803711,1.5957031-.0576172,1.8808594.2089844.5317383.5507812.1899414,1.3671875.0756836,2.0136719-.0380859.284668-.1137695.8735352-.284668,1.6904297.96875-.3037109,2.3554688-.5698242,3.1152344-.019043.987793.722168,1.0639648,2.0708008.9501953,3.5146484Zm6.496582-1.1206055c.0761719,1.3867188-.96875,1.7470703-1.1396484,1.7666016-.1518555.0185547-.2470703-.0761719-.6455078-.3232422-.3613281-.2851562-1.7290039-.4365234-1.8051758-.4365234-.0756836,0-.246582-.0195312-.2661133-.0761719,0-.0761719.1904297-.0952148.1904297-.0952148,0,0,1.1586914-.0952148,1.3867188-.1518555.2470703-.0571289.5317383-.1708984.7407227-.3232422.2089844-.1708984.1518555-1.0253906-.5698242-1.8046875-.6650391-.7216797-1.8994141-1.234375-2.1279297-1.2915039-.0566406-.019043-.1894531-.0380859-.1708984-.1137695.019043-.0576172.1904297-.0380859.2280273-.0380859,2.6787109.0566406,4.1225586,1.6523438,4.1791992,2.8876953Zm-3.7421875-5.4716797c0-.1708984.3989258-.1708984.6650391-.1899414.265625,0,2.1083984.0571289,2.4316406,1.1782227.1137695.3603516.0566406.5507812-.1523438.7026367-.2089844.1333008-.6645508.1333008-.9873047-.2470703-.3613281-.4179688-.6083984-.8168945-1.4819336-1.1967773-.1899414-.0761719-.4750977-.1142578-.4750977-.2470703Zm4.4833984-.0566406c-.2089844.1328125-.5888672.1328125-.9306641-.2089844-.3798828-.3994141-.7978516-.8549805-1.5200195-1.0830078-.1899414-.0571289-.4936523-.0947266-.4936523-.2280273.0185547-.1518555.3984375-.1899414.6645508-.2089844.1899414,0,2.1469727.019043,2.4697266,1.1967773.0756836.3037109-.0571289.4370117-.1899414.5322266Z"/>
      <path class="cls-1" d="m177.7631836,4.9389648c.1708984-.2089844.284668-.4179688.4370117-.4179688.2280273,0,1.2348633.949707,1.2348633,1.2348633-.0952148.1142578-.3227539.2089844-.6459961.265625-.1708984,2.3178711-.3989258,3.5908203-.96875,4.0849609-.3232422.265625-.7597656.3984375-1.2539062.3984375,0-.265625-.0947266-.5693359-.3037109-.7407227-.1904297-.1708984-.722168-.3227539-1.2158203-.3989258v-.3037109c.4936523.0380859,1.4052734.1137695,1.6713867.1137695.1899414,0,.3041992-.0380859.3608398-.1333008.2470703-.265625.4370117-1.3105469.5322266-3.1533203h-3.2109375c-.1328125,1.9375-.7407227,4.293457-3.1152344,5.965332l-.1899414-.2470703c1.8999023-2.1088867,2.1845703-4.6352539,2.1845703-6.8959961v-1.3105469c0-.4375-.019043-.9882812-.0756836-1.40625l1.4814453.703125h5.1865234c-.1523438-.8168945-.3041992-1.652832-.4179688-2.5078125,1.8808594.0571289,1.8808594.2470703,1.5957031.4560547l-.2661133.2089844c.0761719.6079102.1899414,1.2348633.3227539,1.8427734h4.2363281l.3803711-.5507812c.2089844-.2661133.3608398-.5507812.5126953-.5507812.2280273,0,1.4438477,1.0825195,1.4438477,1.3671875-.0380859.2089844-.2089844.3041992-.4746094.3041992h-5.984375c.3417969,1.3676758.8359375,2.6787109,1.5576172,3.7993164.7978516-.949707,1.5390625-2.3554688,1.7861328-3.3623047,1.8613281.8549805,1.8613281,1.0449219,1.5385742,1.1015625l-.3227539.0380859c-.5512695,1.0830078-1.387207,2.1279297-2.375,3.0776367.684082.8359375,1.5576172,1.5200195,2.659668,1.9379883.3422852.1518555.5131836.1518555.6269531-.1328125.1708984-.4179688.4370117-1.1782227.6079102-1.8623047l.2280273.0195312-.1137695,2.3173828c.5317383.4370117.5888672.6459961.4936523.8925781-.284668.6083984-1.2919922.3232422-2.2416992-.1137695-1.2919922-.5507812-2.2988281-1.3486328-3.1347656-2.3178711-1.1777344.9501953-2.5834961,1.7290039-4.1030273,2.2421875l-.1518555-.2851562c1.3676758-.6835938,2.640625-1.6147461,3.7041016-2.6977539-.9116211-1.3110352-1.5385742-2.9067383-1.956543-4.6542969h-5.5854492v1.4438477c0,.2089844,0,.4179688-.0185547.6269531h3.0585938l.284668-.3989258Zm6.4399414,6.1362305c.1708984-.2470703.2851562-.4941406.4370117-.4941406.2280273,0,1.5200195,1.0449219,1.5200195,1.3300781-.1523438.1708984-.3994141.284668-.8549805.3227539v4.2744141h.4179688l.3608398-.5512695c.1899414-.265625.3417969-.5507812.4941406-.5507812.2275391,0,1.3867188,1.0639648,1.3867188,1.3486328-.0571289.2089844-.2089844.3041992-.4560547.3041992h-13.0703125c-.987793.019043-1.8994141.1137695-2.8496094.2661133l-.4936523-.96875c.6079102.0947266,1.2158203.1328125,1.8237305.1518555h.8359375v-1.7856445c0-1.2919922-.0761719-2.8496094-.2470703-3.8945312l1.5957031.7216797h8.8149414l.284668-.4746094Zm-9.3085938,1.0253906v4.4077148h2.2988281v-4.4077148h-2.2988281Zm5.7563477,0h-2.3178711v4.4077148h2.3178711v-4.4077148Zm3.4956055,0h-2.355957v4.4077148h2.355957v-4.4077148Zm-2.0898438-11.815918c3.590332.246582,3.0585938,2.640625,1.8427734,2.0893555-.3041992-.6835938-1.2539062-1.5004883-1.9951172-1.8994141l.1523438-.1899414Z"/>
      <path class="cls-1" d="m197.5039062,1.8613281c.1904297,1.2539062-.5507812,3.2109375-.8740234,4.1035156-.0375977.1328125-.0756836.2470703-.1137695.3798828.5317383-.9306641,1.4438477-1.8618164,2.5834961-1.8046875,1.4248047.0761719,3.3818359,1.8427734,2.5839844,6.4399414s-4.8066406,5.6420898-5.3193359,5.7944336c-.1142578.0185547-.2089844,0-.2470703-.0952148-.0185547-.0756836,0-.1333008.0952148-.1708984,2.8115234-1.1782227,3.9135742-3.4008789,4.3120117-5.9462891.4375-2.7734375-.5693359-5.3569336-1.7851562-5.3569336-1.2353516-.0195312-1.9760742,1.2539062-2.2231445,2.4501953-.3227539,1.690918.0380859,2.0136719.2851562,2.5649414.1518555.3417969.5317383.949707.284668,1.253418-.1708984.1904297-.4365234.2285156-.7216797.0761719-.6269531-.3037109-.9501953-1.0634766-1.0830078-1.8808594-.3608398-2.0893555,1.3110352-5.7368164,1.4628906-7.0664062.0571289-.5703125.0761719-.8740234-.2280273-1.1972656-.1899414-.2275391-.5126953-.3798828-.4370117-.4936523.0952148-.1137695.4941406-.0761719.8549805.1328125.3422852.2089844.5131836.4936523.5698242.8168945Z"/>
      <path class="cls-1" d="m216.4091797,3.8369141c.0947266.1523438.1328125.4370117-.2661133.7978516-.6645508.6083984-1.3110352,1.0830078-2.0136719,1.40625-.6645508,3.1914062-1.6713867,7.6933594-1.8618164,8.3964844-.3037109,1.0258789-.5507812,1.5009766-1.0830078,1.3300781-.5317383-.1708984-.7402344-.722168-.4746094-1.2919922.0761719-.1523438.8168945-1.7285156,1.1967773-3.0776367.4936523-1.7290039.9116211-3.2866211,1.2539062-5.0151367-.3608398.0761719-.722168.1328125-1.1020508.1518555-.4365234.0380859-1.1586914-.2661133-1.7094727-.722168-.1713867-.1328125-.1518555-.246582-.1518555-.246582.0756836-.1333008.2275391-.0380859.3798828,0,.1708984.019043,1.1962891.284668,2.640625-.3803711.0566406-.0375977.1137695-.0566406.1708984-.0947266.0761719-.4746094.1518555-.96875.2275391-1.5009766.0195312-.1513672.0761719-.96875-.1137695-1.3486328-.1899414-.3989258-.7597656-.6650391-.8168945-.7216797-.0566406-.0761719-.0761719-.1142578-.0566406-.2089844.0566406-.1523438.9306641-.019043,1.3295898.1899414.4179688.2280273.96875.4555664.8168945,1.3676758v.0571289c.1899414.246582.4560547.5888672.7597656.684082.1708984.0380859.2661133.0185547.4179688.0185547.1708984.0195312.3613281.0761719.4560547.2089844Zm-1.7099609-.5317383c-.0566406.284668-.1328125.684082-.2275391,1.1586914.1708984-.1328125.3417969-.265625.4936523-.4365234.1137695-.0952148-.0756836-.4560547-.2661133-.722168Zm8.9858398,11.550293c.0571289.4746094-.3989258.7597656-.8359375.8549805-.6079102.1518555-1.2158203.2280273-1.7856445.2280273-.9306641,0-2.7167969-.1328125-3.5712891-1.1020508-.4375-.4936523-.5131836-1.253418-.3994141-1.7856445.0952148-.4560547.3422852-.9501953.5322266-.9501953h.019043c.0952148.0195312.0952148.1523438.0756836.3798828-.0185547.1523438-.0185547.3041992,0,.4560547.0761719.5703125.2661133,1.2539062,1.0639648,1.4628906.5888672.1523438,1.1401367.2280273,1.7094727.2280273.4755859,0,1.4824219-.1137695,1.9951172-.2089844.7407227-.1518555,1.1586914,0,1.1967773.4370117Zm-4.8061523-10.1064453c0-.0380859.0185547-.0761719.1137695-.0761719.0571289,0,.1518555.019043.3041992.0571289.3227539.0571289.8359375.1333008.9873047.1518555.1904297,0,.3994141-.0185547.6464844-.0566406.265625-.0380859.5693359-.0952148.9116211-.0952148.2280273,0,.4560547.019043.684082.0571289.3608398.0761719.6835938.3227539.8164062.6650391.1142578.246582.0761719.4936523-.0566406.7026367-.1328125.1899414-.4179688.2089844-.6650391.2280273-.0566406.0185547-.1137695.0185547-.1708984.0185547-.0761719.0195312-.1518555.0195312-.2089844.0380859-.1142578,0-.2089844.0195312-.3989258.0571289-.1899414.0571289-.3989258.1333008-.6079102.2089844-.1142578.0380859-.2089844.0761719-.3037109.1137695-.0380859.0195312-.0761719.0380859-.1333008.0576172-.1137695.0566406-.246582.1137695-.3417969.1137695h-.0571289c-.0380859-.019043-.0566406-.0571289-.0566406-.0761719-.0195312-.0571289,0-.1137695.0185547-.1708984.1142578-.2089844.3232422-.3608398.5131836-.4936523l.1137695-.1142578c.0571289-.0380859.0952148-.0761719.1142578-.1142578.0185547-.0566406,0-.0947266-.019043-.1328125-.0571289-.1137695-.2280273-.1518555-.3608398-.1708984l-.0195312-.019043q-.1708984-.019043-.4365234-.0952148l-.1328125-.0375977c-.6269531-.2089844-1.2919922-.5888672-1.2539062-.8168945Zm6.2685547-1.2919922c.2851562.3798828.2851562.8549805-.0756836,1.1777344,0,0-.4555664.2285156-.8168945-.2275391-.3608398-.4375-.7978516-1.1020508-1.7666016-1.690918-.1523438-.0952148-.3037109-.1518555-.2851562-.2661133.019043-.1137695.2851562-.0761719.4370117-.0761719.1518555.0195312,1.7670898.1904297,2.5073242,1.0830078Zm1.5771484-.6079102s-.4179688.2661133-.7788086-.1137695c-.3803711-.3613281-.8549805-.9306641-1.8051758-1.3300781-.1513672-.0756836-.284668-.1137695-.284668-.2275391,0-.1142578.2470703-.0952148.3798828-.1142578.1333008,0,1.5766602-.019043,2.3364258.703125.3041992.3037109.4941406.7788086.1523438,1.0825195Z"/>
      <path class="cls-1" d="m236.9287109,15.2734375c-1.3105469-3.3242188-2.0136719-3.7998047-2.5454102-4.5024414-.5698242-.7978516-.8930664-1.2158203-.949707-1.8046875-.0571289-.5888672.284668-1.1777344.7788086-1.9755859,1.3110352-2.1088867,2.659668-3.9135742,2.7924805-4.2368164.3232422-.7402344.1899414-1.1396484,0-1.3105469-.1708984-.1518555-.6459961-.3798828-.4941406-.5698242.1523438-.1518555,1.0830078.0952148,1.7290039.5512695.6079102.4365234.4370117,1.0825195.2661133,1.3867188-.3232422.6455078-1.0068359,1.2158203-2.0517578,2.4882812-.8930664,1.0639648-1.7861328,2.2607422-2.2226562,2.8876953-.3232422.4746094-.2661133.8740234.0566406,1.2158203.7978516.8740234,3.9892578,4.0463867,4.2744141,6.4780273.0952148.7597656-.1137695,1.0449219-.4941406,1.0825195-.6074219.0576172-.8735352-1.0068359-1.1396484-1.6904297Z"/>
      <path class="cls-1" d="m260.7539062,10.9042969c-.0566406.7026367-.949707,1.4628906-1.2539062,1.4814453-.3037109.0380859-.4746094-.0761719-.6645508-.2470703-.7597656-.6835938-2.6025391-1.7094727-4.6352539-1.4248047-2.0327148.2851562-2.3173828,1.5581055-2.2036133,2.355957.3227539,2.1464844,3.7045898,1.5766602,4.4072266,1.5004883.722168-.0756836,1.0639648.2470703,1.1586914.5322266.1142578.4560547-.1328125.7597656-.8925781.8544922-4.9204102.6269531-5.5854492-1.7094727-5.6611328-2.6972656-.1328125-1.8046875,1.3867188-2.8686523,3.0205078-3.1157227,1.7285156-.284668,3.9702148.4750977,4.2929688.5698242.3232422.0952148.5322266.1523438.7792969-.0380859.2275391-.1708984.3037109-.6074219.1137695-1.1015625-.6459961-1.652832-2.0327148-3.0205078-3.3051758-4.0083008-.8740234.4179688-1.8242188.722168-2.8115234.8354492-1.8242188.1904297-2.9829102-.7216797-3.5717773-1.4052734-.1137695-.1328125-.2470703-.2851562-.1708984-.3994141.0756836-.1137695.3041992.0761719.4936523.1713867.3417969.1899414,1.7290039.8930664,2.6220703.7978516.5693359-.0571289,1.5761719-.3608398,2.4501953-.7026367-.8925781-.5893555-1.5766602-.9501953-1.671875-1.0068359-.6645508-.3994141-1.0253906-1.0073242-.8544922-1.4628906.1899414-.4560547.7597656-.8930664,1.2724609-.5512695.9882812.684082,2.4316406,1.1020508,3.5717773.9116211.4936523-.0756836,1.0258789-.0566406,1.2729492.1713867.2275391.2280273.0947266.7026367-.4370117,1.1777344-.4560547.3989258-.949707.7788086-1.5009766,1.1020508,1.4057617,1.0449219,2.659668,2.2412109,3.4008789,3.4384766.4746094.7597656.8354492,1.5576172.7783203,2.2607422Zm-5.0908203-6.3642578c.3798828-.1899414.6835938-.3798828.8164062-.5507812.1142578-.1523438.1904297-.3232422-.0566406-.4370117-.4750977-.2280273-1.6147461-.703125-1.8046875-.7407227-.1708984-.0380859-.6650391-.2851562-.7792969-.0195312-.2089844.4560547.3232422.7978516.5893555.9501953.4174805.2470703.8168945.5126953,1.2348633.7978516Z"/>
      <path class="cls-1" d="m282.7939453,10.7138672c-1.3491211,4.3696289-3.7426758,5.4140625-5.1484375,5.1865234-1.4057617-.2089844-1.6904297-1.2348633-1.8046875-1.8808594-.0947266-.6650391.1328125-2.5834961.2089844-3.4384766.0566406-.5126953.1328125-1.5766602-.4560547-2.1845703-.8168945-.8168945-2.8496094-.0380859-4.3310547,1.5009766-1.6533203,1.7094727-1.8046875,3.7612305-2.0517578,4.7109375-.0761719.3037109-.0952148,1.3681641-.4179688,1.4628906-.722168.1708984-1.4438477-.703125-.9882812-2.2607422.2470703-.7978516.6464844-1.5957031.7792969-1.9189453.8740234-2.0893555,5.2241211-8.206543,5.4902344-8.6816406.265625-.4936523.284668-.9306641.0380859-1.3867188-.0952148-.1518555-.4941406-.2851562-.4375-.4746094.0380859-.1328125.4375-.1708984.8554688.0380859.8164062.3984375,1.3295898,1.2724609.9873047,2.1083984-.3417969.7978516-.8544922,1.1210938-1.3105469,1.5771484-.9121094.9306641-2.4316406,2.5449219-3.0585938,4.0839844,0,0,2.7734375-2.5263672,4.8632812-1.3486328,1.1396484.6269531,1.3486328,1.3676758,1.2539062,2.9443359-.0761719,1.1396484-.7978516,3.5712891.4560547,3.9707031,1.1962891.3798828,3.0390625-.3232422,4.7490234-4.1225586.1328125-.2661133.2470703-.5698242.3613281-.5317383.1137695.0380859.0185547.4560547-.0380859.6455078Z"/>
      <path class="cls-1" d="m290.2050781,14.7226562c0,1.3867188-1.1015625,2.4882812-2.4692383,2.4882812s-2.4887695-1.1015625-2.4887695-2.4882812c0-1.3681641,1.1210938-2.4697266,2.4887695-2.4697266s2.4692383,1.1015625,2.4692383,2.4697266Zm-.4555664,0c0-1.1020508-.9116211-1.9951172-2.0136719-1.9951172s-2.0136719.8930664-2.0136719,1.9951172c0,1.1206055.9116211,2.0136719,2.0136719,2.0136719s2.0136719-.8930664,2.0136719-2.0136719Z"/>
      <path class="cls-1" d="m7.3139648,36.3828125c.2089844-.2661133.3608398-.5507812.5131836-.5507812.2280273,0,1.4248047,1.0634766,1.4248047,1.3486328-.019043.1899414-.2089844.2851562-.4560547.2851562H3.34375c-.987793.0185547-1.8999023.1137695-2.8496094.265625l-.4941406-.949707c.8359375.0952148,1.671875.1328125,2.5268555.1518555h2.5268555c.3984375-1.1777344.7026367-2.7167969.7216797-3.7617188,2.0136719.6083984,2.0136719.7978516,1.671875.9311523l-.3422852.1333008c-.3989258.7783203-1.0068359,1.8427734-1.652832,2.6972656h1.5009766l.3608398-.5507812Zm-.1899414,2.9633789c.1899414-.246582.3417969-.5131836.4941406-.5131836.2280273,0,1.3486328,1.0073242,1.3486328,1.2919922-.0566406.2089844-.2089844.3041992-.4746094.3041992h-3.4384766v.8735352l.0185547-.0185547c4.0087891,1.0634766,3.2109375,3.7612305,1.9755859,2.9443359-.246582-.9121094-1.1586914-1.9946289-1.9941406-2.659668v1.8618164c.0375977,1.8427734.0566406,2.4697266.1328125,3.5908203-.1328125.246582-.6269531.53125-1.0449219.53125-.2470703,0-.3989258-.1894531-.3989258-.3798828.0756836-1.0634766.1137695-1.5957031.1518555-3.1914062v-1.8046875c-.8925781,1.5195312-2.0898438,2.8686523-3.5522461,3.9326172l-.2089844-.2851562c1.4438477-1.4814453,2.5834961-3.4003906,3.2670898-5.3950195h-.96875c-.6074219.019043-1.1777344.1137695-1.7475586.2661133l-.4936523-.9882812c.8354492.0952148,1.6713867.1333008,2.5073242.1523438h1.1967773c0-.722168-.0380859-1.5957031-.1328125-2.2226562,1.8618164.5888672,1.8618164.7788086,1.5766602.96875l-.284668.1899414v1.0639648h1.7094727l.3608398-.5131836Zm-.2470703-7.199707c.1904297-.2661133.3422852-.5507812.4941406-.5507812.2280273,0,1.4248047,1.0253906,1.4248047,1.3105469-.0571289.2089844-.2280273.3037109-.4750977.3037109H3.6855469c-.987793.0195312-1.8994141.1142578-2.8496094.2661133l-.4746094-.949707c.7978516.0947266,1.5957031.1328125,2.3935547.1518555h1.1396484c0-.8359375-.0380859-1.8803711-.1518555-2.6025391,1.9379883.5698242,1.9379883.7597656,1.6337891.96875l-.3041992.1899414v1.4438477h1.4438477l.3608398-.5317383Zm-4.9008789,1.1967773c2.8305664,1.918457,1.6147461,4.1606445.6645508,3.1533203-.0185547-.96875-.4746094-2.2416992-.8735352-3.0395508l.2089844-.1137695Zm12.7470703,3.4003906l.3989258-.5698242c.2280273-.2851562.3989258-.5888672.5507812-.5888672.2280273,0,1.5009766,1.1396484,1.5009766,1.4248047-.0380859.2089844-.2089844.3037109-.4560547.3037109h-1.9946289v5.262207c.0375977,2.2797852.0756836,3.0395508.1518555,4.4643555-.1518555.1904297-.5507812.5126953-1.1210938.5126953-.2089844,0-.4179688-.1894531-.4179688-.3798828.1142578-1.6337891.1713867-2.4692383.2089844-4.9389648v-4.9204102h-2.7163086v.5703125c0,3.4189453-.4179688,7.1806641-4.1225586,9.6503906l-.2470703-.2470703c2.7739258-2.5644531,3.2294922-5.8320312,3.2294922-9.4033203v-3.1157227c0-1.0639648-.0566406-2.3364258-.1894531-3.2104492l1.5385742.5888672c.284668-.0952148.5698242-.2089844.8735352-.3232422,1.1591797-.4560547,2.5078125-1.1967773,3.2675781-1.9375,1.5009766,1.4057617,1.5009766,1.5957031,1.0449219,1.5576172l-.4365234-.0380859c-1.2353516.4560547-3.2109375.96875-4.9584961,1.2353516v4.1030273h3.8945312Z"/>
      <path class="cls-1" d="m33.6279297,35.3378906c.1708984-.2280273.2851562-.4560547.4370117-.4560547.2280273,0,1.4628906,1.0258789,1.4628906,1.3110352-.1333008.1328125-.4370117.3037109-.8168945.3798828v9.1186523c0,1.0068359-.2089844,1.6147461-1.8999023,1.8046875-.0375977-.3798828-.1328125-.7216797-.3989258-.8925781-.265625-.2089844-.7216797-.3803711-1.5385742-.4755859v-.3037109s1.8427734.1523438,2.2416992.1523438c.3227539,0,.4179688-.1142578.4179688-.3994141v-9.2514648h-4.0463867v1.8046875c0,.3989258.019043.4179688.3608398.4179688h1.8237305c.1708984,0,.2661133,0,.3417969-.1328125.0952148-.1518555.2280273-.5698242.3422852-1.1206055h.265625l.0380859,1.0825195c.3417969.1708984.3798828.2089844.3798828.3989258,0,.4179688-.3227539.6835938-1.3676758.6835938h-1.8808594c-1.1206055,0-1.3295898-.2275391-1.3295898-1.3671875v-1.7670898h-1.9755859c-.5131836,2.2797852-1.8618164,3.5146484-4.2558594,4.2553711l-.1328125-.2851562c1.9570312-.9306641,2.8496094-2.1464844,3.1728516-3.9702148h-3.6098633v6.2124023c.0380859,2.2792969.0761719,3.0390625.1518555,4.4638672-.1518555.2470703-.6269531.5703125-1.1206055.5703125-.1899414,0-.3989258-.1904297-.3989258-.3798828.1142578-1.6337891.1708984-2.4697266.2089844-4.9394531v-3.3056641c0-1.2919922-.0761719-2.8496094-.2470703-3.8945312l1.5390625.722168h3.2480469c-.0947266-.0380859-.2089844-.0952148-.3037109-.1713867-.0947266-.7978516-.6079102-1.7666016-1.0449219-2.3554688l.1523438-.0947266h-1.5009766c-.9501953.0185547-1.8618164.1137695-2.7734375.265625l-.4941406-.96875c.8359375.0952148,1.671875.1328125,2.5263672.1523438h5.3193359c0-.8173828-.0380859-1.8242188-.1518555-2.5078125,2.0136719.5888672,2.0136719.7788086,1.690918.987793l-.3232422.2089844v1.3110352h5.1293945l.4179688-.6083984c.2280273-.3037109.4179688-.6074219.5698242-.6074219.2280273,0,1.652832,1.1777344,1.652832,1.4624023-.0380859.2089844-.2280273.3041992-.4750977.3041992h-5.1289062c1.6904297.3227539,1.6904297.5126953,1.3486328.6650391l-.3232422.1513672c-.3608398.5322266-.9116211,1.2353516-1.4624023,1.8051758h3.4760742l.2851562-.4370117Zm-8.1494141.4370117h3.7802734c.3227539-.7788086.6650391-1.8237305.8544922-2.621582h-6.1738281c2.3173828.8544922,2.1845703,2.3554688,1.5390625,2.621582Zm-.0195312,9.7265625c0,.1137695-.4555664.3798828-.9306641.3798828-.1708984,0-.265625-.1899414-.265625-.3798828.0566406-.5317383.0566406-.7978516.0947266-1.5961914v-.9873047c0-1.0068359-.0571289-2.2226562-.1899414-3.0400391l1.3676758.6464844h3.9326172l.2470703-.3041992c.1518555-.1518555.246582-.3227539.3984375-.3227539.2285156,0,1.2158203.7216797,1.2158203,1.0068359-.0756836.1328125-.3417969.265625-.6074219.3037109v1.3867188c.0380859,1.3867188.0566406,1.8618164.1137695,2.6787109-.1328125.1899414-.722168.4370117-1.0639648.4370117-.1518555,0-.2275391-.1899414-.2275391-.3803711.0375977-.1137695.0375977-.1708984.0756836-.3417969v-.3608398h-4.1606445v.8740234Zm0-1.4438477h4.1606445v-2.9638672h-4.1606445v2.9638672Z"/>
      <path class="cls-1" d="m40.355957,46.1855469c.0375977.4179688.019043.5693359.0571289.7407227-.0571289.2089844-.5512695.5126953-1.0263672.5126953-.2089844,0-.3417969-.1899414-.3417969-.3798828.0761719-.8930664.0952148-1.3486328.1328125-2.6977539v-1.5385742c0-1.2915039-.0756836-2.8496094-.246582-3.8945312l1.5004883.684082h3.6289062l.265625-.3613281c.1523438-.1894531.2661133-.3798828.4179688-.3798828.2280273,0,1.4057617.8740234,1.4057617,1.1591797-.1137695.1518555-.3798828.3037109-.7597656.3798828v2.0898438c.0380859,2.0898438.0571289,2.7924805.1328125,4.0839844-.1518555.1904297-.7407227.5131836-1.1396484.5131836-.1518555,0-.2280273-.1899414-.2280273-.3798828.0380859-.1713867.0380859-.2470703.0761719-.5131836v-.4560547h-3.8754883v.4375Zm0-.9882812h3.8754883v-5.0151367h-3.8754883v5.0151367Zm9.6884766-14.3808594c.1708984-.2089844.284668-.4365234.4370117-.4365234.2280273,0,1.3867188,1.0068359,1.3867188,1.2915039-.0947266.1518555-.3989258.3041992-.7597656.3798828v1.918457c.0380859,1.9003906.0566406,2.5458984.1328125,3.7050781-.1518555.2275391-.7597656.5126953-1.1396484.5126953-.1708984,0-.2470703-.1899414-.2470703-.3798828.0380859-.1708984.0380859-.2661133.0761719-.5322266v-.4560547h-6.6303711v.3613281c.0380859.3608398.019043.4746094.0571289.6079102-.0571289.2089844-.5507812.4936523-1.0639648.4936523-.1708984,0-.284668-.1894531-.284668-.3798828.0566406-.7216797.0756836-1.0830078.1137695-2.1655273v-1.2729492c0-1.2919922-.0756836-2.8496094-.2470703-3.8945312l1.5200195.684082h6.3447266l.3041992-.4370117Zm-.1137695,1.0068359h-6.6303711v4.4453125h6.6303711v-4.4453125Zm-1.0830078,14.3808594c.0380859.4370117.0380859.5888672.0761719.7792969-.0761719.2275391-.5512695.5126953-1.0449219.5126953-.1904297,0-.3232422-.1899414-.3232422-.3798828.0761719-.9121094.0952148-1.3681641.1328125-2.7353516v-1.5581055c0-1.2915039-.0756836-2.8496094-.246582-3.8945312l1.5004883.684082h3.7426758l.284668-.3613281c.1523438-.1894531.2661133-.3798828.4179688-.3798828.2280273,0,1.4248047.8740234,1.4248047,1.1591797-.1137695.1518555-.4179688.3037109-.7788086.3798828v2.1464844c.0380859,2.1279297.0571289,2.8496094.1333008,4.1606445-.1523438.2280273-.7597656.5131836-1.1210938.5131836-.1899414,0-.265625-.1904297-.265625-.3803711.0375977-.1899414.0375977-.3041992.0756836-.6079102v-.4941406h-4.0083008v.4560547Zm0-1.0068359h4.0083008v-5.0151367h-4.0083008v5.0151367Z"/>
      <path class="cls-1" d="m72.1982422,39.0996094c-.9882812,1.2158203-3.9707031,2.640625-6.9912109-1.1020508-.2661133-.3608398-.3037109-.4179688-.2470703-.5131836.0761719-.0947266.2470703.1328125.4941406.3232422.265625.1899414,2.7163086,1.8427734,4.3691406,1.3295898,1.652832-.5317383,1.7480469-1.4819336,1.8237305-1.8803711.0761719-.3994141-.0571289-2.1088867-2.0893555-2.4316406-2.0517578-.3232422-4.1987305.4746094-5.6235352,1.5004883-.4555664.3227539-.987793.7407227-1.5004883,1.1782227.0566406.0756836.1137695.1513672.1518555.2275391.8168945,1.2539062,1.5004883,2.6977539,2.1845703,4.0087891.7788086,1.4624023,1.2158203,2.3554688,1.5957031,3.894043.1333008.5131836-.1328125,1.1782227-.8168945,1.0830078-.5698242-.0761719-.7026367-.8359375-.7978516-1.2919922-.2089844-1.0258789-.4370117-2.0327148-.7978516-3.0205078-.5698242-1.5200195-1.3295898-2.9824219-2.1655273-4.3881836-.8168945.6835938-1.5200195,1.2919922-1.7099609,1.4248047-.3227539.2470703-.9116211.2275391-1.3676758-.0380859-.3232422-.1899414-.5698242-.4941406-.7788086-.7597656-.1333008-.1708984-.2470703-.4370117-.1137695-.5888672.0756836-.0952148.246582.0566406.4746094.1894531.1899414.1333008.4370117.2285156.8740234.0952148.5317383-.1708984.8544922-.5317383,1.6147461-1.0258789.0947266-.0566406.2280273-.1518555.3989258-.265625-.2661133-.4375-.5507812-.8549805-.8359375-1.2919922-.7978516-1.1967773-.8359375-2.0898438-.1899414-2.7548828.6645508-.6645508,1.6337891-.6269531,2.925293-.4365234.6650391.1137695,2.0898438.4179688,2.2797852.1518555.2089844-.2661133-.3989258-.7978516-.5126953-.9116211-.1333008-.1333008-.3608398-.2285156-.3232422-.3613281.0380859-.1518555.4370117-.0185547.684082.1142578.2280273.1137695,1.0639648.5507812,1.3295898.949707.2470703.3989258.6079102,1.0068359.0571289,1.4057617-.5317383.4179688-1.3486328.0761719-1.7475586-.1708984-.4179688-.2470703-3.2104492-1.4057617-3.9707031-.0761719-.4555664.8168945.2470703,2.0136719.9311523,2.9824219,1.8613281-1.1962891,5.6611328-3.3242188,8.3774414-2.4121094,3.0776367,1.0068359,3.0014648,3.6660156,2.0141602,4.8632812Z"/>
      <path class="cls-1" d="m89.5449219,37.5224609l.3041992-.3798828c.1708984-.1899414.2851562-.3989258.4370117-.3989258.2280273,0,1.4248047.9311523,1.4248047,1.2158203-.1142578.1518555-.3989258.3041992-.7788086.3989258v4.0654297c.0375977,2.2797852.0756836,3.0395508.1518555,4.4643555-.1708984.2470703-.7597656.5698242-1.1967773.5698242-.1333008,0-.2089844-.1899414-.2089844-.3798828.0380859-.1328125.0380859-.2089844.0756836-.4179688v-.4179688h-9.0424805c-.987793.019043-1.8999023.1142578-2.8496094.2661133l-.5126953-.987793c.8354492.0947266,1.6713867.1328125,2.5263672.1518555h9.878418v-3.5717773h-8.3774414c-.987793.0195312-1.8999023.1142578-2.8496094.2666016l-.5131836-.9692383c.8359375.0952148,1.671875.1333008,2.5268555.1518555h9.2133789v-3.4570312h-8.6816406c-.987793.0185547-1.8994141.1137695-2.8496094.265625l-.4936523-.987793c.8359375.0952148,1.6713867.1333008,2.5268555.1518555h3.6850586v-3.5332031c0-1.2919922-.0756836-2.8496094-.246582-3.8945312,2.1083984.5888672,2.1083984.7788086,1.7851562,1.0068359l-.3227539.2089844v6.2119141h4.3881836Zm-11.3979492-6.1738281c4.4833984,2.4501953,3.4575195,5.6992188,2.1274414,4.578125-.1899414-1.4628906-1.3676758-3.2861328-2.3364258-4.4453125l.2089844-.1328125Zm12.9750977.96875l-.3417969.0761719c-1.0068359,1.5004883-2.3178711,3.0390625-3.4199219,4.0458984l-.284668-.1894531c.2661133-.3994141.5507812-.8740234.8354492-1.40625.6083984-1.1015625,1.3110352-2.7734375,1.5581055-3.7993164l1.1020508.6459961c.9116211.3417969.9116211.5322266.5507812.6269531Z"/>
      <path class="cls-1" d="m109.3999023,34.4257812c.1713867.684082-.5507812,1.0639648-1.0639648,2.0708008-2.7543945,5.3950195-6.3066406,7.6176758-11.0561523,9.7836914-.2280273.1142578-.4179688.0947266-.4370117,0-.0380859-.1142578.1142578-.1899414.3613281-.3232422,4.1030273-1.9375,8.8525391-6.4589844,10.2392578-11.1699219.1142578-.4370117-.1518555-.3798828-.2470703-.3798828-.2470703,0-5.1669922.8925781-7.3330078,1.6142578-.8544922.3041992-1.4433594.1142578-1.7856445-.1328125-.4750977-.3417969-.8930664-1.234375-.7407227-1.4248047.0761719-.0947266.3227539-.0380859.6079102.0571289.7216797.2280273,1.1586914.1708984,1.6147461.1333008.7978516-.0761719,5.6801758-.6464844,6.4589844-.8930664.5322266-.1713867,1.2539062-.6650391,1.5957031-.6079102.3417969.0566406,1.690918.9116211,1.7856445,1.2724609Zm1.8427734-1.1777344c.019043.3613281-.0756836.5507812-.3037109.6459961-.2280273.0756836-.6650391,0-.9121094-.4555664-.2661133-.4755859-.8549805-1.2919922-1.4819336-1.671875-.1894531-.1142578-.4555664-.2285156-.4179688-.3613281.0380859-.1518555.3803711-.1137695.684082-.0380859.3041992.0761719,2.3369141.703125,2.4316406,1.8808594Zm1.7475586-1.5576172c.0380859.3232422-.0566406.5126953-.246582.5888672-.2089844.0947266-.6079102.0380859-.8549805-.3608398-.2470703-.4370117-.7978516-1.1586914-1.3867188-1.4819336-.1708984-.0947266-.4179688-.1899414-.3989258-.3227539.0380859-.1333008.3417969-.0952148.6269531-.0571289.284668.0571289,2.1464844.5698242,2.2602539,1.6337891Z"/>
      <path class="cls-1" d="m116.1469727,46.4702148c-.0952148.019043-.1899414.019043-.1899414-.0380859-.0380859-.0756836.0761719-.1328125.1518555-.1518555,4.4833984-1.9755859,7.7509766-4.6352539,10.0112305-9.3657227.0952148-.2089844.1142578-.3608398.0761719-.4179688-.0566406-.0756836-.2280273-.0952148-.4936523-.0571289-.6269531.1142578-4.4833984.7978516-5.5854492,1.0830078-.9116211.2280273-.6269531.4560547-1.1586914.5507812-.6269531.0952148-1.4628906-.4560547-1.8808594-.949707-.1899414-.2089844-.246582-.7026367-.1328125-.8735352.0952148-.1333008.3798828.0756836.5317383.1328125.2661133.1137695,1.2348633.3227539,2.4125977.2089844.6650391-.0761719,5.1484375-.7597656,5.6992188-.8740234.5317383-.1142578.6459961-.4370117.9692383-.5126953.3227539-.0761719,1.0253906.4746094,1.3676758.7788086.6264648.5698242.4370117.7788086.3798828.8930664-.1708984.284668-.8359375.6645508-1.1967773,1.2724609-2.1845703,3.6855469-4.9204102,6.5917969-10.9614258,8.3208008Zm10.3344727-13.8491211c.0947266.5131836-.1899414.4179688-2.1660156.3994141-.949707-.0195312-3.2480469.3037109-3.894043.5507812-.6459961.2275391-1.0639648.3037109-1.5766602-.1328125-.3041992-.2666016-.4941406-.4941406-.5703125-.6845703-.0566406-.1328125-.0756836-.2084961,0-.284668.0761719-.0571289.3232422.0571289.6269531.1518555.3232422.0952148.8740234.1708984,1.7861328.0195312.8925781-.1333008,2.3554688-.4179688,2.8115234-.5322266.4365234-.1142578.4746094-.3798828,1.0825195-.4560547s1.8237305.5126953,1.8999023.96875Z"/>
      <path class="cls-1" d="m135.7739258,33.4189453c.6835938-.0947266,2.640625-.0380859,3.7045898.7978516.7597656.5888672.8735352,1.3491211.5693359,1.7861328-.3227539.4365234-1.0634766.2851562-1.5576172-.5131836-.5507812-.8930664-1.956543-1.5766602-2.640625-1.7666016-.2089844-.0571289-.3417969-.1333008-.3417969-.2089844.019043-.0571289.1328125-.0756836.2661133-.0952148Zm13.3930664.8930664c.0756836.0952148-.0761719.3227539-.1708984.4370117-2.8120117,3.9326172-7.5039062,7.9599609-9.1567383,9.1186523-.5893555.3989258-.6459961.3608398-1.1020508.8549805-.3798828.4179688-.7597656.5126953-1.2158203.4179688-.9306641-.2285156-1.5009766-1.0263672-1.6337891-1.7099609-.1708984-.7788086,0-1.1015625.1142578-1.1586914.1328125-.0571289.2089844.3798828.4746094.6079102.1899414.1899414.4370117.4941406,1.0830078.3798828,2.1845703-.3417969,8.2446289-5.5473633,11.2460938-8.7768555.1333008-.1518555.2661133-.246582.3613281-.1708984Z"/>
      <path class="cls-1" d="m157.5473633,31.5004883c.0380859-.1518555.1708984-.1899414.5131836-.2661133.7978516-.1518555,1.253418.0380859,1.5576172.3613281.3227539.3037109.2089844.6269531.1708984.8925781-.0380859.2851562-.1518555.8359375-.1518555,1.5009766,0,.2089844-.019043,1.234375-.0380859,2.5454102,1.3676758.3227539,3.4384766.949707,4.5209961,2.355957.5512695.7026367.2851562,1.4248047-.1328125,1.5576172-.4365234.1328125-.987793-.3417969-1.4814453-1.0258789-.7602539-1.0258789-1.7480469-1.8427734-2.9067383-2.4506836-.0380859,2.8496094-.0571289,6.7626953.0571289,7.4277344.2470703,1.2919922.4179688,1.7480469-.2851562,2.2226562-.5317383.3798828-1.0449219-.949707-1.1967773-1.6523438-.1518555-.722168.0380859-.4750977.1708984-1.8046875.1137695-1.3491211.2851562-8.7011719.0952148-10.296875-.0761719-.7216797-.5703125-.949707-.7792969-1.1210938-.0375977-.0375977-.1328125-.1328125-.1137695-.246582Zm5.1674805,1.0825195c.0375977-.1708984.3798828-.1137695.6835938-.0375977.3041992.0571289,2.3369141.7026367,2.4316406,1.8618164.019043.3798828-.0761719.5698242-.3037109.6455078-.2280273.0952148-.6650391.0195312-.9121094-.4365234-.265625-.4750977-.8359375-1.2919922-1.4814453-1.690918-.1713867-.0952148-.4560547-.2089844-.4179688-.3422852Zm1.918457-1.4814453c.019043-.1523438.3422852-.1142578.6459961-.0571289.2851562.0571289,2.2416992.5888672,2.3745117,1.7094727.0380859.3422852-.0571289.5322266-.2661133.6269531-.2275391.0952148-.6455078.0195312-.8925781-.3984375-.2661133-.4560547-.8359375-1.1972656-1.4628906-1.5390625-.1708984-.1137695-.4370117-.2089844-.3989258-.3417969Z"/>
      <path class="cls-1" d="m185.7988281,37.6552734c-.5698242.7792969-1.5576172,1.2919922-2.4316406,1.6533203-.7216797.3227539-2.0517578.7978516-3.3051758,1.3486328-.1142578,1.0449219-.0380859,2.4501953-.0571289,2.7543945-.0380859.3989258-.3989258.7026367-.703125.684082-.3037109-.019043-.5507812-.3041992-.5698242-.684082,0-.2089844.1142578-1.2158203.1899414-2.1845703-.3608398.1708984-.7026367.3798828-.987793.5698242-.949707.6650391-1.4438477,1.690918-1.3486328,2.3935547.0952148.7597656,1.0825195,1.0830078,1.7094727,1.1591797,1.5009766.1328125,2.0332031.0380859,3.2109375-.2470703,1.0253906-.2470703,1.4433594-.1523438,1.5957031.265625.2089844.5888672-1.0258789.96875-1.6147461,1.0449219-.722168.1142578-1.7480469.1708984-2.9829102.0380859-2.1655273-.2470703-2.5454102-1.2539062-2.621582-2.1083984-.0571289-.5703125.1518555-1.8046875,1.5961914-2.8691406.3798828-.265625.8925781-.5507812,1.4814453-.8354492.019043-.4370117.019043-.8168945-.019043-1.0830078-.1328125-1.0258789-.4370117-1.4248047-1.1015625-1.4819336-.8168945-.0756836-1.8999023,1.1777344-2.5078125,2.0136719-.1518555.2089844-.284668.3994141-.4370117.5888672-.1899414.2470703-.6079102.8740234-.8168945,1.0263672-.2089844.1518555-.6459961-.0761719-.7788086-.3613281-.1328125-.3037109-.0571289-.8544922.1518555-1.1015625.2851562-.3232422,1.4628906-1.1972656,2.1655273-2.3935547.5322266-.9121094,1.1591797-2.2226562,1.5581055-3.5336914-.6459961.1708984-1.3491211.2661133-1.9946289.1708984-.6459961-.0952148-1.2539062-.5698242-1.5771484-.8354492-.0566406-.0576172-.0947266-.1333008-.0566406-.1713867.0566406-.0952148.2470703-.019043.3417969.019043.1142578.0380859.7788086.2661133,1.5576172.2280273.4370117-.0380859,1.2158203-.1333008,2.0136719-.4179688.0380859-.2280273.0761719-.4370117.1142578-.6645508.0571289-.4755859,0-1.0644531-.5698242-1.5200195-.0952148-.0761719-.1142578-.0761719-.0761719-.2470703s.1899414-.1708984.2851562-.1708984c.1137695,0,1.0639648.1328125,1.2348633.3608398.0947266.1708984.1137695.4560547.0756836.7788086.2089844.2089844.6650391.2851562,1.1020508.2280273.1708984-.0761719.8168945-.1899414.8925781.1328125.1142578.3798828-.4179688.8740234-1.0068359,1.1972656-.265625.1328125-.8544922.4365234-1.5766602.6835938-.3417969,1.1015625-.7788086,2.3935547-1.3295898,3.628418.6079102-.3227539,1.2724609-.3227539,1.8237305-.1708984,1.0825195.284668,1.3867188,1.8427734,1.3867188,1.8427734.284668-.6645508.6269531-1.4819336,1.7094727-2.6025391.7602539-.7978516,2.1279297-1.652832,3.2675781-1.5009766,1.2348633.1713867,1.7099609,1.4248047,1.0068359,2.3745117Zm-7.5419922-4.7109375c.2089844-.0952148.3994141-.2280273.5893555-.3613281-.019043-.0756836-.0571289-.1513672-.1899414-.2275391-.0761719-.0571289-.1523438-.0761719-.2280273-.0952148-.0380859.2089844-.0952148.4370117-.1713867.684082Zm6.6113281,3.0395508c-.6269531-.4941406-2.0136719.1137695-3.0014648,1.1020508-.7978516.7978516-1.2158203,1.4433594-1.671875,2.90625,0,.019043-.019043.0380859-.019043.0380859.8930664-.4179688,1.8618164-.8740234,2.7353516-1.4057617,1.6152344-.949707,2.4316406-2.2416992,1.9570312-2.640625Z"/>
      <path class="cls-1" d="m203.6782227,33.9130859c.1708984-.2089844.284668-.4179688.4370117-.4179688.2275391,0,1.3867188.96875,1.3867188,1.2539062-.1328125.1518555-.3989258.3037109-.7597656.3798828v1.0258789c.0380859,1.0068359.0380859,1.3491211.0947266,1.918457-.1137695.2089844-.703125.5131836-1.0634766.5131836h-.1904297v-.7026367h-3.609375c.3613281,1.2915039.8930664,2.4121094,1.5576172,3.4003906l.2285156-.1708984c1.0253906-.722168,2.1845703-1.8242188,2.7543945-2.7167969,1.5385742,1.2348633,1.5385742,1.4248047,1.1777344,1.4057617l-.3422852-.019043c-.8544922.5888672-2.2792969,1.3105469-3.5898438,1.8427734,1.2915039,1.7285156,3.0585938,3.0014648,5.2236328,3.7617188l-.0566406.1894531c-.4941406.0571289-.8925781.3798828-1.0830078.96875-3.34375-1.6337891-5.3759766-4.3876953-6.269043-8.6621094h-.5507812c-.4370117.3603516-.9116211.6835938-1.4438477,1.0068359,2.9824219,2.4882812,3.0014648,6.7246094,1.7666016,8.0546875-.3417969.4179688-.949707.6074219-1.918457.6074219-.019043-.3798828-.1333008-.6074219-.3608398-.7597656-.2089844-.1328125-.7978516-.3037109-1.40625-.4179688l-.0185547-.3037109c.6835938.0380859,1.9755859.1142578,2.3554688.1142578.2280273,0,.3608398-.0195312.4746094-.1523438.4375-.4941406.6464844-1.671875.4560547-3.0395508-2.2036133,1.671875-5.4711914,3.1723633-8.5488281,3.9135742l-.1328125-.3232422c3.0776367-.96875,6.4780273-2.8115234,8.4160156-4.8818359-.0952148-.3041992-.2089844-.6083984-.3232422-.9121094-1.9755859,1.3300781-4.9199219,2.5839844-7.5605469,3.2485352l-.1333008-.3422852c2.5458984-.8354492,5.4331055-2.3554688,7.1430664-3.9130859-.1708984-.2470703-.3417969-.4746094-.5322266-.703125-1.8232422,1.0449219-4.0839844,1.8427734-6.4018555,2.355957l-.1518555-.3227539c2.4697266-.7792969,4.8632812-1.9379883,6.5537109-3.2294922h-3.4570312v.4365234c0,.0952148-.3798828.4179688-.9501953.4179688-.1899414,0-.3037109-.1899414-.3037109-.3798828.0566406-.7216797.0761719-1.0830078.1137695-2.1655273v-1.2919922c-.7026367.4936523-1.4248047.949707-2.1845703,1.3110352l-.1899414-.2470703c1.2158203-.7792969,2.4125977-1.8618164,3.4003906-2.9824219.8359375-.9311523,1.5957031-2.1279297,1.9375-3.1157227,2.0517578.4936523,2.0517578.684082,1.6533203.7978516l-.3798828.1137695c-.2851562.3613281-.5888672.7412109-.9121094,1.1210938h3.7236328l.7216797-.7216797c1.2348633,1.1396484,1.2348633,1.3295898.8740234,1.3676758l-.3417969.0375977c-.5893555.4941406-1.4443359,1.2539062-2.2802734,1.7480469h4.7119141l.284668-.4179688Zm-9.6508789.4179688h4.1606445c.4936523-.5126953,1.0449219-1.2539062,1.4248047-1.8618164h-4.1606445c-.5507812.5698242-1.1586914,1.1401367-1.8232422,1.690918l.3984375.1708984Zm-.2275391,3.0205078h4.2172852v-2.4506836h-4.2172852v2.4506836Zm5.3950195,0h4.3881836v-2.4506836h-4.3881836v2.4506836Z"/>
      <path class="cls-1" d="m209.1523438,40.6572266l-.2280273-.2280273c.7407227-.8740234,1.4438477-1.9760742,2.0708008-3.0966797.5888672-1.1020508,1.1206055-2.4692383,1.3295898-3.5141602l1.5581055.8735352c0-1.0639648-.0576172-2.3745117-.2089844-3.2485352,1.8613281.5703125,1.8613281.7597656,1.5385742.96875l-.3041992.1904297v2.9633789h1.3300781v-1.5009766c0-1.2915039-.0761719-2.8491211-.2470703-3.894043,1.8237305.5693359,1.8237305.7597656,1.5390625.949707l-.2851562.1899414v4.2553711h1.4433594v-.2661133c0-1.2919922-.0756836-2.8496094-.246582-3.8945312,1.8999023.5703125,1.8999023.7597656,1.5766602.96875l-.3037109.1904297v1.0253906c.0380859,1.387207.0566406,1.8623047.1137695,2.6787109-.1137695.2280273-.5698242.4750977-.949707.4750977h-.1904297v-.6459961h-3.7802734v.703125c0,.1328125-.4365234.3608398-.8164062.3608398-.2089844,0-.3041992-.1899414-.3041992-.3798828.0571289-.3227539.0571289-.4750977.0952148-.9692383v-.6835938c-.0952148,0-.1904297,0-.3232422-.0380859-.4370117.7792969-1.0449219,1.7099609-1.7285156,2.621582.96875.6650391.96875.8549805.7026367.987793l-.2661133.1328125v3.7807617c.0380859,2.2797852.0761719,3.0395508.1523438,4.4643555-.1708984.1899414-.6464844.4746094-1.0830078.4746094-.2280273,0-.4370117-.1894531-.4370117-.3798828.1137695-1.6337891.1708984-2.4692383.2089844-4.9389648v-3.609375c-.6079102.7407227-1.2539062,1.4243164-1.956543,2.0327148Zm4.3310547-9.4228516l-.3227539.0380859c-.8359375,1.1777344-2.2607422,2.7734375-3.7612305,3.8374023l-.2089844-.2280273c.3798828-.4179688.7597656-.9306641,1.1206055-1.4433594.722168-1.0263672,1.4057617-2.4511719,1.690918-3.4580078l1.0068359.6650391c.8164062.3613281.8164062.5507812.4746094.5888672Zm10.8857422,2.4887695c.1894531-.2470703.3227539-.5131836.4746094-.5131836.2280273,0,1.3867188.9882812,1.3867188,1.2729492-.0380859.2089844-.2275391.3041992-.4560547.3041992h-.9116211c-.2280273,3.1152344-.684082,5.6611328-1.8237305,7.7695312.7597656,1.4628906,1.7666016,2.6977539,3.1157227,3.5908203l-.0571289.1708984c-.3989258.1708984-.6835938.6079102-.8168945,1.2724609-1.2539062-1.1206055-2.1655273-2.5073242-2.8305664-4.0654297-1.1210938,1.6152344-2.7353516,2.9448242-5.0913086,4.0273438l-.1518555-.265625c2.3173828-1.3867188,3.8374023-2.9824219,4.8061523-4.9013672-.5317383-1.5766602-.8354492-3.3056641-1.0639648-5.0908203-.3227539.6455078-.6455078,1.234375-1.0068359,1.7666016l-.284668-.1333008.1518555-.3608398h-2.659668v2.4887695h.8740234l.3041992-.4750977c.1708984-.2470703.3037109-.4941406.4555664-.4941406.2280273,0,1.2919922.9501953,1.2919922,1.2353516-.0571289.2089844-.2280273.3037109-.4560547.3037109h-2.4697266v2.621582c.949707-.2089844,1.9946289-.4370117,3.0209961-.6645508l.0756836.284668c-1.4819336.5507812-3.4575195,1.3295898-6.0981445,2.1845703-.0566406.2470703-.2280273.3989258-.3989258.4560547l-.5317383-1.4438477c.5888672-.0947266,1.5957031-.3037109,2.8115234-.5698242v-2.8686523h-.703125c-.4179688.019043-.8168945.1142578-1.2158203.265625l-.4746094-.9873047c.5317383.0947266,1.0634766.1328125,1.6337891.1518555h.7597656v-2.4887695h-.8168945c-.4941406.019043-.9121094.1142578-1.3676758.265625l-.4941406-.9873047c.8359375.0947266,1.671875.1328125,2.5263672.1518555h2.1845703l.7412109-.987793s.6835938.5507812,1.1967773,1.0634766c.4179688-1.1396484.7788086-2.4697266,1.0639648-3.875.2470703-1.2353516.4365234-2.9824219.3417969-4.046875,2.0517578.3994141,2.0517578.5888672,1.7285156.7792969l-.3227539.1708984c-.1899414,1.0634766-.4370117,2.1279297-.7407227,3.1347656h1.956543l.3422852-.5131836Zm-2.4697266,1.0639648c-.1904297.6455078-.4179688,1.2724609-.6650391,1.8613281.265625,1.690918.6650391,3.2871094,1.2539062,4.7114258.7407227-1.8803711,1.0634766-4.0463867,1.1967773-6.5727539h-1.7856445Z"/>
      <path class="cls-1" d="m243.9199219,34.9008789c-.0571289.5512695-.8168945.4179688-1.1015625.3798828-.2470703-.0375977-2.8876953-.4370117-5.2436523-.2084961-.0375977,1.1582031-.0756836,2.4882812-.0571289,3.4384766.3994141.7597656.5703125,1.9375.5507812,3.4189453-.0566406,3.7617188-3.5522461,4.9204102-3.9697266,5.0537109-.1333008.0566406-.2470703.0756836-.2851562,0-.0380859-.0952148,0-.1904297.1708984-.2661133,2.9443359-1.3110352,3.1152344-4.3696289,3.1152344-4.3696289-.1328125.2470703-.7216797.722168-1.1586914.703125-.8735352,0-1.3110352-.96875-1.4819336-1.3300781-.1708984-.3608398-.4936523-.7783203-.6269531-1.8046875-.0947266-.6269531.1333008-2.0703125,1.6337891-2.3745117.4941406-.1137695.9121094-.0571289,1.2539062.1137695.0571289-.4179688.0952148-1.1586914.0761719-2.4882812-2.2797852.3227539-2.9257812.6650391-4.293457,1.2539062-.3798828.1708984-1.5004883.7788086-2.5644531.1137695-.4560547-.2661133-.8359375-.684082-.949707-.8168945-.1523438-.1518555-.2089844-.3232422-.1333008-.3989258.1713867-.1708984.4750977.0756836.9692383.1333008.5126953.0375977,1.234375.0566406,1.9941406-.1142578.5322266-.1142578,3.0205078-.5888672,4.9584961-.8925781,0-.4560547-.0375977-.9692383-.0571289-1.5390625-.0380859-.6835938-.3608398-1.2539062-.6074219-1.4628906-.1904297-.1518555-.4375-.2089844-.4179688-.3608398.0185547-.1333008.0947266-.1899414.246582-.2470703.1713867-.0571289.6269531-.1137695,1.1206055.1137695.5512695.2470703.722168.4375.7983398.7602539.0571289.284668-.019043.4555664-.0761719.6645508.5888672.3613281,1.956543,1.1591797,2.8876953,1.40625,1.1967773.3417969,1.9379883.265625,2.3364258.3608398.4560547.0756836.9882812.2089844.9121094.7597656Zm-7.2949219,5.0722656c-.019043-1.3110352-.4370117-1.918457-.9306641-1.8999023-.2285156.0195312-1.5957031.4941406-1.2919922,1.7290039.2851562,1.2348633.9121094,1.8046875,1.5195312,1.8046875.3798828,0,.7412109-.3227539.703125-1.6337891Zm2.6025391-6.1928711c-.1518555-.0952148-1.0068359-.722168-1.5009766-1.0830078-.0380859.3037109-.0756836.9121094-.1137695,1.6337891.5698242-.0761719,1.0449219-.1328125,1.3110352-.1328125.2089844,0,.5888672-.0380859.6074219-.1142578.0195312-.0566406-.1328125-.1899414-.3037109-.3037109Z"/>
      <path class="cls-1" d="m255.4921875,43.1835938c.5693359.1708984,1.3295898.9306641,1.5004883,1.7285156v.0576172l.0756836-.0195312c2.7167969-.96875,3.2109375-5.2998047-.0756836-5.9838867-.3798828-.0952148-.7026367-.1137695-.987793-.1137695-1.1777344-.0195312-2.640625.4560547-4.3310547,3.3056641-.2089844.3417969-.4755859.8354492-.703125,1.0253906-.1142578.0952148-.2661133.0952148-.3417969.0952148-.2285156,0-.4375-.1137695-.4941406-.2089844-.3037109-.4370117-.0947266-.8930664.1899414-1.3676758.0756836-.1333008.96875-1.1972656,1.3295898-1.6533203.1142578-.1513672.1904297-.246582.2285156-.265625,1.253418-1.5766602,3.0009766-4.293457,3.9321289-5.7939453l.0375977-.0761719c.2089844-.3232422.5322266-.8359375.1713867-1.1396484-.019043,0-.0380859-.0195312-.0380859-.0195312-.0571289-.0566406-.1333008-.0947266-.2089844-.1132812-.2280273-.0576172-.4179688.1894531-.5317383.3603516-.1523438.2285156-1.0068359,1.40625-1.9375,1.8046875-.1713867.0761719-.3422852.0952148-.5131836.0952148-.3422852,0-.9692383-.1708984-1.2158203-1.2348633-.0761719-.3608398-.0380859-.4746094-.0380859-.4941406.1518555-.0756836.2661133.0952148.3422852.2089844.0566406.0952148.284668.2285156.53125.2285156.0761719,0,.1713867-.0195312.2470703-.0380859.3613281-.1142578,1.0639648-.4941406,1.9570312-1.2158203.4746094-.3798828,1.0449219-.5131836,1.7099609-.3994141.4179688.0761719,1.1962891.3422852,1.3867188.8554688.1518555.3984375.0566406.7407227-.3041992,1.1206055-.2280273.246582-3.8374023,4.5786133-4.1791992,5.2050781l-.0952148.1899414.1899414-.1328125c.3232422-.1899414,1.4248047-.9501953,3.0019531-.9121094.3417969,0,.7026367.0380859,1.0444336.1333008.4179688.0756836.8168945.2089844,1.1782227.3798828,2.6025391,1.2729492,2.4882812,5.0341797.0947266,6.4780273-1.3681641.8359375-3.3242188,1.2919922-4.7871094.4560547-1.5009766-.8549805-.7412109-2.6977539.8735352-2.659668.2280273,0,.4941406.0375977.7602539.1137695Zm.4179688,2.0898438c.0185547-.019043.0375977-.0380859.0185547-.0761719-.1894531-.7216797-.4936523-1.1777344-1.1396484-1.2919922-.0947266-.0185547-.1708984-.0185547-.265625-.0185547-.5512695.0185547-.6650391.4560547-.6650391.703125,0,.0756836.0380859.1513672.0947266.2275391.2851562.3037109,1.0830078.5322266,1.5957031.5322266.3037109.0185547.3417969-.0380859.3613281-.0761719Z"/>
      <path class="cls-1" d="m266.2851562,39.4794922l-.265625-.1904297c.8925781-1.3486328,1.8046875-3.1914062,2.5644531-5.2050781.4365234-1.1777344.9306641-3.0014648,1.0068359-4.0654297,2.0898438.703125,2.0898438.8930664,1.7285156,1.0258789l-.3417969.1137695c-.4750977,1.3300781-1.0258789,2.640625-1.652832,3.8378906.8549805.6269531.8549805.8164062.5698242.949707l-.265625.1137695v6.4785156c.0380859,2.2792969.0756836,3.0390625.1518555,4.4638672-.1713867.2089844-.6459961.5131836-1.0830078.5131836-.2280273,0-.4370117-.1899414-.4370117-.3798828.1142578-1.6337891.1708984-2.4697266.2089844-4.9394531v-5.6611328c-.6650391,1.1206055-1.4248047,2.1274414-2.1845703,2.9448242Zm6.5351562,6.7626953c.0380859.3417969.0185547.4560547.0566406.5888672-.0566406.2661133-.4560547.5888672-.96875.5888672-.2275391,0-.4365234-.1894531-.4365234-.3798828.1137695-1.6337891.1708984-2.4697266.2089844-4.9394531v-7.21875c0-1.2919922-.0761719-2.8496094-.2470703-3.8945312l1.4814453.703125h7.8457031l.2851562-.3989258c.1708984-.1899414.2851562-.3989258.4370117-.3989258.2280273,0,1.4248047.9306641,1.4248047,1.2158203-.1137695.1518555-.4179688.3037109-.7978516.3798828v9.7265625c.0375977,2.2797852.0756836,3.0395508.1518555,4.4643555-.1708984.2470703-.7216797.5698242-1.1396484.5698242-.1708984,0-.2470703-.1899414-.2470703-.3798828.0380859-.1708984.0380859-.265625.0761719-.5322266v-.4555664h-8.1308594v.3608398Zm0-.9121094h8.1308594v-13.0888672h-8.1308594v13.0888672Zm5.9462891-10.2578125c.1708984-.2470703.3037109-.4941406.4555664-.4941406.2280273,0,1.2539062.949707,1.2539062,1.234375-.0571289.1904297-.2089844.2851562-.4750977.2851562h-2.6787109v2.6025391h1.1401367l.5317383-.6074219c1.0449219.9306641,1.0449219,1.1206055.703125,1.253418l-.3232422.1137695v1.3681641c.0380859,1.3676758.0571289,1.8237305.1142578,2.640625-.1328125.1708984-.5322266.4746094-.9501953.4746094-.1708984,0-.2275391-.1894531-.2275391-.3798828.0380859-.0756836.0185547-.1328125.0566406-.265625v-.3417969h-3.0205078v.7978516c0,.0947266-.3989258.3417969-.8359375.3417969-.1708984,0-.265625-.1904297-.265625-.3798828.0566406-.5322266.0566406-.7978516.0947266-1.5957031v-.9882812c0-1.0068359-.0566406-2.2226562-.1899414-3.0390625l1.2919922.6074219h.8168945v-2.6025391h-.9121094c-.5317383.019043-1.0449219.1142578-1.5576172.2661133l-.4941406-.9692383c.6650391.0952148,1.3300781.1333008,2.0136719.1523438h.9501953c0-.9121094-.0571289-1.9946289-.1708984-2.7548828,1.8427734.5703125,1.8427734.7602539,1.5385742.9692383l-.3041992.1899414v1.5957031h1.1210938l.3232422-.4746094Zm-.3994141,7.3134766v-3.1347656h-3.0205078v3.1347656h3.0205078Z"/>
      <path class="cls-1" d="m286.8808594,34.0273438c.4750977,1.9941406.1142578,3.5522461-.3417969,4.2548828-.3037109.4750977-.9501953.6650391-1.2348633.3232422-.2089844-.3232422-.0756836-.7597656.2280273-1.1015625.5126953-.5893555,1.0449219-2.1279297,1.0253906-3.4765625h.3232422Zm1.0258789-.0952148c0-1.2539062-.0756836-2.8496094-.246582-3.8945312,2.0703125.6079102,2.0703125.7978516,1.7285156,1.0258789l-.3232422.2089844v11.2460938c.0380859,2.2802734.0761719,3.0400391.1523438,4.4648438-.1523438.284668-.6459961.5693359-1.0639648.5693359-.2470703,0-.4560547-.1894531-.4560547-.3798828.1137695-1.6337891.1708984-2.4692383.2089844-4.9389648v-8.3017578Zm1.7094727-.5317383c2.7929688,1.7666016,1.6533203,3.9702148.684082,3.0009766-.019043-.9116211-.4936523-2.1650391-.9306641-2.887207l.246582-.1137695Zm9.59375,6.1928711c.2089844-.284668.3798828-.5698242.5322266-.5698242.2275391,0,1.4628906,1.1206055,1.4628906,1.4057617-.0380859.1899414-.2089844.284668-.4750977.284668h-3.9326172v5.6044922h3.0209961l.3798828-.5703125c.2089844-.284668.3798828-.5693359.5317383-.5693359.2280273,0,1.5200195,1.1015625,1.5200195,1.3867188-.0380859.1894531-.2285156.284668-.4560547.284668h-8.1879883c-.987793.019043-1.8999023.1137695-2.8496094.2661133l-.4936523-.9501953c.8359375.0952148,1.6713867.1333008,2.5263672.1523438h2.8305664v-5.6044922h-1.2158203c-.7597656.0195312-1.5004883.1142578-2.2416992.2661133l-.4746094-.96875c.8359375.0952148,1.6713867.1328125,2.5263672.1518555h1.4057617v-4.597168h-2.7924805c-.5507812,1.4057617-1.2158203,2.640625-1.9951172,3.609375l-.284668-.1899414c.4936523-.987793.949707-2.2226562,1.3295898-3.5908203.3232422-1.2158203.6083984-3.0581055.5703125-4.1411133,2.0136719.5131836,2.0136719.7026367,1.6904297.8740234l-.3227539.1518555c-.2089844.9306641-.4750977,1.8427734-.7978516,2.7167969h2.6025391v-.9121094c0-1.2919922-.0756836-2.8496094-.2470703-3.8945312,1.9946289.5703125,1.9946289.7597656,1.7099609.96875l-.2851562.1904297v3.6474609h2.5078125l.3989258-.5507812c.2089844-.2851562.3798828-.5703125.5317383-.5703125.2280273,0,1.4819336,1.1020508,1.4819336,1.3867188-.0571289.2089844-.2089844.3041992-.4750977.3041992h-4.4453125v4.597168h2.0327148l.3798828-.5698242Z"/>
      <path class="cls-1" d="m314.4863281,39.6313477c-.1137695,1.1777344-.7026367,4.1982422-1.8803711,5.3759766-.4370117.4370117-1.1401367.9692383-1.4819336.7788086-.3798828-.2089844-.4560547-.4746094-.6650391-.9306641-.1708984-.3798828-.3417969-.6269531-.9116211-1.4438477-.0952148-.1518555-.2470703-.3227539-.1899414-.3798828.0947266-.0756836.3608398.1333008.7788086.4370117.4560547.3037109.8740234.6650391,1.1586914.6455078.4560547,0,1.0830078-.284668,1.7480469-2.4882812.6455078-2.2036133.8740234-4.3505859-.1142578-4.9960938-.5507812-.3613281-1.8232422.0756836-2.6972656.4746094-.4370117,1.9375-1.2729492,4.5976562-2.8496094,7.1811523-.4560547.7407227-1.0449219,1.1586914-1.4628906.7216797-.2851562-.3037109-.1142578-.8930664.6079102-1.8618164,1.6337891-2.203125,2.3178711-4.1982422,2.659668-5.565918-.8549805.3798828-1.8999023.7788086-2.2416992.8549805-.2661133.0761719-1.1586914.0566406-1.8427734-1.0639648-.1518555-.2470703-.284668-.5888672-.0756836-.6459961.1328125-.0566406.284668.0571289.53125.1899414.5322266.2851562.8740234.2470703,1.1025391.2280273.53125-.019043,1.7470703-.2470703,2.7539062-.6459961.0380859-.1518555.0576172-.284668.0761719-.3989258.2280273-1.0253906.3232422-2.3935547-.2089844-3.0966797-.1518555-.1894531-.6074219-.5693359-.5317383-.7783203.1137695-.3803711,1.5957031-.0576172,1.8803711.2089844.5322266.5507812.1904297,1.3671875.0761719,2.0136719-.0380859.284668-.1137695.8735352-.2851562,1.6904297.9692383-.3037109,2.355957-.5698242,3.1162109-.019043.9873047.722168,1.0634766,2.0708008.9492188,3.5146484Zm6.4970703-1.1206055c.0761719,1.3867188-.96875,1.7470703-1.1396484,1.7666016-.1518555.0185547-.2470703-.0761719-.6455078-.3232422-.3613281-.2851562-1.7290039-.4365234-1.8046875-.4365234-.0761719,0-.2470703-.0195312-.2666016-.0761719,0-.0761719.1904297-.0952148.1904297-.0952148,0,0,1.1586914-.0952148,1.3867188-.1518555.2470703-.0571289.5317383-.1708984.7407227-.3232422.2089844-.1708984.1518555-1.0253906-.5698242-1.8046875-.6650391-.7216797-1.8994141-1.234375-2.1279297-1.2915039-.0566406-.019043-.1894531-.0380859-.1708984-.1137695.019043-.0576172.1904297-.0380859.2280273-.0380859,2.6787109.0566406,4.1225586,1.6523438,4.1791992,2.8876953Zm-3.7421875-5.4716797c0-.1708984.3989258-.1708984.6650391-.1899414.265625,0,2.1083984.0571289,2.4316406,1.1782227.1137695.3603516.0566406.5507812-.1523438.7026367-.2089844.1333008-.6645508.1333008-.9873047-.2470703-.3613281-.4179688-.6083984-.8168945-1.4824219-1.1967773-.1894531-.0761719-.4746094-.1142578-.4746094-.2470703Zm4.4833984-.0566406c-.2089844.1328125-.5888672.1328125-.9306641-.2089844-.3798828-.3994141-.7978516-.8549805-1.5200195-1.0830078-.1899414-.0571289-.4936523-.0947266-.4936523-.2280273.0185547-.1518555.3984375-.1899414.6645508-.2089844.1899414,0,2.1469727.019043,2.4697266,1.1967773.0756836.3037109-.0571289.4370117-.1899414.5322266Z"/>
      <path class="cls-1" d="m325.4697266,34.3876953c-.6835938.0195312-1.3295898.1142578-1.9755859.2666016l-.4941406-.9692383c.8359375.0952148,1.671875.1333008,2.5268555.1518555h2.5834961l.3613281-.5126953c.1894531-.2661133.3417969-.5322266.4936523-.5322266.2280273,0,1.3867188,1.0263672,1.3867188,1.3110352-.0571289.1899414-.2280273.284668-.4750977.284668h-4.4072266Zm.3417969,2.4130859c-.5317383.0185547-1.0253906.1137695-1.5195312.265625l-.4746094-.96875c.8354492.0952148,1.6713867.1328125,2.5263672.1523438h1.3676758l.3041992-.4750977c.1708984-.2280273.3037109-.4750977.4560547-.4750977.2275391,0,1.2915039.9121094,1.2915039,1.1967773-.0571289.2089844-.2470703.3041992-.4750977.3041992h-3.4765625Zm2.1660156,1.3867188c.1708984-.2470703.3037109-.4941406.4560547-.4941406.2275391,0,1.2915039.9501953,1.2915039,1.2348633-.0375977.1899414-.2089844.2851562-.4370117.2851562h-2.1464844c-.987793.019043-1.8994141.1137695-2.8496094.2661133l-.4746094-.96875c.8354492.0947266,1.6713867.1328125,2.5263672.1513672h1.3105469l.3232422-.4746094Zm-2.8115234,8.0737305c.0380859.4370117.0380859.5698242.0761719.7602539-.0761719.2275391-.5512695.4936523-1.0263672.4936523-.1708984,0-.284668-.1899414-.284668-.3798828.0571289-.6459961.0756836-.9692383.1137695-1.9379883v-1.1777344c0-1.1777344-.0761719-2.621582-.2275391-3.590332l1.4248047.684082h2.7543945l.284668-.3613281c.1523438-.1899414.2661133-.3798828.4179688-.3798828.2280273,0,1.3867188.8549805,1.3867188,1.1396484-.1137695.1523438-.4179688.3041992-.7597656.3798828v1.5961914c.0380859,1.5957031.0571289,2.1274414.1142578,3.0776367-.1328125.2089844-.703125.5126953-1.0830078.5126953-.1899414,0-.265625-.1899414-.265625-.3798828.0375977-.1523438.0375977-.2280273.0756836-.4560547v-.4179688h-3.0014648v.4370117Zm2.8681641-15.3305664c.1904297-.2470703.3232422-.5131836.4750977-.5131836.2280273,0,1.387207.987793,1.387207,1.2729492-.0380859.2089844-.2285156.3037109-.4755859.3037109h-2.203125c-.9882812.0195312-1.8999023.1142578-2.8496094.2661133l-.4750977-.987793c.8359375.0947266,1.671875.1328125,2.5268555.1523438h1.2724609l.3417969-.4941406Zm-2.8681641,14.3427734h3.0014648v-3.609375h-3.0014648v3.609375Zm12.9370117-12.3291016c.2089844-.2661133.3608398-.5507812.5131836-.5507812.2275391,0,1.4433594,1.0634766,1.4433594,1.3486328-.0566406.2089844-.2089844.3037109-.4560547.3037109h-4.0654297v3.3056641h1.8808594l.3798828-.5507812c.2089844-.2851562.3798828-.5703125.5322266-.5703125.2275391,0,1.4814453,1.0830078,1.4814453,1.3681641-.0566406.2089844-.2275391.3037109-.4936523.3037109h-5.5473633c-.987793.019043-1.8994141.1142578-2.8496094.2661133l-.4936523-.96875c.8354492.0952148,1.6713867.1328125,2.5268555.1518555h1.4243164v-3.3056641h-1.2915039c-.8359375.019043-1.5957031.1142578-2.3935547.2661133l-.4750977-.987793c.8354492.0947266,1.6713867.1328125,2.5268555.1518555h1.6333008c0-1.0825195-.0571289-2.4506836-.2084961-3.3432617,2.0512695.5888672,2.0512695.7788086,1.7094727,1.0068359l-.3422852.2089844v2.1274414h2.1850586l.3798828-.5317383Zm-5.4711914,13.4306641c.0380859.3798828.019043.5131836.0566406.6650391-.0566406.2280273-.5126953.5126953-1.0068359.5126953-.1894531,0-.3227539-.1894531-.3227539-.3798828.0761719-.7597656.0952148-1.1396484.1333008-2.2983398v-1.3491211c0-1.2915039-.0761719-2.8496094-.2470703-3.894043l1.4628906.684082h4.578125l.3037109-.3798828c.1708984-.1904297.2851562-.3803711.4370117-.3803711.2280273,0,1.4057617.8740234,1.4057617,1.1586914-.1328125.1333008-.4179688.3041992-.7978516.3798828v1.9379883c.0380859,1.9379883.0571289,2.5834961.1328125,3.7807617-.1328125.2275391-.7026367.5126953-1.1015625.5126953-.1899414,0-.265625-.1899414-.265625-.3798828.0375977-.1708984.0375977-.2470703.0756836-.5131836v-.4555664h-4.8442383v.3984375Zm0-.949707h4.8442383v-4.578125h-4.8442383v4.578125Z"/>
      <path class="cls-1" d="m354.234375,46.4130859c-.265625.1142578-.5888672-.1518555-.8168945-.3608398s-.987793-1.0068359-2.0517578-1.6713867c-.1899414.9873047-.8930664,2.2602539-3.0205078,2.2412109-1.4819336,0-2.8496094-.6835938-2.8496094-1.8808594,0-1.1777344,1.4057617-1.9755859,3.0585938-1.956543.4560547,0,1.0825195.0571289,1.7856445.2089844-.1137695-1.0825195-.1899414-2.1655273-.2275391-3.2670898-.8740234.1708984-1.7670898.265625-2.4697266.1894531-1.5009766-.1708984-2.1088867-1.0449219-2.3178711-1.4628906-.0756836-.1708984-.0756836-.246582-.0380859-.284668.0761719-.0571289.1899414.0380859.3041992.1137695.1899414.1333008,1.3105469.8549805,2.7167969.7412109.4936523-.0380859,1.1396484-.0952148,1.7851562-.2089844,0-1.1020508.0195312-2.2041016.0952148-3.3056641-.4560547.0380859-.8930664,0-1.2539062-.1518555-.5317383-.2089844-1.1586914-.7602539-1.3867188-1.0639648-.0756836-.1142578-.1708984-.265625-.1137695-.3417969.0380859-.0380859.1518555-.0761719.3608398.0566406.284668.2089844.684082.5322266,1.3867188.5888672.2661133.0195312.6645508-.0375977,1.1206055-.1328125.1333008-.8359375.3041992-1.7285156-.0380859-2.5078125-.1513672-.3417969-.6455078-.7597656-.6074219-.9306641.0380859-.2089844.3227539-.3037109.6455078-.2470703.3422852.0761719,1.2729492.4750977,1.2729492,1.3110352,0,.5317383-.3417969,1.5004883-.4555664,2.0136719-.0195312.0571289-.0195312.1137695-.0380859.1708984.4936523-.1328125.9306641-.2661133,1.1015625-.3227539.4370117-.1328125.7412109,0,.7978516.2275391.0380859.2285156-.0566406.5703125-.5507812.7792969-.3232422.1328125-.8740234.3227539-1.5009766.4560547-.0761719.7407227-.0947266,1.6904297-.0761719,3.0014648v.2280273c.5703125-.1523438,1.1025391-.3417969,1.4628906-.5888672.684082-.4750977,0-.9311523-.284668-1.40625-.0380859-.0566406-.0571289-.1137695-.0756836-.1894531-.1333008-.3422852.1894531-.0952148.3417969.0566406.3037109.2661133.6269531.3989258,1.0253906.4941406.3613281.0947266.684082.0566406.8930664.265625.2089844.2285156.2470703,1.0263672-.6459961,1.4443359-.4560547.2084961-1.5009766.5693359-2.6591797.8354492.1137695,1.5961914.3798828,2.8686523.4746094,3.7236328,1.1210938.3608398,2.2607422.96875,2.9257812,1.9375.5126953.7407227.0380859,1.1586914-.0761719,1.1967773Zm-3.8564453-2.5644531c-.6079102-.265625-1.2724609-.4370117-1.9946289-.4560547-1.4438477-.0185547-2.2036133.5703125-2.2036133,1.3867188,0,.3798828.7788086.8930664,1.956543.8930664.7788086,0,2.1469727-.3422852,2.2416992-1.8237305Z"/>
      <path class="cls-1" d="m367.3452148,45.6914062c0-.1523438.2089844-.1899414.2661133-.1899414,2.9257812-.1713867,5.6420898-1.5200195,6.269043-3.7236328.5698242-1.956543-.3989258-3.2104492-1.6337891-3.6665039-2.0898438-.7407227-5.1103516,1.5390625-5.5092773,1.8046875-.3417969.2470703-.987793.8359375-1.652832.96875-.5888672.0952148-1.4057617-.5693359-1.6333008-.7978516-.2089844-.1708984-.2851562-.3603516-.2089844-.4746094.1137695-.1708984.3227539-.1142578.4746094-.0571289.1708984.0380859.5322266.1713867.9501953.0952148.9873047-.1904297,5.0527344-2.9824219,7.7124023-2.0708008,2.6787109.949707,2.8876953,2.8686523,2.6787109,4.1982422-.1137695.6650391-.7026367,3.7993164-7.4467773,4.0654297-.0571289,0-.2470703,0-.2661133-.1518555Z"/>
      <path class="cls-1" d="m388.2260742,33.9511719c.0756836.1518555.0756836.4365234-.3608398.7597656-.6650391.4941406-1.5200195,1.0068359-2.4316406,1.3867188-.703125,3.2675781-1.690918,7.8076172-1.8999023,8.4726562-.3227539,1.0263672-.5512695,1.2353516-1.0825195,1.0639648-.5322266-.1899414-.6464844-.7597656-.3422852-1.3295898.0571289-.1328125.6079102-1.40625.9311523-2.3178711.5317383-1.4248047,1.1015625-3.2866211,1.5195312-5.565918-.6459961.2089844-1.2919922.3227539-1.8618164.3037109-.4179688-.019043-1.1206055-.3989258-1.6147461-.9121094-.1518555-.1513672-.1142578-.265625-.1142578-.265625.0761719-.1142578.2285156,0,.3803711.0380859.1518555.0566406,1.1586914.4179688,2.6401367-.0952148.1904297-.0571289.3613281-.1328125.5512695-.2089844.0756836-.0375977.1518555-.0571289.2280273-.0952148.0761719-.5507812.1518555-1.1396484.2089844-1.7285156.019043-.1518555.0947266-.96875-.0947266-1.3676758-.1713867-.3798828-.7412109-.6459961-.7983398-.722168-.0571289-.0756836-.0756836-.1137695-.0375977-.2089844.0375977-.1513672.9116211,0,1.3105469.2285156.3989258.2089844.96875.4555664.8168945,1.2915039l.019043.019043c.019043.019043.3037109.4370117.7597656.6650391.2089844.1137695.4560547.2089844.703125.265625.1894531.0571289.4560547.1142578.5698242.3232422Zm-1.5581055,0c0-.2280273-.2470703-.4560547-.4365234-.684082l-.1523438-.1518555c-.0756836.3232422-.1894531.8740234-.3417969,1.5576172.1899414-.0947266.3613281-.1899414.5507812-.2851562.1523438-.0947266.3798828-.2089844.3798828-.4365234Zm8.2260742,10.8095703c.3041992.9873047-1.2915039,1.0449219-2.621582,1.0253906-1.6147461-.0380859-3.1157227-.6269531-3.6665039-1.7094727-.5512695-1.0830078-.1518555-2.1469727-.0952148-2.3364258.0952148-.2851562.2661133-.4941406.3798828-.4755859.1142578.0380859.0195312.2470703,0,.6269531-.0185547.1713867-.0566406,1.1210938.703125,1.7861328.4941406.4560547,1.6337891.8925781,3.1728516.703125,1.5761719-.1713867,1.956543-.1142578,2.1274414.3798828Zm.4750977-8.3212891c-.1708984.3994141-1.2919922.4375-1.8808594.6269531-.3989258.1333008-.8930664.4179688-1.1210938.5507812-.1137695.0761719-.284668.0952148-.3037109.0380859-.019043-.0380859-.0380859-.0947266.0380859-.1894531.1137695-.1523438.96875-.703125,1.3867188-1.1777344.1328125-.1523438.2275391-.2666016.2275391-.3994141,0-.1137695-.1894531-.2851562-.265625-.3608398-.6650391-.5131836-1.652832-.5131836-2.0898438-.4370117-.2089844.019043-.3608398-.0566406-.3984375-.1328125-.0380859-.0947266.0566406-.2280273.1708984-.2661133,1.3671875-.5698242,2.7919922-.1518555,3.4570312.3041992s.8549805,1.2539062.7792969,1.4433594Z"/>
      <path class="cls-1" d="m413.3242188,34.4257812c.1708984.684082-.5507812,1.0639648-1.0639648,2.0708008-2.7543945,5.3950195-6.3071289,7.6176758-11.0375977,9.7836914-.2470703.1142578-.4365234.0947266-.4560547,0-.0375977-.1142578.1142578-.1899414.3613281-.3232422,4.1035156-1.9375,8.871582-6.4589844,10.2392578-11.1699219.1328125-.4370117-.1518555-.3798828-.2470703-.3798828-.246582,0-5.1669922.8925781-7.3325195,1.6142578-.8549805.3041992-1.4438477.1142578-1.7856445-.1328125-.4750977-.3417969-.8930664-1.234375-.7412109-1.4248047.0761719-.0947266.3417969-.0380859.6269531.0571289.7216797.2280273,1.1396484.1708984,1.5957031.1333008.7978516-.0761719,5.6801758-.6464844,6.4589844-.8930664.5322266-.1713867,1.2539062-.6650391,1.5957031-.6079102.3422852.0566406,1.690918.9116211,1.7861328,1.2724609Zm3.3623047-2.3554688c0,1.0068359-.8168945,1.8237305-1.8046875,1.8237305-1.0068359,0-1.8237305-.8168945-1.8237305-1.8237305,0-.987793.8168945-1.8046875,1.8237305-1.8046875.987793,0,1.8046875.8168945,1.8046875,1.8046875Zm-.4941406,0c0-.7216797-.5888672-1.3105469-1.3105469-1.3105469-.7412109,0-1.3300781.5888672-1.3300781,1.3105469,0,.7412109.5888672,1.3300781,1.3300781,1.3300781.7216797,0,1.3105469-.5888672,1.3105469-1.3300781Z"/>
      <path class="cls-1" d="m420.1469727,46.4702148c-.0952148.019043-.1899414.019043-.1899414-.0380859-.0380859-.0756836.0761719-.1328125.1518555-.1518555,4.4833984-1.9755859,7.7509766-4.6352539,10.0112305-9.3657227.0952148-.2089844.1142578-.3608398.0761719-.4179688-.0566406-.0756836-.2275391-.0952148-.4941406-.0571289-.6264648.1142578-4.4829102.7978516-5.5849609,1.0830078-.9121094.2280273-.6269531.4560547-1.1586914.5507812-.6269531.0952148-1.4628906-.4560547-1.8808594-.949707-.1899414-.2089844-.246582-.7026367-.1328125-.8735352.0952148-.1333008.3798828.0756836.5317383.1328125.2661133.1137695,1.2348633.3227539,2.4130859.2089844.6645508-.0761719,5.1479492-.7597656,5.6987305-.8740234.5317383-.1142578.6459961-.4370117.9692383-.5126953.3227539-.0761719,1.0253906.4746094,1.3671875.7788086.6269531.5698242.4375.7788086.3803711.8930664-.1713867.284668-.8359375.6645508-1.1967773,1.2724609-2.1845703,3.6855469-4.9204102,6.5917969-10.9614258,8.3208008Zm10.3344727-13.8491211c.0947266.5131836-.1899414.4179688-2.1660156.3994141-.949707-.0195312-3.2480469.3037109-3.8945312.5507812-.6455078.2275391-1.0634766.3037109-1.5761719-.1328125-.3041992-.2666016-.4941406-.4941406-.5703125-.6845703-.0566406-.1328125-.0761719-.2084961,0-.284668.0761719-.0571289.3232422.0571289.6269531.1518555.3232422.0952148.8740234.1708984,1.7861328.0195312.8925781-.1333008,2.3554688-.4179688,2.8115234-.5322266.4365234-.1142578.4746094-.3798828,1.0825195-.4560547s1.8237305.5126953,1.8999023.96875Z"/>
      <path class="cls-1" d="m439.7734375,33.4189453c.6845703-.0947266,2.640625-.0380859,3.7050781.7978516.7597656.5888672.8735352,1.3491211.5693359,1.7861328-.3227539.4365234-1.0634766.2851562-1.5576172-.5131836-.5507812-.8930664-1.956543-1.5766602-2.640625-1.7666016-.2089844-.0571289-.3417969-.1333008-.3417969-.2089844.019043-.0571289.1328125-.0756836.265625-.0952148Zm13.3935547.8930664c.0756836.0952148-.0761719.3227539-.1708984.4370117-2.8115234,3.9326172-7.5039062,7.9599609-9.1572266,9.1186523-.5888672.3989258-.6455078.3608398-1.1015625.8549805-.3798828.4179688-.7597656.5126953-1.2158203.4179688-.9306641-.2285156-1.5009766-1.0263672-1.6337891-1.7099609-.1708984-.7788086,0-1.1015625.1142578-1.1586914.1328125-.0571289.2089844.3798828.4746094.6079102.1904297.1899414.4370117.4941406,1.0830078.3798828,2.1845703-.3417969,8.2446289-5.5473633,11.2460938-8.7768555.1333008-.1518555.2661133-.246582.3613281-.1708984Z"/>
      <path class="cls-1" d="m461.2050781,44.7226562c0,1.3867188-1.1015625,2.4882812-2.4692383,2.4882812s-2.4887695-1.1015625-2.4887695-2.4882812c0-1.3681641,1.1210938-2.4697266,2.4887695-2.4697266s2.4692383,1.1015625,2.4692383,2.4697266Zm-.4555664,0c0-1.1020508-.9116211-1.9951172-2.0136719-1.9951172s-2.0136719.8930664-2.0136719,1.9951172c0,1.1206055.9116211,2.0136719,2.0136719,2.0136719s2.0136719-.8930664,2.0136719-2.0136719Z"/>
    </g>
  </g>
</svg>