<?xml version="1.0" encoding="UTF-8"?>
<svg id="_レイヤー_2" data-name="レイヤー 2" xmlns="http://www.w3.org/2000/svg" viewBox="0 0 450 92.5">
  <defs>
    <style>
      .cls-1, .cls-2 {
        stroke-width: 0px;
      }

      .cls-2 {
        opacity: 0;
      }
    </style>
  </defs>
  <g id="_レイヤー_1-2" data-name="レイヤー 1">
    <rect class="cls-2" width="450" height="92.5"/>
    <g>
      <g>
        <path class="cls-1" d="m98.7009277,82.1899414c.1796875-.2397461.3149414-.4799805.4350586-.4799805.1796875,0,1.3046875.9296875,1.3046875,1.1552734-.0302734.1650391-.1796875.2397461-.3896484.2397461h-4.9199219v6.8847656h4.0195312l.3452148-.4799805c.1801758-.2402344.3295898-.4951172.449707-.4951172.1801758,0,1.3203125.9453125,1.3203125,1.1699219-.0449219.1650391-.1650391.2402344-.375.2402344h-10.3198242c-.7797852.0146484-1.5.0898438-2.25.2099609l-.3901367-.7651367c.6601562.074707,1.3203125.1049805,1.9951172.1201172h4.2148438v-6.8847656h-2.699707c-.7797852.0151367-1.5.0898438-2.25.2099609l-.4047852-.7797852c.659668.074707,1.3198242.1044922,1.9946289.1201172h3.3598633v-2.2050781c0-1.0200195-.0600586-2.25-.1948242-3.0751953,1.6796875.4804688,1.6796875.6298828,1.4248047.8100586l-.2397461.1650391v4.3051758h3.2397461l.3300781-.465332Z"/>
        <path class="cls-1" d="m106.5310059,81.5302734c.1499023-.2099609.2548828-.4355469.375-.4355469.1801758,0,1.0649414.8554688,1.0649414,1.0800781-.0449219.1650391-.1796875.2402344-.3598633.2402344h-1.8452148v4.7548828c.6904297-.3154297,1.425293-.6601562,2.175293-1.0048828l.0898438.2099609c-1.0200195.6748047-2.4301758,1.6948242-4.2597656,2.8349609-.0449219.1796875-.1352539.3295898-.2700195.4047852l-.5703125-1.2749023c.4052734-.1352539,1.0952148-.4052734,1.9199219-.7651367v-5.159668h-.5849609c-.3295898.0146484-.6445312.0898438-.9599609.2099609l-.375-.7802734c.4355469.0751953.8701172.1054688,1.3203125.1201172h.5996094v-1.2148438c0-1.0200195-.0595703-2.25-.1948242-3.0751953,1.6352539.465332,1.6352539.6152344,1.3652344.7802734l-.2553711.1499023v3.3598633h.4951172l.2700195-.4345703Zm8.0844727-1.2451172c.1201172-.1650391.2099609-.3452148.3300781-.3452148.1801758,0,1.0200195.7651367,1.0200195.9897461-.0898438.1201172-.2700195.1953125-.5551758.2402344-.0449219,3.9448242-.2099609,5.4150391-.6748047,5.9248047-.2998047.3447266-.75.4799805-1.199707.4799805,0-.284668-.0151367-.5400391-.1650391-.6899414-.1352539-.1201172-.4350586-.2250977-.75-.2851562v-.2695312c.3300781.0297852.8398438.074707,1.0800781.074707.1948242,0,.284668-.0297852.375-.1352539.2700195-.3144531.3896484-1.7695312.4350586-5.234375l-2.2050781.8701172v2.6542969c.0297852,1.800293.0600586,2.4003906.1201172,3.5253906-.1201172.2099609-.5102539.449707-.8554688.449707-.1645508,0-.3144531-.1499023-.3144531-.300293.074707-1.2895508.1196289-1.9345703.1499023-3.8847656v-2.0996094l-1.9350586.7646484v6.1049805c0,.449707.1499023.6147461,1.0649414.6147461h2.1450195c1.0048828,0,1.7246094-.0146484,2.0400391-.0449219.2246094-.0297852.3149414-.0898438.4047852-.2246094.1201172-.2705078.3300781-1.1699219.5400391-2.2802734h.1948242l.0302734,2.3398438c.3896484.1352539.4794922.2548828.4794922.465332,0,.5395508-.6147461.6748047-3.7197266.6748047h-2.1894531c-1.4404297,0-1.9052734-.284668-1.9052734-1.3500977v-5.9545898l-1.7851562.7050781-.2695312-.3598633,2.0546875-.8100586v-2.159668c0-.7353516-.0449219-1.6201172-.1347656-2.2202148,1.5595703.4799805,1.5595703.6298828,1.3046875.8100586l-.2548828.1650391v3.0449219l1.9350586-.75v-2.1748047c0-.7202148-.0454102-1.6201172-.1352539-2.2353516,1.5302734.4804688,1.5302734.6298828,1.2749023.8100586l-.2397461.1650391v3.074707l1.949707-.7646484.1352539-.0449219.2246094-.3300781Z"/>
        <path class="cls-1" d="m129.3757324,80.8847656c.1352539-.1796875.2250977-.3598633.3452148-.3598633.1796875,0,1.0498047.7651367,1.0498047.9897461-.1049805.1352539-.2700195.2255859-.5849609.2705078v5.324707c.0297852,1.7998047.0600586,2.3999023.1201172,3.5249023-.1201172.1499023-.4804688.4047852-.9301758.4047852-.1499023,0-.2099609-.1499023-.2099609-.300293.0297852-.1347656.0297852-.2099609.0600586-.4199219v-.375h-9.1796875v.300293c.0302734.284668.0151367.3901367.0449219.4946289-.0449219.1650391-.3447266.390625-.8251953.390625-.1494141,0-.3144531-.1503906-.3144531-.300293.0898438-1.2900391.1347656-1.949707.1650391-3.8999023v-3.1650391c0-1.0195312-.0605469-2.25-.1953125-3.074707l1.2900391.5551758h3.2397461c.1201172-.6000977.300293-1.5.3901367-2.2050781h-3.1948242c-.7802734.0151367-1.5.0898438-2.25.2099609l-.3901367-.7797852c.6601562.074707,1.3203125.1049805,1.9951172.1196289h9.1943359l.3300781-.4648438c.1801758-.2246094.3300781-.4648438.4501953-.4648438.1796875,0,1.3046875.9150391,1.3046875,1.1396484-.0449219.1650391-.1796875.2402344-.375.2402344h-5.8046875c-.3598633.7353516-.824707,1.5898438-1.199707,2.2050781h5.2495117l.2250977-.3603516Zm-9.3295898.8105469v7.8144531h2.3251953v-7.8144531h-2.3251953Zm5.909668,2.2646484v-2.2646484h-2.6850586v2.2646484h2.6850586Zm0,2.7597656v-2.3398438h-2.6850586v2.3398438h2.6850586Zm-2.6850586.4199219v2.3701172h2.6850586v-2.3701172h-2.6850586Zm5.9550781-5.4443359h-2.3701172v7.8144531h2.3701172v-7.8144531Z"/>
        <path class="cls-1" d="m144.4655762,79.9399414c.1499023-.1645508.2553711-.3452148.375-.3452148.1801758,0,1.0200195.6601562,1.0200195.8852539-.0297852.1650391-.1796875.2250977-.375.2250977h-2.8945312v1.1699219h2.0996094l.2700195-.4052734c.1499023-.2099609.2548828-.4199219.375-.4199219.1801758,0,1.0952148.7949219,1.0952148,1.0205078-.0302734.1645508-.1650391.2397461-.3603516.2397461h-7.8447266c-.074707.074707-.1948242.1049805-.3149414.1049805h-1.7250977v1.5449219c2.7451172,1.1699219,2.0400391,2.9101562,1.1855469,2.2797852-.1650391-.6147461-.7202148-1.4248047-1.1855469-1.9799805v2.9848633c.0302734,1.800293.0605469,2.3999023.1201172,3.5249023-.1201172.1650391-.4345703.3901367-.8696289.3901367-.1499023,0-.3149414-.1499023-.3149414-.300293.0898438-1.2900391.1347656-1.949707.1650391-3.8994141v-2.1450195c-.5849609,1.3500977-1.3652344,2.5649414-2.340332,3.6000977l-.2250977-.2104492c1.125-1.6049805,1.9052734-3.6899414,2.340332-5.7895508h-.6152344c-.3901367.0146484-.7197266.0898438-1.0795898.2099609l-.375-.7651367c.5097656.0751953,1.0195312.1049805,1.5595703.1201172h.7353516v-2.6098633c-.7202148.1948242-1.4853516.3896484-2.1904297.5097656l-.0898438-.2397461c.4648438-.1650391.9750977-.3598633,1.4702148-.6000977.8999023-.4199219,1.9047852-1.0351562,2.4594727-1.6499023,1.2753906,1.0800781,1.2753906,1.2299805.9150391,1.2148438l-.3598633-.0151367c-.3598633.1650391-.824707.3300781-1.3051758.4951172v2.8950195h.3901367l.6000977-.824707s.5249023.4648438.9448242.8544922l-.0449219-.1347656h3.6000977v-1.1699219h-.9453125c-.5698242.0146484-1.125.0898438-1.6796875.2099609l-.3901367-.75c.6601562.0751953,1.3198242.1049805,1.9951172.1201172h1.0200195v-1.0351562h-1.050293c-.659668.0151367-1.3046875.0898438-1.949707.2099609l-.3901367-.7797852c.6601562.074707,1.3198242.1049805,1.9951172.1196289h1.3950195c0-.4199219-.0151367-.9443359-.0751953-1.3349609,1.5.465332,1.5.6152344,1.2451172.7802734l-.2548828.1650391v.3896484h1.949707l.2700195-.4047852c.1499023-.1948242.2548828-.4047852.375-.4047852.1796875,0,1.0800781.7949219,1.0800781,1.0195312-.0449219.1650391-.1650391.2402344-.3603516.2402344h-3.3144531v1.0351562h1.6196289l.2548828-.3452148Zm-2.699707,9.6899414h-.2548828c-1.2148438.6748047-2.7749023,1.2148438-4.2148438,1.5146484l-.1801758-.2700195c.3901367-.1499023.7949219-.3149414,1.2001953-.5097656.8999023-.4204102,1.949707-1.1704102,2.5048828-1.800293l.6298828.6000977c.5698242.3149414.5698242.465332.3149414.465332Zm2.6699219-6.75c.1347656-.1650391.2250977-.3300781.3447266-.3300781.1801758,0,1.0351562.7353516,1.0351562.9599609-.0898438.1054688-.2998047.2250977-.5698242.2700195v1.574707c.0297852,1.5751953.0449219,2.1005859.1049805,3.0751953-.1201172.1650391-.5551758.4052734-.8549805.4052734h-.1499023v-.465332h-4.2900391v.3452148c0,.1044922-.375.3149414-.75.3149414-.1499023,0-.2548828-.1499023-.2548828-.300293.0600586-.6298828.0751953-.9448242.1049805-1.8896484v-1.0947266c0-1.0205078-.0600586-2.25-.1948242-3.0751953l1.1699219.5249023h4.0795898l.2250977-.3149414Zm-.0898438.7651367h-4.2900391v1.1245117h4.2900391v-1.1245117Zm0,2.6694336v-1.109375h-4.2900391v1.109375h4.2900391Zm-4.2900391,1.6352539h4.2900391v-1.1850586h-4.2900391v1.1850586Zm2.7900391.9301758c4.949707,1.0048828,3.3295898,2.8945312,2.4897461,2.0698242-.4799805-.5551758-1.3950195-1.2451172-2.5947266-1.8300781l.1049805-.2397461Z"/>
        <path class="cls-1" d="m153.1506348,80.1796875c.5551758,0,.9902344.4355469.9902344.9902344,0,.5551758-.4350586.9902344-.9902344.9902344-.5546875,0-.9897461-.4350586-.9897461-.9902344,0-.5546875.4350586-.9902344.9897461-.9902344Zm0,7.3051758c.5551758,0,.9902344.449707.9902344,1.0048828s-.4350586.9897461-.9902344.9897461c-.5546875,0-.9897461-.4345703-.9897461-.9897461s.4350586-1.0048828.9897461-1.0048828Z"/>
        <path class="cls-1" d="m165.1208496,89.5244141v.4804688h-5.9243164v-.4804688l2.3696289-.284668c.0151367-.8999023.0297852-1.784668.0297852-2.6699219v-6.1499023l-2.25.2548828v-.5400391l3.2402344-.8398438.2246094.1801758-.0595703,2.324707v4.7700195c0,.8852539.0146484,1.7700195.0297852,2.6699219l2.3398438.284668Z"/>
        <path class="cls-1" d="m173.4455566,88.8798828v1.125h-6.6142578v-.9003906c.9296875-.9599609,1.8598633-1.9648438,2.5795898-2.7294922,1.6499023-1.7851562,2.3100586-3.0151367,2.3100586-4.2753906,0-1.3496094-.7802734-2.2646484-2.0698242-2.2646484-.2851562,0-.6303711.0302734-.9902344.1347656l-.375,1.1552734c-.1796875.6450195-.4047852.9296875-.7949219.9296875-.3295898,0-.5551758-.1796875-.7197266-.4648438.2548828-1.574707,1.6499023-2.3701172,3.2094727-2.3701172,2.0253906,0,2.9702148,1.125,2.9702148,2.7753906,0,1.3798828-.7202148,2.4599609-3.1201172,4.859375-.4199219.4501953-1.1850586,1.215332-2.0097656,2.0253906h5.6245117Z"/>
        <path class="cls-1" d="m181.5007324,84.7397461c0,4.0048828-1.6201172,5.4750977-3.3149414,5.4750977-1.7099609,0-3.3447266-1.4702148-3.3447266-5.4750977,0-4.0200195,1.6347656-5.5200195,3.3447266-5.5200195,1.6948242,0,3.3149414,1.5,3.3149414,5.5200195Zm-3.3149414,4.875c1.0498047,0,2.0698242-1.0800781,2.0698242-4.875,0-3.8398438-1.0200195-4.9047852-2.0698242-4.9047852-1.0800781,0-2.0849609,1.0498047-2.0849609,4.9047852,0,3.8100586,1.0048828,4.875,2.0849609,4.875Z"/>
        <path class="cls-1" d="m183.6608887,89.2099609c0-.5551758.4199219-1.0205078.9897461-1.0205078.5703125,0,.9902344.465332.9902344,1.0205078,0,.5400391-.4199219.9897461-.9902344.9897461-.5698242,0-.9897461-.449707-.9897461-.9897461Z"/>
        <path class="cls-1" d="m194.4753418,84.7397461c0,4.0048828-1.6196289,5.4750977-3.3149414,5.4750977-1.7099609,0-3.3447266-1.4702148-3.3447266-5.4750977,0-4.0200195,1.6347656-5.5200195,3.3447266-5.5200195,1.6953125,0,3.3149414,1.5,3.3149414,5.5200195Zm-3.3149414,4.875c1.0498047,0,2.0703125-1.0800781,2.0703125-4.875,0-3.8398438-1.0205078-4.9047852-2.0703125-4.9047852-1.0800781,0-2.0849609,1.0498047-2.0849609,4.9047852,0,3.8100586,1.0048828,4.875,2.0849609,4.875Z"/>
        <path class="cls-1" d="m202.5153809,87.4848633c0,1.6196289-1.3950195,2.7299805-3.2851562,2.7299805-1.9799805,0-3.2998047-.9301758-3.2998047-2.6103516,0-1.2446289.8251953-2.0546875,2.3999023-2.8349609-1.4399414-.7646484-2.0400391-1.7392578-2.0400391-2.8642578,0-1.6650391,1.3203125-2.6855469,2.9702148-2.6855469,1.6796875,0,2.7446289,1.0351562,2.7446289,2.5205078,0,.824707-.4799805,1.784668-1.9946289,2.6396484,1.7397461.8251953,2.5048828,1.6948242,2.5048828,3.1049805Zm-1.1401367.1049805c0-.9902344-.6152344-1.6796875-2.5498047-2.5800781-1.1850586.7050781-1.7700195,1.3500977-1.7700195,2.4750977,0,1.2749023.8701172,2.1450195,2.2050781,2.1450195,1.2895508,0,2.1147461-.8701172,2.1147461-2.0400391Zm-1.8598633-3.4350586c1.0649414-.7348633,1.4848633-1.409668,1.4848633-2.3847656,0-1.0649414-.6298828-1.9350586-1.7700195-1.9350586-.9897461,0-1.8598633.6748047-1.8598633,1.7700195,0,.9150391.4501953,1.7548828,2.1450195,2.5498047Z"/>
        <path class="cls-1" d="m216.9748535,86.4794922c0,.8251953.0146484,2.0253906.0297852,2.8798828l1.1850586.1201172v.5253906h-3.6298828v-.5253906l1.1552734-.1201172c.0146484-.8544922.0297852-2.0546875.0297852-2.8798828v-1.6943359c0-1.5449219-.6000977-2.0703125-1.4248047-2.0703125-.6450195,0-1.3500977.3447266-1.9799805,1.1103516.0297852.2246094.0449219.4794922.0449219.75v1.9042969c0,.840332.0151367,2.0102539.0302734,2.8798828l1.1547852.1201172v.5253906h-3.5698242v-.5253906l1.1396484-.1201172c.0151367-.8544922.0302734-2.0395508.0302734-2.8798828v-1.784668c0-1.4399414-.5703125-1.9799805-1.4550781-1.9799805-.6450195,0-1.3500977.3901367-1.9199219,1.1552734v2.609375c0,.8105469.0151367,2.0102539.0302734,2.8798828l1.1699219.1201172v.5253906h-3.6000977v-.5253906l1.1401367-.1201172c.0146484-.8696289.0297852-2.0693359.0297852-2.8798828v-.8544922c0-1.0498047-.0151367-1.9350586-.0600586-2.7148438l-1.199707-.0302734v-.4799805l2.2197266-.4799805.2099609.1201172.0449219,1.2451172c.7202148-1.0205078,1.5751953-1.4550781,2.4301758-1.4550781,1.0195312,0,1.7246094.4501953,2.0249023,1.4697266.8100586-1.0649414,1.6049805-1.4697266,2.4897461-1.4697266,1.4848633,0,2.25.8251953,2.25,2.8647461v1.784668Zm2.7148438-5.7143555v.6000977h-2.6850586v-.4501953l.9448242-.9599609c.5400391-.5849609.8554688-.9296875.8554688-1.4697266,0-.4501953-.2553711-.7202148-.675293-.7202148-.0898438,0-.1801758,0-.2700195.0151367l-.1049805.4047852c-.0898438.3598633-.2548828.4199219-.4199219.4199219-.1347656,0-.2397461-.0600586-.284668-.1948242.074707-.6450195.5996094-.9599609,1.2895508-.9599609.7802734,0,1.1850586.4501953,1.1850586,1.0200195,0,.5849609-.4199219,1.034668-1.1699219,1.6499023l-.7802734.6450195h2.1152344Z"/>
        <path class="cls-1" d="m220.8752441,91.2646484l-.4199219-.4199219,13.4995117-13.4995117.4199219.4199219-13.4995117,13.4995117Z"/>
        <path class="cls-1" d="m238.6203613,78.3349609c.1347656-.1650391.2246094-.3300781.3447266-.3300781.1801758,0,1.0200195.840332,1.0200195,1.0654297-.1201172.1201172-.375.1948242-.675293.2246094-.4047852.9003906-1.0795898,2.3701172-1.7397461,3.7050781h1.2602539l.2397461-.2851562c.1352539-.1499023.2397461-.2998047.3598633-.2998047.1801758,0,.9902344.7050781.9902344.9296875-.1049805.1352539-.2548828.1801758-.5400391.2099609-.1801758,1.5302734-.4951172,3.0151367-1.125,4.3652344,1.3652344,1.6650391,3.375,1.9794922,6.4345703,1.9794922.9150391,0,2.9248047,0,3.9301758-.0297852v.2099609c-.3901367.074707-.6000977.375-.6303711.7651367h-3.3745117c-3.1948242,0-5.2348633-.4501953-6.6000977-2.4453125-.5996094,1.0654297-1.4394531,2.0253906-2.6699219,2.7753906l-.1347656-.2250977c1.125-.8999023,1.8447266-2.0400391,2.3549805-3.3149414-.3300781-.6298828-.6147461-1.3798828-.8701172-2.2646484-.2397461.4648438-.5698242,1.0795898-.7797852,1.4394531.0751953.1201172.0600586.2548828-.0151367.3452148l-.7045898-.7050781c.3745117-.375,1.0195312-1.034668,1.3945312-1.4848633l.1503906-.6601562.5097656.1650391-.3901367.5849609c.2402344.8251953.5400391,1.5151367.8852539,2.1000977.375-1.1699219.5698242-2.4301758.6894531-3.7202148h-1.574707c-.1499023.2705078-.2700195.5400391-.4047852.7954102-.2250977.0600586-.4951172.0449219-.8549805-.1049805.7797852-1.5898438,1.6948242-3.6298828,2.2495117-5.0097656h-.8095703c-.5102539.0146484-.9599609.0898438-1.4399414.2099609l-.3901367-.7802734c.6000977.0751953,1.2001953.1054688,1.7998047.1201172h.8701172l.2402344-.3300781Zm7.9492188.3603516c.1352539-.1650391.2250977-.3452148.3452148-.3452148.1801758,0,1.0649414.7797852,1.0649414,1.0048828-.0898438.1049805-.3300781.2250977-.6000977.2851562v1.3647461h.2250977l.2548828-.4199219c.1352539-.2099609.2402344-.4199219.3603516-.4199219.1796875,0,1.0195312.8100586,1.0195312,1.0351562-.0449219.1650391-.1650391.2397461-.3598633.2397461h-1.5v.7202148c.0302734.7197266.0302734.9599609.0751953,1.3647461-.090332.1801758-.5400391.4047852-.8549805.4047852h-.1049805v-.4794922h-2.1450195v1.5449219h2.1152344l.2695312-.4052734c.1503906-.1953125.2548828-.4052734.375-.4052734.1801758,0,1.1103516.7949219,1.1103516,1.0205078-.0302734.1650391-.1953125.2397461-.375.2397461h-3.4951172v1.574707h2.5649414l.300293-.4345703c.1645508-.2250977.2998047-.4501953.4199219-.4501953.1796875,0,1.199707.8549805,1.199707,1.0800781-.0449219.1650391-.1650391.2402344-.375.2402344h-4.1098633v.5693359c.0302734.5703125.0302734.765625.0600586,1.0654297-.0600586.2099609-.4350586.4047852-.7949219.4047852-.1948242,0-.2700195-.1499023-.2700195-.300293.0449219-.3447266.0449219-.5244141.0751953-1.0498047v-.6894531h-1.2001953c-.7797852.0146484-1.5.0898438-2.25.2099609l-.375-.765625c.6601562.0751953,1.3203125.1054688,1.9951172.1201172h1.8300781v-1.574707h-1.0048828c-.6303711.0151367-1.2451172.090332-1.8603516.2099609l-.3896484-.7797852c.659668.0751953,1.3198242.1044922,1.9946289.1201172h1.2602539v-1.5449219h-.9453125c-.5996094.0146484-1.1396484.0898438-1.7099609.2099609l-.4047852-.7651367c.659668.074707,1.3198242.1049805,1.9946289.1196289h1.0654297v-1.574707h-1.425293c-.7797852.0151367-1.4995117.090332-2.2495117.2099609l-.3901367-.7651367c.659668.0751953,1.3198242.1054688,1.9946289.1201172h2.0703125v-1.5449219h-.9453125c-.5698242.0151367-1.125.0898438-1.6796875.2099609l-.3901367-.75c.6601562.0751953,1.3198242.1054688,1.9951172.1201172h1.0200195c0-.5546875-.0302734-1.2148438-.1054688-1.6796875,1.5449219.4648438,1.5449219.6147461,1.2900391.7949219l-.2548828.1796875v.7050781h1.9951172l.2246094-.3447266Zm-2.2197266.7646484v1.5449219h2.1450195v-1.5449219h-2.1450195Zm2.1450195,3.5546875v-1.574707h-2.1450195v1.574707h2.1450195Z"/>
        <path class="cls-1" d="m255.2399902,79.8349609s.7050781.6298828,1.1401367,1.0800781v.0146484c.0898438-.1943359.1796875-.4047852.2700195-.6147461.375-.9145508.659668-2.1899414.7045898-3.0297852,1.6503906.4951172,1.6503906.6450195,1.3652344.7646484l-.2851562.1201172c-.2397461.8251953-.5546875,1.5751953-.9150391,2.2651367h4.9648438l.2250977-.3300781c.1352539-.1650391.2250977-.3295898.3452148-.3295898.1796875,0,1.0649414.734375,1.0649414.9599609-.1049805.1347656-.2851562.2099609-.6000977.2548828-.1953125,4.9794922-.7197266,8.5195312-1.5151367,9.4194336-.4350586.5102539-1.0498047.7348633-1.7548828.7202148,0-.300293-.074707-.5849609-.284668-.7202148-.2250977-.1801758-.9301758-.3598633-1.5449219-.449707l.0146484-.2851562c.7050781.0898438,1.875.2099609,2.2050781.2099609s.4648438-.0600586.6748047-.2402344c.6450195-.5996094,1.0952148-4.1396484,1.3203125-8.7895508h-.9453125c-.6298828,3.9145508-2.1748047,7.2749023-5.3847656,9.5395508l-.1499023-.1948242c2.6547852-2.3999023,4.0498047-5.7299805,4.4995117-9.3447266h-1.0795898c-.7050781,2.7299805-2.1899414,5.1298828-4.3950195,6.7646484l-.1499023-.1948242c1.7998047-1.7099609,3.0297852-4.125,3.5400391-6.5698242h-1.2900391c-.6000977,1.0800781-1.3500977,1.949707-2.2050781,2.6098633l-.1948242-.1650391c.5400391-.6147461,1.0200195-1.3945312,1.4550781-2.2797852-.0751953.090332-.1801758.1352539-.3300781.1352539h-1.7851562v3.3896484c.6601562-.2402344,1.3500977-.4799805,2.0551758-.7353516l.074707.2255859c-.5849609.3144531-1.2900391.7045898-2.1298828,1.1547852v2.0097656c.0302734,1.800293.0600586,2.3999023.1201172,3.5249023-.1201172.2099609-.5097656.4350586-.8549805.4350586-.1948242,0-.3300781-.1499023-.3300781-.300293.0751953-1.109375.1049805-1.6650391.1352539-3.3447266v-1.8300781c-.4951172.2548828-1.0498047.5400391-1.6347656.840332-.0454102.1801758-.1650391.3149414-.300293.3745117l-.5551758-1.2597656c.5102539-.1201172,1.4101562-.4047852,2.4902344-.7797852v-3.7045898h-1.1401367c-.3149414.9443359-.6899414,1.8144531-1.1547852,2.4897461l-.2250977-.1352539c.2250977-.5849609.4199219-1.2900391.5849609-2.0400391.2250977-.9599609.3598633-2.3847656.2851562-3.2246094,1.5600586.2851562,1.5600586.4350586,1.3046875.5849609l-.2548828.1347656c-.1201172.5849609-.2397461,1.1699219-.4199219,1.7402344h1.0200195v-.2998047c0-1.0205078-.0600586-2.25-.1953125-3.0751953,1.6201172.4799805,1.6201172.6298828,1.3652344.8100586l-.2402344.1650391v2.3999023h.375l.6450195-.8701172Z"/>
        <path class="cls-1" d="m277.1398926,80.8847656c.1347656-.1796875.2246094-.3598633.3447266-.3598633.1801758,0,1.0498047.7651367,1.0498047.9897461-.1044922.1352539-.2695312.2255859-.5849609.2705078v5.324707c.0302734,1.7998047.0605469,2.3999023.1201172,3.5249023-.1201172.1499023-.4799805.4047852-.9296875.4047852-.1503906,0-.2099609-.1499023-.2099609-.300293.0297852-.1347656.0297852-.2099609.0595703-.4199219v-.375h-9.1791992v.300293c.0297852.284668.0151367.3901367.0449219.4946289-.0449219.1650391-.3452148.390625-.8251953.390625-.1499023,0-.3149414-.1503906-.3149414-.300293.0898438-1.2900391.1352539-1.949707.1650391-3.8999023v-3.1650391c0-1.0195312-.0600586-2.25-.1948242-3.074707l1.2895508.5551758h3.2402344c.1201172-.6000977.2998047-1.5.3896484-2.2050781h-3.1943359c-.7802734.0151367-1.5.0898438-2.25.2099609l-.3901367-.7797852c.659668.074707,1.3198242.1049805,1.9946289.1196289h9.1948242l.3300781-.4648438c.1801758-.2246094.3300781-.4648438.449707-.4648438.1801758,0,1.3051758.9150391,1.3051758,1.1396484-.0449219.1650391-.1801758.2402344-.375.2402344h-5.8046875c-.3598633.7353516-.824707,1.5898438-1.199707,2.2050781h5.2495117l.2250977-.3603516Zm-9.3295898.8105469v7.8144531h2.324707v-7.8144531h-2.324707Zm5.909668,2.2646484v-2.2646484h-2.6850586v2.2646484h2.6850586Zm0,2.7597656v-2.3398438h-2.6850586v2.3398438h2.6850586Zm-2.6850586.4199219v2.3701172h2.6850586v-2.3701172h-2.6850586Zm5.9545898-5.4443359h-2.3696289v7.8144531h2.3696289v-7.8144531Z"/>
        <path class="cls-1" d="m292.2297363,79.9399414c.1499023-.1645508.2548828-.3452148.375-.3452148.1801758,0,1.0200195.6601562,1.0200195.8852539-.0297852.1650391-.1801758.2250977-.375.2250977h-2.8950195v1.1699219h2.1000977l.2700195-.4052734c.1499023-.2099609.2548828-.4199219.375-.4199219.1796875,0,1.0947266.7949219,1.0947266,1.0205078-.0297852.1645508-.1650391.2397461-.3598633.2397461h-7.8447266c-.074707.074707-.1948242.1049805-.3149414.1049805h-1.7250977v1.5449219c2.7451172,1.1699219,2.0400391,2.9101562,1.1850586,2.2797852-.1650391-.6147461-.7197266-1.4248047-1.1850586-1.9799805v2.9848633c.0302734,1.800293.0600586,2.3999023.1201172,3.5249023-.1201172.1650391-.4350586.3901367-.8696289.3901367-.1503906,0-.3154297-.1499023-.3154297-.300293.0898438-1.2900391.1352539-1.949707.1650391-3.8994141v-2.1450195c-.5849609,1.3500977-1.3647461,2.5649414-2.3398438,3.6000977l-.2250977-.2104492c1.125-1.6049805,1.9047852-3.6899414,2.340332-5.7895508h-.6152344c-.3901367.0146484-.7197266.0898438-1.0800781.2099609l-.375-.7651367c.5102539.0751953,1.0200195.1049805,1.5600586.1201172h.7348633v-2.6098633c-.7197266.1948242-1.4848633.3896484-2.1899414.5097656l-.0898438-.2397461c.4648438-.1650391.9750977-.3598633,1.4702148-.6000977.8994141-.4199219,1.9047852-1.0351562,2.4594727-1.6499023,1.2749023,1.0800781,1.2749023,1.2299805.9150391,1.2148438l-.3598633-.0151367c-.3603516.1650391-.8251953.3300781-1.3051758.4951172v2.8950195h.3901367l.6000977-.824707s.5249023.4648438.9448242.8544922l-.0449219-.1347656h3.5996094v-1.1699219h-.9448242c-.5698242.0146484-1.125.0898438-1.6801758.2099609l-.3896484-.75c.6601562.0751953,1.3198242.1049805,1.9951172.1201172h1.0195312v-1.0351562h-1.0498047c-.6601562.0151367-1.3046875.0898438-1.949707.2099609l-.3901367-.7797852c.6601562.074707,1.3198242.1049805,1.9951172.1196289h1.3945312c0-.4199219-.0146484-.9443359-.074707-1.3349609,1.5.465332,1.5.6152344,1.2446289.7802734l-.2548828.1650391v.3896484h1.9501953l.2695312-.4047852c.1503906-.1948242.2553711-.4047852.375-.4047852.1801758,0,1.0800781.7949219,1.0800781,1.0195312-.0449219.1650391-.1650391.2402344-.3598633.2402344h-3.3149414v1.0351562h1.6201172l.2548828-.3452148Zm-2.699707,9.6899414h-.2553711c-1.2148438.6748047-2.7744141,1.2148438-4.2148438,1.5146484l-.1796875-.2700195c.3896484-.1499023.7949219-.3149414,1.2001953-.5097656.8994141-.4204102,1.949707-1.1704102,2.5048828-1.800293l.6298828.6000977c.5698242.3149414.5698242.465332.3149414.465332Zm2.6699219-6.75c.1347656-.1650391.2250977-.3300781.3447266-.3300781.1801758,0,1.0351562.7353516,1.0351562.9599609-.090332.1054688-.300293.2250977-.5698242.2700195v1.574707c.0297852,1.5751953.0449219,2.1005859.1044922,3.0751953-.1196289.1650391-.5546875.4052734-.8544922.4052734h-.1503906v-.465332h-4.2895508v.3452148c0,.1044922-.375.3149414-.75.3149414-.1499023,0-.2553711-.1499023-.2553711-.300293.0605469-.6298828.0751953-.9448242.1054688-1.8896484v-1.0947266c0-1.0205078-.0600586-2.25-.1953125-3.0751953l1.1699219.5249023h4.0800781l.2250977-.3149414Zm-.090332.7651367h-4.2895508v1.1245117h4.2895508v-1.1245117Zm0,2.6694336v-1.109375h-4.2895508v1.109375h4.2895508Zm-4.2895508,1.6352539h4.2895508v-1.1850586h-4.2895508v1.1850586Zm2.7895508.9301758c4.9501953,1.0048828,3.3300781,2.8945312,2.4902344,2.0698242-.4799805-.5551758-1.3950195-1.2451172-2.5947266-1.8300781l.1044922-.2397461Z"/>
        <path class="cls-1" d="m301.2150879,80.1796875c.5546875,0,.9897461.4355469.9897461.9902344,0,.5551758-.4350586.9902344-.9897461.9902344-.5551758,0-.9902344-.4350586-.9902344-.9902344,0-.5546875.4350586-.9902344.9902344-.9902344Zm0,7.3051758c.5546875,0,.9897461.449707.9897461,1.0048828s-.4350586.9897461-.9897461.9897461c-.5551758,0-.9902344-.4345703-.9902344-.9897461s.4350586-1.0048828.9902344-1.0048828Z"/>
        <path class="cls-1" d="m313.6501465,87.4848633c0,1.6196289-1.3950195,2.7299805-3.2851562,2.7299805-1.9799805,0-3.2998047-.9301758-3.2998047-2.6103516,0-1.2446289.8251953-2.0546875,2.3999023-2.8349609-1.4399414-.7646484-2.0400391-1.7392578-2.0400391-2.8642578,0-1.6650391,1.3203125-2.6855469,2.9702148-2.6855469,1.6796875,0,2.7446289,1.0351562,2.7446289,2.5205078,0,.824707-.4799805,1.784668-1.9946289,2.6396484,1.7397461.8251953,2.5048828,1.6948242,2.5048828,3.1049805Zm-1.1401367.1049805c0-.9902344-.6152344-1.6796875-2.5498047-2.5800781-1.1850586.7050781-1.7700195,1.3500977-1.7700195,2.4750977,0,1.2749023.8701172,2.1450195,2.2050781,2.1450195,1.2895508,0,2.1147461-.8701172,2.1147461-2.0400391Zm-1.8598633-3.4350586c1.0649414-.7348633,1.4848633-1.409668,1.4848633-2.3847656,0-1.0649414-.6298828-1.9350586-1.7700195-1.9350586-.9897461,0-1.8598633.6748047-1.8598633,1.7700195,0,.9150391.4501953,1.7548828,2.1450195,2.5498047Z"/>
        <path class="cls-1" d="m315.6750488,89.824707c2.9399414-.9897461,4.3349609-2.625,4.6796875-4.949707-.5849609.5996094-1.3496094.8999023-2.25.8999023-1.7695312,0-3.1645508-1.2299805-3.1494141-3.2250977,0-1.9794922,1.3945312-3.3300781,3.3745117-3.3300781,2.0400391,0,3.3300781,1.6352539,3.3300781,4.2602539,0,3.0898438-1.7548828,5.7895508-5.8647461,6.824707l-.1201172-.4799805Zm4.7397461-5.6245117c.0151367-.1650391.0151367-.3300781.0151367-.5102539,0-2.625-.8999023-3.8549805-2.1601562-3.8549805-1.1396484,0-2.1147461.8847656-2.1147461,2.5947266,0,1.7402344,1.0048828,2.5654297,2.324707,2.5654297.7651367,0,1.3798828-.2553711,1.9350586-.7949219Z"/>
        <path class="cls-1" d="m323.9396973,89.2099609c0-.5551758.4199219-1.0205078.9902344-1.0205078.5698242,0,.9897461.465332.9897461,1.0205078,0,.5400391-.4199219.9897461-.9897461.9897461-.5703125,0-.9902344-.449707-.9902344-.9897461Z"/>
        <path class="cls-1" d="m334.7097168,87.4848633c0,1.6196289-1.3950195,2.7299805-3.2851562,2.7299805-1.9799805,0-3.2998047-.9301758-3.2998047-2.6103516,0-1.2446289.8251953-2.0546875,2.3999023-2.8349609-1.4399414-.7646484-2.0400391-1.7392578-2.0400391-2.8642578,0-1.6650391,1.3203125-2.6855469,2.9702148-2.6855469,1.6796875,0,2.7446289,1.0351562,2.7446289,2.5205078,0,.824707-.4799805,1.784668-1.9946289,2.6396484,1.7397461.8251953,2.5048828,1.6948242,2.5048828,3.1049805Zm-1.1401367.1049805c0-.9902344-.6152344-1.6796875-2.5498047-2.5800781-1.1850586.7050781-1.7700195,1.3500977-1.7700195,2.4750977,0,1.2749023.8701172,2.1450195,2.2050781,2.1450195,1.2895508,0,2.1147461-.8701172,2.1147461-2.0400391Zm-1.8598633-3.4350586c1.0649414-.7348633,1.4848633-1.409668,1.4848633-2.3847656,0-1.0649414-.6298828-1.9350586-1.7700195-1.9350586-.9897461,0-1.8598633.6748047-1.8598633,1.7700195,0,.9150391.4501953,1.7548828,2.1450195,2.5498047Z"/>
        <path class="cls-1" d="m343.3044434,86.7050781h-1.7700195v3.2998047h-1.125v-3.2998047h-4.5146484v-.6904297l4.8598633-6.7045898h.7797852v6.5546875h1.7700195v.840332Zm-2.8950195-.840332v-5.1450195l-3.7045898,5.1450195h3.7045898Z"/>
        <path class="cls-1" d="m359.3537598,86.4794922c0,.8251953.0151367,2.0253906.0302734,2.8798828l1.1850586.1201172v.5253906h-3.6298828v-.5253906l1.1547852-.1201172c.0151367-.8544922.0302734-2.0546875.0302734-2.8798828v-1.6943359c0-1.5449219-.6000977-2.0703125-1.4248047-2.0703125-.6455078,0-1.3500977.3447266-1.9804688,1.1103516.0302734.2246094.0454102.4794922.0454102.75v1.9042969c0,.840332.0151367,2.0102539.0297852,2.8798828l1.1552734.1201172v.5253906h-3.5703125v-.5253906l1.1401367-.1201172c.0151367-.8544922.0297852-2.0395508.0297852-2.8798828v-1.784668c0-1.4399414-.5698242-1.9799805-1.4545898-1.9799805-.6450195,0-1.3500977.3901367-1.9199219,1.1552734v2.609375c0,.8105469.0151367,2.0102539.0297852,2.8798828l1.1699219.1201172v.5253906h-3.5996094v-.5253906l1.1396484-.1201172c.0151367-.8696289.0302734-2.0693359.0302734-2.8798828v-.8544922c0-1.0498047-.0151367-1.9350586-.0600586-2.7148438l-1.199707-.0302734v-.4799805l2.2197266-.4799805.2099609.1201172.0449219,1.2451172c.7197266-1.0205078,1.5751953-1.4550781,2.4296875-1.4550781,1.0200195,0,1.7250977.4501953,2.0253906,1.4697266.8095703-1.0649414,1.6044922-1.4697266,2.4897461-1.4697266,1.4848633,0,2.2495117.8251953,2.2495117,2.8647461v1.784668Zm2.715332-5.7143555v.6000977h-2.6850586v-.4501953l.9448242-.9599609c.5400391-.5849609.8549805-.9296875.8549805-1.4697266,0-.4501953-.2548828-.7202148-.6748047-.7202148-.0898438,0-.1801758,0-.2700195.0151367l-.1049805.4047852c-.0898438.3598633-.2548828.4199219-.4199219.4199219-.1347656,0-.2402344-.0600586-.2851562-.1948242.0751953-.6450195.6000977-.9599609,1.2900391-.9599609.7802734,0,1.1850586.4501953,1.1850586,1.0200195,0,.5849609-.4199219,1.034668-1.1699219,1.6499023l-.7797852.6450195h2.1147461Z"/>
      </g>
      <g>
        <path class="cls-1" d="m128.4189453,4.9228516l-.3955078-.2158203c.503418-1.2216797,1.1020508-2.0820312,1.796875-2.5810547.6943359-.4985352,1.5048828-.7480469,2.4306641-.7480469.8623047,0,1.5527344.1914062,2.0722656.574707.7744141.574707,1.1616211,1.2211914,1.1616211,1.9399414,0,.5830078-.1977539,1.1699219-.5927734,1.7607422s-1.0883789,1.253418-2.0776367,1.987793l.2871094-.012207c.6230469,0,1.2236328.1582031,1.8027344.4736328.578125.3154297,1.0356445.8061523,1.3710938,1.4726562.3349609.6669922.5029297,1.3833008.5029297,2.1494141,0,1.5410156-.5649414,2.8608398-1.6948242,3.9584961-1.1293945,1.0976562-2.5688477,1.6464844-4.3168945,1.6464844-1.3256836,0-2.3037109-.1914062-2.9345703-.574707-.3432617-.1992188-.5146484-.4511719-.5146484-.7543945,0-.1674805.0693359-.3193359.2094727-.4550781.1391602-.1357422.3129883-.2036133.5209961-.2036133.2636719,0,.5825195.1435547.9580078.4311523.8862305.6782227,1.65625,1.0180664,2.3115234,1.0180664.9897461,0,1.8681641-.4169922,2.6347656-1.2519531.7661133-.8339844,1.1494141-1.8857422,1.1494141-3.1552734,0-1.0537109-.2578125-1.9179688-.7724609-2.5927734s-1.1679688-1.012207-1.9580078-1.012207c-.5908203,0-1.2055664.2797852-1.8442383.8383789l-.2875977-.4790039c.3994141-.3432617.7587891-.6347656,1.078125-.8745117.9736328-.7099609,1.7001953-1.4086914,2.1796875-2.0957031.3427734-.4951172.5146484-.9296875.5146484-1.3051758,0-.6303711-.2236328-1.1635742-.6708984-1.5991211-.4472656-.4345703-1.0336914-.6523438-1.7602539-.6523438-1.1977539,0-2.2514648.7705078-3.1616211,2.3115234Z"/>
        <path class="cls-1" d="m143.8862305,17.0664062c.0078125-.1201172.0395508-.2275391.0957031-.3232422.6225586-.1679688,1.2294922-.2797852,1.8203125-.3359375.3911133-.0317383.6425781-.1201172.7543945-.2636719.0800781-.1035156.1279297-.4873047.1435547-1.1503906l.0839844-3.1640625-.0117188-2.1455078.0117188-2.8046875v-.7431641c.0078125-1.6865234,0-2.7368164-.0239258-3.1523438-.0083008-.0800781-.0400391-.1918945-.0961914-.3359375-.2089844-.0957031-.3833008-.1591797-.5234375-.1914062-.140625-.0322266-.7685547-.1479492-1.8833008-.3476562-.0083008-.0878906-.012207-.1513672-.012207-.1914062,0-.0483398.0039062-.1123047.012207-.1918945.1518555,0,.3999023.0092773.7436523.0273438l1.8232422.0683594,1.0556641.0239258.3120117-.0117188c.0400391,0,.1557617.0078125.3481445.0234375.4716797,0,.7431641-.0039062.8154297-.0117188l.9599609-.0717773c.6474609,0,1.1035156.012207,1.3671875.0356445-.0083008.144043-.0361328.2998047-.0839844.4672852-.0878906.0161133-.5029297.0380859-1.2456055.065918-.7426758.0283203-1.1694336.0742188-1.28125.1376953-.184082.1040039-.2753906.4233398-.2753906.9580078,0,.1279297-.0083008.3876953-.0239258.7783203v.71875l.0117188,2.2158203v.7539062l.0244141,3.9643555-.0361328,3.3774414.0117188.7421875c0,.2397461.0400391.3876953.1201172.4433594.1992188.0078125.7861328.015625,1.7602539.0239258h.8144531l2.0717773-.0717773c.5429688-.0161133.9296875-.0703125,1.1616211-.1621094.2314453-.0917969.6186523-.3608398,1.1616211-.8081055.3271484-.2875977.5830078-.5825195.7666016-.8862305.0400391-.0634766.1074219-.159668.203125-.2871094.1518555-.2080078.3554688-.6230469.6113281-1.2460938h.3950195c-.0478516.2875977-.1000977.5595703-.1557617.8144531-.2314453,1.1259766-.3911133,2.0644531-.4790039,2.8144531-.0161133.1601562-.0317383.3076172-.0478516.4433594l-4.4790039-.1318359c-3.8486328,0-6.1318359.0361328-6.8505859.1074219-.2236328.0161133-.4589844.0244141-.7060547.0244141h-1.2456055Z"/>
        <path class="cls-1" d="m161.0327148,16.7666016c.2954102-.1274414.6386719-.2109375,1.0297852-.2509766.5668945-.0644531.9902344-.2001953,1.2695312-.4077148.2158203-.4394531.3232422-1.5581055.3232422-3.355957v-1.894043l.0244141-1.1381836-.0244141-.8393555.0244141-1.5463867-.0361328-3.8950195c0-.4394531-.0639648-.7270508-.1914062-.862793-.184082-.2001953-.6708984-.3837891-1.4609375-.5517578-.328125-.0717773-.5273438-.1376953-.5991211-.1972656-.0717773-.0605469-.1157227-.1738281-.1318359-.3417969.1835938-.0400391.3115234-.0595703.3833008-.0595703h.8505859l.4428711-.012207c.2954102,0,.6225586.0317383.9819336.0961914.734375.0478516,1.4892578.0712891,2.2636719.0712891.2231445,0,.5429688-.0117188.9580078-.0356445,1.1015625-.0639648,1.8920898-.0957031,2.3710938-.0957031.9658203,0,1.8779297.0957031,2.7363281.2875977.8583984.1914062,1.7426758.546875,2.652832,1.0654297.5668945.3276367,1.1479492.8447266,1.7426758,1.5507812.5947266.7070312,1.0458984,1.4775391,1.3535156,2.3115234.3066406.8344727.4609375,1.7744141.4609375,2.8203125,0,.9345703-.1699219,1.8603516-.5092773,2.7783203-.3393555.918457-.8125,1.7148438-1.4189453,2.3896484-.6069336.6748047-1.2216797,1.1816406-1.8442383,1.5205078-.6230469.3398438-1.5732422.6328125-2.8505859.8803711-.5268555.0961914-1.4726562.144043-2.8378906.144043-.9023438,0-1.6367188-.0283203-2.2041016-.0839844-.2236328-.0322266-.4628906-.0478516-.7182617-.0478516-.0400391,0-.0839844.0039062-.1318359.0117188l-4.8862305.0957031-.0239258-.0957031c-.0161133-.0400391-.0239258-.0839844-.0239258-.1318359l.0239258-.1796875Zm6.0961914-.4785156c.6064453.2075195,1.2211914.3110352,1.84375.3110352.8066406,0,1.5966797-.1254883,2.3710938-.3774414.7744141-.2509766,1.4589844-.6064453,2.0541992-1.0654297.5947266-.4589844,1.0834961-.9780273,1.4672852-1.5571289.3828125-.5786133.6542969-1.0996094.8144531-1.5629883.2231445-.6782227.3349609-1.5605469.3349609-2.6464844,0-1.0380859-.2197266-2.0917969-.6586914-3.1616211-.3032227-.7426758-.8364258-1.453125-1.5986328-2.1318359-.7626953-.6782227-1.6625977-1.175293-2.7006836-1.4907227s-2.159668-.4731445-3.3652344-.4731445c-.8305664,0-1.4453125.0917969-1.8442383.2753906-.0478516.0478516-.0961914.1040039-.144043.1674805-.0478516.199707-.0712891.3833008-.0712891.5507812,0,.1040039.0039062.2275391.0117188.371582.0239258.9262695.0361328,1.668457.0361328,2.2275391l-.012207,2.7182617c0,3.9921875.0737305,6.2138672.2211914,6.6650391.1479492.4511719.5615234.84375,1.2402344,1.1796875Z"/>
        <path class="cls-1" d="m183.2929687,16.8388672c.0400391-.0800781.1000977-.1240234.1796875-.1318359.8066406-.0722656,1.4414062-.2158203,1.9042969-.4311523.159668-.144043.2392578-.3833008.2392578-.7182617l-.0117188-1.1738281v-2.2275391l.0244141-.9702148-.0722656-3.3295898.0239258-2.2392578c0-1.2617188-.0239258-2.1035156-.0717773-2.5268555-.0161133-.159668-.0678711-.3237305-.1557617-.4907227-.1435547-.0878906-.2631836-.1396484-.3588867-.15625-.34375-.0556641-.7871094-.0996094-1.3295898-.1318359-.1118164-.0791016-.1674805-.175293-.1674805-.2871094,0-.0400391.015625-.0996094.046875-.1796875.4404297-.0239258,1.2192383-.0361328,2.3364258-.0361328.519043,0,.9282227-.0039062,1.2270508-.0117188.4272461-.0239258.9443359-.0595703,1.5507812-.1074219.2636719.0234375.5751953.0356445.9345703.0356445.0878906.0478516.1318359.1040039.1318359.1674805,0,.0478516-.0083008.1000977-.0244141.1557617-.0957031.0478516-.2753906.0878906-.5390625.1196289-.6943359.0722656-1.1655273.2236328-1.4130859.4550781-.1674805.1601562-.2509766.4633789-.2509766.9101562l.0117188.2275391v7.6049805l.0839844,3.0776367c.0078125.9746094.0317383,1.5112305.0717773,1.6108398.0395508.1000977.1035156.1777344.1914062.2338867.2797852.1674805.706543.2792969,1.2817383.3349609.1435547.0161133.2832031.0439453.4189453.0839844.0478516.1035156.0717773.1914062.0717773.2636719,0,.0791016-.0478516.1552734-.1435547.2275391l-.3833008.0117188c-.159668,0-.5429688-.0283203-1.1494141-.0839844-.6074219-.0556641-1.0585938-.0839844-1.3535156-.0839844-.2475586,0-.5908203.0283203-1.0302734.0839844-.4389648.0556641-1.0375977.0839844-1.7958984.0839844-.1123047,0-.2636719-.0039062-.4550781-.0117188l-.0244141-.359375Zm4.6230469-7.5273438c.0957031-.0874023.2553711-.1992188.4790039-.3349609.4467773-.2709961,1.2172852-.8134766,2.3110352-1.6269531l3.2817383-2.6806641c.9018555-.75,1.5366211-1.340332,1.9038086-1.7709961.0722656-.0957031.1279297-.1953125.1679688-.2993164-.1435547-.1035156-.3076172-.1787109-.4912109-.2265625-.1835938-.0483398-.4746094-.0839844-.8740234-.1083984-.3994141-.0234375-.6367188-.0615234-.7128906-.1132812-.0756836-.0517578-.1132812-.1181641-.1132812-.1977539,0-.0878906.027832-.1557617.0839844-.2036133.1035156-.0717773.2509766-.1079102.4428711-.1079102.3032227,0,.5668945.0219727.7905273.065918.2231445.0439453.7304688.065918,1.5205078.065918.1918945,0,.331543-.0039062.4194336-.012207l1.8681641-.0957031c.1918945-.015625.3393555-.0239258.4428711-.0239258.0961914,0,.2397461.0083008.4316406.0234375,0,.1870117-.0166016.3388672-.0478516.4555664-.8623047.1044922-1.4970703.2363281-1.9042969.3964844-.2314453.0957031-.703125.3603516-1.4130859.7919922-.5351562.328125-1.0224609.6806641-1.4609375,1.0566406l-3.0893555,2.5996094-1.8676758,1.5087891c.0317383.0556641.0795898.1123047.1435547.1679688.0478516.0400391.1679688.1513672.359375.3349609.8378906.7822266,1.9697266,1.7421875,3.3945312,2.8798828,1.4248047,1.1367188,2.5400391,2.0888672,3.3466797,2.8549805,1.1816406,1.1240234,2.2949219,1.7451172,3.3413086,1.8637695.2553711.0322266.4389648.1040039.5507812.2158203l.012207.1318359-.0244141.1669922c-.2714844.0166016-.4550781.0244141-.5507812.0244141-.3671875,0-.921875-.0258789-1.6645508-.0771484-.4389648-.0283203-.8022461-.0429688-1.0898438-.0429688-1.1499023,0-2.4633789.0478516-3.9399414.144043-.0239258-.1088867-.0361328-.190918-.0361328-.2456055l.012207-.0932617c.1035156-.0932617.3110352-.1806641.6225586-.2617188.4311523-.1132812.8862305-.1782227,1.3652344-.1943359.1035156,0,.2158203-.0083008.3354492-.0239258-.0795898-.1298828-.2114258-.2792969-.3950195-.449707-.0322266-.0317383-.1396484-.1376953-.3232422-.3168945-.184082-.1796875-.5073242-.4726562-.9702148-.8798828l-1.425293-1.1367188-2.1914062-1.8427734c-.7265625-.6220703-1.7407227-1.4160156-3.0419922-2.3818359Z"/>
        <path class="cls-1" d="m222.496582,15.3657227c.0478516.1040039.0717773.1796875.0717773.2275391,0,.1196289-.0957031.331543-.2871094.6347656-.2480469.3989258-.5234375.690918-.8266602.8740234-.1918945.1196289-.4550781.1796875-.7905273.1796875-.574707,0-1.0058594-.175293-1.2929688-.5268555-.1757812-.2075195-.2998047-.5791016-.371582-1.1137695l-1.3413086.934082c-.4711914.2714844-.8305664.4433594-1.078125.5146484-.3994141.1040039-.8779297.15625-1.4365234.15625-.4072266,0-.7290039-.1220703-.9643555-.3652344-.2358398-.2436523-.3530273-.5571289-.3530273-.9404297,0-.5507812.3378906-1.2094727,1.0136719-1.9760742.6767578-.7661133,1.5947266-1.3930664,2.7548828-1.8803711.8164062-.3427734,1.3164062-.5625,1.5004883-.6582031.0161133-.2636719.0239258-.5507812.0239258-.8623047,0-1.0136719-.1420898-1.7006836-.4262695-2.0600586-.284668-.359375-.690918-.5385742-1.2192383-.5385742-.5527344,0-1.0693359.215332-1.5498047.6464844-.296875.2714844-.5205078.7822266-.6728516,1.5327148-.0478516.2075195-.1396484.4311523-.2753906.6704102-.34375.2236328-.6191406.3359375-.8261719.3359375-.1757812,0-.3354492-.0517578-.4794922-.15625-.0795898-.0556641-.1191406-.1191406-.1191406-.1914062,0-.2075195.2211914-.6767578.6640625-1.4072266.4433594-.7304688,1.0019531-1.2773438,1.6767578-1.640625s1.2636719-.5449219,1.7666016-.5449219c.6865234,0,1.1972656.0620117,1.5332031.1855469.3349609.1240234.6303711.3417969.8857422.652832.2558594.3110352.4111328.6508789.4672852,1.0180664.0317383.1757812.0478516.8022461.0478516,1.8798828l-.0356445,1.9042969.0117188,1.3896484c0,.1835938-.0039062.3388672-.0117188.4667969-.0083008.2314453-.012207.4033203-.012207.5146484,0,.2636719.0756836.4755859.2275391.6347656.1518555.1601562.3310547.2397461.5385742.2397461.3037109,0,.5634766-.1518555.7788086-.4550781l.1435547-.1918945c.0400391-.0234375.1274414-.0517578.2636719-.0834961Zm-3.5092773-.347168c.0556641-1.0141602.0839844-1.7285156.0839844-2.1435547,0-.2158203-.0117188-.5073242-.0361328-.8745117-.5366211.1918945-1.1054688.4829102-1.7060547.8745117-.6005859.390625-1.0776367.8417969-1.4301758,1.3530273-.2563477.3671875-.3842773.7143555-.3842773,1.0415039,0,.3115234.105957.5712891.3183594.7788086.2119141.2075195.4785156.3110352.7988281.3110352.2485352,0,.5488281-.0874023.9013672-.2631836.4648438-.2314453.9492188-.5908203,1.4541016-1.0776367Z"/>
        <path class="cls-1" d="m226.1225586,16.5991211c.199707-.0556641.4311523-.1035156.6948242-.1430664.5029297-.0717773.8037109-.1552734.9042969-.2509766.0996094-.0952148.1494141-.3139648.1494141-.65625l.0239258-.4296875c.0078125-.1591797.012207-.3623047.012207-.6088867l-.0244141-3.6645508c0-.4931641-.0634766-.8115234-.1914062-.9545898-.2158203-.2226562-.6152344-.3779297-1.1972656-.465332v-.4375c.5820312-.1601562,1.0292969-.3681641,1.3408203-.6245117.4550781-.3598633.8383789-.8486328,1.1499023-1.465332l.4072266.012207c.0239258.3764648.0356445.6450195.0356445.8051758v.7929688l.012207.2163086c.0957031-.0639648.2075195-.144043.3354492-.2407227.4785156-.3603516.9697266-.6547852,1.4726562-.8828125.5029297-.2285156.9501953-.3867188,1.3417969-.4750977.2470703-.0639648.5263672-.0961914.8378906-.0961914.6547852,0,1.2177734.1757812,1.6884766.527832.4711914.3520508.7763672.7651367.9165039,1.2407227.1396484.4755859.2094727,1.4213867.2094727,2.8359375v1.8105469c0,.0478516-.0058594.2080078-.0175781.4799805-.012207.2719727-.0185547.5834961-.0185547.9350586,0,.5595703.0244141.9155273.0722656,1.0673828.0400391.1040039.1435547.2080078.3115234.3115234.7661133.1044922,1.2128906.2285156,1.3408203.3720703v.0957031c0,.0800781-.0234375.1796875-.0717773.2993164h-.2275391l-1.5805664-.0239258-1.5571289.0361328c-.574707.015625-1.105957.0117188-1.5927734-.012207l-.0717773-.2514648c0-.0478516.027832-.1118164.0839844-.1914062.215332-.0957031.5185547-.1601562.9101562-.1923828.2314453-.015625.390625-.0400391.4790039-.0717773.0874023-.0317383.1958008-.0957031.3232422-.1918945.0957031-.1918945.144043-.3515625.144043-.4794922,0-.0561523-.0083008-.1679688-.0244141-.3359375-.0239258-.3676758-.0400391-1.2832031-.0478516-2.746582v-.6235352l.0239258-.9594727c0-1.0317383-.2075195-1.7426758-.6225586-2.1347656s-.9702148-.5874023-1.6650391-.5874023c-.534668,0-1.0576172.1176758-1.5683594.3530273-.5112305.2358398-1.0058594.5888672-1.4853516,1.0600586-.015625.3828125-.0239258.7104492-.0239258.9819336l.0361328,2.6464844c0,1.3813477.0200195,2.2275391.0600586,2.5390625.015625.1274414.043457.215332.0834961.2631836.0639648.0644531.1918945.1162109.3833008.15625s.4130859.0957031.6645508.1669922c.2514648.0722656.4174805.1162109.4970703.1318359.159668.0400391.2670898.1201172.3237305.2397461l-.012207.2397461h-1.2573242l-2.5869141-.0361328c-.5986328.0078125-.9785156.0117188-1.1376953.0117188h-.2998047l-.0234375-.1552734c0-.0556641.0117188-.1357422.0356445-.2397461Z"/>
        <path class="cls-1" d="m249.8681641,8.2998047l.0117188-.347168-.0117188-1.4013672.0117188-2.6464844c0-.7348633-.0800781-1.2016602-.2392578-1.4013672-.1601562-.199707-.6269531-.402832-1.4013672-.6108398-.0556641-.015625-.1435547-.0400391-.2636719-.0717773v-.1313477c0-.0800781.0078125-.1679688.0244141-.2636719,1.0854492-.1118164,2.0195312-.2998047,2.8017578-.5629883l.6113281-.012207c.03125.5429688.0478516,1.1499023.0478516,1.8203125l-.0478516,4.6113281.0834961,5.1972656-.0356445,2.7666016c0,.5668945.0395508.8857422.1196289.9580078.159668.159668.5107422.2431641,1.0537109.2514648.1118164,0,.2636719.0083008.4550781.0239258v.2158203c0,.0556641-.0039062.1152344-.012207.1791992-.2470703.0561523-.5029297.1079102-.7661133.1557617l-1.7368164.3354492c-.2553711.0478516-.4589844.0717773-.6103516.0717773v-1.1494141c-.1357422.0400391-.3476562.1191406-.6347656.2392578-1.2456055.5268555-2.3916016.7900391-3.4375.7900391-.6303711,0-1.2734375-.2050781-1.9277344-.6162109-.6547852-.4111328-1.1577148-.984375-1.5087891-1.71875-.3515625-.734375-.5273438-1.4853516-.5273438-2.2514648,0-.6865234.1157227-1.3432617.3476562-1.9702148.2314453-.6264648.534668-1.1474609.9101562-1.5625.2392578-.2714844.5786133-.5410156,1.0175781-.8085938.4394531-.2675781.8027344-.4370117,1.0898438-.5087891.7109375-.1835938,1.1855469-.2753906,1.425293-.2753906,1.0776367,0,1.9643555.159668,2.6586914.4785156.2158203.1044922.3789062.1757812.4912109.2158203Zm.0117188,7.4013672c.0322266-.5351562.0478516-1.6367188.0478516-3.3056641,0-1.4130859-.0654297-2.3051758-.1967773-2.6767578-.1313477-.3710938-.4594727-.722168-.984375-1.0537109-.5249023-.3310547-1.1137695-.4970703-1.7651367-.4970703-.9150391,0-1.6904297.3554688-2.3271484,1.065918-.6357422.7104492-.9541016,1.7602539-.9541016,3.1499023,0,1.2216797.34375,2.1953125,1.0322266,2.921875.6875.7265625,1.5449219,1.0898438,2.5708008,1.0898438.5883789,0,1.1254883-.0795898,1.6108398-.2392578.4848633-.1601562.8066406-.3115234.9658203-.4550781Z"/>
        <path class="cls-1" d="m265.1796875,2.1445312l-.012207-.1918945c.1118164-.144043.4262695-.215332.9438477-.215332l1.1108398.0117188.6450195.0117188.2871094-.0117188c1.0429688,0,1.671875.0161133,1.8876953.0478516.0078125.0957031.0117188.1679688.0117188.2158203,0,.0712891-.0078125.1757812-.0234375.3110352l-1.1416016.0483398c-.0556641.0078125-.1313477.027832-.2270508.0595703-.0317383.0800781-.0478516.1396484-.0478516.1796875,0,.0478516.0239258.1240234.0717773.2275391.0639648.1357422.1240234.2792969.1796875.4311523l.7539062,2.1079102,1.7949219,4.5029297c.2080078.5507812.3476562.90625.4194336,1.0654297.2231445.5029297.5063477,1.2060547.8496094,2.1079102.1196289.3115234.4067383.9863281.8618164,2.0239258.0234375.0644531.0712891.1679688.1435547.3115234.359375-.5830078.8857422-1.6005859,1.5810547-3.0537109.5424805-1.1181641.8818359-1.8881836,1.0175781-2.3115234l-.0957031-.2402344-2.0571289-4.6777344c-.2709961-.5834961-.4824219-1.046875-.6337891-1.3911133-.3129883-.7197266-.5415039-1.1313477-.6855469-1.2353516s-.5693359-.1762695-1.2749023-.2163086l-.2524414-.0581055c-.0639648-.0698242-.0961914-.1518555-.0961914-.2456055.015625-.0693359.0517578-.1240234.1074219-.1630859.2558594-.0078125.4355469-.0117188.5390625-.0117188l.7548828.0234375.3828125-.0117188h.6591797l.5864258-.0117188h.6225586l1.1259766-.0600586c.0722656,0,.1796875.0043945.3232422.012207l.1918945-.012207c.1118164,0,.1953125.0258789.2514648.0776367.0556641.0522461.0839844.1103516.0839844.1738281,0,.0556641-.0166016.1196289-.0478516.1914062-.1279297.0478516-.3554688.0878906-.6826172.1201172-.4716797.0556641-.7451172.1074219-.8203125.1552734-.0761719.0478516-.1142578.1123047-.1142578.1918945,0,.1518555.3085938.9541016.9248047,2.4072266l1.2250977,2.7661133c.3735352-.734375.8823242-1.8920898,1.5268555-3.4726562.2714844-.6547852.4072266-1.1376953.4072266-1.4492188,0-.1679688-.0678711-.3193359-.2036133-.4550781-.1040039-.0957031-.3354492-.159668-.6948242-.1914062l-.2509766-.0361328-.2158203-.0957031-.0117188-.0957031c0-.0478516.0195312-.1162109.0595703-.2041016.0795898-.0634766.1513672-.0996094.2158203-.1074219.1191406-.015625.6743164.0039062,1.6640625.0595703h.8144531l.5029297.012207.8388672-.012207c.0634766.0083008.1591797.0283203.2871094.0600586.0639648.0639648.0957031.1240234.0957031.1796875,0,.0878906-.0341797.159668-.1015625.215332-.0683594.0561523-.2216797.1040039-.4614258.144043-.6069336.1040039-1.0620117.2631836-1.3652344.4790039-.199707.1513672-.3793945.3671875-.5395508.6464844l-.8710938,1.9404297c-.2070312.5908203-.378418,1.0341797-.5136719,1.3291016-.0556641.1835938-.1591797.4272461-.3105469.7304688l-.4892578,1.1376953c.0878906.2080078.2353516.5429688.4428711,1.0058594l1.2338867,2.8623047c.0556641.1279297.2211914.4833984.4970703,1.0664062.2753906.5825195.5048828,1.121582.6884766,1.6162109l.1791992-.574707.0239258-.0600586.7294922-1.9038086c.2548828-.5825195.5097656-1.1977539.7651367-1.8442383l.9208984-2.3232422,1.387207-3.9521484c.1435547-.4550781.2592773-.8945312.347168-1.3173828l.0356445-.1918945c.0244141-.0874023.0361328-.1513672.0361328-.1914062,0-.1118164-.0556641-.2133789-.1674805-.3051758s-.5073242-.2177734-1.1860352-.3774414c-.0634766-.0239258-.1274414-.0600586-.1914062-.1079102-.0239258-.0957031-.0361328-.171875-.0361328-.2275391l.012207-.0839844c.3354492-.015625.546875-.0234375.6347656-.0234375l.9223633.0234375,1.0419922-.0117188h.8979492l.359375.0239258.012207.1196289c0,.0556641-.0083008.1396484-.0244141.2514648-.5761719.2236328-.9345703.3833008-1.0742188.4790039-.1401367.0957031-.2480469.199707-.3242188.3115234-.0756836.1118164-.2177734.4150391-.4257812.9101562-.0239258.0478516-.2753906.7666016-.7529297,2.1557617-.1035156.2075195-.2109375.4829102-.3227539.8261719-.0317383.0961914-.1000977.2675781-.203125.5151367l-.1914062.4790039-.1313477.347168c-.5258789,1.453125-1.1035156,2.9741211-1.7329102,4.5629883l-1.2905273,3.5927734-.5141602,1.3652344c-.1230469.0161133-.215332.0239258-.2768555.0239258-.0537109,0-.1303711-.0039062-.2304688-.0117188-.1044922-.2958984-.3330078-.8544922-.6865234-1.6767578-.9165039-2.0917969-1.7402344-3.828125-2.4711914-5.2099609l-.1430664.2397461c-.40625.7749023-.8955078,1.800293-1.4682617,3.0776367l-.9311523,1.8925781c-.3818359.8066406-.6923828,1.3652344-.9306641,1.6767578l-.5478516.0117188-1.9365234-4.7421875-1.6015625-3.7607422-1.4111328-3.5688477c-.0957031-.2314453-.1791992-.4506836-.2509766-.6586914-.0556641-.1513672-.1074219-.3071289-.1552734-.4667969-.0795898-.2475586-.3027344-.8105469-.6689453-1.6889648-.1435547-.2314453-.3745117-.3789062-.6933594-.4428711-.3183594-.0639648-.5527344-.1279297-.7041016-.1914062Z"/>
        <path class="cls-1" d="m304.2539062,2.3359375c.0957031.6147461.1435547,1.2451172.1435547,1.8920898,0,.1274414-.0039062.2993164-.0117188.5151367-.1118164.0234375-.1958008.0356445-.2514648.0356445-.0478516,0-.1157227-.0078125-.2036133-.0239258-.3354492-.934082-.8823242-1.6523438-1.640625-2.1552734-.7587891-.503418-1.6967773-.7548828-2.8144531-.7548828-.5908203,0-1.0898438.0683594-1.4970703.2036133-.71875.2475586-1.3496094.5888672-1.8920898,1.0239258-.5429688.4355469-1.0019531.9541016-1.3774414,1.5566406-.375.6035156-.6728516,1.3339844-.8920898,2.1918945-.2197266.8583984-.3295898,1.7348633-.3295898,2.628418,0,1.7089844.2597656,3.1201172.7788086,4.2338867s1.2290039,1.9082031,2.1313477,2.3833008c.9023438.4746094,1.8125.7124023,2.730957.7124023l.5629883-.012207c.6386719-.0795898,1.0732422-.1552734,1.3051758-.2275391.5825195-.1674805,1.0639648-.3652344,1.4428711-.5927734.3793945-.2275391.7504883-.5488281,1.1142578-.9638672.362793-.4150391.671875-.8984375.9277344-1.4492188l.1435547-.0478516c.0400391,0,.1000977.0239258.1796875.0722656-.0078125.1914062-.015625.3154297-.0234375.3710938-.3359375,1.3491211-.5791016,2.2714844-.7304688,2.7666016-.1279297.0317383-.2880859.0795898-.4794922.1435547-.934082.3193359-2.1835938.4785156-3.7480469.4785156-1.2617188,0-2.2060547-.0854492-2.8330078-.2568359-.6264648-.171875-1.309082-.4394531-2.0478516-.8027344-.7382812-.3632812-1.3867188-.8442383-1.9458008-1.4433594-.559082-.5986328-1.0102539-1.3544922-1.3530273-2.269043-.34375-.9145508-.5151367-1.9101562-.5151367-2.987793,0-1.0224609.1352539-1.9140625.4072266-2.6767578.2709961-.7626953.6904297-1.5351562,1.2573242-2.3173828s1.2353516-1.4331055,2.0058594-1.9521484,1.6269531-.8862305,2.5693359-1.1015625c.6621094-.144043,1.6005859-.2158203,2.8139648-.2158203.8862305,0,1.7202148.1181641,2.5029297.3535156s1.3051758.4648438,1.5688477.6884766Z"/>
        <path class="cls-1" d="m308.71875,17.0664062c.0078125-.1201172.0395508-.2275391.0957031-.3232422.6225586-.1679688,1.2294922-.2797852,1.8203125-.3359375.390625-.0317383.6425781-.1201172.7543945-.2636719.0795898-.1035156.1274414-.4873047.1435547-1.1503906l.0839844-3.1640625-.012207-2.1455078.012207-2.8046875v-.7431641c.0078125-1.6865234-.0004883-2.7368164-.0239258-3.1523438-.0083008-.0800781-.0400391-.1918945-.0966797-.3359375-.2084961-.0957031-.3828125-.1591797-.5234375-.1914062s-.7680664-.1479492-1.8828125-.3476562c-.0083008-.0878906-.012207-.1513672-.012207-.1914062,0-.0483398.0039062-.1123047.012207-.1918945.1518555,0,.3994141.0092773.7436523.0273438l1.8232422.0683594,1.0556641.0239258.3120117-.0117188c.0400391,0,.1552734.0078125.3476562.0234375.4716797,0,.7436523-.0039062.8154297-.0117188l.9599609-.0717773c.6474609,0,1.1035156.012207,1.3671875.0356445-.0078125.144043-.0361328.2998047-.0839844.4672852-.0878906.0161133-.5029297.0380859-1.2451172.065918-.7426758.0283203-1.1699219.0742188-1.28125.1376953-.184082.1040039-.2753906.4233398-.2753906.9580078,0,.1279297-.0083008.3876953-.0244141.7783203v.71875l.0117188,2.2158203v.7539062l.0244141,3.9643555-.0361328,3.3774414.0117188.7421875c0,.2397461.0400391.3876953.1201172.4433594.1992188.0078125.7861328.015625,1.7607422.0239258h.8144531l2.0712891-.0717773c.5429688-.0161133.9301758-.0703125,1.1621094-.1621094.2314453-.0917969.6181641-.3608398,1.1611328-.8081055.3276367-.2875977.5830078-.5825195.7666016-.8862305.0400391-.0634766.1079102-.159668.2036133-.2871094.1518555-.2080078.3549805-.6230469.6108398-1.2460938h.3955078c-.0478516.2875977-.1000977.5595703-.15625.8144531-.2314453,1.1259766-.390625,2.0644531-.4785156,2.8144531-.0166016.1601562-.0322266.3076172-.0478516.4433594l-4.4794922-.1318359c-3.8481445,0-6.1313477.0361328-6.8500977.1074219-.2236328.0161133-.4594727.0244141-.706543.0244141h-1.2451172Z"/>
      </g>
      <g>
        <path class="cls-1" d="m134.2436523,35.2158203c.0639648.5273438.0957031.8310547.0957031.9101562l-.0478516,1.0664062c-.0161133.4550781-.0356445.7460938-.0600586.8740234-.0717773.0322266-.1318359.0478516-.1796875.0478516l-.1074219-.0239258c-.2558594-1.1176758-.6884766-1.9321289-1.2998047-2.4428711-.6103516-.5112305-1.3554688-.7666016-2.2333984-.7666016-.9101562,0-1.6567383.2553711-2.2392578.7666016-.5830078.5107422-.8740234,1.1054688-.8740234,1.7841797,0,.519043.203125.9941406.6103516,1.4248047.4072266.4316406,1.4492188,1.0766602,3.1259766,1.9355469,1.2773438.6601562,2.1914062,1.2001953,2.7421875,1.6196289s.9658203.9052734,1.2456055,1.456543c.2792969.5517578.4194336,1.1669922.4194336,1.8461914,0,.8549805-.2216797,1.6586914-.6650391,2.409668s-1.0400391,1.3164062-1.7900391,1.6962891c-.7509766.3793945-1.7451172.5693359-2.9824219.5693359-1.0776367,0-2.1118164-.171875-3.1015625-.5151367-.5830078-.2075195-.9384766-.375-1.065918-.5029297-.1279297-.1274414-.1918945-.2631836-.1918945-.4072266,0-.0874023.0078125-.199707.0244141-.3354492.1113281-.9414062.1713867-1.7163086.1796875-2.3232422.015625-.375.043457-.5947266.0834961-.6582031.0317383-.0561523.0917969-.0839844.1796875-.0839844.0717773,0,.1293945.0258789.1733398.0776367.0439453.0522461.0742188.1499023.0898438.293457.0878906.9819336.5429688,1.8603516,1.3652344,2.6347656.8144531.7744141,1.7368164,1.1616211,2.7666016,1.1616211.6308594,0,1.2119141-.1318359,1.7426758-.3950195.5307617-.2636719.9458008-.6445312,1.2456055-1.144043.2993164-.4985352.4492188-.9838867.4492188-1.4550781,0-.6464844-.2275391-1.2373047-.6826172-1.7719727-.4550781-.5351562-1.3696289-1.1601562-2.7426758-1.8745117-1.3735352-.7143555-2.2675781-1.2358398-2.6826172-1.5629883-.6704102-.534668-1.1733398-1.1015625-1.5092773-1.7001953-.2470703-.4633789-.3710938-1.0019531-.3710938-1.6171875,0-1.109375.4394531-2.0498047,1.3173828-2.8203125s2.0556641-1.1552734,3.5332031-1.1552734c.8144531,0,1.5166016.0917969,2.1074219.2753906.4316406.1435547.8745117.3789062,1.3295898.7060547Z"/>
        <path class="cls-1" d="m142.8393555,38.1621094l.371582.0117188.0478516,1.1376953-.0244141,1.4736328c.1518555.0078125.2475586.0117188.2875977.0117188.2075195,0,.6030273-.015625,1.1860352-.0478516.375-.0239258.734375-.0361328,1.0771484-.0361328.1601562,0,.3994141.0039062.71875.012207.0161133.159668.0244141.2875977.0244141.3833008,0,.1035156-.0244141.2675781-.0722656.4907227h-.203125l-1.8564453.0600586-.9223633.0239258-.215332.0239258c-.0644531.199707-.0957031.4311523-.0957031.6943359l.0356445,1.796875-.0239258,3.1611328c0,.8310547.1074219,1.3818359.3232422,1.6533203.2075195.2792969.519043.4189453.934082.4189453.2075195,0,.5991211-.0639648,1.1738281-.1914062.175293-.0400391.4111328-.171875.706543-.3955078h.1074219c.0722656,0,.1298828.0219727.1738281.065918s.065918.1020508.065918.1733398l-.012207.0839844c-.3427734.3754883-.7363281.6489258-1.1791992.8203125-.4428711.171875-1.0317383.2578125-1.7666016.2578125-.519043,0-.9477539-.1201172-1.2875977-.359375-.3388672-.2397461-.5566406-.5229492-.6523438-.8505859-.0957031-.3271484-.1435547-1.0419922-.1435547-2.1435547l.0478516-2.6943359-.012207-1.2939453v-.4785156c0-.2236328-.0083008-.4472656-.0239258-.6708984l-.2036133-.0117188-.9819336.0356445-.0957031.012207c-.0878906,0-.1542969-.0200195-.1977539-.0600586-.0439453-.0395508-.065918-.0874023-.065918-.144043,0-.0957031.0302734-.1733398.0898438-.2333984.0595703-.0595703.2412109-.1533203.5449219-.28125.2075195-.0878906.4492188-.253418.7246094-.4970703.2753906-.2431641.5087891-.5126953.7001953-.8085938.0961914-.1591797.2314453-.4628906.4072266-.9101562.1279297-.3271484.2236328-.5585938.2875977-.6943359Z"/>
        <path class="cls-1" d="m149.9023437,40.5932617h.8945312l.394043.0239258.3100586-.0239258c.8193359,0,1.328125.0083008,1.5273438.0239258l.0117188.2275391c0,1.1259766-.015625,2.2158203-.0478516,3.2695312-.0239258.6230469-.0361328.9780273-.0361328,1.0654297,0,1.4057617.0458984,2.2841797.1381836,2.6347656.0922852.3515625.3081055.6328125.6479492.8447266.3408203.2114258.7509766.3173828,1.230957.3173828.5839844,0,1.1420898-.1220703,1.6743164-.3652344.5322266-.2436523.9863281-.5410156,1.3623047-.8925781.0400391-.3032227.0600586-.6386719.0600586-1.0058594,0-1.1894531.012207-1.9921875.0361328-2.4072266.0083008-.2470703.012207-.4628906.012207-.6464844,0-1.293457-.0644531-2.0239258-.1914062-2.1914062-.1279297-.1679688-.6152344-.2958984-1.4614258-.3837891-.2797852-.03125-.4829102-.0595703-.6108398-.0834961-.0639648-.1040039-.0957031-.1835938-.0957031-.2397461l.0361328-.1318359c.2070312-.0234375.4111328-.0356445.6103516-.0356445l1.9042969.0239258c.6787109-.015625,1.0380859-.0239258,1.078125-.0239258.0878906,0,.1713867.0043945.2509766.012207l.0244141.8740234c-.0561523,1.2138672-.0878906,2.7148438-.0957031,4.5029297l-.0244141.9697266.0478516,1.6289062c.0722656.1279297.1357422.2041016.1918945.2275391.0957031.0400391.2915039.0600586.5869141.0600586h.1079102c.1035156,0,.3989258.0239258.8857422.0717773.0078125.1040039.012207.1796875.012207.2275391v.1318359c-1.0698242.2314453-1.9360352.4628906-2.5991211.6943359-.2631836.0878906-.4868164.1518555-.6704102.1918945-.0400391-.2792969-.0600586-.4506836-.0600586-.5151367v-.9697266c0-.0400391-.0039062-.1479492-.0117188-.3232422-.1035156.0712891-.2236328.1591797-.359375.2631836-.6308594.4868164-1.2973633.8979492-2,1.2333984-.4707031.2319336-.9257812.347168-1.3652344.347168-.8378906,0-1.5205078-.3110352-2.0478516-.9335938-.5351562-.6230469-.8022461-1.6845703-.8022461-3.1855469,0-.0800781.0039062-.2236328.012207-.4316406.03125-.3828125.0478516-.6503906.0478516-.8022461,0-.0556641-.0043945-.2314453-.012207-.5268555-.0083008-.1279297-.012207-.2392578-.012207-.3354492,0-.0717773.0039062-.2333984.012207-.4848633.0078125-.2519531.012207-.4291992.012207-.5332031,0-.1357422-.0043945-.2553711-.012207-.359375l-.0239258-.6347656.0117188-.3349609c0-.1279297-.0634766-.2431641-.1914062-.3476562-.5029297-.1352539-.8320312-.2128906-.9882812-.2333984-.1552734-.0195312-.2929688-.0537109-.4130859-.1015625v-.3833008Z"/>
        <path class="cls-1" d="m173.2050781,41.2998047l.0117188-.347168-.0117188-1.4013672.0117188-2.6464844c0-.7348633-.0800781-1.2016602-.2392578-1.4013672-.1601562-.199707-.6269531-.402832-1.4013672-.6108398-.0556641-.015625-.1435547-.0400391-.2636719-.0717773v-.1313477c0-.0800781.0078125-.1679688.0244141-.2636719,1.0854492-.1118164,2.0195312-.2998047,2.8017578-.5629883l.6113281-.012207c.03125.5429688.0478516,1.1499023.0478516,1.8203125l-.0478516,4.6113281.0834961,5.1972656-.0356445,2.7666016c0,.5668945.0395508.8857422.1196289.9580078.159668.159668.5107422.2431641,1.0537109.2514648.1118164,0,.2636719.0083008.4550781.0239258v.2158203c0,.0556641-.0039062.1152344-.012207.1791992-.2470703.0561523-.5029297.1079102-.7661133.1557617l-1.7368164.3354492c-.2553711.0478516-.4589844.0717773-.6103516.0717773v-1.1494141c-.1357422.0400391-.3476562.1191406-.6347656.2392578-1.2456055.5268555-2.3916016.7900391-3.4375.7900391-.6303711,0-1.2734375-.2050781-1.9277344-.6162109-.6547852-.4111328-1.1577148-.984375-1.5087891-1.71875-.3515625-.734375-.5273438-1.4853516-.5273438-2.2514648,0-.6865234.1157227-1.3432617.3476562-1.9702148.2314453-.6264648.534668-1.1474609.9101562-1.5625.2392578-.2714844.5786133-.5410156,1.0175781-.8085938.4394531-.2675781.8027344-.4370117,1.0898438-.5087891.7109375-.1835938,1.1855469-.2753906,1.425293-.2753906,1.0776367,0,1.9643555.159668,2.6586914.4785156.2158203.1044922.3789062.1757812.4912109.2158203Zm.0117188,7.4013672c.0322266-.5351562.0478516-1.6367188.0478516-3.3056641,0-1.4130859-.0654297-2.3051758-.1967773-2.6767578-.1313477-.3710938-.4594727-.722168-.984375-1.0537109-.5249023-.3310547-1.1137695-.4970703-1.7651367-.4970703-.9150391,0-1.6904297.3554688-2.3271484,1.065918-.6357422.7104492-.9541016,1.7602539-.9541016,3.1499023,0,1.2216797.34375,2.1953125,1.0322266,2.921875.6875.7265625,1.5449219,1.0898438,2.5708008,1.0898438.5883789,0,1.1254883-.0795898,1.6108398-.2392578.4848633-.1601562.8066406-.3115234.9658203-.4550781Z"/>
        <path class="cls-1" d="m179.8129883,40.5576172c.175293-.0161133.3232422-.0244141.4428711-.0244141h.5751953l.7783203-.0234375,1.0175781.0356445.8266602-.0239258c.4389648,0,.8344727.0283203,1.1855469.0839844.0317383.0795898.0478516.1435547.0478516.1914062l-.012207.0957031c-.1669922.0800781-.4267578.1357422-.7783203.1679688-.4951172.0400391-.8500977.1279297-1.0654297.2631836l-.0244141.1318359c0,.0800781.0322266.199707.0966797.3598633.0400391.0961914.0917969.2402344.15625.4321289.1762695.5917969.5566406,1.7353516,1.1425781,3.4311523.4248047,1.2236328.8173828,2.2753906,1.1782227,3.1552734.2202148-.4824219.4711914-1.09375.7543945-1.8339844l1.0053711-2.8432617c.2329102-.6191406.4091797-1.2402344.5288086-1.862793.0478516-.2475586.0722656-.4433594.0722656-.5869141,0-.1201172-.0522461-.2314453-.15625-.3354492-.1035156-.1035156-.3110352-.1914062-.6220703-.2631836-.5673828-.1435547-.8745117-.2333984-.9228516-.2695312-.0478516-.0361328-.0756836-.1137695-.0834961-.2333984.0478516-.0400391.1040039-.0722656.1674805-.0957031h.7426758l.8022461.0117188,1.1977539-.0117188.7666016.0117188.1914062-.0117188c.0561523,0,.1479492.0078125.2758789.0234375.0791016.0400391.1191406.1040039.1191406.1918945,0,.0795898-.0356445.1518555-.1074219.215332l-.2392578.0361328c-.4633789.0639648-.8188477.1835938-1.0664062.359375-.1357422.0957031-.2509766.2954102-.347168.5986328-.0317383.1118164-.0834961.2558594-.1557617.4311523-.0400391.0957031-.0976562.2553711-.1733398.4790039-.0756836.2231445-.1733398.4863281-.2929688.7895508l-.1435547.3349609-.012207.0600586-2.0332031,5.3603516-1.4833984,4.0332031c-.0961914.2001953-.2080078.4482422-.3359375.7451172-.3037109.5683594-.4838867.8808594-.5395508.9370117-.2397461.2963867-.4477539.5043945-.6235352.6245117l-.6118164.2646484c-.1196289.0322266-.2475586.0478516-.3837891.0478516-.3598633,0-.6235352-.078125-.7915039-.2353516-.1679688-.1567383-.2519531-.3720703-.2519531-.6455078,0-.2578125.1240234-.4912109.3720703-.699707.0800781-.0239258.1601562-.0561523.2397461-.0957031l.1557617-.0361328c.7119141.1274414,1.1552734.1918945,1.3310547.1918945.1679688-.0878906.2919922-.1914062.3720703-.3105469.3916016-.5810547.7285156-1.2290039,1.0097656-1.9433594.28125-.7148438.4228516-1.1967773.4228516-1.4467773,0-.2714844-.105957-.6665039-.3173828-1.1860352l-1.331543-3.5205078c-.184082-.4550781-.7319336-1.9404297-1.6430664-4.4550781-.0561523-.159668-.1279297-.2792969-.2158203-.359375l-.8144531-.2993164-.2514648-.0478516c-.1357422-.0561523-.2036133-.1357422-.2036133-.2397461l.0600586-.1552734Z"/>
        <path class="cls-1" d="m193.8339844,54.2578125l.0117188-.3710938c.0957031-.0478516.1914062-.0917969.2875977-.1318359.8383789-.3994141,1.3989258-.8125,1.6826172-1.2392578.2832031-.4277344.425293-.8085938.425293-1.144043,0-.2236328-.0800781-.4194336-.2397461-.5864258-.159668-.1679688-.4331055-.2939453-.8203125-.3779297-.387207-.0834961-.640625-.1494141-.7602539-.1972656-.0800781-.0322266-.1796875-.1118164-.2998047-.2392578-.0795898-.1679688-.1196289-.3276367-.1196289-.4794922,0-.375.0756836-.6303711.2275391-.7666016.3193359-.2792969.6508789-.4189453.9941406-.4189453.6069336,0,1.1333008.2333984,1.5805664.7006836s.6708984,1.0517578.6708984,1.7543945c0,.4873047-.1601562,1.0136719-.4790039,1.5810547-.3198242.5664062-.8022461,1.0253906-1.4492188,1.3769531s-1.2172852.53125-1.7124023.5390625Z"/>
        <path class="cls-1" d="m205.543457,40.6650391c1.987793.0478516,3.0454102.0722656,3.1733398.0722656.0161133.175293.0244141.3071289.0244141.3945312,0,.1044922-.012207.2597656-.0361328.4672852-.199707.0322266-.4033203.0483398-.6108398.0483398h-.4550781c-.9897461,0-1.6762695.0356445-2.0600586.1074219-.015625.1835938-.0234375.3232422-.0234375.4189453,0,.0400391.0039062.1000977.0117188.1796875.0400391,1.2539062.0595703,2.012207.0595703,2.2753906l-.0234375,3.078125c0,.4550781.0751953.8339844.2275391,1.1376953.0874023.1757812.2509766.3154297.4907227.4189453.1518555.0722656.519043.1435547,1.1020508.2158203.4384766.0639648.734375.1074219.8857422.1318359,0,.1674805-.0117188.2954102-.0356445.3828125l-.1674805.012207c-.3837891-.0239258-.8828125-.043457-1.4970703-.0600586l-.8867188-.0356445-3.0175781.0957031h-.3955078l-.0117188-.371582c.1201172-.0234375.2075195-.043457.2636719-.0595703.6865234-.1279297,1.1293945-.2714844,1.3291016-.4311523.0800781-.0639648.1357422-.1796875.1679688-.347168.015625-.0957031.0234375-.5429688.0234375-1.3413086,0-2.2758789-.0195312-4.0917969-.0595703-5.4492188-.2080078-.0639648-.5268555-.1035156-.9580078-.1196289-.1601562,0-.4111328-.015625-.7548828-.0478516l-.0234375-.1337891c0-.0976562.0395508-.1787109.1196289-.2436523.0317383-.0317383.3666992-.1977539,1.0058594-.4995117.2475586-.1113281.4233398-.25.5268555-.4165039.0556641-.0878906.0878906-.2719727.0957031-.5522461.0078125-.1279297.0322266-.3476562.0722656-.659668.0957031-.8237305.1713867-1.331543.2275391-1.5239258.1435547-.5356445.3847656-1.0693359.7246094-1.6015625.3388672-.5317383.7480469-.9975586,1.2275391-1.3974609.3510742-.2880859.7480469-.5039062,1.1914062-.6479492s.9482422-.2163086,1.5146484-.2163086c.7587891,0,1.3134766.1230469,1.6650391.3691406.2392578.1665039.359375.3808594.359375.6425781,0,.222168-.0839844.4121094-.2519531.5712891-.1674805.1582031-.375.2373047-.6225586.2373047-.3032227,0-.6303711-.0751953-.9819336-.2275391-.6630859-.2631836-1.0380859-.4067383-1.1259766-.4306641-.1513672-.0400391-.3071289-.0600586-.4667969-.0600586-.4394531,0-.840332.1401367-1.2036133.4213867-.3637695.2802734-.5927734.625-.6889648,1.0341797-.0957031.4086914-.1435547,1.3271484-.1435547,2.7539062,0,.5126953.0039062.9824219.012207,1.4072266Z"/>
        <path class="cls-1" d="m212.4863281,50.0302734l-.0478516-.1557617c0-.0556641.0361328-.1391602.1079102-.2514648l.706543-.1435547.9941406-.1791992c.0800781-.0395508.1357422-.0952148.1679688-.1674805.0478516-.1035156.0712891-.4101562.0712891-.9208984,0-2.7099609-.015625-4.2739258-.0478516-4.6923828-.0317383-.418457-.1035156-.6835938-.215332-.7949219-.1118164-.1118164-.3994141-.1992188-.8623047-.2631836-.2714844-.0400391-.4868164-.0917969-.6469727-.1557617l.0478516-.3652344c.8388672-.34375,1.4013672-.6401367,1.6889648-.8886719.3989258-.3598633.7382812-.8320312,1.0180664-1.4165039l.4072266.012207c.0478516.3989258.0717773,1.2851562.0717773,2.6582031l-.012207.2041016c0,.0478516.0078125.1235352.0244141.2275391.3027344-.5512695.6826172-1.0581055,1.1376953-1.5214844l.2753906-.2753906c.1113281-.1274414.2192383-.2275391.3232422-.2993164.5585938-.3354492.9736328-.5029297,1.2451172-.5029297.3515625,0,.6386719.1176758.8623047.3530273.2236328.2358398.3354492.5253906.3354492.8681641,0,.2719727-.0795898.4833984-.2397461.6347656-.215332.2001953-.4628906.2998047-.7421875.2998047-.1279297,0-.3793945-.0678711-.7543945-.2036133-.3754883-.1357422-.6225586-.2036133-.7426758-.2036133-.2236328,0-.3789062.0361328-.4667969.1074219-.2236328.1757812-.4951172.5351562-.8144531,1.078125-.2475586.4072266-.3710938.7822266-.3710938,1.1259766l.0595703,1.9804688.0239258,2.3759766c.0239258.2724609.0561523.4482422.0961914.5283203.03125.0561523.1113281.1240234.2392578.2041016.8623047.0722656,1.3730469.1240234,1.5332031.15625.1113281.0078125.1953125.015625.2509766.0234375.3432617.0083008.5830078.0566406.71875.1445312.0717773.0400391.1074219.0996094.1074219.1796875,0,.0478516-.0317383.1113281-.0957031.1914062l-1.3291016-.0239258-.5029297-.012207-.7304688.012207h-1.2216797l-.6586914.0356445-2.012207.0361328Z"/>
        <path class="cls-1" d="m232.6035156,43.6708984l-4.8027344.0351562-.9101562-.0009766c-.3671875,0-.7421875.0166016-1.1254883.0498047-.0717773.2392578-.1079102.4033203-.1079102.4912109l.0117188.1196289v.1196289l-.0117188.5869141c0,.4873047.1538086,1.0839844.4609375,1.7905273.3076172.706543.746582,1.2456055,1.3173828,1.6166992.5712891.3710938,1.2832031.5688477,2.1376953.5927734.4550781-.0239258.8183594-.0800781,1.0898438-.1679688.2714844-.0874023.6547852-.2910156,1.1499023-.6103516l.8623047-.7070312.0717773.4794922c0,.0556641-.0039062.1157227-.0117188.1796875-.359375.4550781-.8144531.8544922-1.3652344,1.1972656-.5512695.34375-1.1103516.5947266-1.6767578.7548828-.2714844.0712891-.71875.1074219-1.3417969.1074219-.5664062,0-1.1254883-.1157227-1.6762695-.347168-.8144531-.3510742-1.4550781-.9165039-1.9223633-1.6948242-.4667969-.7783203-.7001953-1.7226562-.7001953-2.8320312,0-.3515625.0654297-.8027344.1972656-1.3535156s.3691406-1.1376953.7128906-1.7602539c.2314453-.4233398.5146484-.7705078.8500977-1.0419922.4790039-.3833008.8979492-.6508789,1.2573242-.8022461.519043-.2158203,1.1220703-.3232422,1.8085938-.3232422.7421875,0,1.3491211.1357422,1.8203125.4072266.6386719.3588867,1.1157227.8222656,1.4311523,1.3886719.3149414.5673828.4731445,1.0859375.4731445,1.5571289v.1674805Zm-6.6826172-.4306641h.5625c.4072266,0,1.6210938-.0644531,3.640625-.1918945.3193359-.0161133.515625-.0478516.5869141-.0957031.144043-.1518555.2158203-.2875977.2158203-.4072266,0-.2475586-.0800781-.5288086-.2392578-.8442383-.1601562-.3154297-.4052734-.5585938-.7368164-.7304688s-.7167969-.2578125-1.1557617-.2578125c-.9262695,0-1.6689453.3476562-2.2275391,1.0419922-.4311523.5273438-.6464844,1.0224609-.6464844,1.4853516Z"/>
        <path class="cls-1" d="m245.762207,43.6708984l-4.8022461.0351562-.9101562-.0009766c-.3671875,0-.7421875.0166016-1.1259766.0498047-.0712891.2392578-.1074219.4033203-.1074219.4912109l.0117188.1196289v.1196289l-.0117188.5869141c0,.4873047.1533203,1.0839844.4609375,1.7905273.3071289.706543.7460938,1.2456055,1.3173828,1.6166992.5708008.3710938,1.2832031.5688477,2.1376953.5927734.4550781-.0239258.8183594-.0800781,1.0898438-.1679688.2714844-.0874023.6542969-.2910156,1.1494141-.6103516l.8623047-.7070312.0722656.4794922c0,.0556641-.0043945.1157227-.012207.1796875-.359375.4550781-.8144531.8544922-1.3652344,1.1972656-.5512695.34375-1.1098633.5947266-1.6767578.7548828-.2714844.0712891-.7182617.1074219-1.3413086.1074219-.5668945,0-1.1259766-.1157227-1.6767578-.347168-.8144531-.3510742-1.4550781-.9165039-1.921875-1.6948242s-.7006836-1.7226562-.7006836-2.8320312c0-.3515625.065918-.8027344.1977539-1.3535156s.3691406-1.1376953.7124023-1.7602539c.2314453-.4233398.5151367-.7705078.8500977-1.0419922.4794922-.3833008.8984375-.6508789,1.2578125-.8022461.5185547-.2158203,1.121582-.3232422,1.8085938-.3232422.7421875,0,1.3486328.1357422,1.8203125.4072266.6386719.3588867,1.1152344.8222656,1.4306641,1.3886719.3154297.5673828.4731445,1.0859375.4731445,1.5571289v.1674805Zm-6.6821289-.4306641h.5625c.4072266,0,1.6206055-.0644531,3.640625-.1918945.3193359-.0161133.5151367-.0478516.5869141-.0957031.1435547-.1518555.2158203-.2875977.2158203-.4072266,0-.2475586-.0800781-.5288086-.2397461-.8442383s-.4052734-.5585938-.7368164-.7304688c-.3310547-.171875-.7167969-.2578125-1.1552734-.2578125-.9267578,0-1.6689453.3476562-2.2275391,1.0419922-.4316406.5273438-.6464844,1.0224609-.6464844,1.4853516Z"/>
        <path class="cls-1" d="m268.0317383,35.2158203c.0639648.5273438.0957031.8310547.0957031.9101562l-.0478516,1.0664062c-.0161133.4550781-.0356445.7460938-.0600586.8740234-.0717773.0322266-.1318359.0478516-.1796875.0478516l-.1074219-.0239258c-.2558594-1.1176758-.6884766-1.9321289-1.2998047-2.4428711-.6103516-.5112305-1.3554688-.7666016-2.2333984-.7666016-.9101562,0-1.6567383.2553711-2.2392578.7666016-.5830078.5107422-.8740234,1.1054688-.8740234,1.7841797,0,.519043.203125.9941406.6103516,1.4248047.4072266.4316406,1.4492188,1.0766602,3.1259766,1.9355469,1.2773438.6601562,2.1914062,1.2001953,2.7421875,1.6196289s.9658203.9052734,1.2456055,1.456543c.2792969.5517578.4194336,1.1669922.4194336,1.8461914,0,.8549805-.2216797,1.6586914-.6650391,2.409668s-1.0400391,1.3164062-1.7900391,1.6962891c-.7509766.3793945-1.7451172.5693359-2.9824219.5693359-1.0776367,0-2.1118164-.171875-3.1015625-.5151367-.5830078-.2075195-.9384766-.375-1.065918-.5029297-.1279297-.1274414-.1918945-.2631836-.1918945-.4072266,0-.0874023.0078125-.199707.0244141-.3354492.1113281-.9414062.1713867-1.7163086.1796875-2.3232422.015625-.375.043457-.5947266.0834961-.6582031.0317383-.0561523.0917969-.0839844.1796875-.0839844.0717773,0,.1293945.0258789.1733398.0776367.0439453.0522461.0742188.1499023.0898438.293457.0878906.9819336.5429688,1.8603516,1.3652344,2.6347656.8144531.7744141,1.7368164,1.1616211,2.7666016,1.1616211.6308594,0,1.2119141-.1318359,1.7426758-.3950195.5307617-.2636719.9458008-.6445312,1.2456055-1.144043.2993164-.4985352.4492188-.9838867.4492188-1.4550781,0-.6464844-.2275391-1.2373047-.6826172-1.7719727-.4550781-.5351562-1.3696289-1.1601562-2.7426758-1.8745117-1.3735352-.7143555-2.2675781-1.2358398-2.6826172-1.5629883-.6704102-.534668-1.1733398-1.1015625-1.5092773-1.7001953-.2470703-.4633789-.3710938-1.0019531-.3710938-1.6171875,0-1.109375.4394531-2.0498047,1.3173828-2.8203125s2.0556641-1.1552734,3.5332031-1.1552734c.8144531,0,1.5166016.0917969,2.1074219.2753906.4316406.1435547.8745117.3789062,1.3295898.7060547Z"/>
        <path class="cls-1" d="m273.4897461,56.2573242c-.0083008-.090332-.012207-.1723633-.012207-.2456055,0-.0576172.0078125-.1269531.0244141-.2089844l1.2060547-.2392578c.1933594-.0957031.3496094-.2114258.4707031-.3466797.0395508-.144043.0595703-.2875977.0595703-.4311523,0-1.2285156-.0322266-3.5698242-.0957031-7.0239258l-.0361328-4.3798828c-.015625-.6933594-.0595703-1.1328125-.1318359-1.3164062-.0400391-.0952148-.0996094-.1708984-.1796875-.2270508-.1992188-.1518555-.5986328-.2792969-1.1972656-.3828125l.0717773-.3652344c.8623047-.3686523,1.4389648-.6547852,1.7304688-.8588867.2915039-.2045898.5688477-.4912109.8325195-.859375l.1435547-.0361328c.0556641,0,.1357422.0234375.2392578.0717773-.0078125.5029297-.0117188.8344727-.0117188.9936523l.0117188,1.3173828c.5908203-.4467773,1.2060547-.7802734,1.8447266-1,.6386719-.2192383,1.3007812-.3291016,1.987793-.3291016,1.2294922,0,2.2675781.4331055,3.1137695,1.2993164.8461914.8666992,1.2695312,1.9819336,1.2695312,3.347168,0,1.0141602-.2382812,1.9243164-.7138672,2.7304688-.4755859.8066406-1.1308594,1.4091797-1.9667969,1.8085938s-1.6767578.5986328-2.5244141.5986328c-.7197266,0-1.543457-.1953125-2.4707031-.5869141-.1523438-.0634766-.2880859-.1191406-.4082031-.1674805-.015625.6401367-.0234375,1.2080078-.0234375,1.7041016,0,2.4716797.0678711,3.8554688.2041016,4.1518555.0722656.159668.296875.2558594.6738281.2875977.6420898.0478516,1.0673828.1401367,1.2763672.2758789.1201172.0712891.2001953.215332.2402344.4306641l-1.1879883.0244141-1.0800781-.0244141-1.800293.012207-1.5600586-.0244141Zm3.1376953-13.7119141c-.0161133.1118164-.0239258.215332-.0239258.3110352,0,2.8505859.027832,4.4472656.0839844,4.7910156.1113281.6303711.3349609,1.0732422.6708984,1.3291016.5185547.4072266,1.2607422.6103516,2.2275391.6103516.9975586,0,1.8398438-.3447266,2.5263672-1.0356445.6865234-.6904297,1.0302734-1.5869141,1.0302734-2.6884766,0-1.3256836-.3632812-2.3754883-1.0898438-3.1499023s-1.6845703-1.1616211-2.8740234-1.1616211c-.503418,0-.9667969.0820312-1.3896484.2456055-.4228516.1640625-.8105469.4130859-1.1616211.7485352Z"/>
        <path class="cls-1" d="m298.3969727,48.3657227c.0478516.1040039.0717773.1796875.0717773.2275391,0,.1196289-.0957031.331543-.2871094.6347656-.2480469.3989258-.5234375.690918-.8266602.8740234-.1918945.1196289-.4550781.1796875-.7905273.1796875-.574707,0-1.0058594-.175293-1.2929688-.5268555-.1757812-.2075195-.2998047-.5791016-.371582-1.1137695l-1.3413086.934082c-.4711914.2714844-.8305664.4433594-1.078125.5146484-.3994141.1040039-.8779297.15625-1.4365234.15625-.4072266,0-.7290039-.1220703-.9643555-.3652344-.2358398-.2436523-.3530273-.5571289-.3530273-.9404297,0-.5507812.3378906-1.2094727,1.0136719-1.9760742.6767578-.7661133,1.5947266-1.3930664,2.7548828-1.8803711.8164062-.3427734,1.3164062-.5625,1.5004883-.6582031.0161133-.2636719.0239258-.5507812.0239258-.8623047,0-1.0136719-.1420898-1.7006836-.4262695-2.0600586-.284668-.359375-.690918-.5385742-1.2192383-.5385742-.5527344,0-1.0693359.215332-1.5498047.6464844-.296875.2714844-.5205078.7822266-.6728516,1.5327148-.0478516.2075195-.1396484.4311523-.2753906.6704102-.34375.2236328-.6191406.3359375-.8261719.3359375-.1757812,0-.3354492-.0517578-.4794922-.15625-.0795898-.0556641-.1191406-.1191406-.1191406-.1914062,0-.2075195.2211914-.6767578.6640625-1.4072266.4433594-.7304688,1.0019531-1.2773438,1.6767578-1.640625s1.2636719-.5449219,1.7666016-.5449219c.6865234,0,1.1972656.0620117,1.5332031.1855469.3349609.1240234.6303711.3417969.8857422.652832.2558594.3110352.4111328.6508789.4672852,1.0180664.0317383.1757812.0478516.8022461.0478516,1.8798828l-.0356445,1.9042969.0117188,1.3896484c0,.1835938-.0039062.3388672-.0117188.4667969-.0083008.2314453-.012207.4033203-.012207.5146484,0,.2636719.0756836.4755859.2275391.6347656.1518555.1601562.3310547.2397461.5385742.2397461.3037109,0,.5634766-.1518555.7788086-.4550781l.1435547-.1918945c.0400391-.0234375.1274414-.0517578.2636719-.0834961Zm-3.5092773-.347168c.0556641-1.0141602.0839844-1.7285156.0839844-2.1435547,0-.2158203-.0117188-.5073242-.0361328-.8745117-.5366211.1918945-1.1054688.4829102-1.7060547.8745117-.6005859.390625-1.0776367.8417969-1.4301758,1.3530273-.2563477.3671875-.3842773.7143555-.3842773,1.0415039,0,.3115234.105957.5712891.3183594.7788086.2119141.2075195.4785156.3110352.7988281.3110352.2485352,0,.5488281-.0874023.9013672-.2631836.4648438-.2314453.9492188-.5908203,1.4541016-1.0776367Z"/>
        <path class="cls-1" d="m311.1367187,47.8027344l.0117188.7783203c-.6230469.6630859-1.237793,1.1259766-1.8442383,1.3896484-.6069336.2631836-1.3217773.3950195-2.144043.3950195-.894043,0-1.7001953-.2338867-2.4189453-.7006836s-1.2714844-1.1279297-1.6586914-1.9819336-.5805664-1.6928711-.5805664-2.5151367c0-.9023438.2333984-1.7543945.7001953-2.5566406.4672852-.8027344,1.0859375-1.4013672,1.8564453-1.796875.7705078-.3945312,1.7382812-.5927734,2.9042969-.5927734,1.1176758,0,1.9677734.1918945,2.5507812.5751953.3271484.2236328.4912109.5107422.4912109.8623047,0,.2558594-.0839844.4667969-.2519531.6347656-.1674805.1674805-.3828125.2514648-.6464844.2514648-.3994141,0-.8383789-.2475586-1.3173828-.7426758-.2954102-.3032227-.5625-.5126953-.8022461-.6289062-.2397461-.1152344-.5073242-.1733398-.8022461-.1733398-.7109375,0-1.3017578.2915039-1.7724609.8745117-.6552734.8300781-.9824219,1.8720703-.9824219,3.1254883,0,1.293457.3354492,2.3232422,1.0058594,3.0893555.6708984.7666016,1.453125,1.1503906,2.3476562,1.1503906.6230469,0,1.1757812-.1020508,1.6586914-.3056641s1.0478516-.5810547,1.6948242-1.1318359Z"/>
        <path class="cls-1" d="m324.2114258,43.6708984l-4.8022461.0351562-.9101562-.0009766c-.3671875,0-.7421875.0166016-1.1259766.0498047-.0712891.2392578-.1074219.4033203-.1074219.4912109l.0117188.1196289v.1196289l-.0117188.5869141c0,.4873047.1533203,1.0839844.4609375,1.7905273.3071289.706543.7460938,1.2456055,1.3173828,1.6166992.5708008.3710938,1.2832031.5688477,2.1376953.5927734.4550781-.0239258.8183594-.0800781,1.0898438-.1679688.2714844-.0874023.6542969-.2910156,1.1494141-.6103516l.8623047-.7070312.0722656.4794922c0,.0556641-.0043945.1157227-.012207.1796875-.359375.4550781-.8144531.8544922-1.3652344,1.1972656-.5512695.34375-1.1098633.5947266-1.6767578.7548828-.2714844.0712891-.7182617.1074219-1.3413086.1074219-.5668945,0-1.1259766-.1157227-1.6767578-.347168-.8144531-.3510742-1.4550781-.9165039-1.921875-1.6948242s-.7006836-1.7226562-.7006836-2.8320312c0-.3515625.065918-.8027344.1977539-1.3535156s.3691406-1.1376953.7124023-1.7602539c.2314453-.4233398.5151367-.7705078.8500977-1.0419922.4794922-.3833008.8984375-.6508789,1.2578125-.8022461.5185547-.2158203,1.121582-.3232422,1.8085938-.3232422.7421875,0,1.3486328.1357422,1.8203125.4072266.6386719.3588867,1.1152344.8222656,1.4306641,1.3886719.3154297.5673828.4731445,1.0859375.4731445,1.5571289v.1674805Zm-6.6821289-.4306641h.5625c.4072266,0,1.6206055-.0644531,3.640625-.1918945.3193359-.0161133.5151367-.0478516.5869141-.0957031.1435547-.1518555.2158203-.2875977.2158203-.4072266,0-.2475586-.0800781-.5288086-.2397461-.8442383s-.4052734-.5585938-.7368164-.7304688c-.3310547-.171875-.7167969-.2578125-1.1552734-.2578125-.9267578,0-1.6689453.3476562-2.2275391,1.0419922-.4316406.5273438-.6464844,1.0224609-.6464844,1.4853516Z"/>
      </g>
    </g>
  </g>
</svg>