<?xml version="1.0" encoding="UTF-8"?>
<svg id="_レイヤー_2" data-name="レイヤー 2" xmlns="http://www.w3.org/2000/svg" viewBox="0 0 108.4623957 42.3365515">
  <defs>
    <style>
      .cls-1 {
        fill: #fff;
        stroke-width: 0px;
      }
    </style>
  </defs>
  <g id="_レイヤー_1-2" data-name="レイヤー 1">
    <g>
      <g>
        <path class="cls-1" d="m12.7089089,20.8417668h2.0590849c.673624,0,1.5262605.1157164,1.5262605.8988707v7.0515581s-2.3122695.8377433-6.5008881.8377433c-4.1838175,0-9.7933663-2.2691575-9.7933663-8.5581111,0-6.2682928,5.8396098-8.7274234,10.1631491-8.7274234,1.9371957,0,4.3694927.1153244,4.3694927,1.1889096v2.1002371c-1.6443284-1.3209042-2.3069785-1.555361-4.8028657-1.555361-2.4950053,0-6.9587564,1.6175794-6.9587564,6.8462601,0,5.2349779,5.9912854,8.3442303,10.9645412,6.3769543v-4.0087372c0-.8400817-.0487949-2.4509004-1.026652-2.4509004Z"/>
        <path class="cls-1" d="m44.017581,29.2103814h5.2923791c-1.4659038-.5373315-2.0663355-2.266806-2.5462497-3.5274381-.4965711-1.2559291-4.3235392-10.4033999-4.7530909-11.6716747-.422497-1.2501481-1.0339026-1.2501481-1.5176381-1.2501481h-3.0432127c1.4667856.4793263.6673559,1.4998054.4267102,2.2102705-.2429945.7243785-5.3569519,13.1639355-5.3569519,13.1639355-1.7677853-.4751131-6.1970444-6.8845973-6.1970444-6.8845973,5.9066267-1.6745068,4.9895182-8.4896087-.7783664-8.4896087h-6.629538c1.3319629.2894379,1.2113474,1.6758785,1.2113474,2.7442706v11.3190386c0,1.555851-.4884386,1.9677659-1.2682748,2.3859517h4.8526404c-1.3319629-.5942588-.9793268-1.9730569-.9793268-2.6222835v-12.209888h2.6222835c1.3945732,0,2.427496,1.6773482,2.427496,2.8188347,0,1.8424473-1.4582612,2.5653429-2.9178942,3.1064109-1.4554198.5315506-.6659814,1.7300624,0,2.694496.6812666.9535576,2.6208138,3.6437294,3.7742541,4.9594403,1.1597086,1.3112887,2.1768563,1.2529896,2.7394671,1.2529896h4.3790948c-1.6979218-.5373315-.7942394-1.8496-.5574151-2.5021579.2430899-.6727422,1.3462682-3.4772846,1.3462682-3.4772846h6.5573227s.7927697,2.0299974,1.5214594,3.8288429c.7319231,1.801785.1841076,2.0347854-.6057198,2.1505997Zm-6.8104149-7.8916398l2.5036277-6.4080993,2.661966,6.4080993h-5.1655937Z"/>
        <path class="cls-1" d="m97.2520041,29.2103814h5.3005103c-1.4606085-.5373315-2.0696668-2.266806-2.5456618-3.5274381-.4875525-1.2559291-4.3221675-10.4033999-4.7455463-11.6716747-.4291597-1.2501481-1.0339026-1.2501481-1.5223412-1.2501481h-3.0370359c1.4620785.4793263.6669572,1.4998054.4281799,2.2102705-.2507391.7243785-5.3526448,13.1639355-5.3526448,13.1639355-.3425439.7760148-.8420545.7946314-1.1457977,1.0750549h4.3665532c-1.7027255-.5373315-.7846372-1.8496-.5496772-2.5021579.2343722-.6727422,1.3357841-3.4772846,1.3357841-3.4772846h6.5749621s.7932596,2.0299974,1.51803,3.8288429c.7190875,1.801785.1750932,2.0347854-.6253148,2.1505997Zm-6.7940493-7.8916398l2.4839293-6.4080993,2.6840119,6.4080993h-5.1679412Z"/>
        <path class="cls-1" d="m78.547005,29.5217671c.609544-.5491873,1.1592212-.9644336,1.1592212-2.8800863v-11.3075617c0-.8971202-.0468315-1.9132881-1.1592212-2.2835608h4.6904806c-.4836375.4248485-1.0611415.9607103-1.0611415,2.1601039v11.4310186c0,1.0185325-.2219285,2.5174561,1.1353136,2.8800863h-4.7646527Z"/>
        <path class="cls-1" d="m53.373652,16.5899502s-.0597688,9.0326363-.0597688,10.0517307c0,1.0185325.1339409,2.5174561,1.4668836,2.8800863h-4.4451345c.6128754-.5491873,1.1004321-.9644336,1.1004321-2.8800863,0-1.9093558.1138547-10.4173003.1138547-11.3075617,0-.8971202-.1138547-1.9132881-1.2142869-2.2835608h3.410742l10.2081224,12.6323849v-10.2938564c0-.657359.1277715-1.91368-1.2696465-2.3926144h4.5588912c-.5492818.4243586-1.3500894.5956306-1.3500894,2.3376467v14.8479465s-1.2592604.2305509-3.3308869-2.2246738c-2.0710386-2.4495418-9.1891131-11.3674416-9.1891131-11.3674416Z"/>
        <path class="cls-1" d="m82.4270792,42.2522317c-13.3725385-11.0894676-18.4825766-24.1452313-.1961593-41.9684892.5687874-.5478292,1.117089-.2205704.6659814.2904177-8.0227392,9.0116682-16.9506332,23.4447603-.1866551,41.1235933.2641586.2827751.1588283.8535183-.283167.5544783Z"/>
      </g>
      <path class="cls-1" d="m106.2148269,29.3531496c-1.2393124,0-2.2475689-1.0082565-2.2475689-2.2475689s1.0082565-2.2475689,2.2475689-2.2475689,2.2475689,1.0082565,2.2475689,2.2475689-1.0082565,2.2475689-2.2475689,2.2475689Zm0-4.2097321c-1.081977,0-1.9621633.8801863-1.9621633,1.9621633s.8801863,1.9621633,1.9621633,1.9621633,1.9621633-.8801863,1.9621633-1.9621633-.8801863-1.9621633-1.9621633-1.9621633Z"/>
      <path class="cls-1" d="m106.7569302,28.3249649c-.0496115-.0462669-.0794342-.0826394-.0794342-.257952v-.2911193c0-.171968-.0528168-.3968921-.3109081-.3968921h-.6184716v.9459634h-.4465036v-2.41452h1.1377202c.4498482,0,.7443121.2778802.7443121.6548441,0,.1588683-.0529561.3043583-.1488345.4134757-.0926732.1059122-.1721074.1488345-.3771033.1951015.2348185.0331672.4630873.1025676.4630873.5557605v.244713c0,.2415077.0893286.3043583.1553844.3506252h-.5192486Zm-.3771033-2.0374167h-.6317107v.7143501h.5589657c.2480576,0,.4002367-.1289063.4002367-.3769639,0-.2183743-.1290457-.3373862-.3274917-.3373862Z"/>
    </g>
  </g>
</svg>