<?xml version="1.0" encoding="UTF-8"?>
<svg id="_レイヤー_2" data-name="レイヤー 2" xmlns="http://www.w3.org/2000/svg" viewBox="0 0 308.8105362 44.9375143">
  <defs>
    <style>
      .cls-1 {
        fill: #fff;
        stroke-width: 0px;
      }
    </style>
  </defs>
  <g id="_レイヤー_1-2" data-name="レイヤー 1">
    <g>
      <path class="cls-1" d="m62.7724503,27.5957174h.9863281l.4355469.0263672.3417969-.0263672c.9023438,0,1.4648438.0087891,1.6835938.0263672l.0136719.2509766c0,1.2421875-.0175781,2.4433594-.0527344,3.6054688-.0273438.6875-.0400391,1.0791016-.0400391,1.1757812,0,1.5498047.0507812,2.5185547.1523438,2.90625.1015625.3867188.3398438.6972656.7148438.9306641s.8271484.3505859,1.3564453.3505859c.6445312,0,1.2607422-.1347656,1.8476562-.4033203s1.0878906-.5966797,1.5019531-.9833984c.0449219-.3359375.0664062-.7050781.0664062-1.1103516,0-1.3115234.0136719-2.1962891.0400391-2.6552734.0087891-.2714844.0126953-.5097656.0126953-.7128906,0-1.4257812-.0703125-2.2324219-.2109375-2.4160156-.140625-.1855469-.6777344-.3261719-1.6113281-.4238281-.3085938-.0351562-.5332031-.0654297-.6738281-.0917969-.0703125-.1152344-.1054688-.203125-.1054688-.2636719l.0390625-.1464844c.2294922-.0253906.4541016-.0390625.6738281-.0390625l2.1005859.0263672c.7480469-.0175781,1.1445312-.0263672,1.1884766-.0263672.0966797,0,.1894531.0039062.2773438.0136719l.0263672.9638672c-.0615234,1.3388672-.0966797,2.9931641-.1054688,4.9658203l-.0263672,1.0703125.0527344,1.7958984c.0791016.1416016.1494141.2246094.2109375.2509766.1054688.0449219.3222656.0664062.6474609.0664062h.1191406c.1142578,0,.4404297.0253906.9775391.0791016.0078125.1142578.0126953.1982422.0126953.2509766v.1445312c-1.1796875.2558594-2.1357422.5117188-2.8662109.7666016-.2910156.0966797-.5371094.1669922-.7392578.2119141-.0439453-.3085938-.0664062-.4980469-.0664062-.5683594v-1.0703125c0-.0429688-.0048828-.1621094-.0126953-.3564453-.1152344.0791016-.2470703.1767578-.3964844.2900391-.6953125.5380859-1.4316406.9912109-2.2050781,1.3613281-.5205078.2548828-1.0224609.3828125-1.5058594.3828125-.9257812,0-1.6777344-.34375-2.2597656-1.0302734-.5898438-.6865234-.8847656-1.8583984-.8847656-3.5126953,0-.0878906.0048828-.2470703.0136719-.4765625.0351562-.421875.0527344-.7167969.0527344-.8847656,0-.0605469-.0039062-.2548828-.0136719-.5800781-.0078125-.1416016-.0126953-.2646484-.0126953-.3710938,0-.078125.0048828-.2568359.0126953-.5341797.0097656-.2773438.0136719-.4736328.0136719-.5878906,0-.1494141-.0039062-.2822266-.0136719-.3964844l-.0253906-.7001953.0126953-.3691406c0-.140625-.0703125-.2685547-.2119141-.3828125-.5546875-.1503906-.9169922-.2363281-1.0888672-.2578125s-.3232422-.0595703-.4560547-.1123047v-.4228516Z"/>
      <path class="cls-1" d="m79.3329971,37.5273581c.21875-.0605469.4746094-.1132812.765625-.1572266.5546875-.0791016.8867188-.1708984.9970703-.2763672s.1650391-.3466797.1650391-.7246094l.0263672-.4736328c.0087891-.1748047.0126953-.3994141.0126953-.6708984l-.0253906-4.0410156c0-.5449219-.0703125-.8955078-.2119141-1.0537109-.2373047-.2451172-.6777344-.4169922-1.3212891-.5126953v-.4824219c.6435547-.1777344,1.1367188-.40625,1.4804688-.6894531.5019531-.3964844.9238281-.9355469,1.2675781-1.6152344l.4492188.0126953c.0263672.4150391.0390625.7119141.0390625.8876953v.875l.0136719.2382812c.1054688-.0703125.2285156-.1591797.3691406-.265625.5292969-.3964844,1.0703125-.7216797,1.625-.9736328s1.0478516-.4267578,1.4794922-.5234375c.2724609-.0712891.5810547-.1064453.9248047-.1064453.7216797,0,1.3417969.1943359,1.8613281.5820312.5195312.3886719.8574219.84375,1.0117188,1.3691406.1533203.5244141.2304688,1.5664062.2304688,3.1269531v1.9970703c0,.0537109-.0068359.2294922-.0195312.5292969-.0136719.2998047-.0195312.6435547-.0195312,1.03125,0,.6171875.0253906,1.0097656.078125,1.1767578.0449219.1152344.1591797.2294922.34375.34375.8457031.1152344,1.3378906.2519531,1.4794922.4101562v.1054688c0,.0878906-.0263672.1992188-.0791016.3300781h-.2509766l-1.7431641-.0253906-1.7167969.0390625c-.6347656.0175781-1.2207031.0136719-1.7578125-.0136719l-.078125-.2773438c0-.0527344.0302734-.1230469.0917969-.2109375.2382812-.1054688.5722656-.1757812,1.0039062-.2109375.2558594-.0175781.4316406-.0449219.5283203-.0800781s.2158203-.1054688.3564453-.2109375c.1054688-.2128906.1582031-.3886719.1582031-.5292969,0-.0625-.0078125-.1855469-.0253906-.3710938-.0273438-.4052734-.0449219-1.4140625-.0527344-3.0292969v-.6875l.0253906-1.0576172c0-1.1376953-.2285156-1.9228516-.6865234-2.3544922s-1.0693359-.6484375-1.8359375-.6484375c-.5898438,0-1.1669922.1308594-1.7294922.390625-.5644531.2597656-1.1103516.6484375-1.6386719,1.1679688-.0175781.4228516-.0263672.7841797-.0263672,1.0839844l.0400391,2.9179688c0,1.5234375.0214844,2.4570312.0664062,2.8007812.0175781.140625.0478516.2373047.0917969.2900391.0703125.0712891.2109375.1279297.4228516.171875.2109375.0439453.4560547.1054688.7333984.1845703.2773438.0800781.4589844.1279297.546875.1455078.1767578.0439453.2949219.1318359.3574219.2646484l-.0136719.2636719h-1.3867188l-2.8525391-.0390625c-.6611328.0078125-1.0791016.0126953-1.2548828.0126953h-.3300781l-.0263672-.171875c0-.0615234.0126953-.1494141.0400391-.2646484Z"/>
      <path class="cls-1" d="m96.3144425,21.3808737v-.0664062c0-.0898438.0351562-.2148438.1064453-.375.9628906-.1699219,1.9882812-.4296875,3.0761719-.7792969.0625-.0097656.1582031-.0136719.2910156-.0136719.0439453.140625.0664062.2333984.0664062.2773438v3.9355469l-.0136719,1.2548828.0136719,1.4003906-.0273438,1.1357422c0,.0439453.0097656.1933594.0273438.4492188l1.0820312-.4101562c.1152344-.0351562.4941406-.1484375,1.1367188-.3427734.8183594-.1318359,1.2939453-.1982422,1.4257812-.1982422.8808594,0,1.6738281.140625,2.3779297.4228516.4306641.1767578.8583984.46875,1.2802734.8779297.4238281.4101562.7363281.84375.9384766,1.3007812.3525391.8369141.5283203,1.5585938.5283203,2.1660156,0,.9609375-.0615234,1.625-.1855469,1.9951172-.2988281.8798828-.6640625,1.5761719-1.0957031,2.0869141s-1.0351562.9462891-1.8095703,1.3066406c-.7744141.3613281-1.5986328.5419922-2.4697266.5419922-.8007812,0-1.5585938-.1494141-2.2714844-.4482422-.7128906-.2998047-1.1142578-.4492188-1.2021484-.4492188-.2724609,0-.6201172.3613281-1.0439453,1.0820312l-.3828125-.0126953c-.0351562-.5888672-.0527344-1.3154297-.0527344-2.1767578l.0273438-1.9658203-.0136719-1.0029297.0263672-2.875-.0263672-.5546875.0527344-1.359375v-1.1601562l.0136719-.4746094c0-.0976562-.0058594-.4794922-.0136719-1.1484375v-.7910156c.0263672-1.53125-.0400391-2.4140625-.1992188-2.6523438-.2578125-.3779297-.8115234-.703125-1.6630859-.9765625Zm6.2861328,16.2402344c1.3388672,0,2.3583984-.3769531,3.0585938-1.1298828.6992188-.7529297,1.0498047-1.8730469,1.0498047-3.3613281,0-1.3642578-.3964844-2.4697266-1.1884766-3.3154297-.7929688-.8457031-1.7695312-1.2675781-2.9326172-1.2675781-.8447266,0-1.5537109.1367188-2.1259766.4091797-.34375.1669922-.5351562.3212891-.5742188.4619141-.0410156.140625-.0605469,1.0839844-.0605469,2.8261719,0,2.0703125.0449219,3.28125.1328125,3.6328125.1494141.5458984.421875.9375.8183594,1.1757812.625.3789062,1.2324219.5683594,1.8222656.5683594Z"/>
      <path class="cls-1" d="m113.4677628,38.0039206l-.0527344-.171875c0-.0615234.0400391-.1542969.1191406-.2773438l.7792969-.1582031,1.0957031-.1982422c.0878906-.0439453.1503906-.1054688.1855469-.1845703.0527344-.1142578.0791016-.453125.0791016-1.015625,0-2.9882812-.0175781-4.7138672-.0527344-5.1757812-.0351562-.4609375-.1142578-.7539062-.2373047-.8759766-.1230469-.1230469-.4414062-.2197266-.9511719-.2900391-.2998047-.0449219-.5371094-.1015625-.7128906-.171875l.0527344-.4023438c.9238281-.3798828,1.5449219-.7070312,1.8613281-.9804688.4414062-.3964844.8144531-.9179688,1.1230469-1.5625l.4492188.0136719c.0527344.4394531.0791016,1.4179688.0791016,2.9316406l-.0126953.2246094c0,.0527344.0078125.1367188.0253906.2509766.3359375-.6074219.7539062-1.1669922,1.2558594-1.6767578l.3027344-.3046875c.1240234-.140625.2421875-.2509766.3574219-.3300781.6162109-.3691406,1.0742188-.5546875,1.3730469-.5546875.3876953,0,.7050781.1298828.9511719.3896484s.3701172.5791016.3701172.9580078c0,.2988281-.0888672.5322266-.2646484.6992188-.2373047.2207031-.5097656.3300781-.8183594.3300781-.140625,0-.4179688-.0742188-.8320312-.2246094-.4140625-.1484375-.6875-.2246094-.8183594-.2246094-.2480469,0-.4189453.0400391-.515625.1191406-.2460938.1943359-.546875.5898438-.8984375,1.1894531-.2734375.4492188-.4091797.8632812-.4091797,1.2412109l.0654297,2.1845703.0273438,2.6210938c.0253906.2988281.0605469.4941406.1054688.5820312.0351562.0615234.1230469.1367188.2636719.2246094.9511719.0800781,1.5146484.1367188,1.6914062.171875.1230469.0097656.2148438.0175781.2773438.0273438.3779297.0078125.6425781.0615234.7919922.1582031.0791016.0449219.1181641.1103516.1181641.1982422,0,.0527344-.0351562.1240234-.1054688.2119141l-1.4658203-.0273438-.5546875-.0126953-.8056641.0126953h-1.3476562l-.7265625.0400391-2.21875.0400391Z"/>
      <path class="cls-1" d="m135.6542862,30.9902487l-5.2958984.0390625-1.0039062-.0019531c-.4052734,0-.8183594.0185547-1.2421875.0546875-.078125.2646484-.1181641.4453125-.1181641.5419922l.0126953.1318359v.1328125l-.0126953.6464844c0,.5371094.1689453,1.1953125.5087891,1.9746094.3378906.7792969.8222656,1.3740234,1.4521484,1.7832031.6298828.4101562,1.4150391.6269531,2.3583984.6542969.5019531-.0273438.9023438-.0878906,1.2011719-.1855469.2988281-.0966797.7226562-.3212891,1.2675781-.6738281l.9511719-.7792969.0800781.5292969c0,.0605469-.0048828.1269531-.0136719.1972656-.3964844.5019531-.8984375.9433594-1.5058594,1.3212891s-1.2236328.6552734-1.8496094.8320312c-.2988281.0791016-.7919922.1181641-1.4785156.1181641-.625,0-1.2421875-.1269531-1.8496094-.3828125-.8984375-.3867188-1.6044922-1.0097656-2.1191406-1.8691406-.515625-.8574219-.7734375-1.8984375-.7734375-3.1230469,0-.3867188.0732422-.8847656.21875-1.4921875.1445312-.6074219.40625-1.2548828.7851562-1.9414062.2558594-.4667969.5683594-.8496094.9375-1.1494141.5292969-.4228516.9912109-.7177734,1.3867188-.8857422.5722656-.2363281,1.2382812-.3554688,1.9951172-.3554688.8193359,0,1.4873047.1494141,2.0068359.4492188.7050781.3955078,1.2304688.90625,1.5791016,1.53125.3476562.625.5214844,1.1972656.5214844,1.7167969v.1855469Zm-7.3701172-.4755859h.6210938c.4492188,0,1.7871094-.0703125,4.015625-.2119141.3515625-.0175781.5673828-.0527344.6464844-.1054688.1582031-.1669922.2382812-.3164062.2382812-.4492188,0-.2724609-.0878906-.5820312-.2646484-.9306641-.1767578-.3476562-.4462891-.6162109-.8115234-.8056641-.3662109-.1894531-.7910156-.2841797-1.2753906-.2841797-1.0214844,0-1.8398438.3837891-2.4570312,1.1494141-.4746094.5810547-.7128906,1.1269531-.7128906,1.6376953Z"/>
      <path class="cls-1" d="m150.4443253,36.1679831c.0527344.1142578.0791016.1972656.0791016.25,0,.1328125-.1064453.3662109-.3173828.7011719-.2734375.4394531-.5761719.7617188-.9111328.9628906-.2119141.1328125-.5019531.1992188-.8720703.1992188-.6337891,0-1.109375-.1943359-1.4257812-.5820312-.1933594-.2285156-.3300781-.6376953-.4101562-1.2285156l-1.4785156,1.03125c-.5195312.2988281-.9160156.4882812-1.1894531.5673828-.4394531.1142578-.96875.171875-1.5839844.171875-.4492188,0-.8046875-.1337891-1.0644531-.4033203-.2597656-.2675781-.3886719-.6132812-.3886719-1.0361328,0-.6083984.3730469-1.3339844,1.1181641-2.1796875.7460938-.8447266,1.7587891-1.5361328,3.0380859-2.0732422.9003906-.3789062,1.4511719-.6210938,1.6542969-.7265625.0175781-.2910156.0273438-.6074219.0273438-.9511719,0-1.1181641-.1572266-1.875-.4707031-2.2714844s-.7617188-.5947266-1.3447266-.5947266c-.609375,0-1.1787109.2373047-1.7089844.7138672-.3271484.2988281-.5742188.8632812-.7421875,1.6904297-.0527344.2294922-.1533203.4755859-.3037109.7392578-.3789062.2460938-.6826172.3701172-.9111328.3701172-.1943359,0-.3701172-.0576172-.5283203-.171875-.0878906-.0615234-.1328125-.1318359-.1328125-.2119141,0-.2285156.2451172-.7460938.734375-1.5507812.4882812-.8066406,1.1035156-1.4091797,1.8486328-1.8105469.7431641-.4003906,1.3935547-.6005859,1.9482422-.6005859.7568359,0,1.3203125.0683594,1.6904297.2050781.3701172.1357422.6953125.3759766.9775391.7197266.28125.34375.453125.7177734.5146484,1.1230469.0351562.1933594.0537109.8847656.0537109,2.0732422l-.0410156,2.1005859.0136719,1.53125c0,.203125-.0039062.375-.0136719.515625-.0078125.2558594-.0126953.4443359-.0126953.5683594,0,.2900391.0839844.5234375.2509766.6992188.1679688.1757812.3652344.2636719.5947266.2636719.3349609,0,.6201172-.1660156.8583984-.5019531l.1582031-.2109375c.0439453-.0263672.140625-.0566406.2910156-.0917969Zm-3.8710938-.3828125c.0625-1.1191406.09375-1.90625.09375-2.3652344,0-.2373047-.0136719-.5585938-.0400391-.9638672-.5927734.2119141-1.2197266.5332031-1.8818359.9638672-.6621094.4316406-1.1884766.9296875-1.5771484,1.4931641-.2822266.4052734-.4248047.7880859-.4248047,1.1494141,0,.3427734.1171875.6289062.3515625.8574219.234375.2294922.5283203.34375.8818359.34375.2734375,0,.6044922-.0966797.9931641-.2910156.5126953-.2548828,1.046875-.6503906,1.6035156-1.1875Z"/>
      <path class="cls-1" d="m154.6533096,37.9511862l-.0253906-.3828125c.0703125-.0537109.1357422-.0859375.1972656-.0996094s.2841797-.0332031.6669922-.0595703c.3837891-.0263672.6230469-.1123047.7197266-.2568359.0976562-.1455078.1455078-.7460938.1455078-1.8017578l.0263672-5.2128906-.0263672-.9238281c0-.0791016.0087891-.3740234.0263672-.8837891.0175781-.2382812.0263672-.5234375.0263672-.8574219l-.0527344-2.296875.0126953-2.0058594c0-.484375-.0683594-.7939453-.2041016-.9296875-.1367188-.1367188-.6181641-.2617188-1.4462891-.3769531v-.1582031c0-.0527344.0039062-.1269531.0136719-.2246094.5019531-.1054688.9453125-.2382812,1.3339844-.3964844.2021484-.0878906.7167969-.3613281,1.5449219-.8183594h.4091797c-.0087891.2021484-.0126953.3261719-.0126953.3691406v1.1494141l-.0136719.5673828.0390625,1.0439453-.0126953,1.5712891.0126953,2.6152344-.0390625,3.25v1.0039062c0,.1230469.0039062.2949219.0136719.5146484l.1445312.0126953c.2998047,0,.6035156-.109375.9121094-.3300781,1.3818359-.9863281,2.25-1.6572266,2.6015625-2.0136719.3515625-.3574219.5283203-.6142578.5283203-.7734375,0-.0957031-.0576172-.21875-.171875-.3691406-.2646484-.140625-.5595703-.2382812-.8847656-.2910156-.0966797-.0175781-.2021484-.0390625-.3173828-.0664062-.1582031-.0429688-.2900391-.0742188-.3964844-.0917969l-.0253906-.1318359c0-.0615234.0214844-.1494141.0664062-.2646484,1.390625-.0527344,2.6015625-.0791016,3.6308594-.0791016.5820312,0,1.203125.0126953,1.8632812.0400391v.171875c0,.0605469-.0224609.140625-.0664062.2373047-.1318359.0263672-.3388672.0654297-.6210938.1181641-.5458984.0878906-.9589844.2109375-1.2412109.3691406-.6787109.359375-1.3779297.8652344-2.1005859,1.5175781-.4316406.3886719-.8046875.7148438-1.1220703.9794922l-.4755859.4101562c.0351562.0615234.0917969.1367188.171875.2246094.0351562.0351562.1054688.1142578.2109375.2373047s.2949219.3300781.5683594.6210938c.9511719,1.0039062,1.6552734,1.7792969,2.1132812,2.3242188.1494141.1767578.3164062.3701172.5019531.5820312.6865234.765625,1.0869141,1.1933594,1.2011719,1.28125.2470703.1582031.6123047.28125,1.0966797.3691406.2294922.0439453.4267578.0839844.5947266.1191406.0351562.1054688.0527344.1894531.0527344.25l-.0136719.1328125c-.625-.0527344-1.0742188-.0791016-1.3476562-.0791016h-.2363281l-3.671875.1054688c-.1416016.0175781-.2382812.0263672-.2910156.0263672-.0878906,0-.1806641-.0175781-.2773438-.0527344-.0263672-.0703125-.0400391-.1328125-.0400391-.1855469v-.0917969c.0527344-.0791016.1005859-.1269531.1455078-.1455078.8691406-.0703125,1.3730469-.1279297,1.5136719-.1708984.078125-.0175781.1533203-.0664062.2236328-.1464844,0-.1484375-.1279297-.390625-.3818359-.7265625-.2558594-.3339844-.8925781-1.0693359-1.9121094-2.2050781-.6503906-.7216797-1.0703125-1.1425781-1.2597656-1.2617188s-.4511719-.1777344-.7851562-.1777344h-.5019531c-.0351562.3164062-.0527344,1.0410156-.0527344,2.1728516,0,1.0537109.0878906,1.7294922.2636719,2.0283203.0966797.1669922.3261719.2714844.6875.3164062.3603516.0429688.59375.109375.6992188.1972656.0703125.0527344.1142578.1757812.1328125.3701172-.5292969-.0087891-.9736328-.0126953-1.3339844-.0126953-.5820312,0-1.2158203.0126953-1.9023438.0390625-.4140625.0175781-.7402344.0263672-.9775391.0263672-.1767578,0-.4667969-.0048828-.8720703-.0126953Z"/>
      <path class="cls-1" d="m180.6044815,36.1679831c.0527344.1142578.0791016.1972656.0791016.25,0,.1328125-.1064453.3662109-.3173828.7011719-.2734375.4394531-.5761719.7617188-.9111328.9628906-.2119141.1328125-.5019531.1992188-.8720703.1992188-.6337891,0-1.109375-.1943359-1.4257812-.5820312-.1933594-.2285156-.3300781-.6376953-.4101562-1.2285156l-1.4785156,1.03125c-.5195312.2988281-.9160156.4882812-1.1894531.5673828-.4394531.1142578-.96875.171875-1.5839844.171875-.4492188,0-.8046875-.1337891-1.0644531-.4033203-.2597656-.2675781-.3886719-.6132812-.3886719-1.0361328,0-.6083984.3730469-1.3339844,1.1181641-2.1796875.7460938-.8447266,1.7587891-1.5361328,3.0380859-2.0732422.9003906-.3789062,1.4511719-.6210938,1.6542969-.7265625.0175781-.2910156.0273438-.6074219.0273438-.9511719,0-1.1181641-.1572266-1.875-.4707031-2.2714844s-.7617188-.5947266-1.3447266-.5947266c-.609375,0-1.1787109.2373047-1.7089844.7138672-.3271484.2988281-.5742188.8632812-.7421875,1.6904297-.0527344.2294922-.1533203.4755859-.3037109.7392578-.3789062.2460938-.6826172.3701172-.9111328.3701172-.1943359,0-.3701172-.0576172-.5283203-.171875-.0878906-.0615234-.1328125-.1318359-.1328125-.2119141,0-.2285156.2451172-.7460938.734375-1.5507812.4882812-.8066406,1.1035156-1.4091797,1.8486328-1.8105469.7431641-.4003906,1.3935547-.6005859,1.9482422-.6005859.7568359,0,1.3203125.0683594,1.6904297.2050781.3701172.1357422.6953125.3759766.9775391.7197266.28125.34375.453125.7177734.5146484,1.1230469.0351562.1933594.0537109.8847656.0537109,2.0732422l-.0410156,2.1005859.0136719,1.53125c0,.203125-.0039062.375-.0136719.515625-.0078125.2558594-.0126953.4443359-.0126953.5683594,0,.2900391.0839844.5234375.2509766.6992188.1679688.1757812.3652344.2636719.5947266.2636719.3349609,0,.6201172-.1660156.8583984-.5019531l.1582031-.2109375c.0439453-.0263672.140625-.0566406.2910156-.0917969Zm-3.8710938-.3828125c.0625-1.1191406.09375-1.90625.09375-2.3652344,0-.2373047-.0136719-.5585938-.0400391-.9638672-.5927734.2119141-1.2197266.5332031-1.8818359.9638672-.6621094.4316406-1.1884766.9296875-1.5771484,1.4931641-.2822266.4052734-.4248047.7880859-.4248047,1.1494141,0,.3427734.1171875.6289062.3515625.8574219.234375.2294922.5283203.34375.8818359.34375.2734375,0,.6044922-.0966797.9931641-.2910156.5126953-.2548828,1.046875-.6503906,1.6035156-1.1875Z"/>
      <path class="cls-1" d="m184.5370987,21.3808737v-.0664062c0-.0898438.0351562-.2148438.1064453-.375.9628906-.1699219,1.9882812-.4296875,3.0761719-.7792969.0625-.0097656.1582031-.0136719.2910156-.0136719.0439453.140625.0664062.2333984.0664062.2773438v3.9355469l-.0136719,1.2548828.0136719,1.4003906-.0273438,1.1357422c0,.0439453.0097656.1933594.0273438.4492188l1.0820312-.4101562c.1152344-.0351562.4941406-.1484375,1.1367188-.3427734.8183594-.1318359,1.2939453-.1982422,1.4257812-.1982422.8808594,0,1.6738281.140625,2.3779297.4228516.4306641.1767578.8583984.46875,1.2802734.8779297.4238281.4101562.7363281.84375.9384766,1.3007812.3525391.8369141.5283203,1.5585938.5283203,2.1660156,0,.9609375-.0615234,1.625-.1855469,1.9951172-.2988281.8798828-.6640625,1.5761719-1.0957031,2.0869141s-1.0351562.9462891-1.8095703,1.3066406c-.7744141.3613281-1.5986328.5419922-2.4697266.5419922-.8007812,0-1.5585938-.1494141-2.2714844-.4482422-.7128906-.2998047-1.1142578-.4492188-1.2021484-.4492188-.2724609,0-.6201172.3613281-1.0439453,1.0820312l-.3828125-.0126953c-.0351562-.5888672-.0527344-1.3154297-.0527344-2.1767578l.0273438-1.9658203-.0136719-1.0029297.0263672-2.875-.0263672-.5546875.0527344-1.359375v-1.1601562l.0136719-.4746094c0-.0976562-.0058594-.4794922-.0136719-1.1484375v-.7910156c.0263672-1.53125-.0400391-2.4140625-.1992188-2.6523438-.2578125-.3779297-.8115234-.703125-1.6630859-.9765625Zm6.2861328,16.2402344c1.3388672,0,2.3583984-.3769531,3.0585938-1.1298828.6992188-.7529297,1.0498047-1.8730469,1.0498047-3.3613281,0-1.3642578-.3964844-2.4697266-1.1884766-3.3154297-.7929688-.8457031-1.7695312-1.2675781-2.9326172-1.2675781-.8447266,0-1.5537109.1367188-2.1259766.4091797-.34375.1669922-.5351562.3212891-.5742188.4619141-.0410156.140625-.0605469,1.0839844-.0605469,2.8261719,0,2.0703125.0449219,3.28125.1328125,3.6328125.1494141.5458984.421875.9375.8183594,1.1757812.625.3789062,1.2324219.5683594,1.8222656.5683594Z"/>
      <path class="cls-1" d="m201.8369034,21.5996237v-.2910156c.2460938-.0791016.5185547-.1621094.8183594-.2509766.4423828-.140625,1.0976562-.3564453,1.9648438-.6474609h.6230469v.7275391c0,7.234375-.0214844,11.5478516-.0654297,12.9404297-.0263672.8203125-.0400391,1.2558594-.0400391,1.3085938,0,.9863281.0400391,1.5371094.1191406,1.6523438.1054688.1582031.4296875.2685547.9707031.3300781.5419922.0625.8613281.1240234.9580078.1855469.0703125.0351562.1054688.0966797.1054688.1845703,0,.0966797-.0195312.1650391-.0595703.2041016-.0390625.0410156-.1123047.0605469-.2177734.0605469-.0615234,0-.5244141-.015625-1.3867188-.0449219l-1.7304688-.0605469-2.21875.1054688c-.1416016.0078125-.2470703-.0185547-.3173828-.0820312-.0527344-.0449219-.0791016-.1074219-.0791016-.1894531,0-.0898438.0283203-.1552734.0859375-.1962891.0576172-.0400391.3740234-.109375.9511719-.2060547.5771484-.0976562.9072266-.1787109.9912109-.2441406.0830078-.0664062.1386719-.2138672.1640625-.4433594.0351562-.3164062.0527344-1.2099609.0527344-2.6806641l-.0126953-3.0380859.0400391-3.1425781-.0136719-3.1445312.0390625-1.5449219c0-.3085938-.0478516-.5302734-.1445312-.6669922-.0976562-.1357422-.3046875-.2705078-.6210938-.4033203-.4755859-.1933594-.8007812-.3339844-.9765625-.421875Z"/>
      <path class="cls-1" d="m221.049794,30.9902487l-5.296875.0390625-1.0029297-.0019531c-.4052734,0-.8193359.0185547-1.2412109.0546875-.0800781.2646484-.1191406.4453125-.1191406.5419922l.0136719.1318359v.1328125l-.0136719.6464844c0,.5371094.1699219,1.1953125.5078125,1.9746094.3398438.7792969.8242188,1.3740234,1.453125,1.7832031.6298828.4101562,1.4160156.6269531,2.3574219.6542969.5019531-.0273438.9023438-.0878906,1.2021484-.1855469.2998047-.0966797.7216797-.3212891,1.2685547-.6738281l.9511719-.7792969.078125.5292969c0,.0605469-.0039062.1269531-.0126953.1972656-.3964844.5019531-.8974609.9433594-1.5058594,1.3212891-.6074219.3779297-1.2236328.6552734-1.8486328.8320312-.2998047.0791016-.7929688.1181641-1.4794922.1181641-.6259766,0-1.2412109-.1269531-1.8486328-.3828125-.8984375-.3867188-1.6054688-1.0097656-2.1210938-1.8691406-.5146484-.8574219-.7714844-1.8984375-.7714844-3.1230469,0-.3867188.0722656-.8847656.2167969-1.4921875.1464844-.6074219.4082031-1.2548828.7871094-1.9414062.2539062-.4667969.5673828-.8496094.9375-1.1494141.5273438-.4228516.9902344-.7177734,1.3867188-.8857422.5722656-.2363281,1.2363281-.3554688,1.9941406-.3554688.8183594,0,1.4882812.1494141,2.0078125.4492188.7041016.3955078,1.2304688.90625,1.578125,1.53125s.5214844,1.1972656.5214844,1.7167969v.1855469Zm-7.3691406-.4755859h.6201172c.4492188,0,1.7880859-.0703125,4.0146484-.2119141.3525391-.0175781.5683594-.0527344.6484375-.1054688.1582031-.1669922.2363281-.3164062.2363281-.4492188,0-.2724609-.0878906-.5820312-.2636719-.9306641-.1757812-.3476562-.4472656-.6162109-.8125-.8056641s-.7900391-.2841797-1.2734375-.2841797c-1.0224609,0-1.8417969.3837891-2.4570312,1.1494141-.4755859.5810547-.7128906,1.1269531-.7128906,1.6376953Z"/>
      <path class="cls-1" d="m235.6376846,37.5146628c.140625-.0966797.3349609-.1630859.5820312-.1982422.3515625-.0429688.625-.1142578.8183594-.2109375.1582031-.1328125.2636719-.3212891.3164062-.5683594.0625-.3164062.09375-1.4306641.09375-3.3417969,0-1.875-.0585938-3.0859375-.171875-3.6318359-.1943359-.1230469-.4453125-.2197266-.7539062-.2900391-.0957031-.0175781-.2988281-.0664062-.6074219-.1455078v-.4423828c.5214844-.1503906.9443359-.3447266,1.2675781-.5830078.3222656-.2392578.7714844-.7158203,1.3457031-1.4316406h.0800781c.0527344,0,.1367188-.0039062.2519531-.0126953.0703125.0087891.1279297.03125.171875.0664062l-.0126953,1.5048828c0,.3085938.0087891.6386719.0263672.9912109.9404297-.8544922,1.7841797-1.453125,2.53125-1.796875.5097656-.2285156,1.0859375-.34375,1.7265625-.34375.765625,0,1.3710938.1464844,1.8203125.4365234.4472656.2900391.8740234.8144531,1.2792969,1.5712891.7832031-.7744141,1.4941406-1.3164062,2.1328125-1.625.6376953-.3076172,1.2832031-.4609375,1.9345703-.4609375.9853516,0,1.7958984.3212891,2.4306641.9648438.625.6523438.9453125,1.609375.9638672,2.8691406v1.0976562l.0126953,1.203125-.0126953,3.0957031c-.0087891.3613281.0703125.6347656.2373047.8193359.0703125.0263672.3398438.1064453.8066406.2382812.2900391.0791016.4609375.1416016.5136719.1845703.0537109.0449219.0800781.1064453.0800781.1855469,0,.0976562-.0263672.2109375-.0791016.34375h-.0927734l-1.3300781-.0800781c-.1582031-.0078125-.4082031-.0126953-.7509766-.0126953-.421875,0-1.0107422.0175781-1.765625.0527344h-.671875c-.0966797,0-.2851562.0048828-.5664062.0126953-.0087891-.078125-.0126953-.1484375-.0126953-.2109375,0-.0703125.0302734-.1582031.0917969-.2636719.2382812-.1054688.5634766-.1914062.9775391-.2578125.4130859-.0664062.6708984-.1855469.7724609-.3574219s.1523438-.8574219.1523438-2.0566406c0-2.6015625-.03125-4.109375-.0927734-4.5234375-.1064453-.6621094-.3867188-1.1796875-.8408203-1.5546875-.4550781-.375-1.0253906-.5625-1.7148438-.5625-.5292969,0-1.0449219.1386719-1.5488281.4160156-.5029297.2773438-.9970703.6933594-1.4824219,1.2480469l-.0136719.3183594v2.0195312l-.0527344,1.5722656c0,1.6035156.015625,2.5136719.046875,2.734375.0302734.2197266.1054688.3808594.2246094.4824219.1191406.1005859.4638672.1914062,1.0371094.2695312.2548828.0361328.453125.0712891.59375.1064453.1054688.0878906.1582031.2021484.1582031.3427734,0,.1152344-.0390625.1943359-.1191406.2382812h-.2246094l-.6601562-.0136719h-3.84375l-1.0566406.0136719c-.0175781-.1328125-.0253906-.2285156-.0253906-.2910156l.0126953-.1582031c.1943359-.1054688.5546875-.2070312,1.0830078-.3037109.2734375-.0439453.5546875-.1181641.8457031-.2246094.0527344-.0439453.0917969-.1005859.1191406-.1708984.0429688-.1240234.0742188-.4765625.0917969-1.0566406l.0664062-1.5332031-.0263672-1.7304688.0126953-.9628906c0-1.0839844-.2197266-1.8740234-.6582031-2.3710938-.4394531-.4980469-.9931641-.7460938-1.6601562-.7460938-.625,0-1.25.1542969-1.8789062.4619141-.6269531.3076172-1.1484375.7216797-1.5605469,1.2412109-.0097656.2460938-.0136719.4707031-.0136719.6738281l.0527344,4.4375c.0087891.96875.0644531,1.5214844.1650391,1.6582031s.328125.2304688.6806641.2832031c.5625.0800781.9287109.1767578,1.0957031.2910156.0800781.0527344.1191406.1328125.1191406.2382812,0,.0703125-.0048828.1542969-.0136719.25-1.0058594-.0703125-1.6816406-.1054688-2.0253906-.1054688-.3535156,0-.6708984.0048828-.953125.0136719l-.6621094.0390625h-.4101562l-1.4824219.0527344c-.0175781-.0605469-.0273438-.1113281-.0273438-.1523438,0-.0390625.0175781-.125.0527344-.2568359Z"/>
      <path class="cls-1" d="m269.9492081,36.1679831c.0537109.1142578.0791016.1972656.0791016.25,0,.1328125-.1054688.3662109-.3164062.7011719-.2734375.4394531-.5771484.7617188-.9121094.9628906-.2109375.1328125-.5019531.1992188-.8710938.1992188-.6347656,0-1.109375-.1943359-1.4267578-.5820312-.1933594-.2285156-.3300781-.6376953-.4091797-1.2285156l-1.4794922,1.03125c-.5195312.2988281-.9150391.4882812-1.1884766.5673828-.4404297.1142578-.96875.171875-1.5849609.171875-.4492188,0-.8037109-.1337891-1.0634766-.4033203-.2597656-.2675781-.3896484-.6132812-.3896484-1.0361328,0-.6083984.3730469-1.3339844,1.1181641-2.1796875.7460938-.8447266,1.7597656-1.5361328,3.0390625-2.0732422.9003906-.3789062,1.4511719-.6210938,1.6542969-.7265625.0175781-.2910156.0263672-.6074219.0263672-.9511719,0-1.1181641-.1572266-1.875-.4697266-2.2714844-.3144531-.3964844-.7617188-.5947266-1.3457031-.5947266-.609375,0-1.1787109.2373047-1.7089844.7138672-.3261719.2988281-.5742188.8632812-.7421875,1.6904297-.0527344.2294922-.1533203.4755859-.3027344.7392578-.3789062.2460938-.6835938.3701172-.9121094.3701172-.1933594,0-.3691406-.0576172-.5273438-.171875-.0888672-.0615234-.1328125-.1318359-.1328125-.2119141,0-.2285156.2441406-.7460938.7333984-1.5507812.4882812-.8066406,1.1044922-1.4091797,1.8486328-1.8105469.7441406-.4003906,1.3935547-.6005859,1.9482422-.6005859.7568359,0,1.3212891.0683594,1.6904297.2050781.3701172.1357422.6953125.3759766.9775391.7197266s.4541016.7177734.5146484,1.1230469c.0351562.1933594.0537109.8847656.0537109,2.0732422l-.0400391,2.1005859.0136719,1.53125c0,.203125-.0048828.375-.0136719.515625-.0087891.2558594-.0136719.4443359-.0136719.5683594,0,.2900391.0839844.5234375.2519531.6992188.1669922.1757812.3652344.2636719.59375.2636719.3349609,0,.6210938-.1660156.859375-.5019531l.1582031-.2109375c.0429688-.0263672.140625-.0566406.2900391-.0917969Zm-3.8701172-.3828125c.0625-1.1191406.0927734-1.90625.0927734-2.3652344,0-.2373047-.0126953-.5585938-.0400391-.9638672-.5917969.2119141-1.21875.5332031-1.8808594.9638672-.6630859.4316406-1.1894531.9296875-1.578125,1.4931641-.2822266.4052734-.4238281.7880859-.4238281,1.1494141,0,.3427734.1171875.6289062.3515625.8574219.234375.2294922.5273438.34375.8808594.34375.2734375,0,.6054688-.0966797.9941406-.2910156.5117188-.2548828,1.046875-.6503906,1.6035156-1.1875Z"/>
      <path class="cls-1" d="m277.0117081,38.8359518c-.1054688-.0527344-.4443359-.1982422-1.0166016-.4355469-.6699219-.4316406-1.0917969-.7539062-1.2675781-.9648438-.1767578-.2109375-.2646484-.4443359-.2646484-.7001953,0-.2285156.0654297-.4130859.1982422-.5546875.1933594-.2021484.5761719-.3955078,1.1484375-.5810547s1.0439453-.3652344,1.4140625-.5410156c-.1152344-.0800781-.2949219-.1933594-.5419922-.34375-1.3115234-.8105469-1.9677734-1.9326172-1.9677734-3.3681641,0-1.1796875.4160156-2.1767578,1.2480469-2.9912109s1.8994141-1.2226562,3.203125-1.2226562c.5898438,0,1.1308594.0839844,1.625.2519531.28125.0878906.6992188.3085938,1.2539062.6601562.3515625.2207031.5585938.34375.6210938.3691406.140625.0449219.2988281.0664062.4755859.0664062.1494141,0,.5126953-.0371094,1.0888672-.1123047.5771484-.0751953.9179688-.1123047,1.0234375-.1123047.203125,0,.3710938.0400391.5019531.1191406.1064453.1757812.1591797.4707031.1591797.8847656,0,.140625-.0380859.2460938-.1123047.3164062-.0742188.0712891-.1826172.1064453-.3242188.1064453-.2460938,0-.6533203-.0771484-1.2207031-.2314453-.5683594-.1542969-.9140625-.2304688-1.0371094-.2304688-.0449219,0-.1279297.0078125-.2509766.0253906.3779297.7578125.5673828,1.4492188.5673828,2.0742188s-.1972656,1.2724609-.59375,1.9414062c-.3964844.6699219-.9423828,1.1796875-1.6376953,1.5322266-.6962891.3525391-1.4003906.5283203-2.1132812.5283203-.0537109,0-.2021484-.0039062-.4492188-.0136719-.8095703,0-1.5537109.203125-2.2314453.6074219-.3261719.203125-.4892578.3925781-.4892578.5683594,0,.1855469.1582031.3652344.4755859.5410156.8359375.4492188,2.4208984.7089844,4.7539062.7792969,1.0136719.0361328,1.8007812.1816406,2.3652344.4365234.5625.2548828.9882812.6318359,1.2744141,1.1298828.2861328.4960938.4287109,1.0097656.4287109,1.5380859,0,.7138672-.2421875,1.3740234-.7265625,1.9814453s-1.21875,1.1005859-2.2050781,1.4785156c-.9863281.3789062-2.1181641.5683594-3.3945312.5683594-1.4091797,0-2.4960938-.171875-3.2617188-.515625-.7666016-.3427734-1.3105469-.7167969-1.6318359-1.1220703s-.4814453-.8056641-.4814453-1.2021484c0-.34375.1757812-.7724609.5273438-1.2871094.3525391-.515625,1.0839844-1.0546875,2.1933594-1.6181641.3251953-.1669922.5498047-.2861328.6728516-.3564453Zm-.9638672,4.6884766c.8007812.6162109,1.8134766.9248047,3.0371094.9248047.8730469,0,1.7421875-.1386719,2.609375-.4160156s1.5009766-.6738281,1.9023438-1.1894531c.4003906-.5146484.5996094-1.0019531.5996094-1.4589844,0-.28125-.0703125-.5615234-.2109375-.8388672s-.3320312-.5068359-.5742188-.6865234c-.2421875-.1806641-.5615234-.3242188-.9570312-.4296875-.2822266-.0791016-.6835938-.1367188-1.203125-.171875-1.4785156-.1142578-2.3857422-.171875-2.7207031-.171875-.9414062,0-1.7832031.3173828-2.5214844.9511719-.5732422.4941406-.859375,1.0839844-.859375,1.7695312,0,.6347656.2988281,1.2070312.8984375,1.7177734Zm.4355469-12.2304688c0,.7919922.1191406,1.4550781.3574219,1.9873047.2373047.5332031.5625.9296875.9765625,1.1894531s.8320312.3886719,1.2548828.3886719c.7666016,0,1.4023438-.2919922,1.9091797-.8769531.5058594-.5859375.7587891-1.4775391.7587891-2.6757812,0-1.2050781-.2646484-2.1230469-.7919922-2.7539062-.5292969-.6289062-1.1669922-.9433594-1.9160156-.9433594-.8359375,0-1.4707031.2988281-1.9013672.8974609-.4316406.5986328-.6474609,1.5283203-.6474609,2.7871094Z"/>
      <path class="cls-1" d="m289.5693253,28.5859518l.0136719-.3886719c.5722656-.1679688.8808594-.265625.9238281-.2919922.3183594-.1416016.6503906-.3583984.9980469-.6494141s.640625-.6191406.8779297-.9804688c.1064453-.0175781.1894531-.0273438.2509766-.0273438l.1582031.0136719c.0351562.4228516.0527344.7304688.0527344.9238281,0,.0449219-.0078125.2431641-.0253906.5957031v.6992188l.0126953,3.8046875-.0400391,4.0273438c-.0078125.3261719.0449219.5527344.1591797.6806641s.453125.2705078,1.0166016.4287109c.3515625.0976562.6162109.1816406.7929688.2519531.0263672.0605469.0390625.1132812.0390625.1582031,0,.0527344-.0214844.1191406-.0664062.1972656-.3427734-.0078125-.7832031-.0302734-1.3203125-.0654297-.7304688-.0615234-1.2148438-.0927734-1.453125-.0927734-.1142578,0-.8183594.0224609-2.1132812.0664062-.2636719.0087891-.5195312.03125-.765625.0664062-.0439453,0-.1152344-.0136719-.2109375-.0400391-.0449219-.0615234-.0664062-.1142578-.0664062-.1591797,0-.1230469.0839844-.21875.2509766-.2900391.0351562-.0175781.4833984-.1181641,1.3466797-.3037109.2822266-.0527344.4667969-.140625.5546875-.2636719.1503906-.1835938.2246094-.4785156.2246094-.8828125.0175781-.6777344.0273438-2.5322266.0273438-5.5664062,0-.6054688-.0273438-.984375-.0800781-1.1337891-.0439453-.1044922-.1601562-.2255859-.3496094-.3623047s-.5917969-.2753906-1.2089844-.4160156Zm1.109375-6.8544922c0-.2900391.1132812-.5419922.3378906-.7529297s.4941406-.3164062.8115234-.3164062c.3251953,0,.6123047.1181641.8583984.3554688.2460938.2382812.3701172.4941406.3701172.7666016s-.1240234.5302734-.3701172.7724609-.5332031.3632812-.8583984.3632812-.5986328-.109375-.8193359-.3300781c-.2197266-.2197266-.3300781-.5058594-.3300781-.8583984Z"/>
      <path class="cls-1" d="m308.7978409,35.5468893l.0126953.8583984c-.6865234.7314453-1.3652344,1.2412109-2.0341797,1.5322266-.6699219.2910156-1.4570312.4355469-2.3642578.4355469-.9863281,0-1.8759766-.2578125-2.6679688-.7724609s-1.4023438-1.2431641-1.8291016-2.1865234c-.4277344-.9414062-.640625-1.8652344-.640625-2.7734375,0-.9941406.2578125-1.9345703.7724609-2.8193359s1.1982422-1.5458984,2.0478516-1.9814453,1.9160156-.6542969,3.203125-.6542969c1.2324219,0,2.1699219.2119141,2.8125.6347656.3613281.2460938.5410156.5634766.5410156.9511719,0,.28125-.0917969.5146484-.2773438.6992188-.1845703.1855469-.421875.2773438-.7128906.2773438-.4394531,0-.9238281-.2724609-1.453125-.8183594-.3251953-.3339844-.6201172-.5664062-.8847656-.6933594-.2636719-.1269531-.5585938-.1914062-.8847656-.1914062-.7832031,0-1.4355469.3212891-1.9550781.9638672-.7216797.9160156-1.0820312,2.0654297-1.0820312,3.4472656,0,1.4267578.3691406,2.5625,1.109375,3.4072266.7392578.8457031,1.6015625,1.2685547,2.5878906,1.2685547.6875,0,1.296875-.1123047,1.8300781-.3369141.5322266-.2246094,1.1552734-.640625,1.8691406-1.2480469Z"/>
    </g>
    <g>
      <path class="cls-1" d="m4.7718546,17.1864937c.596221-1.2002929,1.003247-2.2901933,1.6331606-3.2308854,1.2661745-1.8907255,3.0197211-3.1006392,5.3535205-3.3486366,3.0194017-.3208384,5.8135206,1.406627,6.931232,4.3114844.1251896.325336.2349568.6566069.4619695.991577.8902995-2.4826884,1.3057886-5.0555697,1.737126-7.5903672-2.0506856-1.6787095-2.4366604-3.3666938-1.1242317-4.7091824,1.118909-1.1445112,2.8226751-1.1026482,3.8926154.0956221,1.2180175,1.3641253.7932536,3.1328814-1.1680374,4.5552103.373879,2.627226.8971924,5.2688498,1.8875186,7.898471.1255356-.2989355.2679974-.5920028.3736128-.8978045.4230872-1.2249636,1.0983235-2.2809851,2.0843916-3.1266406,2.5617569-2.1969398,6.4453903-2.0662678,9.0040733.3098337,1.1843781,1.0998272,2.048357,2.4062279,2.4768201,3.9817838.071151.26169.1812509.5127878.2822489.7935863.2217166.0277844.4167.0845243.6067466.0711377,2.5726551-.1812509,4.785563,2.3231541,4.1400539,5.4977654-.6057353,2.9789759-2.1809185,5.420267-4.4345317,7.4123232-.8511911.752402-1.8420362,1.3468266-2.8302999,2.057166.8532536,1.2897141.4567,2.4879312-.5608783,3.6107391.1945709.3272123.3935862.6152762.5455091.9263475.433227.8869329.1633134,1.6444181-.7501665,2.0286896-.3590952.1510712-.7581505.2240054-1.1464007.2865603-4.7906728.7719096-9.6243928.8748771-14.4567156.7789489-3.1638062-.0628077-6.3238999-.3456421-9.4833815-.5630207-.7058152-.0485695-1.4171659-.1814904-2.0994548-.3709249-1.2186695-.33835-1.5534933-1.1381239-1.0141053-2.269528.116833-.2450433.2570593-.4789488.4027146-.7479442-.9441385-1.17344-1.1924819-2.4120563-.3054558-3.8153167-.3444711-.2236195-.6684366-.4266135-.9849503-.6406122C3.1893926,29.4295695,1.0917742,26.6946656.1853203,23.1079052c-.3218763-1.273746-.2464006-2.5372858.4000932-3.6919367.6964339-1.2438192,1.7518433-2.0218234,3.22692-2.1283703.3525483-.0254691.7034599-.0736261.9595211-.1011045Zm25.8541892,10.4375666c.282342-.0356487.4086228-.0152628.4882103-.0668796,2.9297676-1.9003729,5.0126688-4.4669468,5.9982046-7.8390033.204511-.6996941.2663473-1.5046443.1512309-2.2221694-.3370327-2.1010649-1.4831539-3.7388962-3.256767-4.897406-2.1328679-1.3931606-4.8507127-1.1764473-6.6724296.6095543-.7177114.7036728-1.2567534,1.6130009-1.7792019,2.4872126-.953919,1.5962877-.8056688,3.1491822.2999335,4.6537998.4168597.5673055.7731339,1.2050035,1.0258019,1.8611314.3979508,1.0334533.2331072,2.0368333-.5260014,2.876381-.5758351.6368331-1.6215838.6851498-2.2617702.1531205-.6285563-.5223288-.7878245-1.5947042-.2968064-2.2597875.1249634-.1692881.3817832-.2412775.7347307-.451191-.2540919.4871591-.5423288.7822224-.5067865,1.0309782.0555689.3884631.2541983.8238192.5326814,1.0952364.3145044.3065203.7483434.1474651,1.0773122-.129501.4876248-.410539.6328411-1.255782.3537193-1.9768067-.3047505-.7871591-1.046241-1.3098073-1.818124-1.2814506-.7039123.0258683-1.2561413.402688-1.3650435,1.241943-.1615303,1.2449769-.3057086,2.5333071-.1505656,3.7645515.1124418.8924818.6526814,1.7633935,1.1295411,2.5685167.471018.7952496,1.2701133,1.0226482,2.1782705.7984299,1.2968731-.320173,2.4600935-.8880773,3.3664543-1.8904328,2.0642585-2.2828347,3.086095-4.9498611,2.8530411-8.0429421-.034318-.4551165-.1700732-.9613042-.4293281-1.3210914-.1876381-.2604126-.6540387-.4162742-1.0025817-.4281172-.2060945-.0069993-.4248304.3569794-.637871.5541318.1771923.1647372.3444179.3424352.535396.4892616.1114571.085682.2609448.1220093.4128411.1891817-.6096608.7178577-1.0302197.7659615-1.5399736.2274917-.7915104-.8361146-.3636328-2.2312578.7820227-2.5497675,1.0069064-.2799335,1.939335.0821291,2.3925353,1.0480374.2635263.5616634.4619029,1.195955.5066135,1.8108719.1840586,2.5323491-.4333733,4.8647247-1.9252831,6.9443125-.1953693.2722955-.3782968.5534798-.6500068.952402Zm-11.824473-4.884738c1.0572457.2973919,1.3021692.9703262.8594146,1.9404661-.3856554.8450567-1.3265205,1.1789223-2.212695.752881-.7350766-.3533866-1.1275983-.9696475-1.2232603-1.774957-.1084365-.9125617.1922289-1.7146776.6738391-2.4675054.3837792-.599907.7846708-1.1901399,1.1412377-1.8059085.4762742-.8225018.5938391-1.6871859.3252296-2.6274522-.3801597-1.3306456-1.075742-2.4612778-2.0276251-3.440453-1.5465605-1.5909251-3.8642189-2.0503796-5.9128952-1.1972856-3.4291024,1.4279177-5.0415311,5.1881046-3.6662947,8.6362755,1.0874386,2.7266139,2.9471329,4.846082,5.3192557,6.5359159.0682635.0486361.2093813-.0049767.4254691-.0169661-.169368-.2994012-.2820094-.5365403-.4281704-.7508717-1.3426882-1.9690622-1.9198806-4.1485569-1.7785765-6.5178188.0547305-.9178977.2351298-1.8087694.8607187-2.5389226.5170061-.6034332,1.191923-.7539323,1.9377781-.6179509.7074785.1289954,1.0650168.653706,1.2687427,1.280945.1865602.5743847-.1170326,1.2332271-.6511778,1.5122823-.5062942.2644711-.894744.1495942-1.2122956-.4189621.1614105-.0928543.3163939-.1390286.4047106-.2422356.1563673-.1827944.4241651-.466893.3709116-.5882636-.0895675-.2041118-.4051498-.4491684-.6053494-.4325217-.3175915.0264005-.7259349.1760745-.9002663.4158085-.2407984.3311245-.3811977.7859882-.4240187,1.2023156-.3579375,3.4791889.8795876,6.3780982,3.3915907,8.7235277.5799868.5415437,1.4076117.8842716,2.1804528,1.1388691,1.4785631.4870926,2.2807322.152841,3.0987763-1.1759683,1.167106-1.8958486,1.1027946-3.9275855.4778444-5.9575525-.3239388-1.0523222-1.3746908-1.3462278-2.3162612-.7748105-.8519363.5170194-1.2545178,1.5821559-.8227014,2.4698474.1678111.3449635.5697938.7098205.9246575.7850833.2547306.0540253.716873-.2915636.8911512-.5777779.2367266-.3888224.3618364-.9006256-.1720692-1.2541719-.0790286-.0523353-.1327079-.1429541-.1981238-.2158616Zm2.7999206,7.4267078c-.2342915.0868264-.6126415.3332935-1.00177.35171-1.2651366.0598669-2.5424222.1285562-3.7991756.0163007-1.0481306-.0936128-2.1742652-.2387625-3.0926552-.7033534-4.4944784-2.2736797-7.6169407-5.7207594-8.7321904-10.7658567-.0497938-.2252828-.1562608-.438044-.229328-.6375384-1.5840721-.1642183-2.5025686.2943713-3.186574,1.5531872-.4576581.8422889-.5151431,1.7369664-.3361677,2.653214.4806654,2.4604129,1.7990821,4.4469601,3.5462015,6.1825027.0537325.0533866.193493.0202661.2731338.0260279-.266201-.8680507-.6248038-1.6801466-.7365271-2.5248707-.0769661-.5818098.088024-1.2526283.3288889-1.8032072.2335596-.5338657,1.0701931-.7318165,1.5640322-.4807586.4916834.2499668.7398271.654877.6344379,1.1228611-.4715636-.1040719-.9107786-.3434731-1.2505125-.2438723-.5640453.1653626-.4477047.7547972-.4269196,1.2255757.0888357,2.0139458,1.1972723,3.4791622,2.6343717,4.7295816.2521491.2194012.7378577.2401597,1.1135464.2332535.7504193-.0137991,1.4995744-.1674385,2.2488094-.1638856,7.4457763.0353027,14.8914329.0909514,22.3371427.1408383,1.7186563.4767133,2.7680111-.4607186,3.6541856-1.7342252.2031803-.2919761.4253361-.5797872.572229-.9000001.3249102-.7081438.7388158-1.4052564.5614904-2.2470396-.2632602-.0273719-.5060946-.0143047-.7233667-.0825815-.5846308-.1837392-.9977247-1.0147839-.7808251-1.5171659.2450832-.5676648,1.0228611-.7916834,1.6398672-.4606787.4888757.2622755.7369529.6819828.820253,1.23175.136181.8986296-.0836727,1.7197608-.4332003,2.535689-.1332801.3110979-.4906188.6180573-.1849901,1.1274386,1.606281-1.6899138,2.8654429-3.479628,3.4757291-5.6659756.1269328-.4547306.2052562-.93175.2358883-1.4030475.1116035-1.7180974-.9134799-3.1612647-2.5072127-3.5768336-.9441252-.2461744-1.1167267-.1600799-1.3233003.78173-.6926814,3.1578847-2.2456823,5.8274128-4.6628351,7.9506334-1.7929211,1.5748639-3.7223027,3.0193751-6.1918041,3.3030611-1.4080641.1617432-2.8446445.1148503-4.2672129.0912442-.5596541-.0092748-1.1161146-.2111511-1.7736397-.3457086Zm-4.6632742,5.9152505c5.5107527-.0302595,11.0095294.1212509,16.4912469.7085164.2741318.0293679.5702862.0660945.8249635-.0079574.1824352-.0530406.4209315-.2756754.4360347-.4407852.0154757-.1690619-.1734398-.459388-.3387226-.5214372-.3646973-.1369129-.7681039-.202036-1.1603728-.229195-2.6456026-.1831138-5.2902204-.4155689-7.9394291-.5057885-5.2693023-.1794411-10.5308999.0631936-15.7846599.4777246-.2703793.021344-.5486362.0771524-.7968864.1802795-.1016101.0422089-.1949834.2609049-.1791883.3849369.0158217.1240186.1540785.2950899.2720027.3288224.1791617.0512309.3872921.0040586.5828877-.0054424,2.5307256-.1227944,5.0614246-.2463207,7.5921237-.369674Zm-8.2100213-3.9481311c.0085695.1448969.0171258.2897938.0256953.4346907.3822356,0,.7654958.0177911,1.1466003-.0033134,1.1856289-.0656687,2.3698607-.1987359,3.5556626-.2120692,6.7732679-.0761544,13.5495697-.2798004,20.3109548.3589089.2165004.0204657.445855-.0953027.669235-.1475582-.0107385-.1037924-.0214637-.2075716-.0321757-.3113507-8.1419308-.9633934-16.3065097-.7223554-24.4743753-.2786561-.4022223.0218496-.8011578.1048304-1.201597.159348ZM21.7091695,6.877643c.7371658-.0110978,1.3401998-.6448438,1.3264673-1.3939989-.012668-.6900467-.7013707-1.3095012-1.442941-1.2978711-.7079575.0111111-1.217911.5711378-1.2120827,1.3311646.0060679.7937726.5707519,1.3721093,1.3285564,1.3607055Zm16.7375011,19.02989c-.1866401-.4601598-.227372-.7568198-.3971258-.9155823-.1302994-.1218497-.429887-.1115503-.6412376-.0781903-.1124152.0177246-.3015702.2556487-.2756088.3139854.0852961.1918829.2222755.4006255.3977379.5016767.1825283.1051497.4328544.0927079.9162343.1781105Z"/>
      <path class="cls-1" d="m22.6065881.9905097c.0187891.5716834-.338696.9799203-.8918964,1.0186163-.543726.0380173-.9657753-.3388025-1.0092084-.9011046C20.6612784.5363379,21.116355.0076619,21.6591495.000077c.4928544-.0068929.9296741.4497805.9474386.9904326Z"/>
    </g>
  </g>
</svg>