<?xml version="1.0" encoding="UTF-8"?>
<svg id="_レイヤー_2" data-name="レイヤー 2" xmlns="http://www.w3.org/2000/svg" viewBox="0 0 219.6943359 104.2441413">
  <defs>
    <style>
      .cls-1 {
        fill: #fff;
        stroke-width: 0px;
      }
    </style>
  </defs>
  <g id="_レイヤー_1-2" data-name="レイヤー 1">
    <g>
      <path class="cls-1" d="m0,88.7592781h.8808594l.3876953.0234375.3056641-.0234375c.8066406,0,1.3085938.0078125,1.5039062.0234375l.0117188.2241211c0,1.1083984-.015625,2.1816406-.046875,3.2197266-.0234375.6132812-.0351562.9628906-.0351562,1.0493164,0,1.3842773.0449219,2.2490234.1357422,2.5947266.0908203.3461914.3027344.6235352.6386719.831543.3349609.2084961.7382812.3125,1.2109375.3125.5761719,0,1.125-.1196289,1.6494141-.3598633.5244141-.2397461.9716797-.5327148,1.3417969-.878418.0390625-.2988281.0585938-.6289062.0585938-.9907227,0-1.1713867.0117188-1.9614258.0361328-2.3706055.0078125-.2436523.0117188-.4560547.0117188-.6367188,0-1.2739258-.0634766-1.9931641-.1884766-2.1582031-.1259766-.1650391-.6054688-.2910156-1.4394531-.3774414-.2753906-.03125-.4755859-.059082-.6015625-.0825195-.0625-.1020508-.09375-.1806641-.09375-.2358398l.0351562-.1298828c.2041016-.0234375.4052734-.0351562.6015625-.0351562l1.875.0234375c.6679688-.015625,1.0224609-.0234375,1.0615234-.0234375.0859375,0,.1689453.0039062.2480469.0117188l.0234375.8608398c-.0556641,1.1953125-.0869141,2.6733398-.0947266,4.4345703l-.0234375.9550781.046875,1.6040039c.0712891.1259766.1337891.2006836.1894531.2241211.09375.0390625.2861328.0585938.5771484.0585938h.1064453c.1025391,0,.3925781.0239258.8730469.0712891.0078125.1020508.0117188.1767578.0117188.2236328v.1298828c-1.0537109.2280273-1.9072266.4560547-2.5595703.684082-.2597656.0864258-.4794922.1494141-.6601562.1889648-.0400391-.2753714-.0595703-.4443359-.0595703-.5073242v-.9555664c0-.0390625-.0039062-.1450195-.0117188-.3183594-.1015625.0708008-.2197266.1572266-.3535156.2597656-.6210938.4794922-1.2773438.8842773-1.9697266,1.2148438-.4638672.2275391-.9121094.3417969-1.3447266.3417969-.8251953,0-1.4970703-.3066406-2.0166016-.9199219-.5263672-.6132812-.7900391-1.6586914-.7900391-3.137207,0-.0786133.0039062-.2202148.0117188-.4243164.03125-.3774414.0478516-.640625.0478516-.7900391,0-.0551758-.0048828-.2285156-.0117188-.519043-.0087891-.1259766-.0126953-.2358398-.0126953-.3305664,0-.0703125.0039062-.2299805.0126953-.4775391.0068359-.2475586.0117188-.4223633.0117188-.5249023,0-.1333008-.0048828-.2514648-.0117188-.3535156l-.0244141-.6254883.0117188-.3300781c0-.1254883-.0625-.2397461-.1884766-.3417969-.4951172-.1337891-.8193359-.2104492-.9726562-.2299805s-.2890625-.0532227-.4072266-.1000977v-.3774414Z"/>
      <path class="cls-1" d="m14.7871094,97.6279304c.1962891-.0546875.4238281-.1020508.6835938-.1411133.4951172-.0703125.7919922-.152832.890625-.246582.0976562-.0942383.1474609-.3095511.1474609-.6464844l.0234375-.4233398c.0078125-.1567383.0117188-.3564453.0117188-.5996094l-.0234375-3.6083984c0-.4858398-.0634766-.7993164-.1884766-.9404297-.2128906-.2192383-.6054688-.3720703-1.1796875-.4584961v-.4306641c.5742188-.1572266,1.0146484-.3623047,1.3212891-.6147461.4482422-.3549805.8251953-.8359375,1.1318359-1.4428711l.4013672.0117188c.0234375.3706055.0351562.6347656.0351562.7929688v.7807617l.0117188.2128906c.0947266-.0629883.2041016-.1420898.3300781-.2368164.4716797-.3549805.9550781-.6450195,1.4501953-.8696289.4960938-.2250977.9355469-.3808594,1.3212891-.4672852.2441406-.0634766.5185547-.0947266.8251953-.0947266.6445312,0,1.1992188.1728516,1.6630859.5195312.4638672.3461914.7646484.753418.9023438,1.2216797.1376953.46875.2060547,1.3994141.2060547,2.7929688v1.7832031c0,.046875-.0058594.2045898-.0175781.472168s-.0175781.574707-.0175781.9208984c0,.5512695.0234375.9018555.0712891,1.0512695.0390625.1020508.1416016.2045898.3066406.3066406.7548828.1025391,1.1943359.2246094,1.3203125.3662109v.0942383c0,.0786133-.0234375.1772461-.0703125.2949219h-.2246094l-1.5566406-.0234375-1.5332031.0351562c-.5654297.0161133-1.0888672.012207-1.5683594-.0117188l-.0703125-.2475586c0-.0473633.0273438-.1098633.0820312-.1884766.2128906-.0947266.5107422-.1577148.8964844-.1889648.2275391-.0161133.3847656-.0395508.4716797-.0712891.0869141-.03125.1923828-.0942383.3183594-.1889648.0947266-.1889648.1416016-.3461914.1416016-.472168,0-.0551758-.0078125-.1655273-.0234375-.3305664-.0234375-.3623047-.0400391-1.2636719-.046875-2.7050781v-.6142578l.0234375-.9443359c0-1.015625-.2050781-1.7167969-.6132812-2.1025391-.4091797-.3857422-.9550781-.5786133-1.6396484-.5786133-.5263672,0-1.0419922.1162109-1.5449219.3481445-.5029297.2314453-.9902344.5795898-1.4619141,1.043457-.0166016.3774414-.0244141.699707-.0244141.9672852l.0361328,2.6064453c0,1.3603516.0195312,2.1933594.0585938,2.5.015625.1259766.0429688.2124023.0830078.2592773.0625.0629883.1884766.1142578.3769531.1533203.1884766.0395508.4072266.0942383.6542969.1655273.2480469.0703125.4111328.1137695.4892578.1293945.1572266.0395508.2636719.1181641.3183594.2358398l-.0117188.2358398h-1.2382812l-2.546875-.0351562c-.5898438.0078125-.9638672.0117188-1.1201172.0117188h-.2949219l-.0244141-.1533203c0-.0551758.0126953-.1333008.0361328-.2358398Z"/>
      <path class="cls-1" d="m29.9501953,83.2099617v-.0595703c0-.0800781.0322266-.1914062.0947266-.3349609.8603516-.1523438,1.7763672-.3842773,2.7480469-.6958008.0546875-.0083008.1416016-.012207.2587891-.012207.0400391.1259766.0595703.2084961.0595703.2480469v3.5141602l-.0117188,1.1206055.0117188,1.25-.0234375,1.0141602c0,.0395508.0078125.1733398.0234375.4008789l.9667969-.3652344c.1025391-.03125.4404297-.1337891,1.0146484-.3066406.7304688-.1181641,1.1552734-.1772461,1.2734375-.1772461.7861328,0,1.4941406.1259766,2.1230469.3774414.3847656.1572266.7666016.4189453,1.1435547.7841797.3779297.3657227.65625.7529297.8378906,1.1621094.3144531.7470703.4716797,1.3916016.4716797,1.9335938,0,.8574219-.0556641,1.4511719-.1650391,1.78125-.2675781.7861328-.59375,1.4072266-.9794922,1.8632812-.3847656.4560547-.9238281.8452148-1.6152344,1.1674805-.6923828.3222656-1.4267578.4838867-2.2060547.4838867-.7148438,0-1.3916016-.1337891-2.0283203-.4013672-.6367188-.2670898-.9941406-.4008789-1.0732422-.4008789-.2431641,0-.5537109.3227539-.9316406.9672852l-.3417969-.0117188c-.03125-.5263672-.046875-1.1743164-.046875-1.9438477l.0234375-1.7553711-.0117188-.8955078.0234375-2.5678711-.0234375-.4946289.046875-1.2133789v-1.0366211l.0117188-.4238281c0-.0864258-.0039062-.4282227-.0117188-1.0253906v-.706543c.0234375-1.3662109-.0361328-2.1557617-.1777344-2.3676758-.2294922-.3378906-.7246094-.6279297-1.4853516-.8720703Zm5.6142578,14.5004883c1.1943359,0,2.1044922-.3359375,2.7304688-1.0083008.625-.6723633.9375-1.6728516.9375-3.0014648,0-1.21875-.3544922-2.2055664-1.0615234-2.9604492-.7080078-.7548828-1.5810547-1.1318359-2.6181641-1.1318359-.7548828,0-1.3876953.1220703-1.8994141.3652344-.3066406.1494141-.4775391.2871094-.5126953.4130859s-.0527344.9667969-.0527344,2.5234375c0,1.8481445.0390625,2.9291992.1171875,3.2436523.1337891.4873047.3779297.8374023.7314453,1.0493164.5585938.3383789,1.1005859.5073242,1.6279297.5073242Z"/>
      <path class="cls-1" d="m45.2675781,98.0527351l-.046875-.1533203c0-.0551758.0351562-.1376953.1054688-.2480469l.6962891-.1411133.9785156-.1767578c.0791016-.0390625.1337891-.0942383.1650391-.1645508.0478516-.1020508.0712891-.4042969.0712891-.9067383,0-2.6689453-.0166016-4.2094727-.0478516-4.621582s-.1015625-.6728516-.2119141-.7827148-.3935547-.1962891-.8496094-.2592773c-.2666016-.0390625-.4794922-.090332-.6367188-.1533203l.0478516-.359375c.8251953-.3388672,1.3798828-.6308594,1.6621094-.875.3935547-.3544922.7275391-.8198242,1.0029297-1.3955078l.4013672.0117188c.046875.3935547.0703125,1.2661133.0703125,2.6181641l-.0117188.2006836c0,.0473633.0078125.1220703.0234375.2241211.2988281-.5424805.671875-1.0415039,1.1201172-1.4980469l.2714844-.2709961c.1103516-.1254883.2167969-.2241211.3183594-.2949219.5507812-.3300781.9589844-.4951172,1.2265625-.4951172.3457031,0,.6289062.1157227.8496094.3476562.2197266.2319336.3300781.5170898.3300781.8549805,0,.2675781-.0791016.4760742-.2363281.625-.2119141.1967773-.4560547.2949219-.7304688.2949219-.1259766,0-.3740234-.0664062-.7431641-.2001953-.3701172-.1337891-.6132812-.2006836-.7314453-.2006836-.2197266,0-.3730469.0356445-.4599609.105957-.2197266.1733398-.4873047.5273438-.8017578,1.0615234-.2441406.4013672-.3662109.7709961-.3662109,1.1088867l.0595703,1.9501953.0234375,2.340332c.0234375.2680664.0546875.4414062.0947266.5200195.03125.0551758.109375.1220703.2353516.2006836.8496094.0712891,1.3525391.1225586,1.5097656.1538086.1103516.0083008.1923828.0161133.2480469.0239258.3378906.0078125.5732422.0551758.7070312.1416016.0712891.0395508.1064453.0986328.1064453.1767578,0,.0473633-.03125.1103516-.0947266.1889648l-1.3085938-.0239258-.4960938-.0117188-.71875.0117188h-1.203125l-.6484375.0356445-1.9814453.0356445Z"/>
      <path class="cls-1" d="m65.078125,91.7900398l-4.7294922.034668-.8964844-.0009766c-.3613281,0-.7304688.0161133-1.1083984.0488281-.0703125.2358398-.1054688.3969727-.1054688.4838867l.0117188.1176758v.1176758l-.0117188.578125c0,.4794922.1503906,1.0673828.453125,1.7631836s.7353516,1.2265625,1.2978516,1.5922852c.5615234.3652344,1.2636719.5600586,2.1054688.5834961.4472656-.0234375.8056641-.0786133,1.0732422-.1650391.2666016-.0864258.6445312-.2866211,1.1318359-.6015625l.8486328-.6958008.0712891.4716797c0,.0551758-.0039062.1142578-.0117188.1767578-.3535156.4482422-.8017578.8417969-1.3447266,1.1796875-.5419922.3378906-1.0927734.5854492-1.6513672.7431641-.2666016.0703125-.7070312.105957-1.3203125.105957-.5585938,0-1.1083984-.1137695-1.6513672-.3422852-.8017578-.3457031-1.4326172-.9018555-1.8925781-1.668457s-.6904297-1.6962891-.6904297-2.7895508c0-.3457031.0654297-.7900391.1943359-1.3325195.1298828-.5424805.3642578-1.1201172.7021484-1.7333984.2275391-.4165039.5068359-.7587891.8369141-1.0258789.4726562-.3779297.8847656-.6411133,1.2392578-.7905273.5107422-.2124023,1.1044922-.3183594,1.7802734-.3183594.7314453,0,1.3291016.1337891,1.7929688.4008789.6289062.3540039,1.0986328.8100586,1.4091797,1.3681641.3105469.5585938.4658203,1.0693359.4658203,1.5332031v.1650391Zm-6.5810547-.4248047h.5546875c.4003906,0,1.5957031-.0625,3.5849609-.1884766.3144531-.015625.5068359-.046875.578125-.0942383.1416016-.1494141.2119141-.2832031.2119141-.4008789,0-.2436523-.078125-.5209961-.2353516-.831543s-.3994141-.550293-.7255859-.7192383-.7060547-.2539062-1.1376953-.2539062c-.9121094,0-1.6435547.3422852-2.1943359,1.0263672-.4238281.5185547-.6367188,1.0063477-.6367188,1.4619141Z"/>
      <path class="cls-1" d="m78.2841797,96.4130867c.046875.1025391.0712891.1767578.0712891.2241211,0,.1176758-.0947266.3266602-.2832031.625-.2441406.3930664-.515625.6801758-.8144531.8608398-.1884766.1181641-.4482422.1772461-.7783203.1772461-.5654297,0-.9902344-.1733398-1.2734375-.519043-.1728516-.2041016-.2949219-.5698242-.3652344-1.0966797l-1.3212891.9199219c-.4638672.2670898-.8173828.4360352-1.0615234.5068359-.3925781.1020508-.8652344.1533203-1.4150391.1533203-.4013672,0-.7177734-.1201172-.9492188-.359375-.2324219-.2402344-.3476562-.5488281-.3476562-.9257812,0-.5429688.3320312-1.1914062.9980469-1.9462891s1.5703125-1.3720703,2.7128906-1.8515625c.8037109-.3378906,1.296875-.5541992,1.4775391-.6484375.015625-.2597656.0234375-.5424805.0234375-.8491211,0-.9985352-.1396484-1.6748047-.4199219-2.0288086-.2792969-.3535156-.6796875-.5302734-1.2001953-.5302734-.5449219,0-1.0527344.2119141-1.5263672.6367188-.2919922.2670898-.5126953.7705078-.6621094,1.5092773-.0478516.2045898-.1376953.4248047-.2714844.6606445-.3378906.2202148-.609375.3300781-.8134766.3300781-.1738281,0-.3310547-.0507812-.4716797-.1533203-.0791016-.0546875-.1181641-.1176758-.1181641-.1884766,0-.2045898.2177734-.6665039.6542969-1.3857422.4365234-.7197266.9863281-1.2578125,1.6513672-1.6157227.6640625-.3579102,1.2441406-.5366211,1.7392578-.5366211.6757812,0,1.1796875.0610352,1.5097656.1826172.3300781.1220703.6210938.3359375.8730469.6425781.2509766.3066406.4042969.6411133.4599609,1.0029297.03125.1728516.046875.7900391.046875,1.8515625l-.0351562,1.875.0117188,1.3681641c0,.1806641-.0039062.3339844-.0117188.4599609-.0078125.2280273-.0117188.3969727-.0117188.5068359,0,.2597656.0742188.4677734.2236328.625.1494141.1577148.3261719.2363281.5302734.2363281.2988281,0,.5546875-.1494141.7666016-.4482422l.1416016-.1889648c.0400391-.0234375.1259766-.0507812.2597656-.0825195Zm-3.4560547-.3417969c.0556641-.9985352.0830078-1.7021484.0830078-2.1113281,0-.2119141-.0117188-.4990234-.0351562-.8608398-.5283203.1889648-1.0888672.4760742-1.6806641.8608398-.5917969.3857422-1.0605469.8295898-1.4082031,1.3330078-.2519531.3613281-.3789062.7036133-.3789062,1.0258789,0,.3066406.1044922.5620117.3144531.7666016.2089844.2045898.4707031.3066406.7861328.3066406.2451172,0,.5410156-.0864066.8876953-.2592773.4580078-.2280273.9345703-.5820312,1.4316406-1.0615234Z"/>
      <path class="cls-1" d="m82.0439453,98.0053718l-.0234375-.3422852c.0625-.046875.1210938-.0761719.1767578-.0883789.0546875-.0117188.2539062-.0292969.5957031-.0527344s.5556641-.1000977.6425781-.2299805c.0859375-.1293945.1298828-.6655273.1298828-1.6083984l.0234375-4.6542969-.0234375-.8251953c0-.0703125.0078125-.3334961.0234375-.7890625.015625-.2124023.0234375-.4677734.0234375-.7666016l-.046875-2.0498047.0117188-1.7910156c0-.4321289-.0615234-.7089844-.1826172-.8310547-.1220703-.121582-.5527344-.2338867-1.2919922-.3359375v-.1416016c0-.046875.0039062-.1137695.0117188-.2001953.4482422-.0947266.8457031-.2124023,1.1914062-.3540039.1806641-.0786133.640625-.3222656,1.3798828-.730957h.3652344c-.0078125.1806641-.0117188.2910156-.0117188.3300781v1.0258789l-.0117188.5073242.0361328.9316406-.0126953,1.4033203.0126953,2.3349609-.0361328,2.9013672v.8964844c0,.1103516.0039062.2636719.0117188.4599609l.1298828.0117188c.2675781,0,.5390625-.0981445.8134766-.2949219,1.234375-.8803711,2.0087891-1.4799805,2.3242188-1.7983398.3144531-.3183594.4716797-.5483398.4716797-.6899414,0-.0864258-.0517578-.1962891-.1533203-.3300781-.2363281-.1259766-.5-.2124023-.7900391-.2597656-.0869141-.015625-.1816406-.0351562-.2832031-.0585938-.1416016-.0395508-.2597656-.0668945-.3544922-.0830078l-.0234375-.1176758c0-.0551758.0195312-.1337891.0595703-.2358398,1.2421875-.0473633,2.3232422-.0708008,3.2431641-.0708008.5185547,0,1.0732422.0117188,1.6630859.0351562v.1533203c0,.0551758-.0205078.1259766-.0595703.2124023-.1181641.0234375-.3027344.059082-.5537109.1064453-.4882812.078125-.8574219.1875-1.109375.328125-.6054688.3208008-1.2304688.7729492-1.875,1.3554688-.3847656.347168-.7197266.6381836-1.0019531.8745117l-.4248047.3666992c.03125.0546875.0820312.121582.1533203.2001953.03125.03125.09375.1025391.1884766.2124023s.2636719.2944336.5068359.5541992c.8496094.8964844,1.4785156,1.5883789,1.8876953,2.0756836.1328125.1572266.2822266.3300781.4482422.519043.6132812.6835938.9707031,1.0654297,1.0732422,1.1435547.2197266.1416016.5458984.2519531.9785156.3305664.2041016.0395508.3808594.074707.5302734.105957.03125.0947266.0478516.1694336.0478516.2241211l-.0117188.1181641c-.5585938-.0473633-.9599609-.0708008-1.203125-.0708008h-.2128906l-3.2783203.0942383c-.1259766.015625-.2119141.0234375-.2597656.0234375-.078125,0-.1611328-.015625-.2470703-.046875-.0234375-.0629691-.0351562-.1181641-.0351562-.1655273v-.0820312c.046875-.0712891.0898438-.1142578.1289062-.1298828.7753906-.0629883,1.2265625-.1142578,1.3515625-.1533203.0703125-.015625.1376953-.059082.2001953-.1298828,0-.1337891-.1142578-.3496094-.3417969-.6484375s-.7958984-.9555664-1.7070312-1.9697266c-.5800781-.6445312-.9550781-1.0200195-1.1240234-1.1259766-.1689453-.1064453-.4033203-.159668-.7021484-.159668h-.4482422c-.03125.2827148-.046875.9291992-.046875,1.9404297,0,.940918.078125,1.5444336.2363281,1.8110544.0859375.1489066.2900391.2431448.6132812.2822073.3222656.0390625.5302734.0981445.625.1767578.0625.0473633.1015625.1572266.1171875.3300781-.4716797-.0078125-.8681641-.0117188-1.1904297-.0117188-.5195312,0-1.0849609.0117188-1.6982422.0356445-.3701172.015625-.6611328.0234375-.8730469.0234375-.1572266,0-.4169922-.0039062-.7783203-.0117188Z"/>
      <path class="cls-1" d="m105.2148438,96.4130867c.046875.1025391.0712891.1767578.0712891.2241211,0,.1176758-.0947266.3266602-.2832031.625-.2441406.3930664-.515625.6801758-.8144531.8608398-.1884766.1181641-.4482422.1772461-.7783203.1772461-.5654297,0-.9902344-.1733398-1.2734375-.519043-.1728516-.2041016-.2949219-.5698242-.3652344-1.0966797l-1.3212891.9199219c-.4638672.2670898-.8173828.4360352-1.0615234.5068359-.3925781.1020508-.8652344.1533203-1.4150391.1533203-.4013672,0-.7177734-.1201172-.9492188-.359375-.2324219-.2402344-.3476562-.5488281-.3476562-.9257812,0-.5429688.3320312-1.1914062.9980469-1.9462891s1.5703125-1.3720703,2.7128906-1.8515625c.8037109-.3378906,1.296875-.5541992,1.4775391-.6484375.015625-.2597656.0234375-.5424805.0234375-.8491211,0-.9985352-.1396484-1.6748047-.4199219-2.0288086-.2792969-.3535156-.6796875-.5302734-1.2001953-.5302734-.5449219,0-1.0527344.2119141-1.5263672.6367188-.2919922.2670898-.5126953.7705078-.6621094,1.5092773-.0478516.2045898-.1376953.4248047-.2714844.6606445-.3378906.2202148-.609375.3300781-.8134766.3300781-.1738281,0-.3310547-.0507812-.4716797-.1533203-.0791016-.0546875-.1181641-.1176758-.1181641-.1884766,0-.2045898.2177734-.6665039.6542969-1.3857422.4365234-.7197266.9863281-1.2578125,1.6513672-1.6157227.6640625-.3579102,1.2441406-.5366211,1.7392578-.5366211.6757812,0,1.1796875.0610352,1.5097656.1826172.3300781.1220703.6210938.3359375.8730469.6425781.2509766.3066406.4042969.6411133.4599609,1.0029297.03125.1728516.046875.7900391.046875,1.8515625l-.0351562,1.875.0117188,1.3681641c0,.1806641-.0039062.3339844-.0117188.4599609-.0078125.2280273-.0117188.3969727-.0117188.5068359,0,.2597656.0742188.4677734.2236328.625.1494141.1577148.3261719.2363281.5302734.2363281.2988281,0,.5546875-.1494141.7666016-.4482422l.1416016-.1889648c.0400391-.0234375.1259766-.0507812.2597656-.0825195Zm-3.4560547-.3417969c.0556641-.9985352.0830078-1.7021484.0830078-2.1113281,0-.2119141-.0117188-.4990234-.0351562-.8608398-.5283203.1889648-1.0888672.4760742-1.6806641.8608398-.5917969.3857422-1.0605469.8295898-1.4082031,1.3330078-.2519531.3613281-.3789062.7036133-.3789062,1.0258789,0,.3066406.1044922.5620117.3144531.7666016.2089844.2045898.4707031.3066406.7861328.3066406.2451172,0,.5410156-.0864066.8876953-.2592773.4580078-.2280273.9345703-.5820312,1.4316406-1.0615234Z"/>
      <path class="cls-1" d="m108.7265625,83.2099617v-.0595703c0-.0800781.0322266-.1914062.0947266-.3349609.8603516-.1523438,1.7763672-.3842773,2.7480469-.6958008.0546875-.0083008.1416016-.012207.2587891-.012207.0400391.1259766.0595703.2084961.0595703.2480469v3.5141602l-.0117188,1.1206055.0117188,1.25-.0234375,1.0141602c0,.0395508.0078125.1733398.0234375.4008789l.9667969-.3652344c.1025391-.03125.4404297-.1337891,1.0146484-.3066406.7304688-.1181641,1.1552734-.1772461,1.2734375-.1772461.7861328,0,1.4941406.1259766,2.1230469.3774414.3847656.1572266.7666016.4189453,1.1435547.7841797.3779297.3657227.65625.7529297.8378906,1.1621094.3144531.7470703.4716797,1.3916016.4716797,1.9335938,0,.8574219-.0556641,1.4511719-.1650391,1.78125-.2675781.7861328-.59375,1.4072266-.9794922,1.8632812-.3847656.4560547-.9238281.8452148-1.6152344,1.1674805-.6923828.3222656-1.4267578.4838867-2.2060547.4838867-.7148438,0-1.3916016-.1337891-2.0283203-.4013672-.6367188-.2670898-.9941406-.4008789-1.0732422-.4008789-.2431641,0-.5537109.3227539-.9316406.9672852l-.3417969-.0117188c-.03125-.5263672-.046875-1.1743164-.046875-1.9438477l.0234375-1.7553711-.0117188-.8955078.0234375-2.5678711-.0234375-.4946289.046875-1.2133789v-1.0366211l.0117188-.4238281c0-.0864258-.0039062-.4282227-.0117188-1.0253906v-.706543c.0234375-1.3662109-.0361328-2.1557617-.1777344-2.3676758-.2294922-.3378906-.7246094-.6279297-1.4853516-.8720703Zm5.6142578,14.5004883c1.1943359,0,2.1044922-.3359375,2.7304688-1.0083008.625-.6723633.9375-1.6728516.9375-3.0014648,0-1.21875-.3544922-2.2055664-1.0615234-2.9604492-.7080078-.7548828-1.5810547-1.1318359-2.6181641-1.1318359-.7548828,0-1.3876953.1220703-1.8994141.3652344-.3066406.1494141-.4775391.2871094-.5126953.4130859s-.0527344.9667969-.0527344,2.5234375c0,1.8481445.0390625,2.9291992.1171875,3.2436523.1337891.4873047.3779297.8374023.7314453,1.0493164.5585938.3383789,1.1005859.5073242,1.6279297.5073242Z"/>
      <path class="cls-1" d="m124.1738281,83.4047859v-.2592773c.2197266-.0708008.4638672-.1455078.7304688-.2241211.3955078-.1254883.9804688-.3188477,1.7548828-.578125h.5576172v.6494141c0,6.4599609-.0205078,10.3115234-.0595703,11.5546875-.0234375.7319336-.0351562,1.121582-.0351562,1.168457,0,.8813477.0351562,1.3730469.1064453,1.4755859.09375.1416016.3828125.2397461.8662109.2949219s.7685547.1103516.8554688.1650391c.0625.0317383.09375.0869141.09375.1650391,0,.0869141-.0175781.1474609-.0527344.1831055-.0351562.0351562-.1005859.0532227-.1943359.0532227-.0556641,0-.4677734-.0136719-1.2382812-.0405273l-1.5449219-.0541992-1.9814453.0947266c-.1259766.0073242-.2207031-.0166016-.2832031-.0727539-.046875-.0405273-.0703125-.0966797-.0703125-.1694336,0-.0805664.0253906-.1386719.0761719-.175293.0507812-.0361328.3339844-.0976562.8496094-.184082.5146484-.0864258.8095703-.1591797.8837891-.2182617.0751953-.059082.1240234-.190918.1474609-.3950195.03125-.2832031.0478516-1.0810547.0478516-2.3945312l-.0126953-2.7124023.0361328-2.8066406-.0117188-2.8071289.0351562-1.3798828c0-.2749023-.0429688-.4736328-.1298828-.5952148-.0869141-.1220703-.2714844-.2416992-.5546875-.3598633-.4238281-.1728516-.7148438-.2988281-.8720703-.3774414Z"/>
      <path class="cls-1" d="m141.3300781,91.7900398l-4.7285156.034668-.8964844-.0009766c-.3623047,0-.7314453.0161133-1.1083984.0488281-.0712891.2358398-.1064453.3969727-.1064453.4838867l.0117188.1176758v.1176758l-.0117188.578125c0,.4794922.1513672,1.0673828.4541016,1.7631836s.7353516,1.2265625,1.296875,1.5922852c.5625.3652344,1.2636719.5600586,2.1054688.5834961.4482422-.0234375.8056641-.0786133,1.0732422-.1650391s.6445312-.2866211,1.1318359-.6015625l.8496094-.6958008.0703125.4716797c0,.0551758-.0039062.1142578-.0117188.1767578-.3535156.4482422-.8017578.8417969-1.34375,1.1796875-.5429688.3378906-1.09375.5854492-1.6513672.7431641-.2675781.0703125-.7080078.105957-1.3212891.105957-.5585938,0-1.1083984-.1137695-1.6503906-.3422852-.8027344-.3457031-1.4335938-.9018555-1.8935547-1.668457s-.6894531-1.6962891-.6894531-2.7895508c0-.3457031.0644531-.7900391.1943359-1.3325195s.3632812-1.1201172.7021484-1.7333984c.2275391-.4165039.5068359-.7587891.8369141-1.0258789.4716797-.3779297.8847656-.6411133,1.2382812-.7905273.5107422-.2124023,1.1044922-.3183594,1.78125-.3183594.7304688,0,1.328125.1337891,1.7919922.4008789.6289062.3540039,1.0986328.8100586,1.4091797,1.3681641.3105469.5585938.4658203,1.0693359.4658203,1.5332031v.1650391Zm-6.5800781-.4248047h.5537109c.4013672,0,1.5966797-.0625,3.5859375-.1884766.3144531-.015625.5068359-.046875.5771484-.0942383.1416016-.1494141.2128906-.2832031.2128906-.4008789,0-.2436523-.0791016-.5209961-.2363281-.831543s-.3994141-.550293-.7255859-.7192383-.7050781-.2539062-1.1376953-.2539062c-.9121094,0-1.6435547.3422852-2.1933594,1.0263672-.4248047.5185547-.6367188,1.0063477-.6367188,1.4619141Z"/>
      <path class="cls-1" d="m154.3564453,97.6162117c.1259766-.0864258.2988281-.1455078.5195312-.1767578.3144531-.0395508.5576172-.1025391.7304688-.1889648.1416016-.1176758.2363281-.2866211.2832031-.5073242.0556641-.2827148.0830078-1.2773438.0830078-2.9833984,0-1.6748047-.0517578-2.7558594-.1533203-3.2431641-.1728516-.1103516-.3974609-.1967773-.6728516-.2597656-.0859375-.015625-.2666016-.059082-.5419922-.1298828v-.3950195c.4658203-.1342773.8427734-.3071289,1.1308594-.5205078.2880859-.2128906.6894531-.6386719,1.2021484-1.277832h.0712891c.046875,0,.1220703-.0039062.2246094-.0117188.0634766.0078125.1152344.0273438.1542969.0585938l-.0117188,1.3447266c0,.2753906.0078125.5703125.0234375.8847656.8398438-.7626953,1.59375-1.2973633,2.2607422-1.6040039.4550781-.2045898.96875-.3066406,1.5419922-.3066406.6826172,0,1.2246094.1293945,1.6240234.3891602.4003906.2592773.78125.7270508,1.1425781,1.4033203.6992188-.6918945,1.3339844-1.175293,1.9042969-1.4506836.5703125-.2749023,1.1455078-.4125977,1.7275391-.4125977.8808594,0,1.6044922.2871094,2.1708984.8618164.5576172.5825195.8447266,1.4370117.8603516,2.5625v.9799805l.0117188,1.074707-.0117188,2.7631836c-.0078125.3227539.0625.5668945.2119141.7319336.0634766.0239258.3027344.0947266.7197266.2124023.2597656.0712891.4130859.1259766.4599609.1655273s.0712891.0942383.0712891.1655273c0,.0864258-.0244141.1884766-.0712891.3066406h-.0820312l-1.1884766-.0712891c-.140625-.0073242-.3642578-.0117188-.6699219-.0117188-.3769531,0-.9023438.0161133-1.5771484.0473633h-.5996094c-.0859375,0-.2548828.0039062-.5058594.0117188-.0078125-.0708008-.0117188-.1333008-.0117188-.1884766,0-.0629883.0273438-.1416016.0830078-.2358398.2119141-.0947266.5029297-.1713867.8720703-.2304688.3701172-.0585938.5996094-.1650391.6904297-.3188477.0898438-.1533203.1357422-.765625.1357422-1.8364258,0-2.3227539-.0283203-3.6689453-.0830078-4.0390625-.0947266-.5908203-.3447266-1.0532227-.7509766-1.3876953-.4052734-.3349609-.9160156-.5019531-1.5302734-.5019531-.4736328,0-.9345703.1235352-1.3837891.3710938-.4492188.2480469-.890625.6191406-1.3232422,1.1147461l-.0117188.2827148v1.8046875l-.0478516,1.4033203c0,1.4311523.0136719,2.2451172.0419922,2.4414062.0273438.1967773.09375.340332.2001953.4306641s.4140625.1708984.9257812.2416992c.2275391.03125.4042969.0629883.5302734.0942383.0947266.0786133.1416016.1806641.1416016.3066406,0,.1025391-.0351562.1728516-.1054688.2124023h-.2011719l-.5898438-.012207h-3.4316406l-.9433594.012207c-.015625-.1181641-.0234375-.2045898-.0234375-.2597656l.0117188-.1411133c.1728516-.0947266.4951172-.1850586.9667969-.2714844.2441406-.0390625.4951172-.1064453.7548828-.2006836.046875-.0390625.0830078-.090332.1064453-.1533203.0390625-.1098633.0664062-.4243164.0820312-.9433594l.0595703-1.3681641-.0234375-1.5449219.0117188-.8608398c0-.9667969-.1962891-1.6728516-.5888672-2.1171875-.3916016-.4438477-.8867188-.6660156-1.4824219-.6660156-.5566406,0-1.1162109.1376953-1.6767578.4125977-.5605469.2753906-1.0253906.6450195-1.3945312,1.1088867-.0078125.2197266-.0117188.4204102-.0117188.6015625l.046875,3.9624023c.0078125.8647461.0576172,1.3583984.1474609,1.4799805.0908203.1220703.2929688.206543.6074219.2539062.5029297.0703125.8300781.1572266.9794922.2592773.0703125.0473633.1054688.1176758.1054688.2124023,0,.0629883-.0039062.1376953-.0117188.2236328-.8984375-.0625-1.5009766-.0942383-1.8085938-.0942383-.3154297,0-.5986328.0043945-.8515625.012207l-.5908203.0351562h-.3662109l-1.3242188.046875c-.015625-.0546875-.0234375-.1000977-.0234375-.1362305,0-.034668.015625-.1113281.046875-.2290039Z"/>
      <path class="cls-1" d="m184.9941406,96.4130867c.046875.1025391.0703125.1767578.0703125.2241211,0,.1176758-.0947266.3266602-.2832031.625-.2431641.3930664-.5146484.6801758-.8134766.8608398-.1884766.1181641-.4482422.1772461-.7783203.1772461-.5664062,0-.9912109-.1733398-1.2734375-.519043-.1738281-.2041016-.2949219-.5698242-.3662109-1.0966797l-1.3203125.9199219c-.4648438.2670898-.8183594.4360352-1.0615234.5068359-.3935547.1020508-.8652344.1533203-1.4150391.1533203-.4013672,0-.7177734-.1201172-.9501953-.359375-.2314453-.2402344-.3476562-.5488281-.3476562-.9257812,0-.5429688.3330078-1.1914062.9990234-1.9462891s1.5703125-1.3720703,2.7128906-1.8515625c.8037109-.3378906,1.2958984-.5541992,1.4775391-.6484375.015625-.2597656.0234375-.5424805.0234375-.8491211,0-.9985352-.1396484-1.6748047-.4199219-2.0288086-.2802734-.3535156-.6806641-.5302734-1.2011719-.5302734-.5439453,0-1.0527344.2119141-1.5253906.6367188-.2919922.2670898-.5126953.7705078-.6630859,1.5092773-.046875.2045898-.1376953.4248047-.2714844.6606445-.3378906.2202148-.609375.3300781-.8134766.3300781-.1728516,0-.3300781-.0507812-.4716797-.1533203-.078125-.0546875-.1181641-.1176758-.1181641-.1884766,0-.2045898.21875-.6665039.6552734-1.3857422.4355469-.7197266.9863281-1.2578125,1.6503906-1.6157227.6650391-.3579102,1.2441406-.5366211,1.7402344-.5366211.6757812,0,1.1787109.0610352,1.5087891.1826172.3310547.1220703.6210938.3359375.8730469.6425781s.4052734.6411133.4599609,1.0029297c.03125.1728516.046875.7900391.046875,1.8515625l-.0351562,1.875.0117188,1.3681641c0,.1806641-.0039062.3339844-.0117188.4599609-.0078125.2280273-.0117188.3969727-.0117188.5068359,0,.2597656.0742188.4677734.2246094.625.1484375.1577148.3261719.2363281.5302734.2363281.2988281,0,.5546875-.1494141.7666016-.4482422l.1416016-.1889648c.0390625-.0234375.1259766-.0507812.2597656-.0825195Zm-3.4560547-.3417969c.0546875-.9985352.0830078-1.7021484.0830078-2.1113281,0-.2119141-.0117188-.4990234-.0361328-.8608398-.5283203.1889648-1.0888672.4760742-1.6796875.8608398-.5917969.3857422-1.0615234.8295898-1.4082031,1.3330078-.2529297.3613281-.3789062.7036133-.3789062,1.0258789,0,.3066406.1044922.5620117.3134766.7666016s.4716797.3066406.7871094.3066406c.2441406,0,.5400391-.0864066.8876953-.2592773.4570312-.2280273.9345703-.5820312,1.4316406-1.0615234Z"/>
      <path class="cls-1" d="m191.3007812,98.7954109c-.0947266-.0473633-.3974609-.1767578-.9082031-.3891602-.5976562-.3852539-.9746094-.6723633-1.1318359-.8608398-.1572266-.1889648-.2363281-.3969727-.2363281-.625,0-.2045898.0595703-.3696289.1767578-.4956055.1728516-.1806641.515625-.3535156,1.0263672-.5185547s.9316406-.3261719,1.2617188-.4838867c-.1025391-.0708008-.2636719-.1728516-.4833984-.3066406-1.171875-.7231445-1.7568359-1.7255859-1.7568359-3.0073242,0-1.0537109.3710938-1.9438477,1.1142578-2.6708984.7431641-.7275391,1.6962891-1.0913086,2.859375-1.0913086.5273438,0,1.0107422.074707,1.4511719.2241211.2509766.0786133.625.2753906,1.1201172.5898438.3144531.1962891.4990234.3066406.5546875.3300781.125.0395508.2666016.059082.4248047.059082.1328125,0,.4570312-.0336914.9726562-.1000977.5146484-.0668945.8193359-.1005859.9140625-.1005859.1806641,0,.3300781.0356445.4482422.1064453.09375.1572266.1416016.4204102.1416016.7900391,0,.1259766-.0341797.2202148-.1005859.2832031-.0673828.0629883-.1630859.0942383-.2890625.0942383-.2197266,0-.5839844-.0688477-1.0908203-.206543-.5068359-.137207-.8154297-.2060547-.9257812-.2060547-.0390625,0-.1142578.0078125-.2236328.0234375.3378906.6762695.5068359,1.293457.5068359,1.8515625,0,.5585938-.1767578,1.1362305-.53125,1.7333984-.3535156.5976562-.8408203,1.0537109-1.4619141,1.3681641s-1.25.4716797-1.8867188.4716797c-.0478516,0-.1816406-.0039062-.4013672-.0117188-.7236328,0-1.3876953.1811523-1.9931641.5424805-.2910156.1811523-.4365234.3500977-.4365234.5073242,0,.1650391.1416016.3261719.4248047.4833984.7470703.4008789,2.1621094.6328125,4.2460938.6958008.9033203.0317383,1.6074219.1611328,2.1103516.3891602s.8828125.5644531,1.1386719,1.0083008c.2548828.4443359.3828125.9023438.3828125,1.3740234,0,.637207-.2158203,1.2265625-.6484375,1.769043s-1.0888672.9829102-1.9697266,1.3208008c-.8808594.3383789-1.890625.5073242-3.03125.5073242-1.2578125,0-2.2285156-.1533203-2.9121094-.4599609-.6845703-.3066406-1.1699219-.640625-1.4570312-1.0024414s-.4306641-.7192383-.4306641-1.0732422c0-.3066406.1572266-.6899414.4716797-1.1499023s.9677734-.9414062,1.9580078-1.4448242c.2910156-.1494141.4912109-.2553711.6015625-.3183594Zm-.8613281,4.1870117c.7158203.5498047,1.6201172.8251953,2.7128906.8251953.7783203,0,1.5546875-.1235352,2.3291016-.3710938.7744141-.2480469,1.3408203-.6015625,1.6982422-1.0615234s.5371094-.8945312.5371094-1.3032227c0-.2519531-.0634766-.5014648-.1894531-.7490234-.125-.2475586-.296875-.4521484-.5126953-.6132812s-.5009766-.2890625-.8544922-.3833008c-.2519531-.0708008-.609375-.1220703-1.0732422-.1533203-1.3212891-.1025391-2.1308594-.1533203-2.4296875-.1533203-.8417969,0-1.5927734.2832031-2.2529297.8491211-.5107422.4404297-.7666016.9672852-.7666016,1.5805664,0,.565918.2675781,1.0771484.8017578,1.5332031Zm.3896484-10.9208984c0,.7075195.1064453,1.2988281.3183594,1.7749023.2119141.4755859.5029297.8295898.8730469,1.0610352.3691406.2324219.7421875.3481445,1.1201172.3481445.6835938,0,1.2519531-.2612305,1.7041016-.7841797s.6777344-1.3188477.6777344-2.3881836c0-1.0771484-.2353516-1.8969727-.7070312-2.4589844s-1.0419922-.8432617-1.7099609-.8432617c-.7470703,0-1.3134766.2670898-1.6982422.8017578-.3857422.534668-.578125,1.3642578-.578125,2.4887695Z"/>
      <path class="cls-1" d="m202.5136719,89.6435554l.0117188-.3476562c.5117188-.1499023.7861328-.2368164.8261719-.2607422.2822266-.1259766.5791016-.3193359.8896484-.5795898s.5722656-.5522461.7851562-.8759766c.09375-.015625.1689453-.0234375.2236328-.0234375l.1416016.0117188c.03125.3774414.046875.652832.046875.8256836,0,.0395508-.0078125.2163086-.0234375.5307617v.625l.0117188,3.3964844-.0351562,3.597168c-.0078125.2910156.0390625.4931641.1416016.6074219.1015625.1137695.4042969.2416992.9082031.3833008.3144531.0864258.5498047.1611328.7070312.2241211.0234375.0546875.0361328.1020508.0361328.1416016,0,.046875-.0205078.105957-.0595703.1767578-.3066406-.0078125-.7001953-.027832-1.1787109-.059082-.6533203-.0551758-1.0859375-.0825195-1.2978516-.0825195-.1025391,0-.7314453.0195312-1.8867188.059082-.2363281.0078125-.4638672.0273438-.6845703.059082-.0390625,0-.1015625-.012207-.1884766-.0356445-.0390625-.0551758-.0585938-.1020508-.0585938-.1416016,0-.1098633.0742188-.1962891.2236328-.2592773.03125-.015625.4326172-.105957,1.203125-.2709961.2519531-.046875.4169922-.1254883.4951172-.2353516.1337891-.1650391.2011719-.4282227.2011719-.7890625.015625-.6044922.0234375-2.2612305.0234375-4.9697266,0-.5415039-.0234375-.8793945-.0712891-1.0126953-.0390625-.0942383-.1435547-.2021484-.3125-.3237305s-.5283203-.2451172-1.0791016-.3710938Zm.9912109-6.1210938c0-.2592773.0996094-.4833984.3007812-.671875.2001953-.1884766.4414062-.2832031.7246094-.2832031.2910156,0,.546875.1064453.7666016.3183594.2207031.2124023.3300781.4404297.3300781.684082s-.109375.4741211-.3300781.6899414c-.2197266.2163086-.4755859.3242188-.7666016.3242188s-.5341797-.0981445-.7304688-.2949219c-.1972656-.1962891-.2949219-.4516602-.2949219-.7666016Z"/>
      <path class="cls-1" d="m219.6826172,95.8588874l.0117188.7666016c-.6132812.652832-1.21875,1.1083984-1.8164062,1.3681641-.5976562.2592773-1.3007812.3891602-2.1103516.3891602-.8808594,0-1.6748047-.2299805-2.3828125-.6899414s-1.2519531-1.1108398-1.6337891-1.9516602c-.3808594-.8417969-.5712891-1.6669922-.5712891-2.4770508,0-.8881836.2294922-1.7275391.6894531-2.5180664.4599609-.7900391,1.0693359-1.3798828,1.828125-1.7685547.7587891-.3896484,1.7119141-.5839844,2.8603516-.5839844,1.1005859,0,1.9375.1884766,2.5117188.565918.3222656.2202148.4833984.503418.4833984.8491211,0,.2519531-.0820312.4599609-.2470703.625-.1660156.1650391-.3779297.2480469-.6376953.2480469-.3925781,0-.8251953-.2436523-1.296875-.7314453-.2910156-.2988281-.5546875-.5048828-.7900391-.6191406-.2363281-.1137695-.5-.1708984-.7900391-.1708984-.7001953,0-1.2822266.2871094-1.7460938.8608398-.6445312.8178711-.9667969,1.84375-.9667969,3.078125,0,1.2739258.3300781,2.2880859.9912109,3.0424805.6601562.7548828,1.4306641,1.1323242,2.3115234,1.1323242.6132812,0,1.1572266-.1000977,1.6328125-.300293.4755859-.2006836,1.0322266-.5722656,1.6689453-1.1147461Z"/>
    </g>
    <g>
      <path class="cls-1" d="m90.861573,19.2424359c.6675442-1.3438785,1.1232609-2.5641588,1.8285282-3.6173816,1.4176412-2.1169044,3.3809566-3.4715546,5.9939379-3.7492188,3.380599-.3592188,6.5089657,1.5748954,7.7603838,4.8272477.1401655.3642545.2630636.7351538.5172328,1.1101949.996802-2.7796811,1.4619942-5.6603445,1.9449305-8.4983683-2.2959998-1.8795259-2.728147-3.7694361-1.2587185-5.2725205,1.252759-1.2814238,3.1603389-1.234553,4.3582713.1070609,1.3637234,1.5273094.888147,3.5076538-1.3077645,5.1001295.4186044,2.9415091,1.0045195,5.8991384,2.1133139,8.8433293.1405529-.3346958.3000567-.6628214.4183064-1.0052048.4736992-1.3715004,1.229711-2.553849,2.3337379-3.5006664,2.8682083-2.4597498,7.2164231-2.313446,10.0811897.3468977,1.3260599,1.2313945,2.2933926,2.6940741,2.7731108,4.4581065.0796625.2929948.2029331.5741303.316013.8885194.2482396.0311082.4665479.0946356.6793289.0796476,2.8804102-.2029331,5.3580382,2.6010624,4.6353098,6.1554381-.6781967,3.3353372-2.4418119,6.068669-4.9650146,8.2990258-.9530152.8424084-2.0623907,1.5079413-3.1688758,2.3032554.9553245,1.4439968.511333,2.7855511-.6279737,4.0426754.2178465.3663552.4406692.6888789.6107658,1.0371622.4850519.9930327.1828498,1.8411324-.8399055,2.2713725-.4020521.1691432-.8488446.2508021-1.2835394.3208402-5.3637592.8642497-10.7757152.9795346-16.1861069.872131-3.542278-.0703211-7.0803993-.3869897-10.6178353-.6303723-.7902486-.0543797-1.586695-.2032013-2.350603-.4152969-1.3644534-.3788253-1.7393306-1.2742725-1.1354181-2.5410213.1308092-.2743567.2878101-.5362433.4508896-.8374174-1.0570816-1.3138133-1.3351331-2.7005996-.3419961-4.2717257-.3856786-.25037-.7483986-.4776473-1.1027754-.7172457-3.4004886-2.2989349-5.7490356-5.361003-6.7639245-9.3768312-.3603809-1.4261185-.2758764-2.8408098.4479545-4.1335864.7797451-1.3926117,1.9614083-2.2636849,3.6129418-2.3829775.394722-.0285158.7876116-.0824336,1.0743043-.1131991Zm28.9470085,11.6861653c.3161173-.0399132.4575045-.0170886.5466127-.0748801,3.2802424-2.1277059,5.6123116-5.0013074,6.7157426-8.7767477.2289757-.7833953.2982093-1.6846381.169322-2.4879974-.3773503-2.3524057-1.6605769-4.1861633-3.6463593-5.4832604-2.3880133-1.559818-5.4309814-1.3171803-7.470622.6824725-.8035679.7878499-1.4070931,1.8059569-1.9920397,2.7847466-1.068032,1.7872443-.9020473,3.5259045.3358132,5.2105128.4667267.6351697.8656204,1.3491526,1.1485139,2.0837701.4455559,1.1570806.2609927,2.2804905-.5889246,3.2204694-.6447196.7130146-1.8155665.7671112-2.5323355.1714376-.7037477-.5848126-.8820683-1.7854714-.332312-2.5301156.1399122-.1895393.4274541-.2701404.8226232-.505165-.2844877.5454357-.6072051.8757961-.5674111,1.1543095.0622163.4349332.2846069.9223689.5964036,1.2262545.3521271.343188.8378644.1651057,1.2061862-.1449926.5459572-.4596499.708545-1.4060055.3960331-2.2132831-.3412065-.8813234-1.1713981-1.4664936-2.035618-1.4347448-.7881181.0289628-1.4064077.4508598-1.5283374,1.390511-.1808534,1.3939079-.3422792,2.8363552-.168577,4.2148877.1258927.9992454.7307587,1.9743403,1.264663,2.8757767.5273638.8903817,1.4220512,1.144983,2.4388471.8939425,1.4520122-.3584739,2.7543834-.994314,3.769168-2.1165767,2.3111964-2.5559199,3.4552705-5.5419905,3.1943374-9.0050828-.0384233-.50956-.1904183-1.0763007-.4806867-1.4791275-.2100844-.2915645-.7322784-.4660712-1.122516-.4793309-.2307487-.0078366-.4756509.3996833-.7141766.6204201.198389.184444.385619.3833992.599443.5477897.1247902.0959317.2921605.1366048.4622274.2118126-.6825917.8037318-1.1534602.85759-1.7241937.2547055-.8861952-.9361352-.4071325-2.4981731.8755726-2.8547847,1.127358-.3134207,2.1713288.0919538,2.6787435,1.1734094.2950508.6288527.5171583,1.3390216.5672174,2.0274983.2060767,2.8352825-.4852158,5.4466696-2.155596,7.7750291-.2187404.3048689-.4235507.6196901-.7277641,1.0663335Zm-13.238981-5.469077c1.1837192.3329676,1.4579418,1.0864019.9622225,2.1725952-.4317896.946147-1.4852061,1.3199515-2.4773896.8429448-.8230105-.3956607-1.2624878-1.0856421-1.3695934-1.9872871-.1214082-1.0217273.2152244-1.9197967.7544474-2.7626819.4296889-.6716711.8785374-1.332511,1.2777588-2.0219411.5332487-.920894.6648774-1.8890163.3641353-2.9417624-.4256365-1.4898247-1.2044282-2.7557093-2.2701807-3.8520188-1.7315685-1.7812402-4.3264778-2.2956572-6.620228-1.3405115-3.8393103,1.598733-5.6446266,5.808734-4.1048769,9.669394,1.217524,3.0527863,3.299685,5.4257968,5.9555741,7.3177779.0764295.0544542.2344286-.0055721.4763661-.0189956-.1896287-.3352173-.3157449-.6007242-.4793905-.8406951-1.5033079-2.2046122-2.1495471-4.6448299-1.9913395-7.2975158.0612777-1.0277016.2632573-2.0251443.9636826-2.8426424.5788532-.6756192,1.3345074-.8441218,2.1695857-.6918735.7921109.1444265,1.1924199.7319059,1.4205167,1.4341786.2088776.6430957-.1310327,1.3807524-.7290752,1.6931898-.5668598.2961086-1.0017782.1674894-1.357317-.4690807.1807193-.103962.3542427-.15566.4531243-.2712131.1750728-.2046613.474906-.5227452.415282-.6586349-.1002821-.2285288-.453616-.5029004-.6777646-.4842623-.3555836.0295587-.8127752.1971375-1.0079611.4655497-.2696041.3707354-.4267986.8800123-.4747421,1.3461431-.400756,3.8953884.9848087,7.1410811,3.7973113,9.7670837.649368.6063261,1.5759979.990053,2.4412905,1.2751069,1.6554369.5453612,2.5535659.1711247,3.4694688-1.316644,1.3067216-2.1226404,1.2347169-4.3974247.5350067-6.6702275-.3626902-1.1782067-1.5391389-1.5072709-2.593345-.8674976-.9538495.5788681-1.4045901,1.7714221-.9211174,2.765304.1878855.3862299.6379557.7947331,1.0352701.8789992.2852028.0604881.8026293-.326442.9977555-.6468948.2650451-.4353355.4051212-1.0083633-.1926531-1.4042027-.0884825-.058596-.1485832-.1600551-.2218244-.2416842Zm3.1348624,8.3151311c-.2623187.097213-.685929.3731639-1.1216072.3937834-1.4164791.0670286-2.8465607.1439348-4.2536537.0182507-1.1735137-.1048113-2.4343626-.2673246-3.4626155-.7874924-5.0321325-2.5456697-8.5281207-6.4051079-9.7767827-12.0537273-.0557504-.2522324-.1749536-.4904452-.2567615-.7138042-1.7735675-.1838629-2.8019395.3295856-3.5677694,1.7389879-.5124057.9430481-.5767674,1.9447518-.3763819,2.970606.5381652,2.7547409,2.0142982,4.9789298,3.9704175,6.9220874.0601603.059773.2166397.0226905.3058075.0291416-.2980454-.9718917-.6995463-1.881135-.8246345-2.8269095-.0861732-.6514091.0985539-1.4024745.3682324-2.0189167.2614993-.5977296,1.1982155-.8193604,1.7511303-.5382695.5505012.2798692.8283293.733217.7103328,1.2571839-.5279746-.1165215-1.0197309-.3845612-1.4001056-.2730456-.6315195.1851442-.5012615.8450902-.47799,1.3721858.0994627,2.254865,1.3404966,3.8953586,2.9495096,5.29536.2823125.2456472.8261243.2688889,1.2467549.2611566.8401885-.0154498,1.6789617-.1874684,2.5178243-.1834905,8.3364808.0395258,16.6728274.1018316,25.0092337.1576862,1.9242514.5337404,3.0991357-.5158323,4.0913192-1.9416827.2274859-.3269039.4762171-.6491445.6406821-1.0076631.3637778-.7928559.827197-1.5733608.628659-2.5158428-.2947528-.0306463-.5666364-.0160159-.8098998-.0924604-.6545676-.2057191-1.117078-1.1361779-.8742317-1.6986576.2744014-.6355719,1.1452213-.8863889,1.8360371-.5157876.5473576.2936503.8251112.7635653.9183761,1.3790987.1524717,1.0061285-.093682,1.9254879-.4850221,2.839022-.1492238.3483131-.5493093.6919927-.2071196,1.262309,1.7984331-1.8920705,3.2082228-3.8958801,3.8915148-6.3437706.1421172-.509128.2298101-1.043211.2641065-1.5708877.1249541-1.9236256-1.0227553-3.5394324-2.8071391-4.004714-1.0570667-.2756231-1.2503157-.1792295-1.4816007.8752448-.7755438,3.5356482-2.5143231,6.5245197-5.2206289,8.9017315-2.0074001,1.7632577-4.1675848,3.3805692-6.9325015,3.6981913-1.5765044.1810918-3.1849364.1285893-4.7776803.1021593-.626603-.0103843-1.2496303-.2364101-1.9858121-.3870642Zm-5.2211205,6.622865c6.1699791-.0338793,12.3265494.1357555,18.4640199.793273.3069249.0328811.6385069.0740011.9236502-.0089093.204259-.0593856.4712857-.3086532.4881955-.4935143.017327-.189286-.1941876-.5143425-.3792425-.5838144-.4083244-.1532911-.8599887-.2262046-1.2991829-.2566125-2.962084-.2050189-5.9230655-.4652816-8.889187-.5662937-5.899645-.2009069-11.7906637.0707532-17.6729071.5348727-.3027235.0238973-.614267.0863818-.8922143.2018455-.1137653.0472582-.2183084.2921158-.2006238.4309851.0177144.1388544.1725103.3303901.3045412.3681579.200594.0573594.4336221.0045441.6526159-.0060935,2.8334648-.1374838,5.6668999-.275787,8.500335-.4138965Zm-9.1921489-4.420428c.0095947.1622303.0191744.3244605.0287691.4866908.4279607,0,.8570686.0199194,1.2837629-.0037097,1.3274603-.0735243,2.6533563-.2225098,3.9810104-.2374381,7.5835232-.0852644,15.1704433-.3132717,22.7406621.4018436.2423993.022914.4991906-.1067034.7492925-.16521-.0120231-.1162086-.0240314-.2324024-.0360247-.3485962-9.115913-1.0786397-18.2571834-.8087675-27.4021337-.3119904-.4503383.0244634-.8969967.1173707-1.3453386.1784101Zm14.5338284-28.2767081c.8253496-.0124254,1.5005218-.7219835,1.4851465-1.5607567-.0141834-.7725938-.7852725-1.4661509-1.6155535-1.4531296-.7926473.0124403-1.3636042.6394604-1.3570787,1.4904057.0067937.888728.6390284,1.5362486,1.4874856,1.5234805Zm18.7397323,21.3063494c-.208967-.5152066-.2545714-.8473547-.4446322-1.0251093-.1458866-.136426-.4813124-.1248945-.717946-.0875438-.1258629.0198449-.3376457.2862308-.3085787.3515461.0954997.214837.2488653.4485505.4453175.56169.2043633.1177283.4846348.1037982,1.0258393.199417Z"/>
      <path class="cls-1" d="m110.8297947,1.1089998c.0210367.6400713-.3792127,1.0971437-.9985899,1.1404687-.6087694.0425651-1.0813066-.3793318-1.1299354-1.0088997-.049493-.6400713.4600224-1.2319905,1.0677489-1.2404826.5518123-.0077174,1.0408868.5035857,1.0607764,1.1089136Z"/>
    </g>
  </g>
</svg>